<?xml version="1.0" encoding="utf-8"?>
<!-- Generator: Adobe Illustrator 13.0.0, SVG Export Plug-In . SVG Version: 6.00 Build 14948)  -->
<!DOCTYPE svg PUBLIC "-//W3C//DTD SVG 1.1//EN" "http://www.w3.org/Graphics/SVG/1.1/DTD/svg11.dtd">
<svg version="1.1" id="Layer_1" xmlns="http://www.w3.org/2000/svg" xmlns:xlink="http://www.w3.org/1999/xlink" x="0px" y="0px"
	 width="339.104px" height="339.104px" viewBox="0 0 339.104 339.104" enable-background="new 0 0 339.104 339.104"
	 xml:space="preserve">
<path fill="#FFFFFF" d="M0,169.553C0,75.908,75.909,0,169.553,0s169.552,75.908,169.552,169.553
	c0,93.644-75.908,169.552-169.552,169.552S0,263.196,0,169.553L0,169.553"/>
<path fill-rule="evenodd" clip-rule="evenodd" fill="#1B3F73" d="M145.352,129.315l-0.274,0.271l0.492,0.163l2.611,0.66l2.655,1.938
	l1.366,1.638l1.372,0.939c0,0,0.855-0.622,0.195-1.363l-0.82-0.973l-1.595-1.912l-1.014-0.582l-1.247-0.467l-1.404-0.274
	l-1.402-0.117L145.352,129.315L145.352,129.315L145.352,129.315z M146.571,139.901c0,0-0.153,0.081-0.315,0.05
	c0,0-0.243-0.112-0.162-0.284l0.203-0.366l0.446-0.284l0.488-0.244l0.528-0.163l0.488-0.244l0.934-0.365l0.813-0.285l0.529-0.244
	l0.609-0.162l0.65-0.163l0.203-0.203l0.041-0.326l-0.041-0.203l-0.243-0.203l-0.325-0.082c0,0-0.325-0.041-0.528,0
	c-0.203,0.041-0.447,0.204-0.569,0.204c-0.122,0-0.772,0.407-0.772,0.407l-0.894,0.446l-0.691,0.284l-0.65,0.244l-0.772,0.122
	c0,0-0.528,0-0.65,0.041c-0.122,0.041-0.803-0.082-0.772-0.082c0,0-0.427,0.01-0.65-0.163c-0.071-0.053,0.073-0.437,0.063-0.366
	c0,0,0.305-0.142,0.447-0.122c0,0,0.334-0.031,0.406,0l0.325-0.041h1.179l0.731-0.163c0,0,0.16-0.111,0.231-0.376l0.112-0.559
	l-0.122-0.691l-0.244-0.325l-0.406-0.285l-0.65-0.406c0,0-0.366-0.203-0.447-0.203s-0.61-0.204-0.61-0.204l-0.528,0.042
	c0,0-1.427,0.048-1.74,0.541l-0.351,0.063l0.115-1.267l0.27-0.89l0.751-0.052l1.118,0.223l0.568,0.203l0.528,0.286l0.772,0.284
	l0.528,0.285l0.529,0.204l0.813-0.041l0.366-0.123l0.081-0.325l-0.163-0.447l-0.406-0.487l-0.813-0.61l-0.853-0.487l-0.366-0.285
	l-0.407-0.244l-0.488-0.122l-0.649-0.122h-0.731c0,0-0.67,0.041-0.711,0c0,0-0.335-0.213-0.305-0.325l-0.081-0.65l-0.021-0.424
	l0.488-0.366l0.528-0.244l0.975-0.122h2.642l0.691,0.041l0.975,0.163l0.691,0.284l1.138,0.529l0.569,0.447l1.057,1.219l0.894,1.016
	l0.812,1.138l1.017,1.178l0.975,1.3c0,0,0.244,0.254,0.406,0.488c0.071,0.102,0.152,0.549,0.122,0.65l-0.082,0.691
	c0,0-0.284,0.383-0.792,0.455l-0.894,0.01h-2.561c-0.122,0-0.894,0.081-1.097,0.122l-0.731,0.163l-0.731,0.325l-0.609,0.244
	l-1.017,0.366l-1.097,0.366L146.571,139.901L146.571,139.901"/>
<path fill="#1B3F73" d="M226.808,234.203c0.587-0.755,0.686-2.798,7.721-3.322c1.605,0,2.404,2.063,1.244,2.095
	c-0.514,0.017-0.968-0.04-0.968-0.04c-1.49,0.04-1.122,0.874-1.122,0.874c0,0.003,0.518,1.282,2.809,1.106
	c0.201-0.018,1.087-0.043,1.306-0.103c3.212-0.85,0.794-3.206,0.794-3.206c-0.705-0.806-2.6-1.305-2.6-1.305l-0.792-0.178
	L233.883,230l-2.408,0.303c-3.842,0.8-5.391,0.519-5.391,0.519L226.808,234.203L226.808,234.203"/>
<path fill="#1B3F73" d="M222.122,224.002l1.687,0.775c0,0,3.343,2.519,7.142,1.921c0.197-0.034,6.936-0.65,9.701,2.316
	c0-0.63,0.056-1.844-0.074-2.117c-0.977-2.06-5.429-2.037-5.429-2.037c-4.976,1.228-8.555-0.471-8.555-0.471
	s-2.808-2.105-3.009-2.208c-0.201-0.1-2.172-0.738-2.172-0.738L222.122,224.002L222.122,224.002"/>
<path fill-rule="evenodd" clip-rule="evenodd" fill="#1B3F73" d="M243.407,227.151l-2.428-3.847
	c-1.225-1.405-4.514-1.505-4.514-1.505l-2.006-0.101c0,0-3.109,0.28-3.411,0.3c-3.281,0.231-6.961-1.202-6.961-1.202l-1.204-0.399
	c0,0-0.401-1.547-0.401-1.752c0-0.196,0.1-1.602,0.1-1.602c0.627,2.226,2.808,2.106,2.808,2.106
	c0.691,0.189,1.004-0.101,1.004-0.101l3.553,0.203l5.116-0.203c0,0,2.135,0.194,2.335,0.203c4.03,0.162,5.289,4.453,5.289,4.453
	L243.407,227.151L243.407,227.151"/>
<polyline fill="#1B3F73" points="243.488,214.417 241.982,212.411 240.679,211.309 239.275,210.303 237.87,209.502 236.568,208.698 
	234.862,207.798 232.454,206.492 230.349,205.287 228.542,203.883 227.094,202.982 226.294,202.078 226.193,200.275 
	226.394,198.024 226.996,196.32 227.397,194.813 227.7,193.209 227.94,191.708 227.843,190.602 227.7,189.2 227.397,187.692 
	228.564,186.881 229.345,188.196 229.647,189.3 229.746,190.602 229.647,191.906 229.546,193.611 229.242,195.016 228.742,196.619 
	228.242,197.825 227.843,199.17 227.598,200.677 227.843,201.979 229.145,202.982 230.851,203.481 233.356,204.586 235.564,205.287 
	237.367,205.991 238.975,206.994 240.377,207.998 241.781,209 243.388,210.405 244.893,212.109 244.591,213.015 243.488,214.417 
	243.488,214.417 "/>
<path fill="#1B3F73" d="M246.042,208.436c-1.159-2.202-4.813-2.407-4.813-2.407c-0.356-0.098-0.603-0.501-0.603-0.501
	s0.087-0.26,0.402-0.303c1.566-0.217,4.812,1.24,4.812,1.24l0.303,0.767L246.042,208.436L246.042,208.436"/>
<path fill="none" d="M246.042,208.436c-1.159-2.202-4.813-2.407-4.813-2.407c-0.356-0.098-0.603-0.501-0.603-0.501
	s0.087-0.26,0.402-0.303c1.566-0.217,4.812,1.24,4.812,1.24l0.303,0.767L246.042,208.436L246.042,208.436L246.042,208.436z"/>
<path fill="#1B3F73" d="M230.146,189.2c0,0,2.081,1.897,2.408,3.308c-0.135,0.391-2.206,5.619-2.206,5.619
	c-0.783,3.08-0.114,4.485,2.071,4.04l11.97,0.713l-1.103-3.308c-0.117,0.084-0.698,0.697-1.584,0.615
	c-11.991,2.365-9.049-2.564-9.049-2.564c0.089,0.82,1.706-4.514,1.706-4.514c0.508-1.371-1.004-3.209-1.004-3.209
	c-0.098-0.416-3.18-3.853-3.18-3.853l-1.435,0.844C228.742,186.892,229.873,188.664,230.146,189.2L230.146,189.2"/>
<path fill="#1B3F73" d="M235.807,198.482c1.151-1.544,1.918-2.646,2.305-3.308c1.529-3.371-2.506-5.016-2.506-5.016
	c-0.541-0.353-2.408-0.298-2.408-0.298l-2.108-1.206c0.242,0.302-1-1.003-1-1.003s5.168,0.411,6.522,0.93
	c4.027,2.8,4.692,5.385,1.802,8.197l-1.003,1.948l-0.799,2.488l-1.743-0.066L235.807,198.482L235.807,198.482"/>
<path fill="#1B3F73" d="M237.27,218.931c0-0.199,0-0.801,0-0.801l0.501-2.511l0.301-1.804l0.102-0.704v-0.498l0.499,0.401
	l0.303,0.801l0.198,0.802v0.601l-0.099,0.602l-0.402,1.104c0,0-0.529,0.574-0.2,2.209c0.035,0.168,0.303,0.744,0.303,0.744
	l-0.703,0.1c0,0-0.401-0.202-0.5-0.402C237.469,219.372,237.27,219.133,237.27,218.931L237.27,218.931"/>
<path fill-rule="evenodd" clip-rule="evenodd" fill="#1B3F73" d="M234.862,220.076l-0.502-0.402l-0.502-0.743l-0.2-0.502v-0.501
	l0.2-0.602l0.199-1.003l0.303-1.206l0.1-1.404l-0.201-1.003l-0.7-1.202l-0.803-0.701l-1.003-0.903l-1.505-0.804l-1.706-0.803
	l-0.944-0.499l-1.504-0.804l-1.908-1.404l-1.002-1.004l-0.701-1.104l-0.402-1.403l-0.101-1.504l0.302-1.205l0.501-1.242l0.502-1.105
	l0.402-0.901l0.1-2.009l0.101-0.7l-0.302-1.405l-0.201-0.902l-0.2-0.602c0,0-0.493-1.658-0.192-1.958
	c0.301-0.302,1.828-0.596,1.655-0.593c-1.093-0.145,2.061,0.297,1.447,0.744c0.188,0.305,0.1,1.305,0.1,1.305v1.203l-0.304,1.305
	l-0.299,1.104l-0.299,1.305l-0.303,1.003l-0.401,1.103l-0.3,1.003l-0.2,0.846l-0.401,1.505l-0.102,1.402l0.401,1.507l0.703,1.202
	l0.901,0.903l1.103,0.499l1.649,0.906l1.703,0.701c0,0,0.904,0.401,1.204,0.602c0.302,0.199,2.006,0.902,2.006,0.902l0.802,0.701
	l0.905,1.105l0.701,0.9l0.2,1.205l-0.1,2.105l-0.4,1.906v1.705l0.2,1.045l-0.2,0.604L234.862,220.076L234.862,220.076"/>
<path fill="#1B3F73" d="M215.26,191.104v1.002l-0.2,2.508l-1.905,5.861c-0.392,2.1-0.19,3.738,0.602,4.915l1.704,3.01l0.603,1.103
	c0,0,1.416,4.428-0.5,5.516c-2.909,3.277-3.813-0.5-3.813-0.5l-1.405-2.708l-0.901-3.009c-0.179-0.761-1.808-2.912-1.808-2.912
	l-0.844-1.003l-0.803-0.701l-1.102-1.305l-0.904-0.701l-0.602-0.401c0,0-0.602-0.299-0.803-0.299s-0.804,0.202-0.804,0.202
	s-0.5,0.498-0.4,0.7c0.102,0.199,0.4,0.903,0.4,0.903l0.704,0.399l1.404,0.703l1.104,0.9l1.302,1.604l0.947,1.405l1.103,2.809
	l0.602,2.108l0.901,1.903l1.342,2.184c1.394,1.724,4.162,0.655,4.363,0.655s1.117-0.732,1.117-0.732s0.907,0.269,1.106-0.134
	c0.203-0.401,0.397-2.673,0.397-2.673l0.102-1.707l-0.102-1.202c0.056-0.698-0.702-2.707-0.702-2.707l-2.306-3.915
	c-1.141-2.59,0-5.414,0-5.414l1.504-3.854l0.503-1.506l0.602-2.606v-0.704c-0.538-1.388-2.007-0.701-2.206-0.602
	C215.362,190.302,215.26,191.104,215.26,191.104L215.26,191.104"/>
<path fill-rule="evenodd" clip-rule="evenodd" fill="#1B3F73" d="M217.868,216.683l-0.303,1.005l-0.398,0.802l-0.503,0.602
	l-0.602,0.643l-1.103,0.904c-2.907,1.504-4.916,0.401-4.916,0.401c0.129,0.128-1.606-1.203-1.606-1.203l-3.853-5.661l-1.503-2.306
	l-2.408-2.71c-3.434-2.606-5.114,0.604-5.114,0.604l-0.503,0.801l1.906-4.413c2.583,0.33,5.616,2.407,5.616,2.407l6.062,9.227
	l1.604,1.948c2.356,0.707,3.41-0.543,3.41-0.543s0.419-0.383,0.802-0.802c0.367-0.398,1.406-0.604,1.406-0.604
	s0.6-0.498,0.802-0.601C216.864,217.084,217.868,216.683,217.868,216.683L217.868,216.683"/>
<path fill="#1B3F73" d="M209.868,189.02l0.03,1.454c0.635,0.727,0.446,1.234,0.446,1.234c0.097,0.005-0.601,0.7-0.601,0.7
	l-1.003,1.103l-0.902,1.607l-0.603,1.501l-0.201,1.405c-0.091,2.177,1.292,5.035,1.292,5.035l1.81,2.781
	c1.293,2.484,0.799,4.772,0.799,4.772l-0.39,1.798l1.003,2.006l0.36,0.649c0,0,0.243-1.051,0.341-1.251
	c0.101-0.202,0.279-4.143,0.279-4.143c0.143-1.419-0.479-3.383-0.479-3.383c-2.713-3.978-3.21-5.815-3.21-5.815
	c-0.607-2.177-0.389-3.343,0.301-4.154l1.405-1.906l0.803-1.003l0.901-0.804c0,0,0.302-0.299,0.602-0.701
	c0.303-0.401,0.603-0.803,0.603-0.803l0.2-0.602c0,0-0.1-0.804-0.603-1.003c-0.5-0.199-1.002-0.602-1.002-0.602l-1.153-0.542
	L209.868,189.02L209.868,189.02"/>
<path fill-rule="evenodd" clip-rule="evenodd" fill="#1B3F73" d="M208.859,225.071c0.081,0-0.658-0.144-0.658-0.144l-1.237,0.046
	c-1.386-0.559-2.438-0.082-2.438-0.082l-2.519,1.952l-1.463,1.216l-0.975,1.058c-0.785,0.863-1.426,0.422-1.426,0.422l-1.744-1.234
	l0.567-0.245l1.144-0.065l2.624-1.772l2.49-2.388l0.57-0.487c0.042-2.746-1.95-2.031-1.95-2.031l-0.489,0.407l-0.487,0.813
	c0,0-0.487,0.324-0.812,0.082c-0.328-0.244-0.407-0.732-0.407-0.732s0.376-1.091,1.369-1.695c1.135-0.421,2.044-0.418,2.044-0.418
	l-0.081-0.65c-0.653-1.599-3.08-1.783-3.08-1.783c-3.693,0.15-3.502,2.354-3.502,2.354l-0.313,1.014l-1.293-3.832l1.688,0.055
	c0,0,2.016-0.71,2.179-0.71c0.162,0,0.58-0.134,1.969-0.105c1.435,0.125,3.489,2.685,3.489,2.685l1.628,3.658
	c0.134,0.45,0.565,0.729,0.565,0.729l1.629,0.975C207.94,224.159,208.778,225.071,208.859,225.071L208.859,225.071"/>
<path fill="#1B3F73" d="M218.321,222.216c2.525-6.021,3.671-5.867,2.703-13.253c0.107-0.282-3.984-5.445-3.984-5.445
	c-0.357-0.513-0.322-2.276-0.322-2.276c0.313-2.154,1.785-4.226,1.785-4.226c0.484-0.43,0.975-2.111,0.975-2.111l0.409-3.01v-0.648
	l1.823-0.69c0,0-0.426,6.922-1.172,7.517c-1.609,2.915-1.771,5.164-0.489,6.745l1.707,2.276c0.265,0.24,0.977,0.242,0.977,0.242
	l2.762,2.197l3.248,2.923l2.116,2.356c1.434,2.439,0.918,4.696,0.918,4.696c-0.364,0.079-1.032-0.131-1.032-0.131l-0.052-2.044
	c-0.071-1.293-1.378-2.601-1.378-2.601l-2.629-2.681l-3.143-2.44l-0.486-0.162l-0.081,0.732l0.324,0.567l0.811,0.977l4.224,5.876
	l1.057,1.841l-2.837-0.128l-0.165-1.089c-0.22-2.383-3.17-5.199-3.17-5.199l-0.243,1.381l-0.328,3.656l0.409,1.869
	c0,0,0.113,2.704,0.032,2.542C223.008,222.313,218.321,222.216,218.321,222.216L218.321,222.216"/>
<path fill="#1B3F73" d="M210.053,190.513l0.98,0.842c13.714,0.899,16.937-2.772,16.937-2.772c1.161-0.71,2.6-2.904,2.6-2.904
	l1.508-0.607l-0.165-1.951l-1.609,0.642l-1.477,0.25l-0.975-0.162l-0.327,1.71c-0.521,2.185-12.026,4.226-12.026,4.226l-1.788-0.083
	h-1.546l-1.137,0.325L210.053,190.513L210.053,190.513"/>
<path fill="#1B3F73" d="M211.517,189.297c0,0,0.081-0.978,0.159-1.144c0.084-0.159,0.488-0.646,0.488-0.646
	c6.284,0.04,15.28-3.172,15.28-3.172c1.301-0.141,1.298-0.487,1.298-0.487c1.153-1.753,0.267-2.04,0.267-2.04l-1.973,0.661
	c-6.654,3.599-16.519,3.918-16.519,3.918l-0.384,0.874l0.078,1.137L211.517,189.297L211.517,189.297"/>
<path fill="#1B3F73" d="M210.457,185.894c-0.196-0.731,0.731-0.731,0.731-0.731c4.617-0.063,12.679-2.924,12.843-3.006
	c0.163-0.08,2.761-1.138,2.761-1.138c0.992-0.809,2.058-0.452,2.058-0.452l-0.107-1.824l-0.486-1.299c0,0-0.413-0.676-0.413-0.513
	c0,0.162-1.781,2.381-1.781,2.381c-2.197,2.371-10.485,3.901-10.485,3.901l-1.622,0.245h-2.438
	c-1.283-0.006-1.328-1.884-1.328-1.884l-1.194,1.231l0.488,2.032L210.457,185.894L210.457,185.894"/>
<path fill-rule="evenodd" clip-rule="evenodd" fill="#1B3F73" d="M228.359,177.509c-0.138-1.371-2.581-0.578-2.581-0.578
	c-4.302,3.094-11.52,4.428-11.52,4.428c-3.741-0.306-4.29,1.025-4.29,1.025c-1.428-0.151-1.785-0.975-1.785-0.975
	s-0.409-3.089-0.409-3.251s-0.402-0.729-0.402-0.729l0.99,0.306l1.769,1.903c5.964,0.293,8.372-3.023,8.372-3.023
	c3.23-1.206,4.297-1.582,5.203-2.682c0.417-0.504,0.813-0.404,0.976-0.487c0.16-0.083,3.161-0.128,3.161-0.128L228.359,177.509
	L228.359,177.509"/>
<path fill-rule="evenodd" clip-rule="evenodd" fill="#1B3F73" d="M183.882,169.709c0,0,1.874-1.424,2.033-1.625
	c0.138-0.175,0.648-0.731,0.814-0.894c0.162-0.162,0.975-0.731,0.975-0.731c0.463,0.079,2.193,0,2.193,0
	c0.023,0.039,0.288,0.506,0.701,0.811c0.402,0.292,1.006,0.977,1.006,0.977l1.055,0.731c0,0,1.058,0.731,1.22,0.731
	c0.165,0,1.383,0.408,1.383,0.408l1.055,0.404l1.059,0.65l1.463,0.486l1.135,0.57l0.653,0.484l0.649,0.487l1.729,1.359l1.017,0.673
	l0.934,0.618c0.623,1.299,3.392,1.903,3.392,1.903l-0.731-1.22l-0.405-1.137l-0.083-1.383c0,0-0.163-0.894-0.163-1.057
	s-0.243-0.729-0.243-0.729l-1.218-0.812l-1.035-0.647l-2.058-0.41l-0.89-0.487l-1.527-0.821c0,0-1.317-0.479-1.483-0.479
	c-0.159,0-1.135,0-1.135,0l-1.137-0.406c-2.803-1.407-4.634-3.495-4.634-3.495l-0.974-0.975l-0.814-0.244l-0.975-0.082l-1.382,0.082
	c0,0-0.562,0.016-3.413,1.95c-0.896,0.813-2.116,0.244-2.116,0.244c0.026-0.185,0.409,1.625,0.409,1.625l0.895,1.626
	L183.882,169.709L183.882,169.709"/>
<path fill="#1B3F73" d="M218.67,176.753c-0.054-0.516-1.302-0.935-1.302-0.935l-2.797,0.132l-2.275-0.245l-1.22-0.405l-0.894-0.407
	l-0.73-0.486l-0.732-0.488l-1.626-1.382l-0.975-0.244l-1.057-0.567l-0.835-1.001l1.403,0.105c0,0,1.625,0.083,1.787,0.083
	c0.165,0,1.545,0.079,1.545,0.079s1.22,0.326,1.382,0.326c0.163,0,1.139,0.324,1.139,0.324l1.38,0.732l1.951,0.895
	c2.073,1.22,3.575-0.245,3.575-0.245l0.977,0.162c0.696,2.511,3.658,1.869,3.658,1.869
	C222.741,175.445,218.67,176.753,218.67,176.753L218.67,176.753"/>
<path fill="#1B3F73" d="M198.106,124.358l-0.815-0.325l-0.975-0.568l-0.648-0.488l-0.894-0.163l-0.896-0.163l-0.977-0.569
	l-1.38-0.894l-0.726-1.051l-0.736-1.224l-1.138-1.869l-0.651-1.707l-0.245-0.895v-0.569l0.329-0.163
	c0.494,0.034,1.134,0.407,1.134,0.407c0.874,0.347,1.95,1.381,1.95,1.381l0.976,0.813l0.815,0.406l1.788,0.65l1.055,0.325
	l2.681,0.649c1.59,0.425,2.927,1.139,2.927,1.139c2.664,1.843,3.008,3.9,3.008,3.9l0.405,1.87l0.165,1.787l-0.082,1.382l-0.162,1.95
	l0.162,1.057l0.404,1.219l0.243,0.813c0.052,0.582,0.052,0.934,0,1.056c-0.328,0.033-0.891-0.325-0.891-0.325
	c-0.339-0.254-0.731-0.976-0.731-0.976l-0.488-0.813l-0.243-1.219l-0.084-1.869l-0.161-1.544v-2.194
	c0.253-2.125-1.38-4.389-1.38-4.389l-1.058-0.894l-1.382-0.649l-1.056-0.407l-2.193-0.487l-2.035-0.326l-1.95-0.894l-0.893-0.649
	c-1.097-0.133-0.648,0.894-0.648,0.894l0.405,0.976l0.648,0.894c1.562,1.034,2.276,1.056,2.276,1.056s2.599,0.082,2.842,0.163
	c0.245,0.081,0.896,0.325,0.896,0.325l0.811,0.407l0.733,0.568l0.651,0.894l0.078,0.731
	C199.48,124.82,198.106,124.358,198.106,124.358L198.106,124.358"/>
<path fill="none" d="M198.106,124.358l-0.815-0.325l-0.975-0.568l-0.648-0.488l-0.894-0.163l-0.896-0.163l-0.977-0.569l-1.38-0.894
	l-0.726-1.051l-0.736-1.224l-1.138-1.869l-0.651-1.707l-0.245-0.895v-0.569l0.329-0.163c0.494,0.034,1.134,0.407,1.134,0.407
	c0.874,0.347,1.95,1.381,1.95,1.381l0.976,0.813l0.815,0.406l1.788,0.65l1.055,0.325l2.681,0.649
	c1.59,0.425,2.927,1.139,2.927,1.139c2.664,1.843,3.008,3.9,3.008,3.9l0.405,1.87l0.165,1.787l-0.082,1.382l-0.162,1.95l0.162,1.057
	l0.404,1.219l0.243,0.813c0.052,0.582,0.052,0.934,0,1.056c-0.328,0.033-0.891-0.325-0.891-0.325
	c-0.339-0.254-0.731-0.976-0.731-0.976l-0.488-0.813l-0.243-1.219l-0.084-1.869l-0.161-1.544v-2.194
	c0.253-2.125-1.38-4.389-1.38-4.389l-1.058-0.894l-1.382-0.649l-1.056-0.407l-2.193-0.487l-2.035-0.326l-1.95-0.894l-0.893-0.649
	c-1.097-0.133-0.648,0.894-0.648,0.894l0.405,0.976l0.648,0.894c1.562,1.034,2.276,1.056,2.276,1.056s2.599,0.082,2.842,0.163
	c0.245,0.081,0.896,0.325,0.896,0.325l0.811,0.407l0.733,0.568l0.651,0.894l0.078,0.731
	C199.48,124.82,198.106,124.358,198.106,124.358L198.106,124.358L198.106,124.358z"/>
<path fill="#1B3F73" d="M209.534,161.532c-0.402,0.604,0.148,1.041,0.977,1.219c-0.013,0.104,1.542,0.406,1.542,0.406
	c0.411,0.019,0.811-0.487,0.732-0.73c-0.084-0.245-0.486-0.488-0.486-0.488C211.084,160.881,209.534,161.532,209.534,161.532
	L209.534,161.532"/>
<path fill="none" d="M209.534,161.532c-0.402,0.604,0.148,1.041,0.977,1.219c-0.013,0.104,1.542,0.406,1.542,0.406
	c0.411,0.019,0.811-0.487,0.732-0.73c-0.084-0.245-0.486-0.488-0.486-0.488C211.084,160.881,209.534,161.532,209.534,161.532
	L209.534,161.532L209.534,161.532z"/>
<path fill="#1B3F73" d="M172.587,142.156c-0.286,0.071-0.729-0.325-0.729-0.325c-0.489-0.721-0.166-1.543-0.166-1.543
	c0.053-0.112,0.341-0.422,0.487-0.488c0.165-0.071,0.571-0.243,0.731-0.243c0.896-0.158,1.323-0.049,2.034,0.243
	c0.15,0.036,0.813,0.407,0.813,0.407l0.809,0.65c0.44,0.441,0.655,0.767,0.653,0.975c0,0,0.109,2.281-0.164,2.52
	c-0.87,1.153-1.817,1.859-2.843,2.113l-3.738,0.894l-1.056,0.407l-0.569,0.731l-0.698,1.664c0,0-0.632-3.767-0.795-3.848
	c-0.162-0.081-0.458-2.285-0.458-2.285l2.52,2.031c3.863,0.018,5.851-1.95,5.851-1.95l0.244-1.056
	c-0.022-0.584-0.049-0.91-0.081-0.976c0,0-0.506-0.846-1.869-0.407C173.197,141.951,172.587,142.156,172.587,142.156
	L172.587,142.156"/>
<path fill="none" d="M172.587,142.156c-0.286,0.071-0.729-0.325-0.729-0.325c-0.489-0.721-0.166-1.543-0.166-1.543
	c0.053-0.112,0.341-0.422,0.487-0.488c0.165-0.071,0.571-0.243,0.731-0.243c0.896-0.158,1.323-0.049,2.034,0.243
	c0.15,0.036,0.813,0.407,0.813,0.407l0.809,0.65c0.44,0.441,0.655,0.767,0.653,0.975c0,0,0.109,2.281-0.164,2.52
	c-0.87,1.153-1.817,1.859-2.843,2.113l-3.738,0.894l-1.056,0.407l-0.569,0.731l-0.698,1.664c0,0-0.632-3.767-0.795-3.848
	c-0.162-0.081-0.458-2.285-0.458-2.285l2.52,2.031c3.863,0.018,5.851-1.95,5.851-1.95l0.244-1.056
	c-0.022-0.584-0.049-0.91-0.081-0.976c0,0-0.506-0.846-1.869-0.407C173.197,141.951,172.587,142.156,172.587,142.156
	L172.587,142.156L172.587,142.156z"/>
<path fill="#1B3F73" d="M154.82,98.192c0.609-0.521,3.553-1.844,3.553-1.844c-0.008-0.08,3.685-1.184,3.685-1.184
	s1.983-0.572,2.502-0.658c7.322-1.136,12.951-1.598,16.876-1.386c7.621-0.036,14.072,1.78,14.072,1.78
	c3.764,0.808,11.591,3.817,11.591,3.817c1.521,0.582,6.649,3.292,9.346,7.502c0.202,0.314,5.658,9.092,5.658,9.092
	c1.642,3.423,3.714,11.038,3.714,11.038l1.026,4.363l1.324,4.869c1.973,7.444,2.371,11.591,2.371,11.591l0.4,3.42l0.673,6.146
	l0.242,3.21l0.657,5.133c0.132,0.584-1.58,6.055-1.58,6.055l-1.973,2.633l-1.854,0.528v-1.055l2.117-2.765
	c0.221-0.033,1.447-2.631,1.447-2.895c0-0.264-0.396-10.662-0.396-10.662l-0.263-5.668l-0.361-3.552
	c0.104-0.415-0.559-4.608-0.559-4.608c0.016-0.249-0.923-2.765-0.923-2.765l-0.932-3.289l-0.919-3.17l-0.974-3.875l-0.591-3.539
	c-0.079-1.264-2.123-7.194-2.123-7.194c-2.664-6.118-7.896-12.645-7.896-12.645l-3.291-3.028
	c-18.05-10.997-38.923-8.688-39.634-8.688c0,0-4.13,0.49-8.171,1.186c-3.764,0.896-5.935,1.968-5.935,1.968
	c-0.973,0.592-2.49,0.795-2.49,0.795C154.479,98.806,154.82,98.192,154.82,98.192L154.82,98.192"/>
<path fill="#1B3F73" d="M186.729,101.086c0.373,0.166,1.074,0.562,2.104,1.184c4.268,2.712,7.697,4.389,11.064,5.45
	c0.264,0.132,6.595,2.794,8.162,6.398c1.478,2.148,2.104,4.221,2.104,4.221c-0.034-0.379,0.923,3.027,0.923,3.027l1.183,6.187
	l0.791,2.237c0.877,2.631,2.766,4.211,2.766,4.211l5.001,4.353c0,0,2.885,3.183,2.719,5.893c0.166,0.548-0.477,0.81-0.746-0.102
	c-0.313-1.061-0.398-1.275-0.736-1.91c-0.61-1.143-3.08-3.354-3.08-3.354l-2.895-2.106l-2.896-2.247l-1.974-1.709
	c-1.217-2.204-0.923-4.082-0.923-4.082l0.134-2.895c0.335-1.448-1.188-6.32-1.188-6.32l-0.568-1.351l-0.483-1.148l-0.921-1.983
	c-0.138-0.112-0.653-0.541-1.852-1.712c-2.874-3.368-8.16-4.871-8.16-4.871c-2.279-0.475-3.97-0.988-5.66-1.841
	C186.363,103.439,186.729,101.086,186.729,101.086L186.729,101.086"/>
<path fill="none" d="M186.729,101.086c0.373,0.166,1.074,0.562,2.104,1.184c4.268,2.712,7.697,4.389,11.064,5.45
	c0.264,0.132,6.595,2.794,8.162,6.398c1.478,2.148,2.104,4.221,2.104,4.221c-0.034-0.379,0.923,3.027,0.923,3.027l1.183,6.187
	l0.791,2.237c0.877,2.631,2.766,4.211,2.766,4.211l5.001,4.353c0,0,2.885,3.183,2.719,5.893c0.166,0.548-0.477,0.81-0.746-0.102
	c-0.313-1.061-0.398-1.275-0.736-1.91c-0.61-1.143-3.08-3.354-3.08-3.354l-2.895-2.106l-2.896-2.247l-1.974-1.709
	c-1.217-2.204-0.923-4.082-0.923-4.082l0.134-2.895c0.335-1.448-1.188-6.32-1.188-6.32l-0.568-1.351l-0.483-1.148l-0.921-1.983
	c-0.138-0.112-0.653-0.541-1.852-1.712c-2.874-3.368-8.16-4.871-8.16-4.871c-2.279-0.475-3.97-0.988-5.66-1.841
	C186.363,103.439,186.729,101.086,186.729,101.086L186.729,101.086L186.729,101.086z"/>
<path fill="#1B3F73" d="M155.97,103.57c1.342-0.73,5.958-1.826,5.958-1.826c0.3-0.166,4.482-0.79,4.746-0.79
	c0.262,0,7.765-1.052,7.765-1.052c3.271-0.233,5.793,0.79,5.793,0.79c0.929,0.259,1.708,0.919,1.708,0.919l4.215,3.291l4.22,2.896
	c0,0,2.5,1.315,2.896,1.447c0.394,0.132,5.658,1.976,6.186,2.105c0.526,0.132,4.476,1.976,4.476,1.976s5.569,3.185,5.098,5.395
	c-2.345-2.477-6.545-4.211-6.545-4.211c-11.472-3.83-13.163-5.659-13.163-5.659l-3.167-2.107l-2.768-1.842
	c-3.633-2.905-8.697-3.128-8.697-3.128c-5.006-0.435-13.64,1.227-13.64,1.227C157.608,103.955,155.97,103.57,155.97,103.57
	L155.97,103.57"/>
<path fill-rule="evenodd" clip-rule="evenodd" fill="#1B3F73" d="M193.799,98.91c-0.267,0.01,1.809,0.161,3.552,0.597
	c0.526,0.132,3.11,1.082,3.423,1.186c0.249,0.081,4.681,2.004,5.265,2.367c2.684,1.537,4.501,2.799,5.537,3.685
	c3.002,2.573,3.729,4.274,3.729,4.274c2.115,2.814,3.735,5.494,4.826,9.425l0.922,3.159l0.527,2.763l0.789,4.607l0.658,2.763
	l-2.634-3.685l-0.961-1.248l-0.749-1.251l-0.79-2.369c-2.638-11.701-4.738-14.226-4.738-14.226
	c-2.664-4.033-6.723-6.318-6.723-6.318c-0.834-0.564-5.923-2.896-5.923-2.896s-4.238-1.577-4.737-1.711
	C192.74,99.22,193.799,98.91,193.799,98.91L193.799,98.91"/>
<path fill="#1B3F73" d="M167.069,113.588c2.636,1.483,4.343,1.712,4.343,1.712c2.093,0.007,4.476,0.536,4.476,0.536
	s1.58,0.789,1.843,1.579c0.264,0.791,0.264,1.185,0.264,1.185l0.13,2.501c0,0,0.528,2.896,0.922,3.027
	c0.396,0.132,0.369,0.866,5.922,2.237c0.257,0.063,2.869,1.164,3.171,1.581c0.752,0.586,1.233,1.111,1.447,1.579
	c1.956,3.211,0.658,10.144,0.658,10.144l0.264,1.448c2.488,2.151,3.816,1.844,3.816,1.844s0-0.528,0-0.791
	c0-0.263-0.659-1.579-0.659-1.579l-2.499-11.197c-1.077-2.101-5.802-4.082-5.802-4.082c-2.76-0.694-2.895-2.763-2.895-2.763
	l-0.66-2.763l-0.787-2.898c-0.715-3.673-3.949-3.563-3.949-3.563h-3.424l-1.708-0.129l-1.449-0.264l-2.238-0.922
	C168.255,112.008,165.766,111.459,167.069,113.588L167.069,113.588"/>
<path fill="#1B3F73" d="M167.447,119.05l1.598,0.336l1.184,0.393c1.081,0.046,1.315-0.262,1.315-0.262l2.37-0.79h0.792l1.577,0.262
	c3.086,0.729,3.291,2.634,3.291,2.634l-1.844-0.526l-1.712-0.132l-2.63-0.132l-1.845,0.132
	C168.956,121.829,167.447,119.05,167.447,119.05L167.447,119.05"/>
<path fill-rule="evenodd" clip-rule="evenodd" fill="#1B3F73" d="M166.546,108.325c2.293,3.091,4.721,1.265,4.607,1.45l3.816-0.79
	c1.031-0.074,2.019-0.122,2.31-0.086c1.728,0.12,2.422,0.404,2.854,0.536c1.187,0.343,2.129,0.479,3.654,2.839
	c-0.024-0.221,1.316,2.502,1.316,2.502l1.064,2.773c1.643,6.246,7.896,8.556,7.896,8.556l3.685,1.052l1.187,0.528
	c0,0,1.438,1.1,1.71,1.842c0.129,0.35,0.921,1.843,0.921,1.843l0.79,2.367l1.184,3.302l1.053,0.922l1.316,1.051l1.194,1.58
	c-0.444,0.379-0.263,1.315-0.263,1.315c0,0.149-1.193,0.397-1.193,0.397l-1.271,0.35c-0.598-0.253-0.966-1.272-0.966-1.272
	l-0.396-1.973l-1.71-5.671c-1.297-3.328-3.687-3.947-3.687-3.947l-3.29-1.579l-4.476-2.502c-3.261-1.539-5.011-7.238-5.011-7.238
	c-1.369-5.725-3.949-6.986-3.949-6.986c-1.359-1.413-8.116-0.615-8.116-0.615l-2.639,0.871c0.294-0.135-4.117,1.456-4.117,1.456
	s0.133-2.106,0.133-2.37C166.152,110.562,166.546,108.325,166.546,108.325L166.546,108.325"/>
<path fill-rule="evenodd" clip-rule="evenodd" fill="#1B3F73" d="M194.453,132.015c2.558,3.129,1.448,8.973,1.448,8.973l0.528,2.763
	l1.71,2.501c0,0,3.027,3.422,3.158,3.685c3.514,3.988,2.67,7.78,1.319,10.802l-1.319,1.58l-0.26,0.526l-0.133,3.423l0.525,0.922
	c0.879,0.544,3.949,0.658,3.949,0.658s3.957,0,4.222,0.132c0.26,0.129,1.841-0.264,1.447-0.528
	c-0.396-0.262-1.054-0.526-1.054-0.526s-1.841-1.447-1.974-1.844c-0.132-0.394-0.394-2.631-0.394-2.895
	c0-0.262-0.396-1.184-0.396-1.184c-0.105-0.216-0.745-1.222-1.193,0.132c0.081-0.257-0.265,1.447-0.265,1.447l-0.394,1.58
	l-1.447,0.658c-0.182,0.035-0.403-0.008-0.658-0.132c-0.266-0.198-0.131-1.186-0.131-1.186c0.185-0.475,1.051-1.709,1.051-1.709
	l0.527-1.712l0.658-2.37l0.262-2.773l-0.658-2.37l-0.789-1.58l-3.156-4.211l-1.448-1.974l-1.45-1.976l-0.658-2.37l-0.144-5.762
	c0.081-1.747-1.696-3.723-1.696-3.723C193.639,130.187,194.453,132.015,194.453,132.015L194.453,132.015"/>
<path fill-rule="evenodd" clip-rule="evenodd" fill="#1B3F73" d="M153.936,101.034l3.918-1.717l4.861-1.125
	c11.721-1.78,20.016-1.054,20.016-1.054c6.877,1.211,11.329,3.424,11.329,3.424s11.653,4.914,16.067,10.133
	c1.324,1.798,1.844,3.424,1.844,3.424l3.288,10.143c1.021,3.149,2.108,4.475,2.108,4.475c0.746,0.999,1.709,1.448,1.709,1.448
	l1.186,0.528c1.15,0.45,2.105,1.841,2.105,1.841c1.36,1.88,1.315,3.564,1.315,3.564c0.27,0.185,0,1.844,0,1.844l-1.183-1.447
	l-2.327-2.345c-5.168-2.87-6.623-10.433-6.623-10.433l-0.922-3.949l-1.319-3.949c-1.425-7.37-20.802-15.144-20.802-15.144
	c-8.152-3.929-18.439-2.634-18.439-2.634c-1.241,0.025-4.472,0.526-4.472,0.526l-8.434,1.448l-3.276,0.716L153.936,101.034
	L153.936,101.034"/>
<path fill="#1B3F73" d="M222.104,176.142c0.506-0.032,0.813-0.559,0.923-1.582l0.396-1.844l0.262-2.367l0.132-1.975l0.264-2.105
	v-1.711c-1.387-3.406-6.054-5.397-6.054-5.397l-2.501-0.79l-1.844-1.052l-1.447-1.326l-1.448-0.922l-1.842-0.526
	c-1.081-0.069-0.396-0.657-0.396-0.657s0.658-0.265,1.188-0.265c0.523,0,1.973,0.132,2.366,0.265
	c0.396,0.129,1.711,0.393,1.711,0.393s1.18,1.181,1.976,1.58c3.147,1.571,10.134,6.722,10.134,6.722
	c0.835,0.518,0.789,2.238,0.789,2.238v1.712l-0.132,1.841l-0.393,1.316l-0.658,2.895l-0.265,1.844c0,0-0.393,0.659-0.524,0.921
	c-0.134,0.262-0.79,0.92-0.79,0.92l-1.054,0.266L222.104,176.142L222.104,176.142"/>
<path fill-rule="evenodd" clip-rule="evenodd" fill="#1B3F73" d="M226.578,161.925l-1.708-2.898c0,0-1.791-3.545-5.27-5.222
	c-2.017-0.577-2.45-1.439-2.45-1.439c-0.046-0.054-0.046-2.296-0.046-2.296c0.408-3.469-2.635-6.451-2.635-6.451
	s-3.685-1.973-3.947-2.106c-0.265-0.132-3.764-1.183-4.091-1.315c-0.244-0.102-2.632-1.976-2.632-1.976l-0.525-1.448l1.052,0.658
	l3.432,1.712l7.88,3.889c1.801,0.973,2.781,2.166,2.781,2.166c0.354,0.716,1.055,3.95,1.055,3.95
	c0.127,1.198,1.314,1.973,1.314,1.973c0.577,0.522,5.397,5.003,5.397,5.003C227.061,157.351,226.578,161.925,226.578,161.925
	L226.578,161.925"/>
<path fill="none" d="M226.578,161.925l-1.708-2.898c0,0-1.791-3.545-5.27-5.222c-2.017-0.577-2.45-1.439-2.45-1.439
	c-0.046-0.054-0.046-2.296-0.046-2.296c0.408-3.469-2.635-6.451-2.635-6.451s-3.685-1.973-3.947-2.106
	c-0.265-0.132-3.764-1.183-4.091-1.315c-0.244-0.102-2.632-1.976-2.632-1.976l-0.525-1.448l1.052,0.658l3.432,1.712l7.88,3.889
	c1.801,0.973,2.781,2.166,2.781,2.166c0.354,0.716,1.055,3.95,1.055,3.95c0.127,1.198,1.314,1.973,1.314,1.973
	c0.577,0.522,5.397,5.003,5.397,5.003C227.061,157.351,226.578,161.925,226.578,161.925L226.578,161.925L226.578,161.925z"/>
<path fill="#1B3F73" d="M168.512,110.24c-0.577-0.915-0.389-2.044-0.389-2.044c1.298-2.279,11.582-1.08,12.636-0.529l4.605,2.502
	l4.88,2.631c8.429,4.331,14.278,5.682,14.278,5.682c2.827,1.696,2.438,8.675,2.438,8.675l0.14,3.817l0.132,2.238l0.265,1.711
	c0.143,1.156,1.184,1.851,1.184,1.851l10.397,6.055c0,0,2.844,1.804,3.159,6.451c-0.005,1.752-0.789,2.631-0.789,2.631
	c0.063,0.38,0,1.186,0,1.186s0.132,0.261,1.054,0.79c0.921,0.525,1.841,1.051,1.841,1.051l-0.133-1.184l-0.525-1.843l-0.131-4.21
	l0.217-3.13c0.098-0.8-0.383-1.227-1.269-1.742l-1.319-0.658l-5.262-2.63l-1.843-1.055l-2.635-1.58l-1.708-1.851l-1.055-1.976
	l-0.658-2.367l-0.264-2.24v-1.841l-0.119-2.423l-0.143-2.448c0.464-3.779-7.646-5.922-7.646-5.922l-5.79-1.983l-2.369-1.054
	l-4.079-2.895c-0.029-0.201-4.092-2.763-4.092-2.763c-5.389-2.898-11.331-2.55-11.331-2.55l-2.542,0.208
	c-2.106,0.333-3.236,1.42-3.236,1.42l-0.132,1.054c0,0,0.216,1.006,0.325,1.248c0.158,0.35,0.597,0.99,0.597,0.99L168.512,110.24
	L168.512,110.24"/>
<path fill="#1B3F73" d="M168.161,122.263c0.231,0.166,7.072,5.648,7.072,5.648c2.583,2.38,6.542,3.088,6.542,3.088
	c0.834,0.196,3.209,0.082,3.209,0.082c2.357,0.609,2.235,3.616,2.235,3.616c0.724,4.396-1.328,4.447-1.328,4.447
	c-0.582,0.349-1.053,0.526-1.053,0.526s-1.053,0.658-0.13,0.79c0.918,0.132,4.352-0.261,4.352-0.261l-1.185-8.302
	c-0.899-3.253-5.451-2.887-5.451-2.887c-1.016,0.203-2.397,0.041-2.397,0.041c-3.048-0.772-4.957-2.642-4.957-2.642l-6.543-4.917
	C166.634,120.8,168.161,122.263,168.161,122.263L168.161,122.263"/>
<path fill="#1B3F73" d="M220.214,174.56l0.311-2.105l0.767-2.77c0.081-0.365-0.243-1.078-0.243-1.078
	c0-0.122-1.828-2.397-1.828-2.397c-0.224-0.427-0.083-1.971-0.083-1.971c0.036-0.807-0.423-2.455-1.376-4.947
	c-1.123-1.818-3.027-2.37-3.027-2.37s-1.053-0.414-1.053-0.271c-0.217,0.071-0.219,0.285-0.009,0.635
	c2.683,2.708,3.167,5.824,3.167,5.824c0.125,0.479,0.095,0.38,0.227,0.643c0.133,0.263,0.432,1.2,0.432,1.2l0.528,1.316l1.448,2.895
	c0.578,0.767-0.791,2.633-0.791,2.633l0.133,1.844L220.214,174.56L220.214,174.56"/>
<path fill="#1B3F73" d="M219.999,175.218l-0.133-1.975c0,0-0.233-1.841-0.525-2.106c-4.592-4.195-10.004-4.079-10.004-4.079
	l-0.923,0.262l0.442,0.657c10.81,2.376,9.57,5.161,9.57,5.161c0.473,0.564,0.256,0.895,0.256,0.895l0.658,0.789L219.999,175.218
	L219.999,175.218"/>
<path fill="#1B3F73" d="M204.854,166.661c0,0,3.508-0.408,3.8-0.492c5.31-1.499,8.581-0.427,8.581-0.427
	c0.643,0.02,1.252,0.955,1.252,0.955l0.366-0.427l-0.038-0.792c-0.084-1.24-2.461-1.524-2.461-1.524l-5.811,0.305l-2.522,0.429
	l-3.956,1.054L204.854,166.661L204.854,166.661"/>
<path fill="#1B3F73" d="M199.143,133.176l0.052,1.616c0,0-0.272,5.025-0.265,4.485c-0.034-0.1,0.113,2.775,1.186,3.685
	c0.635,0.391,2.004,1.592,2.004,1.592c0.814,0.582,2.153,2.989,2.153,2.989s1.196,3.929,0.975,4.236l-0.393,2.109l0.603,1.191
	c0,0,2.171-0.404,2.433-0.404c0.265,0,1.054-0.262,1.054-0.262l0.132-0.658c0,0-0.661-0.396-0.921-0.264
	c-0.265,0.132-0.658,0.264-0.658,0.264l-0.396-1.711c-0.019-0.734-1.503-3.614-1.503-3.614l-0.35-0.993l-0.789-2.501l-1.579-2.238
	c-1.153-0.441-1.974-2.105-1.974-2.105c-0.471-0.785-0.658-5.933-0.658-5.933C200.146,134.124,199.143,133.176,199.143,133.176
	L199.143,133.176"/>
<path fill="#1B3F73" d="M214.47,156.125c0.461,0.308-0.526-1.58-0.526-1.58l0.526-4.345c-0.351-4.729-5.133-7.764-5.133-7.764
	l-2.51-0.79l-1.447,0.132c-1.512,1.255-3.291,0.658-3.291,0.658s-3.553,0.79-4.212,0.526c-0.656-0.264-1.317-1.054-1.317-1.054
	s-0.389-1.158-0.525-0.79c-0.285,0.765-2.369,0-2.369,0l-3.817-1.576l-0.395,0.129l-2.896,0.396l-0.132,0.526l0.658,0.264
	c0,0,6.314,2.012,7.243,5.628c0.104,0.404,1.574,0.427,1.839,0.427c0.264,0,3.159-1.054,3.159-1.054s1.027-2.687,3.292-1.315
	c0.335,0.203,3.289-0.132,3.289-0.132l2.641,0.396c3.136,0.869,3.687,6.317,3.687,6.317c0.263,0.574-0.658,1.844-0.658,1.844
	s1.522,2.801,1.711,3.027C214.051,156.904,214.47,156.125,214.47,156.125L214.47,156.125"/>
<path fill="#1B3F73" d="M167.181,135.733l0.922-0.657l0.79-0.791c0,0,0.919-1.053,1.316-1.053c0.393,0,1.315,0,1.315,0
	s2.34,0.429,2.735,0.561c0.394,0.129,2.398,0.887,2.398,0.887l2.633,0.528l1.051,0.132l1.713,0.929l0.921,1.184l0.394,0.79
	l0.133,1.054l0.789,0.657l1.72,0.397l-0.798-2.37l-1.318-3.038l-0.919-0.789l-1.054-0.526c-6.232-1.115-6.581-2.37-6.581-2.37
	l-0.656-0.658l-2.635-2.37l-3.497-3.593c-0.206-0.313-1.925-1.349-1.925-1.349c-0.587,0.157-0.237,0.731-0.237,0.731l3.028,2.5
	c0,0,2.105,3.16,2.63,3.556c0.526,0.394,0.791,1.183,0.791,1.183c-0.407,0.719-1.185,0-1.185,0l-0.789-1.054l-4.381-4.163
	c-1.592-0.924-0.488,0.742-0.488,0.742c0.188,0.315,2.896,3.553,2.896,3.553l0.262,1.448l-0.658,0.528l-0.923-0.396l-0.525,0.264
	l-0.79,1.58L167.181,135.733L167.181,135.733"/>
<path fill-rule="evenodd" clip-rule="evenodd" fill="#1B3F73" d="M199.72,168.77l-0.395-1.054l-0.131-1.183
	c0.214-0.994,1.711-0.397,1.711-0.397s0.79-0.132,1.051-0.132c0.265,0,0.222-3.383,0.222-3.383l-1.931-0.038l-1.711,0.132
	c0,0-0.938-1.191-0.396-1.187c3.545,0.028,3.685-5.01,3.685-5.01c-0.18-1.179-0.919-0.526-0.919-0.526
	c-0.845,4.061-3.816,4.614-3.816,4.614l-1.58,0.132l-1.055-0.262l-0.526-0.528c3.855-2.05,4.476-3.957,4.476-3.957
	c0.519-0.449,0.396-3.027,0.396-3.027l-0.264-1.316c-0.468-0.455-0.922,0.129-0.922,0.129v1.055
	c0.022,0.452-0.021,0.934-0.133,1.447c-2.623,5.407-5.001,3.563-5.001,3.563l-0.525-0.525c4.448-0.597,3.687-9.486,3.687-9.486
	l-0.133-1.186l-0.526-0.526l-0.609,0.069c0.485,1.186,0.609,4.01,0.609,4.01c0.16-0.061-1.221,5.791-4.871,5.003
	c-0.256-0.056-1.447-0.264-1.315-0.528c0.132-0.262,0-0.787,0.394-0.92c0.396-0.132,1.186-0.527,1.447-0.657
	c0.265-0.132,1.447-1.319,1.447-1.319l0.529-1.183l0.132-1.58l-0.132-0.657c-0.137-0.16-0.529,0-0.529,0l-0.26,0.525
	c-0.405,3.69-3.556,4.082-3.556,4.082l-1.448,0.658h-0.798l-0.396-0.264c3.219-2.286,3.434-4.739,3.434-4.739l0.13-1.447
	c0.003-0.661-0.043-0.968-0.13-0.92c-0.051-0.112-0.528,0-0.528,0c0.009-0.096-0.393,0.526-0.393,0.526l-0.658,2.105
	c-0.871,2.392-3.169,3.424-3.169,3.424c-1.238,0.065-0.658-0.922-0.658-0.922c2.915-2.954,2.642-3.949,2.642-3.949l-0.14-2.238
	c-0.303-0.323-0.661,0-0.661,0l-0.394,1.184c-0.36,2.416-2.369,4.345-2.895,4.345c-0.526,0-0.922,0.262-0.922,0.262l-0.262-0.658
	l0.918-0.526l0.791-0.922l0.656-1.183c0.11-0.768,0.153-1.293,0.133-1.581c0.171-0.64,0.26-0.99,0.265-1.053
	c-0.232-0.224-0.657-0.132-0.657-0.132c-0.112-0.044-0.264,0.657-0.264,0.657c-0.479,1.43-1.05,2.395-1.712,2.897
	c0,0-1.029-0.099-0.659-0.396c0.956-0.76,0.922-3.159,0.922-3.159l-0.131-3.289l0.396-0.79l2.105-0.528l3.035,0.264l0.792-0.658
	l-1.317-1.054l-2.774-0.394l-1.314,0.526l-1.054,0.132l-1.448-0.132l-0.525-0.262l-2.896-1.844c-0.625-0.111-1.019-0.111-1.187,0
	c0,0-0.588,0.597,0.265,0.922c0.37,0.181,7.096,2.702,3.817,9.74c-0.081,0.318-0.79,0.79-0.79,0.79
	c-0.255,0.211-2.105,0.261-2.105,0.261c-0.19,0.023-1.447-0.525-1.447-0.525l-1.187-1.184v-1.186l-3.421,0.528l-0.262,0.79
	l0.129,0.526c0,0,1.06,1.014,1.184,1.051c0.402,0.178,0.921,1.451,0.921,1.451c0.032-0.01,0,2.367,0,2.367l-0.218,7.375
	c0.013,0.683,1.252,2.959,1.252,2.959c-0.003,0.025,1.12-0.135,1.12-0.135c-0.706-1.337-1.191-3.192-1.1-4.398l0.526-3.957
	c0,0,0.527-1.58,0.527-1.843c0-0.262,0.293-2.21,0.293-2.21s0.101-0.422,0.494-0.422c0.396,0,0.661,0.132,0.661,0.132
	c0.189,0.1,0.261,0.394,0.261,0.394c0.038,0.041-0.131,2.896-0.131,2.896c-1.713,6.216-0.796,9.371-0.796,9.371
	c0.095-0.033,1.739-0.193,1.739-0.193c-1.005-1.722-1.073-3.507-1.073-3.507l0.393-1.976l0.526-1.983l0.396-3.027l0.262-0.526h0.528
	l0.131,1.315v3.292l-0.405,2.476c-0.121,2.194,0.424,3.839,0.424,3.839l1.12-0.096l-0.348-1.473l-0.133-1.974
	c0,0,0.133-1.572,0.133-1.844s0.656-2.641,0.656-2.641l0.526-0.79c1.074-0.346,1.185,0.922,1.185,0.922l-1.053,5.405
	c0,0-0.239,2.491-0.132,2.766c0.14,0.356,1.055,1.841,1.055,1.841c0.2,0.302,0.524-0.262,0.524-0.262
	c-0.016,0.233,0.394-5.925,0.394-5.925s0.483-0.785,1.337-0.338c1.45,0.066,1.823-1.513,1.823-1.513s1.918-1.864,1.983,1.722
	c0.013,0.645-1.045,2.026-1.045,2.026c-1.056,1.178,0.814,0.61,0.814,0.61l1.415-0.532c0,0.001,1.054-0.264,1.317-0.264
	c0.262,0,0.525,0,1.051,0.264c0.529,0.265,0.79,0.791,0.79,0.791l-0.919,1.841c0,0-0.216,1.551,0,1.976c0.49,0.962,1.447,0,1.447,0
	s-0.264-1.054-0.131-1.318c0.131-0.262,0.393-0.919,0.393-0.919c0.366-0.62,1.844-0.528,1.844-0.528
	c2.667,1.209,3.16,5.529,3.16,5.529c0.279,0.597-0.661,0.79-0.661,0.79l0.529,1.054l4.079,1.447L199.72,168.77L199.72,168.77"/>
<path fill="none" d="M199.72,168.77l-0.395-1.054l-0.131-1.183c0.214-0.994,1.711-0.397,1.711-0.397s0.79-0.132,1.051-0.132
	c0.265,0,0.222-3.383,0.222-3.383l-1.931-0.038l-1.711,0.132c0,0-0.938-1.191-0.396-1.187c3.545,0.028,3.685-5.01,3.685-5.01
	c-0.18-1.179-0.919-0.526-0.919-0.526c-0.845,4.061-3.816,4.614-3.816,4.614l-1.58,0.132l-1.055-0.262l-0.526-0.528
	c3.855-2.05,4.476-3.957,4.476-3.957c0.519-0.449,0.396-3.027,0.396-3.027l-0.264-1.316c-0.468-0.455-0.922,0.129-0.922,0.129v1.055
	c0.022,0.452-0.021,0.934-0.133,1.447c-2.623,5.407-5.001,3.563-5.001,3.563l-0.525-0.525c4.448-0.597,3.687-9.486,3.687-9.486
	l-0.133-1.186l-0.526-0.526l-0.609,0.069c0.485,1.186,0.609,4.01,0.609,4.01c0.16-0.061-1.221,5.791-4.871,5.003
	c-0.256-0.056-1.447-0.264-1.315-0.528c0.132-0.262,0-0.787,0.394-0.92c0.396-0.132,1.186-0.527,1.447-0.657
	c0.265-0.132,1.447-1.319,1.447-1.319l0.529-1.183l0.132-1.58l-0.132-0.657c-0.137-0.16-0.529,0-0.529,0l-0.26,0.525
	c-0.405,3.69-3.556,4.082-3.556,4.082l-1.448,0.658h-0.798l-0.396-0.264c3.219-2.286,3.434-4.739,3.434-4.739l0.13-1.447
	c0.003-0.661-0.043-0.968-0.13-0.92c-0.051-0.112-0.528,0-0.528,0c0.009-0.096-0.393,0.526-0.393,0.526l-0.658,2.105
	c-0.871,2.392-3.169,3.424-3.169,3.424c-1.238,0.065-0.658-0.922-0.658-0.922c2.915-2.954,2.642-3.949,2.642-3.949l-0.14-2.238
	c-0.303-0.323-0.661,0-0.661,0l-0.394,1.184c-0.36,2.416-2.369,4.345-2.895,4.345c-0.526,0-0.922,0.262-0.922,0.262l-0.262-0.658
	l0.918-0.526l0.791-0.922l0.656-1.183c0.11-0.768,0.153-1.293,0.133-1.581c0.171-0.64,0.26-0.99,0.265-1.053
	c-0.232-0.224-0.657-0.132-0.657-0.132c-0.112-0.044-0.264,0.657-0.264,0.657c-0.479,1.43-1.05,2.395-1.712,2.897
	c0,0-1.029-0.099-0.659-0.396c0.956-0.76,0.922-3.159,0.922-3.159l-0.131-3.289l0.396-0.79l2.105-0.528l3.035,0.264l0.792-0.658
	l-1.317-1.054l-2.774-0.394l-1.314,0.526l-1.054,0.132l-1.448-0.132l-0.525-0.262l-2.896-1.844c-0.625-0.111-1.019-0.111-1.187,0
	c0,0-0.588,0.597,0.265,0.922c0.37,0.181,7.096,2.702,3.817,9.74c-0.081,0.318-0.79,0.79-0.79,0.79
	c-0.255,0.211-2.105,0.261-2.105,0.261c-0.19,0.023-1.447-0.525-1.447-0.525l-1.187-1.184v-1.186l-3.421,0.528l-0.262,0.79
	l0.129,0.526c0,0,1.06,1.014,1.184,1.051c0.402,0.178,0.921,1.451,0.921,1.451c0.032-0.01,0,2.367,0,2.367l-0.218,7.375
	c0.013,0.683,1.252,2.959,1.252,2.959c-0.003,0.025,1.12-0.135,1.12-0.135c-0.706-1.337-1.191-3.192-1.1-4.398l0.526-3.957
	c0,0,0.527-1.58,0.527-1.843c0-0.262,0.293-2.21,0.293-2.21s0.101-0.422,0.494-0.422c0.396,0,0.661,0.132,0.661,0.132
	c0.189,0.1,0.261,0.394,0.261,0.394c0.038,0.041-0.131,2.896-0.131,2.896c-1.713,6.216-0.796,9.371-0.796,9.371
	c0.095-0.033,1.739-0.193,1.739-0.193c-1.005-1.722-1.073-3.507-1.073-3.507l0.393-1.976l0.526-1.983l0.396-3.027l0.262-0.526h0.528
	l0.131,1.315v3.292l-0.405,2.476c-0.121,2.194,0.424,3.839,0.424,3.839l1.12-0.096l-0.348-1.473l-0.133-1.974
	c0,0,0.133-1.572,0.133-1.844s0.656-2.641,0.656-2.641l0.526-0.79c1.074-0.346,1.185,0.922,1.185,0.922l-1.053,5.405
	c0,0-0.239,2.491-0.132,2.766c0.14,0.356,1.055,1.841,1.055,1.841c0.2,0.302,0.524-0.262,0.524-0.262
	c-0.016,0.233,0.394-5.925,0.394-5.925s0.483-0.785,1.337-0.338c1.45,0.066,1.823-1.513,1.823-1.513s1.918-1.864,1.983,1.722
	c0.013,0.645-1.045,2.026-1.045,2.026c-1.056,1.178,0.814,0.61,0.814,0.61l1.415-0.532c0,0.001,1.054-0.264,1.317-0.264
	c0.262,0,0.525,0,1.051,0.264c0.529,0.265,0.79,0.791,0.79,0.791l-0.919,1.841c0,0-0.216,1.551,0,1.976c0.49,0.962,1.447,0,1.447,0
	s-0.264-1.054-0.131-1.318c0.131-0.262,0.393-0.919,0.393-0.919c0.366-0.62,1.844-0.528,1.844-0.528
	c2.667,1.209,3.16,5.529,3.16,5.529c0.279,0.597-0.661,0.79-0.661,0.79l0.529,1.054l4.079,1.447L199.72,168.77L199.72,168.77
	L199.72,168.77z"/>
<path fill="#1B3F73" d="M223.311,134.88l1.163,2.027l1.712,5.529l1.051,13.818l0.265,5.54v4.475
	c-0.513,2.319-1.315,3.028-1.315,3.028c-0.052-0.011-0.529-2.635-0.529-2.635v-5.922l-0.261-6.852
	c0.04-12.161-2.055-16.583-2.055-16.583L223.311,134.88L223.311,134.88"/>
<path fill="none" d="M223.311,134.88l1.163,2.027l1.712,5.529l1.051,13.818l0.265,5.54v4.475c-0.513,2.319-1.315,3.028-1.315,3.028
	c-0.052-0.011-0.529-2.635-0.529-2.635v-5.922l-0.261-6.852c0.04-12.161-2.055-16.583-2.055-16.583L223.311,134.88L223.311,134.88
	L223.311,134.88z"/>
<path fill="#1B3F73" d="M203.669,138.09l2.217,6.463l1.742,3.672l1.577,3.95c0.478,0.563,0,1.579,0,1.579l1.053,0.79l2.896,1.316
	c0,0,0.923,0.132,0.657-0.526c-0.261-0.66-1.974-2.634-2.763-3.292c-0.791-0.658-0.921-0.658-1.054-1.054
	c-0.134-0.394-1.841-6.054-1.841-6.054l-1.327-4.079l-1.71-2.37L203.669,138.09L203.669,138.09"/>
<path fill-rule="evenodd" clip-rule="evenodd" fill="#1B3F73" d="M131.127,253.842l-2.349-0.049l0.337-9.081
	c0.049-4.847-1.523-8.808-1.523-8.808l-1.831-4.428l-1.833-3.357l-1.679-3.661c-0.93-1.718-1.049-3.707-1.049-3.707l0.076-1.14
	c0.048-2.883-2.204-2.738-2.204-2.738l-9.506-1.975l-4.93-0.43c-10.821,0.122-9.19-12.19-9.19-12.19
	c0.238-1.658,1.373-2.949,1.373-2.949l1.223-2.135c0.767-1.501-0.897-2.98-0.897-2.98l-1.293-0.672
	c-0.901-0.419-0.406-2.758-0.406-2.758l0.294-0.872l0.366-1.339c0.071-0.741-0.66-1.454-0.66-1.454c-0.6-0.985,0-3.205,0-3.205
	l0.152-2.796l-0.152-1.372c0,0-0.097-1.554-0.097-1.403c0,0.154-0.058-0.145-0.058-0.145l-1.724,0.065
	c-5.367,0.146-5.181-5.175-5.181-5.175c0.241-2.105,2.796-4.711,2.796-4.711l2.585-4.504l3.052-4.475l3.381-4.571
	c1.138-1.476,0.822-4.577,0.822-4.577l-0.035-2.146c-0.036-2.72,0.914-3.51,0.914-3.51l1.682-2.748c0,0,1.551-3.894,1.63-4.023
	c1.063-1.767,1.767-9.356,1.237-10.087c0.526,0.251-3.985-2.08-4.247-3.119c-1.155-7.138,0.768-10.798,0.768-10.798l4.73-4.119
	l3.525-4.229c4.422-6.735,8.625-6.9,8.625-6.9c1.165-2.891,4.947-5.809,4.947-5.809s3.914-2.654,11.035-1.58
	c2.103,0.053,2.766,2.044,2.766,2.044s0.833,6.213,3.863,7.566c3.89,2.59,6.087-0.251,6.087-0.251
	c1.577-0.719,2.161,1.12,0.025,1.811c-0.599,0.116-2.315,0.325-2.315,0.325c-5.738,1.191-7.36-3.409-7.36-3.409L137.207,95
	c-0.632-2.613-3.969-2.443-3.969-2.443l-4.579,0.305c-1.042-0.022-2.01,0.18-2.898,0.612c-1.293,0.899-2.596,3.052-2.596,3.052
	l-0.764,1.067l-1.219,1.422l-1.118,0.761l-1.371,0.61c0,0-3.091,1.274-6.314,5.516c-0.952,1.785-2.169,3.495-3.457,5.171
	l-3.052,2.288c-3.541,2.786-2.718,6.542-2.718,6.542l0.122,3.274c0.097,0.965,1.775,1.902,3.97,2.748
	c0.896,0.445,1.069,1.526,1.069,1.526l0.152,2.749l-0.457,5.036l-0.917,3.665l-1.375,3.708l-1.328,2.532
	c-0.97,1.815-0.655,3.438-0.655,3.438v3.495c0.073,2.293-2.906,4.617-2.906,4.617l-2.484,3.167l-3.052,5.237l-1.069,1.374
	c-1.827,1.852-4.214,6.133-4.214,6.133c0.112,1.333-0.975,3.737,3.251,3.575c0.762-0.031,3.581-0.311,3.581-0.311
	c2.303,0.316,3.943,1.296,3.943,1.296c1.11,1.542,2.966,1.041,3.515,0.864c0.895-0.293,1.346-0.425,0.483-2.735
	c-0.17-0.456-0.787-2.117-0.787-2.117l0.358-0.334c0,0,2.207,3.186,2.369,5.463c-2.682,1.707-4.012,1.188-4.012,1.188l-2.73-1.106
	l-2.113-0.324c-1.801-0.906-0.733-0.327-0.733-0.327c1.138,1.464,0.19,5.351,0.19,5.351l-0.259,1.424c0,0-0.257,1.029,0.749,1.146
	c0.757,0.091,1.208,0.134,1.42,0.185c0.31,0.072,0.71,0.396,0.828,0.579c1.153,1.752,1.77,1.188,1.77,1.188s1.478-0.075,1.949-0.089
	c0.391-0.014,0.967,1.562-0.252,1.562c-1.427,0.097-2.248,0.111-2.248,0.111c-0.386-0.007-1.66-0.958-1.66-0.958
	c-2.567-1.108-4.029,5.736-0.63,4.922c0.86,0.74,1.432,3.394,1.432,3.394c0.005,1.245-2.83,4.365-2.83,4.365
	s-0.708,1.461-0.165,4.722c0.417,3.952,3.909,6.715,10.428,6.715c3.101,0.123,7.937,0.459,8.089,0.459s4.074,0.137,4.426,0.154
	c9.393,0.413,20.768-9.809,20.768-9.809l8.666-9.146c3.726-3.242,3.35-0.222,3.35-0.222c2.014,0.77-2.966,5.702-2.966,5.702
	c0.381-0.228-11.212,7.637-11.212,7.637c-4.604,2.975-4.668,4.767-4.668,4.767c-0.349,3.484-0.412,3.621-0.412,3.621
	s-5.161,3.465-6.014,3.248c-0.592-0.146,4.503-4.228,4.503-4.228c0.919-2.004-1.283-1.166-1.71-1.007
	c-3.35,2.167-7.728,2.055-7.728,2.055l-0.086,2.57c0.323,4.416,1.984,7.525,1.984,7.525l2.291,3.969l1.524,3.203
	c2.031,3.698,2.595,8.552,2.595,8.552L131.127,253.842L131.127,253.842"/>
<path fill="none" d="M131.127,253.842l-2.349-0.049l0.337-9.081c0.049-4.847-1.523-8.808-1.523-8.808l-1.831-4.428l-1.833-3.357
	l-1.679-3.661c-0.93-1.718-1.049-3.707-1.049-3.707l0.076-1.14c0.048-2.883-2.204-2.738-2.204-2.738l-9.506-1.975l-4.93-0.43
	c-10.821,0.122-9.19-12.19-9.19-12.19c0.238-1.658,1.373-2.949,1.373-2.949l1.223-2.135c0.767-1.501-0.897-2.98-0.897-2.98
	l-1.293-0.672c-0.901-0.419-0.406-2.758-0.406-2.758l0.294-0.872l0.366-1.339c0.071-0.741-0.66-1.454-0.66-1.454
	c-0.6-0.985,0-3.205,0-3.205l0.152-2.796l-0.152-1.372c0,0-0.097-1.554-0.097-1.403c0,0.154-0.058-0.145-0.058-0.145l-1.724,0.065
	c-5.367,0.146-5.181-5.175-5.181-5.175c0.241-2.105,2.796-4.711,2.796-4.711l2.585-4.504l3.052-4.475l3.381-4.571
	c1.138-1.476,0.822-4.577,0.822-4.577l-0.035-2.146c-0.036-2.72,0.914-3.51,0.914-3.51l1.682-2.748c0,0,1.551-3.894,1.63-4.023
	c1.063-1.767,1.767-9.356,1.237-10.087c0.526,0.251-3.985-2.08-4.247-3.119c-1.155-7.138,0.768-10.798,0.768-10.798l4.73-4.119
	l3.525-4.229c4.422-6.735,8.625-6.9,8.625-6.9c1.165-2.891,4.947-5.809,4.947-5.809s3.914-2.654,11.035-1.58
	c2.103,0.053,2.766,2.044,2.766,2.044s0.833,6.213,3.863,7.566c3.89,2.59,6.087-0.251,6.087-0.251
	c1.577-0.719,2.161,1.12,0.025,1.811c-0.599,0.116-2.315,0.325-2.315,0.325c-5.738,1.191-7.36-3.409-7.36-3.409L137.207,95
	c-0.632-2.613-3.969-2.443-3.969-2.443l-4.579,0.305c-1.042-0.022-2.01,0.18-2.898,0.612c-1.293,0.899-2.596,3.052-2.596,3.052
	l-0.764,1.067l-1.219,1.422l-1.118,0.761l-1.371,0.61c0,0-3.091,1.274-6.314,5.516c-0.952,1.785-2.169,3.495-3.457,5.171
	l-3.052,2.288c-3.541,2.786-2.718,6.542-2.718,6.542l0.122,3.274c0.097,0.965,1.775,1.902,3.97,2.748
	c0.896,0.445,1.069,1.526,1.069,1.526l0.152,2.749l-0.457,5.036l-0.917,3.665l-1.375,3.708l-1.328,2.532
	c-0.97,1.815-0.655,3.438-0.655,3.438v3.495c0.073,2.293-2.906,4.617-2.906,4.617l-2.484,3.167l-3.052,5.237l-1.069,1.374
	c-1.827,1.852-4.214,6.133-4.214,6.133c0.112,1.333-0.975,3.737,3.251,3.575c0.762-0.031,3.581-0.311,3.581-0.311
	c2.303,0.316,3.943,1.296,3.943,1.296c1.11,1.542,2.966,1.041,3.515,0.864c0.895-0.293,1.346-0.425,0.483-2.735
	c-0.17-0.456-0.787-2.117-0.787-2.117l0.358-0.334c0,0,2.207,3.186,2.369,5.463c-2.682,1.707-4.012,1.188-4.012,1.188l-2.73-1.106
	l-2.113-0.324c-1.801-0.906-0.733-0.327-0.733-0.327c1.138,1.464,0.19,5.351,0.19,5.351l-0.259,1.424c0,0-0.257,1.029,0.749,1.146
	c0.757,0.091,1.208,0.134,1.42,0.185c0.31,0.072,0.71,0.396,0.828,0.579c1.153,1.752,1.77,1.188,1.77,1.188s1.478-0.075,1.949-0.089
	c0.391-0.014,0.967,1.562-0.252,1.562c-1.427,0.097-2.248,0.111-2.248,0.111c-0.386-0.007-1.66-0.958-1.66-0.958
	c-2.567-1.108-4.029,5.736-0.63,4.922c0.86,0.74,1.432,3.394,1.432,3.394c0.005,1.245-2.83,4.365-2.83,4.365
	s-0.708,1.461-0.165,4.722c0.417,3.952,3.909,6.715,10.428,6.715c3.101,0.123,7.937,0.459,8.089,0.459s4.074,0.137,4.426,0.154
	c9.393,0.413,20.768-9.809,20.768-9.809l8.666-9.146c3.726-3.242,3.35-0.222,3.35-0.222c2.014,0.77-2.966,5.702-2.966,5.702
	c0.381-0.228-11.212,7.637-11.212,7.637c-4.604,2.975-4.668,4.767-4.668,4.767c-0.349,3.484-0.412,3.621-0.412,3.621
	s-5.161,3.465-6.014,3.248c-0.592-0.146,4.503-4.228,4.503-4.228c0.919-2.004-1.283-1.166-1.71-1.007
	c-3.35,2.167-7.728,2.055-7.728,2.055l-0.086,2.57c0.323,4.416,1.984,7.525,1.984,7.525l2.291,3.969l1.524,3.203
	c2.031,3.698,2.595,8.552,2.595,8.552L131.127,253.842L131.127,253.842L131.127,253.842z"/>
<path fill="#1B3F73" d="M160.499,125.092c-0.396,0.774,1.369,2.322,1.369,2.322c0.259,0.36,2.604,3.264,2.604,3.264
	s2.211,1.95,1.887,5.666c0.385,3.375-0.91,3.886-1.545,5.694c-0.12,2.021,0.904,5.971,0.904,5.971
	c0.514,1.204,1.844,8.624,1.844,8.624s0.516,7.242,0.858,7.242c0.49,0.569,3.581,0.683,9.272,0.343
	c3.927,1.833,3.627,6.48,3.973,6.48c0.343,0,1.351-0.472,1.351-0.472l0.713-1.717c0.384-0.721,0.588-1.823,0.588-1.823
	c-1.524-0.462-2.224-1.27-2.224-1.27c-0.64-0.922-0.34-2.265-0.34-2.265c0.209-1.306-2.291-1.09-2.291-1.09
	c-8.649,0.965-9.19,0.122-9.19,0.122c-0.693-0.876-2.08-12.426-2.08-12.426l-1.488-6.174c-0.021-1.936,1.366-4.473,1.366-4.473
	c0.543-2.382,0.03-5.879,0.03-5.879c-0.904-2.563-3.459-5.301-3.459-5.301c-1.666-1.663-1.453-2.567-1.453-2.567
	c3.134-6.631,3.767-11.098,3.767-11.098l0.434-3.706c-0.522-4.645-1.889-5.152-1.889-5.152c-0.625-0.516-2.749-1.202-2.749-1.202
	c-2.194-0.732-5.237-0.881-6.037-0.858c-0.95-0.084-3.264,0.343-3.264,0.343c-1.031,0.175-2.23,0.688-2.23,0.688
	s-1.552,0.747-0.126,0.82c0.342,0.018,4.418-0.65,5.449-0.478c1.029,0.17,3.503,0.201,7.337,1.829
	c3.195,0.962,1.103,8.817,1.103,8.817L160.499,125.092L160.499,125.092"/>
<path fill="none" d="M160.499,125.092c-0.396,0.774,1.369,2.322,1.369,2.322c0.259,0.36,2.604,3.264,2.604,3.264
	s2.211,1.95,1.887,5.666c0.385,3.375-0.91,3.886-1.545,5.694c-0.12,2.021,0.904,5.971,0.904,5.971
	c0.514,1.204,1.844,8.624,1.844,8.624s0.516,7.242,0.858,7.242c0.49,0.569,3.581,0.683,9.272,0.343
	c3.927,1.833,3.627,6.48,3.973,6.48c0.343,0,1.351-0.472,1.351-0.472l0.713-1.717c0.384-0.721,0.588-1.823,0.588-1.823
	c-1.524-0.462-2.224-1.27-2.224-1.27c-0.64-0.922-0.34-2.265-0.34-2.265c0.209-1.306-2.291-1.09-2.291-1.09
	c-8.649,0.965-9.19,0.122-9.19,0.122c-0.693-0.876-2.08-12.426-2.08-12.426l-1.488-6.174c-0.021-1.936,1.366-4.473,1.366-4.473
	c0.543-2.382,0.03-5.879,0.03-5.879c-0.904-2.563-3.459-5.301-3.459-5.301c-1.666-1.663-1.453-2.567-1.453-2.567
	c3.134-6.631,3.767-11.098,3.767-11.098l0.434-3.706c-0.522-4.645-1.889-5.152-1.889-5.152c-0.625-0.516-2.749-1.202-2.749-1.202
	c-2.194-0.732-5.237-0.881-6.037-0.858c-0.95-0.084-3.264,0.343-3.264,0.343c-1.031,0.175-2.23,0.688-2.23,0.688
	s-1.552,0.747-0.126,0.82c0.342,0.018,4.418-0.65,5.449-0.478c1.029,0.17,3.503,0.201,7.337,1.829
	c3.195,0.962,1.103,8.817,1.103,8.817L160.499,125.092L160.499,125.092L160.499,125.092z"/>
<path fill-rule="evenodd" clip-rule="evenodd" fill="#1B3F73" d="M171.721,207.912l-6.681,8.396l-9.039,13.492l-5.336,10.748
	l-6.88,24.474h3.248c2.275-19.832,13.539-38.418,13.539-38.418l10.123-13.553l11.994-15.036l9.95-9.536
	c0,0,11.38-8.614,12.419-9.486c0.769-1.682,1.876,2.687,1.876,2.687c1.084,2.111,1.595,2.99,1.595,2.99
	c1.725,5.489-0.127,5.233-0.127,5.233c-3.827,0.516-5.527,3.342-5.527,3.342c-2.652,4.16-1.208,9.067-1.208,9.067
	c-5.428-0.584-6.989,3.522-6.989,3.522c-3.236,6.132-0.666,12.133-0.666,12.133s0.802,3.995,0.628,6.921
	c-0.021,0.385-0.17,4.399,1.485,5.314c1.485,1.082,2.744,1.313,2.744,1.313s0.911,1.826,2.285,2c2.694,0.342,4.465-3.2,4.638-3.373
	c0.173-0.168,3.199-2.913,3.199-2.913s1.715-1.143,4.057-0.569c0.284,0.057,3.255-0.171,3.255-0.171
	c3.142-0.175,4.227-3.258,4.227-3.258s0.229,7.54,5.382,9.082c-0.513,0.686-0.44,2.054-0.44,2.054c-0.997,4.231,2.1,6.286,2.1,6.286
	c6.682,4.069,13.421,0.174,13.421,0.174c4.022-2.291,4.229-7.941,4.229-7.941c0.487-4.59-0.059-7.255-0.059-7.255
	c-3.713-5.896,0.113-10.007,0.113-10.007c1.273-1.148,2.119-3.383,2.545-6.701c0.496-5.469-2.303-7.424-2.303-7.424
	c-1.877-1.527-1.325-3.23-1.325-3.23l0.57-6.65c0.059-3.314-1.372-6.058-1.372-6.058c-0.456-1.542-2.967-2.685-2.967-2.685
	c-1.83-0.399-4.514-0.342-4.514-0.342c-5.715,0.342-5.332,1.412-5.994,1.163c-0.427-0.164,0.803-1.423,0.452-3.347
	c-1.701-3.105-0.775-4.966-0.775-4.966l2.934-4.144c4.095-7.263,3.403-16.08,3.403-16.08c-1.056-15.36-3.982-23.528-3.982-23.528
	c-4.226-13.656-10.646-25.806-10.646-25.806c-8.29-13.369-26.17-15.807-26.17-15.807c-8.777-1.788-23.934-1.138-23.934-1.138
	c-7.842,0.609-12.271,2.56-12.271,2.56s-6.91,2.68-9.806,7.274c-0.092,0.146-0.991,2.411-0.688,2.575
	c0.8,0.439,0.688,1.031,0.688,1.031c0.231,0.739-0.688,1.684-0.688,1.684l-2.154,3.342c0,0-1.09,1.768-2.229,5.666
	c0.025,0.049-1.456,3.731-1.456,3.731c-0.627,2.57-1.333,4.967-1.333,4.967c-0.206,0.3-2.813,5.707-2.813,5.707
	c-0.77,4.051-2.199,5.648-2.199,5.648l-10.382,16.117c-1.222,2.265-1.308,4.432-1.032,5.244c0.366,1.077,0.636,1.564,1.666,1.564
	c1.032,0,3.193,0.219,3.901,0.204c1.87-0.041,1.971,1.462,1.971,1.462s0.054,4.78,0.102,5.161c0.061,0.487,0.142,2.865,0.142,2.865
	s-0.122,1.523,1.87,2.296c0.061,0.102,0.366,0.467-0.333,1.564c-0.154,0.346-0.643,3.08-0.562,3.312
	c0.102,0.285,0.046,0.67,0.751,0.975c2.175,0.935,2.154,2.496,2.154,2.496c0.406,0.917-1.829,4.75-1.829,4.75
	c-1.259,2-0.71,7.897-0.65,8.277c0.772,4.795,6.238,6.026,6.238,6.026c5.525,0.245,8.639,0.077,8.639,0.077l6.464-0.606
	c1.93-0.184,1.983,3.199,1.983,3.199l5.039,22.234c1.704-2.511,1.595-2.411,1.595-2.411l-0.945-4.973l-2.824-12.981
	c-1.118-6.135-1.047-4.385-1.047-5.068c0-0.69,2.205-0.912,2.205-0.912c15.025-2.584,16.545-7.275,17.229-8.264
	c2.435-4.255,6.4-16.659,6.4-16.659s1.292-1.593,2.459-1.93c1.544-0.447,3.006,0.447,3.006,0.447
	c0.671,0.386,2.297,2.254,2.297,2.254c1.036,0.752,3.353,1.464,3.353,1.464c0.975,0.223,4.408,1.687,4.794,1.807
	c0.327,0.104,1.425,0.986,1.748,1.24c0.297,0.232,3.819,1.142,3.819,1.142c-0.696-1.441-0.33-1.673-3.19-3.844
	c-0.435-0.327-7.618-2.681-7.618-2.681c-1.85-1.058-2.897-2.109-3.271-2.419c-2.541-2.113-3.881-2.458-3.881-2.458
	c-2.6-0.447-5.831,3.759-5.831,3.759l-1.076,2.263c0.289,2.811-4.679,13.412-4.679,13.412c-0.732,1.383-1.064,3.879-4.866,4.611
	c-3.192,1.214-5.142,1.749-8.945,2.43c-6.384,1.448-10.872,1.448-10.872,1.448l-7.728,0.15c-13.346,0.365-8.422-10.246-8.422-10.246
	l1.204-2.904c0.313-0.843,0.905-0.433,1.59-0.4c2.012,0.085,0.331-1.693,0.331-1.693c-0.765-0.804-1.806-2.688-0.17-4.178
	c0.041-0.427-0.811-0.281-0.811-0.281c-1.716,1.126-2.519,0.146-2.519,0.146c-1.036-1.576,0.458-2.521,0.458-2.521
	s0.848-0.945,4.033-0.086c0.741,0.199,2.578-0.003,2.578-0.003c1.311-0.237,1.282-1.278,1.282-1.278
	c-1.709-1.229-1.295-1.132-2.121-1.513c-0.432-0.198-0.795,2.286-3.568,0.335c-1.462-1.401-1.707-1.244-1.879-1.244
	c-1.592,0-1.795,0.469-2.235-1.291l-0.142-6.379l0.063-1.88l2.865,0.369c1.732,0.61,2.679,0.371,2.679,0.371
	c-0.61,0.233,2.941-0.315,1.676-3.357c-0.782,1.881-4.571,0.813-4.571,0.813c-2.741-1.984-6.548-1.019-6.548-1.019
	c-4.859,0.704-2.647-2.956-2.647-2.956l4.644-7.35c0,0,5.059-7.062,7.776-11.672c0.607-4.965,1.481-6.875,1.481-6.875
	c1.993-2.212,2.552-4.129,2.603-4.295c2.717-8.967,3.154-10.735,3.154-10.735c0.373-1.519,2.209-4.473,4.295-4.848
	c-1.78-1.827-1.347-5.638-0.066-6.596c0.983-1.29,3.665-3.119,3.665-3.119c0.65-0.488,8.045-3.983,16.416-4.267
	c8.084-0.276,14.953,0.122,20.684,0.813c5.085,0.614,18.65,6.542,18.65,6.542c4.128,2.09,7.356,6.827,7.356,6.827
	c2.6,2.763,8.087,15.563,8.087,15.563s4.012,13.656,4.185,13.656c0.171,0,2.984,9.328,3.478,24.828
	c-0.615,10.304-5.591,13.205-5.591,13.248c-0.772,1.544-0.75,2.576-0.75,2.576c-0.104,1.65,0.172,2.75,0.172,2.75
	c1.256,2.675,0.957,3.955,0.957,3.955c0.159,0.354-0.957,2.595-0.957,2.595s-0.398,1.695,2.836,1.166
	c0.679-0.111,2.893-0.607,2.893-0.607c4.915-0.605,8.473-0.275,9.563,5.714c0,0-1.377,5.226-0.854,9.787
	c4.41,4.936,3.696,9.324,3.696,9.497c0,0.171,0.042,0.604-1.701,2.805c-0.107,0.133-2.804,4.639-2.804,4.639
	c-1.116,4.729,0.51,7.79,0.51,7.79c1.61,2.63,0.806,8.263,0.806,8.263c-1.976,10.198-20.295,8.631-15.14-1.828
	c-4.349-2.999-4.641-5.634-4.641-5.634l-2.272-6.531l-3.799,3.753c-1.463,1.83-4.973,1.83-4.973,1.83l-5.097-0.402
	c0,0,0.415,2.521-2.144,3.985c-3.546,4.605-5.302,1.682-5.302,1.682c-3.875-2.562-3.291-11.885-3.291-11.885
	c-3.364-4.095-0.281-9.264-0.281-9.264c0.939-5.801,7.228-5.653,7.228-5.653s-0.022-2.578,0-3.84
	c0.041-2.108,1.385-4.962,1.385-4.962c2.037-2.359,3.949-2.678,3.949-2.678c3.491-0.171,2.638-3.576,2.638-3.576l-0.869-3.978
	l-1.563-5.773c-0.373-1.073-2.223-3.442-2.223-3.442l-2.066,1.349l-11.545,8.845C183.674,192.647,171.721,207.912,171.721,207.912
	L171.721,207.912"/>
<path fill-rule="evenodd" clip-rule="evenodd" fill="#1B3F73" d="M110.223,116.574c-0.097,0.084-0.186,0.15-0.267,0.201
	c-2.09,1.407-3.382,4.259-3.382,4.259l-0.407,3.319c0.574,1.291,2.126,0.116,2.126,0.116c0.021,0,0.305-2.141,1.193-3.192
	c0.598-1.011,2.162-2.367,5.263-3.157c1.407-0.266,1.996-0.523,2.187-0.485c1.636,0.313,0.652,1.54,0.652,1.54
	c-0.308,0.211-3.324,0.863-3.324,0.863c-3.563,0.592-4.211,4.152-4.211,4.152c-0.122,3.112-1.748,5.387-1.748,5.387
	c-0.647-3.157-2.542-4.089-2.542-4.089c-0.485-1.135-0.549-2.25-0.549-2.25c0.067-2.936,1.084-5.303,1.852-6.666L110.223,116.574
	L110.223,116.574L110.223,116.574z M122.337,116.574c-1.25,2.593-2.565,1.141-3.241,0.016L122.337,116.574L122.337,116.574
	L122.337,116.574z M133.908,116.574c-1.15,0.681-1.946,0.816-1.946,0.816l-5.942,1.542c0,0-0.183,0.368-0.123,0.429
	c0.062,0.061,1.238,3.538,5.856,0.495c0.127-0.076,2.406-1.839,4.272-3.286l7.103,0.005c-0.459,1.316-0.98,2.786-0.98,2.786
	c1.013-0.754-4.063,2.709-4.063,2.709l-2.189,1.373c-3.647,2.838-7.66,2.074-7.66,2.074c-1.927-0.018-3.078-1.046-3.078-1.046
	l-0.678-0.492c3.286,0.533,5.956,0.73,7.84-0.252c0.124,0,5.363-2.316,8.411-6.212c-0.076-1.499-2.832-0.493-2.832-0.493
	l-1.847,0.985c-1.47,0.518-6.003,4.485-6.003,4.485c-0.729,0.566-1.78,0.162-1.78,0.162c-1.621-2.105-4.342-2.494-4.342-2.494
	l-1.969,0.125c-1.867,0.589-1.542-0.464-1.542-0.464s0.97-1.377,7.043-2.591c1.48-0.226,2.598-0.441,3.446-0.647L133.908,116.574
	L133.908,116.574"/>
<path fill-rule="evenodd" clip-rule="evenodd" fill="#1B3F73" d="M131.807,103.57c-1.016,0.183-1.845,0.519-2.13,0.777
	c-0.147,0-3.476,1.867-4.838,3.614c0,0-3.377,3.792-3.561,5.572c0,0-0.051,0.66,0.513,0.881c0,0,0.43,0.078,0.519,0.045
	c0.368-0.368,2.24-4.313,3.546-5.333c0,0,4.84-4.066,8.223-2.422l2.624,1.869c0,0,0.807,0.48,1.323,0.508
	c0,0,1.702,0.091,3.042-0.335c0,0,1.816-0.271,0.282-1.087l-0.881-0.368L139.66,107c-0.761-0.212-1.872-1.052-3.263-2.652
	c0,0-0.922-0.558-1.641-0.759l3.682-0.018c1.173,1.283,2.454,2.002,2.541,2.002c0.114,0,2.097,0.607,4.594-1.999l3.307-0.003
	c-0.08,0.104-0.165,0.211-0.265,0.326l-2.712,1.368c0,0-2.083,1.293-2.214,2.586c0.172,1.654,2.473,0.041,2.473,0.041
	c0.795,2.131-1.123,3.223-1.123,3.223c-0.762-0.432-3.754-0.063-3.754-0.063c-2.331,0.594-4.124,2.648-4.124,2.648
	c-1.158,1.453-2.322,2.345-3.253,2.885l-3.002-0.01c2.839-0.678,2.657-1.262,2.917-1.869c0,0,0.245-0.691-0.602-0.452
	c-0.185,0.053-3.139,0.554-3.385,0.554c-0.247,0-0.679,0.061-0.679,0.061s2.024-1.443,7.206-1.768
	c0.891-1.455,0.729-1.214-0.249-1.803c0,0-2.088-0.574-3.14-0.246c-2.118,0.444-3.692,2.032-3.692,2.032l-2.218,1.846l-2.359,1.412
	c0,0,0.355-1.062,0.404-1.135c1.376-2.024,5.405-4.277,5.405-4.277l2.339-0.924c1.458-1.679-2.032-1.354-2.032-1.354
	c-4.091-0.003-7.017,4.617-7.017,4.617s-1.24,3.01-1.415,3.201c-0.018,0.038-0.035,0.075-0.053,0.114l-3.241-0.008
	c-0.29-0.467-0.462-0.889-0.462-0.906c0-0.061-0.8-0.554-0.923-0.554c-0.124,0-1.109-0.246-1.109-0.246
	c-4.01-0.285-5.544,1.076-6.379,1.714l-3.157-0.008c0.462-0.82,0.835-1.277,0.858-1.277c1.369-1.097,2.218-1.89,3.571-2.215
	c0,0,2.127-0.851,7.571-0.493c1.077-0.829-0.062-1.539-0.062-1.539s-2.895-0.93-8.681-0.247c-0.955,0.244-1.379-0.541-1.379-0.541
	c-0.063-0.188,2.443-3.558,2.565-3.558c0.125,0,5.582-1.384,10.928-0.16c2.951,0.673,1.732-1.879,1.442-1.953
	c-0.235-0.386-1.6-0.762-2.869-1.039L131.807,103.57L131.807,103.57L131.807,103.57z M136.026,116.574
	c1.318-1.026,2.428-1.889,2.428-1.889c1.727-0.938,5.356-0.246,5.356-0.246c0.025,0.041-0.308,1.033-0.681,2.118L136.026,116.574
	L136.026,116.574L136.026,116.574z M111.427,109.592c2.364-0.088,3.377-0.294,3.377-0.294c1.709-0.18,4.186,0.439,4.186,0.439
	c0.774,0.274,2.349,0.294,2.349,0.294c1.615-0.325,0.586-1.763,0.586-1.763c-2.162-1.528-5.58-1.321-5.58-1.321
	c-4.221-0.126-5.508,2.055-5.508,2.055C110.683,109.127,110.683,109.666,111.427,109.592L111.427,109.592"/>
<path fill-rule="evenodd" clip-rule="evenodd" fill="#1B3F73" d="M121.012,103.57c-1.209-0.279-2.336-0.45-2.336-0.45
	c-0.206,0.029,2.786-1.327,8.208,0.359c1.033,0.322,1.016-1.074,1.016-1.074c-0.17-1.046-2.771-2.377-2.616-2.189
	c-3.218-0.932-6.352-0.498-6.352-0.498l4.198-4.919c0,0,1.018-0.177,1.14-0.177s2.243-0.428,3.985,0.063
	c1.668,0.472,3.789,4.104,3.789,4.104l1.069,1.481c2.012,3.22,1.463-0.054,1.463-0.054s-0.184-0.861-0.245-0.983
	c-0.846-2.844-2.128-4.459-2.956-5.663c-0.64-0.93-3.101-1.1-3.101-1.1c-4.993,0.548,2.411-1.646,4.579-0.562
	c0.122,0.061,1.107,1.6,1.107,1.6l3.139,8.186c0.363,0.719,0.84,1.354,1.338,1.89l-3.682-0.013
	c-0.084-0.005-0.165-0.025-0.243-0.037c-0.892-0.178-1.862-0.125-2.706,0.032L121.012,103.57L121.012,103.57L121.012,103.57z
	 M145.573,103.57c0.19-0.195,0.381-0.409,0.576-0.645c0.638-0.737,0.8-0.985,0.8-0.985c1.413-0.206,3.322-0.201,1.931,1.63H145.573
	L145.573,103.57L145.573,103.57z M123.569,97.836c0.288,0.074,0.958,0.033,0.958,0.033c4.369,0.318,4.681,2.985,4.681,2.985
	c0.119,0.591,2.131,2.692,2.075-1.075c-0.937-3.824-5.288-3.745-5.288-3.745c-1.773,0.013-2.593,0.808-2.593,0.808
	S123.021,97.562,123.569,97.836L123.569,97.836"/>
<path fill="#1B3F73" d="M106.21,159.238c1.097,0,1.747-0.081,2.603-0.203c0.041-0.49,0.259-3.538,0.259-3.538v-1.577l0.264-1.313
	l0.788-0.92c0,0,0.525-0.525,1.051-0.525c0.525,0,1.577,0.13,1.577,0.13l1.841,0.132l1.313,0.657l2.41,0.95l1.608,2.257l0.429,0.76
	l1.123,0.462c0.262,0.081,1.274,0.455,1.274,0.455c-0.256-0.3-2.704-4.292-3.071-4.729c0,0-0.7-0.566-0.98-0.495
	c-0.962-0.467-1.592-0.498-1.592-0.498l-2.103-0.919l-1.445-0.787l-1.531-0.27h-1.506l-1.479,0.097l-1.575,0.188l-0.447,0.65
	l0.528,1.547l0.286,1.14v2.89l-0.448,1.669L106.21,159.238L106.21,159.238"/>
<path fill="none" d="M106.21,159.238c1.097,0,1.747-0.081,2.603-0.203c0.041-0.49,0.259-3.538,0.259-3.538v-1.577l0.264-1.313
	l0.788-0.92c0,0,0.525-0.525,1.051-0.525c0.525,0,1.577,0.13,1.577,0.13l1.841,0.132l1.313,0.657l2.41,0.95l1.608,2.257l0.429,0.76
	l1.123,0.462c0.262,0.081,1.274,0.455,1.274,0.455c-0.256-0.3-2.704-4.292-3.071-4.729c0,0-0.7-0.566-0.98-0.495
	c-0.962-0.467-1.592-0.498-1.592-0.498l-2.103-0.919l-1.445-0.787l-1.531-0.27h-1.506l-1.479,0.097l-1.575,0.188l-0.447,0.65
	l0.528,1.547l0.286,1.14v2.89l-0.448,1.669L106.21,159.238L106.21,159.238L106.21,159.238z"/>
<path fill="#1B3F73" d="M111.94,161.341l1.092,0.003c0,0,0.576-0.043,0.708-0.043c0.132,0,0.929,0,1.15,0
	c0.222,0,1.107-0.355,1.196-0.355c0.089,0,1.818-1.115,1.818-1.115l0.374-0.498l-0.242-0.699l-0.401-0.965
	c0,0-0.62-0.444-0.752-0.487c-0.135-0.046-0.708-0.392-0.708-0.392l-0.62-0.487l-0.844-0.53l-0.708-0.531l-0.485-0.399l-0.843-0.266
	l-0.31-0.043l-0.221-0.089l-0.442,0.089l-0.356,0.221l0.066,0.333l0.178,0.266l0.442,0.178l0.487,0.221l0.577,0.22l0.708,0.356
	l0.663,0.264l0.533,0.435l0.442,0.552l0.27,0.604l-0.828,0.341l-0.582-0.046l-0.342-0.498l-0.31-0.221l-0.355-0.399l-0.399-0.224
	l-0.31-0.089l-0.621,0.046l-0.52,0.267l-0.056,0.483l0.088,0.489l0.066,0.801c0,0,0.467,0.043,0.556,0.043
	c0.089,0,0.62,0.086,0.62,0.086l0.574-0.132c0,0,0.266-0.131,0.355-0.131c0.089,0,0.495-0.115,0.626-0.115
	c0.133,0,0.62,0.089,0.62,0.089l0.647,0.51l-0.088,0.575l-0.701,0.361h-0.445l-0.709,0.178l-0.574,0.089l-0.959,0.086l-0.351,0.304
	L111.94,161.341L111.94,161.341"/>
<path fill="none" d="M111.94,161.341l1.092,0.003c0,0,0.576-0.043,0.708-0.043c0.132,0,0.929,0,1.15,0
	c0.222,0,1.107-0.355,1.196-0.355c0.089,0,1.818-1.115,1.818-1.115l0.374-0.498l-0.242-0.699l-0.401-0.965
	c0,0-0.62-0.444-0.752-0.487c-0.135-0.046-0.708-0.392-0.708-0.392l-0.62-0.487l-0.844-0.53l-0.708-0.531l-0.485-0.399l-0.843-0.266
	l-0.31-0.043l-0.221-0.089l-0.442,0.089l-0.356,0.221l0.066,0.333l0.178,0.266l0.442,0.178l0.487,0.221l0.577,0.22l0.708,0.356
	l0.663,0.264l0.533,0.435l0.442,0.552l0.27,0.604l-0.828,0.341l-0.582-0.046l-0.342-0.498l-0.31-0.221l-0.355-0.399l-0.399-0.224
	l-0.31-0.089l-0.621,0.046l-0.52,0.267l-0.056,0.483l0.088,0.489l0.066,0.801c0,0,0.467,0.043,0.556,0.043
	c0.089,0,0.62,0.086,0.62,0.086l0.574-0.132c0,0,0.266-0.131,0.355-0.131c0.089,0,0.495-0.115,0.626-0.115
	c0.133,0,0.62,0.089,0.62,0.089l0.647,0.51l-0.088,0.575l-0.701,0.361h-0.445l-0.709,0.178l-0.574,0.089l-0.959,0.086l-0.351,0.304
	L111.94,161.341L111.94,161.341L111.94,161.341z"/>
<path fill="#1B3F73" d="M112.499,162.981l0.089,0.62l0.266,0.488l0.442,0.355l0.355,0.132l0.62,0.089l0.666-0.221l0.396-0.445
	l0.178-0.31l-0.088-0.31c0,0,0.223-0.132-0.31-0.132c-0.531,0-0.841,0.043-0.841,0.043l-0.62-0.088l-0.31-0.176l-0.355-0.088h-0.398
	L112.499,162.981L112.499,162.981"/>
<path fill="none" d="M112.499,162.981l0.089,0.62l0.266,0.488l0.442,0.355l0.355,0.132l0.62,0.089l0.666-0.221l0.396-0.445
	l0.178-0.31l-0.088-0.31c0,0,0.223-0.132-0.31-0.132c-0.531,0-0.841,0.043-0.841,0.043l-0.62-0.088l-0.31-0.176l-0.355-0.088h-0.398
	L112.499,162.981L112.499,162.981L112.499,162.981z"/>
<path fill="#1B3F73" d="M202.221,173.243l-1.183,0.92l-1.055,0.789l-1.58,1.055l-2.104,1.447l-1.975,1.588l-2.107,1.846
	l-2.369,1.844l-2.105,1.447l-1.852,1.576l-1.315,1.186c-0.536,0.202-1.188,0.265-1.188,0.265c-0.283-0.037-0.202-0.505-0.202-0.505
	c0.391-0.364,0.78-0.632,0.78-0.632l1.268-0.972l1.587-1.052l1.58-1.186l1.844-1.447l1.447-1.183l1.712-1.447l1.447-1.328
	l1.973-1.709l2.502-2.502l0.922-1.317l0.791-0.526h0.918l0.661,0.396L202.221,173.243L202.221,173.243"/>
<path fill="none" d="M202.221,173.243l-1.183,0.92l-1.055,0.789l-1.58,1.055l-2.104,1.447l-1.975,1.588l-2.107,1.846l-2.369,1.844
	l-2.105,1.447l-1.852,1.576l-1.315,1.186c-0.536,0.202-1.188,0.265-1.188,0.265c-0.283-0.037-0.202-0.505-0.202-0.505
	c0.391-0.364,0.78-0.632,0.78-0.632l1.268-0.972l1.587-1.052l1.58-1.186l1.844-1.447l1.447-1.183l1.712-1.447l1.447-1.328
	l1.973-1.709l2.502-2.502l0.922-1.317l0.791-0.526h0.918l0.661,0.396L202.221,173.243L202.221,173.243L202.221,173.243z"/>
<path fill="#1B3F73" d="M190.533,184.581c0.254,0.211,0.104,0.516,0.104,0.516l-0.789,1.054l-5.314,4.237l-1.272,1.029l-1.451,1.182
	l-1.184,1.055l-0.79,0.658c-0.226,0.183-0.443,0.183-0.657,0c-0.011-0.373,0.525-0.789,0.525-0.789
	c0.236-0.245,1.976-1.447,1.976-1.447l1.708-1.447l1.713-1.317l2.248-1.712l1.183-0.92l0.922-0.924l0.395-0.456
	C190.259,184.361,190.533,184.581,190.533,184.581L190.533,184.581"/>
<path fill="none" d="M190.533,184.581c0.254,0.211,0.104,0.516,0.104,0.516l-0.789,1.054l-5.314,4.237l-1.272,1.029l-1.451,1.182
	l-1.184,1.055l-0.79,0.658c-0.226,0.183-0.443,0.183-0.657,0c-0.011-0.373,0.525-0.789,0.525-0.789
	c0.236-0.245,1.976-1.447,1.976-1.447l1.708-1.447l1.713-1.317l2.248-1.712l1.183-0.92l0.922-0.924l0.395-0.456
	C190.259,184.361,190.533,184.581,190.533,184.581L190.533,184.581L190.533,184.581z"/>
<polyline fill="#1B3F73" points="198.102,171.097 197.799,171.482 197.469,171.866 196.423,172.805 195.323,173.71 194.03,174.784 
	193.178,175.5 192.103,176.518 190.975,177.509 190.013,178.442 189.324,179.05 188.664,179.654 187.892,180.344 187.369,180.729 
	186.873,180.947 186.35,180.864 186.241,180.48 186.655,179.984 187.618,179.215 188.553,178.472 189.708,177.4 190.891,176.24 
	192.021,175.061 193.204,173.878 194.414,172.747 195.569,171.564 196.449,170.436 196.864,170.354 197.36,170.354 197.689,170.519 
	198.102,171.097 198.102,171.097 "/>
<polygon fill="none" points="198.102,171.097 197.799,171.482 197.469,171.866 196.423,172.805 195.323,173.71 194.03,174.784 
	193.178,175.5 192.103,176.518 190.975,177.509 190.013,178.442 189.324,179.05 188.664,179.654 187.892,180.344 187.369,180.729 
	186.873,180.947 186.35,180.864 186.241,180.48 186.655,179.984 187.618,179.215 188.553,178.472 189.708,177.4 190.891,176.24 
	192.021,175.061 193.204,173.878 194.414,172.747 195.569,171.564 196.449,170.436 196.864,170.354 197.36,170.354 197.689,170.519 
	198.102,171.097 198.102,171.097 "/>
<path fill="#1B3F73" d="M195.131,169.775l-0.606,0.359l-0.44,0.578l-0.577,0.575l-0.413,0.468l-0.743,0.744l-0.47,0.495
	l-0.494,0.579l-0.632,0.687l-0.439,0.441l-0.249,0.273l-0.386,0.302c-0.451,0.319-0.743,0.085-0.743,0.085
	c-0.104-0.446,0.359-0.826,0.359-0.826l0.357-0.521l0.496-0.553l0.495-0.495l0.715-0.77l0.604-0.744l0.468-0.521l0.358-0.44
	l0.468-0.414l0.056-0.355l-0.11-0.414c0,0,0.384-0.108,0.44-0.108c0.056,0,0.467,0.053,0.467,0.053l0.277,0.084l0.327,0.081
	L195.131,169.775L195.131,169.775"/>
<path fill="none" d="M195.131,169.775l-0.606,0.359l-0.44,0.578l-0.577,0.575l-0.413,0.468l-0.743,0.744l-0.47,0.495l-0.494,0.579
	l-0.632,0.687l-0.439,0.441l-0.249,0.273l-0.386,0.302c-0.451,0.319-0.743,0.085-0.743,0.085c-0.104-0.446,0.359-0.826,0.359-0.826
	l0.357-0.521l0.496-0.553l0.495-0.495l0.715-0.77l0.604-0.744l0.468-0.521l0.358-0.44l0.468-0.414l0.056-0.355l-0.11-0.414
	c0,0,0.384-0.108,0.44-0.108c0.056,0,0.467,0.053,0.467,0.053l0.277,0.084l0.327,0.081L195.131,169.775L195.131,169.775
	L195.131,169.775z"/>
<path fill-rule="evenodd" clip-rule="evenodd" fill="#1B3F73" d="M182.624,168.328l-1.016,0.447l-1.506,2.397l-2.926,5.24
	l-4.816,6.758c-1.746,2.967-3.648,3.725-3.648,3.725c-1.097,0.205-4.079,0.964-4.079,0.964l3.078-2.263
	c1.838-0.961,4.551-4.224,4.551-4.224l2.194-2.727l1.745-2.437l1.341-2.113l1.584-2.557c0.328-0.239,1.464-5,1.464-5l0.693,0.122
	l0.568,0.488l0.444,0.528L182.624,168.328L182.624,168.328"/>
<path fill="none" d="M182.624,168.328l-1.016,0.447l-1.506,2.397l-2.926,5.24l-4.816,6.758c-1.746,2.967-3.648,3.725-3.648,3.725
	c-1.097,0.205-4.079,0.964-4.079,0.964l3.078-2.263c1.838-0.961,4.551-4.224,4.551-4.224l2.194-2.727l1.745-2.437l1.341-2.113
	l1.584-2.557c0.328-0.239,1.464-5,1.464-5l0.693,0.122l0.568,0.488l0.444,0.528L182.624,168.328L182.624,168.328L182.624,168.328z"
	/>
<polyline fill="#1B3F73" points="180.389,165.85 179.902,166.621 178.439,168.531 177.465,169.995 176.041,172.106 174.781,173.69 
	173.563,175.111 172.344,176.696 170.841,178.363 169.337,179.987 167.996,181.372 166.615,182.754 165.232,184.054 164.054,185.19 
	161.136,188.236 159.31,188.464 161.616,186.247 162.876,185.07 164.948,183.278 166.167,182.145 167.59,180.885 168.443,179.987 
	169.134,179.215 170.23,177.996 171.409,176.574 172.384,175.234 174.091,173.038 175.148,171.781 176.933,169.061 178.805,165.89 
	179.455,164.589 180.431,165.199 180.389,165.85 180.389,165.85 "/>
<polygon fill="none" points="180.389,165.85 179.902,166.621 178.439,168.531 177.465,169.995 176.041,172.106 174.781,173.69 
	173.563,175.111 172.344,176.696 170.841,178.363 169.337,179.987 167.996,181.372 166.615,182.754 165.232,184.054 164.054,185.19 
	161.136,188.236 159.31,188.464 161.616,186.247 162.876,185.07 164.948,183.278 166.167,182.145 167.59,180.885 168.443,179.987 
	169.134,179.215 170.23,177.996 171.409,176.574 172.384,175.234 174.091,173.038 175.148,171.781 176.933,169.061 178.805,165.89 
	179.455,164.589 180.431,165.199 180.389,165.85 180.389,165.85 "/>
<path fill="#1B3F73" d="M178.152,163.37l-0.688,1.057l-0.653,1.138l-1.542,1.951l-1.871,2.234l-2.842,3.613l-1.829,2.157
	l-1.219,1.465l-2.642,3.003l-1.138,1.18l-2.519,2.477l-1.259,1.262l-2.032,1.83c-3.18,2.57-4.158,2.641-4.158,2.641
	c-1.168,0.154-2.28,0.154-2.28,0.154s1.277-0.926,1.358-0.926s0.976-0.405,0.976-0.405l1.056-0.612l1.219-0.852l1.544-1.177
	l1.219-1.14l2.763-2.686l1.788-1.746l1.544-1.667l2.154-2.436l2.113-2.399l1.626-2.029l2.966-3.819l2.905-4.257
	c0,0,0.25-0.49,0.313-0.539C178.389,161.796,178.152,163.37,178.152,163.37L178.152,163.37"/>
<path fill="none" d="M178.152,163.37l-0.688,1.057l-0.653,1.138l-1.542,1.951l-1.871,2.234l-2.842,3.613l-1.829,2.157l-1.219,1.465
	l-2.642,3.003l-1.138,1.18l-2.519,2.477l-1.259,1.262l-2.032,1.83c-3.18,2.57-4.158,2.641-4.158,2.641
	c-1.168,0.154-2.28,0.154-2.28,0.154s1.277-0.926,1.358-0.926s0.976-0.405,0.976-0.405l1.056-0.612l1.219-0.852l1.544-1.177
	l1.219-1.14l2.763-2.686l1.788-1.746l1.544-1.667l2.154-2.436l2.113-2.399l1.626-2.029l2.966-3.819l2.905-4.257
	c0,0,0.25-0.49,0.313-0.539C178.389,161.796,178.152,163.37,178.152,163.37L178.152,163.37L178.152,163.37z"/>
<path fill="#1B3F73" d="M154.377,184.003l-0.969,0.657l-1.301,0.898l-1.521,0.771l-1.121,0.527l-0.974,0.404l-1.321,0.502
	l-1.778,0.422l-2.398,0.228l-1.798,0.1c0,0-2.571,0.618-0.062,1.025c0.12,0.019,1.463-0.079,1.463-0.079l1.91-0.208
	c1.919-0.077,4.104-1.012,4.186-1.012c0.081,0,2.6-1.061,2.6-1.061l4.186-2.76l3.223-2.924
	C159.354,180.278,154.377,184.003,154.377,184.003L154.377,184.003"/>
<path fill="none" d="M154.377,184.003l-0.969,0.657l-1.301,0.898l-1.521,0.771l-1.121,0.527l-0.974,0.404l-1.321,0.502l-1.778,0.422
	l-2.398,0.228l-1.798,0.1c0,0-2.571,0.618-0.062,1.025c0.12,0.019,1.463-0.079,1.463-0.079l1.91-0.208
	c1.919-0.077,4.104-1.012,4.186-1.012c0.081,0,2.6-1.061,2.6-1.061l4.186-2.76l3.223-2.924
	C159.354,180.278,154.377,184.003,154.377,184.003L154.377,184.003L154.377,184.003z"/>
<path fill="#1B3F73" d="M128.852,209.271c-4.917,1.063-6.133,0.915-6.133,0.915l-15.434,0.682c-2.434-0.075-3.698-0.533-3.698-0.533
	l3.698-0.453c4.708,0.107,19.669-1.918,19.669-1.918l6.307-0.869L128.852,209.271L128.852,209.271"/>
<path fill="none" d="M128.852,209.271c-4.917,1.063-6.133,0.915-6.133,0.915l-15.434,0.682c-2.434-0.075-3.698-0.533-3.698-0.533
	l3.698-0.453c4.708,0.107,19.669-1.918,19.669-1.918l6.307-0.869L128.852,209.271L128.852,209.271L128.852,209.271z"/>
<path fill-rule="evenodd" clip-rule="evenodd" fill="#1B3F73" d="M134.858,204.433l-6.616,1.368l-8.757,1.122
	c0,0-4.666,0.177-4.8,0.208c-0.455,0.114-1.229-0.162-1.229-0.162c-0.036-0.356,0.116-0.394,0.116-0.394s0.557-0.137,0.765-0.137
	s5.08-0.419,5.08-0.419l10.272-1.437l6.839-1.595l2.971-0.729L134.858,204.433L134.858,204.433"/>
<path fill="none" d="M134.858,204.433l-6.616,1.368l-8.757,1.122c0,0-4.666,0.177-4.8,0.208c-0.455,0.114-1.229-0.162-1.229-0.162
	c-0.036-0.356,0.116-0.394,0.116-0.394s0.557-0.137,0.765-0.137s5.08-0.419,5.08-0.419l10.272-1.437l6.839-1.595l2.971-0.729
	L134.858,204.433L134.858,204.433L134.858,204.433z"/>
<path fill="#1B3F73" d="M146.67,199.139l-6.438,1.296l-6.529,1.276l-8.538,1.288c-1.691,0.266-3.495,0-3.495,0
	c-0.635,0.126-0.468-0.233-0.468-0.233c0.021-0.345,0.701-0.704,0.935-0.704c0.233,0,1.171-0.116,1.171-0.116
	c1.175,0.051,6.651-0.818,6.651-0.818l6.433-1.171c0,0,4.912-1.153,5.498-1.271c0.584-0.116,5.483-1.284,5.483-1.284L146.67,199.139
	L146.67,199.139"/>
<path fill="none" d="M146.67,199.139l-6.438,1.296l-6.529,1.276l-8.538,1.288c-1.691,0.266-3.495,0-3.495,0
	c-0.635,0.126-0.468-0.233-0.468-0.233c0.021-0.345,0.701-0.704,0.935-0.704c0.233,0,1.171-0.116,1.171-0.116
	c1.175,0.051,6.651-0.818,6.651-0.818l6.433-1.171c0,0,4.912-1.153,5.498-1.271c0.584-0.116,5.483-1.284,5.483-1.284L146.67,199.139
	L146.67,199.139L146.67,199.139z"/>
<polyline fill="#1B3F73" points="135.036,173.123 134.221,172.827 133.255,172.827 132.587,173.123 131.919,173.496 
	130.881,174.087 129.844,174.682 128.432,175.57 127.691,176.019 127.32,176.237 126.432,176.537 126.355,176.314 126.652,176.019 
	127.246,175.57 127.84,175.127 129.25,174.015 130.51,173.2 131.699,172.53 132.514,172.009 133.182,171.564 133.958,171.074 
	134.665,171.194 135.112,172.309 135.036,173.123 135.036,173.123 "/>
<polygon fill="none" points="135.036,173.123 134.221,172.827 133.255,172.827 132.587,173.123 131.919,173.496 130.881,174.087 
	129.844,174.682 128.432,175.57 127.691,176.019 127.32,176.237 126.432,176.537 126.355,176.314 126.652,176.019 127.246,175.57 
	127.84,175.127 129.25,174.015 130.51,173.2 131.699,172.53 132.514,172.009 133.182,171.564 133.958,171.074 134.665,171.194 
	135.112,172.309 135.036,173.123 135.036,173.123 "/>
<path fill="#1B3F73" d="M134.444,169.415c-0.15-0.073-0.966-0.225-0.966-0.225l-0.594,0.371l-1.111,0.744l-0.595,0.37l-1.186,0.669
	l-0.742,0.445l-0.594,0.667l-0.594,0.296l-0.889,0.296l-0.594,0.223c-0.117,0.16-0.518,0-0.518,0s-0.076-0.296,0.221-0.444
	c0.297-0.148,0.742-0.37,0.964-0.519c0.224-0.148,1.707-1.411,1.707-1.411l2.004-1.482l1.707-1.039c0,0,1.186-0.595,1.333-0.595
	c0.149,0,0.447-0.741,0.447-0.741l0.668-0.222l1.112,0.889c0,0-0.224,0.521-0.298,0.742c-0.073,0.223-0.444,0.819-0.444,0.819
	S134.591,169.489,134.444,169.415L134.444,169.415"/>
<path fill="none" d="M134.444,169.415c-0.15-0.073-0.966-0.225-0.966-0.225l-0.594,0.371l-1.111,0.744l-0.595,0.37l-1.186,0.669
	l-0.742,0.445l-0.594,0.667l-0.594,0.296l-0.889,0.296l-0.594,0.223c-0.117,0.16-0.518,0-0.518,0s-0.076-0.296,0.221-0.444
	c0.297-0.148,0.742-0.37,0.964-0.519c0.224-0.148,1.707-1.411,1.707-1.411l2.004-1.482l1.707-1.039c0,0,1.186-0.595,1.333-0.595
	c0.149,0,0.447-0.741,0.447-0.741l0.668-0.222l1.112,0.889c0,0-0.224,0.521-0.298,0.742c-0.073,0.223-0.444,0.819-0.444,0.819
	S134.591,169.489,134.444,169.415L134.444,169.415L134.444,169.415z"/>
<path fill="#1B3F73" d="M132.811,163.33l-0.741,0.447l-1.04,0.519l-1.483,0.892l-1.115,0.741l-0.962,0.668
	c0,0-0.008,0.096-0.521,0.297c-0.721,0.281-1.041,0.409-1.041,0.409c-0.193,0.072-0.442-0.409-0.294-0.559
	c0.149-0.146,0.741-0.667,0.741-0.667l0.965-0.444l1.262-1.039l0.965-0.741l0.963-0.521l0.818-0.592l0.667-0.371l0.519-0.223
	l0.444-0.595l0.076-0.963l-0.667-0.076l-0.668,0.224l-1.262,0.891l-1.707,1.04l-0.889,0.665l-0.667,0.521c0,0-0.668,0.37-0.891,0.37
	c-0.221,0-0.595,0.063-0.742,0.074c-0.505,0.04-0.519-0.371-0.519-0.371c0.132-0.37,0.742-0.668,0.742-0.668l2.299-1.186
	l1.112-0.892l0.922-0.624l0.935-0.635l0.889-0.224l0.668-0.147l0.371,0.074l0.595,1.26v1.188L132.811,163.33L132.811,163.33"/>
<path fill="none" d="M132.811,163.33l-0.741,0.447l-1.04,0.519l-1.483,0.892l-1.115,0.741l-0.962,0.668c0,0-0.008,0.096-0.521,0.297
	c-0.721,0.281-1.041,0.409-1.041,0.409c-0.193,0.072-0.442-0.409-0.294-0.559c0.149-0.146,0.741-0.667,0.741-0.667l0.965-0.444
	l1.262-1.039l0.965-0.741l0.963-0.521l0.818-0.592l0.667-0.371l0.519-0.223l0.444-0.595l0.076-0.963l-0.667-0.076l-0.668,0.224
	l-1.262,0.891l-1.707,1.04l-0.889,0.665l-0.667,0.521c0,0-0.668,0.37-0.891,0.37c-0.221,0-0.595,0.063-0.742,0.074
	c-0.505,0.04-0.519-0.371-0.519-0.371c0.132-0.37,0.742-0.668,0.742-0.668l2.299-1.186l1.112-0.892l0.922-0.624l0.935-0.635
	l0.889-0.224l0.668-0.147l0.371,0.074l0.595,1.26v1.188L132.811,163.33L132.811,163.33L132.811,163.33z"/>
<path fill="#1B3F73" d="M132.811,156.622l-1.189,0.772l-1.259,0.667l-1.189,0.595l-0.742,0.594l-1.038,0.592l-0.815,0.447
	l-0.668,0.297l-0.742,0.295c0,0-0.297-0.073-0.224-0.221c0.076-0.15,0.297-0.521,0.297-0.521s0.892-0.372,0.965-0.519
	c0.074-0.15,1.039-0.52,1.113-0.668c0.074-0.147,0.742-0.741,0.742-0.741s0.521-0.297,0.891-0.444
	c0.371-0.15,1.113-0.745,1.113-0.745s0.891-0.401,0.964-0.551c0.074-0.147,0.147-0.295,0.371-0.518
	c0.221-0.224,0.594-0.445,0.594-0.445s0.444-0.15,0.592,0.074c0.15,0.223,0.371,0.444,0.371,0.444L132.811,156.622L132.811,156.622"
	/>
<path fill="none" d="M132.811,156.622l-1.189,0.772l-1.259,0.667l-1.189,0.595l-0.742,0.594l-1.038,0.592l-0.815,0.447l-0.668,0.297
	l-0.742,0.295c0,0-0.297-0.073-0.224-0.221c0.076-0.15,0.297-0.521,0.297-0.521s0.892-0.372,0.965-0.519
	c0.074-0.15,1.039-0.52,1.113-0.668c0.074-0.147,0.742-0.741,0.742-0.741s0.521-0.297,0.891-0.444
	c0.371-0.15,1.113-0.745,1.113-0.745s0.891-0.401,0.964-0.551c0.074-0.147,0.147-0.295,0.371-0.518
	c0.221-0.224,0.594-0.445,0.594-0.445s0.444-0.15,0.592,0.074c0.15,0.223,0.371,0.444,0.371,0.444L132.811,156.622L132.811,156.622
	L132.811,156.622z"/>
<path fill="#1B3F73" d="M168.095,154.995l-0.731,0.365l-0.948,0.511l-0.802,0.437l-0.666,0.366l-0.874,0.518l-0.806,0.292
	l-1.021,0.437l-0.802,0.218l-0.876,0.292c0,0-0.363,0.292-0.511,0c-0.145-0.292-0.145-0.437-0.145-0.437s0.292-0.218,0.51-0.292
	c0.219-0.074,1.313-0.657,1.313-0.657l1.679-0.881l1.387-0.803l1.102-0.584l0.803-0.51l0.729-0.292l0.658,0.292V154.995"/>
<path fill="none" d="M168.095,154.995l-0.731,0.365l-0.948,0.511l-0.802,0.437l-0.666,0.366l-0.874,0.518l-0.806,0.292l-1.021,0.437
	l-0.802,0.218l-0.876,0.292c0,0-0.363,0.292-0.511,0c-0.145-0.292-0.145-0.437-0.145-0.437s0.292-0.218,0.51-0.292
	c0.219-0.074,1.313-0.657,1.313-0.657l1.679-0.881l1.387-0.803l1.102-0.584l0.803-0.51l0.729-0.292l0.658,0.292V154.995
	L168.095,154.995z"/>
<polyline fill="#1B3F73" points="167.219,151.858 166.561,152.003 165.466,152.731 164.367,153.39 163.125,154.339 162.104,154.85 
	159.696,156.089 157.725,156.899 156.994,157.409 155.899,157.702 155.315,157.483 155.899,156.825 156.849,156.381 
	159.404,155.068 161.009,154.191 163.709,152.513 166.05,150.981 166.708,150.542 167.146,150.909 167.219,151.858 167.219,151.858 
	"/>
<polygon fill="none" points="167.219,151.858 166.561,152.003 165.466,152.731 164.367,153.39 163.125,154.339 162.104,154.85 
	159.696,156.089 157.725,156.899 156.994,157.409 155.899,157.702 155.315,157.483 155.899,156.825 156.849,156.381 
	159.404,155.068 161.009,154.191 163.709,152.513 166.05,150.981 166.708,150.542 167.146,150.909 167.219,151.858 167.219,151.858 
	"/>
<polyline fill="#1B3F73" points="166.853,149.229 165.905,149.229 165.241,149.813 164.438,150.542 163.709,151.053 162.614,151.71 
	161.083,152.586 159.476,153.39 157.944,154.047 155.973,154.92 154.512,155.579 153.055,156.163 152.397,156.308 152.031,155.944 
	152.253,155.434 153.418,154.92 154.878,154.41 157.652,153.023 160.425,151.636 162.469,150.324 163.854,149.522 164.512,149.085 
	165.169,148.719 166.05,148.062 166.782,147.917 166.853,149.229 166.853,149.229 "/>
<polygon fill="none" points="166.853,149.229 165.905,149.229 165.241,149.813 164.438,150.542 163.709,151.053 162.614,151.71 
	161.083,152.586 159.476,153.39 157.944,154.047 155.973,154.92 154.512,155.579 153.055,156.163 152.397,156.308 152.031,155.944 
	152.253,155.434 153.418,154.92 154.878,154.41 157.652,153.023 160.425,151.636 162.469,150.324 163.854,149.522 164.512,149.085 
	165.169,148.719 166.05,148.062 166.782,147.917 166.853,149.229 166.853,149.229 "/>
<path fill="#1B3F73" d="M166.269,146.09l-1.247,0.292l-0.803,0.366l-1.387,0.802l-1.678,1.021l-1.971,1.168l-2.116,1.023
	l-1.46,0.803l-1.897,0.947l-1.24,0.584l-1.605,0.584l-1.023,0.436l-1.021,0.292l-1.095,0.074l-0.876,0.074l-0.729-0.148l0.219-0.437
	c-0.001,0,0.51-0.219,0.876-0.292c0.366-0.074,2.115-0.438,2.115-0.438l2.7-0.876l2.118-1.024l2.992-1.75l3.137-1.752l1.679-0.876
	l1.605-0.948c0,0,0.731-0.439,0.876-0.51c0.147-0.074,0.439-0.366,0.511-0.513c0.074-0.146,0.292-0.948,0.292-0.948l0.518,0.366
	l0.365,0.729L166.269,146.09L166.269,146.09"/>
<path fill="none" d="M166.269,146.09l-1.247,0.292l-0.803,0.366l-1.387,0.802l-1.678,1.021l-1.971,1.168l-2.116,1.023l-1.46,0.803
	l-1.897,0.947l-1.24,0.584l-1.605,0.584l-1.023,0.436l-1.021,0.292l-1.095,0.074l-0.876,0.074l-0.729-0.148l0.219-0.437
	c-0.001,0,0.51-0.219,0.876-0.292c0.366-0.074,2.115-0.438,2.115-0.438l2.7-0.876l2.118-1.024l2.992-1.75l3.137-1.752l1.679-0.876
	l1.605-0.948c0,0,0.731-0.439,0.876-0.51c0.147-0.074,0.439-0.366,0.511-0.513c0.074-0.146,0.292-0.948,0.292-0.948l0.518,0.366
	l0.365,0.729L166.269,146.09L166.269,146.09L166.269,146.09z"/>
<path fill="#1B3F73" d="M133.923,166.372l-0.889,0.15l-0.667,0.444l-1.189,0.668l-0.889,0.594l-0.891,0.592l-0.889,0.448l-0.37,0.37
	l-0.744,0.592l-0.592,0.445c0,0-0.594,0.222-0.741,0.222c-0.15,0-0.521-0.073-0.521-0.073s0-0.445,0.147-0.519
	c0.15-0.075,0.818-0.594,0.818-0.594l0.965-0.595l0.815-0.667l0.668-0.518l0.891-0.594l0.963-0.519l0.742-0.594l0.447-0.297
	l0.444-0.297l0.444-0.371l0.816,0.224l0.447,0.297L133.923,166.372L133.923,166.372"/>
<path fill="none" d="M133.923,166.372l-0.889,0.15l-0.667,0.444l-1.189,0.668l-0.889,0.594l-0.891,0.592l-0.889,0.448l-0.37,0.37
	l-0.744,0.592l-0.592,0.445c0,0-0.594,0.222-0.741,0.222c-0.15,0-0.521-0.073-0.521-0.073s0-0.445,0.147-0.519
	c0.15-0.075,0.818-0.594,0.818-0.594l0.965-0.595l0.815-0.667l0.668-0.518l0.891-0.594l0.963-0.519l0.742-0.594l0.447-0.297
	l0.444-0.297l0.444-0.371l0.816,0.224l0.447,0.297L133.923,166.372L133.923,166.372L133.923,166.372z"/>
<path fill="#1B3F73" d="M133.923,166.372l-0.889,0.15l-0.667,0.444l-1.189,0.668l-0.889,0.594l-0.891,0.592l-0.889,0.448l-0.37,0.37
	l-0.744,0.592l-0.592,0.445c0,0-0.626,0.256-0.772,0.282c-0.487,0.082-0.49-0.579-0.343-0.652c0.15-0.075,0.818-0.594,0.818-0.594
	l0.965-0.595l0.815-0.667l0.668-0.518l0.891-0.594l0.963-0.519l0.742-0.594l0.447-0.297l0.444-0.297l0.444-0.371l0.816,0.224
	l0.447,0.297L133.923,166.372L133.923,166.372"/>
<path fill="none" d="M133.923,166.372l-0.889,0.15l-0.667,0.444l-1.189,0.668l-0.889,0.594l-0.891,0.592l-0.889,0.448l-0.37,0.37
	l-0.744,0.592l-0.592,0.445c0,0-0.626,0.256-0.772,0.282c-0.487,0.082-0.49-0.579-0.343-0.652c0.15-0.075,0.818-0.594,0.818-0.594
	l0.965-0.595l0.815-0.667l0.668-0.518l0.891-0.594l0.963-0.519l0.742-0.594l0.447-0.297l0.444-0.297l0.444-0.371l0.816,0.224
	l0.447,0.297L133.923,166.372L133.923,166.372L133.923,166.372z"/>
<path fill="#1B3F73" d="M128.72,223.202l0.381-0.567l0.399-0.732l0.464-0.398l0.399-0.399l0.274-0.783
	c0.114-0.063-0.673,0.254-0.673,0.254l-0.731,0.333l-0.464,0.33l-0.539,0.342l-0.343,1.966L128.72,223.202L128.72,223.202"/>
<path fill="none" d="M128.72,223.202l0.381-0.567l0.399-0.732l0.464-0.398l0.399-0.399l0.274-0.783
	c0.114-0.063-0.673,0.254-0.673,0.254l-0.731,0.333l-0.464,0.33l-0.539,0.342l-0.343,1.966L128.72,223.202L128.72,223.202
	L128.72,223.202z"/>
<path fill="#1B3F73" d="M54.616,258.472c1.098-0.826,1.324-2.447,0.498-3.545c-0.851-1.131-2.448-1.325-3.545-0.498
	c-1.131,0.852-1.349,2.416-0.498,3.545C51.896,259.067,53.486,259.324,54.616,258.472L54.616,258.472"/>
<polyline fill="#1B3F73" points="77.489,288.966 76.305,287.972 74.431,290.208 65.692,282.874 86.185,277.671 86.792,276.947 
	75.124,267.159 75.675,266.502 74.495,265.51 71.406,269.188 72.587,270.183 74.022,268.474 82.238,275.366 61.783,280.657 
	61.202,281.348 74.512,292.517 77.489,288.966 77.489,288.966 "/>
<path fill="#1B3F73" d="M114.144,293.62l-7.54-4.181l-0.833,1.498l2.813,1.563l-5.198,9.377c-1.684,3.04-4.917,4.095-7.73,2.533
	c-2.739-1.516-3.414-4.64-1.707-7.714l5.219-9.417l2.853,1.579l0.83-1.499l-8.516-4.722l-0.833,1.499l2.852,1.584l-5.656,10.203
	c-1.956,3.528-0.464,7.736,3.55,9.965c4.277,2.367,8.742,1.217,10.989-2.838l5.262-9.491l2.812,1.559L114.144,293.62L114.144,293.62
	"/>
<path fill-rule="evenodd" clip-rule="evenodd" fill="#1B3F73" d="M134.637,320.798c3.954,0.985,6.7-0.274,7.5-3.479
	c0.777-3.121-1.044-5.563-5.009-6.685c3.039,0.754,5.689-0.485,6.312-2.98c0.729-2.913-1.054-5.346-4.592-6.229l-10.153-2.533
	l-0.387,1.541l3.122,0.778l-4.025,16.151l-3.122-0.781l-0.384,1.542L134.637,320.798L134.637,320.798L134.637,320.798z
	 M132.466,310.531l2.997,0.748c2.748,0.685,3.789,2.359,3.146,4.938c-0.592,2.374-2.309,3.226-5.056,2.545l-2.954-0.74
	L132.466,310.531L132.466,310.531L132.466,310.531z M134.563,302.125l2.954,0.734c2.04,0.508,2.832,1.943,2.313,4.027
	c-0.531,2.122-2.205,3.162-4.285,2.644l-2.664-0.664L134.563,302.125L134.563,302.125"/>
<polyline fill="#1B3F73" points="171.812,320.791 170.226,320.734 170.147,323.009 162.858,322.755 163.12,315.25 168.607,315.442 
	168.534,317.586 170.119,317.643 170.327,311.682 168.74,311.668 168.669,313.728 163.18,313.533 163.43,306.376 170.462,306.621 
	170.383,308.853 171.928,308.903 172.095,304.103 170.508,304.045 170.478,304.905 157.017,304.436 156.961,306.022 
	160.176,306.134 159.597,322.766 156.382,322.655 156.326,324.242 171.673,324.777 171.812,320.791 171.812,320.791 "/>
<path fill-rule="evenodd" clip-rule="evenodd" fill="#1B3F73" d="M206.317,319.256l-1.187,0.188
	c-0.932,0.151-1.818-0.23-2.707-1.177l-4.852-5.138c2.716-0.951,4.123-3.302,3.674-6.14c-0.545-3.434-3.035-4.907-7.144-4.255
	l-10.001,1.585l0.27,1.692l3.177-0.502l2.584,16.313l-3.178,0.501l0.249,1.567l9.575-1.517l-0.248-1.566l-3.178,0.502l-1.112-7.032
	l2.074-0.329l5.613,6.102c1.315,1.444,1.681,1.561,3.545,1.265l3.093-0.49L206.317,319.256L206.317,319.256L206.317,319.256z
	 M190.77,305l2.964-0.471c2.203-0.348,3.599,0.775,3.975,3.148c0.368,2.332-0.697,4.106-2.729,4.428l-3.008,0.477L190.77,305
	L190.77,305"/>
<polyline fill="#1B3F73" points="232.448,306.989 231.008,307.545 231.944,309.986 225.218,312.57 219.347,297.272 222.349,296.118 
	221.733,294.517 212.682,297.993 213.298,299.592 216.3,298.44 222.222,313.859 219.217,315.013 219.785,316.494 234.002,311.035 
	232.448,306.989 232.448,306.989 "/>
<polyline fill="#1B3F73" points="252.331,299.056 249.573,300.712 241.067,286.556 243.825,284.9 242.942,283.43 234.633,288.422 
	235.517,289.893 238.274,288.234 246.779,302.39 244.021,304.049 244.839,305.41 253.149,300.415 252.331,299.056 252.331,299.056 
	"/>
<polyline fill="#1B3F73" points="268.694,264.834 271.045,262.64 269.875,261.384 263.568,267.265 264.742,268.519 267.127,266.297 
	275.49,275.269 257.14,273.263 253.091,277.036 254.262,278.292 256.459,276.243 257.845,276.475 268.35,287.735 265.995,289.933 
	267.08,291.092 273.384,285.211 272.302,284.051 269.917,286.274 261.286,277.019 280.333,279.201 281.274,278.324 268.694,264.834 
	268.694,264.834 "/>
<path fill="#1B3F73" d="M288.127,253.499c-1.111-0.809-2.729-0.552-3.537,0.562c-0.829,1.144-0.549,2.728,0.562,3.533
	c1.146,0.832,2.702,0.585,3.537-0.559C289.495,255.925,289.271,254.332,288.127,253.499L288.127,253.499"/>
<polyline fill="#1B3F73" points="38.708,213.898 40.019,216.836 24.813,223.606 23.503,220.665 22.052,221.313 25.997,230.168 
	27.447,229.524 26.156,226.624 32.856,223.641 37.621,234.337 30.918,237.321 29.61,234.383 28.16,235.027 32.104,243.883 
	33.555,243.239 32.244,240.302 47.449,233.528 48.76,236.472 50.21,235.821 46.266,226.966 44.815,227.613 46.124,230.554 
	39.188,233.642 34.426,222.942 41.362,219.854 42.652,222.755 44.102,222.107 40.158,213.252 38.708,213.898 38.708,213.898 "/>
<path fill="#1B3F73" d="M13.999,182.039l1.349,8.52l1.696-0.271l-0.502-3.177l10.59-1.679c3.431-0.544,6.252,1.356,6.755,4.534
	c0.49,3.094-1.554,5.545-5.028,6.094l-10.634,1.685l-0.51-3.221l-1.697,0.269l1.523,9.62l1.697-0.271l-0.511-3.221l11.523-1.826
	c3.985-0.63,6.385-4.396,5.666-8.93c-0.765-4.83-4.424-7.64-9.001-6.916l-10.717,1.701l-0.502-3.178L13.999,182.039L13.999,182.039"
	/>
<polyline fill="#1B3F73" points="34.804,140.33 34.411,143.523 18.02,141.511 18.411,138.316 16.709,138.108 15.893,144.75 
	29.443,153.372 14.225,158.331 13.44,164.719 15.145,164.927 15.536,161.735 31.929,163.747 31.536,166.941 33.113,167.134 
	34.162,158.576 32.587,158.382 32.196,161.575 18.827,159.934 34.942,154.695 19.795,145.014 34.014,146.759 33.623,149.953 
	35.198,150.146 36.379,140.523 34.804,140.33 34.804,140.33 "/>
<path fill-rule="evenodd" clip-rule="evenodd" fill="#1B3F73" d="M43.925,117.722c1.46-3.807,0.543-6.685-2.54-7.867
	c-3.005-1.154-5.651,0.357-7.249,4.154c1.123-2.922,0.217-5.706-2.186-6.628c-2.804-1.077-5.435,0.394-6.743,3.8l-3.751,9.77
	l1.481,0.568l1.155-3.001l15.538,5.963l-1.153,3.004l1.481,0.569L43.925,117.722L43.925,117.722L43.925,117.722z M33.469,118.623
	l1.107-2.882c1.017-2.645,2.804-3.474,5.288-2.52c2.281,0.876,2.921,2.682,1.905,5.326l-1.09,2.844L33.469,118.623L33.469,118.623
	L33.469,118.623z M25.38,115.517l1.092-2.841c0.751-1.963,2.272-2.573,4.277-1.806c2.041,0.784,2.869,2.572,2.102,4.576
	l-0.985,2.563L25.38,115.517L25.38,115.517"/>
<path fill-rule="evenodd" clip-rule="evenodd" fill="#1B3F73" d="M57.752,93.389c3.101-4.43,1.801-11.099-2.801-14.321
	c-4.534-3.176-11.21-2.091-14.311,2.339c-3.149,4.498-1.92,11.118,2.646,14.316C47.927,98.971,54.604,97.887,57.752,93.389
	L57.752,93.389L57.752,93.389z M42.091,82.474c2.067-2.951,6.867-3.148,10.804-0.394c3.969,2.779,5.45,7.324,3.357,10.311
	c-2.064,2.952-6.877,3.091-10.847,0.31C41.503,89.971,40.025,85.427,42.091,82.474L42.091,82.474"/>
<polyline fill="#1B3F73" points="79.114,62.007 78.002,63.082 79.821,64.962 74.637,69.968 63.254,58.182 65.568,55.945 
	64.376,54.712 57.403,61.448 58.594,62.681 60.907,60.444 72.382,72.324 70.065,74.561 71.17,75.703 82.124,65.125 79.114,62.007 
	79.114,62.007 "/>
<path fill-rule="evenodd" clip-rule="evenodd" fill="#1B3F73" d="M89.301,59.394l8.623-5.391c5.019-3.137,6.552-9.103,3.55-13.903
	c-2.931-4.691-9.107-5.995-14.054-2.902l-8.623,5.389l0.843,1.344l2.728-1.703l8.82,14.114l-2.727,1.706L89.301,59.394
	L89.301,59.394L89.301,59.394z M93.885,54.504L85.2,40.607l2.874-1.794c3.348-2.091,7.84-0.65,10.294,3.277
	c2.456,3.929,1.737,8.528-1.646,10.642L93.885,54.504L93.885,54.504"/>
<polyline fill="#1B3F73" points="128.666,38.202 125.22,39.387 119.843,23.771 125.763,21.731 126.545,24.004 128.046,23.487 
	126.426,18.782 124.925,19.3 125.205,20.108 110.279,25.25 110,24.438 108.539,24.943 110.16,29.645 111.62,29.143 110.838,26.873 
	116.76,24.834 122.137,40.448 118.688,41.637 119.206,43.138 129.184,39.699 128.666,38.202 128.666,38.202 "/>
<polyline fill="#1B3F73" points="146.437,23.858 138.393,25.424 139.016,28.623 147.059,27.063 146.437,23.858 146.437,23.858 "/>
<path fill="#1B3F73" d="M182.605,13.997l-8.618-0.148l-0.03,1.716l3.217,0.055l-0.187,10.725c-0.062,3.475-2.421,5.919-5.64,5.865
	c-3.128-0.055-5.188-2.492-5.127-6.011l0.188-10.766l3.258,0.057l0.031-1.713l-9.735-0.172l-0.03,1.713l3.258,0.06l-0.203,11.664
	c-0.071,4.034,3.223,7.051,7.812,7.131c4.889,0.086,8.29-3.032,8.371-7.664l0.189-10.85l3.216,0.057L182.605,13.997L182.605,13.997"
	/>
<polyline fill="#1B3F73" points="217.676,22.79 220.781,23.625 221.226,21.968 212.898,19.736 212.453,21.394 215.603,22.236 
	212.428,34.087 204.402,17.461 199.059,16.028 198.614,17.685 201.515,18.462 202.054,19.76 198.068,34.635 194.959,33.804 
	194.551,35.337 202.879,37.57 203.29,36.035 200.142,35.192 203.414,22.969 211.659,40.276 212.9,40.609 217.676,22.79 
	217.676,22.79 "/>
<polyline fill="#1B3F73" points="236.747,49.374 233.906,47.862 241.66,33.283 244.501,34.792 245.306,33.278 236.747,28.727 
	235.939,30.241 238.782,31.752 231.029,46.333 228.187,44.823 227.443,46.224 236.004,50.775 236.747,49.374 236.747,49.374 "/>
<polyline fill="#1B3F73" points="268.746,51.101 270.185,52.185 271.22,50.814 266.252,47.071 265.218,48.442 267.171,49.912 
	254.876,57.245 258.436,43.33 260.593,44.958 261.624,43.587 254.979,38.578 253.946,39.949 255.625,41.213 250.588,60.728 
	251.409,61.35 268.746,51.101 268.746,51.101 "/>
<polyline fill="#1B3F73" points="279.755,82.458 278.694,81.28 277.003,82.801 272.122,77.382 277.704,72.358 281.375,76.438 
	279.784,77.874 280.846,79.052 285.276,75.063 284.183,73.913 282.652,75.292 278.978,71.208 284.301,66.416 289.01,71.646 
	287.352,73.138 288.384,74.285 291.955,71.071 290.894,69.89 290.257,70.462 281.243,60.455 280.063,61.516 282.217,63.909 
	269.847,75.044 267.693,72.652 266.516,73.716 276.791,85.127 279.755,82.458 279.755,82.458 "/>
<path fill-rule="evenodd" clip-rule="evenodd" fill="#1B3F73" d="M294.968,111.79l-0.582-1.052c-0.457-0.826-0.4-1.788,0.183-2.944
	l3.167-6.319c1.824,2.228,4.516,2.746,7.027,1.354c3.041-1.687,3.574-4.531,1.555-8.17l-4.906-8.853l-1.502,0.831l1.562,2.814
	l-14.443,8.008l-1.564-2.814l-1.385,0.77l4.699,8.478l1.388-0.771l-1.56-2.813l6.228-3.451l1.021,1.838l-3.815,7.363
	c-0.907,1.729-0.89,2.112,0.022,3.763l1.521,2.738L294.968,111.79L294.968,111.79L294.968,111.79z M303.05,92.302l1.456,2.626
	c1.08,1.951,0.501,3.647-1.602,4.811c-2.063,1.145-4.096,0.751-5.095-1.049l-1.476-2.664L303.05,92.302L303.05,92.302"/>
<path fill="#1B3F73" d="M298.667,123.487c-0.381,1.882-0.349,3.497,0.153,5.047c1.101,3.388,4.246,5.16,7.308,4.167
	c2.653-0.863,3.639-2.265,4.455-6.41c0.214-1.016,0.467-2.182,0.734-3.441c0.363-1.651,0.79-2.286,1.854-2.631
	c1.669-0.543,3.144,0.376,3.765,2.294c0.359,1.102,0.391,1.904,0.054,3.774l-2.042,0.663l0.494,1.508l4.892-1.589l-0.488-1.511
	l-1.022,0.333c0.271-1.397,0.171-2.672-0.265-4.018c-1.062-3.264-4.222-5.08-7.16-4.125c-2.405,0.782-3.436,2.471-4.068,6.643
	c-0.61,3.942-1.313,5.39-2.861,5.892c-1.594,0.519-3.21-0.578-3.873-2.621c-0.453-1.386-0.456-2.646-0.009-4.597l2.122-0.691
	l-0.489-1.508l-5.099,1.656l0.488,1.511L298.667,123.487L298.667,123.487"/>
<polyline fill="#1B3F73" points="306.657,155.34 306.209,152.152 322.562,149.854 323.012,153.041 324.71,152.803 323.363,143.203 
	321.659,143.441 322.109,146.626 305.753,148.924 305.307,145.74 303.736,145.96 305.083,155.561 306.657,155.34 306.657,155.34 "/>
<polyline fill="#1B3F73" points="307.013,180.349 307.14,176.705 323.646,177.283 323.428,183.544 321.025,183.458 320.972,185.045 
	325.944,185.219 326,183.632 325.142,183.604 325.692,167.828 326.549,167.858 326.605,166.314 321.63,166.139 321.576,167.683 
	323.979,167.767 323.76,174.023 307.254,173.451 307.382,169.807 305.795,169.749 305.426,180.295 307.013,180.349 307.013,180.349 
	"/>
<path fill-rule="evenodd" clip-rule="evenodd" fill="#1B3F73" d="M300.771,212.437l0.444-1.79l20.223-3.094l0.27-1.08l-16.32-12.557
	l0.395-1.582l-1.539-0.385l-1.454,5.827l1.54,0.382l0.582-2.328l4.047,3.086l-1.885,7.576l-5.007,0.741l0.457-1.832l-1.54-0.382
	l-1.744,6.99L300.771,212.437L300.771,212.437L300.771,212.437z M324.721,214.075c1.164,0.294,2.36-0.427,2.641-1.553
	c0.293-1.166-0.425-2.359-1.594-2.65c-1.122-0.279-2.319,0.439-2.607,1.604C322.879,212.599,323.597,213.796,324.721,214.075
	L324.721,214.075L324.721,214.075z M326.556,206.707c1.165,0.293,2.362-0.426,2.646-1.551c0.288-1.162-0.429-2.359-1.597-2.652
	c-1.121-0.28-2.316,0.438-2.608,1.606C324.715,205.233,325.436,206.427,326.556,206.707L326.556,206.707L326.556,206.707z
	 M310.407,200.028l6.538,4.991l-8.086,1.211L310.407,200.028L310.407,200.028"/>
<polyline fill="#1B3F73" points="291.852,233.206 293.391,229.903 308.358,236.882 305.712,242.558 303.536,241.544 
	302.867,242.982 307.373,245.086 308.045,243.646 307.267,243.285 313.938,228.975 314.715,229.339 315.369,227.94 310.858,225.838 
	310.205,227.236 312.386,228.251 309.738,233.927 294.769,226.949 296.311,223.644 294.873,222.971 290.413,232.536 
	291.852,233.206 291.852,233.206 "/>
</svg>
