<?xml version="1.0" encoding="UTF-8" standalone="no"?>
<!-- Created with Inkscape (http://www.inkscape.org/) -->
<svg
   xmlns:dc="http://purl.org/dc/elements/1.1/"
   xmlns:cc="http://creativecommons.org/ns#"
   xmlns:rdf="http://www.w3.org/1999/02/22-rdf-syntax-ns#"
   xmlns:svg="http://www.w3.org/2000/svg"
   xmlns="http://www.w3.org/2000/svg"
   xmlns:sodipodi="http://sodipodi.sourceforge.net/DTD/sodipodi-0.dtd"
   xmlns:inkscape="http://www.inkscape.org/namespaces/inkscape"
   id="svg2816"
   version="1.1"
   inkscape:version="0.46"
   width="5906"
   height="4395"
   sodipodi:docname="TUBerlin_Logo_rot.svg"
   sodipodi:version="0.32"
   inkscape:output_extension="org.inkscape.output.svg.inkscape">
  <metadata
     id="metadata2822">
    <rdf:RDF>
      <cc:Work
         rdf:about="">
        <dc:format>image/svg+xml</dc:format>
        <dc:type
           rdf:resource="http://purl.org/dc/dcmitype/StillImage" />
        <dc:title>TU Berlin, Logo im Aperto-Design</dc:title>
        <dc:description>erstellt als Service am
Institut für Berufliche Bildung und Arbeitslehre
Fachgebiet Arbeitslehre Technik
Markus Glugla</dc:description>
      </cc:Work>
    </rdf:RDF>
  </metadata>
  <defs
     id="defs2820">
    <inkscape:perspective
       sodipodi:type="inkscape:persp3d"
       inkscape:vp_x="0 : 0.5 : 1"
       inkscape:vp_y="0 : 1000 : 0"
       inkscape:vp_z="1 : 0.5 : 1"
       inkscape:persp3d-origin="0.5 : 0.33333333 : 1"
       id="perspective2824" />
  </defs>
  <sodipodi:namedview
     pagecolor="#ffffff"
     bordercolor="#666666"
     borderopacity="1"
     objecttolerance="10"
     gridtolerance="10"
     guidetolerance="10"
     inkscape:pageopacity="0"
     inkscape:pageshadow="2"
     inkscape:window-width="1024"
     inkscape:window-height="719"
     id="namedview2818"
     showgrid="false"
     inkscape:zoom="0.053697383"
     inkscape:cx="7943.9322"
     inkscape:cy="2197.5"
     inkscape:window-x="4"
     inkscape:window-y="27"
     inkscape:window-maximized="1"
     inkscape:current-layer="svg2816" />
  <path
     id="path2830"
     d="m 4142.2858,4390.1437 c 0.3453,-2.671 87.6721,-908.8012 194.0596,-2013.6227 106.3875,-1104.8215 193.7054,-2009.20905 194.0397,-2009.74995 0.3976,-0.6433 238.4684,-0.9837 688.0491,-0.9837 l 687.441,0 0,2.9989 c 0,1.6493 -57.159,596.3742 -127.02,1321.61075 -69.861,725.2365 -127.46,1326.5495 -127.998,1336.2511 -1.241,22.3881 -2.647,41.3617 -4.566,61.6393 -20.335,214.7729 -88.093,420.6899 -199.327,605.7556 -111.215,185.0323 -260.844,341.3295 -441.5892,461.2683 -199.543,132.4126 -424.5601,211.6278 -664.5,233.9312 -43.6043,4.0532 -61.5159,4.7769 -130.3585,5.2671 l -68.8584,0.4904 0.6277,-4.8563 z M 5284.3752,2842.7425 c 83.498,-4.5466 153.356,-28.8674 208.5,-72.5883 13.131,-10.4114 36.538,-34.4647 46.58,-47.8668 34.631,-46.2164 53.749,-100.2602 56.07,-158.5 2.663,-66.7973 -24.618,-129.5552 -75.1,-172.7667 -52.763,-45.1631 -127.948,-69.2513 -216.05,-69.2189 -96.778,0.036 -195.148,38.015 -258.8085,99.9228 -29.3202,28.513 -48.4554,57.7974 -59.3112,90.7692 -7.0978,21.5582 -8.8017,32.9296 -8.8096,58.7936 -0.01,30.8308 2.7316,41.9657 17.6003,71.5 4.8456,9.625 8.8144,18.0625 8.8195,18.75 0.01,0.9929 -23.9406,1.25 -116.4317,1.25 -92.0636,0 -116.6068,0.2617 -117.2332,1.25 -0.9109,1.4372 -15.3699,177.8639 -14.6699,179 0.7333,1.1901 506.7533,0.908 528.8443,-0.2949 z m -20.255,-180.9748 c -34.417,-3.5399 -61.654,-21.6477 -70.362,-46.7787 -5.984,-17.2707 -3.614,-38.1432 6.24,-54.9426 4.866,-8.297 18.88,-21.8048 28.687,-27.6511 10.027,-5.9778 23.536,-11.17 36.19,-13.9104 13.715,-2.9702 38.727,-2.9185 51.864,0.1071 29.407,6.7725 50.304,23.3562 58.21,46.1954 2.924,8.4464 3.206,25.2315 0.587,35 -9.48,35.369 -46.373,60.1898 -92.661,62.3413 -5.775,0.2684 -14.215,0.106 -18.755,-0.361 z m 106.255,-369.3877 c 50.136,-7.1679 94.866,-22.1914 133.158,-44.7233 80.736,-47.5065 131.093,-120.2758 141.771,-204.8693 3.467,-27.4674 3.714,-66.7378 0.562,-89.5 -3.643,-26.3153 -12.689,-53.9683 -26.978,-82.474 -5.517,-11.0054 -24.308,-44.5888 -25.879,-46.2519 -0.838,-0.8868 -213.967,12.7173 -214.941,13.7199 -0.381,0.3922 1.332,2.3463 3.807,4.3426 37.896,30.5656 66.513,80.5858 74.467,130.1634 2.935,18.2918 1.513,40.194 -3.939,60.6787 -3.051,11.4638 -8.27,22.5177 -10.434,22.101 -0.852,-0.1642 -47.347,-56.3192 -103.322,-124.7891 -55.976,-68.4698 -102.191,-124.63 -102.702,-124.8004 -1.664,-0.5549 -34.177,12.8497 -48.169,19.8595 -36.341,18.2051 -61.292,36.0305 -87.9401,62.8256 -23.114,23.2417 -37.064,42.7225 -50.5738,70.6247 -16.6277,34.3417 -23.8985,66.5351 -23.8271,105.5 0.033,17.8613 0.4281,23.7001 2.336,34.5 12.5078,70.8031 55.6572,125.7847 125.604,160.0464 37.932,18.58 78.069,29.2411 128,33.9988 19.028,1.8131 73.752,1.2273 89,-0.9526 z m -95,-173.1765 c -31.836,-4.9175 -59.32,-22.1086 -70.047,-43.8137 -5.321,-10.7667 -7.103,-21.4135 -5.694,-34.0247 2.109,-18.8662 8.312,-32.9328 19.201,-43.5391 5.711,-5.5627 13.944,-11.2189 15.749,-10.8198 1.661,0.3673 102.291,123.7481 102.291,125.4177 0,1.78 -14.139,6.0678 -24.146,7.3225 -11.05,1.3855 -26.305,1.1638 -37.354,-0.5429 z m 392.136,-364.6363 c 1.072,-1.7345 17.32,-171.1282 16.498,-172.0021 -0.373,-0.3973 -69.519,-0.8557 -153.657,-1.0187 -170.728,-0.3308 -159.757,0.1136 -182.477,-7.3924 -28.41,-9.3858 -45.957,-26.2373 -52.025,-49.9626 -2.422,-9.4708 -2.545,-20.9885 -0.418,-39.2649 0.855,-7.3484 1.417,-13.4766 1.249,-13.6182 -0.169,-0.1415 -48.906,-0.4291 -108.306,-0.6391 l -108.0002,-0.3818 -0.301,12 c -1.3409,53.4596 28.9182,89.7134 87.1542,104.4211 22.419,5.6621 20.064,6.0789 -34.353,6.0789 -36.081,0 -47.0577,0.2841 -47.6442,1.2329 -0.8846,1.4314 -14.352,159.8954 -13.6844,161.0171 0.2455,0.4125 134.2686,0.75 297.8286,0.75 232.954,0 297.545,-0.2644 298.136,-1.2202 z m 31.883,-328.0298 c 0.875,-2.3975 16.59,-169.0224 16.069,-170.3808 -0.444,-1.1559 -64.401,-1.3692 -410.498,-1.3692 -299.7764,0 -410.1569,0.2989 -410.6595,1.1121 -0.8288,1.3411 -17.3215,170.0677 -16.7284,171.1379 0.2287,0.4125 185.1283,0.75 410.8879,0.75 327.468,0 410.565,-0.2528 410.929,-1.25 z m -622.1218,-232.5841 c 0.8539,-1.3816 17.7548,-170.3268 17.1871,-171.8062 -0.4409,-1.149 -15.4889,-1.3289 -93.2655,-1.1149 l -92.7398,0.2552 -8.7573,85.5 c -4.8166,47.025 -8.561,86.0625 -8.321,86.75 0.3448,0.9878 19.8302,1.25 92.9087,1.25 50.8598,0 92.7043,-0.3753 92.9878,-0.8341 z m 652.7808,-85.1659 c 4.795,-47.025 8.53,-86.0633 8.301,-86.7517 -0.334,-0.9992 -59.973,-1.2009 -295.699,-1 l -295.28,0.2517 -8.715,85.5 c -4.793,47.025 -8.519,86.0633 -8.28,86.7517 0.346,0.9992 59.992,1.2009 295.694,1 l 295.26,-0.2517 8.719,-85.5 z m 15.34,-167.25005 c 0.421,-1.1574 17.249,-163.9336 17.755,-171.75 l 0.227,-3.5 -185,-0.5513 c -200.595,-0.5979 -187.585,-0.2293 -203.523,-5.7659 -14.351,-4.9855 -24.837,-13.1258 -29.722,-23.0733 -2.523,-5.1364 -2.755,-6.5813 -2.755,-17.132 0,-10.9672 0.156,-11.8389 3.233,-18.0894 5.657,-11.4882 15.935,-19.3369 32.767,-25.0233 l 7,-2.3648 193.494,-0.5 193.495,-0.5 8.321,-86.8569 c 4.577,-47.7713 8.081,-87.4838 7.787,-88.25 -0.454,-1.1841 -29.223,-1.3899 -191.816,-1.3722 -105.205,0.011 -201.406,0.4462 -213.781,0.9661 -12.375,0.5199 -29.543,1.8526 -38.15,2.9614 -86.709,11.1703 -147.524,47.9634 -167.662,101.4353 -15.872,42.1437 -6.156,87.4027 27.397,127.6163 10.698,12.8225 25.198,26.0245 38.513,35.0667 4.677,3.1764 5.951,4.5732 5.711,6.2609 l -0.309,2.1724 -39,0.5 -39,0.5 -0.367,2.5 c -1.233,8.4103 -16.764,164.6381 -16.427,165.25 0.226,0.4125 133.374,0.75 295.884,0.75 235.469,0 295.565,-0.2538 295.928,-1.25 z M 3978.875,4380.2048 c -0.825,-0.1928 -13.875,-2.6409 -29,-5.4402 -126.0378,-23.3266 -255.2359,-57.3532 -364.5,-95.9978 -203.7097,-72.0481 -368.0805,-164.966 -501.6718,-283.5924 -19.5401,-17.3513 -70.3733,-68.4402 -86.9494,-87.387 -105.6342,-120.7418 -174.5966,-251.4656 -213.391,-404.5 -16.6787,-65.7935 -26.2035,-128.1522 -31.6942,-207.5 -1.656,-23.9324 -1.6694,-125.8678 -0.02,-150 0.658,-9.625 1.9236,-27.625 2.8124,-40 0.8888,-12.375 38.9399,-410.8277 84.5581,-885.4505 45.6181,-474.6227 82.8101,-863.8727 82.6488,-865 l -0.2933,-2.0495 -1147,-0.5265 c -1086.36479,-0.4987 -1147.84579,-0.6197 -1162.99999,-2.2877 -88.5017,-9.7412 -163.9249,-31.4286 -238,-68.435 -101.1313,-50.5233 -189.1509,-126.9708 -254.1664,-220.7508 C 56.393813,970.68215 16.081113,863.51895 3.9090129,754.78735 c -3.563,-31.827 -4.2967,-49.3365 -3.7437,-89.3346 0.6521,-47.1606 3.02,-72.3232 10.7436001,-114.1654 44.5331,-241.2554 220.089697,-441.6382 454.142097,-518.363959 46.9183,-15.38048 90.9469,-24.6350602 146.824,-30.8615902 14.604,-1.62735995 104.063,-1.74587995 1547.49999,-2.05030995 1095.4897,-0.23104 1536.7013,-0.0134 1548.5,0.76386005 148.9143,9.8099601 286.4388,66.4318001 400.4878,164.8895991 14.3371,12.3772 44.8183,42.4541 58.397,57.6224 41.97,46.8836 74.5816,94.6838 101.9963,149.5 40.8722,81.7249 62.4752,160.4457 70.2527,256 1.693,20.7996 1.4307,78.5453 -0.4541,100 -0.8456,9.625 -80.0944,834.56235 -176.1086,1833.19405 -96.0141,998.6317 -174.5711,1816.3942 -174.5711,1817.25 0,1.152 -0.9736,1.5259 -3.75,1.44 -2.0625,-0.064 -4.425,-0.2738 -5.25,-0.4666 z M 1133.2199,4031.2437 c -0.6321,-1.6472 242.2823,-2527.0441 243.2186,-2528.559 0.3264,-0.5282 254.5748,-0.8973 617.9955,-0.8973 l 617.441,0 0,3.2962 c 0,5.6287 -242.8688,2525.6824 -243.5114,2526.7223 -0.3957,0.6403 -215.1039,0.9815 -617.579,0.9815 -555.2567,0 -617.0316,-0.1544 -617.5647,-1.5437 z"
     style="fill:#990000" />
</svg>
