<?xml version="1.0" encoding="UTF-8" standalone="no"?>
<!-- Created with Inkscape (http://www.inkscape.org/) -->

<svg
   xmlns:dc="http://purl.org/dc/elements/1.1/"
   xmlns:cc="http://creativecommons.org/ns#"
   xmlns:rdf="http://www.w3.org/1999/02/22-rdf-syntax-ns#"
   xmlns:svg="http://www.w3.org/2000/svg"
   xmlns="http://www.w3.org/2000/svg"
   xmlns:sodipodi="http://sodipodi.sourceforge.net/DTD/sodipodi-0.dtd"
   xmlns:inkscape="http://www.inkscape.org/namespaces/inkscape"
   width="268.74609"
   height="199.99994"
   id="svg15768"
   version="1.1"
   inkscape:version="0.48.1 r9760"
   sodipodi:docname="tu_logo.pdf">
  <defs
     id="defs15770" />
  <sodipodi:namedview
     id="base"
     pagecolor="#ffffff"
     bordercolor="#666666"
     borderopacity="1.0"
     inkscape:pageopacity="0.0"
     inkscape:pageshadow="2"
     inkscape:zoom="0.7"
     inkscape:cx="197.46716"
     inkscape:cy="97.421535"
     inkscape:document-units="px"
     inkscape:current-layer="layer1"
     showgrid="false"
     fit-margin-top="0"
     fit-margin-left="0"
     fit-margin-right="0"
     fit-margin-bottom="0"
     inkscape:window-width="1920"
     inkscape:window-height="1150"
     inkscape:window-x="1400"
     inkscape:window-y="0"
     inkscape:window-maximized="1" />
  <metadata
     id="metadata15773">
    <rdf:RDF>
      <cc:Work
         rdf:about="">
        <dc:format>image/svg+xml</dc:format>
        <dc:type
           rdf:resource="http://purl.org/dc/dcmitype/StillImage" />
        <dc:title></dc:title>
      </cc:Work>
    </rdf:RDF>
  </metadata>
  <g
     inkscape:label="Layer 1"
     inkscape:groupmode="layer"
     id="layer1"
     transform="translate(-211.34123,-186.64793)">
    <path
       style="fill:#990000;display:inline"
       d="m 399.83523,386.42568 c 0.018,-0.12126 3.9896,-41.3549 8.8308,-91.62967 4.841,-50.27489 8.8145,-91.42879 8.8298,-91.45354 0.019,-0.03 10.8514,-0.0438 31.3096,-0.0438 l 31.2819,0 0,0.1365 c 0,0.0738 -2.6011,27.13802 -5.7801,60.13978 -3.1789,33.00176 -5.8,60.36452 -5.8244,60.8059 -0.057,1.01887 -0.12,1.88225 -0.2078,2.805 -0.9254,9.77326 -4.0087,19.14351 -9.0706,27.56489 -5.0606,8.41988 -11.8695,15.53201 -20.0943,20.98987 -9.0802,6.02539 -19.3196,9.63014 -30.238,10.64502 -1.9841,0.18449 -2.7993,0.21737 -5.932,0.23974 l -3.1334,0.0225 0.029,-0.221 z m 51.9709,-70.41416 c 3.7994,-0.207 6.9783,-1.31362 9.4876,-3.30326 0.5976,-0.47362 1.6627,-1.56824 2.1196,-2.17812 1.576,-2.10313 2.4459,-4.56237 2.5517,-7.2125 0.1212,-3.03976 -1.1205,-5.8955 -3.4177,-7.86175 -2.401,-2.05525 -5.8222,-3.15138 -9.831,-3.14989 -4.4039,0 -8.8804,1.72988 -11.7772,4.54689 -1.3342,1.29762 -2.2051,2.63024 -2.699,4.1305 -0.3231,0.981 -0.4005,1.49862 -0.4008,2.6755 -4e-4,1.40288 0.1237,1.9095 0.8008,3.25362 0.2206,0.43788 0.4012,0.82201 0.4014,0.85325 4e-4,0.0438 -1.0895,0.0575 -5.2983,0.0575 -4.1893,0 -5.3062,0.0125 -5.3347,0.0575 -0.041,0.0662 -0.6995,8.09375 -0.6675,8.1455 0.034,0.055 23.0599,0.0413 24.0651,-0.0125 z m -0.9217,-8.23538 c -1.5662,-0.16113 -2.8056,-0.98499 -3.202,-2.12863 -0.2722,-0.78587 -0.1644,-1.73562 0.284,-2.50012 0.2215,-0.37762 0.8591,-0.99238 1.3055,-1.25838 0.4563,-0.27188 1.071,-0.50825 1.6467,-0.63288 0.6242,-0.13525 1.7624,-0.13287 2.3602,0 1.3379,0.30813 2.289,1.06276 2.6487,2.102 0.133,0.38438 0.1459,1.14838 0.027,1.59289 -0.4314,1.60937 -2.1101,2.73886 -4.2164,2.83674 -0.2628,0.0125 -0.6469,0 -0.8536,-0.0162 z m 4.835,-16.80901 c 2.2815,-0.32625 4.3169,-1.00975 6.0592,-2.03512 3.6741,-2.16175 5.9656,-5.47313 6.4515,-9.3225 0.1577,-1.25 0.169,-3.03689 0.026,-4.07264 -0.1659,-1.1975 -0.5774,-2.45587 -1.2277,-3.75287 -0.2511,-0.50088 -1.1061,-2.02913 -1.1776,-2.10475 -0.039,-0.0413 -9.7365,0.57862 -9.781,0.62425 -0.016,0.0162 0.062,0.10625 0.1733,0.19775 1.7244,1.39075 3.0267,3.667 3.3885,5.92288 0.1337,0.83237 0.069,1.829 -0.179,2.76125 -0.1389,0.5215 -0.3765,1.02462 -0.4749,1.00562 -0.038,-0.0125 -2.1545,-2.56275 -4.7016,-5.67838 -2.5472,-3.11575 -4.65,-5.67137 -4.6735,-5.67912 -0.075,-0.0251 -1.5552,0.58475 -2.1918,0.90375 -1.6538,0.82838 -2.7892,1.63962 -4.0017,2.85875 -1.0518,1.05775 -1.6867,1.94425 -2.3014,3.21375 -0.7567,1.56275 -1.0875,3.02776 -1.0843,4.80088 0,0.81275 0.02,1.07838 0.1062,1.56987 0.5693,3.22188 2.5328,5.72376 5.7158,7.28288 1.7261,0.8455 3.5525,1.33075 5.8245,1.54712 0.866,0.0813 3.356,0.0562 4.0498,-0.0425 z m -4.323,-7.88038 c -1.4486,-0.22375 -2.6994,-1.006 -3.1874,-1.99374 -0.2423,-0.48988 -0.3231,-0.97438 -0.2591,-1.54838 0.096,-0.8585 0.3783,-1.4985 0.8738,-1.98112 0.26,-0.25313 0.6345,-0.51064 0.7165,-0.49238 0.075,0.0162 4.6548,5.63112 4.6548,5.70725 0,0.08 -0.6435,0.276 -1.0987,0.33312 -0.5028,0.0638 -1.1969,0.0525 -1.6999,-0.0249 z m 17.8441,-16.59263 c 0.048,-0.0787 0.7881,-7.78725 0.7507,-7.827 -0.018,-0.0175 -3.1634,-0.0387 -6.9921,-0.045 -7.7689,-0.015 -7.2698,0 -8.3035,-0.33638 -1.2928,-0.42713 -2.0912,-1.194 -2.3674,-2.27349 -0.11,-0.431 -0.115,-0.95513 -0.018,-1.78675 0.038,-0.33451 0.065,-0.61338 0.057,-0.61975 -0.013,-0.0125 -2.2254,-0.0187 -4.9284,-0.0287 l -4.9147,-0.0162 -0.014,0.54613 c -0.062,2.43262 1.316,4.08237 3.966,4.75162 1.0203,0.25775 0.913,0.27662 -1.5634,0.27662 -1.6416,0 -2.1412,0.0125 -2.1679,0.0562 -0.041,0.0662 -0.6532,7.27613 -0.6227,7.32713 0.013,0.0175 6.1099,0.035 13.5525,0.035 10.6007,0 13.5399,-0.0125 13.5668,-0.0562 z m 1.451,-14.927 c 0.04,-0.10876 0.7548,-7.69151 0.7311,-7.75313 -0.02,-0.0513 -2.9305,-0.0625 -18.6795,-0.0625 -13.6415,0 -18.6642,0.0138 -18.6871,0.05 -0.038,0.0613 -0.7883,7.73913 -0.7613,7.78775 0.013,0.0175 8.4243,0.035 18.6974,0.035 14.9013,0 18.6827,-0.0125 18.6994,-0.0575 z m -28.3096,-10.58376 c 0.038,-0.0638 0.8079,-7.75063 0.7821,-7.81801 -0.02,-0.0525 -0.7049,-0.0613 -4.2441,-0.05 l -4.2203,0.0125 -0.3983,3.89076 c -0.2193,2.13987 -0.3897,3.91624 -0.3787,3.94749 0.015,0.0438 0.9022,0.0575 4.2278,0.0575 2.3144,0 4.2185,-0.0162 4.2315,-0.0387 z m 29.7047,-3.87537 c 0.2181,-2.14 0.3881,-3.91651 0.3777,-3.94776 -0.015,-0.045 -2.7291,-0.055 -13.4558,-0.045 l -13.4366,0.0125 -0.3965,3.89075 c -0.2182,2.13989 -0.3877,3.91638 -0.377,3.94775 0.016,0.045 2.73,0.055 13.4556,0.045 l 13.4358,-0.0125 0.3968,-3.89063 z m 0.6979,-7.61063 c 0.019,-0.0525 0.7849,-7.45988 0.8081,-7.81563 l 0.013,-0.15913 -8.4184,-0.025 c -9.128,-0.0275 -8.5362,-0.0125 -9.2615,-0.26238 -0.6529,-0.22687 -1.1301,-0.59737 -1.3523,-1.05 -0.1151,-0.23387 -0.1254,-0.29949 -0.1254,-0.77962 0,-0.499 0.013,-0.53863 0.147,-0.82312 0.2576,-0.52276 0.7252,-0.88 1.4912,-1.13864 l 0.3185,-0.10749 8.805,-0.0225 8.8049,-0.0225 0.3788,-3.95237 c 0.2082,-2.17401 0.3677,-3.98101 0.3542,-4.01589 -0.021,-0.0538 -1.3298,-0.0638 -8.7285,-0.0625 -4.7875,5e-4 -9.1651,0.02 -9.7281,0.0438 -0.5633,0.0238 -1.3443,0.0838 -1.7362,0.13475 -3.9455,0.5085 -6.7128,2.18263 -7.6292,4.61601 -0.7223,1.91749 -0.2801,3.977 1.2466,5.807 0.4869,0.58363 1.1466,1.18438 1.7525,1.59575 0.2128,0.1445 0.2709,0.20812 0.26,0.28488 l -0.014,0.0987 -1.7747,0.0225 -1.7747,0.0225 -0.016,0.11374 c -0.056,0.38263 -0.7629,7.49175 -0.7474,7.51963 0.013,0.0187 6.069,0.0351 13.464,0.0351 10.7151,0 13.4497,-0.0125 13.4663,-0.0575 z m -80.3851,156.47606 c -0.038,-0.0125 -0.6314,-0.12 -1.3197,-0.2475 -5.7353,-1.06162 -11.6144,-2.60987 -16.5866,-4.36837 -9.2697,-3.27863 -16.7494,-7.50675 -22.8285,-12.90489 -0.8893,-0.78962 -3.2024,-3.11437 -3.9566,-3.97637 -4.807,-5.49438 -7.9451,-11.44288 -9.7105,-18.40676 -0.7588,-2.99413 -1.1923,-5.83175 -1.4422,-9.4425 -0.075,-1.089 -0.075,-5.7275 0,-6.82563 0.03,-0.438 0.088,-1.25713 0.128,-1.82025 0.04,-0.56312 1.772,-18.69463 3.8478,-40.29226 2.0759,-21.59765 3.7683,-39.31053 3.761,-39.36191 l -0.014,-0.0937 -52.1942,-0.0238 c -49.435,-0.0225 -52.2326,-0.0287 -52.9222,-0.10375 -4.0273,-0.44337 -7.4592,-1.43025 -10.8301,-3.11412 -4.6018,-2.29914 -8.6072,-5.77788 -11.5658,-10.04526 -2.8582,-4.123 -4.6927,-8.99938 -5.2467,-13.94725 -0.1622,-1.44838 -0.1955,-2.24513 -0.1704,-4.06526 0.03,-2.14588 0.1375,-3.291 0.4889,-5.195 2.0265,-10.97838 10.0152,-20.09676 20.6657,-23.58813 2.1349,-0.69975 4.1384,-1.121 6.6811,-1.40426 0.6646,-0.0738 4.7354,-0.0787 70.4191,-0.0937 49.8501,-0.0125 69.9274,-6.3e-4 70.4641,0.035 6.7765,0.4465 13.0346,3.02287 18.2242,7.50313 0.6524,0.56325 2.0395,1.93187 2.6574,2.62212 1.9097,2.1335 3.3939,4.30863 4.6413,6.80301 1.8598,3.71887 2.843,7.301 3.1968,11.64924 0.076,0.94663 0.065,3.57427 -0.021,4.55063 -0.039,0.43788 -3.6448,37.97665 -8.0138,83.41917 -4.3692,45.44277 -7.9439,82.65478 -7.9439,82.69391 0,0.0525 -0.044,0.0687 -0.1706,0.0662 -0.095,0 -0.2013,-0.0125 -0.2389,-0.0213 z m -129.4913,-15.87951 c -0.029,-0.0738 11.0251,-114.99279 11.0676,-115.06179 0.014,-0.0238 11.5844,-0.0413 28.1218,-0.0413 l 28.0967,0 0,0.15012 c 0,0.25613 -11.0518,114.9308 -11.081,114.9783 -0.018,0.0287 -9.7882,0.0438 -28.103,0.0438 -25.2668,0 -28.0779,-0.0125 -28.1021,-0.0713 z"
       id="path2830-4-7"
       inkscape:connector-curvature="0" />
  </g>
</svg>
