<?xml version="1.0" encoding="UTF-8" standalone="no"?>
<!-- Created with Inkscape (http://www.inkscape.org/) -->

<svg
   xmlns:dc="http://purl.org/dc/elements/1.1/"
   xmlns:cc="http://creativecommons.org/ns#"
   xmlns:rdf="http://www.w3.org/1999/02/22-rdf-syntax-ns#"
   xmlns:svg="http://www.w3.org/2000/svg"
   xmlns="http://www.w3.org/2000/svg"
   xmlns:xlink="http://www.w3.org/1999/xlink"
   xmlns:sodipodi="http://sodipodi.sourceforge.net/DTD/sodipodi-0.dtd"
   xmlns:inkscape="http://www.inkscape.org/namespaces/inkscape"
   width="427.52692"
   height="113.14175"
   id="svg5743"
   version="1.1"
   inkscape:version="0.48.1 r9760"
   sodipodi:docname="stratosphere_logo.svg">
  <defs
     id="defs5745">
    <linearGradient
       inkscape:collect="always"
       xlink:href="#linearGradient4985"
       id="linearGradient5230"
       gradientUnits="userSpaceOnUse"
       gradientTransform="matrix(0.83061455,0,0,0.78666667,-144.29273,75.490313)"
       x1="-19.861755"
       y1="634.53467"
       x2="-20.08514"
       y2="568.72498" />
    <linearGradient
       id="linearGradient4985">
      <stop
         style="stop-color:#2c5d99;stop-opacity:1;"
         offset="0"
         id="stop4987" />
      <stop
         style="stop-color:#3b7bcb;stop-opacity:1;"
         offset="1"
         id="stop4989" />
    </linearGradient>
    <linearGradient
       inkscape:collect="always"
       xlink:href="#linearGradient4985"
       id="linearGradient5829"
       gradientUnits="userSpaceOnUse"
       gradientTransform="matrix(0.83061455,0,0,0.78666667,-144.29273,75.490313)"
       x1="-19.861755"
       y1="634.53467"
       x2="-20.08514"
       y2="568.72498" />
  </defs>
  <sodipodi:namedview
     id="base"
     pagecolor="#ffffff"
     bordercolor="#666666"
     borderopacity="1.0"
     inkscape:pageopacity="0.0"
     inkscape:pageshadow="2"
     inkscape:zoom="1.979899"
     inkscape:cx="157.43852"
     inkscape:cy="37.385059"
     inkscape:document-units="px"
     inkscape:current-layer="g5200"
     showgrid="false"
     fit-margin-top="0"
     fit-margin-left="0"
     fit-margin-right="0"
     fit-margin-bottom="0"
     inkscape:window-width="1920"
     inkscape:window-height="1150"
     inkscape:window-x="1400"
     inkscape:window-y="0"
     inkscape:window-maximized="1" />
  <metadata
     id="metadata5748">
    <rdf:RDF>
      <cc:Work
         rdf:about="">
        <dc:format>image/svg+xml</dc:format>
        <dc:type
           rdf:resource="http://purl.org/dc/dcmitype/StillImage" />
        <dc:title />
      </cc:Work>
    </rdf:RDF>
  </metadata>
  <g
     inkscape:label="Layer 1"
     inkscape:groupmode="layer"
     id="layer1"
     transform="translate(-10.787317,-12.491365)">
    <g
       id="g5216"
       transform="matrix(1.1748883,0,0,1.1748883,689.42168,-243.89939)">
      <g
         transform="translate(-758.57143,-374.28571)"
         id="g5200">
        <g
           id="g4143"
           transform="matrix(0.85208373,0,0,0.76715892,74.876096,139.35915)">
          <g
             style="font-size:64px;font-style:italic;font-variant:normal;font-weight:bold;font-stretch:normal;text-align:center;line-height:125%;letter-spacing:0px;word-spacing:0px;text-anchor:middle;fill:#000000;fill-opacity:1;stroke:none;font-family:LMMathItalic10;-inkscape-font-specification:LMMathItalic10 Bold Italic"
             id="text4131">
            <path
               d="m 209.04494,610.0943 0,6.15625 c -2.39586,-1.14579 -4.65628,-1.99996 -6.78125,-2.5625 -2.12502,-0.56246 -4.1771,-0.84371 -6.15625,-0.84375 -3.43752,4e-5 -6.09376,0.66671 -7.96875,2 -1.85418,1.33337 -2.78126,3.2292 -2.78125,5.6875 -1e-5,2.06253 0.61457,3.62503 1.84375,4.6875 1.24999,1.04169 3.60415,1.88544 7.0625,2.53125 l 3.8125,0.78125 c 4.70831,0.89586 8.17705,2.47919 10.40625,4.75 2.24997,2.25002 3.37497,5.27085 3.375,9.0625 -3e-5,4.52084 -1.52087,7.94792 -4.5625,10.28125 -3.02086,2.33333 -7.45836,3.5 -13.3125,3.5 -2.20835,0 -4.56251,-0.25 -7.0625,-0.75 -2.47917,-0.5 -5.05209,-1.23958 -7.71875,-2.21875 l 0,-6.5 c 2.5625,1.43751 5.07291,2.52084 7.53125,3.25 2.45832,0.72917 4.87499,1.09375 7.25,1.09375 3.60415,0 6.38539,-0.70833 8.34375,-2.125 1.95831,-1.41666 2.93747,-3.43749 2.9375,-6.0625 -3e-5,-2.29165 -0.70836,-4.08332 -2.125,-5.375 -1.39586,-1.29165 -3.69794,-2.2604 -6.90625,-2.90625 l -3.84375,-0.75 c -4.70834,-0.93748 -8.11459,-2.40623 -10.21875,-4.40625 -2.10417,-1.99997 -3.15625,-4.78122 -3.15625,-8.34375 0,-4.12496 1.44791,-7.37496 4.34375,-9.75 2.91666,-2.37495 6.92707,-3.56245 12.03125,-3.5625 2.18748,5e-5 4.41664,0.19796 6.6875,0.59375 2.27081,0.39588 4.59372,0.98963 6.96875,1.78125"
               style="font-style:normal;font-weight:normal;letter-spacing:-3.71054292px;font-family:Lohit Bengali;-inkscape-font-specification:Lohit Bengali"
               id="path3085" />
            <path
               d="m 223.42815,610.2818 0,9.9375 11.84375,0 0,4.46875 -11.84375,0 0,19 c -10e-6,2.85417 0.3854,4.68751 1.15625,5.5 0.79165,0.8125 2.3854,1.21875 4.78125,1.21875 l 5.90625,0 0,4.8125 -5.90625,0 c -4.43752,0 -7.50001,-0.82292 -9.1875,-2.46875 -1.68751,-1.66666 -2.53126,-4.68749 -2.53125,-9.0625 l 0,-19 -4.21875,0 0,-4.46875 4.21875,0 0,-9.9375 5.78125,0"
               style="font-style:normal;font-weight:normal;letter-spacing:-3.71054292px;font-family:Lohit Bengali;-inkscape-font-specification:Lohit Bengali"
               id="path3087" />
            <path
               d="m 259.43636,625.5943 c -0.64586,-0.37497 -1.35419,-0.6458 -2.125,-0.8125 -0.75003,-0.18747 -1.58336,-0.28122 -2.5,-0.28125 -3.25002,3e-5 -5.75002,1.06253 -7.5,3.1875 -1.72918,2.10419 -2.59376,5.13544 -2.59375,9.09375 l 0,18.4375 -5.78125,0 0,-35 5.78125,0 0,5.4375 c 1.20832,-2.12497 2.78123,-3.69788 4.71875,-4.71875 1.93748,-1.04163 4.29164,-1.56246 7.0625,-1.5625 0.39581,4e-5 0.83331,0.0313 1.3125,0.0937 0.47914,0.0417 1.01039,0.11462 1.59375,0.21875 l 0.0312,5.90625"
               style="font-style:normal;font-weight:normal;letter-spacing:-3.71054292px;font-family:Lohit Bengali;-inkscape-font-specification:Lohit Bengali"
               id="path3089" />
            <path
               d="m 277.72581,637.62555 c -4.64585,2e-5 -7.86459,0.53127 -9.65625,1.59375 -1.79167,1.06251 -2.68751,2.87501 -2.6875,5.4375 -1e-5,2.04167 0.66666,3.66667 2,4.875 1.35416,1.1875 3.18749,1.78125 5.5,1.78125 3.18748,0 5.73956,-1.125 7.65625,-3.375 1.93748,-2.27082 2.90622,-5.28124 2.90625,-9.03125 l 0,-1.28125 -5.71875,0 m 11.46875,-2.375 0,19.96875 -5.75,0 0,-5.3125 c -1.31252,2.125 -2.94794,3.69792 -4.90625,4.71875 -1.95835,1 -4.35418,1.5 -7.1875,1.5 -3.58334,0 -6.43751,-1 -8.5625,-3 -2.10417,-2.02083 -3.15625,-4.71874 -3.15625,-8.09375 0,-3.93749 1.3125,-6.90623 3.9375,-8.90625 2.64583,-1.99998 6.58332,-2.99998 11.8125,-3 l 8.0625,0 0,-0.5625 c -3e-5,-2.64581 -0.87502,-4.68747 -2.625,-6.125 -1.72919,-1.4583 -4.16668,-2.18747 -7.3125,-2.1875 -2.00001,3e-5 -3.94793,0.23961 -5.84375,0.71875 -1.89584,0.4792 -3.71876,1.19795 -5.46875,2.15625 l 0,-5.3125 c 2.10416,-0.81247 4.14583,-1.41663 6.125,-1.8125 1.97915,-0.41663 3.90624,-0.62496 5.78125,-0.625 5.06248,4e-5 8.84373,1.31253 11.34375,3.9375 2.49997,2.62503 3.74997,6.60419 3.75,11.9375"
               style="font-style:normal;font-weight:normal;letter-spacing:-3.71054292px;font-family:Lohit Bengali;-inkscape-font-specification:Lohit Bengali"
               id="path3091" />
            <path
               d="m 303.04652,610.2818 0,9.9375 11.84375,0 0,4.46875 -11.84375,0 0,19 c -10e-6,2.85417 0.38541,4.68751 1.15625,5.5 0.79165,0.8125 2.3854,1.21875 4.78125,1.21875 l 5.90625,0 0,4.8125 -5.90625,0 c -4.43751,0 -7.50001,-0.82292 -9.1875,-2.46875 -1.6875,-1.66666 -2.53125,-4.68749 -2.53125,-9.0625 l 0,-19 -4.21875,0 0,-4.46875 4.21875,0 0,-9.9375 5.78125,0"
               style="font-style:normal;font-weight:normal;letter-spacing:-3.71054292px;font-family:Lohit Bengali;-inkscape-font-specification:Lohit Bengali"
               id="path3093" />
            <path
               d="m 332.33597,624.25055 c -3.08335,3e-5 -5.52084,1.20836 -7.3125,3.625 -1.79167,2.39586 -2.68751,5.68752 -2.6875,9.875 -10e-6,4.18751 0.88541,7.48959 2.65625,9.90625 1.79166,2.39584 4.23957,3.59375 7.34375,3.59375 3.06248,0 5.48956,-1.20833 7.28125,-3.625 1.79164,-2.41666 2.68747,-5.70832 2.6875,-9.875 -3e-5,-4.14581 -0.89586,-7.42706 -2.6875,-9.84375 -1.79169,-2.43747 -4.21877,-3.65622 -7.28125,-3.65625 m 0,-4.875 c 4.99998,4e-5 8.92706,1.62503 11.78125,4.875 2.85414,3.25003 4.28122,7.75002 4.28125,13.5 -3e-5,5.72918 -1.42711,10.22917 -4.28125,13.5 -2.85419,3.25 -6.78127,4.875 -11.78125,4.875 -5.02084,0 -8.95834,-1.625 -11.8125,-4.875 -2.83333,-3.27083 -4.25,-7.77082 -4.25,-13.5 0,-5.74998 1.41667,-10.24997 4.25,-13.5 2.85416,-3.24997 6.79166,-4.87496 11.8125,-4.875"
               style="font-style:normal;font-weight:normal;letter-spacing:-3.71054292px;font-family:Lohit Bengali;-inkscape-font-specification:Lohit Bengali"
               id="path3095" />
          </g>
          <g
             style="font-size:64px;font-style:italic;font-variant:normal;font-weight:bold;font-stretch:normal;text-align:center;line-height:125%;letter-spacing:0px;word-spacing:0px;text-anchor:middle;fill:#4d8ad3;fill-opacity:1;stroke:none;font-family:LMMathItalic10;-inkscape-font-specification:LMMathItalic10 Bold Italic"
             id="text4135">
            <path
               d="m 382.13369,611.2193 0,6.15625 c -2.39587,-1.14579 -4.65628,-1.99996 -6.78125,-2.5625 -2.12503,-0.56246 -4.17711,-0.84371 -6.15625,-0.84375 -3.43752,4e-5 -6.09377,0.66671 -7.96875,2 -1.85418,1.33337 -2.78126,3.2292 -2.78125,5.6875 -10e-6,2.06253 0.61457,3.62503 1.84375,4.6875 1.24998,1.04169 3.60415,1.88544 7.0625,2.53125 l 3.8125,0.78125 c 4.7083,0.89586 8.17705,2.47919 10.40625,4.75 2.24996,2.25002 3.37496,5.27085 3.375,9.0625 -4e-5,4.52084 -1.52087,7.94792 -4.5625,10.28125 -3.02087,2.33333 -7.45836,3.5 -13.3125,3.5 -2.20835,0 -4.56252,-0.25 -7.0625,-0.75 -2.47918,-0.5 -5.05209,-1.23958 -7.71875,-2.21875 l 0,-6.5 c 2.56249,1.43751 5.0729,2.52084 7.53125,3.25 2.45832,0.72917 4.87498,1.09375 7.25,1.09375 3.60414,0 6.38539,-0.70833 8.34375,-2.125 1.9583,-1.41666 2.93747,-3.43749 2.9375,-6.0625 -3e-5,-2.29165 -0.70837,-4.08332 -2.125,-5.375 -1.39586,-1.29165 -3.69794,-2.2604 -6.90625,-2.90625 l -3.84375,-0.75 c -4.70835,-0.93748 -8.1146,-2.40623 -10.21875,-4.40625 -2.10417,-1.99997 -3.15626,-4.78122 -3.15625,-8.34375 -10e-6,-4.12496 1.44791,-7.37496 4.34375,-9.75 2.91665,-2.37495 6.92707,-3.56245 12.03125,-3.5625 2.18747,5e-5 4.41664,0.19796 6.6875,0.59375 2.2708,0.39588 4.59372,0.98963 6.96875,1.78125"
               style="font-style:normal;font-weight:normal;letter-spacing:-3.71054292px;fill:#4d8ad3;font-family:Lohit Bengali;-inkscape-font-specification:Lohit Bengali"
               id="path3098" />
            <path
               d="m 396.39189,651.0943 0,18.5625 -5.78125,0 0,-48.3125 5.78125,0 0,5.3125 c 1.20832,-2.0833 2.72916,-3.62497 4.5625,-4.625 1.85415,-1.0208 4.06248,-1.53121 6.625,-1.53125 4.24998,4e-5 7.69789,1.68753 10.34375,5.0625 2.66663,3.37503 3.99997,7.81252 4,13.3125 -3e-5,5.50001 -1.33337,9.93751 -4,13.3125 -2.64586,3.375 -6.09377,5.0625 -10.34375,5.0625 -2.56252,0 -4.77085,-0.5 -6.625,-1.5 -1.83334,-1.02083 -3.35418,-2.57291 -4.5625,-4.65625 m 19.5625,-12.21875 c -3e-5,-4.22915 -0.87503,-7.54164 -2.625,-9.9375 -1.72919,-2.41664 -4.1146,-3.62497 -7.15625,-3.625 -3.04168,3e-5 -5.43751,1.20836 -7.1875,3.625 -1.72918,2.39586 -2.59376,5.70835 -2.59375,9.9375 -10e-6,4.22918 0.86457,7.55209 2.59375,9.96875 1.74999,2.39584 4.14582,3.59375 7.1875,3.59375 3.04165,0 5.42706,-1.19791 7.15625,-3.59375 1.74997,-2.41666 2.62497,-5.73957 2.625,-9.96875"
               style="font-style:normal;font-weight:normal;letter-spacing:-3.71054292px;fill:#4d8ad3;font-family:Lohit Bengali;-inkscape-font-specification:Lohit Bengali"
               id="path3100" />
            <path
               d="m 456.8376,635.2193 0,21.125 -5.75,0 0,-20.9375 c -3e-5,-3.31248 -0.64586,-5.79164 -1.9375,-7.4375 -1.29169,-1.6458 -3.22919,-2.46872 -5.8125,-2.46875 -3.10419,3e-5 -5.5521,0.98961 -7.34375,2.96875 -1.79168,1.97919 -2.68751,4.67711 -2.6875,8.09375 l 0,19.78125 -5.78125,0 0,-48.625 5.78125,0 0,19.0625 c 1.37499,-2.10414 2.98957,-3.67705 4.84375,-4.71875 1.87498,-1.04163 4.03123,-1.56246 6.46875,-1.5625 4.0208,4e-5 7.06247,1.25003 9.125,3.75 2.06246,2.4792 3.09371,6.13544 3.09375,10.96875"
               style="font-style:normal;font-weight:normal;letter-spacing:-3.71054292px;fill:#4d8ad3;font-family:Lohit Bengali;-inkscape-font-specification:Lohit Bengali"
               id="path3102" />
            <path
               d="m 494.59581,637.4068 0,2.8125 -26.4375,0 c 0.24999,3.95834 1.43749,6.97918 3.5625,9.0625 2.14582,2.0625 5.12498,3.09375 8.9375,3.09375 2.20831,0 4.34372,-0.27083 6.40625,-0.8125 2.0833,-0.54166 4.1458,-1.35416 6.1875,-2.4375 l 0,5.4375 c -2.06253,0.875 -4.17712,1.54167 -6.34375,2 -2.1667,0.45833 -4.36461,0.6875 -6.59375,0.6875 -5.58335,0 -10.01043,-1.625 -13.28125,-4.875 -3.25001,-3.24999 -4.87501,-7.64582 -4.875,-13.1875 -10e-6,-5.72914 1.54166,-10.27081 4.625,-13.625 3.10415,-3.37497 7.28123,-5.06246 12.53125,-5.0625 4.70831,4e-5 8.42705,1.52087 11.15625,4.5625 2.74996,3.02086 4.12496,7.13544 4.125,12.34375 m -5.75,-1.6875 c -0.0417,-3.14581 -0.92711,-5.65622 -2.65625,-7.53125 -1.70836,-1.87497 -3.97919,-2.81247 -6.8125,-2.8125 -3.20835,3e-5 -5.78127,0.90628 -7.71875,2.71875 -1.91668,1.81253 -3.02085,4.36461 -3.3125,7.65625 l 20.5,-0.0312"
               style="font-style:normal;font-weight:normal;letter-spacing:-3.71054292px;fill:#4d8ad3;font-family:Lohit Bengali;-inkscape-font-specification:Lohit Bengali"
               id="path3104" />
            <path
               d="m 520.60401,626.7193 c -0.64586,-0.37497 -1.35419,-0.6458 -2.125,-0.8125 -0.75002,-0.18747 -1.58336,-0.28122 -2.5,-0.28125 -3.25002,3e-5 -5.75002,1.06253 -7.5,3.1875 -1.72918,2.10419 -2.59376,5.13544 -2.59375,9.09375 l 0,18.4375 -5.78125,0 0,-35 5.78125,0 0,5.4375 c 1.20832,-2.12497 2.78123,-3.69788 4.71875,-4.71875 1.93748,-1.04163 4.29165,-1.56246 7.0625,-1.5625 0.39581,4e-5 0.83331,0.0313 1.3125,0.0937 0.47914,0.0417 1.01039,0.11462 1.59375,0.21875 l 0.0312,5.90625"
               style="font-style:normal;font-weight:normal;letter-spacing:-3.71054292px;fill:#4d8ad3;font-family:Lohit Bengali;-inkscape-font-specification:Lohit Bengali"
               id="path3106" />
            <path
               d="m 551.54972,637.4068 0,2.8125 -26.4375,0 c 0.24999,3.95834 1.43749,6.97918 3.5625,9.0625 2.14582,2.0625 5.12498,3.09375 8.9375,3.09375 2.20831,0 4.34372,-0.27083 6.40625,-0.8125 2.0833,-0.54166 4.1458,-1.35416 6.1875,-2.4375 l 0,5.4375 c -2.06253,0.875 -4.17712,1.54167 -6.34375,2 -2.16669,0.45833 -4.36461,0.6875 -6.59375,0.6875 -5.58335,0 -10.01043,-1.625 -13.28125,-4.875 -3.25001,-3.24999 -4.87501,-7.64582 -4.875,-13.1875 -10e-6,-5.72914 1.54166,-10.27081 4.625,-13.625 3.10415,-3.37497 7.28123,-5.06246 12.53125,-5.0625 4.70831,4e-5 8.42705,1.52087 11.15625,4.5625 2.74996,3.02086 4.12496,7.13544 4.125,12.34375 m -5.75,-1.6875 c -0.0417,-3.14581 -0.92711,-5.65622 -2.65625,-7.53125 -1.70836,-1.87497 -3.97919,-2.81247 -6.8125,-2.8125 -3.20835,3e-5 -5.78127,0.90628 -7.71875,2.71875 -1.91668,1.81253 -3.02084,4.36461 -3.3125,7.65625 l 20.5,-0.0312"
               style="font-style:normal;font-weight:normal;letter-spacing:-3.71054292px;fill:#4d8ad3;font-family:Lohit Bengali;-inkscape-font-specification:Lohit Bengali"
               id="path3108" />
          </g>
        </g>
        <g
           style="font-size:64px;font-style:italic;font-variant:normal;font-weight:bold;font-stretch:normal;text-align:center;line-height:125%;letter-spacing:0px;word-spacing:0px;text-anchor:middle;fill:#7e7e7e;fill-opacity:1;stroke:none;font-family:LMMathItalic10;-inkscape-font-specification:LMMathItalic10 Bold Italic"
           id="text4139">
          <path
             d="m 235.42639,660.24237 -3.21094,8.70703 6.4336,0 -3.22266,-8.70703 m -1.33594,-2.33203 2.6836,0 6.66797,17.49609 -2.46094,0 -1.59375,-4.48828 -7.88672,0 -1.59375,4.48828 -2.49609,0 6.67968,-17.49609"
             style="font-size:24px;font-style:normal;font-weight:normal;letter-spacing:-1.70000005px;fill:#7e7e7e;font-family:Lohit Bengali;-inkscape-font-specification:Lohit Bengali"
             id="path3056" />
          <path
             d="m 253.61311,668.85565 c -1e-5,-1.58593 -0.32814,-2.82811 -0.98437,-3.72656 -0.64845,-0.90624 -1.54298,-1.35936 -2.6836,-1.35938 -1.14063,2e-5 -2.03907,0.45314 -2.69531,1.35938 -0.64844,0.89845 -0.97266,2.14063 -0.97266,3.72656 0,1.58594 0.32422,2.83204 0.97266,3.73828 0.65624,0.89844 1.55468,1.34766 2.69531,1.34766 1.14062,0 2.03515,-0.44922 2.6836,-1.34766 0.65623,-0.90624 0.98436,-2.15234 0.98437,-3.73828 m -7.33594,-4.58203 c 0.45312,-0.78124 1.02344,-1.35936 1.71094,-1.73437 0.69531,-0.3828 1.52343,-0.57421 2.48438,-0.57422 1.59374,1e-5 2.8867,0.63282 3.8789,1.89843 0.99999,1.26564 1.49999,2.9297 1.5,4.99219 -1e-5,2.06251 -0.50001,3.72657 -1.5,4.99219 -0.9922,1.26562 -2.28516,1.89844 -3.8789,1.89844 -0.96095,0 -1.78907,-0.1875 -2.48438,-0.5625 -0.6875,-0.38282 -1.25782,-0.96485 -1.71094,-1.7461 l 0,1.96875 -2.16797,0 0,-18.23437 2.16797,0 0,7.10156"
             style="font-size:24px;font-style:normal;font-weight:normal;letter-spacing:-1.70000005px;fill:#7e7e7e;font-family:Lohit Bengali;-inkscape-font-specification:Lohit Bengali"
             id="path3058" />
          <path
             d="m 262.81155,663.79315 c -1.15626,10e-6 -2.07032,0.45314 -2.74219,1.35938 -0.67188,0.89844 -1.00782,2.13282 -1.00781,3.70312 -1e-5,1.57032 0.33203,2.8086 0.99609,3.71485 0.67187,0.89844 1.58984,1.34765 2.75391,1.34765 1.14843,0 2.05858,-0.45312 2.73047,-1.35937 0.67186,-0.90625 1.0078,-2.14062 1.00781,-3.70313 -10e-6,-1.55468 -0.33595,-2.78515 -1.00781,-3.6914 -0.67189,-0.91406 -1.58204,-1.37109 -2.73047,-1.3711 m 0,-1.82812 c 1.87499,1e-5 3.34764,0.60938 4.41797,1.82812 1.0703,1.21876 1.60545,2.90626 1.60547,5.0625 -2e-5,2.14844 -0.53517,3.83594 -1.60547,5.0625 -1.07033,1.21875 -2.54298,1.82813 -4.41797,1.82813 -1.88282,0 -3.35938,-0.60938 -4.42969,-1.82813 -1.0625,-1.22656 -1.59375,-2.91406 -1.59375,-5.0625 0,-2.15624 0.53125,-3.84374 1.59375,-5.0625 1.07031,-1.21874 2.54687,-1.82811 4.42969,-1.82812"
             style="font-size:24px;font-style:normal;font-weight:normal;letter-spacing:-1.70000005px;fill:#7e7e7e;font-family:Lohit Bengali;-inkscape-font-specification:Lohit Bengali"
             id="path3060" />
          <path
             d="m 269.15061,662.28143 2.28516,0 4.10156,11.01563 4.10156,-11.01563 2.28516,0 -4.92188,13.125 -2.92968,0 -4.92188,-13.125"
             style="font-size:24px;font-style:normal;font-weight:normal;letter-spacing:-1.70000005px;fill:#7e7e7e;font-family:Lohit Bengali;-inkscape-font-specification:Lohit Bengali"
             id="path3062" />
          <path
             d="m 294.42717,668.30487 0,1.05469 -9.91406,0 c 0.0937,1.48438 0.53906,2.61719 1.33594,3.39844 0.80468,0.77343 1.92187,1.16015 3.35156,1.16015 0.82812,0 1.6289,-0.10156 2.40235,-0.30469 0.78123,-0.20312 1.55467,-0.50781 2.32031,-0.91406 l 0,2.03906 c -0.77345,0.32813 -1.56642,0.57813 -2.37891,0.75 -0.81251,0.17188 -1.63673,0.25782 -2.47265,0.25782 -2.09376,0 -3.75392,-0.60938 -4.98047,-1.82813 -1.21876,-1.21875 -1.82813,-2.86718 -1.82813,-4.94531 0,-2.14843 0.57812,-3.85155 1.73438,-5.10938 1.16405,-1.26561 2.73046,-1.89842 4.69922,-1.89843 1.76561,1e-5 3.16014,0.57032 4.18359,1.71093 1.03124,1.13283 1.54686,2.67579 1.54687,4.62891 m -2.15625,-0.63281 c -0.0156,-1.17968 -0.34766,-2.12109 -0.99609,-2.82422 -0.64063,-0.70311 -1.4922,-1.05468 -2.55469,-1.05469 -1.20313,10e-6 -2.16797,0.33986 -2.89453,1.01953 -0.71875,0.6797 -1.13281,1.63673 -1.24219,2.8711 l 7.6875,-0.0117"
             style="font-size:24px;font-style:normal;font-weight:normal;letter-spacing:-1.70000005px;fill:#7e7e7e;font-family:Lohit Bengali;-inkscape-font-specification:Lohit Bengali"
             id="path3064" />
          <path
             d="m 304.33968,658.55487 0,3.72656 4.4414,0 0,1.67578 -4.4414,0 0,7.125 c -10e-6,1.07032 0.14452,1.75782 0.43359,2.0625 0.29687,0.30469 0.89453,0.45704 1.79297,0.45704 l 2.21484,0 0,1.80468 -2.21484,0 c -1.66407,0 -2.81251,-0.30859 -3.44531,-0.92578 -0.63282,-0.625 -0.94922,-1.75781 -0.94922,-3.39844 l 0,-7.125 -1.58203,0 0,-1.67578 1.58203,0 0,-3.72656 2.16797,0"
             style="font-size:24px;font-style:normal;font-weight:normal;letter-spacing:-1.70000005px;fill:#7e7e7e;font-family:Lohit Bengali;-inkscape-font-specification:Lohit Bengali"
             id="path3066" />
          <path
             d="m 320.83889,667.48456 0,7.92187 -2.15625,0 0,-7.85156 c -10e-6,-1.24218 -0.2422,-2.17186 -0.72656,-2.78906 -0.48439,-0.61718 -1.21095,-0.92577 -2.17969,-0.92578 -1.16407,1e-5 -2.08204,0.3711 -2.75391,1.11328 -0.67188,0.7422 -1.00781,1.75391 -1.00781,3.03515 l 0,7.41797 -2.16797,0 0,-18.23437 2.16797,0 0,7.14844 c 0.51562,-0.78906 1.12109,-1.3789 1.81641,-1.76954 0.70312,-0.39061 1.51171,-0.58592 2.42578,-0.58593 1.5078,1e-5 2.64843,0.46876 3.42187,1.40625 0.77343,0.9297 1.16015,2.30079 1.16016,4.11328"
             style="font-size:24px;font-style:normal;font-weight:normal;letter-spacing:-1.70000005px;fill:#7e7e7e;font-family:Lohit Bengali;-inkscape-font-specification:Lohit Bengali"
             id="path3068" />
          <path
             d="m 334.68967,668.30487 0,1.05469 -9.91406,0 c 0.0937,1.48438 0.53906,2.61719 1.33594,3.39844 0.80468,0.77343 1.92187,1.16015 3.35156,1.16015 0.82812,0 1.6289,-0.10156 2.40235,-0.30469 0.78123,-0.20312 1.55467,-0.50781 2.32031,-0.91406 l 0,2.03906 c -0.77345,0.32813 -1.56642,0.57813 -2.37891,0.75 -0.81251,0.17188 -1.63673,0.25782 -2.47265,0.25782 -2.09376,0 -3.75391,-0.60938 -4.98047,-1.82813 -1.21875,-1.21875 -1.82813,-2.86718 -1.82813,-4.94531 0,-2.14843 0.57813,-3.85155 1.73438,-5.10938 1.16406,-1.26561 2.73046,-1.89842 4.69922,-1.89843 1.76561,1e-5 3.16014,0.57032 4.18359,1.71093 1.03124,1.13283 1.54686,2.67579 1.54687,4.62891 m -2.15625,-0.63281 c -0.0156,-1.17968 -0.34766,-2.12109 -0.99609,-2.82422 -0.64063,-0.70311 -1.4922,-1.05468 -2.55469,-1.05469 -1.20313,10e-6 -2.16797,0.33986 -2.89453,1.01953 -0.71875,0.6797 -1.13281,1.63673 -1.24219,2.8711 l 7.6875,-0.0117"
             style="font-size:24px;font-style:normal;font-weight:normal;letter-spacing:-1.70000005px;fill:#7e7e7e;font-family:Lohit Bengali;-inkscape-font-specification:Lohit Bengali"
             id="path3070" />
          <path
             d="m 355.66467,659.258 0,2.49609 c -0.79689,-0.74217 -1.64845,-1.29686 -2.55468,-1.66406 -0.89845,-0.36717 -1.85548,-0.55077 -2.8711,-0.55078 -2.00001,10e-6 -3.53125,0.61329 -4.59375,1.83984 -1.0625,1.21876 -1.59375,2.98439 -1.59375,5.29687 0,2.3047 0.53125,4.07032 1.59375,5.29688 1.0625,1.21875 2.59374,1.82813 4.59375,1.82812 1.01562,10e-6 1.97265,-0.18359 2.8711,-0.55078 0.90623,-0.36718 1.75779,-0.92187 2.55468,-1.66406 l 0,2.47266 c -0.82814,0.5625 -1.70704,0.98437 -2.63672,1.26562 -0.92188,0.28125 -1.89844,0.42188 -2.92968,0.42188 -2.64845,0 -4.73438,-0.8086 -6.25782,-2.42578 -1.52344,-1.625 -2.28515,-3.83984 -2.28515,-6.64454 0,-2.81248 0.76171,-5.02733 2.28515,-6.64453 1.52344,-1.62498 3.60937,-2.43748 6.25782,-2.4375 1.04686,2e-5 2.03124,0.14065 2.95312,0.42188 0.92968,0.27345 1.80077,0.68751 2.61328,1.24219"
             style="font-size:24px;font-style:normal;font-weight:normal;letter-spacing:-1.70000005px;fill:#7e7e7e;font-family:Lohit Bengali;-inkscape-font-specification:Lohit Bengali"
             id="path3072" />
          <path
             d="m 357.55061,657.17206 2.15625,0 0,18.23437 -2.15625,0 0,-18.23437"
             style="font-size:24px;font-style:normal;font-weight:normal;letter-spacing:-1.70000005px;fill:#7e7e7e;font-family:Lohit Bengali;-inkscape-font-specification:Lohit Bengali"
             id="path3074" />
          <path
             d="m 367.5928,663.79315 c -1.15625,10e-6 -2.07031,0.45314 -2.74218,1.35938 -0.67188,0.89844 -1.00782,2.13282 -1.00782,3.70312 0,1.57032 0.33203,2.8086 0.9961,3.71485 0.67187,0.89844 1.58984,1.34765 2.7539,1.34765 1.14843,0 2.05859,-0.45312 2.73047,-1.35937 0.67187,-0.90625 1.0078,-2.14062 1.00782,-3.70313 -2e-5,-1.55468 -0.33595,-2.78515 -1.00782,-3.6914 -0.67188,-0.91406 -1.58204,-1.37109 -2.73047,-1.3711 m 0,-1.82812 c 1.875,1e-5 3.34765,0.60938 4.41797,1.82812 1.0703,1.21876 1.60546,2.90626 1.60547,5.0625 -1e-5,2.14844 -0.53517,3.83594 -1.60547,5.0625 -1.07032,1.21875 -2.54297,1.82813 -4.41797,1.82813 -1.88281,0 -3.35937,-0.60938 -4.42968,-1.82813 -1.06251,-1.22656 -1.59375,-2.91406 -1.59375,-5.0625 0,-2.15624 0.53124,-3.84374 1.59375,-5.0625 1.07031,-1.21874 2.54687,-1.82811 4.42968,-1.82812"
             style="font-size:24px;font-style:normal;font-weight:normal;letter-spacing:-1.70000005px;fill:#7e7e7e;font-family:Lohit Bengali;-inkscape-font-specification:Lohit Bengali"
             id="path3076" />
          <path
             d="m 375.25607,670.22675 0,-7.94532 2.15625,0 0,7.86328 c 0,1.2422 0.24219,2.17579 0.72657,2.80079 0.48437,0.61718 1.21093,0.92578 2.17968,0.92578 1.16406,0 2.08203,-0.37109 2.75391,-1.11328 0.67968,-0.74219 1.01952,-1.75391 1.01953,-3.03516 l 0,-7.44141 2.15625,0 0,13.125 -2.15625,0 0,-2.01562 c -0.52345,0.79687 -1.13282,1.39062 -1.82812,1.78125 -0.68751,0.38281 -1.48829,0.57422 -2.40235,0.57422 -1.50782,0 -2.65235,-0.46875 -3.43359,-1.40625 -0.78125,-0.9375 -1.17188,-2.30859 -1.17188,-4.11328 m 5.42578,-8.26172 0,0"
             style="font-size:24px;font-style:normal;font-weight:normal;letter-spacing:-1.70000005px;fill:#7e7e7e;font-family:Lohit Bengali;-inkscape-font-specification:Lohit Bengali"
             id="path3078" />
          <path
             d="m 397.64983,664.27362 0,-7.10156 2.15625,0 0,18.23437 -2.15625,0 0,-1.96875 c -0.45314,0.78125 -1.02736,1.36328 -1.72266,1.7461 -0.68751,0.375 -1.51563,0.5625 -2.48437,0.5625 -1.58595,0 -2.87891,-0.63282 -3.87891,-1.89844 -0.99219,-1.26562 -1.48828,-2.92968 -1.48828,-4.99219 0,-2.06249 0.49609,-3.72655 1.48828,-4.99219 1,-1.26561 2.29296,-1.89842 3.87891,-1.89843 0.96874,1e-5 1.79686,0.19142 2.48437,0.57422 0.6953,0.37501 1.26952,0.95313 1.72266,1.73437 m -7.34766,4.58203 c 0,1.58594 0.32422,2.83204 0.97266,3.73828 0.65624,0.89844 1.55468,1.34766 2.69531,1.34766 1.14062,0 2.03905,-0.44922 2.69531,-1.34766 0.65624,-0.90624 0.98437,-2.15234 0.98438,-3.73828 -1e-5,-1.58593 -0.32814,-2.82811 -0.98438,-3.72656 -0.65626,-0.90624 -1.55469,-1.35936 -2.69531,-1.35938 -1.14063,2e-5 -2.03907,0.45314 -2.69531,1.35938 -0.64844,0.89845 -0.97266,2.14063 -0.97266,3.72656"
             style="font-size:24px;font-style:normal;font-weight:normal;letter-spacing:-1.70000005px;fill:#7e7e7e;font-family:Lohit Bengali;-inkscape-font-specification:Lohit Bengali"
             id="path3080" />
          <path
             d="m 410.91467,662.66815 0,2.03906 c -0.60938,-0.31248 -1.24219,-0.54686 -1.89843,-0.70312 -0.65626,-0.15624 -1.33595,-0.23436 -2.03907,-0.23438 -1.07031,2e-5 -1.875,0.16408 -2.41406,0.49219 -0.53125,0.32814 -0.79688,0.82032 -0.79687,1.47656 -10e-6,0.50001 0.1914,0.89454 0.57421,1.1836 0.38281,0.28126 1.15234,0.55079 2.3086,0.80859 l 0.73828,0.16406 c 1.53124,0.32814 2.61718,0.79298 3.25781,1.39454 0.64843,0.59375 0.97265,1.42578 0.97266,2.49609 -10e-6,1.21875 -0.48439,2.18359 -1.45313,2.89453 -0.96094,0.71094 -2.28516,1.06641 -3.97265,1.06641 -0.70313,0 -1.43751,-0.0703 -2.20313,-0.21094 -0.75781,-0.13281 -1.55859,-0.33594 -2.40234,-0.60938 l 0,-2.22656 c 0.79687,0.41407 1.58203,0.72657 2.35547,0.9375 0.77343,0.20313 1.53905,0.30469 2.29687,0.30469 1.01562,0 1.79687,-0.17187 2.34375,-0.51563 0.54687,-0.35156 0.82031,-0.84374 0.82031,-1.47656 0,-0.58593 -0.19922,-1.03515 -0.59765,-1.34765 -0.39063,-0.3125 -1.25392,-0.61328 -2.58985,-0.90235 l -0.75,-0.17578 c -1.33594,-0.28124 -2.30078,-0.71093 -2.89453,-1.28906 -0.59375,-0.58593 -0.89062,-1.38671 -0.89062,-2.40235 0,-1.23436 0.4375,-2.18748 1.3125,-2.85937 0.87499,-0.67186 2.11718,-1.0078 3.72656,-1.00781 0.79687,1e-5 1.54687,0.0586 2.25,0.17578 0.70312,0.1172 1.35155,0.29298 1.94531,0.52734"
             style="font-size:24px;font-style:normal;font-weight:normal;letter-spacing:-1.70000005px;fill:#7e7e7e;font-family:Lohit Bengali;-inkscape-font-specification:Lohit Bengali"
             id="path3082" />
        </g>
      </g>
      <g
         transform="translate(-381.42857,-282.2616)"
         id="g5209">
        <path
           style="color:#000000;fill:url(#linearGradient5829);fill-opacity:1;fill-rule:nonzero;stroke:none;stroke-width:1.79999995;marker:none;visibility:visible;display:inline;overflow:visible;enable-background:accumulate"
           d="m -164.125,522.2935 c -13.07468,1.65342 -23.1875,12.82028 -23.1875,26.34375 0,13.52347 10.11282,24.69033 23.1875,26.34375 l 0,-52.6875 z"
           id="path4965"
           inkscape:connector-curvature="0" />
        <path
           style="color:#000000;fill:#7f7f7f;fill-opacity:1;fill-rule:nonzero;stroke:none;stroke-width:1.41600001;marker:none;visibility:visible;display:inline;overflow:visible;enable-background:accumulate"
           d="m -164.125,513.38725 c -17.9906,1.68347 -32.0625,16.81817 -32.0625,35.25 0,18.43176 14.072,33.56643 32.0625,35.25 l 0,-5.5625 c -14.91844,-1.67214 -26.53125,-14.3209 -26.53125,-29.6875 0,-15.3666 11.61281,-28.01536 26.53125,-29.6875 l 0,-5.5625 z"
           id="path5128"
           inkscape:connector-curvature="0" />
        <rect
           style="color:#000000;fill:#000000;fill-opacity:1;fill-rule:nonzero;stroke:none;stroke-width:1.41600001;marker:none;visibility:visible;display:inline;overflow:visible;enable-background:accumulate"
           id="rect5047"
           width="0.89999998"
           height="96.300003"
           x="-161.23515"
           y="500.48724" />
      </g>
    </g>
  </g>
</svg>
