<?xml version="1.0" encoding="UTF-8" standalone="no"?>
<!-- Created with Inkscape (http://www.inkscape.org/) -->

<svg
   xmlns:dc="http://purl.org/dc/elements/1.1/"
   xmlns:cc="http://creativecommons.org/ns#"
   xmlns:rdf="http://www.w3.org/1999/02/22-rdf-syntax-ns#"
   xmlns:svg="http://www.w3.org/2000/svg"
   xmlns="http://www.w3.org/2000/svg"
   xmlns:sodipodi="http://sodipodi.sourceforge.net/DTD/sodipodi-0.dtd"
   xmlns:inkscape="http://www.inkscape.org/namespaces/inkscape"
   width="235.70163"
   height="200"
   id="svg15570"
   version="1.1"
   inkscape:version="0.48.1 r9760"
   sodipodi:docname="New document 14">
  <defs
     id="defs15572">
    <clipPath
       id="clipPath5546"
       clipPathUnits="userSpaceOnUse">
      <path
         id="path5548-9"
         d="m 0,595.276 841.89,0 L 841.89,0 0,0 0,595.276 z"
         inkscape:connector-curvature="0" />
    </clipPath>
  </defs>
  <sodipodi:namedview
     id="base"
     pagecolor="#ffffff"
     bordercolor="#666666"
     borderopacity="1.0"
     inkscape:pageopacity="0.0"
     inkscape:pageshadow="2"
     inkscape:zoom="1.979899"
     inkscape:cx="123.08352"
     inkscape:cy="42.573082"
     inkscape:document-units="px"
     inkscape:current-layer="layer1"
     showgrid="false"
     fit-margin-top="0"
     fit-margin-left="0"
     fit-margin-right="0"
     fit-margin-bottom="0"
     inkscape:window-width="813"
     inkscape:window-height="692"
     inkscape:window-x="2191"
     inkscape:window-y="251"
     inkscape:window-maximized="0" />
  <metadata
     id="metadata15575">
    <rdf:RDF>
      <cc:Work
         rdf:about="">
        <dc:format>image/svg+xml</dc:format>
        <dc:type
           rdf:resource="http://purl.org/dc/dcmitype/StillImage" />
        <dc:title></dc:title>
      </cc:Work>
    </rdf:RDF>
  </metadata>
  <g
     inkscape:label="Layer 1"
     inkscape:groupmode="layer"
     id="layer1"
     transform="translate(-230.72061,-346.6479)">
    <g
       style="display:inline"
       transform="matrix(0.42231156,0,0,-0.42231156,167.82534,574.85561)"
       inkscape:label="DIMA_Logo_rot_en"
       id="g5540">
      <g
         id="g5542">
        <g
           clip-path="url(#clipPath5546)"
           id="g5544">
          <g
             transform="translate(398.8086,70.2861)"
             id="g5550">
            <path
               id="path5552-8"
               style="fill:#981a1f;fill-opacity:1;fill-rule:nonzero;stroke:none"
               d="m 0,0 c 0.737,0 77.925,0 78.662,0.01 127.002,1.19 229.583,104.513 229.583,231.791 0,127.096 -102.287,230.298 -229.025,231.787 -0.924,0.014 -78.297,0.014 -79.22,0.014 l 0,-73.977 c 0.737,0 77.925,-0.005 78.662,-0.014 86.143,-1.191 155.606,-71.387 155.606,-157.81 C 234.268,145.383 164.805,75.182 78.662,73.995 77.925,73.986 0.737,73.982 0,73.982 L 0,0 z"
               inkscape:connector-curvature="0" />
          </g>
          <g
             transform="translate(369.7427,117.3506)"
             id="g5554">
            <path
               id="path5556"
               style="fill:#981a1f;fill-opacity:1;fill-rule:nonzero;stroke:none"
               d="M 0,0 -3.925,0.362 -1.408,27.767 2.517,27.404 0,0 z"
               inkscape:connector-curvature="0" />
          </g>
          <g
             transform="translate(357.6865,126.0117)"
             id="g5558">
            <path
               id="path5560"
               style="fill:#981a1f;fill-opacity:1;fill-rule:nonzero;stroke:none"
               d="m 0,0 -3.514,0.72 0.639,3.128 -0.077,0.018 c -1.539,-2.019 -4.442,-2.834 -7.185,-2.268 -5.098,1.046 -6.728,4.681 -5.641,9.969 l 2.4,11.704 3.63,-0.743 -2.091,-10.2 c -0.942,-4.596 -0.399,-7.04 2.73,-7.883 4.133,-0.846 6.669,2.092 7.651,6.882 L 0.412,20.44 4.038,19.698 0,0 z"
               inkscape:connector-curvature="0" />
          </g>
          <g
             transform="translate(330.4453,135.7813)"
             id="g5562">
            <path
               id="path5564"
               style="fill:#981a1f;fill-opacity:1;fill-rule:nonzero;stroke:none"
               d="m 0,0 4.482,-1.525 -0.969,-2.839 -4.482,1.526 -0.597,-1.757 c -1.58,-4.632 -3.804,-7.248 -8.997,-5.478 -0.896,0.307 -1.607,0.67 -2.277,1.028 l 1.118,2.784 c 0.358,-0.29 1.006,-0.593 1.603,-0.797 3.024,-1.028 4.061,0.784 4.939,3.364 l 0.702,2.05 -5.043,1.721 0.969,2.839 L -3.509,1.195 2.015,17.408 5.528,16.213 0,0 z"
               inkscape:connector-curvature="0" />
          </g>
          <g
             transform="translate(314.6445,157.9336)"
             id="g5566">
            <path
               id="path5568"
               style="fill:#981a1f;fill-opacity:1;fill-rule:nonzero;stroke:none"
               d="m 0,0 c -3.898,1.911 -7.371,-0.787 -8.946,-4.011 -1.684,-3.436 -1.222,-7.792 2.322,-9.525 3.582,-1.752 7.303,0.557 8.983,3.997 C 3.935,-6.315 3.935,-1.924 0,0 m -7.941,-16.23 c -5.492,2.684 -7.235,8.457 -4.55,13.953 2.531,5.174 8.385,7.624 13.808,4.971 5.456,-2.667 7.118,-8.792 4.587,-13.966 -2.69,-5.493 -8.317,-7.661 -13.845,-4.958"
               inkscape:connector-curvature="0" />
          </g>
          <g
             transform="translate(291.4556,150.5811)"
             id="g5570">
            <path
               id="path5572"
               style="fill:#981a1f;fill-opacity:1;fill-rule:nonzero;stroke:none"
               d="M 0,0 -2.907,1.897 -1.204,4.51 -1.268,4.551 C -3.237,3.342 -5.845,3.251 -7.628,4.415 -8.552,5.017 -8.951,5.42 -9.525,5.985 L -7.71,8.757 C -7.303,8.159 -6.719,7.684 -6.189,7.339 -3.414,5.528 0.131,6.981 2.893,11.21 L 7.896,18.875 11.001,16.847 0,0 z"
               inkscape:connector-curvature="0" />
          </g>
          <g
             transform="translate(275.8726,160.7725)"
             id="g5574">
            <path
               id="path5576"
               style="fill:#981a1f;fill-opacity:1;fill-rule:nonzero;stroke:none"
               d="m 0,0 -2.563,2.332 1.96,2.159 -0.058,0.05 c -2.612,-0.761 -4.817,-0.194 -7,1.793 -1.72,1.566 -2.643,4.007 -1.602,6.732 -2.957,-1.2 -5.89,0.086 -7.23,1.304 -3.79,3.449 -2.929,7.144 0.013,10.381 l 8.675,9.53 2.739,-2.494 -8.063,-8.86 c -1.671,-1.834 -3.328,-4.536 -1.114,-6.551 2.798,-2.549 6.397,-0.815 8.919,1.951 l 6.818,7.492 2.739,-2.494 -8.064,-8.86 C -5.505,12.627 -7.163,9.929 -4.949,7.914 -2.151,5.365 1.453,7.099 3.97,9.865 l 6.819,7.493 2.738,-2.495 L 0,0 z"
               inkscape:connector-curvature="0" />
          </g>
          <g
             transform="translate(249.333,203.7959)"
             id="g5578">
            <path
               id="path5580"
               style="fill:#981a1f;fill-opacity:1;fill-rule:nonzero;stroke:none"
               d="m 0,0 c 0.48,-0.625 0.896,-1.304 1.376,-1.929 1.223,-1.597 4.496,-5.355 7.316,-3.196 1.694,1.295 1.354,3.622 0.322,4.967 -2.227,2.915 -5.22,3.06 -7.601,1.236 L 0,0 z m -0.548,-14.283 c -2.005,0.801 -3.975,2.077 -5.532,4.115 -3.5,4.572 -2.658,8.149 1.698,11.481 l 6.61,5.062 c 1.819,1.39 2.616,2.101 3.037,2.521 L 7.375,6.14 5.306,4.56 5.356,4.496 C 6.854,4.55 9.525,4.111 11.59,1.413 14.229,-2.032 14.569,-5.596 11.092,-8.258 7.081,-11.327 2.467,-7.9 0.145,-4.862 c -0.888,1.159 -1.512,1.973 -2.336,3.182 -2.757,-2.109 -3.4,-4.192 -1.146,-7.134 1.268,-1.663 3.265,-2.97 5.175,-3.392 l -2.386,-2.077 z"
               inkscape:connector-curvature="0" />
          </g>
          <g
             transform="translate(231.1646,218.3828)"
             id="g5582">
            <path
               id="path5584"
               style="fill:#981a1f;fill-opacity:1;fill-rule:nonzero;stroke:none"
               d="m 0,0 2.717,-4.586 9.471,5.606 c 2.001,1.185 2.368,3.05 1.503,4.513 -0.584,0.983 -1.309,1.517 -1.897,1.811 L 14.51,8.951 C 15.135,8.357 15.991,7.534 16.593,6.516 18.54,3.22 18.187,0.259 14.723,-1.792 l -10.119,-5.985 2.31,-3.903 -2.581,-1.53 -2.309,3.906 -4.007,-2.372 -2.906,2.59 5.025,2.975 L -2.581,-1.53 0,0 z"
               inkscape:connector-curvature="0" />
          </g>
          <g
             transform="translate(225.5371,222.9063)"
             id="g5586">
            <path
               id="path5588"
               style="fill:#981a1f;fill-opacity:1;fill-rule:nonzero;stroke:none"
               d="M 0,0 -1.616,3.341 16.498,12.105 18.114,8.77 0,0 z m -5.763,1.594 1.82,-3.768 -3.763,-1.819 -1.824,3.762 3.767,1.825 z"
               inkscape:connector-curvature="0" />
          </g>
          <g
             transform="translate(233.6821,248.7031)"
             id="g5590">
            <path
               id="path5592"
               style="fill:#981a1f;fill-opacity:1;fill-rule:nonzero;stroke:none"
               d="m 0,0 c -1.449,4.093 -5.813,4.6 -9.2,3.404 -3.608,-1.277 -6.329,-4.709 -5.016,-8.429 1.331,-3.758 5.605,-4.718 9.213,-3.442 C -1.617,-7.271 1.458,-4.129 0,0 m -17.041,-6.025 c -2.042,5.767 0.756,11.109 6.524,13.146 C -5.084,9.045 0.815,6.691 2.825,1 4.853,-4.731 1.743,-10.268 -3.686,-12.188 c -5.767,-2.041 -11.304,0.358 -13.355,6.163"
               inkscape:connector-curvature="0" />
          </g>
          <g
             transform="translate(211.6924,260.3564)"
             id="g5594">
            <path
               id="path5596"
               style="fill:#981a1f;fill-opacity:1;fill-rule:nonzero;stroke:none"
               d="M 0,0 -0.661,3.526 2.477,4.12 2.463,4.196 c -2.449,0.662 -4.305,3.043 -4.821,5.795 -0.96,5.117 1.788,8.005 7.098,9.001 l 11.744,2.21 0.688,-3.644 L 6.936,15.633 C 2.323,14.764 0.263,13.333 0.67,10.118 1.449,5.972 5.13,4.74 9.938,5.642 L 19.087,7.361 19.771,3.717 0,0 z"
               inkscape:connector-curvature="0" />
          </g>
          <g
             transform="translate(198.9707,301.2656)"
             id="g5598">
            <path
               id="path5600"
               style="fill:#981a1f;fill-opacity:1;fill-rule:nonzero;stroke:none"
               d="M 0,0 0.489,6.488 23.954,13.378 1.779,23.561 2.272,30.048 29.722,27.975 29.428,24.04 5.673,25.837 5.664,25.756 28.735,14.877 28.445,11.024 4.002,3.73 3.993,3.653 27.753,1.861 27.454,-2.074 0,0 z"
               inkscape:connector-curvature="0" />
          </g>
          <g
             transform="translate(224.4189,349.9121)"
             id="g5602">
            <path
               id="path5604"
               style="fill:#981a1f;fill-opacity:1;fill-rule:nonzero;stroke:none"
               d="m 0,0 c -0.208,-0.761 -0.489,-1.503 -0.697,-2.264 -0.525,-1.942 -1.521,-6.818 1.901,-7.746 2.056,-0.561 3.699,1.118 4.143,2.757 0.96,3.541 -0.743,6.003 -3.636,6.787 L 0,0 z m -11.671,-8.231 c -0.58,2.078 -0.766,4.415 -0.096,6.886 1.508,5.56 4.858,7.058 10.151,5.623 L 6.415,2.101 C 8.62,1.503 9.67,1.299 10.259,1.218 L 9.354,-2.128 6.841,-1.449 6.818,-1.526 c 0.955,-1.154 2.228,-3.545 1.336,-6.818 -1.136,-4.183 -3.758,-6.619 -7.982,-5.473 -4.871,1.321 -4.948,7.062 -3.943,10.756 0.38,1.409 0.647,2.395 1.109,3.785 -3.35,0.906 -5.392,0.154 -6.365,-3.422 -0.548,-2.02 -0.376,-4.392 0.452,-6.171 l -3.096,0.638 z"
               inkscape:connector-curvature="0" />
          </g>
          <g
             transform="translate(218.1938,364.9521)"
             id="g5606">
            <path
               id="path5608"
               style="fill:#981a1f;fill-opacity:1;fill-rule:nonzero;stroke:none"
               d="M 0,0 1.435,3.289 4.364,2.01 4.396,2.083 C 2.739,4.011 2.544,7.02 3.667,9.586 c 2.083,4.772 5.976,5.612 10.929,3.45 L 25.548,8.255 24.067,4.857 14.524,9.023 C 10.223,10.899 7.714,10.875 6.239,7.991 4.55,4.122 6.904,1.03 11.386,-0.926 l 8.53,-3.721 -1.48,-3.398 L 0,0 z"
               inkscape:connector-curvature="0" />
          </g>
          <g
             transform="translate(244.9551,394.02)"
             id="g5610">
            <path
               id="path5612"
               style="fill:#981a1f;fill-opacity:1;fill-rule:nonzero;stroke:none"
               d="m 0,0 c -0.417,-0.668 -0.901,-1.295 -1.317,-1.965 -1.064,-1.707 -3.428,-6.089 -0.412,-7.968 1.806,-1.128 3.861,0.009 4.758,1.446 1.942,3.113 1.023,5.963 -1.521,7.549 L 0,0 z m -13.55,-4.514 c 0.045,2.157 0.543,4.448 1.901,6.623 3.047,4.886 6.687,5.356 11.336,2.456 L 6.75,0.163 c 1.938,-1.211 2.884,-1.709 3.428,-1.954 L 8.339,-4.736 6.135,-3.359 6.089,-3.425 c 0.58,-1.383 1.109,-4.036 -0.683,-6.916 -2.296,-3.68 -5.51,-5.254 -9.222,-2.938 -4.284,2.671 -2.704,8.19 -0.68,11.436 0.774,1.239 1.318,2.108 2.155,3.305 -2.942,1.836 -5.116,1.705 -7.08,-1.442 -1.105,-1.772 -1.626,-4.097 -1.345,-6.037 l -2.784,1.503 z"
               inkscape:connector-curvature="0" />
          </g>
          <g
             transform="translate(260.2803,414.334)"
             id="g5614">
            <path
               id="path5616"
               style="fill:#981a1f;fill-opacity:1;fill-rule:nonzero;stroke:none"
               d="m 0,0 c -3.196,2.698 -7.185,3.541 -9.734,0.527 -2.417,-2.863 -0.512,-6.904 2.11,-9.118 2.893,-2.444 6.8,-2.956 9.041,-0.305 C 3.658,-6.246 2.861,-2.42 0,0 m 9.231,-2.95 c 4.672,-3.945 5.32,-8.624 0.657,-14.138 -1.377,-1.628 -2.784,-2.866 -5.714,-4.623 l -2.368,2.517 c 2.83,1.329 4.315,2.294 6.071,4.374 2.522,2.983 2.006,6.467 -1.249,9.217 L 5.12,-4.331 5.07,-4.389 c 0.58,-2.556 -0.317,-5.207 -1.973,-7.167 -3.717,-4.398 -9.137,-3.538 -13.116,-0.176 -3.948,3.336 -6.284,9.131 -2.359,13.772 2.291,2.711 4.559,3.379 6.927,2.822 L -5.396,4.921 -7.688,6.857 -5.474,9.478 9.231,-2.95 z"
               inkscape:connector-curvature="0" />
          </g>
          <g
             transform="translate(276.5469,432.9258)"
             id="g5618">
            <path
               id="path5620"
               style="fill:#981a1f;fill-opacity:1;fill-rule:nonzero;stroke:none"
               d="m 0,0 c -2.037,2.307 -5.066,2.997 -7.461,0.883 -2.721,-2.402 -1.861,-5.641 -0.344,-7.774 L 0,0 z M 9.19,-6.775 C 8.466,-8.1 7.778,-9.761 5.292,-11.955 c -5.351,-4.724 -10.68,-3.637 -15.012,1.27 -3.939,4.464 -3.926,10.11 0.335,13.868 C -4.36,7.62 0.502,5.39 4.786,0.541 L -5.98,-8.962 c 2.639,-2.986 6.777,-2.963 9.407,-0.641 1.834,1.619 3.129,4.444 3.31,5.605 L 9.19,-6.775 z"
               inkscape:connector-curvature="0" />
          </g>
          <g
             transform="translate(280.771,447.0986)"
             id="g5622">
            <path
               id="path5624"
               style="fill:#981a1f;fill-opacity:1;fill-rule:nonzero;stroke:none"
               d="m 0,0 2.975,1.793 1.507,-2.501 0.068,0.04 c 0.018,2.728 1.191,4.679 3.726,6.207 1.996,1.202 4.6,1.39 6.922,-0.392 -0.303,3.181 1.771,5.628 3.323,6.565 4.396,2.649 7.697,0.767 9.96,-2.985 l 6.66,-11.059 -3.178,-1.915 -6.193,10.28 c -1.282,2.13 -3.4,4.495 -5.972,2.947 -3.246,-1.956 -2.612,-5.908 -0.679,-9.121 l 5.238,-8.69 -3.178,-1.915 -6.194,10.28 C 13.7,1.664 11.585,4.029 9.014,2.481 5.768,0.525 6.397,-3.427 8.335,-6.64 L 13.568,-15.33 10.39,-17.245 0,0 z"
               inkscape:connector-curvature="0" />
          </g>
          <g
             transform="translate(329.73,462.8018)"
             id="g5626">
            <path
               id="path5628"
               style="fill:#981a1f;fill-opacity:1;fill-rule:nonzero;stroke:none"
               d="m 0,0 c -1.087,2.879 -3.676,4.602 -6.669,3.475 -3.395,-1.284 -3.74,-4.618 -3.079,-7.154 L 0,0 z m 6.198,-9.601 c -1.15,-0.982 -2.382,-2.29 -5.488,-3.461 -6.682,-2.523 -11.277,0.383 -13.59,6.513 -2.106,5.575 -0.091,10.85 5.229,12.858 6.275,2.368 10.037,-1.444 12.318,-7.5 L -8.77,-6.264 c 1.404,-3.73 5.284,-5.176 8.571,-3.936 2.29,0.865 4.504,3.049 5.088,4.072 l 1.309,-3.473 z"
               inkscape:connector-curvature="0" />
          </g>
          <g
             transform="translate(338.2231,474.0659)"
             id="g5630">
            <path
               id="path5632"
               style="fill:#981a1f;fill-opacity:1;fill-rule:nonzero;stroke:none"
               d="m 0,0 3.509,0.767 0.679,-3.123 0.082,0.018 c 0.588,2.471 2.915,4.393 5.654,4.991 5.089,1.111 8.054,-1.555 9.204,-6.837 l 2.554,-11.68 -3.627,-0.792 -2.223,10.177 c -1,4.589 -2.49,6.605 -5.695,6.107 -4.125,-0.9 -5.252,-4.62 -4.206,-9.4 L 7.918,-18.87 4.292,-19.663 0,0 z"
               inkscape:connector-curvature="0" />
          </g>
          <g
             transform="translate(375.2979,476.8999)"
             id="g5634">
            <path
               id="path5636"
               style="fill:#981a1f;fill-opacity:1;fill-rule:nonzero;stroke:none"
               d="m 0,0 -5.311,-0.478 0.987,-10.972 c 0.213,-2.322 1.739,-3.452 3.432,-3.3 1.141,0.102 1.933,0.53 2.454,0.935 l 0.281,-3.147 c -0.802,-0.31 -1.915,-0.729 -3.097,-0.835 -3.817,-0.342 -6.339,1.254 -6.696,5.268 l -1.055,11.718 -4.523,-0.405 -0.272,2.988 4.523,0.408 -0.416,4.64 3.59,1.513 0.525,-5.82 5.31,0.477 L 0,0 z"
               inkscape:connector-curvature="0" />
          </g>
          <g
             transform="translate(362.6167,100.9346)"
             id="g5638">
            <path
               id="path5640"
               style="fill:#981a1f;fill-opacity:1;fill-rule:nonzero;stroke:none"
               d="m 0,0 -5.727,0.91 c -9.381,1.498 -15.285,-2.2 -16.851,-12.02 -1.417,-8.887 3.803,-15.09 11.658,-16.344 L -4.541,-28.473 0,0 z m 0.149,-34.141 -11.236,1.793 c -11.292,1.802 -19.174,10.218 -17.304,21.944 2.033,12.762 10.834,18.123 23.374,16.122 L 6.22,3.93 0.149,-34.141 z"
               inkscape:connector-curvature="0" />
          </g>
          <g
             transform="translate(307.9531,105.8242)"
             id="g5642">
            <path
               id="path5644"
               style="fill:#981a1f;fill-opacity:1;fill-rule:nonzero;stroke:none"
               d="m 0,0 c 1.042,-0.376 2.042,-0.855 3.079,-1.228 2.648,-0.959 9.339,-2.906 11.028,1.771 1.01,2.803 -1.145,5.283 -3.377,6.09 C 5.899,8.375 2.269,6.284 0.847,2.336 L 0,0 z m 10.16,-17.227 c -2.966,-0.57 -6.248,-0.561 -9.626,0.662 -7.578,2.734 -9.294,7.578 -6.686,14.794 L -2.2,9.186 c 1.091,3.01 1.489,4.451 1.67,5.27 L 4.039,12.803 2.803,9.376 2.902,9.34 c 1.725,1.195 5.202,2.698 9.666,1.087 C 18.282,8.366 21.378,4.432 19.3,-1.331 16.901,-7.978 8.883,-7.435 3.844,-5.614 c -1.92,0.692 -3.269,1.181 -5.157,1.978 -1.648,-4.568 -0.828,-7.506 4.052,-9.267 2.753,-0.992 6.085,-1.024 8.657,-0.073 l -1.236,-4.251 z"
               inkscape:connector-curvature="0" />
          </g>
          <g
             transform="translate(273.731,110.5684)"
             id="g5646">
            <path
               id="path5648"
               style="fill:#981a1f;fill-opacity:1;fill-rule:nonzero;stroke:none"
               d="m 0,0 6.587,-3.495 7.226,13.618 c 1.526,2.88 0.598,5.374 -1.499,6.488 -1.417,0.751 -2.675,0.856 -3.59,0.779 l 2.069,3.903 c 1.182,-0.249 2.803,-0.611 4.27,-1.386 4.73,-2.512 6.469,-6.311 3.83,-11.291 l -7.715,-14.542 5.614,-2.979 -1.969,-3.708 -5.615,2.974 -3.055,-5.758 -5.365,0.968 3.835,7.226 -6.592,3.495 L 0,0 z"
               inkscape:connector-curvature="0" />
          </g>
          <g
             transform="translate(256.459,134.958)"
             id="g5650">
            <path
               id="path5652-8"
               style="fill:#981a1f;fill-opacity:1;fill-rule:nonzero;stroke:none"
               d="m 0,0 c 0.896,-0.647 1.725,-1.386 2.617,-2.038 2.281,-1.656 8.176,-5.387 11.096,-1.367 1.752,2.418 0.371,5.401 -1.552,6.796 C 8.004,6.41 3.93,5.41 1.462,2.015 L 0,0 z m 4.976,-19.387 c -3.011,0.277 -6.166,1.2 -9.073,3.31 -6.524,4.74 -6.827,9.874 -2.314,16.09 l 6.85,9.43 c 1.884,2.595 2.671,3.867 3.07,4.605 L 7.443,11.191 5.302,8.239 5.392,8.172 c 1.988,0.674 5.75,1.149 9.594,-1.64 4.916,-3.571 6.804,-8.221 3.196,-13.183 -4.156,-5.723 -11.712,-2.965 -16.05,0.185 -1.652,1.2 -2.816,2.047 -4.404,3.337 -2.857,-3.934 -2.889,-6.985 1.312,-10.037 2.373,-1.721 5.569,-2.676 8.308,-2.48 l -2.372,-3.741 z"
               inkscape:connector-curvature="0" />
          </g>
          <g
             transform="translate(225.0571,148.2051)"
             id="g5654">
            <path
               id="path5656"
               style="fill:#981a1f;fill-opacity:1;fill-rule:nonzero;stroke:none"
               d="m 0,0 c 3.925,-4.043 9.652,-2.251 13.415,1.407 3.368,3.27 5.835,9.055 1.756,13.252 C 11.287,18.661 5.193,15.977 2.101,12.816 -1.621,9.357 -3.925,4.038 0,0 m -2.612,-21.406 -3.622,3.726 12.283,11.925 -0.077,0.082 c -2.979,-0.661 -6.329,0.014 -9.752,3.54 -5.696,5.863 -3.672,13.369 1.757,18.644 5.541,5.387 13.432,8.045 19.358,1.947 3.505,-3.608 3.912,-7.674 3.369,-10.128 l 0.077,-0.077 2.852,2.77 3.463,-3.567 -29.708,-28.862 z"
               inkscape:connector-curvature="0" />
          </g>
          <g
             transform="translate(207.7402,187.8643)"
             id="g5658">
            <path
               id="path5660"
               style="fill:#981a1f;fill-opacity:1;fill-rule:nonzero;stroke:none"
               d="m 0,0 c 0.625,-0.914 1.159,-1.888 1.784,-2.798 1.593,-2.322 5.899,-7.814 9.996,-4.998 2.463,1.689 2.159,4.962 0.815,6.922 C 9.684,3.364 5.51,3.78 2.051,1.408 L 0,0 z m -1.802,-19.934 c -2.743,1.268 -5.406,3.192 -7.438,6.153 -4.564,6.65 -3.129,11.59 3.2,15.936 l 9.612,6.596 c 2.644,1.816 3.812,2.749 4.432,3.31 L 10.757,8.054 7.751,5.989 7.814,5.899 c 2.096,-0.036 5.804,-0.842 8.494,-4.762 3.436,-5.008 3.658,-10.02 -1.399,-13.488 -5.832,-4.002 -12.03,1.123 -15.063,5.541 -1.159,1.69 -1.97,2.872 -3.038,4.619 -4.007,-2.748 -5.057,-5.614 -2.119,-9.897 1.657,-2.413 4.351,-4.387 6.999,-5.116 l -3.49,-2.73 z"
               inkscape:connector-curvature="0" />
          </g>
          <g
             transform="translate(206.8164,204.6836)"
             id="g5662">
            <path
               id="path5664"
               style="fill:#981a1f;fill-opacity:1;fill-rule:nonzero;stroke:none"
               d="m 0,0 c 0.285,2.417 -0.421,5.338 -1.082,6.673 -1.05,2.128 -3.237,4.314 -5.962,2.966 -4.605,-2.273 1.199,-13.021 -5.881,-16.521 -5.248,-2.594 -9.707,0.069 -12.179,5.07 -1.078,2.178 -1.512,4.179 -1.875,6.281 l 4.256,1.611 c -0.131,-1.358 0.598,-4.45 1.137,-5.537 1.172,-2.377 3.191,-3.966 5.274,-2.939 5.148,2.545 -1.748,12.754 6.325,16.743 C -4.59,17.014 0.014,13.931 2.241,9.426 3.418,7.049 4.369,4.5 4.283,1.807 L 0,0 z"
               inkscape:connector-curvature="0" />
          </g>
          <g
             transform="translate(179.2588,242.0742)"
             id="g5666">
            <path
               id="path5668-0"
               style="fill:#981a1f;fill-opacity:1;fill-rule:nonzero;stroke:none"
               d="m 0,0 c -4.093,-1.344 -6.66,-4.861 -5.261,-9.113 1.589,-4.83 6.234,-5.514 9.82,-4.741 L 0,0 z m 13.804,8.091 c 1.303,-1.666 3.06,-3.472 4.509,-7.882 3.124,-9.503 -1.218,-15.755 -9.929,-18.621 -7.927,-2.608 -15.18,0.534 -17.67,8.091 C -12.22,-1.398 -6.66,3.627 1.951,6.461 L 8.23,-12.645 c 5.302,1.744 7.561,7.082 6.026,11.749 -1.068,3.255 -3.993,6.484 -5.387,7.362 l 4.935,1.625 z"
               inkscape:connector-curvature="0" />
          </g>
          <g
             transform="translate(154.8833,293.1934)"
             id="g5670">
            <path
               id="path5672"
               style="fill:#981a1f;fill-opacity:1;fill-rule:nonzero;stroke:none"
               d="m 0,0 c -0.892,-2.893 -1.268,-4.473 -1.05,-7.339 0.231,-3.088 1.607,-6.641 5.632,-6.334 7.384,0.558 4.423,16.96 17.1,17.92 8.208,0.625 11.938,-5.47 12.526,-13.185 0.205,-2.697 -0.366,-5.4 -1.004,-8 l -5.166,0.165 c 0.629,1.932 1.481,5.319 1.268,8.13 -0.236,3.142 -2.332,7.416 -6.855,7.072 -8.593,-0.648 -4.971,-17 -16.932,-17.906 -6.832,-0.521 -10.879,4.604 -11.405,11.549 -0.19,2.535 0.018,5.601 0.757,8.317 L 0,0 z"
               inkscape:connector-curvature="0" />
          </g>
          <g
             transform="translate(194.9502,304.3169)"
             id="g5674">
            <path
               id="path5676"
               style="fill:#981a1f;fill-opacity:1;fill-rule:nonzero;stroke:none"
               d="M 0,0 C 0.272,0.647 0.553,1.512 0.616,2.395 0.951,7.022 -5.333,9.028 -5.881,9.068 -6.487,9.109 -7.968,8.552 -8.928,8.29 l -26.92,-7.651 0.412,5.677 23.796,5.876 0.01,0.114 -22.701,9.385 0.376,5.233 27.966,-12.423 C -0.729,12.183 5.352,9.698 4.863,2.866 4.74,1.213 4.455,0.29 4.22,-0.634 L 0,0 z"
               inkscape:connector-curvature="0" />
          </g>
          <g
             transform="translate(184.6372,335.1621)"
             id="g5678">
            <path
               id="path5680"
               style="fill:#981a1f;fill-opacity:1;fill-rule:nonzero;stroke:none"
               d="m 0,0 c 1.716,1.734 2.956,4.468 3.26,5.931 0.479,2.327 0.094,5.392 -2.88,6.007 -5.034,1.041 -7.071,-11.01 -14.809,-9.412 -5.736,1.186 -7.615,6.031 -6.483,11.499 0.489,2.382 1.381,4.229 2.391,6.108 l 4.346,-1.349 c -0.937,-0.992 -2.268,-3.876 -2.513,-5.066 -0.539,-2.599 0.077,-5.098 2.35,-5.565 C -8.711,6.99 -7.864,19.286 0.955,17.462 6.854,16.244 8.588,10.979 7.57,6.053 7.035,3.454 6.216,0.86 4.491,-1.209 L 0,0 z"
               inkscape:connector-curvature="0" />
          </g>
          <g
             transform="translate(177.7646,380.4312)"
             id="g5682">
            <path
               id="path5684"
               style="fill:#981a1f;fill-opacity:1;fill-rule:nonzero;stroke:none"
               d="m 0,0 -2.359,-7.077 14.624,-4.876 c 3.091,-1.029 5.401,0.297 6.152,2.552 0.503,1.521 0.398,2.777 0.172,3.669 l 4.193,-1.396 c -0.05,-1.207 -0.141,-2.866 -0.661,-4.439 -1.698,-5.085 -5.157,-7.426 -10.504,-5.644 l -15.619,5.207 -2.011,-6.029 -3.984,1.329 2.011,6.028 -6.185,2.06 0.068,5.453 7.76,-2.587 2.359,7.076 L 0,0 z"
               inkscape:connector-curvature="0" />
          </g>
          <g
             transform="translate(196.6934,404.333)"
             id="g5686">
            <path
               id="path5688"
               style="fill:#981a1f;fill-opacity:1;fill-rule:nonzero;stroke:none"
               d="m 0,0 c -3.853,1.931 -8.154,1.245 -10.159,-2.755 -2.278,-4.543 0.534,-8.301 3.621,-10.279 L 0,0 z M 15.483,-3.995 C 15.234,-6.094 15.208,-8.613 13.125,-12.76 8.643,-21.697 1.159,-23.074 -7.04,-18.963 c -7.457,3.737 -10.386,11.079 -6.818,18.189 4.206,8.394 11.69,8.038 19.789,3.98 l -9.014,-17.974 c 4.989,-2.502 10.35,-0.308 12.554,4.086 1.535,3.06 1.739,7.409 1.372,9.014 l 4.64,-2.327 z"
               inkscape:connector-curvature="0" />
          </g>
          <g
             transform="translate(196.1318,426.9927)"
             id="g5690">
            <path
               id="path5692"
               style="fill:#981a1f;fill-opacity:1;fill-rule:nonzero;stroke:none"
               d="M 0,0 3.038,3.798 6.234,1.243 6.302,1.331 c -1.303,3.59 -0.706,6.721 1.884,9.958 2.032,2.546 5.365,4.056 9.276,2.838 -1.942,4.032 -0.407,8.251 1.182,10.237 4.486,5.609 9.733,4.738 14.523,0.906 L 47.279,13.982 44.033,9.926 30.917,20.42 c -2.72,2.176 -6.646,4.254 -9.271,0.976 C 18.332,17.253 21.08,12.369 25.177,9.088 L 36.264,0.217 33.023,-3.839 19.902,6.655 C 17.186,8.831 13.256,10.909 10.635,7.631 7.321,3.488 10.064,-1.397 14.167,-4.677 L 25.254,-13.548 22.008,-17.605 0,0 z"
               inkscape:connector-curvature="0" />
          </g>
          <g
             transform="translate(246.4082,450.4331)"
             id="g5694">
            <path
               id="path5696"
               style="fill:#981a1f;fill-opacity:1;fill-rule:nonzero;stroke:none"
               d="M 0,0 C 2.413,0.328 5.066,1.734 6.198,2.705 8,4.253 9.571,6.916 7.588,9.22 4.242,13.113 -4.727,4.821 -9.874,10.809 c -3.816,4.439 -2.345,9.419 1.883,13.057 1.843,1.584 3.677,2.504 5.619,3.375 L 0.245,23.52 C -1.1,23.307 -3.916,21.835 -4.835,21.043 -6.845,19.313 -7.887,16.964 -6.37,15.205 -2.626,10.85 5.546,20.065 11.418,13.238 15.343,8.674 13.496,3.447 9.688,0.169 7.679,-1.558 5.446,-3.113 2.816,-3.697 L 0,0 z"
               inkscape:connector-curvature="0" />
          </g>
          <g
             transform="translate(292.2793,491.4644)"
             id="g5698">
            <path
               id="path5700-3"
               style="fill:#981a1f;fill-opacity:1;fill-rule:nonzero;stroke:none"
               d="m 0,0 c -0.978,-0.514 -2.005,-0.93 -2.983,-1.444 -2.495,-1.308 -8.448,-4.935 -6.135,-9.336 1.386,-2.639 4.672,-2.72 6.773,-1.616 4.546,2.388 5.451,6.481 3.5,10.196 L 0,0 z m -19.571,4.126 c 1.579,2.577 3.802,4.992 6.981,6.661 7.135,3.751 11.87,1.745 15.438,-5.049 L 8.267,-4.577 c 1.49,-2.834 2.282,-4.102 2.762,-4.786 l -4.301,-2.259 -1.693,3.226 -0.1,-0.05 c -0.276,-2.08 -1.517,-5.661 -5.718,-7.87 -5.379,-2.826 -10.377,-2.456 -13.224,2.969 -3.287,6.257 2.53,11.808 7.271,14.298 1.806,0.95 3.078,1.618 4.939,2.472 -2.259,4.301 -4.98,5.677 -9.576,3.264 -2.589,-1.36 -4.862,-3.803 -5.898,-6.343 l -2.3,3.782 z"
               inkscape:connector-curvature="0" />
          </g>
          <g
             transform="translate(304.0508,512.9399)"
             id="g5702">
            <path
               id="path5704"
               style="fill:#981a1f;fill-opacity:1;fill-rule:nonzero;stroke:none"
               d="m 0,0 4.785,1.539 1.367,-4.258 0.105,0.034 C 6.75,0.837 9.734,3.826 13.464,5.028 20.4,7.257 24.887,3.946 27.205,-3.255 L 32.33,-19.18 27.386,-20.769 22.922,-6.893 C 20.912,-0.638 18.566,1.969 14.17,0.847 8.547,-0.962 7.479,-6.295 9.575,-12.813 L 13.564,-25.215 8.625,-26.804 0,0 z"
               inkscape:connector-curvature="0" />
          </g>
          <g
             transform="translate(357.5596,501.0576)"
             id="g5706">
            <path
               id="path5708"
               style="fill:#981a1f;fill-opacity:1;fill-rule:nonzero;stroke:none"
               d="M 0,0 C 5.804,0.766 7.457,6.832 6.841,11.486 6.157,16.686 2.775,21.644 -2.812,20.908 -8.398,20.172 -9.893,14.628 -9.114,9.551 -8.647,5.155 -5.533,-0.729 0,0 M 8.375,1.549 8.262,1.535 c -1.091,-2.262 -3.934,-5.198 -8.919,-5.856 -8.429,-1.109 -12.98,5.922 -13.98,13.532 -0.991,7.502 2.078,14.646 10.182,15.715 4.872,0.64 7.918,-0.908 9.847,-3.271 L 5.5,21.668 3.264,38.644 8.407,39.32 13.822,-1.743 8.892,-2.393 8.375,1.549 z"
               inkscape:connector-curvature="0" />
          </g>
          <path
             id="path5710-7"
             style="fill:#981a1f;fill-opacity:1;fill-rule:nonzero;stroke:none"
             d="m 472.785,393.25 -73.977,0 0,41.371 73.977,0 0,-41.371 z"
             inkscape:connector-curvature="0" />
          <path
             id="path5712"
             style="fill:#981a1f;fill-opacity:1;fill-rule:nonzero;stroke:none"
             d="m 398.809,366.018 73.977,0 0,-198.932 -73.977,0 0,198.932 z"
             inkscape:connector-curvature="0" />
        </g>
      </g>
    </g>
  </g>
</svg>
