<?xml version="1.0" standalone="yes"?>

<svg version="1.1" viewBox="0.0 0.0 1370.0 368.0" fill="none" stroke="none" stroke-linecap="square" stroke-miterlimit="10" xmlns="http://www.w3.org/2000/svg" xmlns:xlink="http://www.w3.org/1999/xlink"><clipPath id="p.0"><path d="m0 0l1370.0 0l0 368.0l-1370.0 0l0 -368.0z" clip-rule="nonzero"></path></clipPath><g clip-path="url(#p.0)"><path fill="#000000" fill-opacity="0.0" d="m0 0l1370.4672 0l0 368.6824l-1370.4672 0z" fill-rule="nonzero"></path><path fill="#a7dbd8" d="m51.52859 134.99155l0 0c0 -20.388298 16.548176 -36.916275 36.961384 -36.916275l0 0c9.8027725 0 19.204048 3.8893814 26.13565 10.8125305c6.9316025 6.9231415 10.825737 16.312943 10.825737 26.103745l0 0c0 20.388306 -16.548172 36.91629 -36.961388 36.91629l0 0c-20.413208 0 -36.961384 -16.527985 -36.961384 -36.91629z" fill-rule="nonzero"></path><path stroke="#000000" stroke-width="2.0" stroke-linejoin="round" stroke-linecap="butt" d="m51.52859 134.99155l0 0c0 -20.388298 16.548176 -36.916275 36.961384 -36.916275l0 0c9.8027725 0 19.204048 3.8893814 26.13565 10.8125305c6.9316025 6.9231415 10.825737 16.312943 10.825737 26.103745l0 0c0 20.388306 -16.548172 36.91629 -36.961388 36.91629l0 0c-20.413208 0 -36.961384 -16.527985 -36.961384 -36.91629z" fill-rule="nonzero"></path><path fill="#000000" d="m93.783104 142.1278q0 0.109375 -0.046875 0.1875q-0.046875 0.078125 -0.203125 0.125q-0.140625 0.046875 -0.4375 0.0625q-0.296875 0.03125 -0.8125 0.03125q-0.4375 0 -0.703125 -0.03125q-0.25 -0.015625 -0.40625 -0.0625q-0.140625 -0.0625 -0.203125 -0.140625q-0.0625 -0.09375 -0.09375 -0.21875l-1.1875 -2.96875q-0.21875 -0.5 -0.421875 -0.890625q-0.203125 -0.390625 -0.453125 -0.640625q-0.25 -0.265625 -0.578125 -0.390625q-0.328125 -0.140625 -0.765625 -0.140625l-0.84375 0l0 5.046875q0 0.109375 -0.0625 0.1875q-0.0625 0.078125 -0.21875 0.140625q-0.15625 0.046875 -0.421875 0.078125q-0.25 0.03125 -0.640625 0.03125q-0.390625 0 -0.65625 -0.03125q-0.265625 -0.03125 -0.421875 -0.078125q-0.15625 -0.0625 -0.21875 -0.140625q-0.046875 -0.078125 -0.046875 -0.1875l0 -12.046875q0 -0.453125 0.21875 -0.640625q0.234375 -0.203125 0.578125 -0.203125l3.4375 0q0.515625 0 0.84375 0.015625q0.34375 0.015625 0.625 0.046875q0.796875 0.125 1.4375 0.40625q0.640625 0.265625 1.078125 0.71875q0.453125 0.4375 0.6875 1.046875q0.25 0.609375 0.25 1.40625q0 0.65625 -0.171875 1.21875q-0.171875 0.546875 -0.5 0.984375q-0.328125 0.421875 -0.8125 0.734375q-0.484375 0.3125 -1.09375 0.515625q0.296875 0.140625 0.546875 0.34375q0.265625 0.203125 0.5 0.5q0.234375 0.296875 0.4375 0.671875q0.203125 0.375 0.40625 0.84375l1.109375 2.609375q0.15625 0.390625 0.203125 0.578125q0.0625 0.171875 0.0625 0.28125zm-3.484375 -9.015625q0 -0.65625 -0.296875 -1.09375q-0.296875 -0.453125 -0.96875 -0.640625q-0.203125 -0.046875 -0.46875 -0.078125q-0.265625 -0.03125 -0.71875 -0.03125l-1.21875 0l0 3.765625l1.375 0q0.578125 0 1.0 -0.140625q0.4375 -0.140625 0.71875 -0.390625q0.296875 -0.25 0.4375 -0.59375q0.140625 -0.359375 0.140625 -0.796875z" fill-rule="nonzero"></path><path fill="#f3b33f" d="m178.9694 192.48973l0 0c0 -20.38829 16.548187 -36.916275 36.961395 -36.916275l0 0c9.802765 0 19.20404 3.8893738 26.13565 10.8125305c6.931595 6.9231415 10.825729 16.312943 10.825729 26.103745l0 0c0 20.388306 -16.548172 36.91629 -36.96138 36.91629l0 0c-20.413208 0 -36.961395 -16.527985 -36.961395 -36.91629z" fill-rule="nonzero"></path><path stroke="#000000" stroke-width="2.0" stroke-linejoin="round" stroke-linecap="butt" d="m178.9694 192.48973l0 0c0 -20.38829 16.548187 -36.916275 36.961395 -36.916275l0 0c9.802765 0 19.20404 3.8893738 26.13565 10.8125305c6.931595 6.9231415 10.825729 16.312943 10.825729 26.103745l0 0c0 20.388306 -16.548172 36.91629 -36.96138 36.91629l0 0c-20.413208 0 -36.961395 -16.527985 -36.961395 -36.91629z" fill-rule="nonzero"></path><path fill="#000000" d="m217.93166 196.28224q0 0.890625 -0.171875 1.625q-0.171875 0.71875 -0.578125 1.234375q-0.40625 0.5 -1.0625 0.765625q-0.65625 0.265625 -1.609375 0.265625q-0.3125 0 -0.625 -0.046875q-0.296875 -0.046875 -0.546875 -0.125q-0.25 -0.0625 -0.4375 -0.140625q-0.1875 -0.078125 -0.25 -0.140625q-0.0625 -0.078125 -0.109375 -0.140625q-0.03125 -0.078125 -0.0625 -0.1875q-0.03125 -0.125 -0.046875 -0.296875q0 -0.1875 0 -0.453125q0 -0.34375 0.015625 -0.578125q0.015625 -0.25 0.046875 -0.390625q0.046875 -0.140625 0.109375 -0.1875q0.0625 -0.0625 0.171875 -0.0625q0.09375 0 0.203125 0.078125q0.125 0.0625 0.28125 0.140625q0.15625 0.0625 0.359375 0.125q0.203125 0.0625 0.484375 0.0625q0.28125 0 0.484375 -0.0625q0.21875 -0.078125 0.34375 -0.265625q0.140625 -0.203125 0.203125 -0.515625q0.078125 -0.3125 0.078125 -0.8125l0 -9.125q0 -0.09375 0.0625 -0.171875q0.078125 -0.078125 0.21875 -0.125q0.15625 -0.0625 0.421875 -0.078125q0.265625 -0.03125 0.65625 -0.03125q0.390625 0 0.640625 0.03125q0.265625 0.015625 0.421875 0.078125q0.15625 0.046875 0.21875 0.125q0.078125 0.078125 0.078125 0.171875l0 9.234375z" fill-rule="nonzero"></path><path fill="#69d2e7" d="m51.52859 240.03041l0 0c0 -20.388306 16.548176 -36.91629 36.961384 -36.91629l0 0c9.8027725 0 19.204048 3.889389 26.13565 10.8125305c6.9316025 6.9231415 10.825737 16.312943 10.825737 26.10376l0 0c0 20.38829 -16.548172 36.916275 -36.961388 36.916275l0 0c-20.413208 0 -36.961384 -16.527985 -36.961384 -36.916275z" fill-rule="nonzero"></path><path stroke="#000000" stroke-width="2.0" stroke-linejoin="round" stroke-linecap="butt" d="m51.52859 240.03041l0 0c0 -20.388306 16.548176 -36.91629 36.961384 -36.91629l0 0c9.8027725 0 19.204048 3.889389 26.13565 10.8125305c6.9316025 6.9231415 10.825737 16.312943 10.825737 26.10376l0 0c0 20.38829 -16.548172 36.916275 -36.961388 36.916275l0 0c-20.413208 0 -36.961384 -16.527985 -36.961384 -36.916275z" fill-rule="nonzero"></path><path fill="#000000" d="m95.63385 246.62228q0 0.09375 -0.046875 0.171875q-0.046875 0.0625 -0.1875 0.109375q-0.140625 0.046875 -0.359375 0.078125q-0.21875 0.03125 -0.5625 0.03125q-0.328125 0 -0.5625 -0.03125q-0.21875 -0.03125 -0.359375 -0.078125q-0.125 -0.046875 -0.1875 -0.109375q-0.046875 -0.078125 -0.046875 -0.171875l0 -9.78125l-0.015625 0l-3.484375 9.765625q-0.03125 0.125 -0.125 0.203125q-0.078125 0.078125 -0.21875 0.125q-0.140625 0.046875 -0.375 0.0625q-0.21875 0.015625 -0.53125 0.015625q-0.3125 0 -0.53125 -0.03125q-0.21875 -0.015625 -0.375 -0.0625q-0.140625 -0.0625 -0.234375 -0.125q-0.078125 -0.078125 -0.09375 -0.1875l-3.359375 -9.765625l-0.015625 0l0 9.78125q0 0.09375 -0.0625 0.171875q-0.046875 0.0625 -0.1875 0.109375q-0.140625 0.046875 -0.359375 0.078125q-0.21875 0.03125 -0.5625 0.03125q-0.328125 0 -0.5625 -0.03125q-0.21875 -0.03125 -0.359375 -0.078125q-0.125 -0.046875 -0.171875 -0.109375q-0.046875 -0.078125 -0.046875 -0.171875l0 -10.703125q0 -0.46875 0.25 -0.71875q0.25 -0.25 0.671875 -0.25l1.59375 0q0.421875 0 0.71875 0.078125q0.3125 0.0625 0.53125 0.21875q0.234375 0.15625 0.375 0.421875q0.15625 0.265625 0.265625 0.65625l2.59375 7.15625l0.03125 0l2.703125 -7.140625q0.109375 -0.390625 0.25 -0.65625q0.15625 -0.265625 0.34375 -0.421875q0.1875 -0.171875 0.4375 -0.234375q0.265625 -0.078125 0.609375 -0.078125l1.640625 0q0.25 0 0.4375 0.0625q0.1875 0.0625 0.296875 0.1875q0.109375 0.125 0.171875 0.3125q0.0625 0.171875 0.0625 0.40625l0 10.703125z" fill-rule="nonzero"></path><path fill="#000000" fill-opacity="0.0" d="m125.45136 134.99155l53.518044 57.498184" fill-rule="nonzero"></path><path stroke="#000000" stroke-width="2.0" stroke-linejoin="round" stroke-linecap="butt" d="m125.45136 134.99155l45.34223 48.714325" fill-rule="evenodd"></path><path fill="#000000" stroke="#000000" stroke-width="2.0" stroke-linecap="butt" d="m168.37549 185.95659l8.601883 4.3929443l-3.765686 -8.894363z" fill-rule="evenodd"></path><path fill="#000000" fill-opacity="0.0" d="m125.45136 240.03041l53.518044 -47.54068" fill-rule="nonzero"></path><path stroke="#000000" stroke-width="2.0" stroke-linejoin="round" stroke-linecap="butt" d="m125.45136 240.03041l44.546562 -39.571213" fill-rule="evenodd"></path><path fill="#000000" stroke="#000000" stroke-width="2.0" stroke-linecap="butt" d="m172.19183 202.92894l4.5916595 -8.497452l-8.979477 3.5579681z" fill-rule="evenodd"></path><path fill="#a7dbd8" d="m306.40808 192.48973l0 0c0 -20.38829 16.548187 -36.916275 36.961395 -36.916275l0 0c9.802765 0 19.20404 3.8893738 26.13565 10.8125305c6.9315796 6.9231415 10.825714 16.312943 10.825714 26.103745l0 0c0 20.388306 -16.548157 36.91629 -36.961365 36.91629l0 0c-20.413208 0 -36.961395 -16.527985 -36.961395 -36.91629z" fill-rule="nonzero"></path><path stroke="#000000" stroke-width="2.0" stroke-linejoin="round" stroke-linecap="butt" d="m306.40808 192.48973l0 0c0 -20.38829 16.548187 -36.916275 36.961395 -36.916275l0 0c9.802765 0 19.20404 3.8893738 26.13565 10.8125305c6.9315796 6.9231415 10.825714 16.312943 10.825714 26.103745l0 0c0 20.388306 -16.548157 36.91629 -36.961365 36.91629l0 0c-20.413208 0 -36.961395 -16.527985 -36.961395 -36.91629z" fill-rule="nonzero"></path><path fill="#000000" d="m348.6626 199.62599q0 0.109375 -0.046875 0.1875q-0.046875 0.078125 -0.203125 0.125q-0.140625 0.046875 -0.4375 0.0625q-0.296875 0.03125 -0.8125 0.03125q-0.4375 0 -0.703125 -0.03125q-0.25 -0.015625 -0.40625 -0.0625q-0.140625 -0.0625 -0.203125 -0.140625q-0.0625 -0.09375 -0.09375 -0.21875l-1.1875 -2.96875q-0.21875 -0.5 -0.421875 -0.890625q-0.203125 -0.390625 -0.453125 -0.640625q-0.25 -0.265625 -0.578125 -0.390625q-0.328125 -0.140625 -0.765625 -0.140625l-0.84375 0l0 5.046875q0 0.109375 -0.0625 0.1875q-0.0625 0.078125 -0.21875 0.140625q-0.15625 0.046875 -0.421875 0.078125q-0.25 0.03125 -0.640625 0.03125q-0.390625 0 -0.65625 -0.03125q-0.265625 -0.03125 -0.421875 -0.078125q-0.15625 -0.0625 -0.21875 -0.140625q-0.046875 -0.078125 -0.046875 -0.1875l0 -12.046875q0 -0.453125 0.21875 -0.640625q0.234375 -0.203125 0.578125 -0.203125l3.4375 0q0.515625 0 0.84375 0.015625q0.34375 0.015625 0.625 0.046875q0.796875 0.125 1.4375 0.40625q0.640625 0.265625 1.078125 0.71875q0.453125 0.4375 0.6875 1.046875q0.25 0.609375 0.25 1.40625q0 0.65625 -0.171875 1.21875q-0.171875 0.546875 -0.5 0.984375q-0.328125 0.421875 -0.8125 0.734375q-0.484375 0.3125 -1.09375 0.515625q0.296875 0.140625 0.546875 0.34375q0.265625 0.203125 0.5 0.5q0.234375 0.296875 0.4375 0.671875q0.203125 0.375 0.40625 0.84375l1.109375 2.609375q0.15625 0.390625 0.203125 0.578125q0.0625 0.171875 0.0625 0.28125zm-3.484375 -9.015625q0 -0.65625 -0.296875 -1.09375q-0.296875 -0.453125 -0.96875 -0.640625q-0.203125 -0.046875 -0.46875 -0.078125q-0.265625 -0.03125 -0.71875 -0.03125l-1.21875 0l0 3.765625l1.375 0q0.578125 0 1.0 -0.140625q0.4375 -0.140625 0.71875 -0.390625q0.296875 -0.25 0.4375 -0.59375q0.140625 -0.359375 0.140625 -0.796875z" fill-rule="nonzero"></path><path fill="#000000" fill-opacity="0.0" d="m252.89218 192.48973l53.5159 0" fill-rule="nonzero"></path><path stroke="#000000" stroke-width="2.0" stroke-linejoin="round" stroke-linecap="butt" d="m252.89218 192.48973l41.5159 0" fill-rule="evenodd"></path><path fill="#000000" stroke="#000000" stroke-width="2.0" stroke-linecap="butt" d="m294.40808 195.7932l9.076202 -3.3034668l-9.076202 -3.3034668z" fill-rule="evenodd"></path><path fill="#f3f3f3" d="m8.018288 179.88258l0 0c0 -3.560135 2.8860598 -6.4461975 6.4461946 -6.4461975l51.887142 0l0 0l25.0 0l10.220467 0c1.7096405 0 3.3492584 0.67915344 4.5581512 1.8880463c1.2088928 1.2088928 1.8880463 2.8485107 1.8880463 4.5581512l0 16.115479l0 0l0 9.669296l0 0c0 3.560135 -2.8860626 6.4461975 -6.4461975 6.4461975l-10.220467 0l-11.706337 5.9790955l-13.293663 -5.9790955l-51.887142 0l0 0c-3.560135 0 -6.4461946 -2.8860626 -6.4461946 -6.4461975l0 0l0 -9.669296l0 0z" fill-rule="nonzero"></path><path stroke="#000000" stroke-width="2.0" stroke-linejoin="round" stroke-linecap="butt" d="m8.018288 179.88258l0 0c0 -3.560135 2.8860598 -6.4461975 6.4461946 -6.4461975l51.887142 0l0 0l25.0 0l10.220467 0c1.7096405 0 3.3492584 0.67915344 4.5581512 1.8880463c1.2088928 1.2088928 1.8880463 2.8485107 1.8880463 4.5581512l0 16.115479l0 0l0 9.669296l0 0c0 3.560135 -2.8860626 6.4461975 -6.4461975 6.4461975l-10.220467 0l-11.706337 5.9790955l-13.293663 -5.9790955l-51.887142 0l0 0c-3.560135 0 -6.4461946 -2.8860626 -6.4461946 -6.4461975l0 0l0 -9.669296l0 0z" fill-rule="nonzero"></path><path fill="#000000" d="m20.468813 199.69496l0 -13.59375l9.171875 0l0 1.59375l-7.375 0l0 4.21875l6.375 0l0 1.609375l-6.375 0l0 6.171875l-1.796875 0zm11.099106 -11.6875l0 -1.90625l1.6718769 0l0 1.90625l-1.6718769 0zm0 11.6875l0 -9.859375l1.6718769 0l0 9.859375l-1.6718769 0zm4.097948 0l0 -13.59375l1.671875 0l0 13.59375l-1.671875 0zm7.832321 -1.5l0.234375 1.484375q-0.703125 0.140625 -1.265625 0.140625q-0.90625 0 -1.40625 -0.28125q-0.5 -0.296875 -0.703125 -0.75q-0.203125 -0.46875 -0.203125 -1.984375l0 -5.65625l-1.234375 0l0 -1.3125l1.234375 0l0 -2.4375l1.65625 -1.0l0 3.4375l1.6875 0l0 1.3125l-1.6875 0l0 5.75q0 0.71875 0.078125 0.921875q0.09375 0.203125 0.296875 0.328125q0.203125 0.125 0.578125 0.125q0.265625 0 0.734375 -0.078125zm8.277054 -1.671875l1.71875 0.21875q-0.40625 1.5 -1.515625 2.34375q-1.09375 0.828125 -2.8125 0.828125q-2.15625 0 -3.421875 -1.328125q-1.265625 -1.328125 -1.265625 -3.734375q0 -2.484375 1.265625 -3.859375q1.28125 -1.375 3.328125 -1.375q1.984375 0 3.234375 1.34375q1.25 1.34375 1.25 3.796875q0 0.140625 -0.015625 0.4375l-7.34375 0q0.09375 1.625 0.921875 2.484375q0.828125 0.859375 2.0625 0.859375q0.90625 0 1.546875 -0.46875q0.65625 -0.484375 1.046875 -1.546875zm-5.484375 -2.703125l5.5 0q-0.109375 -1.234375 -0.625 -1.859375q-0.796875 -0.96875 -2.078125 -0.96875q-1.140625 0 -1.9375 0.78125q-0.78125 0.765625 -0.859375 2.046875zm9.094467 5.875l0 -9.859375l1.5 0l0 1.5q0.578125 -1.046875 1.0625 -1.375q0.484375 -0.34375 1.078125 -0.34375q0.84375 0 1.71875 0.546875l-0.578125 1.546875q-0.609375 -0.359375 -1.234375 -0.359375q-0.546875 0 -0.984375 0.328125q-0.421875 0.328125 -0.609375 0.90625q-0.28125 0.890625 -0.28125 1.953125l0 5.15625l-1.671875 0zm6.243927 -11.6875l0 -1.90625l1.671875 0l0 1.90625l-1.671875 0zm0 11.6875l0 -9.859375l1.671875 0l0 9.859375l-1.671875 0zm4.1291924 0l0 -9.859375l1.5 0l0 1.40625q1.09375 -1.625 3.140625 -1.625q0.890625 0 1.640625 0.328125q0.75 0.3125 1.109375 0.84375q0.375 0.515625 0.53125 1.21875q0.09375 0.46875 0.09375 1.625l0 6.0625l-1.671875 0l0 -6.0q0 -1.015625 -0.203125 -1.515625q-0.1875 -0.515625 -0.6875 -0.8125q-0.5 -0.296875 -1.171875 -0.296875q-1.0625 0 -1.84375 0.671875q-0.765625 0.671875 -0.765625 2.578125l0 5.375l-1.671875 0zm10.078842 0.8125l1.609375 0.25q0.109375 0.75 0.578125 1.09375q0.609375 0.453125 1.6875 0.453125q1.171875 0 1.796875 -0.46875q0.625 -0.453125 0.859375 -1.28125q0.125 -0.515625 0.109375 -2.15625q-1.09375 1.296875 -2.71875 1.296875q-2.03125 0 -3.15625 -1.46875q-1.109375 -1.46875 -1.109375 -3.515625q0 -1.40625 0.515625 -2.59375q0.515625 -1.203125 1.484375 -1.84375q0.96875 -0.65625 2.265625 -0.65625q1.75 0 2.875 1.40625l0 -1.1875l1.546875 0l0 8.515625q0 2.3125 -0.46875 3.265625q-0.46875 0.96875 -1.484375 1.515625q-1.015625 0.5625 -2.5 0.5625q-1.765625 0 -2.859375 -0.796875q-1.078125 -0.796875 -1.03125 -2.390625zm1.375 -5.921875q0 1.953125 0.765625 2.84375q0.78125 0.890625 1.9375 0.890625q1.140625 0 1.921875 -0.890625q0.78125 -0.890625 0.78125 -2.78125q0 -1.8125 -0.8125 -2.71875q-0.796875 -0.921875 -1.921875 -0.921875q-1.109375 0 -1.890625 0.90625q-0.78125 0.890625 -0.78125 2.671875z" fill-rule="nonzero"></path><path fill="#f3f3f3" d="m188.52167 229.61807l0 0c0 -3.560135 2.8860626 -6.4461975 6.4461975 -6.4461975l8.110245 0l10.344666 -4.5631256l11.489975 4.5631256l44.501312 0c1.7096252 0 3.3492432 0.67915344 4.558136 1.8880463c1.2088928 1.2089081 1.8880615 2.8485107 1.8880615 4.5581512l0 0l0 0l0 9.669296l0 16.115479c0 3.560135 -2.886078 6.446213 -6.4461975 6.446213l-44.501312 0l-21.83464 0l0 0l-8.110245 0c-3.560135 0 -6.4461975 -2.886078 -6.4461975 -6.446213l0 -16.115479l0 -9.669296l0 0z" fill-rule="nonzero"></path><path stroke="#000000" stroke-width="2.0" stroke-linejoin="round" stroke-linecap="butt" d="m188.52167 229.61807l0 0c0 -3.560135 2.8860626 -6.4461975 6.4461975 -6.4461975l8.110245 0l10.344666 -4.5631256l11.489975 4.5631256l44.501312 0c1.7096252 0 3.3492432 0.67915344 4.558136 1.8880463c1.2088928 1.2089081 1.8880615 2.8485107 1.8880615 4.5581512l0 0l0 0l0 9.669296l0 16.115479c0 3.560135 -2.886078 6.446213 -6.4461975 6.446213l-44.501312 0l-21.83464 0l0 0l-8.110245 0c-3.560135 0 -6.4461975 -2.886078 -6.4461975 -6.446213l0 -16.115479l0 -9.669296l0 0z" fill-rule="nonzero"></path><path fill="#000000" d="m199.95657 245.57109l1.625 -0.21875q0.0625 1.546875 0.578125 2.125q0.53125 0.578125 1.4375 0.578125q0.6875 0 1.171875 -0.3125q0.5 -0.3125 0.671875 -0.84375q0.1875 -0.53125 0.1875 -1.703125l0 -9.359375l1.8125 0l0 9.265625q0 1.703125 -0.421875 2.640625q-0.40625 0.9375 -1.3125 1.4375q-0.890625 0.484375 -2.09375 0.484375q-1.796875 0 -2.75 -1.03125q-0.9375 -1.03125 -0.90625 -3.0625zm9.40625 -1.0625q0 -2.734375 1.53125 -4.0625q1.265625 -1.09375 3.09375 -1.09375q2.03125 0 3.3125 1.34375q1.296875 1.328125 1.296875 3.671875q0 1.90625 -0.578125 3.0q-0.5625 1.078125 -1.65625 1.6875q-1.078125 0.59375 -2.375 0.59375q-2.0625 0 -3.34375 -1.328125q-1.28125 -1.328125 -1.28125 -3.8125zm1.71875 0q0 1.890625 0.828125 2.828125q0.828125 0.9375 2.078125 0.9375q1.25 0 2.0625 -0.9375q0.828125 -0.953125 0.828125 -2.890625q0 -1.828125 -0.828125 -2.765625q-0.828125 -0.9375 -2.0625 -0.9375q-1.25 0 -2.078125 0.9375q-0.828125 0.9375 -0.828125 2.828125zm9.297592 -6.765625l0 -1.90625l1.671875 0l0 1.90625l-1.671875 0zm0 11.6875l0 -9.859375l1.671875 0l0 9.859375l-1.671875 0zm4.129196 0l0 -9.859375l1.5 0l0 1.40625q1.09375 -1.625 3.140625 -1.625q0.890625 0 1.640625 0.328125q0.75 0.3125 1.109375 0.84375q0.375 0.515625 0.53125 1.21875q0.09375 0.46875 0.09375 1.625l0 6.0625l-1.671875 0l0 -6.0q0 -1.015625 -0.203125 -1.515625q-0.1875 -0.515625 -0.6875 -0.8125q-0.5 -0.296875 -1.171875 -0.296875q-1.0625 0 -1.84375 0.671875q-0.765625 0.671875 -0.765625 2.578125l0 5.375l-1.671875 0zm10.391342 -11.6875l0 -1.90625l1.671875 0l0 1.90625l-1.671875 0zm0 11.6875l0 -9.859375l1.671875 0l0 9.859375l-1.671875 0zm4.129196 0l0 -9.859375l1.5 0l0 1.40625q1.09375 -1.625 3.140625 -1.625q0.890625 0 1.640625 0.328125q0.75 0.3125 1.109375 0.84375q0.375 0.515625 0.53125 1.21875q0.09375 0.46875 0.09375 1.625l0 6.0625l-1.671875 0l0 -6.0q0 -1.015625 -0.203125 -1.515625q-0.1875 -0.515625 -0.6875 -0.8125q-0.5 -0.296875 -1.171875 -0.296875q-1.0625 0 -1.84375 0.671875q-0.765625 0.671875 -0.765625 2.578125l0 5.375l-1.671875 0zm10.078842 0.8125l1.609375 0.25q0.109375 0.75 0.578125 1.09375q0.609375 0.453125 1.6875 0.453125q1.171875 0 1.796875 -0.46875q0.625 -0.453125 0.859375 -1.28125q0.125 -0.515625 0.109375 -2.15625q-1.09375 1.296875 -2.71875 1.296875q-2.03125 0 -3.15625 -1.46875q-1.109375 -1.46875 -1.109375 -3.515625q0 -1.40625 0.515625 -2.59375q0.515625 -1.203125 1.484375 -1.84375q0.96875 -0.65625 2.265625 -0.65625q1.75 0 2.875 1.40625l0 -1.1875l1.5468903 0l0 8.515625q0 2.3125 -0.46875 3.265625q-0.46875 0.96875 -1.4843903 1.515625q-1.015625 0.5625 -2.5 0.5625q-1.765625 0 -2.859375 -0.796875q-1.078125 -0.796875 -1.03125 -2.390625zm1.375 -5.921875q0 1.953125 0.765625 2.84375q0.78125 0.890625 1.9375 0.890625q1.140625 0 1.921875 -0.890625q0.78125 -0.890625 0.78125 -2.78125q0 -1.8125 -0.8125 -2.71875q-0.796875 -0.921875 -1.921875 -0.921875q-1.109375 0 -1.890625 0.90625q-0.78125 0.890625 -0.78125 2.671875z" fill-rule="nonzero"></path><path fill="#f3f3f3" d="m308.9684 128.86351l0 0c0 -4.029785 3.2667847 -7.2965775 7.29657 -7.2965775l11.160126 0l0 0l27.685028 0l57.30185 0c1.9351501 0 3.7910767 0.7687454 5.1594543 2.1371155c1.3683777 1.3683777 2.1371155 3.2242966 2.1371155 5.159462l0 18.24147l0 0l0 10.944885l0 0c0 4.0298004 -3.2667847 7.296585 -7.29657 7.296585l-57.30185 0l-13.842163 5.4724426l-13.842865 -5.4724426l-11.160126 0l0 0c-4.029785 0 -7.29657 -3.2667847 -7.29657 -7.296585l0 0l0 -10.944885l0 0z" fill-rule="nonzero"></path><path stroke="#000000" stroke-width="2.0" stroke-linejoin="round" stroke-linecap="butt" d="m308.9684 128.86351l0 0c0 -4.029785 3.2667847 -7.2965775 7.29657 -7.2965775l11.160126 0l0 0l27.685028 0l57.30185 0c1.9351501 0 3.7910767 0.7687454 5.1594543 2.1371155c1.3683777 1.3683777 2.1371155 3.2242966 2.1371155 5.159462l0 18.24147l0 0l0 10.944885l0 0c0 4.0298004 -3.2667847 7.296585 -7.29657 7.296585l-57.30185 0l-13.842163 5.4724426l-13.842865 -5.4724426l-11.160126 0l0 0c-4.029785 0 -7.29657 -3.2667847 -7.29657 -7.296585l0 0l0 -10.944885l0 0z" fill-rule="nonzero"></path><path fill="#000000" d="m327.93362 145.04857l0 -1.609375l5.765625 0l0 5.046875q-1.328125 1.0625 -2.75 1.59375q-1.40625 0.53125 -2.890625 0.53125q-2.0 0 -3.640625 -0.859375q-1.625 -0.859375 -2.46875 -2.484375q-0.828125 -1.625 -0.828125 -3.625q0 -1.984375 0.828125 -3.703125q0.828125 -1.71875 2.390625 -2.546875q1.5625 -0.84375 3.59375 -0.84375q1.46875 0 2.65625 0.484375q1.203125 0.46875 1.875 1.328125q0.671875 0.84375 1.03125 2.21875l-1.625 0.4375q-0.3125 -1.03125 -0.765625 -1.625q-0.453125 -0.59375 -1.296875 -0.953125q-0.84375 -0.359375 -1.875 -0.359375q-1.234375 0 -2.140625 0.375q-0.890625 0.375 -1.453125 1.0q-0.546875 0.609375 -0.84375 1.34375q-0.53125 1.25 -0.53125 2.734375q0 1.8125 0.625 3.046875q0.640625 1.21875 1.828125 1.8125q1.203125 0.59375 2.546875 0.59375q1.171875 0 2.28125 -0.453125q1.109375 -0.453125 1.6875 -0.953125l0 -2.53125l-4.0 0zm7.917694 5.328125l0 -9.859375l1.5 0l0 1.5q0.578125 -1.046875 1.0625 -1.375q0.484375 -0.34375 1.078125 -0.34375q0.84375 0 1.71875 0.546875l-0.578125 1.546875q-0.609375 -0.359375 -1.234375 -0.359375q-0.546875 0 -0.984375 0.328125q-0.421875 0.328125 -0.609375 0.90625q-0.28125 0.890625 -0.28125 1.953125l0 5.15625l-1.671875 0zm5.603302 -4.921875q0 -2.734375 1.53125 -4.0625q1.265625 -1.09375 3.09375 -1.09375q2.03125 0 3.3125 1.34375q1.296875 1.328125 1.296875 3.671875q0 1.90625 -0.578125 3.0q-0.5625 1.078125 -1.65625 1.6875q-1.078125 0.59375 -2.375 0.59375q-2.0625 0 -3.34375 -1.328125q-1.28125 -1.328125 -1.28125 -3.8125zm1.71875 0q0 1.890625 0.828125 2.828125q0.828125 0.9375 2.078125 0.9375q1.25 0 2.0625 -0.9375q0.828125 -0.953125 0.828125 -2.890625q0 -1.828125 -0.828125 -2.765625q-0.828125 -0.9375 -2.0625 -0.9375q-1.25 0 -2.078125 0.9375q-0.828125 0.9375 -0.828125 2.828125zm15.735077 4.921875l0 -1.453125q-1.140625 1.671875 -3.125 1.671875q-0.859375 0 -1.625 -0.328125q-0.75 -0.34375 -1.125 -0.84375q-0.359375 -0.5 -0.515625 -1.234375q-0.09375 -0.5 -0.09375 -1.5625l0 -6.109375l1.671875 0l0 5.46875q0 1.3125 0.09375 1.765625q0.15625 0.65625 0.671875 1.03125q0.515625 0.375 1.265625 0.375q0.75 0 1.40625 -0.375q0.65625 -0.390625 0.921875 -1.046875q0.28125 -0.671875 0.28125 -1.9375l0 -5.28125l1.671875 0l0 9.859375l-1.5 0zm3.9226074 3.78125l0 -13.640625l1.53125 0l0 1.28125q0.53125 -0.75 1.203125 -1.125q0.6875 -0.375 1.640625 -0.375q1.265625 0 2.234375 0.65625q0.96875 0.640625 1.453125 1.828125q0.5 1.1875 0.5 2.59375q0 1.515625 -0.546875 2.734375q-0.546875 1.203125 -1.578125 1.84375q-1.03125 0.640625 -2.171875 0.640625q-0.84375 0 -1.515625 -0.34375q-0.65625 -0.359375 -1.078125 -0.890625l0 4.796875l-1.671875 0zm1.515625 -8.65625q0 1.90625 0.765625 2.8125q0.78125 0.90625 1.875 0.90625q1.109375 0 1.890625 -0.9375q0.796875 -0.9375 0.796875 -2.921875q0 -1.875 -0.78125 -2.8125q-0.765625 -0.9375 -1.84375 -0.9375q-1.0625 0 -1.890625 1.0q-0.8125 1.0 -0.8125 2.890625zm8.875702 -6.8125l0 -1.90625l1.671875 0l0 1.90625l-1.671875 0zm0 11.6875l0 -9.859375l1.671875 0l0 9.859375l-1.671875 0zm4.1292114 0l0 -9.859375l1.5 0l0 1.40625q1.09375 -1.625 3.140625 -1.625q0.890625 0 1.640625 0.328125q0.75 0.3125 1.109375 0.84375q0.375 0.515625 0.53125 1.21875q0.09375 0.46875 0.09375 1.625l0 6.0625l-1.671875 0l0 -6.0q0 -1.015625 -0.203125 -1.515625q-0.1875 -0.515625 -0.6875 -0.8125q-0.5 -0.296875 -1.171875 -0.296875q-1.0625 0 -1.84375 0.671875q-0.765625 0.671875 -0.765625 2.578125l0 5.375l-1.671875 0zm10.078827 0.8125l1.609375 0.25q0.109375 0.75 0.578125 1.09375q0.609375 0.453125 1.6875 0.453125q1.171875 0 1.796875 -0.46875q0.625 -0.453125 0.859375 -1.28125q0.125 -0.515625 0.109375 -2.15625q-1.09375 1.296875 -2.71875 1.296875q-2.03125 0 -3.15625 -1.46875q-1.109375 -1.46875 -1.109375 -3.515625q0 -1.40625 0.515625 -2.59375q0.515625 -1.203125 1.484375 -1.84375q0.96875 -0.65625 2.265625 -0.65625q1.75 0 2.875 1.40625l0 -1.1875l1.546875 0l0 8.515625q0 2.3125 -0.46875 3.265625q-0.46875 0.96875 -1.484375 1.515625q-1.015625 0.5625 -2.5 0.5625q-1.765625 0 -2.859375 -0.796875q-1.078125 -0.796875 -1.03125 -2.390625zm1.375 -5.921875q0 1.953125 0.765625 2.84375q0.78125 0.890625 1.9375 0.890625q1.140625 0 1.921875 -0.890625q0.78125 -0.890625 0.78125 -2.78125q0 -1.8125 -0.8125 -2.71875q-0.796875 -0.921875 -1.921875 -0.921875q-1.109375 0 -1.890625 0.90625q-0.78125 0.890625 -0.78125 2.671875z" fill-rule="nonzero"></path><path fill="#f3f3f3" d="m45.91334 61.574802l0 0c0 -4.029793 3.2667923 -7.296589 7.296589 -7.296589l11.160103 0l0 0l27.685043 0l57.30184 0c1.9351654 0 3.791092 0.7687454 5.1594543 2.137123c1.3683777 1.3683739 2.1371307 3.2242928 2.1371307 5.159466l0 18.241474l0 0l0 10.944878l0 0c0 4.029793 -3.2668 7.296585 -7.296585 7.296585l-57.30184 0l-10.682739 5.858139l-17.002304 -5.858139l-11.160103 0l0 0c-4.0297966 0 -7.296589 -3.2667923 -7.296589 -7.296585l0 0l0 -10.944878l0 0z" fill-rule="nonzero"></path><path stroke="#000000" stroke-width="2.0" stroke-linejoin="round" stroke-linecap="butt" d="m45.91334 61.574802l0 0c0 -4.029793 3.2667923 -7.296589 7.296589 -7.296589l11.160103 0l0 0l27.685043 0l57.30184 0c1.9351654 0 3.791092 0.7687454 5.1594543 2.137123c1.3683777 1.3683739 2.1371307 3.2242928 2.1371307 5.159466l0 18.241474l0 0l0 10.944878l0 0c0 4.029793 -3.2668 7.296585 -7.296585 7.296585l-57.30184 0l-10.682739 5.858139l-17.002304 -5.858139l-11.160103 0l0 0c-4.0297966 0 -7.296589 -3.2667923 -7.296589 -7.296585l0 0l0 -10.944878l0 0z" fill-rule="nonzero"></path><path fill="#000000" d="m64.87856 77.75985l0 -1.609375l5.765625 0l0 5.046875q-1.328125 1.0625 -2.75 1.59375q-1.40625 0.53125 -2.890625 0.53125q-2.0 0 -3.640625 -0.859375q-1.625 -0.859375 -2.46875 -2.484375q-0.828125 -1.625 -0.828125 -3.625q0 -1.984375 0.828125 -3.703125q0.828125 -1.71875 2.390625 -2.546875q1.5625 -0.84375 3.59375 -0.84375q1.46875 0 2.65625 0.484375q1.203125 0.46875 1.875 1.328125q0.671875 0.84375 1.03125 2.21875l-1.625 0.4375q-0.3125 -1.03125 -0.765625 -1.625q-0.453125 -0.59375 -1.296875 -0.953125q-0.84375 -0.359375 -1.875 -0.359375q-1.234375 0 -2.140625 0.375q-0.890625 0.375 -1.453125 1.0q-0.546875 0.609375 -0.84375 1.34375q-0.53125 1.25 -0.53125 2.734375q0 1.8125 0.625 3.046875q0.640625 1.21875 1.828125 1.8125q1.203125 0.59375 2.546875 0.59375q1.171875 0 2.28125 -0.453125q1.109375 -0.453125 1.6875 -0.953125l0 -2.53125l-4.0 0zm7.917679 5.328125l0 -9.859375l1.5 0l0 1.5q0.578125 -1.046875 1.0625 -1.375q0.484375 -0.34375 1.078125 -0.34375q0.84375 0 1.71875 0.546875l-0.578125 1.546875q-0.609375 -0.359375 -1.234375 -0.359375q-0.546875 0 -0.984375 0.328125q-0.421875 0.328125 -0.609375 0.90625q-0.28125 0.890625 -0.28125 1.953125l0 5.15625l-1.671875 0zm5.603302 -4.921875q0 -2.734375 1.53125 -4.0625q1.265625 -1.09375 3.09375 -1.09375q2.03125 0 3.3125 1.34375q1.296875 1.328125 1.296875 3.671875q0 1.90625 -0.578125 3.0q-0.5625 1.078125 -1.65625 1.6875q-1.078125 0.59375 -2.375 0.59375q-2.0625 0 -3.34375 -1.328125q-1.28125 -1.328125 -1.28125 -3.8125zm1.71875 0q0 1.890625 0.828125 2.828125q0.828125 0.9375 2.078125 0.9375q1.25 0 2.0625 -0.9375q0.828125 -0.953125 0.828125 -2.890625q0 -1.828125 -0.828125 -2.765625q-0.828125 -0.9375 -2.0625 -0.9375q-1.25 0 -2.078125 0.9375q-0.828125 0.9375 -0.828125 2.828125zm15.735092 4.921875l0 -1.453125q-1.140625 1.671875 -3.125 1.671875q-0.859375 0 -1.625 -0.328125q-0.75 -0.34375 -1.125 -0.84375q-0.359375 -0.5 -0.515625 -1.234375q-0.09375 -0.5 -0.09375 -1.5625l0 -6.109375l1.671875 0l0 5.46875q0 1.3125 0.09375 1.765625q0.15625 0.65625 0.671875 1.03125q0.515625 0.375 1.265625 0.375q0.75 0 1.40625 -0.375q0.65625 -0.390625 0.921875 -1.046875q0.28125 -0.671875 0.28125 -1.9375l0 -5.28125l1.671875 0l0 9.859375l-1.5 0zm3.9225922 3.78125l0 -13.640625l1.53125 0l0 1.28125q0.53125 -0.75 1.203125 -1.125q0.6875 -0.375 1.640625 -0.375q1.265625 0 2.234375 0.65625q0.96875 0.640625 1.453125 1.828125q0.5 1.1875 0.5 2.59375q0 1.515625 -0.546875 2.734375q-0.546875 1.203125 -1.578125 1.84375q-1.03125 0.640625 -2.171875 0.640625q-0.84375 0 -1.515625 -0.34375q-0.65625 -0.359375 -1.078125 -0.890625l0 4.796875l-1.671875 0zm1.515625 -8.65625q0 1.90625 0.765625 2.8125q0.78125 0.90625 1.875 0.90625q1.109375 0 1.890625 -0.9375q0.796875 -0.9375 0.796875 -2.921875q0 -1.875 -0.78125 -2.8125q-0.765625 -0.9375 -1.84375 -0.9375q-1.0625 0 -1.890625 1.0q-0.8125 1.0 -0.8125 2.890625zm8.875717 -6.8125l0 -1.90625l1.671875 0l0 1.90625l-1.671875 0zm0 11.6875l0 -9.859375l1.671875 0l0 9.859375l-1.671875 0zm4.129196 0l0 -9.859375l1.5 0l0 1.40625q1.09375 -1.625 3.140625 -1.625q0.890625 0 1.640625 0.328125q0.75 0.3125 1.109375 0.84375q0.375 0.515625 0.53125 1.21875q0.09375 0.46875 0.09375 1.625l0 6.0625l-1.671875 0l0 -6.0q0 -1.015625 -0.203125 -1.515625q-0.1875 -0.515625 -0.6875 -0.8125q-0.5 -0.296875 -1.171875 -0.296875q-1.0625 0 -1.84375 0.671875q-0.765625 0.671875 -0.765625 2.578125l0 5.375l-1.671875 0zm10.078842 0.8125l1.609375 0.25q0.109375 0.75 0.578125 1.09375q0.609375 0.453125 1.6875076 0.453125q1.171875 0 1.796875 -0.46875q0.625 -0.453125 0.859375 -1.28125q0.125 -0.515625 0.109375 -2.15625q-1.09375 1.296875 -2.71875 1.296875q-2.0312576 0 -3.1562576 -1.46875q-1.109375 -1.46875 -1.109375 -3.515625q0 -1.40625 0.515625 -2.59375q0.515625 -1.203125 1.484375 -1.84375q0.96875 -0.65625 2.2656326 -0.65625q1.75 0 2.875 1.40625l0 -1.1875l1.546875 0l0 8.515625q0 2.3125 -0.46875 3.265625q-0.46875 0.96875 -1.484375 1.515625q-1.015625 0.5625 -2.5 0.5625q-1.7656326 0 -2.8593826 -0.796875q-1.078125 -0.796875 -1.03125 -2.390625zm1.375 -5.921875q0 1.953125 0.765625 2.84375q0.78125 0.890625 1.9375076 0.890625q1.140625 0 1.921875 -0.890625q0.78125 -0.890625 0.78125 -2.78125q0 -1.8125 -0.8125 -2.71875q-0.796875 -0.921875 -1.921875 -0.921875q-1.1093826 0 -1.8906326 0.90625q-0.78125 0.890625 -0.78125 2.671875z" fill-rule="nonzero"></path><path fill="#69d2e7" d="m693.1365 135.6062l0 0c0 -15.443794 12.5095825 -27.963463 27.940918 -27.963463l0 0c7.4104004 0 14.517273 2.9461365 19.757202 8.190308c5.239929 5.2441635 8.183716 12.356789 8.183716 19.773155l0 0c0 15.443787 -12.5095825 27.96347 -27.940918 27.96347l0 0c-15.431335 0 -27.940918 -12.519684 -27.940918 -27.96347z" fill-rule="nonzero"></path><path stroke="#000000" stroke-width="2.0" stroke-linejoin="round" stroke-linecap="butt" d="m693.1365 135.6062l0 0c0 -15.443794 12.5095825 -27.963463 27.940918 -27.963463l0 0c7.4104004 0 14.517273 2.9461365 19.757202 8.190308c5.239929 5.2441635 8.183716 12.356789 8.183716 19.773155l0 0c0 15.443787 -12.5095825 27.96347 -27.940918 27.96347l0 0c-15.431335 0 -27.940918 -12.519684 -27.940918 -27.96347z" fill-rule="nonzero"></path><path fill="#000000" d="m728.22125 142.19807q0 0.09375 -0.046875 0.171875q-0.046875 0.0625 -0.1875 0.109375q-0.140625 0.046875 -0.359375 0.078125q-0.21875 0.03125 -0.5625 0.03125q-0.328125 0 -0.5625 -0.03125q-0.21875 -0.03125 -0.359375 -0.078125q-0.125 -0.046875 -0.1875 -0.109375q-0.046875 -0.078125 -0.046875 -0.171875l0 -9.78125l-0.015625 0l-3.484375 9.765625q-0.03125 0.125 -0.125 0.203125q-0.078125 0.078125 -0.21875 0.125q-0.140625 0.046875 -0.375 0.0625q-0.21875 0.015625 -0.53125 0.015625q-0.3125 0 -0.53125 -0.03125q-0.21875 -0.015625 -0.375 -0.0625q-0.140625 -0.0625 -0.234375 -0.125q-0.078125 -0.078125 -0.09375 -0.1875l-3.359375 -9.765625l-0.015625 0l0 9.78125q0 0.09375 -0.0625 0.171875q-0.046875 0.0625 -0.1875 0.109375q-0.140625 0.046875 -0.359375 0.078125q-0.21875 0.03125 -0.5625 0.03125q-0.328125 0 -0.5625 -0.03125q-0.21875 -0.03125 -0.359375 -0.078125q-0.125 -0.046875 -0.171875 -0.109375q-0.046875 -0.078125 -0.046875 -0.171875l0 -10.703125q0 -0.46875 0.25 -0.71875q0.25 -0.25 0.671875 -0.25l1.59375 0q0.421875 0 0.71875 0.078125q0.3125 0.0625 0.53125 0.21875q0.234375 0.15625 0.375 0.421875q0.15625 0.265625 0.265625 0.65625l2.59375 7.15625l0.03125 0l2.703125 -7.140625q0.109375 -0.390625 0.25 -0.65625q0.15625 -0.265625 0.34375 -0.421875q0.1875 -0.171875 0.4375 -0.234375q0.265625 -0.078125 0.609375 -0.078125l1.640625 0q0.25 0 0.4375 0.0625q0.1875 0.0625 0.296875 0.1875q0.109375 0.125 0.171875 0.3125q0.0625 0.171875 0.0625 0.40625l0 10.703125z" fill-rule="nonzero"></path><path fill="#a7dbd8" d="m789.4736 135.6054l0 0c0 -15.443802 12.5095825 -27.96347 27.940918 -27.96347l0 0c7.4104004 0 14.517273 2.946144 19.757202 8.190308c5.23999 5.244171 8.183716 12.356781 8.183716 19.773163l0 0c0 15.443787 -12.5095825 27.963455 -27.940918 27.963455l0 0c-15.431335 0 -27.940918 -12.519669 -27.940918 -27.963455z" fill-rule="nonzero"></path><path stroke="#000000" stroke-width="2.0" stroke-linejoin="round" stroke-linecap="butt" d="m789.4736 135.6054l0 0c0 -15.443802 12.5095825 -27.96347 27.940918 -27.96347l0 0c7.4104004 0 14.517273 2.946144 19.757202 8.190308c5.23999 5.244171 8.183716 12.356781 8.183716 19.773163l0 0c0 15.443787 -12.5095825 27.963455 -27.940918 27.963455l0 0c-15.431335 0 -27.940918 -12.519669 -27.940918 -27.963455z" fill-rule="nonzero"></path><path fill="#000000" d="m822.70764 142.74164q0 0.109375 -0.046875 0.1875q-0.046875 0.078125 -0.203125 0.125q-0.140625 0.046875 -0.4375 0.0625q-0.296875 0.03125 -0.8125 0.03125q-0.4375 0 -0.703125 -0.03125q-0.25 -0.015625 -0.40625 -0.0625q-0.140625 -0.0625 -0.203125 -0.140625q-0.0625 -0.09375 -0.09375 -0.21875l-1.1875 -2.96875q-0.21875 -0.5 -0.421875 -0.890625q-0.203125 -0.390625 -0.453125 -0.640625q-0.25 -0.265625 -0.578125 -0.390625q-0.328125 -0.140625 -0.765625 -0.140625l-0.84375 0l0 5.046875q0 0.109375 -0.0625 0.1875q-0.0625 0.078125 -0.21875 0.140625q-0.15625 0.046875 -0.421875 0.078125q-0.25 0.03125 -0.640625 0.03125q-0.390625 0 -0.65625 -0.03125q-0.265625 -0.03125 -0.421875 -0.078125q-0.15625 -0.0625 -0.21875 -0.140625q-0.046875 -0.078125 -0.046875 -0.1875l0 -12.046875q0 -0.453125 0.21875 -0.640625q0.234375 -0.203125 0.578125 -0.203125l3.4375 0q0.515625 0 0.84375 0.015625q0.34375 0.015625 0.625 0.046875q0.796875 0.125 1.4375 0.40625q0.640625 0.265625 1.078125 0.71875q0.453125 0.4375 0.6875 1.046875q0.25 0.609375 0.25 1.40625q0 0.65625 -0.171875 1.21875q-0.171875 0.546875 -0.5 0.984375q-0.328125 0.421875 -0.8125 0.734375q-0.484375 0.3125 -1.09375 0.515625q0.296875 0.140625 0.546875 0.34375q0.265625 0.203125 0.5 0.5q0.234375 0.296875 0.4375 0.671875q0.203125 0.375 0.40625 0.84375l1.109375 2.609375q0.15625 0.390625 0.203125 0.578125q0.0625 0.171875 0.0625 0.28125zm-3.484375 -9.015625q0 -0.65625 -0.296875 -1.09375q-0.296875 -0.453125 -0.96875 -0.640625q-0.203125 -0.046875 -0.46875 -0.078125q-0.265625 -0.03125 -0.71875 -0.03125l-1.21875 0l0 3.765625l1.375 0q0.578125 0 1.0 -0.140625q0.4375 -0.140625 0.71875 -0.390625q0.296875 -0.25 0.4375 -0.59375q0.140625 -0.359375 0.140625 -0.796875z" fill-rule="nonzero"></path><path fill="#000000" fill-opacity="0.0" d="m749.0183 135.6062l40.45526 -8.087158E-4" fill-rule="nonzero"></path><path stroke="#000000" stroke-width="2.0" stroke-linejoin="round" stroke-linecap="butt" d="m749.0183 135.6062l28.455261 -5.79834E-4" fill-rule="evenodd"></path><path fill="#000000" stroke="#000000" stroke-width="2.0" stroke-linecap="butt" d="m777.47363 138.90909l9.076172 -3.30365l-9.076294 -3.3032837z" fill-rule="evenodd"></path><path fill="#cccccc" d="m645.12415 112.6984l0 0c0 2.7923508 9.054626 5.0559998 20.223999 5.0559998c11.169434 0 20.223999 -2.263649 20.223999 -5.0559998l0 45.814934c0 2.7923431 -9.054565 5.0559998 -20.223999 5.0559998c-11.169373 0 -20.223999 -2.2636566 -20.223999 -5.0559998z" fill-rule="nonzero"></path><path fill="#e0e0e0" d="m645.12415 112.6984l0 0c0 -2.7923508 9.054626 -5.0559998 20.223999 -5.0559998c11.169434 0 20.223999 2.263649 20.223999 5.0559998l0 0c0 2.7923508 -9.054565 5.0559998 -20.223999 5.0559998c-11.169373 0 -20.223999 -2.263649 -20.223999 -5.0559998z" fill-rule="nonzero"></path><path fill="#000000" fill-opacity="0.0" d="m685.57214 112.6984l0 0c0 2.7923508 -9.054565 5.0559998 -20.223999 5.0559998c-11.169373 0 -20.223999 -2.263649 -20.223999 -5.0559998l0 0c0 -2.7923508 9.054626 -5.0559998 20.223999 -5.0559998c11.169434 0 20.223999 2.263649 20.223999 5.0559998l0 45.814934c0 2.7923431 -9.054565 5.0559998 -20.223999 5.0559998c-11.169373 0 -20.223999 -2.2636566 -20.223999 -5.0559998l0 -45.814934" fill-rule="nonzero"></path><path stroke="#666666" stroke-width="2.0" stroke-linejoin="round" stroke-linecap="butt" d="m685.57214 112.6984l0 0c0 2.7923508 -9.054565 5.0559998 -20.223999 5.0559998c-11.169373 0 -20.223999 -2.263649 -20.223999 -5.0559998l0 0c0 -2.7923508 9.054626 -5.0559998 20.223999 -5.0559998c11.169434 0 20.223999 2.263649 20.223999 5.0559998l0 45.814934c0 2.7923431 -9.054565 5.0559998 -20.223999 5.0559998c-11.169373 0 -20.223999 -2.2636566 -20.223999 -5.0559998l0 -45.814934" fill-rule="nonzero"></path><path fill="#cccccc" d="m852.9119 112.6984l0 0c0 2.7923508 9.054626 5.0559998 20.223999 5.0559998c11.169373 0 20.223999 -2.263649 20.223999 -5.0559998l0 45.814934c0 2.7923431 -9.054626 5.0559998 -20.223999 5.0559998c-11.169373 0 -20.223999 -2.2636566 -20.223999 -5.0559998z" fill-rule="nonzero"></path><path fill="#e0e0e0" d="m852.9119 112.6984l0 0c0 -2.7923508 9.054626 -5.0559998 20.223999 -5.0559998c11.169373 0 20.223999 2.263649 20.223999 5.0559998l0 0c0 2.7923508 -9.054626 5.0559998 -20.223999 5.0559998c-11.169373 0 -20.223999 -2.263649 -20.223999 -5.0559998z" fill-rule="nonzero"></path><path fill="#000000" fill-opacity="0.0" d="m893.3599 112.6984l0 0c0 2.7923508 -9.054626 5.0559998 -20.223999 5.0559998c-11.169373 0 -20.223999 -2.263649 -20.223999 -5.0559998l0 0c0 -2.7923508 9.054626 -5.0559998 20.223999 -5.0559998c11.169373 0 20.223999 2.263649 20.223999 5.0559998l0 45.814934c0 2.7923431 -9.054626 5.0559998 -20.223999 5.0559998c-11.169373 0 -20.223999 -2.2636566 -20.223999 -5.0559998l0 -45.814934" fill-rule="nonzero"></path><path stroke="#666666" stroke-width="2.0" stroke-linejoin="round" stroke-linecap="butt" d="m893.3599 112.6984l0 0c0 2.7923508 -9.054626 5.0559998 -20.223999 5.0559998c-11.169373 0 -20.223999 -2.263649 -20.223999 -5.0559998l0 0c0 -2.7923508 9.054626 -5.0559998 20.223999 -5.0559998c11.169373 0 20.223999 2.263649 20.223999 5.0559998l0 45.814934c0 2.7923431 -9.054626 5.0559998 -20.223999 5.0559998c-11.169373 0 -20.223999 -2.2636566 -20.223999 -5.0559998l0 -45.814934" fill-rule="nonzero"></path><path fill="#69d2e7" d="m906.9789 199.8833l0 0c0 -15.443787 12.5095215 -27.963455 27.940857 -27.963455l0 0c7.4104004 0 14.517273 2.9461365 19.757263 8.190308c5.239929 5.244171 8.183655 12.356781 8.183655 19.773148l0 0c0 15.443802 -12.5095215 27.96347 -27.940918 27.96347l0 0c-15.431335 0 -27.940857 -12.519669 -27.940857 -27.96347z" fill-rule="nonzero"></path><path stroke="#000000" stroke-width="2.0" stroke-linejoin="round" stroke-linecap="butt" d="m906.9789 199.8833l0 0c0 -15.443787 12.5095215 -27.963455 27.940857 -27.963455l0 0c7.4104004 0 14.517273 2.9461365 19.757263 8.190308c5.239929 5.244171 8.183655 12.356781 8.183655 19.773148l0 0c0 15.443802 -12.5095215 27.96347 -27.940918 27.96347l0 0c-15.431335 0 -27.940857 -12.519669 -27.940857 -27.96347z" fill-rule="nonzero"></path><path fill="#000000" d="m942.06366 206.47517q0 0.09375 -0.046875 0.171875q-0.046875 0.0625 -0.1875 0.109375q-0.140625 0.046875 -0.359375 0.078125q-0.21875 0.03125 -0.5625 0.03125q-0.328125 0 -0.5625 -0.03125q-0.21875 -0.03125 -0.359375 -0.078125q-0.125 -0.046875 -0.1875 -0.109375q-0.046875 -0.078125 -0.046875 -0.171875l0 -9.78125l-0.015625 0l-3.484375 9.765625q-0.03125 0.125 -0.125 0.203125q-0.078125 0.078125 -0.21875 0.125q-0.140625 0.046875 -0.375 0.0625q-0.21875 0.015625 -0.53125 0.015625q-0.3125 0 -0.53125 -0.03125q-0.21875 -0.015625 -0.375 -0.0625q-0.140625 -0.0625 -0.234375 -0.125q-0.078125 -0.078125 -0.09375 -0.1875l-3.359375 -9.765625l-0.015625 0l0 9.78125q0 0.09375 -0.0625 0.171875q-0.046875 0.0625 -0.1875 0.109375q-0.140625 0.046875 -0.359375 0.078125q-0.21875 0.03125 -0.5625 0.03125q-0.328125 0 -0.5625 -0.03125q-0.21875 -0.03125 -0.359375 -0.078125q-0.125 -0.046875 -0.171875 -0.109375q-0.046875 -0.078125 -0.046875 -0.171875l0 -10.703125q0 -0.46875 0.25 -0.71875q0.25 -0.25 0.671875 -0.25l1.59375 0q0.421875 0 0.71875 0.078125q0.3125 0.0625 0.53125 0.21875q0.234375 0.15625 0.375 0.421875q0.15625 0.265625 0.265625 0.65625l2.59375 7.15625l0.03125 0l2.703125 -7.140625q0.109375 -0.390625 0.25 -0.65625q0.15625 -0.265625 0.34375 -0.421875q0.1875 -0.171875 0.4375 -0.234375q0.265625 -0.078125 0.609375 -0.078125l1.640625 0q0.25 0 0.4375 0.0625q0.1875 0.0625 0.296875 0.1875q0.109375 0.125 0.171875 0.3125q0.0625 0.171875 0.0625 0.40625l0 10.703125z" fill-rule="nonzero"></path><path fill="#a7dbd8" d="m1003.316 199.88249l0 0c0 -15.443802 12.5095825 -27.96347 27.940857 -27.96347l0 0c7.4104004 0 14.517334 2.9461517 19.757202 8.190323c5.23999 5.244156 8.183716 12.356781 8.183716 19.773148l0 0c0 15.443802 -12.5095215 27.96347 -27.940918 27.96347l0 0c-15.431274 0 -27.940857 -12.519669 -27.940857 -27.96347z" fill-rule="nonzero"></path><path stroke="#000000" stroke-width="2.0" stroke-linejoin="round" stroke-linecap="butt" d="m1003.316 199.88249l0 0c0 -15.443802 12.5095825 -27.96347 27.940857 -27.96347l0 0c7.4104004 0 14.517334 2.9461517 19.757202 8.190323c5.23999 5.244156 8.183716 12.356781 8.183716 19.773148l0 0c0 15.443802 -12.5095215 27.96347 -27.940918 27.96347l0 0c-15.431274 0 -27.940857 -12.519669 -27.940857 -27.96347z" fill-rule="nonzero"></path><path fill="#000000" d="m1036.55 207.01874q0 0.109375 -0.046875 0.1875q-0.046875 0.078125 -0.203125 0.125q-0.140625 0.046875 -0.4375 0.0625q-0.296875 0.03125 -0.8125 0.03125q-0.4375 0 -0.703125 -0.03125q-0.25 -0.015625 -0.40625 -0.0625q-0.140625 -0.0625 -0.203125 -0.140625q-0.0625 -0.09375 -0.09375 -0.21875l-1.1875 -2.96875q-0.21875 -0.5 -0.421875 -0.890625q-0.203125 -0.390625 -0.453125 -0.640625q-0.25 -0.265625 -0.578125 -0.390625q-0.328125 -0.140625 -0.765625 -0.140625l-0.84375 0l0 5.046875q0 0.109375 -0.0625 0.1875q-0.0625 0.078125 -0.21875 0.140625q-0.15625 0.046875 -0.421875 0.078125q-0.25 0.03125 -0.640625 0.03125q-0.390625 0 -0.65625 -0.03125q-0.265625 -0.03125 -0.421875 -0.078125q-0.15625 -0.0625 -0.21875 -0.140625q-0.046875 -0.078125 -0.046875 -0.1875l0 -12.046875q0 -0.453125 0.21875 -0.640625q0.234375 -0.203125 0.578125 -0.203125l3.4375 0q0.515625 0 0.84375 0.015625q0.34375 0.015625 0.625 0.046875q0.796875 0.125 1.4375 0.40625q0.640625 0.265625 1.078125 0.71875q0.453125 0.4375 0.6875 1.046875q0.25 0.609375 0.25 1.40625q0 0.65625 -0.171875 1.21875q-0.171875 0.546875 -0.5 0.984375q-0.328125 0.421875 -0.8125 0.734375q-0.484375 0.3125 -1.09375 0.515625q0.296875 0.140625 0.546875 0.34375q0.265625 0.203125 0.5 0.5q0.234375 0.296875 0.4375 0.671875q0.203125 0.375 0.40625 0.84375l1.109375 2.609375q0.15625 0.390625 0.203125 0.578125q0.0625 0.171875 0.0625 0.28125zm-3.484375 -9.015625q0 -0.65625 -0.296875 -1.09375q-0.296875 -0.453125 -0.96875 -0.640625q-0.203125 -0.046875 -0.46875 -0.078125q-0.265625 -0.03125 -0.71875 -0.03125l-1.21875 0l0 3.765625l1.375 0q0.578125 0 1.0 -0.140625q0.4375 -0.140625 0.71875 -0.390625q0.296875 -0.25 0.4375 -0.59375q0.140625 -0.359375 0.140625 -0.796875z" fill-rule="nonzero"></path><path fill="#000000" fill-opacity="0.0" d="m962.86066 199.8833l40.455322 -8.087158E-4" fill-rule="nonzero"></path><path stroke="#000000" stroke-width="2.0" stroke-linejoin="round" stroke-linecap="butt" d="m962.86066 199.8833l28.455261 -5.645752E-4" fill-rule="evenodd"></path><path fill="#000000" stroke="#000000" stroke-width="2.0" stroke-linecap="butt" d="m991.31604 203.18619l9.076111 -3.30365l-9.076294 -3.3032684z" fill-rule="evenodd"></path><path fill="#cccccc" d="m1066.7543 176.97551l0 0c0 2.7923431 9.054565 5.0559998 20.223999 5.0559998c11.169434 0 20.223999 -2.2636566 20.223999 -5.0559998l0 45.814926c0 2.7923584 -9.054565 5.0559998 -20.223999 5.0559998c-11.169434 0 -20.223999 -2.2636414 -20.223999 -5.0559998z" fill-rule="nonzero"></path><path fill="#e0e0e0" d="m1066.7543 176.97551l0 0c0 -2.7923584 9.054565 -5.0559998 20.223999 -5.0559998c11.169434 0 20.223999 2.2636414 20.223999 5.0559998l0 0c0 2.7923431 -9.054565 5.0559998 -20.223999 5.0559998c-11.169434 0 -20.223999 -2.2636566 -20.223999 -5.0559998z" fill-rule="nonzero"></path><path fill="#000000" fill-opacity="0.0" d="m1107.2023 176.97551l0 0c0 2.7923431 -9.054565 5.0559998 -20.223999 5.0559998c-11.169434 0 -20.223999 -2.2636566 -20.223999 -5.0559998l0 0c0 -2.7923584 9.054565 -5.0559998 20.223999 -5.0559998c11.169434 0 20.223999 2.2636414 20.223999 5.0559998l0 45.814926c0 2.7923584 -9.054565 5.0559998 -20.223999 5.0559998c-11.169434 0 -20.223999 -2.2636414 -20.223999 -5.0559998l0 -45.814926" fill-rule="nonzero"></path><path stroke="#666666" stroke-width="2.0" stroke-linejoin="round" stroke-linecap="butt" d="m1107.2023 176.97551l0 0c0 2.7923431 -9.054565 5.0559998 -20.223999 5.0559998c-11.169434 0 -20.223999 -2.2636566 -20.223999 -5.0559998l0 0c0 -2.7923584 9.054565 -5.0559998 20.223999 -5.0559998c11.169434 0 20.223999 2.2636414 20.223999 5.0559998l0 45.814926c0 2.7923584 -9.054565 5.0559998 -20.223999 5.0559998c-11.169434 0 -20.223999 -2.2636414 -20.223999 -5.0559998l0 -45.814926" fill-rule="nonzero"></path><path fill="#cccccc" d="m735.0016 227.03456l0 0c0 2.7923584 9.054565 5.0559998 20.223999 5.0559998c11.169373 0 20.223999 -2.2636414 20.223999 -5.0559998l0 45.814926c0 2.7923584 -9.054626 5.0559998 -20.223999 5.0559998c-11.169434 0 -20.223999 -2.2636414 -20.223999 -5.0559998z" fill-rule="nonzero"></path><path fill="#e0e0e0" d="m735.0016 227.03456l0 0c0 -2.7923431 9.054565 -5.0559998 20.223999 -5.0559998c11.169373 0 20.223999 2.2636566 20.223999 5.0559998l0 0c0 2.7923584 -9.054626 5.0559998 -20.223999 5.0559998c-11.169434 0 -20.223999 -2.2636414 -20.223999 -5.0559998z" fill-rule="nonzero"></path><path fill="#000000" fill-opacity="0.0" d="m775.4496 227.03456l0 0c0 2.7923584 -9.054626 5.0559998 -20.223999 5.0559998c-11.169434 0 -20.223999 -2.2636414 -20.223999 -5.0559998l0 0c0 -2.7923431 9.054565 -5.0559998 20.223999 -5.0559998c11.169373 0 20.223999 2.2636566 20.223999 5.0559998l0 45.814926c0 2.7923584 -9.054626 5.0559998 -20.223999 5.0559998c-11.169434 0 -20.223999 -2.2636414 -20.223999 -5.0559998l0 -45.814926" fill-rule="nonzero"></path><path stroke="#666666" stroke-width="2.0" stroke-linejoin="round" stroke-linecap="butt" d="m775.4496 227.03456l0 0c0 2.7923584 -9.054626 5.0559998 -20.223999 5.0559998c-11.169434 0 -20.223999 -2.2636414 -20.223999 -5.0559998l0 0c0 -2.7923431 9.054565 -5.0559998 20.223999 -5.0559998c11.169373 0 20.223999 2.2636566 20.223999 5.0559998l0 45.814926c0 2.7923584 -9.054626 5.0559998 -20.223999 5.0559998c-11.169434 0 -20.223999 -2.2636414 -20.223999 -5.0559998l0 -45.814926" fill-rule="nonzero"></path><path fill="#cccccc" d="m852.9053 227.03456l0 0c0 2.7923584 9.054565 5.0559998 20.223999 5.0559998c11.169373 0 20.223999 -2.2636414 20.223999 -5.0559998l0 45.814926c0 2.7923584 -9.054626 5.0559998 -20.223999 5.0559998c-11.169434 0 -20.223999 -2.2636414 -20.223999 -5.0559998z" fill-rule="nonzero"></path><path fill="#e0e0e0" d="m852.9053 227.03456l0 0c0 -2.7923431 9.054565 -5.0559998 20.223999 -5.0559998c11.169373 0 20.223999 2.2636566 20.223999 5.0559998l0 0c0 2.7923584 -9.054626 5.0559998 -20.223999 5.0559998c-11.169434 0 -20.223999 -2.2636414 -20.223999 -5.0559998z" fill-rule="nonzero"></path><path fill="#000000" fill-opacity="0.0" d="m893.3533 227.03456l0 0c0 2.7923584 -9.054626 5.0559998 -20.223999 5.0559998c-11.169434 0 -20.223999 -2.2636414 -20.223999 -5.0559998l0 0c0 -2.7923431 9.054565 -5.0559998 20.223999 -5.0559998c11.169373 0 20.223999 2.2636566 20.223999 5.0559998l0 45.814926c0 2.7923584 -9.054626 5.0559998 -20.223999 5.0559998c-11.169434 0 -20.223999 -2.2636414 -20.223999 -5.0559998l0 -45.814926" fill-rule="nonzero"></path><path stroke="#666666" stroke-width="2.0" stroke-linejoin="round" stroke-linecap="butt" d="m893.3533 227.03456l0 0c0 2.7923584 -9.054626 5.0559998 -20.223999 5.0559998c-11.169434 0 -20.223999 -2.2636414 -20.223999 -5.0559998l0 0c0 -2.7923431 9.054565 -5.0559998 20.223999 -5.0559998c11.169373 0 20.223999 2.2636566 20.223999 5.0559998l0 45.814926c0 2.7923584 -9.054626 5.0559998 -20.223999 5.0559998c-11.169434 0 -20.223999 -2.2636414 -20.223999 -5.0559998l0 -45.814926" fill-rule="nonzero"></path><path fill="#69d2e7" d="m783.0139 249.94237l0 0c0 -15.443802 12.5095825 -27.96347 27.940918 -27.96347l0 0c7.4104004 0 14.517273 2.9461365 19.757202 8.190308c5.239929 5.244171 8.183716 12.356781 8.183716 19.773163l0 0c0 15.443802 -12.5095825 27.963455 -27.940918 27.963455l0 0c-15.431335 0 -27.940918 -12.519653 -27.940918 -27.963455z" fill-rule="nonzero"></path><path stroke="#000000" stroke-width="2.0" stroke-linejoin="round" stroke-linecap="butt" d="m783.0139 249.94237l0 0c0 -15.443802 12.5095825 -27.96347 27.940918 -27.96347l0 0c7.4104004 0 14.517273 2.9461365 19.757202 8.190308c5.239929 5.244171 8.183716 12.356781 8.183716 19.773163l0 0c0 15.443802 -12.5095825 27.963455 -27.940918 27.963455l0 0c-15.431335 0 -27.940918 -12.519653 -27.940918 -27.963455z" fill-rule="nonzero"></path><path fill="#000000" d="m818.0987 256.53424q0 0.09375 -0.046875 0.171875q-0.046875 0.0625 -0.1875 0.109375q-0.140625 0.046875 -0.359375 0.078125q-0.21875 0.03125 -0.5625 0.03125q-0.328125 0 -0.5625 -0.03125q-0.21875 -0.03125 -0.359375 -0.078125q-0.125 -0.046875 -0.1875 -0.109375q-0.046875 -0.078125 -0.046875 -0.171875l0 -9.78125l-0.015625 0l-3.484375 9.765625q-0.03125 0.125 -0.125 0.203125q-0.078125 0.078125 -0.21875 0.125q-0.140625 0.046875 -0.375 0.0625q-0.21875 0.015625 -0.53125 0.015625q-0.3125 0 -0.53125 -0.03125q-0.21875 -0.015625 -0.375 -0.0625q-0.140625 -0.0625 -0.234375 -0.125q-0.078125 -0.078125 -0.09375 -0.1875l-3.359375 -9.765625l-0.015625 0l0 9.78125q0 0.09375 -0.0625 0.171875q-0.046875 0.0625 -0.1875 0.109375q-0.140625 0.046875 -0.359375 0.078125q-0.21875 0.03125 -0.5625 0.03125q-0.328125 0 -0.5625 -0.03125q-0.21875 -0.03125 -0.359375 -0.078125q-0.125 -0.046875 -0.171875 -0.109375q-0.046875 -0.078125 -0.046875 -0.171875l0 -10.703125q0 -0.46875 0.25 -0.71875q0.25 -0.25 0.671875 -0.25l1.59375 0q0.421875 0 0.71875 0.078125q0.3125 0.0625 0.53125 0.21875q0.234375 0.15625 0.375 0.421875q0.15625 0.265625 0.265625 0.65625l2.59375 7.15625l0.03125 0l2.703125 -7.140625q0.109375 -0.390625 0.25 -0.65625q0.15625 -0.265625 0.34375 -0.421875q0.1875 -0.171875 0.4375 -0.234375q0.265625 -0.078125 0.609375 -0.078125l1.640625 0q0.25 0 0.4375 0.0625q0.1875 0.0625 0.296875 0.1875q0.109375 0.125 0.171875 0.3125q0.0625 0.171875 0.0625 0.40625l0 10.703125z" fill-rule="nonzero"></path><path fill="#69d2e7" d="m1129.9332 199.8833l0 0c0 -15.443787 12.509644 -27.963455 27.940918 -27.963455l0 0c7.4104004 0 14.517334 2.9461365 19.757324 8.190308c5.239868 5.244171 8.183594 12.356781 8.183594 19.773148l0 0c0 15.443802 -12.5095215 27.96347 -27.940918 27.96347l0 0c-15.431274 0 -27.940918 -12.519669 -27.940918 -27.96347z" fill-rule="nonzero"></path><path stroke="#000000" stroke-width="2.0" stroke-linejoin="round" stroke-linecap="butt" d="m1129.9332 199.8833l0 0c0 -15.443787 12.509644 -27.963455 27.940918 -27.963455l0 0c7.4104004 0 14.517334 2.9461365 19.757324 8.190308c5.239868 5.244171 8.183594 12.356781 8.183594 19.773148l0 0c0 15.443802 -12.5095215 27.96347 -27.940918 27.96347l0 0c-15.431274 0 -27.940918 -12.519669 -27.940918 -27.96347z" fill-rule="nonzero"></path><path fill="#000000" d="m1165.0181 206.47517q0 0.09375 -0.046875 0.171875q-0.046875 0.0625 -0.1875 0.109375q-0.140625 0.046875 -0.359375 0.078125q-0.21875 0.03125 -0.5625 0.03125q-0.328125 0 -0.5625 -0.03125q-0.21875 -0.03125 -0.359375 -0.078125q-0.125 -0.046875 -0.1875 -0.109375q-0.046875 -0.078125 -0.046875 -0.171875l0 -9.78125l-0.015625 0l-3.484375 9.765625q-0.03125 0.125 -0.125 0.203125q-0.078125 0.078125 -0.21875 0.125q-0.140625 0.046875 -0.375 0.0625q-0.21875 0.015625 -0.53125 0.015625q-0.3125 0 -0.53125 -0.03125q-0.21875 -0.015625 -0.375 -0.0625q-0.140625 -0.0625 -0.234375 -0.125q-0.078125 -0.078125 -0.09375 -0.1875l-3.359375 -9.765625l-0.015625 0l0 9.78125q0 0.09375 -0.0625 0.171875q-0.046875 0.0625 -0.1875 0.109375q-0.140625 0.046875 -0.359375 0.078125q-0.21875 0.03125 -0.5625 0.03125q-0.328125 0 -0.5625 -0.03125q-0.21875 -0.03125 -0.359375 -0.078125q-0.125 -0.046875 -0.171875 -0.109375q-0.046875 -0.078125 -0.046875 -0.171875l0 -10.703125q0 -0.46875 0.25 -0.71875q0.25 -0.25 0.671875 -0.25l1.59375 0q0.421875 0 0.71875 0.078125q0.3125 0.0625 0.53125 0.21875q0.234375 0.15625 0.375 0.421875q0.15625 0.265625 0.265625 0.65625l2.59375 7.15625l0.03125 0l2.703125 -7.140625q0.109375 -0.390625 0.25 -0.65625q0.15625 -0.265625 0.34375 -0.421875q0.1875 -0.171875 0.4375 -0.234375q0.265625 -0.078125 0.609375 -0.078125l1.640625 0q0.25 0 0.4375 0.0625q0.1875 0.0625 0.296875 0.1875q0.109375 0.125 0.171875 0.3125q0.0625 0.171875 0.0625 0.40625l0 10.703125z" fill-rule="nonzero"></path><path fill="#a7dbd8" d="m1226.2704 199.88249l0 0c0 -15.443802 12.509644 -27.96347 27.940918 -27.96347l0 0c7.4104004 0 14.517334 2.9461517 19.757202 8.190323c5.23999 5.244156 8.183716 12.356781 8.183716 19.773148l0 0c0 15.443802 -12.5095215 27.96347 -27.940918 27.96347l0 0c-15.431274 0 -27.940918 -12.519669 -27.940918 -27.96347z" fill-rule="nonzero"></path><path stroke="#000000" stroke-width="2.0" stroke-linejoin="round" stroke-linecap="butt" d="m1226.2704 199.88249l0 0c0 -15.443802 12.509644 -27.96347 27.940918 -27.96347l0 0c7.4104004 0 14.517334 2.9461517 19.757202 8.190323c5.23999 5.244156 8.183716 12.356781 8.183716 19.773148l0 0c0 15.443802 -12.5095215 27.96347 -27.940918 27.96347l0 0c-15.431274 0 -27.940918 -12.519669 -27.940918 -27.96347z" fill-rule="nonzero"></path><path fill="#000000" d="m1259.5044 207.01874q0 0.109375 -0.046875 0.1875q-0.046875 0.078125 -0.203125 0.125q-0.140625 0.046875 -0.4375 0.0625q-0.296875 0.03125 -0.8125 0.03125q-0.4375 0 -0.703125 -0.03125q-0.25 -0.015625 -0.40625 -0.0625q-0.140625 -0.0625 -0.203125 -0.140625q-0.0625 -0.09375 -0.09375 -0.21875l-1.1875 -2.96875q-0.21875 -0.5 -0.421875 -0.890625q-0.203125 -0.390625 -0.453125 -0.640625q-0.25 -0.265625 -0.578125 -0.390625q-0.328125 -0.140625 -0.765625 -0.140625l-0.84375 0l0 5.046875q0 0.109375 -0.0625 0.1875q-0.0625 0.078125 -0.21875 0.140625q-0.15625 0.046875 -0.421875 0.078125q-0.25 0.03125 -0.640625 0.03125q-0.390625 0 -0.65625 -0.03125q-0.265625 -0.03125 -0.421875 -0.078125q-0.15625 -0.0625 -0.21875 -0.140625q-0.046875 -0.078125 -0.046875 -0.1875l0 -12.046875q0 -0.453125 0.21875 -0.640625q0.234375 -0.203125 0.578125 -0.203125l3.4375 0q0.515625 0 0.84375 0.015625q0.34375 0.015625 0.625 0.046875q0.796875 0.125 1.4375 0.40625q0.640625 0.265625 1.078125 0.71875q0.453125 0.4375 0.6875 1.046875q0.25 0.609375 0.25 1.40625q0 0.65625 -0.171875 1.21875q-0.171875 0.546875 -0.5 0.984375q-0.328125 0.421875 -0.8125 0.734375q-0.484375 0.3125 -1.09375 0.515625q0.296875 0.140625 0.546875 0.34375q0.265625 0.203125 0.5 0.5q0.234375 0.296875 0.4375 0.671875q0.203125 0.375 0.40625 0.84375l1.109375 2.609375q0.15625 0.390625 0.203125 0.578125q0.0625 0.171875 0.0625 0.28125zm-3.484375 -9.015625q0 -0.65625 -0.296875 -1.09375q-0.296875 -0.453125 -0.96875 -0.640625q-0.203125 -0.046875 -0.46875 -0.078125q-0.265625 -0.03125 -0.71875 -0.03125l-1.21875 0l0 3.765625l1.375 0q0.578125 0 1.0 -0.140625q0.4375 -0.140625 0.71875 -0.390625q0.296875 -0.25 0.4375 -0.59375q0.140625 -0.359375 0.140625 -0.796875z" fill-rule="nonzero"></path><path fill="#000000" fill-opacity="0.0" d="m1185.8151 199.8833l40.455322 -8.087158E-4" fill-rule="nonzero"></path><path stroke="#000000" stroke-width="2.0" stroke-linejoin="round" stroke-linecap="butt" d="m1185.8152 199.8833l28.4552 -5.645752E-4" fill-rule="evenodd"></path><path fill="#000000" stroke="#000000" stroke-width="2.0" stroke-linecap="butt" d="m1214.2705 203.18619l9.07605 -3.30365l-9.076172 -3.3032684z" fill-rule="evenodd"></path><path fill="#cccccc" d="m1289.7087 176.97551l0 0c0 2.7923431 9.054565 5.0559998 20.223999 5.0559998c11.169434 0 20.223999 -2.2636566 20.223999 -5.0559998l0 45.814926c0 2.7923584 -9.054565 5.0559998 -20.223999 5.0559998c-11.169434 0 -20.223999 -2.2636414 -20.223999 -5.0559998z" fill-rule="nonzero"></path><path fill="#e0e0e0" d="m1289.7087 176.97551l0 0c0 -2.7923584 9.054565 -5.0559998 20.223999 -5.0559998c11.169434 0 20.223999 2.2636414 20.223999 5.0559998l0 0c0 2.7923431 -9.054565 5.0559998 -20.223999 5.0559998c-11.169434 0 -20.223999 -2.2636566 -20.223999 -5.0559998z" fill-rule="nonzero"></path><path fill="#000000" fill-opacity="0.0" d="m1330.1567 176.97551l0 0c0 2.7923431 -9.054565 5.0559998 -20.223999 5.0559998c-11.169434 0 -20.223999 -2.2636566 -20.223999 -5.0559998l0 0c0 -2.7923584 9.054565 -5.0559998 20.223999 -5.0559998c11.169434 0 20.223999 2.2636414 20.223999 5.0559998l0 45.814926c0 2.7923584 -9.054565 5.0559998 -20.223999 5.0559998c-11.169434 0 -20.223999 -2.2636414 -20.223999 -5.0559998l0 -45.814926" fill-rule="nonzero"></path><path stroke="#666666" stroke-width="2.0" stroke-linejoin="round" stroke-linecap="butt" d="m1330.1567 176.97551l0 0c0 2.7923431 -9.054565 5.0559998 -20.223999 5.0559998c-11.169434 0 -20.223999 -2.2636566 -20.223999 -5.0559998l0 0c0 -2.7923584 9.054565 -5.0559998 20.223999 -5.0559998c11.169434 0 20.223999 2.2636414 20.223999 5.0559998l0 45.814926c0 2.7923584 -9.054565 5.0559998 -20.223999 5.0559998c-11.169434 0 -20.223999 -2.2636414 -20.223999 -5.0559998l0 -45.814926" fill-rule="nonzero"></path><path fill="#69d2e7" d="m1171.0808 206.37822l0 0c0 1.4154968 4.589966 2.5629883 10.252075 2.5629883c5.6619873 0 10.251953 -1.1474915 10.251953 -2.5629883l0 22.968506c0 1.4154968 -4.589966 2.5629883 -10.251953 2.5629883c-5.6621094 0 -10.252075 -1.1474915 -10.252075 -2.5629883z" fill-rule="nonzero"></path><path fill="#a5e4f0" d="m1171.0808 206.37822l0 0c0 -1.4154968 4.589966 -2.5629883 10.252075 -2.5629883c5.6619873 0 10.251953 1.1474915 10.251953 2.5629883l0 0c0 1.4154968 -4.589966 2.5629883 -10.251953 2.5629883c-5.6621094 0 -10.252075 -1.1474915 -10.252075 -2.5629883z" fill-rule="nonzero"></path><path fill="#000000" fill-opacity="0.0" d="m1191.5848 206.37822l0 0c0 1.4154968 -4.589966 2.5629883 -10.251953 2.5629883c-5.6621094 0 -10.252075 -1.1474915 -10.252075 -2.5629883l0 0c0 -1.4154968 4.589966 -2.5629883 10.252075 -2.5629883c5.6619873 0 10.251953 1.1474915 10.251953 2.5629883l0 22.968506c0 1.4154968 -4.589966 2.5629883 -10.251953 2.5629883c-5.6621094 0 -10.252075 -1.1474915 -10.252075 -2.5629883l0 -22.968506" fill-rule="nonzero"></path><path stroke="#666666" stroke-width="2.0" stroke-linejoin="round" stroke-linecap="butt" d="m1191.5848 206.37822l0 0c0 1.4154968 -4.589966 2.5629883 -10.251953 2.5629883c-5.6621094 0 -10.252075 -1.1474915 -10.252075 -2.5629883l0 0c0 -1.4154968 4.589966 -2.5629883 10.252075 -2.5629883c5.6619873 0 10.251953 1.1474915 10.251953 2.5629883l0 22.968506c0 1.4154968 -4.589966 2.5629883 -10.251953 2.5629883c-5.6621094 0 -10.252075 -1.1474915 -10.252075 -2.5629883l0 -22.968506" fill-rule="nonzero"></path><path fill="#69d2e7" d="m952.4881 206.37822l0 0c0 1.4154968 4.589966 2.5629883 10.252014 2.5629883c5.6619873 0 10.251953 -1.1474915 10.251953 -2.5629883l0 22.968506c0 1.4154968 -4.589966 2.5629883 -10.251953 2.5629883c-5.6620483 0 -10.252014 -1.1474915 -10.252014 -2.5629883z" fill-rule="nonzero"></path><path fill="#a5e4f0" d="m952.4881 206.37822l0 0c0 -1.4154968 4.589966 -2.5629883 10.252014 -2.5629883c5.6619873 0 10.251953 1.1474915 10.251953 2.5629883l0 0c0 1.4154968 -4.589966 2.5629883 -10.251953 2.5629883c-5.6620483 0 -10.252014 -1.1474915 -10.252014 -2.5629883z" fill-rule="nonzero"></path><path fill="#000000" fill-opacity="0.0" d="m972.99207 206.37822l0 0c0 1.4154968 -4.589966 2.5629883 -10.251953 2.5629883c-5.6620483 0 -10.252014 -1.1474915 -10.252014 -2.5629883l0 0c0 -1.4154968 4.589966 -2.5629883 10.252014 -2.5629883c5.6619873 0 10.251953 1.1474915 10.251953 2.5629883l0 22.968506c0 1.4154968 -4.589966 2.5629883 -10.251953 2.5629883c-5.6620483 0 -10.252014 -1.1474915 -10.252014 -2.5629883l0 -22.968506" fill-rule="nonzero"></path><path stroke="#666666" stroke-width="2.0" stroke-linejoin="round" stroke-linecap="butt" d="m972.99207 206.37822l0 0c0 1.4154968 -4.589966 2.5629883 -10.251953 2.5629883c-5.6620483 0 -10.252014 -1.1474915 -10.252014 -2.5629883l0 0c0 -1.4154968 4.589966 -2.5629883 10.252014 -2.5629883c5.6619873 0 10.251953 1.1474915 10.251953 2.5629883l0 22.968506c0 1.4154968 -4.589966 2.5629883 -10.251953 2.5629883c-5.6620483 0 -10.252014 -1.1474915 -10.252014 -2.5629883l0 -22.968506" fill-rule="nonzero"></path><path fill="#69d2e7" d="m734.99744 142.71066l0 0c0 1.4154968 4.589905 2.5629883 10.251953 2.5629883c5.6619873 0 10.251953 -1.1474915 10.251953 -2.5629883l0 22.968506c0 1.4154968 -4.589966 2.5629883 -10.251953 2.5629883c-5.6620483 0 -10.251953 -1.1474915 -10.251953 -2.5629883z" fill-rule="nonzero"></path><path fill="#a5e4f0" d="m734.99744 142.71066l0 0c0 -1.4154968 4.589905 -2.5629883 10.251953 -2.5629883c5.6619873 0 10.251953 1.1474915 10.251953 2.5629883l0 0c0 1.4154968 -4.589966 2.5629883 -10.251953 2.5629883c-5.6620483 0 -10.251953 -1.1474915 -10.251953 -2.5629883z" fill-rule="nonzero"></path><path fill="#000000" fill-opacity="0.0" d="m755.50134 142.71066l0 0c0 1.4154968 -4.589966 2.5629883 -10.251953 2.5629883c-5.6620483 0 -10.251953 -1.1474915 -10.251953 -2.5629883l0 0c0 -1.4154968 4.589905 -2.5629883 10.251953 -2.5629883c5.6619873 0 10.251953 1.1474915 10.251953 2.5629883l0 22.968506c0 1.4154968 -4.589966 2.5629883 -10.251953 2.5629883c-5.6620483 0 -10.251953 -1.1474915 -10.251953 -2.5629883l0 -22.968506" fill-rule="nonzero"></path><path stroke="#666666" stroke-width="2.0" stroke-linejoin="round" stroke-linecap="butt" d="m755.50134 142.71066l0 0c0 1.4154968 -4.589966 2.5629883 -10.251953 2.5629883c-5.6620483 0 -10.251953 -1.1474915 -10.251953 -2.5629883l0 0c0 -1.4154968 4.589905 -2.5629883 10.251953 -2.5629883c5.6619873 0 10.251953 1.1474915 10.251953 2.5629883l0 22.968506c0 1.4154968 -4.589966 2.5629883 -10.251953 2.5629883c-5.6620483 0 -10.251953 -1.1474915 -10.251953 -2.5629883l0 -22.968506" fill-rule="nonzero"></path><path fill="#b7b7b7" d="m458.32153 157.87138l117.55902 0l0 -15.314957l30.629944 30.629929l-30.629944 30.629913l0 -15.314957l-117.55902 0z" fill-rule="nonzero"></path><path stroke="#000000" stroke-width="2.0" stroke-linejoin="round" stroke-linecap="butt" d="m458.32153 157.87138l117.55902 0l0 -15.314957l30.629944 30.629929l-30.629944 30.629913l0 -15.314957l-117.55902 0z" fill-rule="nonzero"></path></g></svg>

