<?xml version="1.0" encoding="UTF-8" standalone="no"?>
<!-- Created with Inkscape (http://www.inkscape.org/) -->

<svg
   xmlns:dc="http://purl.org/dc/elements/1.1/"
   xmlns:cc="http://creativecommons.org/ns#"
   xmlns:rdf="http://www.w3.org/1999/02/22-rdf-syntax-ns#"
   xmlns:svg="http://www.w3.org/2000/svg"
   xmlns="http://www.w3.org/2000/svg"
   version="1.1"
   width="100%"
   height="100%"
   viewBox="0 0 800 160"
   id="svg3713"
   style="fill:none;stroke:none">
  <metadata
     id="metadata3776">
    <rdf:RDF>
      <cc:Work
         rdf:about="">
        <dc:format>image/svg+xml</dc:format>
        <dc:type
           rdf:resource="http://purl.org/dc/dcmitype/StillImage" />
        <dc:title></dc:title>
      </cc:Work>
    </rdf:RDF>
  </metadata>
  <defs
     id="defs3774" />
  <clipPath
     id="p.0">
    <path
       d="M 0,0 452,0 452,161 0,161 0,0 z"
       id="path3716" />
  </clipPath>
  <g
     transform="translate(159.68221,0)"
     id="g5094">
    <path
       d="m 125.24065,13.012123 0,0 C 125.24065,6.378014 130.61491,1 137.24438,1 l 87.91145,0 c 3.18359,0 6.23678,1.2655658 8.48791,3.5182695 2.25115,2.2527146 3.51582,5.3080438 3.51582,8.4938535 l 0,48.047029 c 0,6.63412 -5.37425,12.012123 -12.00373,12.012123 l -87.91145,0 c -6.62947,0 -12.00373,-5.378003 -12.00373,-12.012123 z"
       id="path3722"
       style="fill:#a7dbd8;fill-rule:nonzero" />
    <path
       d="m 125.24064,13.012123 0,0 C 125.24064,6.378014 130.6149,1 137.24437,1 l 87.91145,0 c 3.18359,0 6.23678,1.2655658 8.48791,3.5182696 2.25115,2.2527146 3.51582,5.3080439 3.51582,8.4938534 l 0,48.047031 c 0,6.63412 -5.37425,12.012123 -12.00373,12.012123 l -87.91145,0 c -6.62947,0 -12.00373,-5.378003 -12.00373,-12.012123 z"
       id="path3724"
       style="stroke:#000000;stroke-width:2;stroke-linecap:butt;stroke-linejoin:round" />
    <path
       d="m 156.01277,35.778149 q 0,0.389363 -0.0338,0.660227 -0.0169,0.253941 -0.0677,0.406297 -0.0338,0.135432 -0.11843,0.186224 -0.0677,0.05082 -0.16917,0.05082 -0.0846,0 -0.20301,-0.0338 -0.11841,-0.0338 -0.25375,-0.08462 -0.13534,-0.05081 -0.30451,-0.08462 -0.16917,-0.0338 -0.37218,-0.0338 -0.21993,0 -0.45677,0.10152 -0.23684,0.08462 -0.49059,0.287788 -0.23684,0.203148 -0.52444,0.541729 -0.27067,0.321657 -0.57518,0.812593 l 0,6.179101 q 0,0.10152 -0.0677,0.186213 -0.0677,0.08462 -0.23684,0.152367 -0.15225,0.05081 -0.42293,0.06772 -0.25376,0.0338 -0.67669,0.0338 -0.40601,0 -0.67668,-0.0338 -0.25377,-0.0169 -0.42294,-0.06772 -0.15225,-0.06772 -0.21992,-0.152367 -0.0677,-0.08462 -0.0677,-0.186213 l 0,-9.920411 q 0,-0.10152 0.0508,-0.186224 0.0508,-0.08462 0.1861,-0.135433 0.15225,-0.06772 0.37217,-0.08462 0.23685,-0.0338 0.5921,-0.0338 0.35527,0 0.57519,0.0338 0.23684,0.0169 0.35526,0.08462 0.13534,0.05082 0.18609,0.135433 0.0677,0.08462 0.0677,0.186224 l 0,1.235814 q 0.3891,-0.558653 0.72744,-0.914168 0.33834,-0.355504 0.64285,-0.558652 0.32143,-0.220083 0.62594,-0.304723 0.32143,-0.08462 0.62594,-0.08462 0.15225,0 0.32142,0.0169 0.16917,0.0169 0.33834,0.05081 0.1861,0.0338 0.30451,0.08462 0.13534,0.05081 0.20301,0.118497 0.0677,0.05081 0.0846,0.118509 0.0338,0.06772 0.0508,0.186214 0.0169,0.118508 0.0338,0.355515 0.0169,0.220072 0.0169,0.626368 z m 10.9829,3.74131 q 0,0.507871 -0.21992,0.761812 -0.21993,0.237006 -0.62594,0.237006 l -6.02253,0 q 0,0.626369 0.13534,1.151174 0.15226,0.507871 0.47368,0.880309 0.33834,0.355505 0.84586,0.541729 0.52444,0.186214 1.25187,0.186214 0.72745,0 1.28571,-0.10152 0.55827,-0.10152 0.96429,-0.220072 0.40601,-0.135432 0.65976,-0.237006 0.27068,-0.118509 0.43985,-0.118509 0.10145,0 0.16917,0.05081 0.0677,0.0338 0.10145,0.135433 0.0508,0.10152 0.0677,0.287799 0.0169,0.16929 0.0169,0.457078 0,0.237006 -0.0169,0.423231 0,0.16929 -0.0338,0.287788 -0.0169,0.118509 -0.0677,0.203148 -0.0338,0.08462 -0.11841,0.169291 -0.0677,0.06772 -0.38911,0.203148 -0.32142,0.135432 -0.82893,0.270864 -0.49061,0.118509 -1.13346,0.203149 -0.64285,0.10152 -1.37029,0.10152 -1.31954,0 -2.31766,-0.321646 -0.99811,-0.338581 -1.6748,-1.015742 -0.65978,-0.677161 -0.9812,-1.709837 -0.32143,-1.032665 -0.32143,-2.420846 0,-1.337398 0.33834,-2.386998 0.33835,-1.066523 0.99813,-1.794477 0.65976,-0.744877 1.59021,-1.134239 0.94737,-0.389373 2.11465,-0.389373 1.25187,0 2.13157,0.372438 0.87969,0.355515 1.43796,1.015742 0.57519,0.643303 0.82894,1.540547 0.27068,0.880309 0.27068,1.929909 l 0,0.440155 z M 164.28891,38.7238 q 0.0338,-1.185032 -0.47368,-1.845269 -0.49059,-0.677161 -1.55638,-0.677161 -0.52443,0 -0.93044,0.203148 -0.3891,0.186225 -0.65978,0.524805 -0.25375,0.338581 -0.38909,0.812594 -0.13534,0.457078 -0.15226,0.981883 l 4.16163,0 z m 14.58545,6.043658 q 0,0.118508 -0.0677,0.203148 -0.0508,0.08462 -0.18609,0.135432 -0.11842,0.05081 -0.35526,0.06772 -0.21993,0.0338 -0.55827,0.0338 -0.35526,0 -0.57519,-0.0338 -0.21992,-0.0169 -0.37218,-0.06772 -0.13533,-0.05081 -0.203,-0.135432 -0.0508,-0.08462 -0.0508,-0.203148 l 0,-1.100382 q -0.76128,0.812594 -1.60714,1.269672 -0.82894,0.457089 -1.86089,0.457089 -1.13345,0 -1.91164,-0.440155 -0.77819,-0.440154 -1.28571,-1.185032 -0.49061,-0.744877 -0.71052,-1.72676 -0.21993,-0.998818 -0.21993,-2.0992 0,-1.320464 0.2876,-2.370064 0.28758,-1.066534 0.82893,-1.811411 0.54135,-0.744877 1.35338,-1.134239 0.81203,-0.406297 1.86089,-0.406297 0.82895,0 1.50564,0.33858 0.67669,0.338581 1.35337,0.998808 l 0,-5.366497 q 0,-0.118508 0.0508,-0.203148 0.0677,-0.08462 0.21993,-0.152367 0.16917,-0.06772 0.43985,-0.10152 0.27068,-0.0338 0.67669,-0.0338 0.40601,0 0.67669,0.0338 0.27067,0.0338 0.42292,0.10152 0.15226,0.06772 0.21993,0.152367 0.0677,0.08462 0.0677,0.203148 l 0,14.575888 z m -2.77442,-6.619245 q -0.60902,-0.761811 -1.1673,-1.151174 -0.54135,-0.406296 -1.13344,-0.406296 -0.54135,0 -0.94737,0.270864 -0.3891,0.270865 -0.62594,0.727943 -0.23684,0.457089 -0.35525,1.015742 -0.11843,0.558663 -0.11843,1.151173 0,0.609445 0.10145,1.201967 0.10145,0.59251 0.32143,1.0496 0.23684,0.457078 0.60902,0.744877 0.38909,0.270864 0.96428,0.270864 0.28759,0 0.55827,-0.08462 0.27067,-0.08462 0.54135,-0.270864 0.28759,-0.186225 0.5921,-0.490947 0.30451,-0.304723 0.65977,-0.744878 l 0,-3.284231 z m 15.16606,6.619245 q 0,0.10152 -0.0677,0.186224 -0.0508,0.08462 -0.18608,0.152356 -0.13534,0.05081 -0.37218,0.06772 -0.21993,0.0338 -0.55827,0.0338 -0.37218,0 -0.60902,-0.0338 -0.21992,-0.0169 -0.35526,-0.06772 -0.13533,-0.06772 -0.18609,-0.152356 -0.0508,-0.08462 -0.0508,-0.186224 l 0,-1.151174 q -0.82895,0.897244 -1.67481,1.337398 -0.84586,0.440155 -1.75939,0.440155 -1.01503,0 -1.70863,-0.321657 -0.69361,-0.33858 -1.13346,-0.914167 -0.42292,-0.592511 -0.60902,-1.337388 -0.18608,-0.761812 -0.18608,-1.896051 l 0,-6.077527 q 0,-0.10152 0.0677,-0.186213 0.0677,-0.08462 0.21992,-0.135433 0.16917,-0.06772 0.43984,-0.08462 0.27068,-0.0338 0.65978,-0.0338 0.42292,0 0.67669,0.0338 0.27067,0.0169 0.42292,0.08462 0.16917,0.05082 0.23684,0.135433 0.0677,0.08462 0.0677,0.186213 l 0,5.603514 q 0,0.778735 0.10145,1.201956 0.10145,0.406296 0.30451,0.694095 0.20301,0.287788 0.52444,0.457078 0.32142,0.152367 0.74436,0.152367 0.52442,0 1.06578,-0.389373 0.54135,-0.389362 1.15037,-1.134239 l 0,-6.585398 q 0,-0.10152 0.0508,-0.186213 0.0677,-0.08462 0.21992,-0.135433 0.16917,-0.06772 0.43985,-0.08462 0.27067,-0.0338 0.67669,-0.0338 0.40601,0 0.67669,0.0338 0.27067,0.0169 0.42293,0.08462 0.15225,0.05082 0.21992,0.135433 0.0677,0.08462 0.0677,0.186213 l 0,9.920411 z m 10.49693,-1.591329 q 0,0.304723 -0.0169,0.507871 -0.0169,0.186225 -0.0508,0.321657 -0.0338,0.118498 -0.0677,0.203148 -0.0338,0.08462 -0.16917,0.220072 -0.13534,0.118509 -0.45676,0.304723 -0.32143,0.186224 -0.74435,0.33858 -0.40602,0.135432 -0.89662,0.220083 -0.47368,0.08462 -0.9812,0.08462 -1.13345,0 -2.03006,-0.355515 -0.8797,-0.355504 -1.48872,-1.0496 -0.59209,-0.694084 -0.8966,-1.692902 -0.30451,-0.998808 -0.30451,-2.285414 0,-1.489754 0.37217,-2.573212 0.37218,-1.083458 1.03195,-1.794477 0.67669,-0.711019 1.59022,-1.0496 0.91352,-0.33858 1.99623,-0.33858 0.43984,0 0.86278,0.08462 0.43985,0.06772 0.81202,0.203148 0.37218,0.118498 0.65977,0.287788 0.2876,0.169291 0.40601,0.304723 0.13534,0.118508 0.1861,0.203148 0.0508,0.06772 0.0677,0.203148 0.0338,0.135433 0.0508,0.338581 0.0169,0.186225 0.0169,0.474013 0,0.643303 -0.11843,0.897244 -0.10145,0.25393 -0.28759,0.25393 -0.18609,0 -0.40601,-0.152356 -0.20301,-0.152367 -0.4906,-0.338581 -0.28759,-0.186224 -0.6936,-0.33858 -0.38911,-0.169291 -0.94737,-0.169291 -1.0827,0 -1.65788,0.846452 -0.57519,0.846451 -0.57519,2.454703 0,0.812594 0.13534,1.422039 0.15225,0.609445 0.42292,1.015741 0.2876,0.406297 0.71053,0.62638 0.43984,0.203148 0.99812,0.203148 0.57518,0 0.98119,-0.16929 0.42293,-0.186225 0.72744,-0.389373 0.32143,-0.220072 0.52444,-0.389362 0.21992,-0.169291 0.37218,-0.169291 0.10144,0 0.15225,0.06772 0.0677,0.05082 0.10144,0.203149 0.0508,0.135432 0.0677,0.372438 0.0338,0.237007 0.0338,0.592511 z m 11.30399,-3.65667 q 0,0.507871 -0.21992,0.761812 -0.21993,0.237006 -0.62594,0.237006 l -6.02253,0 q 0,0.626369 0.13534,1.151174 0.15226,0.507871 0.47368,0.880309 0.33834,0.355505 0.84586,0.541729 0.52444,0.186214 1.25187,0.186214 0.72745,0 1.28571,-0.10152 0.55827,-0.10152 0.96429,-0.220072 0.40601,-0.135432 0.65976,-0.237006 0.27068,-0.118509 0.43985,-0.118509 0.10145,0 0.16917,0.05081 0.0677,0.0338 0.10145,0.135433 0.0508,0.10152 0.0677,0.287799 0.0169,0.16929 0.0169,0.457078 0,0.237006 -0.0169,0.423231 0,0.16929 -0.0338,0.287788 -0.0169,0.118509 -0.0677,0.203148 -0.0338,0.08462 -0.11841,0.169291 -0.0677,0.06772 -0.38911,0.203148 -0.32142,0.135432 -0.82893,0.270864 -0.49061,0.118509 -1.13346,0.203149 -0.64285,0.10152 -1.37029,0.10152 -1.31954,0 -2.31766,-0.321646 -0.99811,-0.338581 -1.6748,-1.015742 -0.65978,-0.677161 -0.9812,-1.709837 -0.32143,-1.032665 -0.32143,-2.420846 0,-1.337398 0.33834,-2.386998 0.33835,-1.066523 0.99812,-1.794477 0.65977,-0.744877 1.59022,-1.134239 0.94737,-0.389373 2.11465,-0.389373 1.25187,0 2.13157,0.372438 0.87969,0.355515 1.43796,1.015742 0.57519,0.643303 0.82894,1.540547 0.27068,0.880309 0.27068,1.929909 l 0,0.440155 z M 210.36016,38.7238 q 0.0338,-1.185032 -0.47368,-1.845269 -0.49059,-0.677161 -1.55638,-0.677161 -0.52443,0 -0.93044,0.203148 -0.3891,0.186225 -0.65978,0.524805 -0.25375,0.338581 -0.38909,0.812594 -0.13534,0.457078 -0.15226,0.981883 l 4.16163,0 z"
       id="path3726"
       style="fill:#000000;fill-rule:nonzero" />
    <path
       d="m 0.99999117,13.012123 0,0 C 0.99999117,6.378014 6.3742512,1 13.003711,1 l 87.911449,0 c 3.18359,0 6.23679,1.2655658 8.48792,3.5182695 2.25114,2.2527146 3.51581,5.3080438 3.51581,8.4938535 l 0,48.047029 c 0,6.63412 -5.37425,12.012123 -12.00373,12.012123 l -87.911449,0 c -6.6294598,0 -12.00371983,-5.378003 -12.00371983,-12.012123 z"
       id="path3728"
       style="fill:#69d2e7;fill-rule:nonzero" />
    <path
       d="m 0.99999117,13.012123 0,0 C 0.99999117,6.378014 6.3742412,1 13.003711,1 l 87.911439,0 c 3.1836,0 6.23679,1.2655658 8.48792,3.5182696 2.25114,2.2527146 3.51582,5.3080439 3.51582,8.4938534 l 0,48.047031 c 0,6.63412 -5.37425,12.012123 -12.00374,12.012123 l -87.911439,0 c -6.6294698,0 -12.00371983,-5.378003 -12.00371983,-12.012123 z"
       id="path3730"
       style="stroke:#000000;stroke-width:2;stroke-linecap:butt;stroke-linejoin:round" />
    <path
       d="m 52.825551,44.767468 q 0,0.10152 -0.0677,0.186214 -0.0677,0.08462 -0.21992,0.152367 -0.15226,0.05081 -0.42294,0.06772 -0.27067,0.0338 -0.67668,0.0338 -0.42293,0 -0.6936,-0.0338 -0.27068,-0.0169 -0.43985,-0.06772 -0.15226,-0.06772 -0.21993,-0.152367 -0.0508,-0.08462 -0.0508,-0.186214 l 0,-5.874378 q 0,-0.50787 -0.10145,-0.914167 -0.0846,-0.42322 -0.28758,-0.711019 -0.1861,-0.287788 -0.49061,-0.440155 -0.28759,-0.16929 -0.6936,-0.16929 -0.50752,0 -1.01503,0.389373 -0.50752,0.389362 -1.09963,1.134239 l 0,6.585397 q 0,0.10152 -0.0677,0.186214 -0.0677,0.08462 -0.23684,0.152367 -0.15225,0.05081 -0.42293,0.06772 -0.27067,0.0338 -0.65978,0.0338 -0.42292,0 -0.6936,-0.0338 -0.25376,-0.0169 -0.42293,-0.06772 -0.15225,-0.06772 -0.21992,-0.152367 -0.0677,-0.08462 -0.0677,-0.186214 l 0,-5.874378 q 0,-0.50787 -0.10145,-0.914167 -0.0846,-0.42322 -0.2876,-0.711019 -0.18608,-0.287788 -0.49059,-0.440155 -0.2876,-0.16929 -0.69361,-0.16929 -0.50752,0 -1.01503,0.389373 -0.50752,0.389362 -1.09962,1.134239 l 0,6.585397 q 0,0.10152 -0.0677,0.186214 -0.0677,0.08462 -0.23684,0.152367 -0.15227,0.05081 -0.42294,0.06772 -0.25375,0.0338 -0.67669,0.0338 -0.40601,0 -0.67669,-0.0338 -0.25375,-0.0169 -0.42292,-0.06772 -0.15226,-0.06772 -0.21993,-0.152367 -0.0677,-0.08462 -0.0677,-0.186214 l 0,-9.92041 q 0,-0.10152 0.0508,-0.186224 0.0508,-0.08462 0.18609,-0.135433 0.15225,-0.06772 0.37218,-0.08462 0.23684,-0.0338 0.5921,-0.0338 0.35527,0 0.57518,0.0338 0.23684,0.0169 0.35527,0.08462 0.13534,0.05082 0.18608,0.135433 0.0677,0.08462 0.0677,0.186224 l 0,1.151174 q 0.81203,-0.897244 1.62406,-1.337398 0.82894,-0.440155 1.70864,-0.440155 0.60902,0 1.09961,0.135432 0.49061,0.118509 0.86278,0.355515 0.38909,0.237006 0.65977,0.575587 0.2876,0.338581 0.47368,0.744877 0.45677,-0.474013 0.8797,-0.812593 0.42293,-0.355515 0.82894,-0.575587 0.42293,-0.220083 0.84586,-0.321657 0.42293,-0.10152 0.84587,-0.10152 0.9981,0 1.67479,0.338581 0.67669,0.321657 1.0827,0.897243 0.42294,0.575587 0.59211,1.337388 0.18609,0.761812 0.18609,1.625187 l 0,6.348391 z m 11.45964,0.0338 q 0,0.152356 -0.11842,0.237007 -0.10145,0.08462 -0.33835,0.118498 -0.23684,0.05081 -0.6936,0.05081 -0.50751,0 -0.74436,-0.05081 -0.21992,-0.0338 -0.32143,-0.118498 -0.0846,-0.08462 -0.0846,-0.237007 l 0,-0.795669 q -0.60902,0.660237 -1.40412,1.032676 -0.77819,0.355504 -1.72555,0.355504 -0.79512,0 -1.45488,-0.203148 -0.65978,-0.203149 -1.15037,-0.609445 -0.47369,-0.406297 -0.74436,-0.998808 -0.25376,-0.609445 -0.25376,-1.405114 0,-0.863375 0.33834,-1.506678 0.33834,-0.643303 0.99812,-1.0496 0.67669,-0.423231 1.6748,-0.62638 0.99812,-0.203148 2.31766,-0.203148 l 0.96428,0 0,-0.59251 q 0,-0.474013 -0.10145,-0.812594 -0.0846,-0.355515 -0.30451,-0.592521 -0.20301,-0.237006 -0.57519,-0.338581 -0.35525,-0.118497 -0.8966,-0.118497 -0.69362,0 -1.25188,0.16929 -0.54135,0.152356 -0.96428,0.33858 -0.42293,0.186214 -0.71053,0.338581 -0.27067,0.152356 -0.45676,0.152356 -0.11842,0 -0.21992,-0.06772 -0.0846,-0.08462 -0.15225,-0.220072 -0.0508,-0.152367 -0.0846,-0.355515 -0.0338,-0.220072 -0.0338,-0.474013 0,-0.338581 0.0508,-0.541729 0.0508,-0.203148 0.203,-0.355504 0.16917,-0.16929 0.55826,-0.355515 0.38911,-0.203148 0.89662,-0.372439 0.52443,-0.16929 1.13345,-0.270864 0.62594,-0.10152 1.28571,-0.10152 1.16729,0 1.99623,0.237006 0.82895,0.220083 1.35337,0.694096 0.54135,0.474013 0.77819,1.21889 0.23685,0.744877 0.23685,1.760619 l 0,6.670037 z m -2.74059,-4.249191 -1.06578,0 q -0.67669,0 -1.15037,0.10152 -0.47369,0.10152 -0.7782,0.304723 -0.30451,0.186224 -0.43984,0.474012 -0.13534,0.287799 -0.13534,0.660238 0,0.609445 0.3891,0.964949 0.40601,0.355515 1.09961,0.355515 0.59211,0 1.0827,-0.287799 0.49061,-0.304722 0.99812,-0.880309 l 0,-1.692903 z m 15.67948,-0.897233 q 0,1.337388 -0.2876,2.403922 -0.27068,1.0496 -0.82894,1.794477 -0.54135,0.744877 -1.35338,1.151174 -0.81202,0.389362 -1.84397,0.389362 -0.43984,0 -0.81202,-0.08462 -0.35527,-0.08462 -0.69361,-0.25393 -0.33835,-0.16929 -0.67669,-0.423231 -0.32142,-0.25393 -0.67669,-0.609445 l 0,4.672411 q 0,0.118509 -0.0677,0.203149 -0.0677,0.08462 -0.23684,0.135432 -0.15225,0.06772 -0.42292,0.10152 -0.25377,0.0338 -0.67669,0.0338 -0.40601,0 -0.67669,-0.0338 -0.25376,-0.0338 -0.42293,-0.10152 -0.15225,-0.05081 -0.21992,-0.135432 -0.0677,-0.08462 -0.0677,-0.203149 l 0,-13.847944 q 0,-0.10152 0.0508,-0.186214 0.0508,-0.08462 0.18608,-0.135432 0.15226,-0.06772 0.37218,-0.08462 0.23684,-0.0338 0.57518,-0.0338 0.33835,0 0.55828,0.0338 0.23684,0.0169 0.37218,0.08462 0.13533,0.05081 0.18608,0.135432 0.0508,0.08462 0.0508,0.186214 l 0,1.168108 q 0.43985,-0.440155 0.84586,-0.778735 0.42293,-0.338581 0.84586,-0.558663 0.43985,-0.237007 0.89662,-0.338581 0.47368,-0.118498 0.99811,-0.118498 1.0827,0 1.84397,0.42322 0.77819,0.423232 1.25187,1.168109 0.4906,0.744877 0.71052,1.743684 0.21993,0.981884 0.21993,2.0992 z m -2.90976,0.203148 q 0,-0.626379 -0.10145,-1.201966 -0.0846,-0.592511 -0.32143,-1.0496 -0.21992,-0.457078 -0.5921,-0.727943 -0.37218,-0.270864 -0.93044,-0.270864 -0.27068,0 -0.54135,0.08462 -0.27068,0.08462 -0.55828,0.270865 -0.28758,0.186213 -0.59209,0.490936 -0.2876,0.304722 -0.62594,0.744877 l 0,3.267308 q 0.5921,0.744877 1.11653,1.151174 0.54135,0.406296 1.11654,0.406296 0.54135,0 0.91353,-0.270864 0.3891,-0.287799 0.62593,-0.727954 0.25376,-0.457078 0.37218,-1.015741 0.11842,-0.575587 0.11842,-1.151174 z"
       id="path3732"
       style="fill:#000000;fill-rule:nonzero" />
    <path
       d="m 367.71669,13.404562 0,0 c 0,-6.6341088 5.37425,-12.012122 12.00371,-12.012122 l 87.91144,0 c 3.18361,0 6.2368,1.2655542 8.48795,3.5182688 2.2511,2.2527037 3.51581,5.3080332 3.51581,8.4938532 l 0,48.047029 c 0,6.63411 -5.37426,12.012123 -12.00376,12.012123 l -87.91144,0 c -6.62946,0 -12.00371,-5.378013 -12.00371,-12.012123 z"
       id="path3734"
       style="fill:#e0e4cc;fill-rule:nonzero" />
    <path
       d="m 367.71667,13.404563 0,0 c 0,-6.6341097 5.37426,-12.012123 12.00372,-12.012123 l 87.91144,0 c 3.1836,0 6.2368,1.2655542 8.48794,3.5182688 2.25111,2.2527038 3.51581,5.3080332 3.51581,8.4938542 l 0,48.04703 c 0,6.63411 -5.37425,12.012123 -12.00375,12.012123 l -87.91144,0 c -6.62946,0 -12.00372,-5.378013 -12.00372,-12.012123 z"
       id="path3736"
       style="stroke:#000000;stroke-width:2;stroke-linecap:butt;stroke-linejoin:round" />
    <path
       d="m 408.21973,43.568568 q 0,0.304723 -0.0169,0.507871 -0.0169,0.186225 -0.0508,0.321657 -0.0338,0.118498 -0.0677,0.203148 -0.0338,0.08462 -0.16918,0.220072 -0.13533,0.118509 -0.45676,0.304723 -0.32143,0.186225 -0.74435,0.33858 -0.40602,0.135433 -0.89662,0.220083 -0.47368,0.08462 -0.9812,0.08462 -1.13345,0 -2.03006,-0.355515 -0.8797,-0.355504 -1.48872,-1.049599 -0.59209,-0.694085 -0.8966,-1.692903 -0.30451,-0.998807 -0.30451,-2.285414 0,-1.489754 0.37218,-2.573212 0.37217,-1.083458 1.03194,-1.794477 0.67669,-0.711019 1.59022,-1.049599 0.91353,-0.338581 1.99623,-0.338581 0.43984,0 0.86278,0.08462 0.43985,0.06772 0.81203,0.203148 0.37217,0.118498 0.65976,0.287788 0.2876,0.169291 0.40601,0.304723 0.13534,0.118509 0.1861,0.203148 0.0508,0.06772 0.0677,0.203149 0.0338,0.135432 0.0508,0.33858 0.0169,0.186225 0.0169,0.474013 0,0.643303 -0.11843,0.897244 -0.10145,0.25393 -0.28759,0.25393 -0.18609,0 -0.40601,-0.152356 -0.20301,-0.152367 -0.4906,-0.338581 -0.28759,-0.186224 -0.6936,-0.33858 -0.3891,-0.16929 -0.94737,-0.16929 -1.0827,0 -1.65788,0.846451 -0.57519,0.846451 -0.57519,2.454704 0,0.812593 0.13534,1.422038 0.15225,0.609445 0.42292,1.015742 0.2876,0.406296 0.71053,0.626379 0.43984,0.203148 0.99812,0.203148 0.57518,0 0.9812,-0.16929 0.42292,-0.186225 0.72743,-0.389373 0.32143,-0.220072 0.52444,-0.389362 0.21992,-0.16929 0.37218,-0.16929 0.10145,0 0.15225,0.06772 0.0677,0.05081 0.10145,0.203148 0.0508,0.135432 0.0677,0.372439 0.0338,0.237006 0.0338,0.59251 z m 8.52954,-7.397979 q 0,0.389362 -0.0338,0.660226 -0.0169,0.253941 -0.0677,0.406297 -0.0338,0.135432 -0.11842,0.186225 -0.0677,0.05081 -0.16917,0.05081 -0.0846,0 -0.20301,-0.0338 -0.11842,-0.0338 -0.25376,-0.08462 -0.13534,-0.05081 -0.30451,-0.08462 -0.16917,-0.0338 -0.37218,-0.0338 -0.21992,0 -0.45676,0.10152 -0.23684,0.08462 -0.4906,0.287788 -0.23684,0.203148 -0.52443,0.541729 -0.27068,0.321657 -0.57519,0.812593 l 0,6.179101 q 0,0.10152 -0.0677,0.186214 -0.0677,0.08462 -0.23684,0.152366 -0.15226,0.05081 -0.42293,0.06772 -0.25375,0.0338 -0.67669,0.0338 -0.40601,0 -0.67669,-0.0338 -0.25375,-0.0169 -0.42292,-0.06772 -0.15226,-0.06772 -0.21993,-0.152366 -0.0677,-0.08462 -0.0677,-0.186214 l 0,-9.92041 q 0,-0.10152 0.0508,-0.186225 0.0508,-0.08462 0.18608,-0.135432 0.15226,-0.06772 0.37218,-0.08462 0.23684,-0.0338 0.59211,-0.0338 0.35525,0 0.57518,0.0338 0.23684,0.0169 0.35526,0.08462 0.13534,0.05081 0.18609,0.135432 0.0677,0.08462 0.0677,0.186225 l 0,1.235813 q 0.38909,-0.558652 0.72744,-0.914167 0.33834,-0.355504 0.64285,-0.558653 0.32143,-0.220083 0.62594,-0.304722 0.32142,-0.08462 0.62593,-0.08462 0.15226,0 0.32144,0.0169 0.16917,0.0169 0.33834,0.05081 0.18608,0.0338 0.30451,0.08462 0.13534,0.05081 0.20301,0.118498 0.0677,0.05081 0.0846,0.118508 0.0338,0.06772 0.0508,0.186214 0.0169,0.118509 0.0338,0.355515 0.0169,0.220072 0.0169,0.626369 z m 11.8626,3.927534 q 0,1.269672 -0.33835,2.319271 -0.33834,1.032677 -1.01503,1.794477 -0.67669,0.761812 -1.70863,1.168109 -1.01503,0.406296 -2.36841,0.406296 -1.31954,0 -2.30074,-0.355515 -0.9812,-0.372438 -1.62405,-1.066523 -0.64286,-0.711019 -0.96429,-1.726761 -0.30451,-1.032676 -0.30451,-2.336206 0,-1.269682 0.33835,-2.319282 0.33834,-1.0496 1.01503,-1.794477 0.67669,-0.761801 1.69172,-1.168097 1.01503,-0.406297 2.38533,-0.406297 1.33645,0 2.30074,0.372439 0.9812,0.355504 1.62405,1.049599 0.64286,0.694085 0.94737,1.726761 0.32142,1.015742 0.32142,2.336206 z m -2.87593,0.118498 q 0,-0.744877 -0.11841,-1.354322 -0.11843,-0.626369 -0.40602,-1.066524 -0.27067,-0.457089 -0.72744,-0.711019 -0.45676,-0.270864 -1.16728,-0.270864 -0.60902,0 -1.0827,0.237006 -0.47369,0.220072 -0.77819,0.660227 -0.2876,0.440154 -0.43985,1.066534 -0.15226,0.609445 -0.15226,1.405104 0,0.727953 0.11842,1.354322 0.13534,0.609445 0.40602,1.066534 0.27067,0.457078 0.72743,0.711019 0.47368,0.237007 1.16729,0.237007 0.62593,0 1.0827,-0.220083 0.47369,-0.237006 0.7782,-0.660227 0.30451,-0.440154 0.43984,-1.049599 0.15225,-0.62638 0.15225,-1.405115 z m 12.24506,2.133057 q 0,0.846452 -0.32143,1.489755 -0.32142,0.643303 -0.89661,1.083458 -0.57518,0.423231 -1.3703,0.643303 -0.77819,0.220082 -1.69172,0.220082 -0.55826,0 -1.06578,-0.08462 -0.50751,-0.08462 -0.91353,-0.203148 -0.3891,-0.135432 -0.65977,-0.270864 -0.27068,-0.135433 -0.38909,-0.237007 -0.11843,-0.118508 -0.1861,-0.372438 -0.0677,-0.253941 -0.0677,-0.744878 0,-0.321657 0.0169,-0.507871 0.0338,-0.203148 0.0677,-0.321656 0.0508,-0.118498 0.11842,-0.152356 0.0677,-0.0338 0.16917,-0.0338 0.11843,0 0.35527,0.135432 0.23684,0.135432 0.59209,0.304723 0.35527,0.16929 0.82895,0.321646 0.47368,0.135432 1.06578,0.135432 0.3891,0 0.67669,-0.06772 0.2876,-0.08462 0.50751,-0.220072 0.21993,-0.152367 0.32144,-0.372439 0.11841,-0.237006 0.11841,-0.524805 0,-0.321646 -0.203,-0.558653 -0.20301,-0.237006 -0.54135,-0.406296 -0.33835,-0.186225 -0.7782,-0.338581 -0.42292,-0.16929 -0.87969,-0.355515 -0.43985,-0.186214 -0.86277,-0.42322 -0.42294,-0.253941 -0.77819,-0.609445 -0.33835,-0.355515 -0.54135,-0.846451 -0.20301,-0.507871 -0.20301,-1.201967 0,-0.711019 0.27067,-1.30353 0.28759,-0.609445 0.81203,-1.032676 0.52443,-0.42322 1.26878,-0.643303 0.74436,-0.237006 1.67481,-0.237006 0.47369,0 0.91353,0.06772 0.43985,0.06772 0.79511,0.16929 0.35526,0.10152 0.5921,0.220083 0.25376,0.10152 0.35526,0.186214 0.10145,0.08462 0.13534,0.16929 0.0508,0.08462 0.0677,0.203149 0.0338,0.118508 0.0508,0.287798 0.0169,0.169291 0.0169,0.423221 0,0.304722 -0.0169,0.490947 -0.0169,0.186214 -0.0677,0.304722 -0.0338,0.10152 -0.10145,0.152356 -0.0508,0.0338 -0.15226,0.0338 -0.10145,0 -0.32143,-0.118498 -0.203,-0.118508 -0.52443,-0.25394 -0.30451,-0.135433 -0.72744,-0.237007 -0.40601,-0.118498 -0.94736,-0.118498 -0.37218,0 -0.65978,0.08462 -0.27067,0.06772 -0.45676,0.220072 -0.16917,0.135433 -0.25376,0.338581 -0.0846,0.186225 -0.0846,0.406297 0,0.33858 0.20301,0.575587 0.21991,0.237006 0.55826,0.423231 0.33834,0.16929 0.77819,0.321646 0.43985,0.152366 0.87969,0.33858 0.45677,0.186225 0.89662,0.440155 0.43985,0.237006 0.77819,0.592521 0.35526,0.355505 0.55827,0.846452 0.21993,0.490936 0.21993,1.168097 z m 9.21198,0 q 0,0.846452 -0.32143,1.489755 -0.32143,0.643303 -0.89661,1.083458 -0.57519,0.423231 -1.3703,0.643303 -0.77819,0.220082 -1.69172,0.220082 -0.55826,0 -1.06578,-0.08462 -0.50751,-0.08462 -0.91353,-0.203148 -0.3891,-0.135432 -0.65977,-0.270864 -0.27068,-0.135433 -0.38909,-0.237007 -0.11843,-0.118508 -0.1861,-0.372438 -0.0677,-0.253941 -0.0677,-0.744878 0,-0.321657 0.0169,-0.507871 0.0338,-0.203148 0.0677,-0.321656 0.0508,-0.118498 0.11842,-0.152356 0.0677,-0.0338 0.16917,-0.0338 0.11842,0 0.35527,0.135432 0.23684,0.135432 0.59209,0.304723 0.35527,0.16929 0.82895,0.321646 0.47368,0.135432 1.06578,0.135432 0.3891,0 0.67669,-0.06772 0.2876,-0.08462 0.50751,-0.220072 0.21993,-0.152367 0.32144,-0.372439 0.11841,-0.237006 0.11841,-0.524805 0,-0.321646 -0.20301,-0.558653 -0.203,-0.237006 -0.54135,-0.406296 -0.33834,-0.186225 -0.77819,-0.338581 -0.42292,-0.16929 -0.87969,-0.355515 -0.43985,-0.186214 -0.86277,-0.42322 -0.42294,-0.253941 -0.7782,-0.609445 -0.33834,-0.355515 -0.54135,-0.846451 -0.203,-0.507871 -0.203,-1.201967 0,-0.711019 0.27067,-1.30353 0.28759,-0.609445 0.81203,-1.032676 0.52443,-0.42322 1.26878,-0.643303 0.74436,-0.237006 1.67481,-0.237006 0.47368,0 0.91353,0.06772 0.43985,0.06772 0.7951,0.16929 0.35527,0.10152 0.59211,0.220083 0.25375,0.10152 0.35526,0.186214 0.10145,0.08462 0.13534,0.16929 0.0508,0.08462 0.0677,0.203149 0.0338,0.118508 0.0508,0.287798 0.0169,0.169291 0.0169,0.423221 0,0.304722 -0.0169,0.490947 -0.0169,0.186214 -0.0677,0.304722 -0.0338,0.10152 -0.10145,0.152356 -0.0508,0.0338 -0.15226,0.0338 -0.10144,0 -0.32142,-0.118498 -0.203,-0.118508 -0.52444,-0.25394 -0.30451,-0.135433 -0.72743,-0.237007 -0.40601,-0.118498 -0.94736,-0.118498 -0.37218,0 -0.65978,0.08462 -0.27068,0.06772 -0.45676,0.220072 -0.16917,0.135433 -0.25376,0.338581 -0.0846,0.186225 -0.0846,0.406297 0,0.33858 0.203,0.575587 0.21992,0.237006 0.55827,0.423231 0.33834,0.16929 0.77819,0.321646 0.43985,0.152366 0.87969,0.33858 0.45677,0.186225 0.89662,0.440155 0.43985,0.237006 0.77819,0.592521 0.35526,0.355505 0.55826,0.846452 0.21993,0.490936 0.21993,1.168097 z"
       id="path3738"
       style="fill:#000000;fill-rule:nonzero" />
    <path
       d="m 246.47902,13.404562 0,0 c 0,-6.6341088 5.37425,-12.012122 12.00373,-12.012122 l 87.91145,0 c 3.18357,0 6.23676,1.2655542 8.48791,3.5182688 2.25114,2.2527037 3.5158,5.3080332 3.5158,8.4938532 l 0,48.047029 c 0,6.63411 -5.37425,12.012123 -12.00371,12.012123 l -87.91145,0 c -6.62947,0 -12.00373,-5.378013 -12.00373,-12.012123 z"
       id="path3740"
       style="fill:#f3b33f;fill-rule:nonzero" />
    <path
       d="m 246.47901,13.404563 0,0 c 0,-6.6341097 5.37425,-12.012123 12.00373,-12.012123 l 87.91145,0 c 3.18357,0 6.23675,1.2655542 8.48791,3.5182688 2.25114,2.2527038 3.5158,5.3080332 3.5158,8.4938542 l 0,48.04703 c 0,6.63411 -5.37425,12.012123 -12.00371,12.012123 l -87.91145,0 c -6.62947,0 -12.00373,-5.378013 -12.00373,-12.012123 z"
       id="path3742"
       style="stroke:#000000;stroke-width:2;stroke-linecap:butt;stroke-linejoin:round" />
    <path
       d="m 288.66665,45.481554 q 0,1.168097 -0.203,1.896051 -0.20301,0.727943 -0.60902,1.21889 -0.40602,0.490936 -1.01504,0.744877 -0.60902,0.25393 -1.43795,0.25393 -0.45677,0 -0.77819,-0.06772 -0.32144,-0.06772 -0.45677,-0.135432 -0.15225,-0.06772 -0.20301,-0.16929 -0.0508,-0.08462 -0.0677,-0.220072 -0.0338,-0.118509 -0.0338,-0.287799 -0.0169,-0.152356 -0.0169,-0.423221 0,-0.304722 0.0169,-0.50787 0.0169,-0.203149 0.0677,-0.338581 0.0338,-0.118509 0.0846,-0.16929 0.0508,-0.05081 0.15225,-0.05081 0.0508,0 0.21993,0.0169 0.16917,0.0338 0.37217,0.0338 0.28759,0 0.4906,-0.08462 0.21993,-0.08462 0.35526,-0.287799 0.13534,-0.186213 0.20301,-0.50787 0.0677,-0.304723 0.0677,-0.964949 l 0,-10.157417 q 0,-0.118509 0.0677,-0.203148 0.0677,-0.08462 0.21992,-0.135433 0.15226,-0.06772 0.42293,-0.10152 0.27068,-0.0338 0.67669,-0.0338 0.40601,0 0.67669,0.0338 0.27067,0.0338 0.42292,0.10152 0.16918,0.05082 0.23684,0.135433 0.0677,0.08462 0.0677,0.203148 l 0,10.208198 z m 0.20301,-13.594015 q 0,0.846452 -0.33835,1.168109 -0.33834,0.321646 -1.2857,0.321646 -0.93044,0 -1.26879,-0.304723 -0.32143,-0.321646 -0.32143,-1.134239 0,-0.829528 0.33834,-1.151174 0.33835,-0.338581 1.28571,-0.338581 0.93045,0 1.25187,0.321646 0.33835,0.304723 0.33835,1.117316 z m 12.69774,8.210584 q 0,1.269672 -0.33834,2.319271 -0.33834,1.032677 -1.01503,1.794477 -0.67669,0.761812 -1.70863,1.168109 -1.01504,0.406296 -2.36841,0.406296 -1.31955,0 -2.30074,-0.355515 -0.9812,-0.372438 -1.62406,-1.066523 -0.64285,-0.711019 -0.96428,-1.726761 -0.30451,-1.032676 -0.30451,-2.336206 0,-1.269682 0.33834,-2.319282 0.33835,-1.0496 1.01504,-1.794477 0.67668,-0.761801 1.69172,-1.168097 1.01503,-0.406297 2.38533,-0.406297 1.33645,0 2.30074,0.372439 0.98119,0.355504 1.62405,1.049599 0.64285,0.694085 0.94736,1.726761 0.32142,1.015742 0.32142,2.336206 z m -2.87592,0.118498 q 0,-0.744877 -0.11842,-1.354322 -0.11842,-0.626369 -0.40601,-1.066524 -0.27067,-0.457089 -0.72744,-0.711019 -0.45676,-0.270864 -1.16729,-0.270864 -0.60902,0 -1.0827,0.237006 -0.47368,0.220072 -0.77819,0.660227 -0.2876,0.440154 -0.43985,1.066534 -0.15226,0.609445 -0.15226,1.405104 0,0.727953 0.11843,1.354322 0.13534,0.609445 0.40601,1.066534 0.27068,0.457078 0.72744,0.711019 0.47368,0.237007 1.16729,0.237007 0.62593,0 1.0827,-0.220083 0.47368,-0.237006 0.77819,-0.660227 0.30451,-0.440154 0.43985,-1.049599 0.15225,-0.62638 0.15225,-1.405115 z m 8.0665,4.943276 q 0,0.10152 -0.0677,0.186225 -0.0677,0.08462 -0.23684,0.152355 -0.15225,0.05082 -0.42292,0.06772 -0.25377,0.0338 -0.67669,0.0338 -0.40601,0 -0.67669,-0.0338 -0.25376,-0.0169 -0.42294,-0.06772 -0.15224,-0.06772 -0.21991,-0.152355 -0.0677,-0.08462 -0.0677,-0.186225 l 0,-9.886552 q 0,-0.118498 0.0677,-0.203149 0.0677,-0.08462 0.21991,-0.135432 0.16918,-0.06772 0.42294,-0.10152 0.27068,-0.0338 0.67669,-0.0338 0.42292,0 0.67669,0.0338 0.27067,0.0338 0.42292,0.10152 0.16917,0.05081 0.23684,0.135432 0.0677,0.08462 0.0677,0.203149 l 0,9.886552 z m 0.21993,-13.272358 q 0,0.846452 -0.35527,1.168109 -0.33834,0.321646 -1.26878,0.321646 -0.94736,0 -1.28571,-0.304723 -0.32143,-0.321646 -0.32143,-1.134239 0,-0.829528 0.33834,-1.151174 0.33835,-0.338581 1.28571,-0.338581 0.93045,0 1.2688,0.321646 0.33834,0.304723 0.33834,1.117316 z m 12.11697,13.272358 q 0,0.10152 -0.0677,0.186225 -0.0677,0.08462 -0.21992,0.152355 -0.15226,0.05082 -0.43985,0.06772 -0.27068,0.0338 -0.65978,0.0338 -0.40601,0 -0.6936,-0.0338 -0.27067,-0.0169 -0.42293,-0.06772 -0.15225,-0.06772 -0.21992,-0.152355 -0.0677,-0.08462 -0.0677,-0.186225 l 0,-5.654295 q 0,-0.727943 -0.10145,-1.13424 -0.10145,-0.423231 -0.30451,-0.711019 -0.203,-0.287799 -0.52444,-0.440155 -0.30451,-0.16929 -0.72743,-0.16929 -0.54135,0 -1.0827,0.389362 -0.54135,0.389373 -1.13346,1.134251 l 0,6.585386 q 0,0.10152 -0.0677,0.186225 -0.0677,0.08462 -0.23684,0.152355 -0.15225,0.05082 -0.42292,0.06772 -0.25377,0.0338 -0.67669,0.0338 -0.40602,0 -0.67669,-0.0338 -0.25376,-0.0169 -0.42294,-0.06772 -0.15225,-0.06772 -0.21992,-0.152355 -0.0677,-0.08462 -0.0677,-0.186225 l 0,-9.92041 q 0,-0.10152 0.0508,-0.186214 0.0508,-0.08462 0.1861,-0.135432 0.15225,-0.06772 0.37218,-0.08462 0.23684,-0.0338 0.59209,-0.0338 0.35527,0 0.57519,0.0338 0.23684,0.0169 0.35527,0.08462 0.13533,0.05081 0.18608,0.135432 0.0677,0.08462 0.0677,0.186214 l 0,1.151174 q 0.81202,-0.897233 1.65789,-1.337388 0.86278,-0.440155 1.77631,-0.440155 1.01503,0 1.70863,0.338581 0.69361,0.321646 1.11653,0.897233 0.43985,0.575587 0.62595,1.337398 0.18608,0.761801 0.18608,1.845259 l 0,6.128308 z"
       id="path3744"
       style="fill:#000000;fill-rule:nonzero" />
    <path
       d="m 367.71669,98.940844 0,0 c 0,-6.634109 5.37425,-12.012112 12.00371,-12.012112 l 87.91144,0 c 3.18361,0 6.2368,1.265555 8.48795,3.518269 2.2511,2.252704 3.51581,5.308033 3.51581,8.493843 l 0,48.047036 c 0,6.63411 -5.37426,12.01212 -12.00376,12.01212 l -87.91144,0 c -6.62946,0 -12.00371,-5.37801 -12.00371,-12.01212 z"
       id="path3746"
       style="fill:#4ecdc4;fill-rule:nonzero" />
    <path
       d="m 367.71667,98.940847 0,0 c 0,-6.634109 5.37426,-12.012112 12.00372,-12.012112 l 87.91144,0 c 3.1836,0 6.2368,1.265554 8.48794,3.518269 2.25111,2.252704 3.51581,5.308033 3.51581,8.493843 l 0,48.047033 c 0,6.63411 -5.37425,12.01212 -12.00375,12.01212 l -87.91144,0 c -6.62946,0 -12.00372,-5.37801 -12.00372,-12.01212 z"
       id="path3748"
       style="stroke:#000000;stroke-width:2;stroke-linecap:butt;stroke-linejoin:round" />
    <path
       d="m 393.35877,129.10485 q 0,0.30473 -0.0169,0.50787 -0.0169,0.18623 -0.0508,0.32166 -0.0338,0.1185 -0.0677,0.20314 -0.0338,0.0846 -0.16917,0.22008 -0.13533,0.1185 -0.45676,0.30472 -0.32143,0.18622 -0.74435,0.33859 -0.40602,0.13543 -0.89662,0.22007 -0.47368,0.0846 -0.9812,0.0846 -1.13345,0 -2.03006,-0.35552 -0.8797,-0.3555 -1.48872,-1.04959 -0.59209,-0.69409 -0.8966,-1.6929 -0.30451,-0.99882 -0.30451,-2.28543 0,-1.48975 0.37218,-2.57321 0.37217,-1.08346 1.03194,-1.79447 0.67669,-0.71102 1.59022,-1.0496 0.91353,-0.33859 1.99623,-0.33859 0.43984,0 0.86278,0.0846 0.43985,0.0677 0.81203,0.20315 0.37217,0.1185 0.65976,0.28779 0.2876,0.16929 0.40601,0.30472 0.13534,0.11851 0.1861,0.20315 0.0508,0.0677 0.0677,0.20315 0.0338,0.13543 0.0508,0.33858 0.0169,0.18622 0.0169,0.47401 0,0.6433 -0.11843,0.89725 -0.10145,0.25393 -0.28759,0.25393 -0.18609,0 -0.40601,-0.15236 -0.20301,-0.15237 -0.4906,-0.33858 -0.28759,-0.18623 -0.6936,-0.33858 -0.38911,-0.16929 -0.94737,-0.16929 -1.0827,0 -1.65788,0.84645 -0.57519,0.84645 -0.57519,2.4547 0,0.8126 0.13534,1.42204 0.15225,0.60945 0.42292,1.01574 0.2876,0.4063 0.71053,0.62638 0.43984,0.20315 0.99812,0.20315 0.57518,0 0.98119,-0.16929 0.42293,-0.18622 0.72744,-0.38937 0.32143,-0.22007 0.52444,-0.38936 0.21992,-0.16929 0.37218,-0.16929 0.10145,0 0.15225,0.0677 0.0677,0.0508 0.10145,0.20315 0.0508,0.13543 0.0677,0.37244 0.0338,0.237 0.0338,0.59251 z m 12.18369,-3.47044 q 0,1.26967 -0.33834,2.31927 -0.33835,1.03268 -1.01503,1.79448 -0.67669,0.7618 -1.70864,1.16809 -1.01503,0.4063 -2.36841,0.4063 -1.31954,0 -2.30073,-0.3555 -0.9812,-0.37244 -1.62406,-1.06653 -0.64285,-0.71102 -0.96428,-1.72676 -0.30451,-1.03267 -0.30451,-2.3362 0,-1.26969 0.33834,-2.31929 0.33835,-1.04959 1.01503,-1.79447 0.67669,-0.7618 1.69172,-1.1681 1.01504,-0.4063 2.38534,-0.4063 1.33645,0 2.30074,0.37244 0.98119,0.35551 1.62405,1.0496 0.64285,0.69409 0.94736,1.72676 0.32142,1.01574 0.32142,2.33621 z m -2.87592,0.1185 q 0,-0.74488 -0.11842,-1.35433 -0.11842,-0.62636 -0.40601,-1.06652 -0.27068,-0.45709 -0.72745,-0.71102 -0.45675,-0.27086 -1.16728,-0.27086 -0.60902,0 -1.0827,0.237 -0.47368,0.22008 -0.77819,0.66023 -0.2876,0.44016 -0.43985,1.06653 -0.15226,0.60945 -0.15226,1.40511 0,0.72795 0.11843,1.35432 0.13534,0.60945 0.40601,1.06653 0.27068,0.45708 0.72744,0.71102 0.47368,0.23701 1.16729,0.23701 0.62593,0 1.0827,-0.22008 0.47368,-0.23701 0.77819,-0.66023 0.30451,-0.44015 0.43985,-1.0496 0.15225,-0.62638 0.15225,-1.40511 z m 14.1905,-4.28304 q 0,0.52479 -0.11843,0.79566 -0.11842,0.25394 -0.30451,0.25394 l -1.16728,0 q 0.25375,0.25393 0.35525,0.59251 0.10145,0.33858 0.10145,0.71102 0,0.86338 -0.28758,1.54054 -0.2876,0.67717 -0.82895,1.13424 -0.52443,0.45709 -1.28571,0.6941 -0.76127,0.23701 -1.69172,0.23701 -0.49059,0 -0.93044,-0.10152 -0.42294,-0.11851 -0.65978,-0.2878 -0.11841,0.15236 -0.23684,0.35551 -0.10145,0.20315 -0.10145,0.44016 0,0.32164 0.2876,0.52479 0.28759,0.20315 0.7951,0.23701 l 2.40225,0.0846 q 0.84586,0.0338 1.50563,0.237 0.65977,0.20315 1.09962,0.57559 0.45677,0.37244 0.69361,0.89723 0.23684,0.5248 0.23684,1.18503 0,0.74488 -0.32143,1.38818 -0.32143,0.64331 -0.96428,1.11732 -0.64285,0.49094 -1.62405,0.7618 -0.96429,0.2878 -2.25,0.2878 -1.26878,0 -2.1654,-0.20315 -0.8966,-0.20315 -1.47179,-0.55866 -0.55827,-0.35551 -0.82895,-0.84645 -0.25375,-0.49094 -0.25375,-1.08346 0,-0.37244 0.0846,-0.71102 0.10145,-0.32165 0.2876,-0.62637 0.18608,-0.30472 0.43984,-0.57559 0.27068,-0.28779 0.60902,-0.54172 -0.47368,-0.25393 -0.74435,-0.69409 -0.25377,-0.44015 -0.25377,-0.96496 0,-0.66023 0.30451,-1.18503 0.30451,-0.54173 0.77819,-0.98189 -0.38909,-0.38936 -0.62593,-0.93109 -0.23684,-0.54173 -0.23684,-1.35432 0,-0.86338 0.30451,-1.54055 0.32142,-0.69408 0.86277,-1.16809 0.54135,-0.47402 1.28571,-0.71102 0.76128,-0.25394 1.67481,-0.25394 0.45676,0 0.8797,0.0508 0.43984,0.0508 0.81202,0.15236 l 3.12968,0 q 0.203,0 0.30451,0.25394 0.11842,0.237 0.11842,0.81259 z m -3.58645,2.3362 q 0,-0.79567 -0.43985,-1.23582 -0.43985,-0.44016 -1.25187,-0.44016 -0.40602,0 -0.72745,0.13544 -0.30451,0.13543 -0.50751,0.37244 -0.20301,0.237 -0.30451,0.55866 -0.10145,0.32164 -0.10145,0.66023 0,0.76181 0.43984,1.20196 0.43985,0.44016 1.23497,0.44016 0.42292,0 0.72743,-0.13544 0.32143,-0.13543 0.52444,-0.37243 0.20301,-0.23701 0.30451,-0.54173 0.10145,-0.30473 0.10145,-0.64331 z m 0.65976,7.92278 q 0,-0.50787 -0.40601,-0.7618 -0.38909,-0.27087 -1.09961,-0.30473 l -1.97932,-0.0508 q -0.28759,0.22008 -0.45676,0.42323 -0.16917,0.18622 -0.2876,0.35551 -0.10145,0.18622 -0.13534,0.33858 -0.0338,0.16929 -0.0338,0.35551 0,0.55865 0.55828,0.84645 0.55826,0.28779 1.59021,0.28779 0.62594,0 1.04887,-0.13543 0.43985,-0.1185 0.71052,-0.33858 0.27068,-0.20315 0.37218,-0.47401 0.11842,-0.25393 0.11842,-0.54173 z m 11.3206,-10.02198 q 0,0.38937 -0.0338,0.66023 -0.0169,0.25394 -0.0677,0.4063 -0.0338,0.13543 -0.11843,0.18622 -0.0677,0.0508 -0.16917,0.0508 -0.0846,0 -0.20301,-0.0338 -0.11841,-0.0338 -0.25375,-0.0846 -0.13534,-0.0508 -0.30451,-0.0846 -0.16917,-0.0338 -0.37218,-0.0338 -0.21993,0 -0.45677,0.10152 -0.23684,0.0846 -0.49059,0.2878 -0.23684,0.20315 -0.52444,0.54173 -0.27068,0.32165 -0.57518,0.81259 l 0,6.17909 q 0,0.10152 -0.0677,0.18622 -0.0677,0.0846 -0.23684,0.15236 -0.15225,0.0508 -0.42293,0.0677 -0.25376,0.0338 -0.67669,0.0338 -0.40601,0 -0.67669,-0.0338 -0.25376,-0.0169 -0.42293,-0.0677 -0.15225,-0.0677 -0.21992,-0.15236 -0.0677,-0.0846 -0.0677,-0.18622 l 0,-9.92041 q 0,-0.10152 0.0508,-0.18621 0.0508,-0.0846 0.1861,-0.13543 0.15224,-0.0677 0.37217,-0.0846 0.23684,-0.0338 0.5921,-0.0338 0.35527,0 0.57519,0.0338 0.23684,0.0169 0.35526,0.0846 0.13534,0.0508 0.18609,0.13543 0.0677,0.0846 0.0677,0.18621 l 0,1.23583 q 0.38911,-0.55867 0.72745,-0.91417 0.33834,-0.35551 0.64285,-0.55866 0.32143,-0.22008 0.62593,-0.30473 0.32144,-0.0846 0.62595,-0.0846 0.15225,0 0.32142,0.0169 0.16917,0.0169 0.33834,0.0508 0.1861,0.0338 0.30451,0.0846 0.13534,0.0508 0.20301,0.11851 0.0677,0.0508 0.0846,0.1185 0.0338,0.0677 0.0508,0.18622 0.0169,0.1185 0.0338,0.35551 0.0169,0.22008 0.0169,0.62638 z m 11.86259,3.92754 q 0,1.26967 -0.33834,2.31927 -0.33835,1.03268 -1.01504,1.79448 -0.67668,0.7618 -1.70864,1.16809 -1.01503,0.4063 -2.36841,0.4063 -1.31954,0 -2.30074,-0.3555 -0.9812,-0.37244 -1.62405,-1.06653 -0.64285,-0.71102 -0.96428,-1.72676 -0.3045,-1.03267 -0.3045,-2.3362 0,-1.26969 0.33834,-2.31929 0.33834,-1.04959 1.01503,-1.79447 0.67669,-0.7618 1.69172,-1.1681 1.01503,-0.4063 2.38532,-0.4063 1.33647,0 2.30074,0.37244 0.9812,0.35551 1.62405,1.0496 0.64286,0.69409 0.94737,1.72676 0.32143,1.01574 0.32143,2.33621 z m -2.87592,0.1185 q 0,-0.74488 -0.11843,-1.35433 -0.11842,-0.62636 -0.40601,-1.06652 -0.27068,-0.45709 -0.72744,-0.71102 -0.45677,-0.27086 -1.16729,-0.27086 -0.60902,0 -1.0827,0.237 -0.47368,0.22008 -0.77819,0.66023 -0.28759,0.44016 -0.43985,1.06653 -0.15225,0.60945 -0.15225,1.40511 0,0.72795 0.11842,1.35432 0.13533,0.60945 0.40601,1.06653 0.27067,0.45708 0.72744,0.71102 0.47368,0.23701 1.16728,0.23701 0.62595,0 1.08271,-0.22008 0.47368,-0.23701 0.77819,-0.66023 0.30451,-0.44015 0.43984,-1.0496 0.15227,-0.62638 0.15227,-1.40511 z m 14.66416,4.94327 q 0,0.10152 -0.0677,0.18622 -0.0508,0.0846 -0.18609,0.15236 -0.13534,0.0508 -0.37218,0.0677 -0.21993,0.0338 -0.55827,0.0338 -0.37218,0 -0.60902,-0.0338 -0.21992,-0.0169 -0.35526,-0.0677 -0.13533,-0.0677 -0.18609,-0.15236 -0.0508,-0.0846 -0.0508,-0.18622 l 0,-1.15117 q -0.82895,0.89723 -1.67481,1.33739 -0.84586,0.44015 -1.75939,0.44015 -1.01503,0 -1.70863,-0.32164 -0.69361,-0.33859 -1.13341,-0.91417 -0.42294,-0.59251 -0.60902,-1.33739 -0.1861,-0.76181 -0.1861,-1.89605 l 0,-6.07753 q 0,-0.10152 0.0677,-0.18621 0.0677,-0.0846 0.21993,-0.13543 0.16917,-0.0677 0.43985,-0.0846 0.27067,-0.0338 0.65973,-0.0338 0.42292,0 0.67669,0.0338 0.27067,0.0169 0.42292,0.0846 0.16918,0.0508 0.23684,0.13543 0.0677,0.0846 0.0677,0.18621 l 0,5.60352 q 0,0.77873 0.10145,1.20195 0.10145,0.4063 0.30451,0.6941 0.20301,0.28779 0.52444,0.45708 0.32142,0.15236 0.74436,0.15236 0.52443,0 1.06578,-0.38937 0.54135,-0.38936 1.15037,-1.13424 l 0,-6.5854 q 0,-0.10152 0.0508,-0.18621 0.0677,-0.0846 0.21992,-0.13543 0.16917,-0.0677 0.43985,-0.0846 0.27068,-0.0338 0.67669,-0.0338 0.40601,0 0.67669,0.0338 0.27067,0.0169 0.42293,0.0846 0.15225,0.0508 0.21992,0.13543 0.0677,0.0846 0.0677,0.18621 l 0,9.92041 z m 12.96684,-5.11256 q 0,1.33739 -0.28758,2.40392 -0.27068,1.0496 -0.82895,1.79448 -0.54135,0.74487 -1.35338,1.15117 -0.81202,0.38936 -1.84397,0.38936 -0.43985,0 -0.81202,-0.0846 -0.35527,-0.0846 -0.69361,-0.25394 -0.33835,-0.16929 -0.67669,-0.42322 -0.32142,-0.25394 -0.67669,-0.60944 l 0,4.67241 q 0,0.1185 -0.0677,0.20315 -0.0677,0.0846 -0.23684,0.13543 -0.15225,0.0677 -0.42293,0.10152 -0.25376,0.0338 -0.67668,0.0338 -0.40602,0 -0.67669,-0.0338 -0.25377,-0.0338 -0.42294,-0.10152 -0.15225,-0.0508 -0.21992,-0.13543 -0.0677,-0.0846 -0.0677,-0.20315 l 0,-13.84795 q 0,-0.10152 0.0508,-0.18621 0.0508,-0.0846 0.1861,-0.13543 0.15225,-0.0677 0.37218,-0.0846 0.23684,-0.0338 0.57518,-0.0338 0.33835,0 0.55826,0.0338 0.23685,0.0169 0.37218,0.0846 0.13534,0.0508 0.1861,0.13543 0.0508,0.0846 0.0508,0.18621 l 0,1.16811 q 0.43984,-0.44015 0.84586,-0.77873 0.42293,-0.33858 0.84586,-0.55867 0.43984,-0.237 0.89661,-0.33858 0.47369,-0.11849 0.99811,-0.11849 1.08271,0 1.84399,0.42322 0.77819,0.42323 1.25187,1.1681 0.49059,0.74488 0.71052,1.74369 0.21992,0.98188 0.21992,2.0992 z m -2.90976,0.20314 q 0,-0.62636 -0.10144,-1.20195 -0.0846,-0.59252 -0.32143,-1.0496 -0.21992,-0.45709 -0.5921,-0.72795 -0.37218,-0.27087 -0.93044,-0.27087 -0.27068,0 -0.54135,0.0846 -0.27068,0.0846 -0.55828,0.27086 -0.28758,0.18622 -0.59209,0.49094 -0.2876,0.30472 -0.62595,0.74488 l 0,3.26731 q 0.59211,0.74487 1.11654,1.15117 0.54135,0.4063 1.11653,0.4063 0.54135,0 0.91353,-0.27087 0.3891,-0.2878 0.62595,-0.72795 0.25375,-0.45708 0.37217,-1.01574 0.11842,-0.57559 0.11842,-1.15118 z"
       id="path3750"
       style="fill:#000000;fill-rule:nonzero" />
    <path
       d="m 123.74022,98.940844 0,0 c 0,-6.634109 5.37426,-12.012112 12.00372,-12.012112 l 87.91145,0 c 3.18358,0 6.23678,1.265555 8.48792,3.518269 2.25113,2.252704 3.51581,5.308033 3.51581,8.493843 l 0,48.047036 c 0,6.63411 -5.37426,12.01212 -12.00373,12.01212 l -87.91145,0 c -6.62947,0 -12.00372,-5.37801 -12.00372,-12.01212 z"
       id="path3752"
       style="fill:#87d69b;fill-rule:nonzero" />
    <path
       d="m 123.74021,98.940847 0,0 c 0,-6.634109 5.37426,-12.012112 12.00372,-12.012112 l 87.91145,0 c 3.18358,0 6.23678,1.265554 8.48792,3.518269 2.25113,2.252704 3.51581,5.308033 3.51581,8.493843 l 0,48.047033 c 0,6.63411 -5.37426,12.01212 -12.00373,12.01212 l -87.91145,0 c -6.62947,0 -12.00372,-5.37801 -12.00372,-12.01212 z"
       id="path3754"
       style="stroke:#000000;stroke-width:2;stroke-linecap:butt;stroke-linejoin:round" />
    <path
       d="m 151.62497,130.69618 q 0,0.10152 -0.0677,0.18622 -0.0677,0.0846 -0.23684,0.15236 -0.15226,0.0508 -0.42294,0.0677 -0.25375,0.0338 -0.67668,0.0338 -0.40602,0 -0.67669,-0.0338 -0.25375,-0.0169 -0.42293,-0.0677 -0.15226,-0.0677 -0.21993,-0.15236 -0.0677,-0.0846 -0.0677,-0.18622 l 0,-9.88655 q 0,-0.1185 0.0677,-0.20315 0.0677,-0.0846 0.21993,-0.13543 0.16918,-0.0677 0.42293,-0.10152 0.27067,-0.0338 0.67669,-0.0338 0.42293,0 0.67668,0.0338 0.27068,0.0338 0.42294,0.10152 0.16917,0.0508 0.23684,0.13543 0.0677,0.0846 0.0677,0.20315 l 0,9.88655 z m 0.21992,-13.27236 q 0,0.84646 -0.35526,1.16811 -0.33834,0.32165 -1.26879,0.32165 -0.94737,0 -1.28571,-0.30472 -0.32142,-0.32165 -0.32142,-1.13424 0,-0.82953 0.33834,-1.15118 0.33835,-0.33858 1.28571,-0.33858 0.93044,0 1.26878,0.32165 0.33835,0.30472 0.33835,1.11731 z m 8.51362,12.29048 q 0,0.49094 -0.0677,0.7618 -0.0508,0.25394 -0.15226,0.35551 -0.10144,0.10152 -0.30451,0.18622 -0.18608,0.0846 -0.45675,0.13543 -0.25377,0.0677 -0.55828,0.10152 -0.30451,0.0338 -0.60902,0.0338 -0.82893,0 -1.45488,-0.22007 -0.60902,-0.20315 -1.01503,-0.6433 -0.38909,-0.44015 -0.57518,-1.10038 -0.18609,-0.66024 -0.18609,-1.57441 l 0,-5.0787 -1.1842,0 q -0.21993,0 -0.33835,-0.25393 -0.10145,-0.27087 -0.10145,-0.88031 0,-0.32166 0.0169,-0.54173 0.0338,-0.22009 0.0846,-0.33858 0.0677,-0.13544 0.15225,-0.18623 0.0846,-0.0677 0.1861,-0.0677 l 1.1842,0 0,-2.2177 q 0,-0.10152 0.0508,-0.18623 0.0677,-0.10152 0.21993,-0.15235 0.16917,-0.0677 0.43985,-0.0846 0.27067,-0.0338 0.67669,-0.0338 0.40601,0 0.67668,0.0338 0.27068,0.0169 0.42293,0.0846 0.16917,0.0508 0.23684,0.15235 0.0677,0.0846 0.0677,0.18623 l 0,2.2177 2.14849,0 q 0.11841,0 0.18608,0.0677 0.0846,0.0508 0.13534,0.18623 0.0677,0.11849 0.0846,0.33858 0.0338,0.22007 0.0338,0.54173 0,0.60944 -0.11843,0.88031 -0.10145,0.25393 -0.30451,0.25393 l -2.1654,0 0,4.65548 q 0,0.8126 0.25376,1.21889 0.25376,0.4063 0.91353,0.4063 0.21992,0 0.38909,-0.0338 0.1861,-0.0508 0.32144,-0.10152 0.13533,-0.0508 0.21991,-0.0846 0.10145,-0.0338 0.1861,-0.0338 0.0677,0 0.11841,0.0338 0.0677,0.0338 0.10145,0.15236 0.0338,0.1185 0.0508,0.32165 0.0338,0.20315 0.0338,0.50787 z m 11.28745,-4.26612 q 0,0.50787 -0.21991,0.76182 -0.21993,0.237 -0.62595,0.237 l -6.02252,0 q 0,0.62637 0.13534,1.15118 0.15226,0.50787 0.47368,0.88031 0.33834,0.3555 0.84586,0.54172 0.52444,0.18622 1.25187,0.18622 0.72745,0 1.28571,-0.10152 0.55827,-0.10152 0.96429,-0.22007 0.40601,-0.13544 0.65976,-0.23701 0.27068,-0.11851 0.43985,-0.11851 0.10145,0 0.16917,0.0508 0.0677,0.0338 0.10145,0.13543 0.0508,0.10152 0.0677,0.28779 0.0169,0.16929 0.0169,0.45708 0,0.23701 -0.0169,0.42323 0,0.16929 -0.0338,0.28778 -0.0169,0.11851 -0.0677,0.20315 -0.0338,0.0846 -0.11842,0.16929 -0.0677,0.0677 -0.3891,0.20315 -0.32142,0.13543 -0.82893,0.27086 -0.49061,0.11851 -1.13346,0.20315 -0.64286,0.10152 -1.37029,0.10152 -1.31954,0 -2.31766,-0.32164 -0.99811,-0.33858 -1.6748,-1.01574 -0.65978,-0.67717 -0.9812,-1.70983 -0.32143,-1.03268 -0.32143,-2.42086 0,-1.33739 0.33834,-2.38699 0.33835,-1.06653 0.99812,-1.79447 0.65977,-0.74488 1.59022,-1.13425 0.94736,-0.38936 2.11465,-0.38936 1.25187,0 2.13156,0.37243 0.8797,0.35551 1.43797,1.01575 0.57519,0.6433 0.82894,1.54053 0.27067,0.88031 0.27067,1.92991 l 0,0.44016 z m -2.70675,-0.79565 q 0.0338,-1.18504 -0.47368,-1.84527 -0.49059,-0.67717 -1.55638,-0.67717 -0.52443,0 -0.93044,0.20315 -0.3891,0.18623 -0.65978,0.52481 -0.25375,0.33858 -0.38909,0.81259 -0.13534,0.45708 -0.15226,0.98189 l 4.16163,0 z m 11.55726,-2.94566 q 0,0.38937 -0.0338,0.66023 -0.0169,0.25394 -0.0677,0.4063 -0.0338,0.13543 -0.11841,0.18622 -0.0677,0.0508 -0.16917,0.0508 -0.0846,0 -0.20301,-0.0338 -0.11843,-0.0338 -0.25376,-0.0846 -0.13534,-0.0508 -0.30451,-0.0846 -0.16918,-0.0338 -0.37218,-0.0338 -0.21992,0 -0.45676,0.10152 -0.23684,0.0846 -0.49061,0.2878 -0.23684,0.20315 -0.52442,0.54173 -0.27068,0.32165 -0.57519,0.81259 l 0,6.17909 q 0,0.10152 -0.0677,0.18622 -0.0677,0.0846 -0.23684,0.15236 -0.15226,0.0508 -0.42293,0.0677 -0.25376,0.0338 -0.67669,0.0338 -0.40601,0 -0.67669,-0.0338 -0.25375,-0.0169 -0.42292,-0.0677 -0.15226,-0.0677 -0.21993,-0.15236 -0.0677,-0.0846 -0.0677,-0.18622 l 0,-9.92041 q 0,-0.10152 0.0508,-0.18621 0.0508,-0.0846 0.18608,-0.13543 0.15226,-0.0677 0.37218,-0.0846 0.23684,-0.0338 0.59211,-0.0338 0.35525,0 0.57518,0.0338 0.23684,0.0169 0.35526,0.0846 0.13533,0.0508 0.18609,0.13543 0.0677,0.0846 0.0677,0.18621 l 0,1.23583 q 0.38909,-0.55867 0.72744,-0.91417 0.33834,-0.35551 0.64285,-0.55866 0.32143,-0.22008 0.62594,-0.30473 0.32142,-0.0846 0.62593,-0.0846 0.15226,0 0.32143,0.0169 0.16918,0.0169 0.33835,0.0508 0.18608,0.0338 0.30451,0.0846 0.13534,0.0508 0.203,0.11851 0.0677,0.0508 0.0846,0.1185 0.0338,0.0677 0.0508,0.18622 0.0169,0.1185 0.0338,0.35551 0.0169,0.22008 0.0169,0.62638 z m 10.27239,9.02317 q 0,0.15236 -0.11843,0.23701 -0.10145,0.0846 -0.33834,0.11849 -0.23684,0.0508 -0.6936,0.0508 -0.50752,0 -0.74436,-0.0508 -0.21993,-0.0338 -0.32143,-0.11849 -0.0846,-0.0846 -0.0846,-0.23701 l 0,-0.79566 q -0.60902,0.66023 -1.40413,1.03267 -0.77819,0.3555 -1.72556,0.3555 -0.7951,0 -1.45488,-0.20315 -0.65976,-0.20315 -1.15037,-0.60944 -0.47368,-0.40629 -0.74435,-0.99881 -0.25376,-0.60944 -0.25376,-1.4051 0,-0.86339 0.33835,-1.50669 0.33834,-0.64331 0.99811,-1.0496 0.67669,-0.42322 1.67481,-0.62637 0.99811,-0.20315 2.31765,-0.20315 l 0.96428,0 0,-0.59252 q 0,-0.47401 -0.10145,-0.81259 -0.0846,-0.35551 -0.3045,-0.59251 -0.20301,-0.23701 -0.57519,-0.33858 -0.35527,-0.11851 -0.89662,-0.11851 -0.6936,0 -1.25187,0.16929 -0.54135,0.15236 -0.96428,0.33858 -0.42293,0.18622 -0.71052,0.33858 -0.27067,0.15236 -0.45677,0.15236 -0.11841,0 -0.21992,-0.0677 -0.0846,-0.0846 -0.15226,-0.22008 -0.0508,-0.15236 -0.0846,-0.35551 -0.0338,-0.22008 -0.0338,-0.47401 0,-0.33858 0.0508,-0.54173 0.0508,-0.20315 0.20301,-0.35551 0.16917,-0.1693 0.55827,-0.35551 0.38909,-0.20315 0.89661,-0.37244 0.52444,-0.16929 1.13346,-0.27086 0.62593,-0.10152 1.2857,-0.10152 1.16729,0 1.99623,0.237 0.82894,0.22008 1.35338,0.69409 0.54135,0.47401 0.77819,1.21889 0.23684,0.74488 0.23684,1.76062 l 0,6.67003 z m -2.74059,-4.24918 -1.06579,0 q -0.67669,0 -1.15037,0.10152 -0.47368,0.10152 -0.77819,0.30472 -0.30451,0.18622 -0.43985,0.47402 -0.13533,0.28778 -0.13533,0.66022 0,0.60945 0.3891,0.96496 0.40601,0.35551 1.09961,0.35551 0.59211,0 1.0827,-0.28779 0.49061,-0.30472 0.99812,-0.88031 l 0,-1.6929 z m 11.56861,3.23344 q 0,0.49094 -0.0677,0.7618 -0.0508,0.25394 -0.15226,0.35551 -0.10145,0.10152 -0.30451,0.18622 -0.18608,0.0846 -0.45676,0.13543 -0.25376,0.0677 -0.55827,0.10152 -0.30451,0.0338 -0.60902,0.0338 -0.82894,0 -1.45489,-0.22007 -0.60902,-0.20315 -1.01503,-0.6433 -0.3891,-0.44015 -0.57519,-1.10038 -0.18609,-0.66024 -0.18609,-1.57441 l 0,-5.0787 -1.18421,0 q -0.21992,0 -0.33834,-0.25393 -0.10145,-0.27087 -0.10145,-0.88031 0,-0.32166 0.0169,-0.54173 0.0338,-0.22009 0.0846,-0.33858 0.0677,-0.13544 0.15226,-0.18623 0.0846,-0.0677 0.18608,-0.0677 l 1.18421,0 0,-2.2177 q 0,-0.10152 0.0508,-0.18623 0.0677,-0.10152 0.21991,-0.15235 0.16918,-0.0677 0.43985,-0.0846 0.27068,-0.0338 0.67669,-0.0338 0.40601,0 0.67669,0.0338 0.27069,0.0169 0.42294,0.0846 0.16918,0.0508 0.23684,0.15235 0.0677,0.0846 0.0677,0.18623 l 0,2.2177 2.14849,0 q 0.11842,0 0.18609,0.0677 0.0846,0.0508 0.13534,0.18623 0.0677,0.11849 0.0846,0.33858 0.0338,0.22007 0.0338,0.54173 0,0.60944 -0.11842,0.88031 -0.10145,0.25393 -0.30451,0.25393 l -2.1654,0 0,4.65548 q 0,0.8126 0.25376,1.21889 0.25375,0.4063 0.91353,0.4063 0.21992,0 0.38909,-0.0338 0.18609,-0.0508 0.32143,-0.10152 0.13534,-0.0508 0.21992,-0.0846 0.10145,-0.0338 0.18609,-0.0338 0.0677,0 0.11842,0.0338 0.0677,0.0338 0.10145,0.15236 0.0338,0.1185 0.0508,0.32165 0.0338,0.20315 0.0338,0.50787 z m 11.28746,-4.26612 q 0,0.50787 -0.21993,0.76182 -0.21992,0.237 -0.62593,0.237 l -6.02252,0 q 0,0.62637 0.13533,1.15118 0.15225,0.50787 0.47369,0.88031 0.33834,0.3555 0.84586,0.54172 0.52442,0.18622 1.25187,0.18622 0.72743,0 1.28571,-0.10152 0.55826,-0.10152 0.96427,-0.22007 0.40602,-0.13544 0.65978,-0.23701 0.27067,-0.11851 0.43985,-0.11851 0.10145,0 0.16917,0.0508 0.0677,0.0338 0.10145,0.13543 0.0508,0.10152 0.0677,0.28779 0.0169,0.16929 0.0169,0.45708 0,0.23701 -0.0169,0.42323 0,0.16929 -0.0338,0.28778 -0.0169,0.11851 -0.0677,0.20315 -0.0338,0.0846 -0.11843,0.16929 -0.0677,0.0677 -0.38909,0.20315 -0.32143,0.13543 -0.82895,0.27086 -0.49059,0.11851 -1.13344,0.20315 -0.64286,0.10152 -1.3703,0.10152 -1.31955,0 -2.31766,-0.32164 -0.99812,-0.33858 -1.6748,-1.01574 -0.65977,-0.67717 -0.9812,-1.70983 -0.32142,-1.03268 -0.32142,-2.42086 0,-1.33739 0.33834,-2.38699 0.33834,-1.06653 0.99811,-1.79447 0.65978,-0.74488 1.59022,-1.13425 0.94736,-0.38936 2.11465,-0.38936 1.25188,0 2.13157,0.37243 0.8797,0.35551 1.43796,1.01575 0.57518,0.6433 0.82895,1.54053 0.27067,0.88031 0.27067,1.92991 l 0,0.44016 z m -2.70675,-0.79565 q 0.0338,-1.18504 -0.47368,-1.84527 -0.49061,-0.67717 -1.55639,-0.67717 -0.52443,0 -0.93045,0.20315 -0.38909,0.18623 -0.65976,0.52481 -0.25377,0.33858 -0.3891,0.81259 -0.13534,0.45708 -0.15225,0.98189 l 4.16163,0 z"
       id="path3756"
       style="fill:#000000;fill-rule:nonzero" />
    <path
       d="m 0.99999117,98.940844 0,0 c 0,-6.634109 5.37426003,-12.012112 12.00371983,-12.012112 l 87.911439,0 c 3.18359,0 6.23679,1.265555 8.48792,3.518269 2.25114,2.252704 3.51581,5.308033 3.51581,8.493843 l 0,48.047036 c 0,6.63411 -5.37425,12.01212 -12.00373,12.01212 l -87.911439,0 C 6.3742512,159 0.99999117,153.62199 0.99999117,146.98788 z"
       id="path3758"
       style="fill:#f3de4a;fill-rule:nonzero" />
    <path
       d="m 0.99999117,98.940847 0,0 c 0,-6.634109 5.37425003,-12.012112 12.00371983,-12.012112 l 87.911429,0 c 3.1836,0 6.23679,1.265554 8.48792,3.518269 2.25114,2.252704 3.51581,5.308033 3.51581,8.493843 l 0,48.047033 c 0,6.63411 -5.37424,12.01212 -12.00373,12.01212 l -87.911429,0 C 6.3742412,159 0.99999117,153.62199 0.99999117,146.98788 z"
       id="path3760"
       style="stroke:#000000;stroke-width:2;stroke-linecap:butt;stroke-linejoin:round" />
    <path
       d="m 40.122271,130.69618 q 0,0.10152 -0.0677,0.18622 -0.0508,0.0846 -0.18609,0.15236 -0.13534,0.0508 -0.37218,0.0677 -0.21992,0.0338 -0.55827,0.0338 -0.37217,0 -0.60901,-0.0338 -0.21993,-0.0169 -0.35527,-0.0677 -0.13534,-0.0677 -0.18609,-0.15236 -0.0508,-0.0846 -0.0508,-0.18622 l 0,-1.15117 q -0.82895,0.89723 -1.67481,1.33739 -0.84586,0.44015 -1.75939,0.44015 -1.01503,0 -1.70863,-0.32164 -0.69362,-0.33859 -1.13346,-0.91417 -0.42293,-0.59251 -0.60902,-1.33739 -0.18609,-0.76181 -0.18609,-1.89605 l 0,-6.07753 q 0,-0.10152 0.0677,-0.18621 0.0677,-0.0846 0.21992,-0.13543 0.16917,-0.0677 0.43985,-0.0846 0.27067,-0.0338 0.65978,-0.0338 0.42292,0 0.67668,0.0338 0.27068,0.0169 0.42293,0.0846 0.16917,0.0508 0.23684,0.13543 0.0677,0.0846 0.0677,0.18621 l 0,5.60352 q 0,0.77873 0.10145,1.20195 0.10145,0.4063 0.30451,0.6941 0.203,0.28779 0.52444,0.45708 0.32142,0.15236 0.74435,0.15236 0.52443,0 1.06578,-0.38937 0.54135,-0.38936 1.15037,-1.13424 l 0,-6.5854 q 0,-0.10152 0.0508,-0.18621 0.0677,-0.0846 0.21993,-0.13543 0.16917,-0.0677 0.43985,-0.0846 0.27067,-0.0338 0.67668,-0.0338 0.40602,0 0.67669,0.0338 0.27068,0.0169 0.42293,0.0846 0.15226,0.0508 0.21993,0.13543 0.0677,0.0846 0.0677,0.18621 l 0,9.92041 z m 12.45932,0 q 0,0.10152 -0.0677,0.18622 -0.0677,0.0846 -0.21992,0.15236 -0.15225,0.0508 -0.43985,0.0677 -0.27068,0.0338 -0.65977,0.0338 -0.40601,0 -0.69361,-0.0338 -0.27067,-0.0169 -0.42292,-0.0677 -0.15226,-0.0677 -0.21993,-0.15236 -0.0677,-0.0846 -0.0677,-0.18622 l 0,-5.65429 q 0,-0.72795 -0.10145,-1.13424 -0.10145,-0.42323 -0.30451,-0.71102 -0.20301,-0.2878 -0.52443,-0.44016 -0.30451,-0.16929 -0.72744,-0.16929 -0.54135,0 -1.0827,0.38937 -0.54135,0.38937 -1.13345,1.13425 l 0,6.58538 q 0,0.10152 -0.0677,0.18622 -0.0677,0.0846 -0.23684,0.15236 -0.15226,0.0508 -0.42294,0.0677 -0.25375,0.0338 -0.67669,0.0338 -0.40601,0 -0.67668,-0.0338 -0.25376,-0.0169 -0.42293,-0.0677 -0.15226,-0.0677 -0.21993,-0.15236 -0.0677,-0.0846 -0.0677,-0.18622 l 0,-9.92041 q 0,-0.10152 0.0508,-0.18621 0.0508,-0.0846 0.1861,-0.13543 0.15225,-0.0677 0.37218,-0.0846 0.23684,-0.0338 0.59209,-0.0338 0.35527,0 0.57519,0.0338 0.23684,0.0169 0.35526,0.0846 0.13534,0.0508 0.18609,0.13543 0.0677,0.0846 0.0677,0.18621 l 0,1.15118 q 0.81202,-0.89724 1.65788,-1.33739 0.86279,-0.44016 1.77632,-0.44016 1.01503,0 1.70863,0.33858 0.69361,0.32165 1.11653,0.89724 0.43985,0.57558 0.62594,1.3374 0.18609,0.7618 0.18609,1.84525 l 0,6.12831 z m 5.72628,0 q 0,0.10152 -0.0677,0.18622 -0.0677,0.0846 -0.23684,0.15236 -0.15226,0.0508 -0.42294,0.0677 -0.25375,0.0338 -0.67668,0.0338 -0.40602,0 -0.67669,-0.0338 -0.25375,-0.0169 -0.42293,-0.0677 -0.15226,-0.0677 -0.21993,-0.15236 -0.0677,-0.0846 -0.0677,-0.18622 l 0,-9.88655 q 0,-0.1185 0.0677,-0.20315 0.0677,-0.0846 0.21993,-0.13543 0.16918,-0.0677 0.42293,-0.10152 0.27067,-0.0338 0.67669,-0.0338 0.42293,0 0.67668,0.0338 0.27068,0.0338 0.42294,0.10152 0.16917,0.0508 0.23684,0.13543 0.0677,0.0846 0.0677,0.20315 l 0,9.88655 z m 0.21992,-13.27236 q 0,0.84646 -0.35526,1.16811 -0.33834,0.32165 -1.26879,0.32165 -0.94737,0 -1.28571,-0.30472 -0.32142,-0.32165 -0.32142,-1.13424 0,-0.82953 0.33834,-1.15118 0.33835,-0.33858 1.28571,-0.33858 0.93044,0 1.26878,0.32165 0.33835,0.30472 0.33835,1.11731 z m 12.67526,8.21059 q 0,1.26967 -0.33835,2.31927 -0.33834,1.03268 -1.01503,1.79448 -0.67669,0.7618 -1.70864,1.16809 -1.01504,0.4063 -2.36841,0.4063 -1.31954,0 -2.30074,-0.3555 -0.9812,-0.37244 -1.62405,-1.06653 -0.64286,-0.71102 -0.96429,-1.72676 -0.30451,-1.03267 -0.30451,-2.3362 0,-1.26969 0.33834,-2.31929 0.33835,-1.04959 1.01504,-1.79447 0.67668,-0.7618 1.69172,-1.1681 1.01503,-0.4063 2.38533,-0.4063 1.33646,0 2.30074,0.37244 0.9812,0.35551 1.62405,1.0496 0.64285,0.69409 0.94736,1.72676 0.32144,1.01574 0.32144,2.33621 z m -2.87593,0.1185 q 0,-0.74488 -0.11843,-1.35433 -0.11841,-0.62636 -0.40601,-1.06652 -0.27067,-0.45709 -0.72743,-0.71102 -0.45677,-0.27086 -1.1673,-0.27086 -0.60901,0 -1.0827,0.237 -0.47368,0.22008 -0.77819,0.66023 -0.2876,0.44016 -0.43985,1.06653 -0.15226,0.60945 -0.15226,1.40511 0,0.72795 0.11843,1.35432 0.13534,0.60945 0.40601,1.06653 0.27068,0.45708 0.72744,0.71102 0.47368,0.23701 1.16729,0.23701 0.62594,0 1.0827,-0.22008 0.47368,-0.23701 0.77819,-0.66023 0.30451,-0.44015 0.43985,-1.0496 0.15226,-0.62638 0.15226,-1.40511 z m 14.73185,4.94327 q 0,0.10152 -0.0677,0.18622 -0.0677,0.0846 -0.21992,0.15236 -0.15226,0.0508 -0.43985,0.0677 -0.27067,0.0338 -0.65977,0.0338 -0.40601,0 -0.6936,-0.0338 -0.27068,-0.0169 -0.42294,-0.0677 -0.15225,-0.0677 -0.21992,-0.15236 -0.0677,-0.0846 -0.0677,-0.18622 l 0,-5.65429 q 0,-0.72795 -0.10145,-1.13424 -0.10145,-0.42323 -0.30451,-0.71102 -0.20301,-0.2878 -0.52444,-0.44016 -0.30451,-0.16929 -0.72744,-0.16929 -0.54135,0 -1.0827,0.38937 -0.54135,0.38937 -1.13346,1.13425 l 0,6.58538 q 0,0.10152 -0.0677,0.18622 -0.0677,0.0846 -0.23685,0.15236 -0.15224,0.0508 -0.42292,0.0677 -0.25376,0.0338 -0.67669,0.0338 -0.40601,0 -0.67669,-0.0338 -0.25376,-0.0169 -0.42293,-0.0677 -0.15225,-0.0677 -0.21992,-0.15236 -0.0677,-0.0846 -0.0677,-0.18622 l 0,-9.92041 q 0,-0.10152 0.0508,-0.18621 0.0508,-0.0846 0.18608,-0.13543 0.15226,-0.0677 0.37218,-0.0846 0.23684,-0.0338 0.59211,-0.0338 0.35526,0 0.57518,0.0338 0.23685,0.0169 0.35526,0.0846 0.13534,0.0508 0.1861,0.13543 0.0677,0.0846 0.0677,0.18621 l 0,1.15118 q 0.81203,-0.89724 1.65789,-1.33739 0.86277,-0.44016 1.7763,-0.44016 1.01503,0 1.70864,0.33858 0.6936,0.32165 1.11654,0.89724 0.43985,0.57558 0.62593,1.3374 0.1861,0.7618 0.1861,1.84525 l 0,6.12831 z"
       id="path3762"
       style="fill:#000000;fill-rule:nonzero" />
    <path
       d="m 246.47902,98.940844 0,0 c 0,-6.634109 5.37425,-12.012112 12.00373,-12.012112 l 87.91145,0 c 3.18357,0 6.23676,1.265555 8.48791,3.518269 2.25114,2.252704 3.5158,5.308033 3.5158,8.493843 l 0,48.047036 c 0,6.63411 -5.37425,12.01212 -12.00371,12.01212 l -87.91145,0 c -6.62947,0 -12.00373,-5.37801 -12.00373,-12.01212 z"
       id="path3764"
       style="fill:#e1f5c4;fill-rule:nonzero" />
    <path
       d="m 246.47901,98.940847 0,0 c 0,-6.634109 5.37425,-12.012112 12.00373,-12.012112 l 87.91145,0 c 3.18357,0 6.23675,1.265554 8.48791,3.518269 2.25114,2.252704 3.5158,5.308033 3.5158,8.493843 l 0,48.047033 c 0,6.63411 -5.37425,12.01212 -12.00371,12.01212 l -87.91145,0 c -6.62947,0 -12.00373,-5.37801 -12.00373,-12.01212 z"
       id="path3766"
       style="stroke:#000000;stroke-width:2;stroke-linecap:butt;stroke-linejoin:round" />
    <path
       d="m 274.36377,116.61123 q 0,0.10152 -0.0677,0.18623 -0.0677,0.0846 -0.23684,0.15235 -0.15226,0.0508 -0.42294,0.0677 -0.25375,0.0338 -0.67668,0.0338 -0.40602,0 -0.67669,-0.0338 -0.25375,-0.0169 -0.42293,-0.0677 -0.15226,-0.0677 -0.21993,-0.15235 -0.0677,-0.0846 -0.0677,-0.18623 l 0,-9.88654 q 0,-0.1185 0.0677,-0.20315 0.0677,-0.0846 0.21993,-0.13543 0.16918,-0.0677 0.42293,-0.10152 0.27067,-0.0338 0.67669,-0.0338 0.42293,0 0.67668,0.0338 0.27068,0.0338 0.42294,0.10152 0.16917,0.0508 0.23684,0.13543 0.0677,0.0846 0.0677,0.20315 l 0,9.88654 z m 0.21992,-13.27235 q 0,0.84645 -0.35526,1.16811 -0.33834,0.32165 -1.26879,0.32165 -0.94737,0 -1.28571,-0.30473 -0.32142,-0.32164 -0.32142,-1.13424 0,-0.82952 0.33834,-1.15117 0.33835,-0.33858 1.28571,-0.33858 0.93044,0 1.26878,0.32165 0.33835,0.30472 0.33835,1.11731 z m 8.51362,12.29047 q 0,0.49095 -0.0677,0.76181 -0.0508,0.25393 -0.15226,0.3555 -0.10145,0.10152 -0.30451,0.18623 -0.18608,0.0846 -0.45675,0.13543 -0.25377,0.0677 -0.55828,0.10152 -0.30451,0.0338 -0.60902,0.0338 -0.82894,0 -1.45488,-0.22008 -0.60902,-0.20315 -1.01503,-0.6433 -0.38909,-0.44016 -0.57518,-1.10038 -0.18609,-0.66024 -0.18609,-1.57441 l 0,-5.0787 -1.1842,0 q -0.21993,0 -0.33835,-0.25393 -0.10145,-0.27086 -0.10145,-0.88031 0,-0.32165 0.0169,-0.54173 0.0338,-0.22008 0.0846,-0.33858 0.0677,-0.13543 0.15225,-0.18622 0.0846,-0.0677 0.1861,-0.0677 l 1.1842,0 0,-2.2177 q 0,-0.10152 0.0508,-0.18622 0.0677,-0.10152 0.21993,-0.15236 0.16917,-0.0677 0.43985,-0.0846 0.27067,-0.0338 0.67669,-0.0338 0.40601,0 0.67668,0.0338 0.27068,0.0169 0.42293,0.0846 0.16917,0.0508 0.23684,0.15236 0.0677,0.0846 0.0677,0.18622 l 0,2.2177 2.14849,0 q 0.11841,0 0.18608,0.0677 0.0846,0.0508 0.13534,0.18622 0.0677,0.1185 0.0846,0.33858 0.0338,0.22008 0.0338,0.54173 0,0.60945 -0.11843,0.88031 -0.10145,0.25393 -0.30451,0.25393 l -2.1654,0 0,4.65548 q 0,0.8126 0.25376,1.21889 0.25376,0.4063 0.91353,0.4063 0.21992,0 0.38909,-0.0338 0.1861,-0.0508 0.32144,-0.10152 0.13533,-0.0508 0.21991,-0.0846 0.10145,-0.0338 0.1861,-0.0338 0.0677,0 0.11841,0.0338 0.0677,0.0338 0.10145,0.15236 0.0338,0.1185 0.0508,0.32165 0.0338,0.20315 0.0338,0.50787 z m 11.28744,-4.26611 q 0,0.50787 -0.21993,0.76181 -0.21991,0.237 -0.62593,0.237 l -6.02252,0 q 0,0.62637 0.13534,1.15118 0.15225,0.50787 0.47368,0.8803 0.33834,0.35551 0.84586,0.54173 0.52443,0.18622 1.25187,0.18622 0.72744,0 1.28571,-0.10152 0.55826,-0.10152 0.96427,-0.22007 0.40602,-0.13544 0.65978,-0.23701 0.27068,-0.11851 0.43985,-0.11851 0.10145,0 0.16917,0.0508 0.0677,0.0338 0.10145,0.13544 0.0508,0.10152 0.0677,0.28778 0.0169,0.1693 0.0169,0.45709 0,0.23701 -0.0169,0.42322 0,0.16929 -0.0338,0.2878 -0.0169,0.1185 -0.0677,0.20315 -0.0338,0.0846 -0.11843,0.16929 -0.0677,0.0677 -0.38909,0.20315 -0.32143,0.13543 -0.82895,0.27086 -0.49059,0.1185 -1.13344,0.20315 -0.64286,0.10152 -1.3703,0.10152 -1.31954,0 -2.31765,-0.32165 -0.99812,-0.33858 -1.67481,-1.01575 -0.65977,-0.67716 -0.9812,-1.70982 -0.32142,-1.03268 -0.32142,-2.42086 0,-1.33738 0.33834,-2.38698 0.33835,-1.06654 0.99811,-1.79448 0.65978,-0.74487 1.59022,-1.13425 0.94736,-0.38936 2.11466,-0.38936 1.25187,0 2.13156,0.37244 0.8797,0.3555 1.43796,1.01574 0.57518,0.64331 0.82895,1.54053 0.27067,0.88031 0.27067,1.92991 l 0,0.44016 z m -2.70675,-0.79566 q 0.0338,-1.18503 -0.47368,-1.84527 -0.49061,-0.67716 -1.55638,-0.67716 -0.52444,0 -0.93046,0.20315 -0.38909,0.18622 -0.65976,0.5248 -0.25376,0.33858 -0.3891,0.8126 -0.13534,0.45707 -0.15225,0.98188 l 4.16163,0 z m 11.55726,-2.94565 q 0,0.38936 -0.0338,0.66022 -0.0169,0.25395 -0.0677,0.4063 -0.0338,0.13543 -0.11842,0.18623 -0.0677,0.0508 -0.16918,0.0508 -0.0845,0 -0.203,-0.0338 -0.11842,-0.0338 -0.25375,-0.0846 -0.13534,-0.0508 -0.30451,-0.0846 -0.16918,-0.0338 -0.37218,-0.0338 -0.21993,0 -0.45677,0.10152 -0.23684,0.0846 -0.4906,0.28779 -0.23684,0.20315 -0.52444,0.54173 -0.27067,0.32165 -0.57518,0.8126 l 0,6.17908 q 0,0.10152 -0.0677,0.18623 -0.0677,0.0846 -0.23684,0.15235 -0.15225,0.0508 -0.42292,0.0677 -0.25377,0.0338 -0.67669,0.0338 -0.40602,0 -0.67669,-0.0338 -0.25376,-0.0169 -0.42294,-0.0677 -0.15225,-0.0677 -0.21991,-0.15235 -0.0677,-0.0846 -0.0677,-0.18623 l 0,-9.9204 q 0,-0.10152 0.0508,-0.18621 0.0508,-0.0846 0.18609,-0.13544 0.15225,-0.0677 0.37218,-0.0846 0.23684,-0.0338 0.5921,-0.0338 0.35526,0 0.57518,0.0338 0.23684,0.0169 0.35527,0.0846 0.13533,0.0508 0.18608,0.13544 0.0677,0.0846 0.0677,0.18621 l 0,1.23582 q 0.3891,-0.55866 0.72744,-0.91416 0.33835,-0.35552 0.64286,-0.55867 0.32142,-0.22007 0.62593,-0.30472 0.32143,-0.0846 0.62594,-0.0846 0.15225,0 0.32142,0.0169 0.16918,0.0169 0.33835,0.0508 0.18609,0.0338 0.30451,0.0846 0.13533,0.0508 0.203,0.11851 0.0677,0.0508 0.0846,0.1185 0.0338,0.0677 0.0508,0.18622 0.0169,0.1185 0.0338,0.35551 0.0169,0.22008 0.0169,0.62638 z m 10.27238,9.02316 q 0,0.15237 -0.11843,0.23701 -0.10145,0.0846 -0.33834,0.1185 -0.23684,0.0508 -0.6936,0.0508 -0.50752,0 -0.74436,-0.0508 -0.21993,-0.0338 -0.32143,-0.1185 -0.0846,-0.0846 -0.0846,-0.23701 l 0,-0.79566 q -0.60902,0.66023 -1.40413,1.03267 -0.7782,0.35551 -1.72556,0.35551 -0.7951,0 -1.45488,-0.20315 -0.65976,-0.20315 -1.15037,-0.60944 -0.47368,-0.4063 -0.74436,-0.99882 -0.25375,-0.60945 -0.25375,-1.4051 0,-0.86339 0.33835,-1.50669 0.33834,-0.6433 0.99811,-1.0496 0.67668,-0.42322 1.6748,-0.62637 0.99811,-0.20315 2.31766,-0.20315 l 0.96428,0 0,-0.59252 q 0,-0.47401 -0.10145,-0.81259 -0.0846,-0.35551 -0.30451,-0.59251 -0.203,-0.23701 -0.57518,-0.33858 -0.35527,-0.11851 -0.89662,-0.11851 -0.6936,0 -1.25187,0.16929 -0.54135,0.15237 -0.96428,0.33858 -0.42293,0.18622 -0.71052,0.33858 -0.27068,0.15237 -0.45677,0.15237 -0.11842,0 -0.21992,-0.0677 -0.0846,-0.0846 -0.15226,-0.22009 -0.0508,-0.15235 -0.0846,-0.3555 -0.0338,-0.22008 -0.0338,-0.47401 0,-0.33858 0.0508,-0.54173 0.0508,-0.20315 0.20301,-0.35551 0.16917,-0.16929 0.55827,-0.35551 0.38909,-0.20315 0.89661,-0.37244 0.52444,-0.16929 1.13346,-0.27086 0.62593,-0.10152 1.2857,-0.10152 1.16728,0 1.99623,0.23701 0.82894,0.22007 1.35338,0.69408 0.54135,0.47401 0.77819,1.21889 0.23684,0.74488 0.23684,1.76062 l 0,6.67003 z m -2.74059,-4.24918 -1.06579,0 q -0.67669,0 -1.15037,0.10152 -0.47368,0.10152 -0.77819,0.30472 -0.30451,0.18622 -0.43985,0.47401 -0.13534,0.28779 -0.13534,0.66023 0,0.60945 0.38911,0.96496 0.40601,0.35551 1.09961,0.35551 0.59211,0 1.0827,-0.28779 0.4906,-0.30473 0.99812,-0.88031 l 0,-1.6929 z m 11.56863,3.23344 q 0,0.49095 -0.0677,0.76181 -0.0508,0.25393 -0.15226,0.3555 -0.10145,0.10152 -0.30451,0.18623 -0.18608,0.0846 -0.45676,0.13543 -0.25376,0.0677 -0.55827,0.10152 -0.30451,0.0338 -0.60902,0.0338 -0.82894,0 -1.45491,-0.22008 -0.60902,-0.20315 -1.01504,-0.6433 -0.38909,-0.44016 -0.57518,-1.10038 -0.18608,-0.66024 -0.18608,-1.57441 l 0,-5.0787 -1.18421,0 q -0.21993,0 -0.33834,-0.25393 -0.10145,-0.27086 -0.10145,-0.88031 0,-0.32165 0.0169,-0.54173 0.0338,-0.22008 0.0846,-0.33858 0.0677,-0.13543 0.15225,-0.18622 0.0846,-0.0677 0.18609,-0.0677 l 1.18421,0 0,-2.2177 q 0,-0.10152 0.0508,-0.18622 0.0677,-0.10152 0.21993,-0.15236 0.16918,-0.0677 0.43985,-0.0846 0.27068,-0.0338 0.67669,-0.0338 0.40601,0 0.67669,0.0338 0.2707,0.0169 0.42295,0.0846 0.16918,0.0508 0.23685,0.15236 0.0677,0.0846 0.0677,0.18622 l 0,2.2177 2.14849,0 q 0.11842,0 0.18609,0.0677 0.0846,0.0508 0.13534,0.18622 0.0677,0.1185 0.0846,0.33858 0.0338,0.22008 0.0338,0.54173 0,0.60945 -0.11843,0.88031 -0.10145,0.25393 -0.30451,0.25393 l -2.1654,0 0,4.65548 q 0,0.8126 0.25376,1.21889 0.25375,0.4063 0.91353,0.4063 0.21992,0 0.38909,-0.0338 0.18609,-0.0508 0.32143,-0.10152 0.13534,-0.0508 0.21992,-0.0846 0.10145,-0.0338 0.1861,-0.0338 0.0677,0 0.11841,0.0338 0.0677,0.0338 0.10145,0.15236 0.0338,0.1185 0.0508,0.32165 0.0338,0.20315 0.0338,0.50787 z m 11.28744,-4.26611 q 0,0.50787 -0.21993,0.76181 -0.21992,0.237 -0.62593,0.237 l -6.02253,0 q 0,0.62637 0.13534,1.15118 0.15225,0.50787 0.47368,0.8803 0.33835,0.35551 0.84586,0.54173 0.52443,0.18622 1.25188,0.18622 0.72743,0 1.28571,-0.10152 0.55826,-0.10152 0.96427,-0.22007 0.40601,-0.13544 0.65978,-0.23701 0.27067,-0.11851 0.43984,-0.11851 0.10145,0 0.16918,0.0508 0.0677,0.0338 0.10145,0.13544 0.0508,0.10152 0.0677,0.28778 0.0169,0.1693 0.0169,0.45709 0,0.23701 -0.0169,0.42322 0,0.16929 -0.0338,0.2878 -0.0169,0.1185 -0.0677,0.20315 -0.0338,0.0846 -0.11843,0.16929 -0.0677,0.0677 -0.38909,0.20315 -0.32143,0.13543 -0.82895,0.27086 -0.49059,0.1185 -1.13345,0.20315 -0.64285,0.10152 -1.3703,0.10152 -1.31954,0 -2.31765,-0.32165 -0.99812,-0.33858 -1.67481,-1.01575 -0.65976,-0.67716 -0.98119,-1.70982 -0.32143,-1.03268 -0.32143,-2.42085 0,-1.33739 0.33835,-2.38699 0.33834,-1.06654 0.99811,-1.79448 0.65977,-0.74487 1.59022,-1.13425 0.94736,-0.38936 2.11465,-0.38936 1.25187,0 2.13157,0.37244 0.87969,0.35551 1.43796,1.01574 0.57518,0.64331 0.82894,1.54054 0.27068,0.8803 0.27068,1.9299 l 0,0.44016 z m -2.70675,-0.79566 q 0.0338,-1.18503 -0.47368,-1.84527 -0.49061,-0.67716 -1.55639,-0.67716 -0.52444,0 -0.93045,0.20315 -0.38909,0.18622 -0.65976,0.5248 -0.25377,0.33858 -0.38911,0.8126 -0.13533,0.45707 -0.15225,0.98188 l 4.16164,0 z"
       id="path3768"
       style="fill:#000000;fill-rule:nonzero" />
    <path
       d="m 288.68512,144.78113 q 0,0.1185 -0.0677,0.20315 -0.0508,0.0846 -0.18609,0.13543 -0.11842,0.0508 -0.35526,0.0677 -0.21993,0.0338 -0.55827,0.0338 -0.35526,0 -0.57518,-0.0338 -0.21992,-0.0169 -0.37218,-0.0677 -0.13534,-0.0508 -0.20301,-0.13543 -0.0508,-0.0846 -0.0508,-0.20315 l 0,-1.10039 q -0.76128,0.81259 -1.60714,1.26968 -0.82894,0.45708 -1.86089,0.45708 -1.13345,0 -1.91164,-0.44015 -0.77819,-0.44016 -1.28571,-1.18503 -0.4906,-0.74488 -0.71052,-1.72677 -0.21993,-0.9988 -0.21993,-2.09919 0,-1.32047 0.2876,-2.37007 0.28759,-1.06652 0.82894,-1.8114 0.54135,-0.74488 1.35337,-1.13425 0.81203,-0.4063 1.8609,-0.4063 0.82894,0 1.50563,0.33858 0.67669,0.33859 1.35338,0.99882 l 0,-5.3665 q 0,-0.1185 0.0508,-0.20314 0.0677,-0.0846 0.21993,-0.15237 0.16917,-0.0677 0.43984,-0.10152 0.27068,-0.0338 0.67669,-0.0338 0.40601,0 0.67669,0.0338 0.27068,0.0338 0.42292,0.10152 0.15226,0.0677 0.21993,0.15237 0.0677,0.0846 0.0677,0.20314 l 0,14.57589 z m -2.77442,-6.61925 q -0.60902,-0.7618 -1.16729,-1.15118 -0.54135,-0.40629 -1.13345,-0.40629 -0.54135,0 -0.94736,0.27086 -0.3891,0.27087 -0.62594,0.72796 -0.23685,0.45707 -0.35526,1.01574 -0.11843,0.55865 -0.11843,1.15117 0,0.60945 0.10145,1.20196 0.10145,0.59252 0.32144,1.0496 0.23684,0.45709 0.60901,0.74487 0.38909,0.27087 0.96428,0.27087 0.2876,0 0.55827,-0.0846 0.27068,-0.0846 0.54135,-0.27086 0.28759,-0.18623 0.5921,-0.49095 0.30451,-0.30472 0.65978,-0.74488 l 0,-3.28423 z m 14.91231,1.37126 q 0,0.50787 -0.21991,0.7618 -0.21993,0.237 -0.62595,0.237 l -6.02252,0 q 0,0.62638 0.13534,1.15118 0.15226,0.50787 0.47368,0.88031 0.33834,0.35551 0.84586,0.54172 0.52444,0.18623 1.25187,0.18623 0.72745,0 1.28571,-0.10152 0.55827,-0.10152 0.96429,-0.22008 0.40601,-0.13544 0.65976,-0.23701 0.27068,-0.1185 0.43985,-0.1185 0.10145,0 0.16917,0.0508 0.0677,0.0338 0.10145,0.13543 0.0508,0.10152 0.0677,0.2878 0.0169,0.16929 0.0169,0.45708 0,0.237 -0.0169,0.42323 0,0.16929 -0.0338,0.28779 -0.0169,0.1185 -0.0677,0.20314 -0.0338,0.0846 -0.11842,0.16929 -0.0677,0.0677 -0.3891,0.20315 -0.32142,0.13543 -0.82893,0.27087 -0.49061,0.11851 -1.13346,0.20314 -0.64286,0.10152 -1.37029,0.10152 -1.31954,0 -2.31766,-0.32164 -0.99811,-0.33858 -1.6748,-1.01574 -0.65978,-0.67716 -0.9812,-1.70984 -0.32143,-1.03267 -0.32143,-2.42085 0,-1.33739 0.33834,-2.38699 0.33835,-1.06653 0.99812,-1.79448 0.65977,-0.74488 1.59022,-1.13424 0.94736,-0.38937 2.11465,-0.38937 1.25187,0 2.13156,0.37244 0.8797,0.35551 1.43797,1.01574 0.57519,0.6433 0.82894,1.54054 0.27067,0.88031 0.27067,1.92991 l 0,0.44016 z m -2.70675,-0.79567 q 0.0338,-1.18504 -0.47368,-1.84526 -0.49059,-0.67716 -1.55638,-0.67716 -0.52443,0 -0.93044,0.20314 -0.38911,0.18622 -0.65978,0.5248 -0.25375,0.33858 -0.38909,0.81259 -0.13534,0.45709 -0.15226,0.98189 l 4.16163,0 z m 7.98774,6.04366 q 0,0.10152 -0.0677,0.18622 -0.0677,0.0846 -0.23684,0.15236 -0.15226,0.0508 -0.42294,0.0677 -0.25375,0.0338 -0.67669,0.0338 -0.40601,0 -0.67668,-0.0338 -0.25376,-0.0169 -0.42293,-0.0677 -0.15226,-0.0677 -0.21993,-0.15236 -0.0677,-0.0846 -0.0677,-0.18622 l 0,-14.60975 q 0,-0.1185 0.0677,-0.20314 0.0677,-0.0846 0.21993,-0.15237 0.16917,-0.0677 0.42293,-0.10152 0.27067,-0.0338 0.67668,-0.0338 0.42294,0 0.67669,0.0338 0.27068,0.0338 0.42294,0.10152 0.16917,0.0677 0.23684,0.15237 0.0677,0.0846 0.0677,0.20314 l 0,14.60975 z m 8.73353,-0.98188 q 0,0.49094 -0.0677,0.7618 -0.0508,0.25394 -0.15225,0.35552 -0.10145,0.10152 -0.30451,0.18621 -0.18609,0.0846 -0.45677,0.13543 -0.25375,0.0677 -0.55826,0.10152 -0.30451,0.0338 -0.60902,0.0338 -0.82895,0 -1.45488,-0.22008 -0.60902,-0.20314 -1.01503,-0.6433 -0.3891,-0.44015 -0.57519,-1.10039 -0.18609,-0.66023 -0.18609,-1.5744 l 0,-5.0787 -1.18421,0 q -0.21991,0 -0.33834,-0.25394 -0.10145,-0.27087 -0.10145,-0.88031 0,-0.32165 0.0169,-0.54173 0.0338,-0.22007 0.0846,-0.33858 0.0677,-0.13544 0.15226,-0.18622 0.0846,-0.0677 0.18608,-0.0677 l 1.18421,0 0,-2.21771 q 0,-0.10152 0.0508,-0.18622 0.0677,-0.10152 0.21992,-0.15236 0.16917,-0.0677 0.43984,-0.0846 0.27068,-0.0338 0.67669,-0.0338 0.40601,0 0.67669,0.0338 0.27067,0.0169 0.42294,0.0846 0.16917,0.0508 0.23684,0.15236 0.0677,0.0846 0.0677,0.18622 l 0,2.21771 2.14848,0 q 0.11843,0 0.1861,0.0677 0.0846,0.0508 0.13534,0.18622 0.0677,0.11851 0.0846,0.33858 0.0338,0.22008 0.0338,0.54173 0,0.60944 -0.11842,0.88031 -0.10145,0.25394 -0.30451,0.25394 l -2.1654,0 0,4.65547 q 0,0.8126 0.25375,1.21889 0.25377,0.4063 0.91353,0.4063 0.21993,0 0.3891,-0.0338 0.18609,-0.0508 0.32142,-0.10152 0.13534,-0.0508 0.21993,-0.0846 0.10145,-0.0338 0.18609,-0.0338 0.0677,0 0.11842,0.0338 0.0677,0.0338 0.10145,0.15235 0.0338,0.11851 0.0508,0.32166 0.0338,0.20315 0.0338,0.50787 z m 10.57696,1.01574 q 0,0.15236 -0.11842,0.23701 -0.10145,0.0846 -0.33835,0.1185 -0.23684,0.0508 -0.6936,0.0508 -0.50751,0 -0.74436,-0.0508 -0.21992,-0.0338 -0.32143,-0.1185 -0.0846,-0.0846 -0.0846,-0.23701 l 0,-0.79567 q -0.60902,0.66024 -1.40413,1.03268 -0.77819,0.3555 -1.72556,0.3555 -0.7951,0 -1.45487,-0.20315 -0.65977,-0.20314 -1.15037,-0.60944 -0.47369,-0.4063 -0.74436,-0.99881 -0.25375,-0.60944 -0.25375,-1.40511 0,-0.86338 0.33834,-1.50668 0.33834,-0.6433 0.99811,-1.0496 0.67669,-0.42323 1.67481,-0.62638 0.99811,-0.20315 2.31765,-0.20315 l 0.96429,0 0,-0.59251 q 0,-0.47401 -0.10145,-0.81259 -0.0846,-0.35552 -0.30451,-0.59252 -0.20301,-0.23701 -0.57519,-0.33858 -0.35526,-0.1185 -0.89662,-0.1185 -0.6936,0 -1.25187,0.16929 -0.54135,0.15235 -0.96427,0.33858 -0.42294,0.18621 -0.71053,0.33858 -0.27067,0.15236 -0.45677,0.15236 -0.11841,0 -0.21991,-0.0677 -0.0846,-0.0846 -0.15226,-0.22007 -0.0508,-0.15237 -0.0846,-0.35552 -0.0338,-0.22007 -0.0338,-0.47401 0,-0.33858 0.0508,-0.54173 0.0508,-0.20315 0.20301,-0.3555 0.16917,-0.16929 0.55827,-0.35552 0.38909,-0.20315 0.89661,-0.37244 0.52444,-0.16929 1.13346,-0.27086 0.62593,-0.10152 1.28571,-0.10152 1.16728,0 1.99623,0.237 0.82893,0.22009 1.35337,0.6941 0.54135,0.47401 0.77819,1.21889 0.23685,0.74488 0.23685,1.76062 l 0,6.67004 z m -2.74059,-4.24919 -1.06579,0 q -0.67668,0 -1.15037,0.10152 -0.47368,0.10152 -0.77819,0.30472 -0.30451,0.18623 -0.43984,0.47402 -0.13534,0.28779 -0.13534,0.66023 0,0.60945 0.3891,0.96495 0.40601,0.35552 1.09961,0.35552 0.59211,0 1.0827,-0.2878 0.49061,-0.30472 0.99812,-0.88031 l 0,-1.6929 z"
       id="path3770"
       style="fill:#000000;fill-rule:nonzero" />
  </g>
</svg>
