<?xml version="1.0" encoding="UTF-8" standalone="no"?>
<!-- Created with Inkscape (http://www.inkscape.org/) -->

<svg
   xmlns:dc="http://purl.org/dc/elements/1.1/"
   xmlns:cc="http://creativecommons.org/ns#"
   xmlns:rdf="http://www.w3.org/1999/02/22-rdf-syntax-ns#"
   xmlns:svg="http://www.w3.org/2000/svg"
   xmlns="http://www.w3.org/2000/svg"
   version="1.1"
   width="100%"
   height="100%"
   viewBox="0 0 799.65046 207.05213"
   id="svg3465"
   style="fill:none;stroke:none">
  <metadata
     id="metadata3588">
    <rdf:RDF>
      <cc:Work
         rdf:about="">
        <dc:format>image/svg+xml</dc:format>
        <dc:type
           rdf:resource="http://purl.org/dc/dcmitype/StillImage" />
        <dc:title></dc:title>
      </cc:Work>
    </rdf:RDF>
  </metadata>
  <defs
     id="defs3586" />
  <clipPath
     id="p.0">
    <path
       d="M 0,0 765,0 765,273 0,273 0,0 z"
       id="path3468" />
  </clipPath>
  <g
     id="g5234">
    <path
       d="m 328.76521,32.506153 56.83321,0"
       id="path3474"
       style="fill:#000000;fill-opacity:0;fill-rule:nonzero" />
    <path
       d="m 328.76521,32.506153 42.73591,0"
       id="path3476"
       style="stroke:#000000;stroke-width:2;stroke-linecap:butt;stroke-linejoin:round" />
    <path
       d="M 371.50113,36.386986 382.16362,32.506153 371.50113,28.62532 z"
       id="path3478"
       style="fill:#000000;fill-rule:evenodd;stroke:#000000;stroke-width:2;stroke-linecap:butt" />
    <path
       d="m 0.99999909,174.45348 251.86430091,0 0,31.59866 -251.86430091,0 z"
       id="path3480"
       style="fill:#b7b7b7;fill-rule:nonzero" />
    <path
       d="m 1,174.45347 251.8643,0 0,31.59867 -251.8643,0 z"
       id="path3482"
       style="stroke:#000000;stroke-width:2;stroke-linecap:butt;stroke-linejoin:round" />
    <path
       d="m 90.326009,198.38225 0,-15.96959 2.12928,0 0,6.55304 8.296851,0 0,-6.55304 2.11092,0 0,15.96959 -2.11092,0 0,-7.5259 -8.296851,0 0,7.5259 -2.12928,0 z m 23.078241,-1.43175 q -1.10135,0.93614 -2.11092,1.32162 -1.00958,0.36712 -2.16599,0.36712 -1.89066,0 -2.91858,-0.9178 -1.02793,-0.93615 -1.02793,-2.38626 0,-0.86273 0.38548,-1.56025 0.38546,-0.69752 1.00956,-1.1197 0.6241,-0.42219 1.41341,-0.64246 0.58739,-0.1652 1.7438,-0.2937 2.38626,-0.29369 3.50597,-0.67916 0,-0.40383 0,-0.51396 0,-1.19314 -0.55067,-1.68874 -0.7526,-0.66081 -2.23942,-0.66081 -1.37669,0 -2.0375,0.47725 -0.66081,0.47725 -0.97286,1.72545 l -1.92737,-0.27534 q 0.27535,-1.22984 0.86273,-1.98243 0.60574,-0.75259 1.72545,-1.15642 1.13807,-0.42219 2.64325,-0.42219 1.48682,0 2.40461,0.34877 0.91779,0.34875 1.35833,0.88108 0.44054,0.53231 0.60575,1.33997 0.11008,0.49562 0.11008,1.79888 l 0,2.62489 q 0,2.73502 0.11007,3.46925 0.12849,0.71588 0.51397,1.37669 l -2.05586,0 q -0.31205,-0.60574 -0.38548,-1.43175 z m -0.1652,-4.3687 q -1.06464,0.42218 -3.21228,0.73424 -1.21148,0.1652 -1.70709,0.38547 -0.49561,0.22027 -0.77094,0.64246 -0.27535,0.42218 -0.27535,0.93614 0,0.78931 0.58739,1.32162 0.60575,0.51396 1.74381,0.51396 1.13807,0 2.01915,-0.4956 0.88108,-0.51396 1.30326,-1.35833 0.31205,-0.67917 0.31205,-1.96408 l 0,-0.71588 z m 12.29926,5.80045 0,-1.46846 q -1.10136,1.72545 -3.23064,1.72545 -1.37668,0 -2.55145,-0.7526 -1.15643,-0.77095 -1.79888,-2.12928 -0.6241,-1.37668 -0.6241,-3.15721 0,-1.72545 0.56903,-3.13884 0.58739,-1.41341 1.72545,-2.16599 1.15642,-0.7526 2.58818,-0.7526 1.04628,0 1.85394,0.44054 0.82602,0.44054 1.33998,1.15643 l 0,-5.72703 1.94572,0 0,15.96959 -1.81723,0 z m -6.20428,-5.7821 q 0,2.22107 0.93615,3.32242 0.95451,1.10135 2.22105,1.10135 1.28491,0 2.18436,-1.04629 0.89943,-1.04628 0.89943,-3.21227 0,-2.36791 -0.9178,-3.46926 -0.91779,-1.1197 -2.25776,-1.1197 -1.30327,0 -2.18435,1.06464 -0.88108,1.06464 -0.88108,3.35911 z m 10.15162,0 q 0,-3.21226 1.79888,-4.77252 1.48683,-1.28491 3.63446,-1.28491 2.38626,0 3.89144,1.57861 1.52354,1.56025 1.52354,4.31363 0,2.23941 -0.67917,3.52432 -0.66081,1.26655 -1.94572,1.98243 -1.26655,0.69753 -2.79009,0.69753 -2.42298,0 -3.92816,-1.56026 -1.50518,-1.56024 -1.50518,-4.47883 z m 2.01915,0 q 0,2.22107 0.97286,3.32242 0.97286,1.10135 2.44133,1.10135 1.46847,0 2.42297,-1.10135 0.97287,-1.11971 0.97287,-3.39584 0,-2.14763 -0.97287,-3.24898 -0.97285,-1.10135 -2.42297,-1.10135 -1.46847,0 -2.44133,1.10135 -0.97286,1.10135 -0.97286,3.3224 z m 10.16999,0 q 0,-3.21226 1.79887,-4.77252 1.48683,-1.28491 3.63446,-1.28491 2.38626,0 3.89144,1.57861 1.52354,1.56025 1.52354,4.31363 0,2.23941 -0.67917,3.52432 -0.66081,1.26655 -1.94572,1.98243 -1.26655,0.69753 -2.79009,0.69753 -2.42297,0 -3.92815,-1.56026 -1.50518,-1.56024 -1.50518,-4.47883 z m 2.01914,0 q 0,2.22107 0.97287,3.32242 0.97285,1.10135 2.44132,1.10135 1.46847,0 2.42297,-1.10135 0.97287,-1.11971 0.97287,-3.39584 0,-2.14763 -0.97287,-3.24898 -0.97285,-1.10135 -2.42297,-1.10135 -1.46847,0 -2.44132,1.10135 -0.97287,1.10135 -0.97287,3.3224 z m 10.90422,10.22422 0,-16.02467 1.79888,0 0,1.50518 q 0.6241,-0.88108 1.41339,-1.32162 0.80766,-0.44054 1.92737,-0.44054 1.48682,0 2.62489,0.77095 1.13806,0.75259 1.7071,2.14764 0.58738,1.39504 0.58738,3.04707 0,1.78051 -0.64246,3.21227 -0.64245,1.41341 -1.85393,2.16598 -1.21149,0.75261 -2.55147,0.75261 -0.99122,0 -1.78051,-0.40383 -0.77095,-0.42219 -1.26656,-1.04629 l 0,5.63525 -1.96408,0 z m 1.78052,-10.16914 q 0,2.23941 0.89944,3.30405 0.91779,1.06464 2.2027,1.06464 1.30326,0 2.22105,-1.10135 0.93616,-1.10135 0.93616,-3.43255 0,-2.2027 -0.91779,-3.30405 -0.89945,-1.10136 -2.16599,-1.10136 -1.2482,0 -2.22107,1.17478 -0.9545,1.17477 -0.9545,3.39584 z"
       id="path3484"
       style="fill:#000000;fill-rule:nonzero" />
    <path
       d="m 265.75289,174.45348 532.88521,0 0,31.59866 -532.88521,0 z"
       id="path3486"
       style="fill:#e69138;fill-rule:nonzero" />
    <path
       d="m 265.75289,174.45347 532.88521,0 0,31.59867 -532.88521,0 z"
       id="path3488"
       style="stroke:#000000;stroke-width:2;stroke-linecap:butt;stroke-linejoin:round" />
    <path
       d="m 470.46154,193.24262 1.98244,-0.16521 q 0.14684,1.19313 0.66081,1.96408 0.51396,0.77094 1.59695,1.2482 1.10135,0.47725 2.45968,0.47725 1.21149,0 2.12928,-0.36712 0.93616,-0.36711 1.39505,-0.99121 0.4589,-0.6241 0.4589,-1.35834 0,-0.75259 -0.44054,-1.30327 -0.44054,-0.56902 -1.45012,-0.9545 -0.64245,-0.25699 -2.84515,-0.77095 -2.2027,-0.53231 -3.08378,-1.00957 -1.13807,-0.60574 -1.7071,-1.48683 -0.55068,-0.88108 -0.55068,-1.98243 0,-1.21148 0.67917,-2.25776 0.69753,-1.06464 2.00079,-1.59697 1.32162,-0.55067 2.93693,-0.55067 1.78053,0 3.13886,0.56903 1.35833,0.56903 2.07421,1.68874 0.73423,1.10135 0.7893,2.51475 l -2.01914,0.14685 q -0.16521,-1.50518 -1.11971,-2.27613 -0.93615,-0.7893 -2.77173,-0.7893 -1.90901,0 -2.79009,0.71588 -0.88108,0.69752 -0.88108,1.68874 0,0.86273 0.6241,1.4134 0.60573,0.55068 3.17555,1.13807 2.58818,0.58738 3.54269,1.02792 1.39504,0.64245 2.05585,1.63367 0.67917,0.97286 0.67917,2.25777 0,1.28491 -0.73424,2.42298 -0.73423,1.1197 -2.11092,1.7438 -1.35833,0.6241 -3.06543,0.6241 -2.16599,0 -3.63446,-0.6241 -1.46847,-0.64245 -2.31284,-1.90901 -0.826,-1.26655 -0.86272,-2.88186 z m 19.37257,3.37747 0.27533,1.7438 q -0.82601,0.16521 -1.48682,0.16521 -1.06464,0 -1.65203,-0.3304 -0.58738,-0.34877 -0.82602,-0.88109 -0.23862,-0.55067 -0.23862,-2.33119 l 0,-6.64482 -1.45011,0 0,-1.5419 1.45011,0 0,-2.86351 1.94572,-1.17477 0,4.03828 1.98244,0 0,1.5419 -1.98244,0 0,6.75495 q 0,0.84437 0.0918,1.083 0.11008,0.23862 0.34877,0.38547 0.23862,0.14685 0.67916,0.14685 0.31206,0 0.86273,-0.0917 z m 1.7756,1.76216 0,-11.58255 1.76216,0 0,1.76217 q 0.67917,-1.22984 1.2482,-1.61532 0.56904,-0.40383 1.26656,-0.40383 0.99121,0 2.01914,0.64246 l -0.67917,1.81723 q -0.71587,-0.42218 -1.45011,-0.42218 -0.64246,0 -1.15642,0.38547 -0.4956,0.38547 -0.71587,1.06463 -0.33041,1.04629 -0.33041,2.29449 l 0,6.05743 -1.96408,0 z m 14.87946,-1.43175 q -1.10135,0.93614 -2.11092,1.32162 -1.00958,0.36712 -2.16599,0.36712 -1.89066,0 -2.91859,-0.9178 -1.02792,-0.93615 -1.02792,-2.38626 0,-0.86273 0.38548,-1.56025 0.38546,-0.69752 1.00956,-1.1197 0.6241,-0.42219 1.41341,-0.64246 0.58739,-0.1652 1.7438,-0.2937 2.38626,-0.29369 3.50597,-0.67916 0,-0.40383 0,-0.51396 0,-1.19314 -0.55067,-1.68874 -0.7526,-0.66081 -2.23942,-0.66081 -1.37669,0 -2.0375,0.47725 -0.66081,0.47725 -0.97286,1.72545 l -1.92737,-0.27534 q 0.27535,-1.22984 0.86273,-1.98243 0.60574,-0.75259 1.72545,-1.15642 1.13807,-0.42219 2.64325,-0.42219 1.48682,0 2.40461,0.34877 0.91779,0.34875 1.35833,0.88108 0.44054,0.53231 0.60575,1.33997 0.11008,0.49562 0.11008,1.79888 l 0,2.62489 q 0,2.73502 0.11007,3.46925 0.12849,0.71588 0.51397,1.37669 l -2.05586,0 q -0.31205,-0.60574 -0.38548,-1.43175 z m -0.1652,-4.3687 q -1.06464,0.42218 -3.21228,0.73424 -1.21148,0.1652 -1.70709,0.38547 -0.49561,0.22027 -0.77094,0.64246 -0.27535,0.42218 -0.27535,0.93614 0,0.78931 0.58739,1.32162 0.60575,0.51396 1.74381,0.51396 1.13807,0 2.01915,-0.4956 0.88108,-0.51396 1.30326,-1.35833 0.31205,-0.67917 0.31205,-1.96408 l 0,-0.71588 z m 9.08698,4.03829 0.27533,1.7438 q -0.82601,0.16521 -1.48682,0.16521 -1.06464,0 -1.65202,-0.3304 -0.58739,-0.34877 -0.82602,-0.88109 -0.23862,-0.55067 -0.23862,-2.33119 l 0,-6.64482 -1.45012,0 0,-1.5419 1.45012,0 0,-2.86351 1.94572,-1.17477 0,4.03828 1.98243,0 0,1.5419 -1.98243,0 0,6.75495 q 0,0.84437 0.0917,1.083 0.11007,0.23862 0.34876,0.38547 0.23862,0.14685 0.67916,0.14685 0.31206,0 0.86274,-0.0917 z m 1.05973,-4.01994 q 0,-3.21226 1.79887,-4.77252 1.48682,-1.28491 3.63446,-1.28491 2.38626,0 3.89144,1.57861 1.52353,1.56025 1.52353,4.31363 0,2.23941 -0.67916,3.52432 -0.66081,1.26655 -1.94572,1.98243 -1.26656,0.69753 -2.79009,0.69753 -2.42297,0 -3.92815,-1.56026 -1.50518,-1.56024 -1.50518,-4.47883 z m 2.01914,0 q 0,2.22107 0.97286,3.32242 0.97286,1.10135 2.44133,1.10135 1.46847,0 2.42297,-1.10135 0.97286,-1.11971 0.97286,-3.39584 0,-2.14763 -0.97286,-3.24898 -0.97286,-1.10135 -2.42297,-1.10135 -1.46847,0 -2.44133,1.10135 -0.97286,1.10135 -0.97286,3.3224 z m 10.11489,2.3312 1.94573,-0.31205 q 0.1652,1.17477 0.89944,1.79887 0.75258,0.60575 2.09257,0.60575 1.35833,0 2.00078,-0.55067 0.66081,-0.55068 0.66081,-1.28491 0,-0.66081 -0.56903,-1.04629 -0.40383,-0.25699 -2.00079,-0.66081 -2.16599,-0.55068 -3.01036,-0.93615 -0.82601,-0.40383 -1.26655,-1.10135 -0.42219,-0.71588 -0.42219,-1.56025 0,-0.77095 0.34877,-1.43176 0.36711,-0.66081 0.97285,-1.10135 0.4589,-0.33041 1.2482,-0.56903 0.78931,-0.23863 1.68874,-0.23863 1.37669,0 2.40462,0.40383 1.02793,0.38548 1.50518,1.06464 0.4956,0.66081 0.67916,1.78052 l -1.90901,0.25699 q -0.12848,-0.88108 -0.77094,-1.3767 -0.6241,-0.51396 -1.76216,-0.51396 -1.35834,0 -1.92736,0.4589 -0.56904,0.44054 -0.56904,1.02793 0,0.38546 0.23863,0.69752 0.23862,0.31204 0.75259,0.51396 0.29369,0.11008 1.72545,0.51397 2.07421,0.55067 2.90022,0.89943 0.82602,0.34877 1.28491,1.02793 0.47725,0.67917 0.47725,1.68874 0,0.97286 -0.56902,1.85394 -0.56904,0.86272 -1.65203,1.33997 -1.083,0.45891 -2.44133,0.45891 -2.25777,0 -3.45091,-0.93616 -1.17477,-0.93614 -1.50518,-2.77173 z m 11.74775,7.89302 0,-16.02467 1.79888,0 0,1.50518 q 0.62409,-0.88108 1.4134,-1.32162 0.80766,-0.44054 1.92736,-0.44054 1.48683,0 2.62489,0.77095 1.13807,0.75259 1.70709,2.14764 0.58739,1.39504 0.58739,3.04707 0,1.78051 -0.64245,3.21227 -0.64246,1.41341 -1.85395,2.16598 -1.21148,0.75261 -2.55145,0.75261 -0.99122,0 -1.78053,-0.40383 -0.77094,-0.42219 -1.26655,-1.04629 l 0,5.63525 -1.96408,0 z m 1.78053,-10.16914 q 0,2.23941 0.89943,3.30405 0.91779,1.06464 2.2027,1.06464 1.30327,0 2.22106,-1.10135 0.93615,-1.10135 0.93615,-3.43255 0,-2.2027 -0.9178,-3.30405 -0.89943,-1.10136 -2.16599,-1.10136 -1.2482,0 -2.22105,1.17478 -0.9545,1.17477 -0.9545,3.39584 z m 10.40862,5.72702 0,-15.96959 1.96408,0 0,5.72703 q 1.37668,-1.59697 3.46925,-1.59697 1.28491,0 2.22106,0.51397 0.95451,0.49561 1.35834,1.39504 0.42218,0.89944 0.42218,2.58818 l 0,7.34234 -1.96407,0 0,-7.34234 q 0,-1.46847 -0.64247,-2.12928 -0.64244,-0.67917 -1.79887,-0.67917 -0.88108,0 -1.65203,0.4589 -0.75258,0.44054 -1.08299,1.22984 -0.3304,0.77095 -0.3304,2.12928 l 0,6.33277 -1.96408,0 z m 20.11885,-3.72624 2.01914,0.25698 q -0.47725,1.76216 -1.78052,2.75338 -1.28491,0.97287 -3.30406,0.97287 -2.5331,0 -4.01992,-1.56026 -1.48683,-1.56024 -1.48683,-4.38704 0,-2.91859 1.48683,-4.5339 1.50518,-1.61532 3.90979,-1.61532 2.3312,0 3.79967,1.57861 1.46847,1.5786 1.46847,4.46047 0,0.1652 -0.0183,0.51397 l -8.62725,0 q 0.11007,1.90901 1.083,2.91857 0.97285,1.00958 2.42297,1.00958 1.06464,0 1.81722,-0.55067 0.77095,-0.56904 1.22985,-1.81724 z m -6.44291,-3.17556 6.46126,0 q -0.12849,-1.45012 -0.73424,-2.18435 -0.93614,-1.13806 -2.44132,-1.13806 -1.33998,0 -2.27613,0.91779 -0.91779,0.89944 -1.00957,2.40462 z m 10.68396,6.9018 0,-11.58255 1.76216,0 0,1.76217 q 0.67918,-1.22984 1.2482,-1.61532 0.56904,-0.40383 1.26656,-0.40383 0.99122,0 2.01915,0.64246 l -0.67918,1.81723 q -0.71587,-0.42218 -1.4501,-0.42218 -0.64246,0 -1.15643,0.38547 -0.4956,0.38547 -0.71587,1.06463 -0.33041,1.04629 -0.33041,2.29449 l 0,6.05743 -1.96408,0 z m 15.24663,-3.72624 2.01914,0.25698 q -0.47725,1.76216 -1.78052,2.75338 -1.28491,0.97287 -3.30406,0.97287 -2.5331,0 -4.01992,-1.56026 -1.48683,-1.56024 -1.48683,-4.38704 0,-2.91859 1.48683,-4.5339 1.50518,-1.61532 3.90979,-1.61532 2.3312,0 3.79967,1.57861 1.46846,1.5786 1.46846,4.46047 0,0.1652 -0.0183,0.51397 l -8.62725,0 q 0.11007,1.90901 1.083,2.91857 0.97285,1.00958 2.42297,1.00958 1.06464,0 1.81722,-0.55067 0.77095,-0.56904 1.22985,-1.81724 z m -6.44291,-3.17556 6.46126,0 q -0.12849,-1.45012 -0.73424,-2.18435 -0.93614,-1.13806 -2.44132,-1.13806 -1.33998,0 -2.27613,0.91779 -0.91779,0.89944 -1.00957,2.40462 z"
       id="path3490"
       style="fill:#000000;fill-rule:nonzero" />
    <path
       d="m 35.521729,98.364457 0,0 c 0,-17.400387 14.10579,-31.506165 31.50617,-31.506165 l 0,0 c 8.35596,0 16.36966,3.319385 22.27822,9.227938 5.90854,5.908552 9.22794,13.922266 9.22794,22.278227 l 0,0 c 0,17.400363 -14.1058,31.506163 -31.50616,31.506163 l 0,0 c -17.40038,0 -31.50617,-14.1058 -31.50617,-31.506163 z"
       id="path3492"
       style="fill:#69d2e7;fill-rule:nonzero" />
    <path
       d="m 35.52173,98.364457 0,0 c 0,-17.400387 14.10579,-31.506165 31.50617,-31.506165 l 0,0 c 8.35596,0 16.36966,3.319385 22.27822,9.227938 5.90854,5.908552 9.22794,13.922266 9.22794,22.278227 l 0,0 c 0,17.400363 -14.1058,31.506153 -31.50616,31.506153 l 0,0 c -17.40038,0 -31.50617,-14.10579 -31.50617,-31.506153 z"
       id="path3494"
       style="stroke:#000000;stroke-width:2;stroke-linecap:butt;stroke-linejoin:round" />
    <path
       d="m 76.070595,105.65929 q 0,0.12119 -0.06066,0.22228 -0.06066,0.0808 -0.242488,0.14146 -0.181863,0.0607 -0.464764,0.10106 -0.282901,0.0403 -0.727465,0.0403 -0.424362,0 -0.727464,-0.0403 -0.282901,-0.0403 -0.464776,-0.10106 -0.161662,-0.0607 -0.242488,-0.14146 -0.06066,-0.10095 -0.06066,-0.22228 l 0,-12.649814 -0.02015,0 -4.506237,12.629604 q -0.0404,0.16167 -0.161662,0.2627 -0.10095,0.10106 -0.282901,0.16167 -0.181875,0.0606 -0.484977,0.0808 -0.282901,0.0201 -0.687051,0.0201 -0.404151,0 -0.687052,-0.0403 -0.282901,-0.0201 -0.484976,-0.0808 -0.181875,-0.0808 -0.303124,-0.16166 -0.10095,-0.10106 -0.121173,-0.24249 l -4.344567,-12.629555 -0.02014,0 0,12.649815 q 0,0.12118 -0.0808,0.22228 -0.06066,0.0808 -0.242477,0.14146 -0.181875,0.0607 -0.464787,0.10106 -0.282901,0.0403 -0.727464,0.0403 -0.424341,0 -0.727465,-0.0403 -0.282901,-0.0403 -0.464764,-0.10106 -0.161651,-0.0607 -0.222287,-0.14146 -0.06066,-0.10106 -0.06066,-0.22228 l 0,-13.842058 q 0,-0.60622 0.323325,-0.929538 0.323314,-0.323318 0.868926,-0.323318 l 2.061144,0 q 0.54559,0 0.929539,0.101004 0.404151,0.08083 0.687052,0.282903 0.303102,0.202075 0.484976,0.545593 0.202076,0.343532 0.343515,0.848709 l 3.354432,9.254975 0.0404,0 3.495883,-9.234761 q 0.14144,-0.50519 0.323314,-0.848709 0.202075,-0.343531 0.444563,-0.545606 0.242489,-0.222274 0.565802,-0.303104 0.343526,-0.101004 0.788079,-0.101004 l 2.12179,0 q 0.323314,0 0.565802,0.08082 0.24249,0.08083 0.383928,0.242488 0.141462,0.16166 0.222287,0.404148 0.0808,0.222287 0.0808,0.525391 l 0,13.842057 z"
       id="path3496"
       style="fill:#000000;fill-rule:nonzero" />
    <path
       d="m 155.34875,98.364457 0,0 c 0,-17.400387 14.10578,-31.506165 31.50616,-31.506165 l 0,0 c 8.35595,0 16.36967,3.319385 22.27821,9.227938 5.90857,5.908552 9.22795,13.922266 9.22795,22.278227 l 0,0 c 0,17.400363 -14.1058,31.506163 -31.50616,31.506163 l 0,0 c -17.40038,0 -31.50616,-14.1058 -31.50616,-31.506163 z"
       id="path3498"
       style="fill:#a7dbd8;fill-rule:nonzero" />
    <path
       d="m 155.34875,98.364457 0,0 c 0,-17.400387 14.10578,-31.506165 31.50616,-31.506165 l 0,0 c 8.35595,0 16.36967,3.319385 22.27821,9.227938 5.90857,5.908552 9.22795,13.922266 9.22795,22.278227 l 0,0 c 0,17.400363 -14.1058,31.506153 -31.50616,31.506153 l 0,0 c -17.40038,0 -31.50616,-14.10579 -31.50616,-31.506153 z"
       id="path3500"
       style="stroke:#000000;stroke-width:2;stroke-linecap:butt;stroke-linejoin:round" />
    <path
       d="m 193.07314,106.74793 q 0,0.12849 -0.0551,0.22027 -0.0551,0.0918 -0.23862,0.14685 -0.16521,0.0551 -0.51397,0.0734 -0.34877,0.0367 -0.9545,0.0367 -0.51397,0 -0.82602,-0.0367 -0.2937,-0.0183 -0.47725,-0.0734 -0.1652,-0.0734 -0.23862,-0.16521 -0.0734,-0.11008 -0.11008,-0.25698 l -1.39505,-3.48761 q -0.25698,-0.58739 -0.49561,-1.04628 -0.23862,-0.4589 -0.53231,-0.7526 -0.2937,-0.31204 -0.67918,-0.45889 -0.38546,-0.16521 -0.89943,-0.16521 l -0.99121,0 0,5.92895 q 0,0.12849 -0.0734,0.22027 -0.0734,0.0918 -0.25698,0.1652 -0.18356,0.0551 -0.49561,0.0918 -0.2937,0.0366 -0.75259,0.0366 -0.4589,0 -0.77094,-0.0366 -0.31206,-0.0366 -0.49562,-0.0918 -0.18356,-0.0734 -0.25698,-0.1652 -0.0551,-0.0917 -0.0551,-0.22027 l 0,-14.15237 q 0,-0.532314 0.25699,-0.752584 0.27533,-0.238632 0.67916,-0.238632 l 4.03828,0 q 0.60575,0 0.99122,0.01833 0.40383,0.01833 0.73424,0.0551 0.93615,0.146847 1.68873,0.477252 0.7526,0.312056 1.26656,0.84437 0.53232,0.513964 0.80766,1.229848 0.29369,0.715872 0.29369,1.652027 0,0.770946 -0.20192,1.431756 -0.2019,0.64245 -0.58738,1.156413 -0.38547,0.495614 -0.95451,0.862732 -0.56902,0.367117 -1.28491,0.605737 0.34877,0.165211 0.64246,0.403831 0.31205,0.23863 0.58739,0.58739 0.27533,0.34876 0.51396,0.7893 0.23863,0.44054 0.47726,0.99122 l 1.30326,3.06542 q 0.18356,0.4589 0.23863,0.67917 0.0734,0.20191 0.0734,0.33041 z m -4.09336,-10.591333 q 0,-0.770945 -0.34875,-1.284909 -0.34877,-0.532314 -1.13807,-0.752585 -0.23863,-0.0551 -0.55067,-0.09175 -0.31206,-0.03665 -0.84437,-0.03665 l -1.43176,0 0,4.423766 1.61532,0 q 0.67916,0 1.17477,-0.165208 0.51396,-0.165197 0.84437,-0.458891 0.34876,-0.293693 0.51396,-0.697522 0.1652,-0.422191 0.1652,-0.936155 z"
       id="path3502"
       style="fill:#000000;fill-rule:nonzero" />
    <path
       d="m 98.534059,98.364457 56.814691,0"
       id="path3504"
       style="fill:#000000;fill-opacity:0;fill-rule:nonzero" />
    <path
       d="m 98.53406,98.364457 42.7174,0"
       id="path3506"
       style="stroke:#000000;stroke-width:2;stroke-linecap:butt;stroke-linejoin:round" />
    <path
       d="m 141.25146,102.24529 10.66248,-3.880833 -10.66248,-3.880821 z"
       id="path3508"
       style="fill:#000000;fill-rule:evenodd;stroke:#000000;stroke-width:2;stroke-linecap:butt" />
    <path
       d="m 265.75289,32.506153 0,0 C 265.75289,15.105778 279.85868,1 297.25907,1 l 0,0 c 8.35596,0 16.36966,3.319384 22.27824,9.227937 5.90854,5.908553 9.22794,13.922267 9.22794,22.278216 l 0,0 c 0,17.400375 -14.10579,31.506165 -31.50618,31.506165 l 0,0 c -17.40039,0 -31.50618,-14.10579 -31.50618,-31.506165 z"
       id="path3510"
       style="fill:#69d2e7;fill-rule:nonzero" />
    <path
       d="m 265.75289,32.506153 0,0 C 265.75289,15.105778 279.85868,1 297.25907,1 l 0,0 c 8.35596,0 16.36966,3.319384 22.27824,9.227937 5.90854,5.908553 9.22794,13.922267 9.22794,22.278216 l 0,0 c 0,17.400375 -14.10579,31.506165 -31.50618,31.506165 l 0,0 c -17.40039,0 -31.50618,-14.10579 -31.50618,-31.506165 z"
       id="path3512"
       style="stroke:#000000;stroke-width:2;stroke-linecap:butt;stroke-linejoin:round" />
    <path
       d="m 306.30191,39.801007 q 0,0.121179 -0.0607,0.222287 -0.0607,0.08082 -0.24249,0.141444 -0.18186,0.06066 -0.46477,0.101005 -0.2829,0.04035 -0.72746,0.04035 -0.42436,0 -0.72746,-0.04035 -0.2829,-0.04035 -0.46478,-0.101005 -0.16166,-0.06066 -0.24249,-0.141444 -0.0607,-0.101005 -0.0607,-0.222287 l 0,-12.649799 -0.0202,0 -4.50623,12.629598 q -0.0404,0.161659 -0.16165,0.262689 -0.10095,0.101004 -0.28291,0.161658 -0.18187,0.06066 -0.48498,0.08083 -0.2829,0.02018 -0.68705,0.02018 -0.40414,0 -0.68704,-0.04035 -0.28291,-0.02018 -0.48498,-0.08083 -0.18187,-0.08083 -0.30312,-0.161659 -0.10095,-0.101005 -0.12117,-0.242488 l -4.34458,-12.629586 -0.0202,0 0,12.649799 q 0,0.12118 -0.0808,0.222275 -0.0607,0.08083 -0.24249,0.141458 -0.18185,0.06066 -0.46476,0.101004 -0.2829,0.04035 -0.72747,0.04035 -0.42436,0 -0.72746,-0.04035 -0.2829,-0.04035 -0.46478,-0.101004 -0.16166,-0.06066 -0.22227,-0.141458 -0.0607,-0.101005 -0.0607,-0.222275 l 0,-13.842039 q 0,-0.606221 0.32331,-0.929538 0.32332,-0.323317 0.86893,-0.323317 l 2.06114,0 q 0.5456,0 0.92954,0.101004 0.40415,0.08083 0.68705,0.282903 0.3031,0.202073 0.48498,0.545605 0.20207,0.343518 0.34352,0.848709 l 3.35442,9.254964 0.0403,0 3.49588,-9.234764 q 0.14145,-0.505177 0.32331,-0.848708 0.20208,-0.343519 0.44457,-0.545592 0.24248,-0.222288 0.56581,-0.303117 0.34351,-0.101004 0.78808,-0.101004 l 2.12177,0 q 0.32332,0 0.5658,0.08082 0.24249,0.08083 0.38394,0.242489 0.14146,0.161658 0.22229,0.404147 0.0808,0.222287 0.0808,0.525391 l 0,13.842038 z"
       id="path3514"
       style="fill:#000000;fill-rule:nonzero" />
    <path
       d="m 385.57991,32.506153 0,0 C 385.57991,15.105778 399.6857,1 417.08609,1 l 0,0 c 8.35596,0 16.36966,3.319384 22.27824,9.227937 5.90854,5.908553 9.22794,13.922267 9.22794,22.278216 l 0,0 c 0,17.400375 -14.10579,31.506165 -31.50618,31.506165 l 0,0 c -17.40039,0 -31.50618,-14.10579 -31.50618,-31.506165 z"
       id="path3516"
       style="fill:#a7dbd8;fill-rule:nonzero" />
    <path
       d="m 385.57991,32.506153 0,0 C 385.57991,15.105778 399.6857,1 417.08609,1 l 0,0 c 8.35596,0 16.36966,3.319384 22.27824,9.227937 5.90854,5.908553 9.22794,13.922267 9.22794,22.278216 l 0,0 c 0,17.400375 -14.10579,31.506165 -31.50618,31.506165 l 0,0 c -17.40039,0 -31.50618,-14.10579 -31.50618,-31.506165 z"
       id="path3518"
       style="stroke:#000000;stroke-width:2;stroke-linecap:butt;stroke-linejoin:round" />
    <path
       d="m 423.30431,40.889639 q 0,0.128497 -0.0551,0.22027 -0.0551,0.09175 -0.23862,0.146847 -0.16521,0.0551 -0.51397,0.07342 -0.34876,0.03665 -0.9545,0.03665 -0.51397,0 -0.82602,-0.03665 -0.2937,-0.01833 -0.47725,-0.07342 -0.1652,-0.07342 -0.23862,-0.165197 -0.0734,-0.110076 -0.11008,-0.256982 l -1.39504,-3.487612 q -0.25698,-0.587387 -0.49561,-1.04629 -0.23862,-0.45889 -0.53231,-0.752584 -0.2937,-0.312055 -0.67918,-0.458902 -0.38546,-0.165197 -0.89943,-0.165197 l -0.99121,0 0,5.928935 q 0,0.128497 -0.0734,0.22027 -0.0734,0.09175 -0.25698,0.165209 -0.18356,0.0551 -0.49561,0.09175 -0.2937,0.03665 -0.75259,0.03665 -0.4589,0 -0.77094,-0.03665 -0.31206,-0.03665 -0.49562,-0.09175 -0.18355,-0.07342 -0.25698,-0.165209 -0.0551,-0.09175 -0.0551,-0.22027 l 0,-14.152358 q 0,-0.532326 0.25699,-0.752596 0.27533,-0.23862 0.67916,-0.23862 l 4.03829,0 q 0.60574,0 0.99121,0.01833 0.40383,0.01833 0.73424,0.0551 0.93615,0.146847 1.68873,0.477252 0.7526,0.312044 1.26656,0.84437 0.53232,0.513963 0.80766,1.229836 0.2937,0.715884 0.2937,1.652027 0,0.770946 -0.20192,1.431757 -0.20191,0.64246 -0.58739,1.156424 -0.38547,0.495602 -0.95451,0.86272 -0.56902,0.367117 -1.28491,0.605749 0.34877,0.165196 0.64246,0.403828 0.31205,0.238621 0.58739,0.587388 0.27533,0.348755 0.51397,0.789296 0.23862,0.44054 0.47725,0.991216 l 1.30326,3.065434 q 0.18356,0.45889 0.23863,0.679161 0.0734,0.20192 0.0734,0.330405 z m -4.09336,-10.591322 q 0,-0.770946 -0.34875,-1.28491 -0.34877,-0.532326 -1.13807,-0.752596 -0.23863,-0.0551 -0.55067,-0.09175 -0.31206,-0.03665 -0.84437,-0.03665 l -1.43176,0 0,4.423767 1.61532,0 q 0.67916,0 1.17477,-0.165209 0.51397,-0.165196 0.84437,-0.45889 0.34876,-0.293694 0.51397,-0.697523 0.16519,-0.42219 0.16519,-0.936154 z"
       id="path3520"
       style="fill:#000000;fill-rule:nonzero" />
    <path
       d="m 505.40693,81.584598 0,0 c 0,-17.400375 14.10579,-31.506153 31.50618,-31.506153 l 0,0 c 8.35596,0 16.36966,3.319384 22.27824,9.227937 5.9085,5.908553 9.2279,13.922267 9.2279,22.278216 l 0,0 c 0,17.400375 -14.10575,31.506162 -31.50614,31.506162 l 0,0 c -17.40039,0 -31.50618,-14.105787 -31.50618,-31.506162 z"
       id="path3522"
       style="fill:#f3b33f;fill-rule:nonzero" />
    <path
       d="m 505.40693,81.584598 0,0 c 0,-17.400375 14.10579,-31.506153 31.50618,-31.506153 l 0,0 c 8.35596,0 16.36966,3.319384 22.27824,9.227937 5.9085,5.908553 9.2279,13.922267 9.2279,22.278216 l 0,0 c 0,17.400375 -14.10575,31.506162 -31.50614,31.506162 l 0,0 c -17.40039,0 -31.50618,-14.105787 -31.50618,-31.506162 z"
       id="path3524"
       style="stroke:#000000;stroke-width:2;stroke-linecap:butt;stroke-linejoin:round" />
    <path
       d="m 539.26366,86.039931 q 0,1.046278 -0.20191,1.909009 -0.20192,0.844369 -0.67917,1.450107 -0.47726,0.587387 -1.2482,0.899442 -0.77095,0.312044 -1.89065,0.312044 -0.36712,0 -0.73423,-0.0551 -0.34877,-0.0551 -0.64246,-0.146847 -0.2937,-0.07342 -0.51397,-0.165208 -0.22027,-0.09175 -0.29369,-0.165197 -0.0734,-0.09175 -0.12849,-0.165209 -0.0366,-0.09175 -0.0734,-0.22027 -0.0367,-0.146847 -0.0551,-0.348755 0,-0.22027 0,-0.532326 0,-0.403829 0.0183,-0.679161 0.0183,-0.293693 0.0551,-0.458902 0.0551,-0.165197 0.12849,-0.22027 0.0734,-0.07342 0.20191,-0.07342 0.11008,0 0.23863,0.09175 0.14685,0.07342 0.33041,0.165197 0.18356,0.07342 0.42218,0.146847 0.23863,0.07342 0.56904,0.07342 0.3304,0 0.56902,-0.07342 0.25698,-0.09175 0.40383,-0.312044 0.16521,-0.238632 0.23863,-0.605749 0.0918,-0.367117 0.0918,-0.954504 l 0,-10.719819 q 0,-0.110077 0.0734,-0.201909 0.0918,-0.09175 0.25699,-0.146847 0.18356,-0.07342 0.49561,-0.09175 0.31204,-0.03665 0.77095,-0.03665 0.45889,0 0.75258,0.03665 0.31206,0.01833 0.49561,0.09175 0.18356,0.0551 0.25699,0.146847 0.0917,0.09175 0.0917,0.201909 l 0,10.848316 z"
       id="path3526"
       style="fill:#000000;fill-rule:nonzero" />
    <path
       d="m 385.57991,122.16367 0,0 c 0,-17.40039 14.10579,-31.506181 31.50618,-31.506181 l 0,0 c 8.35596,0 16.36966,3.319396 22.27824,9.227961 5.90854,5.90854 9.22794,13.92226 9.22794,22.27822 l 0,0 c 0,17.40036 -14.10579,31.50615 -31.50618,31.50615 l 0,0 c -17.40039,0 -31.50618,-14.10579 -31.50618,-31.50615 z"
       id="path3528"
       style="fill:#69d2e7;fill-rule:nonzero" />
    <path
       d="m 385.57991,122.16367 0,0 c 0,-17.40039 14.10579,-31.506181 31.50618,-31.506181 l 0,0 c 8.35596,0 16.36966,3.319396 22.27824,9.227961 5.90854,5.90854 9.22794,13.92226 9.22794,22.27822 l 0,0 c 0,17.40036 -14.10579,31.50615 -31.50618,31.50615 l 0,0 c -17.40039,0 -31.50618,-14.10579 -31.50618,-31.50615 z"
       id="path3530"
       style="stroke:#000000;stroke-width:2;stroke-linecap:butt;stroke-linejoin:round" />
    <path
       d="m 426.12882,129.45854 q 0,0.12119 -0.0606,0.22228 -0.0607,0.0808 -0.24249,0.14146 -0.18187,0.0607 -0.46477,0.10106 -0.2829,0.0403 -0.72746,0.0403 -0.42436,0 -0.72747,-0.0403 -0.28291,-0.0403 -0.46477,-0.10106 -0.16166,-0.0607 -0.24249,-0.14146 -0.0607,-0.10106 -0.0607,-0.22228 l 0,-12.64981 -0.0201,0 -4.50624,12.6296 q -0.0403,0.16167 -0.16165,0.2627 -0.10095,0.10106 -0.28291,0.16167 -0.18187,0.0607 -0.48498,0.0808 -0.2829,0.0201 -0.68705,0.0201 -0.40414,0 -0.68704,-0.0403 -0.28291,-0.0201 -0.48499,-0.0808 -0.18186,-0.0808 -0.30311,-0.16165 -0.10095,-0.10106 -0.12119,-0.24249 l -4.34457,-12.62961 -0.0202,0 0,12.64982 q 0,0.12116 -0.0808,0.22228 -0.0607,0.0808 -0.24249,0.14145 -0.18186,0.0607 -0.46476,0.10095 -0.2829,0.0404 -0.72747,0.0404 -0.42436,0 -0.72746,-0.0404 -0.2829,-0.0403 -0.46478,-0.10095 -0.16166,-0.0607 -0.22227,-0.14145 -0.0607,-0.10106 -0.0607,-0.22228 l 0,-13.84206 q 0,-0.60622 0.32331,-0.92954 0.32332,-0.32332 0.86893,-0.32332 l 2.06114,0 q 0.5456,0 0.92954,0.10106 0.40415,0.0808 0.68705,0.28291 0.30311,0.20207 0.48498,0.54559 0.20208,0.34353 0.34353,0.8487 l 3.35442,9.25499 0.0404,0 3.49588,-9.23476 q 0.14144,-0.5052 0.32332,-0.84872 0.20207,-0.34353 0.44456,-0.5456 0.24249,-0.22227 0.56581,-0.30311 0.34352,-0.10106 0.78808,-0.10106 l 2.12178,0 q 0.32331,0 0.5658,0.0808 0.24249,0.0808 0.38394,0.24249 0.14146,0.16166 0.22229,0.40415 0.0808,0.22229 0.0808,0.52539 l 0,13.84206 z"
       id="path3532"
       style="fill:#000000;fill-rule:nonzero" />
    <path
       d="m 448.59227,32.506153 56.81466,49.078445"
       id="path3534"
       style="fill:#000000;fill-opacity:0;fill-rule:nonzero" />
    <path
       d="m 448.59223,32.506153 46.14659,39.86296"
       id="path3536"
       style="stroke:#000000;stroke-width:2;stroke-linecap:butt;stroke-linejoin:round" />
    <path
       d="m 492.2019,75.305932 10.60574,4.033307 -5.53189,-9.906933 z"
       id="path3538"
       style="fill:#000000;fill-rule:evenodd;stroke:#000000;stroke-width:2;stroke-linecap:butt" />
    <path
       d="M 448.59227,122.16367 505.40693,81.584598"
       id="path3540"
       style="fill:#000000;fill-opacity:0;fill-rule:nonzero" />
    <path
       d="M 448.59223,122.16367 493.93521,89.778111"
       id="path3542"
       style="stroke:#000000;stroke-width:2;stroke-linecap:butt;stroke-linejoin:round" />
    <path
       d="m 496.19078,92.936141 6.42107,-9.355189 -10.93221,3.039118 z"
       id="path3544"
       style="fill:#000000;fill-rule:evenodd;stroke:#000000;stroke-width:2;stroke-linecap:butt" />
    <path
       d="m 625.23402,81.584598 0,0 c 0,-17.400375 14.10576,-31.506153 31.50611,-31.506153 l 0,0 c 8.35599,0 16.36969,3.319384 22.27826,9.227937 5.90852,5.908553 9.22792,13.922267 9.22792,22.278216 l 0,0 c 0,17.400375 -14.10577,31.506162 -31.50618,31.506162 l 0,0 c -17.40035,0 -31.50611,-14.105787 -31.50611,-31.506162 z"
       id="path3546"
       style="fill:#a7dbd8;fill-rule:nonzero" />
    <path
       d="m 625.23402,81.584598 0,0 c 0,-17.400375 14.10576,-31.506153 31.50611,-31.506153 l 0,0 c 8.35599,0 16.36969,3.319384 22.27826,9.227937 5.90852,5.908553 9.22792,13.922267 9.22792,22.278216 l 0,0 c 0,17.400375 -14.10577,31.506162 -31.50618,31.506162 l 0,0 c -17.40035,0 -31.50611,-14.105787 -31.50611,-31.506162 z"
       id="path3548"
       style="stroke:#000000;stroke-width:2;stroke-linecap:butt;stroke-linejoin:round" />
    <path
       d="m 662.95839,89.968084 q 0,0.128485 -0.0551,0.22027 -0.0551,0.09175 -0.23863,0.146847 -0.1652,0.0551 -0.51397,0.07342 -0.34875,0.03665 -0.9545,0.03665 -0.51396,0 -0.82601,-0.03665 -0.29369,-0.01833 -0.47725,-0.07342 -0.16521,-0.07342 -0.23863,-0.165208 -0.0734,-0.110077 -0.11008,-0.256982 l -1.39504,-3.487613 q -0.25699,-0.587387 -0.49561,-1.046278 -0.23863,-0.458902 -0.53232,-0.752596 -0.29369,-0.312043 -0.67916,-0.45889 -0.38548,-0.165209 -0.89944,-0.165209 l -0.99122,0 0,5.928947 q 0,0.128485 -0.0734,0.220271 -0.0734,0.09175 -0.25699,0.165196 -0.18355,0.0551 -0.4956,0.09175 -0.29369,0.03665 -0.75259,0.03665 -0.45889,0 -0.77095,-0.03665 -0.31204,-0.03665 -0.4956,-0.09175 -0.18356,-0.07342 -0.25698,-0.165196 -0.0551,-0.09175 -0.0551,-0.220271 l 0,-14.152369 q 0,-0.532314 0.25698,-0.752585 0.27534,-0.238632 0.67917,-0.238632 l 4.03829,0 q 0.60574,0 0.99122,0.01833 0.40383,0.01833 0.73423,0.0551 0.93614,0.146847 1.68874,0.477252 0.75258,0.312055 1.26655,0.844369 0.53232,0.513964 0.80766,1.229848 0.29369,0.715873 0.29369,1.652027 0,0.770946 -0.20191,1.431757 -0.20192,0.642449 -0.58739,1.156413 -0.38547,0.495614 -0.9545,0.862731 -0.56904,0.367117 -1.28491,0.605737 0.34875,0.165209 0.64245,0.403829 0.31205,0.238632 0.58739,0.587388 0.27534,0.348767 0.51396,0.789307 0.23863,0.440541 0.47725,0.991216 l 1.30327,3.065422 q 0.18356,0.458902 0.23862,0.679173 0.0734,0.201908 0.0734,0.330405 z M 658.86504,79.37675 q 0,-0.770946 -0.34877,-1.28491 -0.34875,-0.532314 -1.13806,-0.752584 -0.23862,-0.0551 -0.55068,-0.09175 -0.31204,-0.03665 -0.84437,-0.03665 l -1.43175,0 0,4.423767 1.61531,0 q 0.67917,0 1.17478,-0.165209 0.51396,-0.165196 0.84437,-0.45889 0.34876,-0.293694 0.51396,-0.697523 0.16521,-0.42219 0.16521,-0.936154 z"
       id="path3550"
       style="fill:#000000;fill-rule:nonzero" />
    <path
       d="m 568.41922,81.584598 56.81473,0"
       id="path3552"
       style="fill:#000000;fill-opacity:0;fill-rule:nonzero" />
    <path
       d="m 568.41922,81.584598 42.71744,0"
       id="path3554"
       style="stroke:#000000;stroke-width:2;stroke-linecap:butt;stroke-linejoin:round" />
    <path
       d="m 611.13673,85.465431 10.66245,-3.880833 -10.66245,-3.880833 z"
       id="path3556"
       style="fill:#000000;fill-rule:evenodd;stroke:#000000;stroke-width:2;stroke-linecap:butt" />
    <path
       d="m 735.63817,81.584598 0,0 c 0,-17.400375 14.10576,-31.506153 31.50611,-31.506153 l 0,0 c 8.356,0 16.36969,3.319384 22.27827,9.227937 5.90851,5.908553 9.22791,13.922267 9.22791,22.278216 l 0,0 c 0,17.400375 -14.10577,31.506162 -31.50618,31.506162 l 0,0 c -17.40035,0 -31.50611,-14.105787 -31.50611,-31.506162 z"
       id="path3558"
       style="fill:#a7dbd8;fill-rule:nonzero" />
    <path
       d="m 735.63817,81.584598 0,0 c 0,-17.400375 14.10576,-31.506153 31.50611,-31.506153 l 0,0 c 8.356,0 16.36969,3.319384 22.27827,9.227937 5.90851,5.908553 9.22791,13.922267 9.22791,22.278216 l 0,0 c 0,17.400375 -14.10577,31.506162 -31.50618,31.506162 l 0,0 c -17.40035,0 -31.50611,-14.105787 -31.50611,-31.506162 z"
       id="path3560"
       style="stroke:#000000;stroke-width:2;stroke-linecap:butt;stroke-linejoin:round" />
    <path
       d="m 773.36254,89.968084 q 0,0.128485 -0.0551,0.22027 -0.0551,0.09175 -0.23862,0.146847 -0.16521,0.0551 -0.51396,0.07342 -0.34877,0.03665 -0.95451,0.03665 -0.51396,0 -0.82602,-0.03665 -0.29369,-0.01833 -0.47725,-0.07342 -0.1652,-0.07342 -0.23862,-0.165208 -0.0734,-0.110077 -0.11007,-0.256982 l -1.39505,-3.487613 q -0.25698,-0.587387 -0.49561,-1.046278 -0.23862,-0.458902 -0.53232,-0.752596 -0.29369,-0.312043 -0.67917,-0.45889 -0.38547,-0.165209 -0.89943,-0.165209 l -0.99122,0 0,5.928947 q 0,0.128485 -0.0734,0.220271 -0.0734,0.09175 -0.25698,0.165196 -0.18356,0.0551 -0.49562,0.09175 -0.29369,0.03665 -0.75258,0.03665 -0.4589,0 -0.77095,-0.03665 -0.31205,-0.03665 -0.49561,-0.09175 -0.18356,-0.07342 -0.25698,-0.165196 -0.0551,-0.09175 -0.0551,-0.220271 l 0,-14.152369 q 0,-0.532314 0.25698,-0.752585 0.27533,-0.238632 0.67916,-0.238632 l 4.03829,0 q 0.60575,0 0.99122,0.01833 0.40383,0.01833 0.73423,0.0551 0.93616,0.146847 1.68874,0.477252 0.7526,0.312055 1.26656,0.844369 0.53231,0.513964 0.80766,1.229848 0.29369,0.715873 0.29369,1.652027 0,0.770946 -0.20192,1.431757 -0.20191,0.642449 -0.58739,1.156413 -0.38546,0.495614 -0.9545,0.862731 -0.56903,0.367117 -1.28491,0.605737 0.34877,0.165209 0.64246,0.403829 0.31204,0.238632 0.58739,0.587388 0.27533,0.348767 0.51396,0.789307 0.23862,0.440541 0.47725,0.991216 l 1.30326,3.065422 q 0.18356,0.458902 0.23864,0.679173 0.0734,0.201908 0.0734,0.330405 z M 769.26918,79.37675 q 0,-0.770946 -0.34876,-1.28491 -0.34877,-0.532314 -1.13806,-0.752584 -0.23863,-0.0551 -0.55068,-0.09175 -0.31205,-0.03665 -0.84437,-0.03665 l -1.43175,0 0,4.423767 1.61531,0 q 0.67916,0 1.17478,-0.165209 0.51396,-0.165196 0.84437,-0.45889 0.34875,-0.293694 0.51396,-0.697523 0.1652,-0.42219 0.1652,-0.936154 z"
       id="path3562"
       style="fill:#000000;fill-rule:nonzero" />
    <path
       d="m 688.24624,81.584598 47.39187,0"
       id="path3564"
       style="fill:#000000;fill-opacity:0;fill-rule:nonzero" />
    <path
       d="m 688.24624,81.584598 33.29458,0"
       id="path3566"
       style="stroke:#000000;stroke-width:2;stroke-linecap:butt;stroke-linejoin:round" />
    <path
       d="m 721.54088,85.465431 10.66245,-3.880833 -10.66245,-3.880833 z"
       id="path3568"
       style="fill:#000000;fill-rule:evenodd;stroke:#000000;stroke-width:2;stroke-linecap:butt" />
    <path
       d="m 656.74007,50.078445 0,-35.668756"
       id="path3570"
       style="fill:#000000;fill-opacity:0;fill-rule:nonzero" />
    <path
       d="m 656.74007,50.078445 0,-35.668756"
       id="path3572"
       style="stroke:#000000;stroke-width:2;stroke-linecap:butt;stroke-linejoin:round" />
    <path
       d="m 537.20909,15.297712 -0.29598,34.780733"
       id="path3574"
       style="fill:#000000;fill-opacity:0;fill-rule:nonzero" />
    <path
       d="m 537.20909,15.297712 -0.17602,20.683941"
       id="path3576"
       style="stroke:#000000;stroke-width:2;stroke-linecap:butt;stroke-linejoin:round" />
    <path
       d="m 533.15239,35.948631 3.78994,10.695125 3.97143,-10.62908 z"
       id="path3578"
       style="fill:#000000;fill-rule:evenodd;stroke:#000000;stroke-width:2;stroke-linecap:butt" />
    <path
       d="m 657.60964,16.204227 -121.58455,0"
       id="path3580"
       style="fill:#000000;fill-opacity:0;fill-rule:nonzero" />
    <path
       d="m 657.60964,16.204227 -121.58455,0"
       id="path3582"
       style="stroke:#000000;stroke-width:2;stroke-linecap:butt;stroke-linejoin:round" />
  </g>
</svg>
