<?xml version="1.0" standalone="yes"?>

<svg version="1.1" viewBox="0.0 0.0 922.0 238.0" fill="none" stroke="none" stroke-linecap="square" stroke-miterlimit="10" xmlns="http://www.w3.org/2000/svg" xmlns:xlink="http://www.w3.org/1999/xlink"><clipPath id="p.0"><path d="m0 0l922.0 0l0 238.0l-922.0 0l0 -238.0z" clip-rule="nonzero"></path></clipPath><g clip-path="url(#p.0)"><path fill="#000000" fill-opacity="0.0" d="m0 0l922.7008 0l0 238.51706l-922.7008 0z" fill-rule="nonzero"></path><path fill="#69d2e7" d="m43.632545 48.535656l0 0c0 -6.1230927 4.963745 -11.086838 11.086838 -11.086838l81.1964 0c2.9404144 0 5.760391 1.1680756 7.8395844 3.247261c2.0791779 2.0791855 3.2472534 4.8991623 3.2472534 7.8395767l0 44.346012c0 6.1230927 -4.963745 11.086838 -11.086838 11.086838l-81.1964 0c-6.1230927 0 -11.086838 -4.963745 -11.086838 -11.086838z" fill-rule="nonzero"></path><path stroke="#000000" stroke-width="2.0" stroke-linejoin="round" stroke-linecap="butt" d="m43.632545 48.535656l0 0c0 -6.1230927 4.963745 -11.086838 11.086838 -11.086838l81.1964 0c2.9404144 0 5.760391 1.1680756 7.8395844 3.247261c2.0791779 2.0791855 3.2472534 4.8991623 3.2472534 7.8395767l0 44.346012c0 6.1230927 -4.963745 11.086838 -11.086838 11.086838l-81.1964 0c-6.1230927 0 -11.086838 -4.963745 -11.086838 -11.086838z" fill-rule="nonzero"></path><path fill="#000000" d="m91.499466 77.84491q0 0.09375 -0.0625 0.171875q-0.0625 0.078125 -0.203125 0.140625q-0.140625 0.046875 -0.390625 0.0625q-0.25 0.03125 -0.625 0.03125q-0.390625 0 -0.640625 -0.03125q-0.25 -0.015625 -0.40625 -0.0625q-0.140625 -0.0625 -0.203125 -0.140625q-0.046875 -0.078125 -0.046875 -0.171875l0 -5.421875q0 -0.46875 -0.09375 -0.84375q-0.078125 -0.390625 -0.265625 -0.65625q-0.171875 -0.265625 -0.453125 -0.40625q-0.265625 -0.15625 -0.640625 -0.15625q-0.46875 0 -0.9375 0.359375q-0.46875 0.359375 -1.015625 1.046875l0 6.078125q0 0.09375 -0.0625 0.171875q-0.0625 0.078125 -0.21875 0.140625q-0.140625 0.046875 -0.390625 0.0625q-0.25 0.03125 -0.609375 0.03125q-0.390625 0 -0.640625 -0.03125q-0.234375 -0.015625 -0.390625 -0.0625q-0.140625 -0.0625 -0.203125 -0.140625q-0.0625 -0.078125 -0.0625 -0.171875l0 -5.421875q0 -0.46875 -0.09375 -0.84375q-0.078125 -0.390625 -0.265625 -0.65625q-0.171875 -0.265625 -0.453125 -0.40625q-0.265625 -0.15625 -0.640625 -0.15625q-0.46875 0 -0.9375 0.359375q-0.46875 0.359375 -1.015625 1.046875l0 6.078125q0 0.09375 -0.0625 0.171875q-0.0625 0.078125 -0.21875 0.140625q-0.140625 0.046875 -0.390625 0.0625q-0.234375 0.03125 -0.625 0.03125q-0.375 0 -0.625 -0.03125q-0.234375 -0.015625 -0.390625 -0.0625q-0.140625 -0.0625 -0.203125 -0.140625q-0.0625 -0.078125 -0.0625 -0.171875l0 -9.15625q0 -0.09375 0.046875 -0.171875q0.046875 -0.078125 0.171875 -0.125q0.140625 -0.0625 0.34375 -0.078125q0.21875 -0.03125 0.546875 -0.03125q0.328125 0 0.53125 0.03125q0.21875 0.015625 0.328125 0.078125q0.125 0.046875 0.171875 0.125q0.0625 0.078125 0.0625 0.171875l0 1.0625q0.75 -0.828125 1.5 -1.234375q0.765625 -0.40625 1.578125 -0.40625q0.5625 0 1.015625 0.125q0.453125 0.109375 0.796875 0.328125q0.359375 0.21875 0.609375 0.53125q0.265625 0.3125 0.4375 0.6875q0.421875 -0.4375 0.8125 -0.75q0.390625 -0.328125 0.765625 -0.53125q0.390625 -0.203125 0.78125 -0.296875q0.390625 -0.09375 0.78125 -0.09375q0.921875 0 1.546875 0.3125q0.625 0.296875 1.0 0.828125q0.390625 0.53125 0.546875 1.234375q0.171875 0.703125 0.171875 1.5l0 5.859375zm10.584305 0.03125q0 0.140625 -0.109375 0.21875q-0.09375 0.078125 -0.3125 0.109375q-0.21875 0.046875 -0.640625 0.046875q-0.46875 0 -0.6875 -0.046875q-0.203125 -0.03125 -0.296875 -0.109375q-0.078125 -0.078125 -0.078125 -0.21875l0 -0.734375q-0.5625 0.609375 -1.296875 0.953125q-0.71875 0.328125 -1.59375 0.328125q-0.734375 0 -1.34375 -0.1875q-0.609375 -0.1875 -1.0625 -0.5625q-0.4375 -0.375 -0.6875 -0.921875q-0.234375 -0.5625 -0.234375 -1.296875q0 -0.796875 0.3125 -1.390625q0.3125 -0.59375 0.921875 -0.96875q0.625 -0.390625 1.546875 -0.578125q0.921875 -0.1875 2.140625 -0.1875l0.890625 0l0 -0.546875q0 -0.4375 -0.09375 -0.75q-0.078125 -0.328125 -0.28125 -0.546875q-0.1875 -0.21875 -0.53125 -0.3125q-0.328125 -0.109375 -0.828125 -0.109375q-0.640625 0 -1.15625 0.15625q-0.5 0.140625 -0.890625 0.3125q-0.390625 0.171875 -0.65625 0.3125q-0.25 0.140625 -0.421875 0.140625q-0.109375 0 -0.203125 -0.0625q-0.078125 -0.078125 -0.140625 -0.203125q-0.046875 -0.140625 -0.078125 -0.328125q-0.03125 -0.203125 -0.03125 -0.4375q0 -0.3125 0.046875 -0.5q0.046875 -0.1875 0.1875 -0.328125q0.15625 -0.15625 0.515625 -0.328125q0.359375 -0.1875 0.828125 -0.34375q0.484375 -0.15625 1.046875 -0.25q0.578125 -0.09375 1.1875 -0.09375q1.078125 0 1.84375 0.21875q0.765625 0.203125 1.25 0.640625q0.5 0.4375 0.71875 1.125q0.21875 0.6875 0.21875 1.625l0 6.15625zm-2.53125 -3.921875l-0.984375 0q-0.625 0 -1.0625 0.09375q-0.4375 0.09375 -0.71875 0.28125q-0.28125 0.171875 -0.40625 0.4375q-0.125 0.265625 -0.125 0.609375q0 0.5625 0.359375 0.890625q0.375 0.328125 1.015625 0.328125q0.546875 0 1.0 -0.265625q0.453125 -0.28125 0.921875 -0.8125l0 -1.5625zm14.481804 -0.828125q0 1.234375 -0.265625 2.21875q-0.25 0.96875 -0.765625 1.65625q-0.5 0.6875 -1.25 1.0625q-0.75 0.359375 -1.7031174 0.359375q-0.40625 0 -0.75 -0.078125q-0.328125 -0.078125 -0.640625 -0.234375q-0.3125 -0.15625 -0.625 -0.390625q-0.296875 -0.234375 -0.625 -0.5625l0 4.3125q0 0.109375 -0.0625 0.1875q-0.0625 0.078125 -0.21875 0.125q-0.140625 0.0625 -0.390625 0.09375q-0.234375 0.03125 -0.625 0.03125q-0.375 0 -0.625 -0.03125q-0.234375 -0.03125 -0.390625 -0.09375q-0.140625 -0.046875 -0.203125 -0.125q-0.0625 -0.078125 -0.0625 -0.1875l0 -12.78125q0 -0.09375 0.046875 -0.171875q0.046875 -0.078125 0.171875 -0.125q0.140625 -0.0625 0.34375 -0.078125q0.21875 -0.03125 0.53125 -0.03125q0.3125 0 0.515625 0.03125q0.21875 0.015625 0.34375 0.078125q0.125 0.046875 0.171875 0.125q0.046875 0.078125 0.046875 0.171875l0 1.078125q0.40625 -0.40625 0.78125 -0.71875q0.390625 -0.3125 0.78125 -0.515625q0.40625 -0.21875 0.828125 -0.3125q0.4375 -0.109375 0.921875 -0.109375q0.9999924 0 1.7031174 0.390625q0.71875 0.390625 1.15625 1.078125q0.453125 0.6875 0.65625 1.609375q0.203125 0.90625 0.203125 1.9375zm-2.6875 0.1875q0 -0.578125 -0.09375 -1.109375q-0.078125 -0.546875 -0.296875 -0.96875q-0.20311737 -0.421875 -0.5468674 -0.671875q-0.34375 -0.25 -0.859375 -0.25q-0.25 0 -0.5 0.078125q-0.25 0.078125 -0.515625 0.25q-0.265625 0.171875 -0.546875 0.453125q-0.265625 0.28125 -0.578125 0.6875l0 3.015625q0.546875 0.6875 1.03125 1.0625q0.5 0.375 1.03125 0.375q0.5 0 0.84375 -0.25q0.359375 -0.265625 0.5781174 -0.671875q0.234375 -0.421875 0.34375 -0.9375q0.109375 -0.53125 0.109375 -1.0625z" fill-rule="nonzero"></path><path fill="#e0e4cc" d="m644.1496 47.624893l0 0c0 -6.123089 4.963745 -11.086834 11.086853 -11.086834l81.19641 0c2.9404297 0 5.760376 1.1680717 7.8395386 3.2472572c2.0792236 2.0791855 3.2473145 4.899166 3.2473145 7.8395767l0 44.346016c0 6.123085 -4.963745 11.08683 -11.086853 11.08683l-81.19641 0c-6.123108 0 -11.086853 -4.963745 -11.086853 -11.08683z" fill-rule="nonzero"></path><path stroke="#000000" stroke-width="2.0" stroke-linejoin="round" stroke-linecap="butt" d="m644.1496 47.624893l0 0c0 -6.123089 4.963745 -11.086834 11.086853 -11.086834l81.19641 0c2.9404297 0 5.760376 1.1680717 7.8395386 3.2472572c2.0792236 2.0791855 3.2473145 4.899166 3.2473145 7.8395767l0 44.346016c0 6.123085 -4.963745 11.08683 -11.086853 11.08683l-81.19641 0c-6.123108 0 -11.086853 -4.963745 -11.086853 -11.08683z" fill-rule="nonzero"></path><path fill="#000000" d="m681.5589 75.4654q0 0.28125 -0.015625 0.46875q-0.015625 0.171875 -0.046875 0.296875q-0.03125 0.109375 -0.0625 0.1875q-0.03125 0.078125 -0.15625 0.203125q-0.125 0.109375 -0.421875 0.28125q-0.296875 0.171875 -0.6875 0.3125q-0.375 0.125 -0.828125 0.203125q-0.4375 0.078125 -0.90625 0.078125q-1.046875 0 -1.875 -0.328125q-0.8125 -0.328125 -1.375 -0.96875q-0.546875 -0.640625 -0.828125 -1.5625q-0.28125 -0.921875 -0.28125 -2.109375q0 -1.375 0.34375 -2.375q0.34375 -1.0 0.953125 -1.65625q0.625 -0.65625 1.46875 -0.96875q0.84375 -0.3125 1.84375 -0.3125q0.40625 0 0.796875 0.078125q0.40625 0.0625 0.75 0.1875q0.34375 0.109375 0.609375 0.265625q0.265625 0.15625 0.375 0.28125q0.125 0.109375 0.171875 0.1875q0.046875 0.0625 0.0625 0.1875q0.03125 0.125 0.046875 0.3125q0.015625 0.171875 0.015625 0.4375q0 0.59375 -0.109375 0.828125q-0.09375 0.234375 -0.265625 0.234375q-0.171875 0 -0.375 -0.140625q-0.1875 -0.140625 -0.453125 -0.3125q-0.265625 -0.171875 -0.640625 -0.3125q-0.359375 -0.15625 -0.875 -0.15625q-1.0 0 -1.53125 0.78125q-0.53125 0.78125 -0.53125 2.265625q0 0.75 0.125 1.3125q0.140625 0.5625 0.390625 0.9375q0.265625 0.375 0.65625 0.578125q0.40625 0.1875 0.921875 0.1875q0.53125 0 0.90625 -0.15625q0.390625 -0.171875 0.671875 -0.359375q0.296875 -0.203125 0.484375 -0.359375q0.203125 -0.15625 0.34375 -0.15625q0.09375 0 0.140625 0.0625q0.0625 0.046875 0.09375 0.1875q0.046875 0.125 0.0625 0.34375q0.03125 0.21875 0.03125 0.546875zm7.8779907 -6.828125q0 0.359375 -0.03125 0.609375q-0.015625 0.234375 -0.0625 0.375q-0.03125 0.125 -0.109375 0.171875q-0.0625 0.046875 -0.15625 0.046875q-0.078125 0 -0.1875 -0.03125q-0.109375 -0.03125 -0.234375 -0.078125q-0.125 -0.046875 -0.28125 -0.078125q-0.15625 -0.03125 -0.34375 -0.03125q-0.203125 0 -0.421875 0.09375q-0.21875 0.078125 -0.453125 0.265625q-0.21875 0.1875 -0.484375 0.5q-0.25 0.296875 -0.53125 0.75l0 5.703125q0 0.09375 -0.0625 0.171875q-0.0625 0.078125 -0.21875 0.140625q-0.140625 0.046875 -0.390625 0.0625q-0.234375 0.03125 -0.625 0.03125q-0.375 0 -0.625 -0.03125q-0.234375 -0.015625 -0.390625 -0.0625q-0.140625 -0.0625 -0.203125 -0.140625q-0.0625 -0.078125 -0.0625 -0.171875l0 -9.15625q0 -0.09375 0.046875 -0.171875q0.046875 -0.078125 0.171875 -0.125q0.140625 -0.0625 0.34375 -0.078125q0.21875 -0.03125 0.546875 -0.03125q0.328125 0 0.53125 0.03125q0.21875 0.015625 0.328125 0.078125q0.125 0.046875 0.171875 0.125q0.0625 0.078125 0.0625 0.171875l0 1.140625q0.359375 -0.515625 0.671875 -0.84375q0.3125 -0.328125 0.59375 -0.515625q0.296875 -0.203125 0.578125 -0.28125q0.296875 -0.078125 0.578125 -0.078125q0.140625 0 0.296875 0.015625q0.15625 0.015625 0.3125 0.046875q0.171875 0.03125 0.28125 0.078125q0.125 0.046875 0.1875 0.109375q0.0625 0.046875 0.078125 0.109375q0.03125 0.0625 0.046875 0.171875q0.015625 0.109375 0.03125 0.328125q0.015625 0.203125 0.015625 0.578125zm10.956482 3.625q0 1.171875 -0.3125 2.140625q-0.3125 0.953125 -0.9375 1.65625q-0.625 0.703125 -1.578125 1.078125q-0.9375 0.375 -2.1875 0.375q-1.21875 0 -2.125 -0.328125q-0.90625 -0.34375 -1.5 -0.984375q-0.59375 -0.65625 -0.890625 -1.59375q-0.28125 -0.953125 -0.28125 -2.15625q0 -1.171875 0.3125 -2.140625q0.3125 -0.96875 0.9375 -1.65625q0.625 -0.703125 1.5625 -1.078125q0.9375 -0.375 2.203125 -0.375q1.234375 0 2.125 0.34375q0.90625 0.328125 1.5 0.96875q0.59375 0.640625 0.875 1.59375q0.296875 0.9375 0.296875 2.15625zm-2.65625 0.109375q0 -0.6875 -0.109375 -1.25q-0.109375 -0.578125 -0.375 -0.984375q-0.25 -0.421875 -0.671875 -0.65625q-0.421875 -0.25 -1.078125 -0.25q-0.5625 0 -1.0 0.21875q-0.4375 0.203125 -0.71875 0.609375q-0.265625 0.40625 -0.40625 0.984375q-0.140625 0.5625 -0.140625 1.296875q0 0.671875 0.109375 1.25q0.125 0.5625 0.375 0.984375q0.25 0.421875 0.671875 0.65625q0.4375 0.21875 1.078125 0.21875q0.578125 0 1.0 -0.203125q0.4375 -0.21875 0.71875 -0.609375q0.28125 -0.40625 0.40625 -0.96875q0.140625 -0.578125 0.140625 -1.296875zm11.309753 1.96875q0 0.78125 -0.296875 1.375q-0.296875 0.59375 -0.828125 1.0q-0.53125 0.390625 -1.265625 0.59375q-0.71875 0.203125 -1.5625 0.203125q-0.515625 0 -0.984375 -0.078125q-0.46875 -0.078125 -0.84375 -0.1875q-0.359375 -0.125 -0.609375 -0.25q-0.25 -0.125 -0.359375 -0.21875q-0.109375 -0.109375 -0.171875 -0.34375q-0.0625 -0.234375 -0.0625 -0.6875q0 -0.296875 0.015625 -0.46875q0.03125 -0.1875 0.0625 -0.296875q0.046875 -0.109375 0.109375 -0.140625q0.0625 -0.03125 0.15625 -0.03125q0.109375 0 0.328125 0.125q0.21875 0.125 0.546875 0.28125q0.328125 0.15625 0.765625 0.296875q0.4375 0.125 0.984375 0.125q0.359375 0 0.625 -0.0625q0.265625 -0.078125 0.46875 -0.203125q0.203125 -0.140625 0.296875 -0.34375q0.109375 -0.21875 0.109375 -0.484375q0 -0.296875 -0.1875 -0.515625q-0.1875 -0.21875 -0.5 -0.375q-0.3125 -0.171875 -0.71875 -0.3125q-0.390625 -0.15625 -0.8125 -0.328125q-0.40625 -0.171875 -0.796875 -0.390625q-0.390625 -0.234375 -0.71875 -0.5625q-0.3125 -0.328125 -0.5 -0.78125q-0.1875 -0.46875 -0.1875 -1.109375q0 -0.65625 0.25 -1.203125q0.265625 -0.5625 0.75 -0.953125q0.484375 -0.390625 1.171875 -0.59375q0.6875 -0.21875 1.546875 -0.21875q0.4375 0 0.84375 0.0625q0.40625 0.0625 0.734375 0.15625q0.328125 0.09375 0.546875 0.203125q0.234375 0.09375 0.328125 0.171875q0.09375 0.078125 0.125 0.15625q0.046875 0.078125 0.0625 0.1875q0.03125 0.109375 0.046875 0.265625q0.015625 0.15625 0.015625 0.390625q0 0.28125 -0.015625 0.453125q-0.015625 0.171875 -0.0625 0.28125q-0.03125 0.09375 -0.09375 0.140625q-0.046875 0.03125 -0.140625 0.03125q-0.09375 0 -0.296875 -0.109375q-0.1875 -0.109375 -0.484375 -0.234375q-0.28125 -0.125 -0.671875 -0.21875q-0.375 -0.109375 -0.875 -0.109375q-0.34375 0 -0.609375 0.078125q-0.25 0.0625 -0.421875 0.203125q-0.15625 0.125 -0.234375 0.3125q-0.078125 0.171875 -0.078125 0.375q0 0.3125 0.1875 0.53125q0.203125 0.21875 0.515625 0.390625q0.3125 0.15625 0.71875 0.296875q0.40625 0.140625 0.8125 0.3125q0.421875 0.171875 0.828125 0.40625q0.40625 0.21875 0.71875 0.546875q0.328125 0.328125 0.515625 0.78125q0.203125 0.453125 0.203125 1.078125zm8.508301 0q0 0.78125 -0.296875 1.375q-0.296875 0.59375 -0.828125 1.0q-0.53125 0.390625 -1.265625 0.59375q-0.71875 0.203125 -1.5625 0.203125q-0.515625 0 -0.984375 -0.078125q-0.46875 -0.078125 -0.84375 -0.1875q-0.359375 -0.125 -0.609375 -0.25q-0.25 -0.125 -0.359375 -0.21875q-0.109375 -0.109375 -0.171875 -0.34375q-0.0625 -0.234375 -0.0625 -0.6875q0 -0.296875 0.015625 -0.46875q0.03125 -0.1875 0.0625 -0.296875q0.046875 -0.109375 0.109375 -0.140625q0.0625 -0.03125 0.15625 -0.03125q0.109375 0 0.328125 0.125q0.21875 0.125 0.546875 0.28125q0.328125 0.15625 0.765625 0.296875q0.4375 0.125 0.984375 0.125q0.359375 0 0.625 -0.0625q0.265625 -0.078125 0.46875 -0.203125q0.203125 -0.140625 0.296875 -0.34375q0.109375 -0.21875 0.109375 -0.484375q0 -0.296875 -0.1875 -0.515625q-0.1875 -0.21875 -0.5 -0.375q-0.3125 -0.171875 -0.71875 -0.3125q-0.390625 -0.15625 -0.8125 -0.328125q-0.40625 -0.171875 -0.796875 -0.390625q-0.390625 -0.234375 -0.71875 -0.5625q-0.3125 -0.328125 -0.5 -0.78125q-0.1875 -0.46875 -0.1875 -1.109375q0 -0.65625 0.25 -1.203125q0.265625 -0.5625 0.75 -0.953125q0.484375 -0.390625 1.171875 -0.59375q0.6875 -0.21875 1.546875 -0.21875q0.4375 0 0.84375 0.0625q0.40625 0.0625 0.734375 0.15625q0.328125 0.09375 0.546875 0.203125q0.234375 0.09375 0.328125 0.171875q0.09375 0.078125 0.125 0.15625q0.046875 0.078125 0.0625 0.1875q0.03125 0.109375 0.046875 0.265625q0.015625 0.15625 0.015625 0.390625q0 0.28125 -0.015625 0.453125q-0.015625 0.171875 -0.0625 0.28125q-0.03125 0.09375 -0.09375 0.140625q-0.046875 0.03125 -0.140625 0.03125q-0.09375 0 -0.296875 -0.109375q-0.1875 -0.109375 -0.484375 -0.234375q-0.28125 -0.125 -0.671875 -0.21875q-0.375 -0.109375 -0.875 -0.109375q-0.34375 0 -0.609375 0.078125q-0.25 0.0625 -0.421875 0.203125q-0.15625 0.125 -0.234375 0.3125q-0.078125 0.171875 -0.078125 0.375q0 0.3125 0.1875 0.53125q0.203125 0.21875 0.515625 0.390625q0.3125 0.15625 0.71875 0.296875q0.40625 0.140625 0.8125 0.3125q0.421875 0.171875 0.828125 0.40625q0.40625 0.21875 0.71875 0.546875q0.328125 0.328125 0.515625 0.78125q0.203125 0.453125 0.203125 1.078125z" fill-rule="nonzero"></path><path fill="#f3b33f" d="m529.3989 49.446415l0 0c0 -6.123089 4.963745 -11.086834 11.086853 -11.086834l81.19641 0c2.9404297 0 5.760376 1.1680717 7.8395996 3.2472572c2.0791626 2.0791855 3.2472534 4.899166 3.2472534 7.8395767l0 44.346012c0 6.1230927 -4.963745 11.086838 -11.086853 11.086838l-81.19641 0c-6.123108 0 -11.086853 -4.963745 -11.086853 -11.086838z" fill-rule="nonzero"></path><path stroke="#000000" stroke-width="2.0" stroke-linejoin="round" stroke-linecap="butt" d="m529.3989 49.446415l0 0c0 -6.123089 4.963745 -11.086834 11.086853 -11.086834l81.19641 0c2.9404297 0 5.760376 1.1680717 7.8395996 3.2472572c2.0791626 2.0791855 3.2472534 4.899166 3.2472534 7.8395767l0 44.346012c0 6.1230927 -4.963745 11.086838 -11.086853 11.086838l-81.19641 0c-6.123108 0 -11.086853 -4.963745 -11.086853 -11.086838z" fill-rule="nonzero"></path><path fill="#000000" d="m568.36414 79.05254q0 1.078125 -0.1875 1.75q-0.1875 0.671875 -0.5625 1.125q-0.375 0.453125 -0.9375 0.6875q-0.5625 0.234375 -1.328125 0.234375q-0.421875 0 -0.71875 -0.0625q-0.296875 -0.0625 -0.421875 -0.125q-0.140625 -0.0625 -0.1875 -0.15625q-0.046875 -0.078125 -0.0625 -0.203125q-0.03125 -0.109375 -0.03125 -0.265625q-0.015625 -0.140625 -0.015625 -0.390625q0 -0.28125 0.015625 -0.46875q0.015625 -0.1875 0.0625 -0.3125q0.03125 -0.109375 0.078125 -0.15625q0.046875 -0.046875 0.140625 -0.046875q0.046875 0 0.203125 0.015625q0.15625 0.03125 0.34375 0.03125q0.265625 0 0.453125 -0.078125q0.203125 -0.078125 0.328125 -0.265625q0.125 -0.171875 0.1875 -0.46875q0.0625 -0.28125 0.0625 -0.890625l0 -9.375q0 -0.109375 0.0625 -0.1875q0.0625 -0.078125 0.203125 -0.125q0.140625 -0.0625 0.390625 -0.09375q0.25 -0.03125 0.625 -0.03125q0.375 0 0.625 0.03125q0.25 0.03125 0.390625 0.09375q0.15625 0.046875 0.21875 0.125q0.0625 0.078125 0.0625 0.1875l0 9.421875zm0.1875 -12.546875q0 0.78125 -0.3125 1.078125q-0.3125 0.296875 -1.1875 0.296875q-0.859375 0 -1.171875 -0.28125q-0.296875 -0.296875 -0.296875 -1.046875q0 -0.765625 0.3125 -1.0625q0.3125 -0.3125 1.1875 -0.3125q0.859375 0 1.15625 0.296875q0.3125 0.28125 0.3125 1.03125zm11.727844 7.578125q0 1.171875 -0.3125 2.140625q-0.3125 0.953125 -0.9375 1.65625q-0.625 0.703125 -1.578125 1.078125q-0.9375 0.375 -2.1875 0.375q-1.21875 0 -2.125 -0.328125q-0.90625 -0.34375 -1.5 -0.984375q-0.59375 -0.65625 -0.890625 -1.59375q-0.28125 -0.953125 -0.28125 -2.15625q0 -1.171875 0.3125 -2.140625q0.3125 -0.96875 0.9375 -1.65625q0.625 -0.703125 1.5625 -1.078125q0.9375 -0.375 2.203125 -0.375q1.234375 0 2.125 0.34375q0.90625 0.328125 1.5 0.96875q0.59375 0.640625 0.875 1.59375q0.296875 0.9375 0.296875 2.15625zm-2.65625 0.109375q0 -0.6875 -0.109375 -1.25q-0.109375 -0.578125 -0.375 -0.984375q-0.25 -0.421875 -0.671875 -0.65625q-0.421875 -0.25 -1.078125 -0.25q-0.5625 0 -1.0 0.21875q-0.4375 0.203125 -0.71875 0.609375q-0.265625 0.40625 -0.40625 0.984375q-0.140625 0.5625 -0.140625 1.296875q0 0.671875 0.109375 1.25q0.125 0.5625 0.375 0.984375q0.25 0.421875 0.671875 0.65625q0.4375 0.21875 1.078125 0.21875q0.578125 0 1.0 -0.203125q0.4375 -0.21875 0.71875 -0.609375q0.28125 -0.40625 0.40625 -0.96875q0.140625 -0.578125 0.140625 -1.296875zm7.4503174 4.5625q0 0.09375 -0.0625 0.171875q-0.0625 0.078125 -0.21875 0.140625q-0.140625 0.046875 -0.390625 0.0625q-0.234375 0.03125 -0.625 0.03125q-0.375 0 -0.625 -0.03125q-0.234375 -0.015625 -0.390625 -0.0625q-0.140625 -0.0625 -0.203125 -0.140625q-0.0625 -0.078125 -0.0625 -0.171875l0 -9.125q0 -0.109375 0.0625 -0.1875q0.0625 -0.078125 0.203125 -0.125q0.15625 -0.0625 0.390625 -0.09375q0.25 -0.03125 0.625 -0.03125q0.390625 0 0.625 0.03125q0.25 0.03125 0.390625 0.09375q0.15625 0.046875 0.21875 0.125q0.0625 0.078125 0.0625 0.1875l0 9.125zm0.203125 -12.25q0 0.78125 -0.328125 1.078125q-0.3125 0.296875 -1.171875 0.296875q-0.875 0 -1.1875 -0.28125q-0.296875 -0.296875 -0.296875 -1.046875q0 -0.765625 0.3125 -1.0625q0.3125 -0.3125 1.1875 -0.3125q0.859375 0 1.171875 0.296875q0.3125 0.28125 0.3125 1.03125zm11.191406 12.25q0 0.09375 -0.0625 0.171875q-0.0625 0.078125 -0.203125 0.140625q-0.140625 0.046875 -0.40625 0.0625q-0.25 0.03125 -0.609375 0.03125q-0.375 0 -0.640625 -0.03125q-0.25 -0.015625 -0.390625 -0.0625q-0.140625 -0.0625 -0.203125 -0.140625q-0.0625 -0.078125 -0.0625 -0.171875l0 -5.21875q0 -0.671875 -0.09375 -1.046875q-0.09375 -0.390625 -0.28125 -0.65625q-0.1875 -0.265625 -0.484375 -0.40625q-0.28125 -0.15625 -0.671875 -0.15625q-0.5 0 -1.0 0.359375q-0.5 0.359375 -1.046875 1.046875l0 6.078125q0 0.09375 -0.0625 0.171875q-0.0625 0.078125 -0.21875 0.140625q-0.140625 0.046875 -0.390625 0.0625q-0.234375 0.03125 -0.625 0.03125q-0.375 0 -0.625 -0.03125q-0.234375 -0.015625 -0.390625 -0.0625q-0.140625 -0.0625 -0.203125 -0.140625q-0.0625 -0.078125 -0.0625 -0.171875l0 -9.15625q0 -0.09375 0.046875 -0.171875q0.046875 -0.078125 0.171875 -0.125q0.140625 -0.0625 0.34375 -0.078125q0.21875 -0.03125 0.546875 -0.03125q0.328125 0 0.53125 0.03125q0.21875 0.015625 0.328125 0.078125q0.125 0.046875 0.171875 0.125q0.0625 0.078125 0.0625 0.171875l0 1.0625q0.75 -0.828125 1.53125 -1.234375q0.796875 -0.40625 1.640625 -0.40625q0.9375 0 1.578125 0.3125q0.640625 0.296875 1.03125 0.828125q0.40625 0.53125 0.578125 1.234375q0.171875 0.703125 0.171875 1.703125l0 5.65625z" fill-rule="nonzero"></path><path fill="#f3de4a" d="m758.90027 47.624893l0 0c0 -6.123089 4.963745 -11.086834 11.086853 -11.086834l81.19641 0c2.9403687 0 5.760376 1.1680717 7.8395386 3.2472572c2.0792236 2.0791855 3.2472534 4.899166 3.2472534 7.8395767l0 44.346016c0 6.123085 -4.963745 11.08683 -11.086792 11.08683l-81.19641 0c-6.123108 0 -11.086853 -4.963745 -11.086853 -11.08683z" fill-rule="nonzero"></path><path stroke="#000000" stroke-width="2.0" stroke-linejoin="round" stroke-linecap="butt" d="m758.90027 47.624893l0 0c0 -6.123089 4.963745 -11.086834 11.086853 -11.086834l81.19641 0c2.9403687 0 5.760376 1.1680717 7.8395386 3.2472572c2.0792236 2.0791855 3.2472534 4.899166 3.2472534 7.8395767l0 44.346016c0 6.123085 -4.963745 11.08683 -11.086792 11.08683l-81.19641 0c-6.123108 0 -11.086853 -4.963745 -11.086853 -11.08683z" fill-rule="nonzero"></path><path fill="#000000" d="m782.5837 75.4654q0 0.28125 -0.015625 0.46875q-0.015625 0.171875 -0.046875 0.296875q-0.03125 0.109375 -0.0625 0.1875q-0.03125 0.078125 -0.15625 0.203125q-0.125 0.109375 -0.421875 0.28125q-0.296875 0.171875 -0.6875 0.3125q-0.375 0.125 -0.828125 0.203125q-0.4375 0.078125 -0.90625 0.078125q-1.046875 0 -1.875 -0.328125q-0.8125 -0.328125 -1.375 -0.96875q-0.546875 -0.640625 -0.828125 -1.5625q-0.28125 -0.921875 -0.28125 -2.109375q0 -1.375 0.34375 -2.375q0.34375 -1.0 0.953125 -1.65625q0.625 -0.65625 1.46875 -0.96875q0.84375 -0.3125 1.84375 -0.3125q0.40625 0 0.796875 0.078125q0.40625 0.0625 0.75 0.1875q0.34375 0.109375 0.609375 0.265625q0.265625 0.15625 0.375 0.28125q0.125 0.109375 0.171875 0.1875q0.046875 0.0625 0.0625 0.1875q0.03125 0.125 0.046875 0.3125q0.015625 0.171875 0.015625 0.4375q0 0.59375 -0.109375 0.828125q-0.09375 0.234375 -0.265625 0.234375q-0.171875 0 -0.375 -0.140625q-0.1875 -0.140625 -0.453125 -0.3125q-0.265625 -0.171875 -0.640625 -0.3125q-0.359375 -0.15625 -0.875 -0.15625q-1.0 0 -1.53125 0.78125q-0.53125 0.78125 -0.53125 2.265625q0 0.75 0.125 1.3125q0.140625 0.5625 0.390625 0.9375q0.265625 0.375 0.65625 0.578125q0.40625 0.1875 0.921875 0.1875q0.53125 0 0.90625 -0.15625q0.390625 -0.171875 0.671875 -0.359375q0.296875 -0.203125 0.484375 -0.359375q0.203125 -0.15625 0.34375 -0.15625q0.09375 0 0.140625 0.0625q0.0625 0.046875 0.09375 0.1875q0.046875 0.125 0.0625 0.34375q0.03125 0.21875 0.03125 0.546875zm11.253052 -3.203125q0 1.171875 -0.3125 2.140625q-0.3125 0.953125 -0.9375 1.65625q-0.625 0.703125 -1.578125 1.078125q-0.9375 0.375 -2.1875 0.375q-1.21875 0 -2.125 -0.328125q-0.90625 -0.34375 -1.5 -0.984375q-0.59375 -0.65625 -0.890625 -1.59375q-0.28125 -0.953125 -0.28125 -2.15625q0 -1.171875 0.3125 -2.140625q0.3125 -0.96875 0.9375 -1.65625q0.625 -0.703125 1.5625 -1.078125q0.9375 -0.375 2.203125 -0.375q1.234375 0 2.125 0.34375q0.90625 0.328125 1.5 0.96875q0.59375 0.640625 0.875 1.59375q0.296875 0.9375 0.296875 2.15625zm-2.65625 0.109375q0 -0.6875 -0.109375 -1.25q-0.109375 -0.578125 -0.375 -0.984375q-0.25 -0.421875 -0.671875 -0.65625q-0.421875 -0.25 -1.078125 -0.25q-0.5625 0 -1.0 0.21875q-0.4375 0.203125 -0.71875 0.609375q-0.265625 0.40625 -0.40625 0.984375q-0.140625 0.5625 -0.140625 1.296875q0 0.671875 0.109375 1.25q0.125 0.5625 0.375 0.984375q0.25 0.421875 0.671875 0.65625q0.4375 0.21875 1.078125 0.21875q0.578125 0 1.0 -0.203125q0.4375 -0.21875 0.71875 -0.609375q0.28125 -0.40625 0.40625 -0.96875q0.140625 -0.578125 0.140625 -1.296875zm13.106567 -3.953125q0 0.484375 -0.109375 0.734375q-0.109375 0.234375 -0.28125 0.234375l-1.078125 0q0.234375 0.234375 0.328125 0.546875q0.09375 0.3125 0.09375 0.65625q0 0.796875 -0.265625 1.421875q-0.265625 0.625 -0.765625 1.046875q-0.484375 0.421875 -1.1875 0.640625q-0.703125 0.21875 -1.5625 0.21875q-0.453125 0 -0.859375 -0.09375q-0.390625 -0.109375 -0.609375 -0.265625q-0.109375 0.140625 -0.21875 0.328125q-0.09375 0.1875 -0.09375 0.40625q0 0.296875 0.265625 0.484375q0.265625 0.1875 0.734375 0.21875l2.21875 0.078125q0.78125 0.03125 1.390625 0.21875q0.609375 0.1875 1.015625 0.53125q0.421875 0.34375 0.640625 0.828125q0.21875 0.484375 0.21875 1.09375q0 0.6875 -0.296875 1.28125q-0.296875 0.59375 -0.890625 1.03125q-0.59375 0.453125 -1.5 0.703125q-0.890625 0.265625 -2.078125 0.265625q-1.171875 0 -2.0 -0.1875q-0.828125 -0.1875 -1.359375 -0.515625q-0.515625 -0.328125 -0.765625 -0.78125q-0.234375 -0.453125 -0.234375 -1.0q0 -0.34375 0.078125 -0.65625q0.09375 -0.296875 0.265625 -0.578125q0.171875 -0.28125 0.40625 -0.53125q0.25 -0.265625 0.5625 -0.5q-0.4375 -0.234375 -0.6875 -0.640625q-0.234375 -0.40625 -0.234375 -0.890625q0 -0.609375 0.28125 -1.09375q0.28125 -0.5 0.71875 -0.90625q-0.359375 -0.359375 -0.578125 -0.859375q-0.21875 -0.5 -0.21875 -1.25q0 -0.796875 0.28125 -1.421875q0.296875 -0.640625 0.796875 -1.078125q0.5 -0.4375 1.1875 -0.65625q0.703125 -0.234375 1.546875 -0.234375q0.421875 0 0.8125 0.046875q0.40625 0.046875 0.75 0.140625l2.890625 0q0.1875 0 0.28125 0.234375q0.109375 0.21875 0.109375 0.75zm-3.3125 2.15625q0 -0.734375 -0.40625 -1.140625q-0.40625 -0.40625 -1.15625 -0.40625q-0.375 0 -0.671875 0.125q-0.28125 0.125 -0.46875 0.34375q-0.1875 0.21875 -0.28125 0.515625q-0.09375 0.296875 -0.09375 0.609375q0 0.703125 0.40625 1.109375q0.40625 0.40625 1.140625 0.40625q0.390625 0 0.671875 -0.125q0.296875 -0.125 0.484375 -0.34375q0.1875 -0.21875 0.28125 -0.5q0.09375 -0.28125 0.09375 -0.59375zm0.609375 7.3125q0 -0.46875 -0.375 -0.703125q-0.359375 -0.25 -1.015625 -0.28125l-1.828125 -0.046875q-0.265625 0.203125 -0.421875 0.390625q-0.15625 0.171875 -0.265625 0.328125q-0.09375 0.171875 -0.125 0.3125q-0.03125 0.15625 -0.03125 0.328125q0 0.515625 0.515625 0.78125q0.515625 0.265625 1.46875 0.265625q0.578125 0 0.96875 -0.125q0.40625 -0.109375 0.65625 -0.3125q0.25 -0.1875 0.34375 -0.4375q0.109375 -0.234375 0.109375 -0.5zm10.455872 -9.25q0 0.359375 -0.03125 0.609375q-0.015625 0.234375 -0.0625 0.375q-0.03125 0.125 -0.109375 0.171875q-0.0625 0.046875 -0.15625 0.046875q-0.078125 0 -0.1875 -0.03125q-0.109375 -0.03125 -0.234375 -0.078125q-0.125 -0.046875 -0.28125 -0.078125q-0.15625 -0.03125 -0.34375 -0.03125q-0.203125 0 -0.421875 0.09375q-0.21875 0.078125 -0.453125 0.265625q-0.21875 0.1875 -0.484375 0.5q-0.25 0.296875 -0.53125 0.75l0 5.703125q0 0.09375 -0.0625 0.171875q-0.0625 0.078125 -0.21875 0.140625q-0.140625 0.046875 -0.390625 0.0625q-0.234375 0.03125 -0.625 0.03125q-0.375 0 -0.625 -0.03125q-0.234375 -0.015625 -0.390625 -0.0625q-0.140625 -0.0625 -0.203125 -0.140625q-0.0625 -0.078125 -0.0625 -0.171875l0 -9.15625q0 -0.09375 0.046875 -0.171875q0.046875 -0.078125 0.171875 -0.125q0.140625 -0.0625 0.34375 -0.078125q0.21875 -0.03125 0.546875 -0.03125q0.328125 0 0.53125 0.03125q0.21875 0.015625 0.328125 0.078125q0.125 0.046875 0.171875 0.125q0.0625 0.078125 0.0625 0.171875l0 1.140625q0.359375 -0.515625 0.671875 -0.84375q0.3125 -0.328125 0.59375 -0.515625q0.296875 -0.203125 0.578125 -0.28125q0.296875 -0.078125 0.578125 -0.078125q0.140625 0 0.296875 0.015625q0.15625 0.015625 0.3125 0.046875q0.171875 0.03125 0.28125 0.078125q0.125 0.046875 0.1875 0.109375q0.0625 0.046875 0.078125 0.109375q0.03125 0.0625 0.046875 0.171875q0.015625 0.109375 0.03125 0.328125q0.015625 0.203125 0.015625 0.578125zm10.956482 3.625q0 1.171875 -0.3125 2.140625q-0.3125 0.953125 -0.9375 1.65625q-0.625 0.703125 -1.578125 1.078125q-0.9375 0.375 -2.1875 0.375q-1.21875 0 -2.125 -0.328125q-0.90625 -0.34375 -1.5 -0.984375q-0.59375 -0.65625 -0.890625 -1.59375q-0.28125 -0.953125 -0.28125 -2.15625q0 -1.171875 0.3125 -2.140625q0.3125 -0.96875 0.9375 -1.65625q0.625 -0.703125 1.5625 -1.078125q0.9375 -0.375 2.203125 -0.375q1.234375 0 2.125 0.34375q0.90625 0.328125 1.5 0.96875q0.59375 0.640625 0.875 1.59375q0.296875 0.9375 0.296875 2.15625zm-2.65625 0.109375q0 -0.6875 -0.109375 -1.25q-0.109375 -0.578125 -0.375 -0.984375q-0.25 -0.421875 -0.671875 -0.65625q-0.421875 -0.25 -1.078125 -0.25q-0.5625 0 -1.0 0.21875q-0.4375 0.203125 -0.71875 0.609375q-0.265625 0.40625 -0.40625 0.984375q-0.140625 0.5625 -0.140625 1.296875q0 0.671875 0.109375 1.25q0.125 0.5625 0.375 0.984375q0.25 0.421875 0.671875 0.65625q0.4375 0.21875 1.078125 0.21875q0.578125 0 1.0 -0.203125q0.4375 -0.21875 0.71875 -0.609375q0.28125 -0.40625 0.40625 -0.96875q0.140625 -0.578125 0.140625 -1.296875zm13.544128 4.5625q0 0.09375 -0.0625 0.171875q-0.046875 0.078125 -0.171875 0.140625q-0.125 0.046875 -0.34375 0.0625q-0.203125 0.03125 -0.515625 0.03125q-0.34375 0 -0.5625 -0.03125q-0.203125 -0.015625 -0.328125 -0.0625q-0.125 -0.0625 -0.171875 -0.140625q-0.046875 -0.078125 -0.046875 -0.171875l0 -1.0625q-0.765625 0.828125 -1.546875 1.234375q-0.78125 0.40625 -1.625 0.40625q-0.9375 0 -1.578125 -0.296875q-0.640625 -0.3125 -1.046875 -0.84375q-0.390625 -0.546875 -0.5625 -1.234375q-0.171875 -0.703125 -0.171875 -1.75l0 -5.609375q0 -0.09375 0.0625 -0.171875q0.0625 -0.078125 0.203125 -0.125q0.15625 -0.0625 0.40625 -0.078125q0.25 -0.03125 0.609375 -0.03125q0.390625 0 0.625 0.03125q0.25 0.015625 0.390625 0.078125q0.15625 0.046875 0.21875 0.125q0.0625 0.078125 0.0625 0.171875l0 5.171875q0 0.71875 0.09375 1.109375q0.09375 0.375 0.28125 0.640625q0.1875 0.265625 0.484375 0.421875q0.296875 0.140625 0.6875 0.140625q0.484375 0 0.984375 -0.359375q0.5 -0.359375 1.0625 -1.046875l0 -6.078125q0 -0.09375 0.046875 -0.171875q0.0625 -0.078125 0.203125 -0.125q0.15625 -0.0625 0.40625 -0.078125q0.25 -0.03125 0.625 -0.03125q0.375 0 0.625 0.03125q0.25 0.015625 0.390625 0.078125q0.140625 0.046875 0.203125 0.125q0.0625 0.078125 0.0625 0.171875l0 9.15625zm11.976379 -4.71875q0 1.234375 -0.265625 2.21875q-0.25 0.96875 -0.765625 1.65625q-0.5 0.6875 -1.25 1.0625q-0.75 0.359375 -1.703125 0.359375q-0.40625 0 -0.75 -0.078125q-0.328125 -0.078125 -0.640625 -0.234375q-0.3125 -0.15625 -0.625 -0.390625q-0.296875 -0.234375 -0.625 -0.5625l0 4.3125q0 0.109375 -0.0625 0.1875q-0.0625 0.078125 -0.21875 0.125q-0.140625 0.0625 -0.390625 0.09375q-0.234375 0.03125 -0.625 0.03125q-0.375 0 -0.625 -0.03125q-0.234375 -0.03125 -0.390625 -0.09375q-0.140625 -0.046875 -0.203125 -0.125q-0.0625 -0.078125 -0.0625 -0.1875l0 -12.78125q0 -0.09375 0.046875 -0.171875q0.046875 -0.078125 0.171875 -0.125q0.140625 -0.0625 0.34375 -0.078125q0.21875 -0.03125 0.53125 -0.03125q0.3125 0 0.515625 0.03125q0.21875 0.015625 0.34375 0.078125q0.125 0.046875 0.171875 0.125q0.046875 0.078125 0.046875 0.171875l0 1.078125q0.40625 -0.40625 0.78125 -0.71875q0.390625 -0.3125 0.78125 -0.515625q0.40625 -0.21875 0.828125 -0.3125q0.4375 -0.109375 0.921875 -0.109375q1.0 0 1.703125 0.390625q0.71875 0.390625 1.15625 1.078125q0.453125 0.6875 0.65625 1.609375q0.203125 0.90625 0.203125 1.9375zm-2.6875 0.1875q0 -0.578125 -0.09375 -1.109375q-0.078125 -0.546875 -0.296875 -0.96875q-0.203125 -0.421875 -0.546875 -0.671875q-0.34375 -0.25 -0.859375 -0.25q-0.25 0 -0.5 0.078125q-0.25 0.078125 -0.515625 0.25q-0.265625 0.171875 -0.546875 0.453125q-0.265625 0.28125 -0.578125 0.6875l0 3.015625q0.546875 0.6875 1.03125 1.0625q0.5 0.375 1.03125 0.375q0.5 0 0.84375 -0.25q0.359375 -0.265625 0.578125 -0.671875q0.234375 -0.421875 0.34375 -0.9375q0.109375 -0.53125 0.109375 -1.0625z" fill-rule="nonzero"></path><path fill="#cccccc" d="m43.632545 112.6273l214.3937 0l0 26.897636l-214.3937 0z" fill-rule="nonzero"></path><path stroke="#000000" stroke-width="2.0" stroke-linejoin="round" stroke-linecap="butt" d="m43.632545 112.6273l214.3937 0l0 26.897636l-214.3937 0z" fill-rule="nonzero"></path><path fill="#000000" d="m119.66926 132.99611l0 -13.593742l1.8125 0l0 5.578125l7.0625076 0l0 -5.578125l1.796875 0l0 13.593742l-1.796875 0l0 -6.4062424l-7.0625076 0l0 6.4062424l-1.8125 0zm19.644829 -1.21875q-0.9375 0.796875 -1.796875 1.125q-0.859375 0.3125 -1.84375 0.3125q-1.609375 0 -2.484375 -0.78125q-0.875 -0.796875 -0.875 -2.03125q0 -0.734375 0.328125 -1.328125q0.328125 -0.59375 0.859375 -0.953125q0.53125 -0.35936737 1.203125 -0.5468674q0.5 -0.140625 1.484375 -0.25q2.03125 -0.25 2.984375 -0.578125q0 -0.34375 0 -0.4375q0 -1.015625 -0.46875 -1.4375q-0.640625 -0.5625 -1.90625 -0.5625q-1.171875 0 -1.734375 0.40625q-0.5625 0.40625 -0.828125 1.46875l-1.640625 -0.234375q0.234375 -1.046875 0.734375 -1.6875q0.515625 -0.640625 1.46875 -0.984375q0.96875 -0.359375 2.25 -0.359375q1.265625 0 2.046875 0.296875q0.78125 0.296875 1.15625 0.75q0.375 0.453125 0.515625 1.140625q0.09375 0.421875 0.09375 1.53125l0 2.2343674q0 2.328125 0.09375 2.953125q0.109375 0.609375 0.4375 1.171875l-1.75 0q-0.265625 -0.515625 -0.328125 -1.21875zm-0.140625 -3.71875q-0.90625 0.359375 -2.734375 0.625q-1.03125 0.140625 -1.453125 0.328125q-0.421875 0.1875 -0.65625 0.546875q-0.234375 0.359375 -0.234375 0.796875q0 0.671875 0.5 1.125q0.515625 0.4375 1.484375 0.4375q0.96875 0 1.71875 -0.421875q0.75 -0.4375 1.109375 -1.15625q0.265625 -0.578125 0.265625 -1.671875l0 -0.609375zm10.469467 4.9375l0 -1.25q-0.9375 1.46875 -2.75 1.46875q-1.171875 0 -2.171875 -0.640625q-0.984375 -0.65625 -1.53125 -1.8125q-0.53125 -1.171875 -0.53125 -2.6875q0 -1.4687424 0.484375 -2.6718674q0.5 -1.203125 1.46875 -1.84375q0.984375 -0.640625 2.203125 -0.640625q0.890625 0 1.578125 0.375q0.703125 0.375 1.140625 0.984375l0 -4.875l1.65625 0l0 13.593742l-1.546875 0zm-5.28125 -4.921875q0 1.890625 0.796875 2.828125q0.8125 0.9375 1.890625 0.9375q1.09375 0 1.859375 -0.890625q0.765625 -0.890625 0.765625 -2.734375q0 -2.0156174 -0.78125 -2.9531174q-0.78125 -0.953125 -1.921875 -0.953125q-1.109375 0 -1.859375 0.90625q-0.75 0.90625 -0.75 2.8593674zm8.641342 0q0 -2.7343674 1.53125 -4.0624924q1.265625 -1.09375 3.09375 -1.09375q2.03125 0 3.3125 1.34375q1.296875 1.328125 1.296875 3.671875q0 1.9062424 -0.578125 2.9999924q-0.5625 1.078125 -1.65625 1.6875q-1.078125 0.59375 -2.375 0.59375q-2.0625 0 -3.34375 -1.328125q-1.28125 -1.328125 -1.28125 -3.8125zm1.71875 0q0 1.890625 0.828125 2.828125q0.828125 0.9375 2.078125 0.9375q1.25 0 2.0625 -0.9375q0.828125 -0.953125 0.828125 -2.890625q0 -1.8281174 -0.828125 -2.7656174q-0.828125 -0.9375 -2.0625 -0.9375q-1.25 0 -2.078125 0.9375q-0.828125 0.9375 -0.828125 2.8281174zm8.656967 0q0 -2.7343674 1.53125 -4.0624924q1.265625 -1.09375 3.09375 -1.09375q2.03125 0 3.3125 1.34375q1.296875 1.328125 1.296875 3.671875q0 1.9062424 -0.578125 2.9999924q-0.5625 1.078125 -1.65625 1.6875q-1.078125 0.59375 -2.375 0.59375q-2.0625 0 -3.34375 -1.328125q-1.28125 -1.328125 -1.28125 -3.8125zm1.71875 0q0 1.890625 0.828125 2.828125q0.828125 0.9375 2.078125 0.9375q1.25 0 2.0625 -0.9375q0.828125 -0.953125 0.828125 -2.890625q0 -1.8281174 -0.828125 -2.7656174q-0.828125 -0.9375 -2.0625 -0.9375q-1.25 0 -2.078125 0.9375q-0.828125 0.9375 -0.828125 2.8281174zm9.281967 8.703125l0 -13.640617l1.53125 0l0 1.28125q0.53125 -0.75 1.203125 -1.125q0.6875 -0.375 1.640625 -0.375q1.265625 0 2.234375 0.65625q0.96875 0.640625 1.453125 1.828125q0.5 1.1875 0.5 2.59375q0 1.5156174 -0.546875 2.7343674q-0.546875 1.203125 -1.578125 1.84375q-1.03125 0.640625 -2.171875 0.640625q-0.84375 0 -1.515625 -0.34375q-0.65625 -0.359375 -1.078125 -0.890625l0 4.796875l-1.671875 0zm1.515625 -8.65625q0 1.90625 0.765625 2.8125q0.78125 0.90625 1.875 0.90625q1.109375 0 1.890625 -0.9375q0.796875 -0.9375 0.796875 -2.9218674q0 -1.875 -0.78125 -2.8125q-0.765625 -0.9375 -1.84375 -0.9375q-1.0625 0 -1.890625 1.0q-0.8125 1.0 -0.8125 2.8906174z" fill-rule="nonzero"></path><path fill="#e69138" d="m305.44357 112.154854l556.81885 0l0 26.897636l-556.81885 0z" fill-rule="nonzero"></path><path stroke="#000000" stroke-width="2.0" stroke-linejoin="round" stroke-linecap="butt" d="m305.44357 112.154854l556.81885 0l0 26.897636l-556.81885 0z" fill-rule="nonzero"></path><path fill="#000000" d="m531.3034 128.14867l1.6875 -0.140625q0.125 1.015625 0.5625 1.671875q0.4375 0.65625 1.359375 1.0625q0.9375 0.40625 2.09375 0.40625q1.03125 0 1.8125 -0.3125q0.796875 -0.3125 1.1875 -0.84375q0.390625 -0.53125 0.390625 -1.15625q0 -0.640625 -0.375 -1.1093674q-0.375 -0.484375 -1.234375 -0.8125q-0.546875 -0.21875 -2.421875 -0.65625q-1.875 -0.453125 -2.625 -0.859375q-0.96875 -0.515625 -1.453125 -1.265625q-0.46875 -0.75 -0.46875 -1.6875q0 -1.03125 0.578125 -1.921875q0.59375 -0.90625 1.703125 -1.359375q1.125 -0.46875 2.5 -0.46875q1.515625 0 2.671875 0.484375q1.15625 0.484375 1.765625 1.4375q0.625 0.9375 0.671875 2.140625l-1.71875 0.125q-0.140625 -1.28125 -0.953125 -1.9375q-0.796875 -0.671875 -2.359375 -0.671875q-1.625 0 -2.375 0.609375q-0.75 0.59375 -0.75 1.4375q0 0.734375 0.53125 1.203125q0.515625 0.46875 2.703125 0.96875q2.203125 0.5 3.015625 0.875q1.1875 0.546875 1.75 1.390625q0.578125 0.828125 0.578125 1.9218674q0 1.09375 -0.625 2.0625q-0.625 0.953125 -1.796875 1.484375q-1.15625 0.53125 -2.609375 0.53125q-1.84375 0 -3.09375 -0.53125q-1.25 -0.546875 -1.96875 -1.625q-0.703125 -1.078125 -0.734375 -2.453125zm16.490479 2.875l0.234375 1.484375q-0.703125 0.140625 -1.265625 0.140625q-0.90625 0 -1.40625 -0.28125q-0.5 -0.296875 -0.703125 -0.75q-0.203125 -0.46875 -0.203125 -1.984375l0 -5.6562424l-1.234375 0l0 -1.3125l1.234375 0l0 -2.4375l1.65625 -1.0l0 3.4375l1.6875 0l0 1.3125l-1.6875 0l0 5.7499924q0 0.71875 0.078125 0.921875q0.09375 0.203125 0.296875 0.328125q0.203125 0.125 0.578125 0.125q0.265625 0 0.734375 -0.078125zm1.5114136 1.5l0 -9.859367l1.5 0l0 1.5q0.578125 -1.046875 1.0625 -1.375q0.484375 -0.34375 1.078125 -0.34375q0.84375 0 1.71875 0.546875l-0.578125 1.546875q-0.609375 -0.359375 -1.234375 -0.359375q-0.546875 0 -0.984375 0.328125q-0.421875 0.328125 -0.609375 0.90625q-0.28125 0.890625 -0.28125 1.953125l0 5.1562424l-1.671875 0zm12.6657715 -1.21875q-0.9375 0.796875 -1.796875 1.125q-0.859375 0.3125 -1.84375 0.3125q-1.609375 0 -2.484375 -0.78125q-0.875 -0.796875 -0.875 -2.03125q0 -0.734375 0.328125 -1.328125q0.328125 -0.59375 0.859375 -0.9531174q0.53125 -0.359375 1.203125 -0.546875q0.5 -0.140625 1.484375 -0.25q2.03125 -0.25 2.984375 -0.578125q0 -0.34375 0 -0.4375q0 -1.015625 -0.46875 -1.4375q-0.640625 -0.5625 -1.90625 -0.5625q-1.171875 0 -1.734375 0.40625q-0.5625 0.40625 -0.828125 1.46875l-1.640625 -0.234375q0.234375 -1.046875 0.734375 -1.6875q0.515625 -0.640625 1.46875 -0.984375q0.96875 -0.359375 2.25 -0.359375q1.265625 0 2.046875 0.296875q0.78125 0.296875 1.15625 0.75q0.375 0.453125 0.515625 1.140625q0.09375 0.421875 0.09375 1.53125l0 2.2343674q0 2.328125 0.09375 2.953125q0.109375 0.609375 0.4375 1.171875l-1.75 0q-0.265625 -0.515625 -0.328125 -1.21875zm-0.140625 -3.7187424q-0.90625 0.359375 -2.734375 0.6249924q-1.03125 0.140625 -1.453125 0.328125q-0.421875 0.1875 -0.65625 0.546875q-0.234375 0.359375 -0.234375 0.796875q0 0.671875 0.5 1.125q0.515625 0.4375 1.484375 0.4375q0.96875 0 1.71875 -0.421875q0.75 -0.4375 1.109375 -1.15625q0.265625 -0.578125 0.265625 -1.671875l0 -0.6093674zm7.7351074 3.4374924l0.234375 1.484375q-0.703125 0.140625 -1.265625 0.140625q-0.90625 0 -1.40625 -0.28125q-0.5 -0.296875 -0.703125 -0.75q-0.203125 -0.46875 -0.203125 -1.984375l0 -5.6562424l-1.234375 0l0 -1.3125l1.234375 0l0 -2.4375l1.65625 -1.0l0 3.4375l1.6875 0l0 1.3125l-1.6875 0l0 5.7499924q0 0.71875 0.078125 0.921875q0.09375 0.203125 0.296875 0.328125q0.203125 0.125 0.578125 0.125q0.265625 0 0.734375 -0.078125zm0.9020386 -3.4218674q0 -2.734375 1.53125 -4.0625q1.265625 -1.09375 3.09375 -1.09375q2.03125 0 3.3125 1.34375q1.296875 1.328125 1.296875 3.671875q0 1.9062424 -0.578125 2.9999924q-0.5625 1.078125 -1.65625 1.6875q-1.078125 0.59375 -2.375 0.59375q-2.0625 0 -3.34375 -1.328125q-1.28125 -1.328125 -1.28125 -3.8124924zm1.71875 0q0 1.8906174 0.828125 2.8281174q0.828125 0.9375 2.078125 0.9375q1.25 0 2.0625 -0.9375q0.828125 -0.953125 0.828125 -2.8906174q0 -1.828125 -0.828125 -2.765625q-0.828125 -0.9375 -2.0625 -0.9375q-1.25 0 -2.078125 0.9375q-0.828125 0.9375 -0.828125 2.828125zm8.610107 1.9843674l1.65625 -0.265625q0.140625 1.0 0.765625 1.53125q0.640625 0.515625 1.78125 0.515625q1.15625 0 1.703125 -0.46875q0.5625 -0.46875 0.5625 -1.09375q0 -0.5625 -0.484375 -0.890625q-0.34375 -0.21875 -1.703125 -0.5625q-1.84375 -0.46874237 -2.5625 -0.7968674q-0.703125 -0.34375 -1.078125 -0.9375q-0.359375 -0.609375 -0.359375 -1.328125q0 -0.65625 0.296875 -1.21875q0.3125 -0.5625 0.828125 -0.9375q0.390625 -0.28125 1.0625 -0.484375q0.671875 -0.203125 1.4375 -0.203125q1.171875 0 2.046875 0.34375q0.875 0.328125 1.28125 0.90625q0.421875 0.5625 0.578125 1.515625l-1.625 0.21875q-0.109375 -0.75 -0.65625 -1.171875q-0.53125 -0.4375 -1.5 -0.4375q-1.15625 0 -1.640625 0.390625q-0.484375 0.375 -0.484375 0.875q0 0.328125 0.203125 0.59375q0.203125 0.265625 0.640625 0.4375q0.25 0.09375 1.46875 0.4375q1.765625 0.46875 2.46875 0.765625q0.703125 0.296875 1.09375 0.8749924q0.40625 0.578125 0.40625 1.4375q0 0.828125 -0.484375 1.578125q-0.484375 0.734375 -1.40625 1.140625q-0.921875 0.390625 -2.078125 0.390625q-1.921875 0 -2.9375 -0.796875q-1.0 -0.796875 -1.28125 -2.359375zm10.0 6.71875l0 -13.640617l1.53125 0l0 1.28125q0.53125 -0.75 1.203125 -1.125q0.6875 -0.375 1.640625 -0.375q1.265625 0 2.234375 0.65625q0.96875 0.640625 1.453125 1.828125q0.5 1.1875 0.5 2.59375q0 1.5156174 -0.546875 2.7343674q-0.546875 1.203125 -1.578125 1.84375q-1.03125 0.640625 -2.171875 0.640625q-0.84375 0 -1.515625 -0.34375q-0.65625 -0.359375 -1.078125 -0.890625l0 4.796875l-1.671875 0zm1.515625 -8.656242q0 1.9062424 0.765625 2.8124924q0.78125 0.90625 1.875 0.90625q1.109375 0 1.890625 -0.9375q0.796875 -0.9375 0.796875 -2.9218674q0 -1.875 -0.78125 -2.8125q-0.765625 -0.9375 -1.84375 -0.9375q-1.0625 0 -1.890625 1.0q-0.8125 1.0 -0.8125 2.890625zm8.860107 4.8749924l0 -13.593742l1.671875 0l0 4.875q1.171875 -1.359375 2.953125 -1.359375q1.09375 0 1.890625 0.4375q0.8125 0.421875 1.15625 1.1875q0.359375 0.765625 0.359375 2.203125l0 6.2499924l-1.671875 0l0 -6.2499924q0 -1.25 -0.546875 -1.8125q-0.546875 -0.578125 -1.53125 -0.578125q-0.75 0 -1.40625 0.390625q-0.640625 0.375 -0.921875 1.046875q-0.28125 0.65625 -0.28125 1.8125l0 5.3906174l-1.671875 0zm17.125671 -3.171875l1.71875 0.21875q-0.40625 1.5 -1.515625 2.34375q-1.09375 0.828125 -2.8125 0.828125q-2.15625 0 -3.421875 -1.328125q-1.265625 -1.328125 -1.265625 -3.7343674q0 -2.484375 1.265625 -3.859375q1.28125 -1.375 3.328125 -1.375q1.984375 0 3.234375 1.34375q1.25 1.34375 1.25 3.796875q0 0.140625 -0.015625 0.43749237l-7.34375 0q0.09375 1.625 0.921875 2.484375q0.828125 0.859375 2.0625 0.859375q0.90625 0 1.546875 -0.46875q0.65625 -0.484375 1.046875 -1.546875zm-5.484375 -2.7031174l5.5 0q-0.109375 -1.234375 -0.625 -1.859375q-0.796875 -0.96875 -2.078125 -0.96875q-1.140625 0 -1.9375 0.78125q-0.78125 0.765625 -0.859375 2.046875zm9.094482 5.8749924l0 -9.859367l1.5 0l0 1.5q0.578125 -1.046875 1.0625 -1.375q0.484375 -0.34375 1.078125 -0.34375q0.84375 0 1.71875 0.546875l-0.578125 1.546875q-0.609375 -0.359375 -1.234375 -0.359375q-0.546875 0 -0.984375 0.328125q-0.421875 0.328125 -0.609375 0.90625q-0.28125 0.890625 -0.28125 1.953125l0 5.1562424l-1.671875 0zm12.9783325 -3.171875l1.71875 0.21875q-0.40625 1.5 -1.515625 2.34375q-1.09375 0.828125 -2.8125 0.828125q-2.15625 0 -3.421875 -1.328125q-1.265625 -1.328125 -1.265625 -3.7343674q0 -2.484375 1.265625 -3.859375q1.28125 -1.375 3.328125 -1.375q1.984375 0 3.234375 1.34375q1.25 1.34375 1.25 3.796875q0 0.140625 -0.015625 0.43749237l-7.34375 0q0.09375 1.625 0.921875 2.484375q0.828125 0.859375 2.0625 0.859375q0.90625 0 1.546875 -0.46875q0.65625 -0.484375 1.046875 -1.546875zm-5.484375 -2.7031174l5.5 0q-0.109375 -1.234375 -0.625 -1.859375q-0.796875 -0.96875 -2.078125 -0.96875q-1.140625 0 -1.9375 0.78125q-0.78125 0.765625 -0.859375 2.046875z" fill-rule="nonzero"></path><path fill="#a7dbd8" d="m158.38321 48.535656l0 0c0 -6.1230927 4.963745 -11.086838 11.0868225 -11.086838l81.19641 0c2.9404144 0 5.7604065 1.1680756 7.839569 3.247261c2.079193 2.0791855 3.247284 4.8991623 3.247284 7.8395767l0 44.346012c0 6.1230927 -4.963745 11.086838 -11.086853 11.086838l-81.19641 0c-6.1230774 0 -11.0868225 -4.963745 -11.0868225 -11.086838z" fill-rule="nonzero"></path><path stroke="#000000" stroke-width="2.0" stroke-linejoin="round" stroke-linecap="butt" d="m158.38321 48.535656l0 0c0 -6.1230927 4.963745 -11.086838 11.0868225 -11.086838l81.19641 0c2.9404144 0 5.7604065 1.1680756 7.839569 3.247261c2.079193 2.0791855 3.247284 4.8991623 3.247284 7.8395767l0 44.346012c0 6.1230927 -4.963745 11.086838 -11.086853 11.086838l-81.19641 0c-6.1230774 0 -11.0868225 -4.963745 -11.0868225 -11.086838z" fill-rule="nonzero"></path><path fill="#000000" d="m186.80482 69.548035q0 0.359375 -0.03125 0.609375q-0.015625 0.234375 -0.0625 0.375q-0.03125 0.125 -0.109375 0.171875q-0.0625 0.046875 -0.15625 0.046875q-0.078125 0 -0.1875 -0.03125q-0.109375 -0.03125 -0.234375 -0.078125q-0.125 -0.046875 -0.28125 -0.078125q-0.15625 -0.03125 -0.34375 -0.03125q-0.203125 0 -0.421875 0.09375q-0.21875 0.078125 -0.453125 0.265625q-0.21875 0.1875 -0.484375 0.5q-0.25 0.296875 -0.53125 0.75l0 5.703125q0 0.09375 -0.0625 0.171875q-0.0625 0.078125 -0.21875 0.140625q-0.140625 0.046875 -0.390625 0.0625q-0.234375 0.03125 -0.625 0.03125q-0.375 0 -0.625 -0.03125q-0.234375 -0.015625 -0.390625 -0.0625q-0.140625 -0.0625 -0.203125 -0.140625q-0.0625 -0.078125 -0.0625 -0.171875l0 -9.15625q0 -0.09375 0.046875 -0.171875q0.046875 -0.078125 0.171875 -0.125q0.140625 -0.0625 0.34375 -0.078125q0.21875 -0.03125 0.546875 -0.03125q0.328125 0 0.53125 0.03125q0.21875 0.015625 0.328125 0.078125q0.125 0.046875 0.171875 0.125q0.0625 0.078125 0.0625 0.171875l0 1.140625q0.359375 -0.515625 0.671875 -0.84375q0.3125 -0.328125 0.59375 -0.515625q0.296875 -0.203125 0.578125 -0.28125q0.296875 -0.078125 0.578125 -0.078125q0.140625 0 0.296875 0.015625q0.15625 0.015625 0.3125 0.046875q0.171875 0.03125 0.28125 0.078125q0.125 0.046875 0.1875 0.109375q0.0625 0.046875 0.078125 0.109375q0.03125 0.0625 0.046875 0.171875q0.015625 0.109375 0.03125 0.328125q0.015625 0.203125 0.015625 0.578125zm10.143982 3.453125q0 0.46875 -0.203125 0.703125q-0.203125 0.21875 -0.578125 0.21875l-5.5625 0q0 0.578125 0.125 1.0625q0.140625 0.46875 0.4375 0.8125q0.3125 0.328125 0.78125 0.5q0.484375 0.171875 1.15625 0.171875q0.671875 0 1.1875 -0.09375q0.515625 -0.09375 0.890625 -0.203125q0.375 -0.125 0.609375 -0.21875q0.25 -0.109375 0.40625 -0.109375q0.09375 0 0.15625 0.046875q0.0625 0.03125 0.09375 0.125q0.046875 0.09375 0.0625 0.265625q0.015625 0.15625 0.015625 0.421875q0 0.21875 -0.015625 0.390625q0 0.15625 -0.03125 0.265625q-0.015625 0.109375 -0.0625 0.1875q-0.03125 0.078125 -0.109375 0.15625q-0.0625 0.0625 -0.359375 0.1875q-0.296875 0.125 -0.765625 0.25q-0.453125 0.109375 -1.046875 0.1875q-0.59375 0.09375 -1.265625 0.09375q-1.21875 0 -2.140625 -0.296875q-0.921875 -0.3125 -1.546875 -0.9375q-0.609375 -0.625 -0.90625 -1.578125q-0.296875 -0.953125 -0.296875 -2.234375q0 -1.234375 0.3125 -2.203125q0.3125 -0.984375 0.921875 -1.65625q0.609375 -0.6875 1.46875 -1.046875q0.875 -0.359375 1.953125 -0.359375q1.15625 0 1.96875 0.34375q0.8125 0.328125 1.328125 0.9375q0.53125 0.59375 0.765625 1.421875q0.25 0.8125 0.25 1.78125l0 0.40625zm-2.5 -0.734375q0.03125 -1.09375 -0.4375 -1.703125q-0.453125 -0.625 -1.4375 -0.625q-0.484375 0 -0.859375 0.1875q-0.359375 0.171875 -0.609375 0.484375q-0.234375 0.3125 -0.359375 0.75q-0.125 0.421875 -0.140625 0.90625l3.84375 0zm13.471344 5.578125q0 0.109375 -0.0625 0.1875q-0.046875 0.078125 -0.171875 0.125q-0.109375 0.046875 -0.328125 0.0625q-0.203125 0.03125 -0.515625 0.03125q-0.328125 0 -0.53125 -0.03125q-0.203125 -0.015625 -0.34375 -0.0625q-0.125 -0.046875 -0.1875 -0.125q-0.046875 -0.078125 -0.046875 -0.1875l0 -1.015625q-0.703125 0.75 -1.484375 1.171875q-0.765625 0.421875 -1.71875 0.421875q-1.046875 0 -1.765625 -0.40625q-0.71875 -0.40625 -1.1875 -1.09375q-0.453125 -0.6875 -0.65625 -1.59375q-0.203125 -0.921875 -0.203125 -1.9375q0 -1.21875 0.265625 -2.1875q0.265625 -0.984375 0.765625 -1.671875q0.5 -0.6875 1.25 -1.046875q0.75 -0.375 1.71875 -0.375q0.765625 0 1.390625 0.3125q0.625 0.3125 1.25 0.921875l0 -4.953125q0 -0.109375 0.046875 -0.1875q0.0625 -0.078125 0.203125 -0.140625q0.15625 -0.0625 0.40625 -0.09375q0.25 -0.03125 0.625 -0.03125q0.375 0 0.625 0.03125q0.25 0.03125 0.390625 0.09375q0.140625 0.0625 0.203125 0.140625q0.0625 0.078125 0.0625 0.1875l0 13.453125zm-2.5625 -6.109375q-0.5625 -0.703125 -1.078125 -1.0625q-0.5 -0.375 -1.046875 -0.375q-0.5 0 -0.875 0.25q-0.359375 0.25 -0.578125 0.671875q-0.21875 0.421875 -0.328125 0.9375q-0.109375 0.515625 -0.109375 1.0625q0 0.5625 0.09375 1.109375q0.09375 0.546875 0.296875 0.96875q0.21875 0.421875 0.5625 0.6875q0.359375 0.25 0.890625 0.25q0.265625 0 0.515625 -0.078125q0.25 -0.078125 0.5 -0.25q0.265625 -0.171875 0.546875 -0.453125q0.28125 -0.28125 0.609375 -0.6875l0 -3.03125zm14.007629 6.109375q0 0.09375 -0.0625 0.171875q-0.046875 0.078125 -0.171875 0.140625q-0.125 0.046875 -0.34375 0.0625q-0.203125 0.03125 -0.515625 0.03125q-0.34375 0 -0.5625 -0.03125q-0.203125 -0.015625 -0.328125 -0.0625q-0.125 -0.0625 -0.171875 -0.140625q-0.046875 -0.078125 -0.046875 -0.171875l0 -1.0625q-0.765625 0.828125 -1.546875 1.234375q-0.78125 0.40625 -1.625 0.40625q-0.9375 0 -1.578125 -0.296875q-0.640625 -0.3125 -1.046875 -0.84375q-0.390625 -0.546875 -0.5625 -1.234375q-0.171875 -0.703125 -0.171875 -1.75l0 -5.609375q0 -0.09375 0.0625 -0.171875q0.0625 -0.078125 0.203125 -0.125q0.15625 -0.0625 0.40625 -0.078125q0.25 -0.03125 0.609375 -0.03125q0.390625 0 0.625 0.03125q0.25 0.015625 0.390625 0.078125q0.15625 0.046875 0.21875 0.125q0.0625 0.078125 0.0625 0.171875l0 5.171875q0 0.71875 0.09375 1.109375q0.09375 0.375 0.28125 0.640625q0.1875 0.265625 0.484375 0.421875q0.296875 0.140625 0.6875 0.140625q0.484375 0 0.984375 -0.359375q0.5 -0.359375 1.0625 -1.046875l0 -6.078125q0 -0.09375 0.046875 -0.171875q0.0625 -0.078125 0.203125 -0.125q0.15625 -0.0625 0.40625 -0.078125q0.25 -0.03125 0.625 -0.03125q0.375 0 0.625 0.03125q0.25 0.015625 0.390625 0.078125q0.140625 0.046875 0.203125 0.125q0.0625 0.078125 0.0625 0.171875l0 9.15625zm9.695129 -1.46875q0 0.28125 -0.015625 0.46875q-0.015625 0.171875 -0.046875 0.296875q-0.03125 0.109375 -0.0625 0.1875q-0.03125 0.078125 -0.15625 0.203125q-0.125 0.109375 -0.421875 0.28125q-0.296875 0.171875 -0.6875 0.3125q-0.375 0.125 -0.828125 0.203125q-0.4375 0.078125 -0.90625 0.078125q-1.046875 0 -1.875 -0.328125q-0.8125 -0.328125 -1.375 -0.96875q-0.546875 -0.640625 -0.828125 -1.5625q-0.28125 -0.921875 -0.28125 -2.109375q0 -1.375 0.34375 -2.375q0.34375 -1.0 0.953125 -1.65625q0.625 -0.65625 1.46875 -0.96875q0.84375 -0.3125 1.84375 -0.3125q0.40625 0 0.796875 0.078125q0.40625 0.0625 0.75 0.1875q0.34375 0.109375 0.609375 0.265625q0.265625 0.15625 0.375 0.28125q0.125 0.109375 0.171875 0.1875q0.046875 0.0625 0.0625 0.1875q0.03125 0.125 0.046875 0.3125q0.015625 0.171875 0.015625 0.4375q0 0.59375 -0.109375 0.828125q-0.09375 0.234375 -0.265625 0.234375q-0.171875 0 -0.375 -0.140625q-0.1875 -0.140625 -0.453125 -0.3125q-0.265625 -0.171875 -0.640625 -0.3125q-0.359375 -0.15625 -0.875 -0.15625q-1.0 0 -1.53125 0.78125q-0.53125 0.78125 -0.53125 2.265625q0 0.75 0.125 1.3125q0.140625 0.5625 0.390625 0.9375q0.265625 0.375 0.65625 0.578125q0.40625 0.1875 0.921875 0.1875q0.53125 0 0.90625 -0.15625q0.390625 -0.171875 0.671875 -0.359375q0.296875 -0.203125 0.484375 -0.359375q0.203125 -0.15625 0.34375 -0.15625q0.09375 0 0.140625 0.0625q0.0625 0.046875 0.09375 0.1875q0.046875 0.125 0.0625 0.34375q0.03125 0.21875 0.03125 0.546875zm10.4405365 -3.375q0 0.46875 -0.203125 0.703125q-0.203125 0.21875 -0.578125 0.21875l-5.5625 0q0 0.578125 0.125 1.0625q0.140625 0.46875 0.4375 0.8125q0.3125 0.328125 0.78125 0.5q0.484375 0.171875 1.15625 0.171875q0.671875 0 1.1875 -0.09375q0.515625 -0.09375 0.890625 -0.203125q0.375 -0.125 0.609375 -0.21875q0.25 -0.109375 0.40625 -0.109375q0.09375 0 0.15625 0.046875q0.0625 0.03125 0.09375 0.125q0.046875 0.09375 0.0625 0.265625q0.015625 0.15625 0.015625 0.421875q0 0.21875 -0.015625 0.390625q0 0.15625 -0.03125 0.265625q-0.015625 0.109375 -0.0625 0.1875q-0.03125 0.078125 -0.109375 0.15625q-0.0625 0.0625 -0.359375 0.1875q-0.296875 0.125 -0.765625 0.25q-0.453125 0.109375 -1.046875 0.1875q-0.59375 0.09375 -1.265625 0.09375q-1.21875 0 -2.140625 -0.296875q-0.921875 -0.3125 -1.546875 -0.9375q-0.609375 -0.625 -0.90625 -1.578125q-0.296875 -0.953125 -0.296875 -2.234375q0 -1.234375 0.3125 -2.203125q0.3125 -0.984375 0.921875 -1.65625q0.609375 -0.6875 1.46875 -1.046875q0.875 -0.359375 1.953125 -0.359375q1.15625 0 1.96875 0.34375q0.8125 0.328125 1.328125 0.9375q0.53125 0.59375 0.765625 1.421875q0.25 0.8125 0.25 1.78125l0 0.40625zm-2.5 -0.734375q0.03125 -1.09375 -0.4375 -1.703125q-0.453125 -0.625 -1.4375 -0.625q-0.484375 0 -0.859375 0.1875q-0.359375 0.171875 -0.609375 0.484375q-0.234375 0.3125 -0.359375 0.75q-0.125 0.421875 -0.140625 0.90625l3.84375 0z" fill-rule="nonzero"></path><path fill="#a7dbd8" d="m420.1942 49.08421l0 0c0 -6.123089 4.963745 -11.086834 11.086853 -11.086834l81.19641 0c2.9404297 0 5.760376 1.1680756 7.8395996 3.2472572c2.0791626 2.0791855 3.2472534 4.899166 3.2472534 7.8395767l0 44.346012c0 6.1230927 -4.963745 11.086838 -11.086853 11.086838l-81.19641 0c-6.123108 0 -11.086853 -4.963745 -11.086853 -11.086838z" fill-rule="nonzero"></path><path stroke="#000000" stroke-width="2.0" stroke-linejoin="round" stroke-linecap="butt" d="m420.1942 49.08421l0 0c0 -6.123089 4.963745 -11.086834 11.086853 -11.086834l81.19641 0c2.9404297 0 5.760376 1.1680756 7.8395996 3.2472572c2.0791626 2.0791855 3.2472534 4.899166 3.2472534 7.8395767l0 44.346012c0 6.1230927 -4.963745 11.086838 -11.086853 11.086838l-81.19641 0c-6.123108 0 -11.086853 -4.963745 -11.086853 -11.086838z" fill-rule="nonzero"></path><path fill="#000000" d="m448.61584 70.096596q0 0.359375 -0.03125 0.609375q-0.015625 0.234375 -0.0625 0.375q-0.03125 0.125 -0.109375 0.171875q-0.0625 0.046875 -0.15625 0.046875q-0.078125 0 -0.1875 -0.03125q-0.109375 -0.03125 -0.234375 -0.078125q-0.125 -0.046875 -0.28125 -0.078125q-0.15625 -0.03125 -0.34375 -0.03125q-0.203125 0 -0.421875 0.09375q-0.21875 0.078125 -0.453125 0.265625q-0.21875 0.1875 -0.484375 0.5q-0.25 0.296875 -0.53125 0.75l0 5.703125q0 0.09375 -0.0625 0.171875q-0.0625 0.078125 -0.21875 0.140625q-0.140625 0.046875 -0.390625 0.0625q-0.234375 0.03125 -0.625 0.03125q-0.375 0 -0.625 -0.03125q-0.234375 -0.015625 -0.390625 -0.0625q-0.140625 -0.0625 -0.203125 -0.140625q-0.0625 -0.078125 -0.0625 -0.171875l0 -9.15625q0 -0.09375 0.046875 -0.171875q0.046875 -0.078125 0.171875 -0.125q0.140625 -0.0625 0.34375 -0.078125q0.21875 -0.03125 0.546875 -0.03125q0.328125 0 0.53125 0.03125q0.21875 0.015625 0.328125 0.078125q0.125 0.046875 0.171875 0.125q0.0625 0.078125 0.0625 0.171875l0 1.140625q0.359375 -0.515625 0.671875 -0.84375q0.3125 -0.328125 0.59375 -0.515625q0.296875 -0.203125 0.578125 -0.28125q0.296875 -0.078125 0.578125 -0.078125q0.140625 0 0.296875 0.015625q0.15625 0.015625 0.3125 0.046875q0.171875 0.03125 0.28125 0.078125q0.125 0.046875 0.1875 0.109375q0.0625 0.046875 0.078125 0.109375q0.03125 0.0625 0.046875 0.171875q0.015625 0.109375 0.03125 0.328125q0.015625 0.203125 0.015625 0.578125zm10.143982 3.453125q0 0.46875 -0.203125 0.703125q-0.203125 0.21875 -0.578125 0.21875l-5.5625 0q0 0.578125 0.125 1.0625q0.140625 0.46875 0.4375 0.8125q0.3125 0.328125 0.78125 0.5q0.484375 0.171875 1.15625 0.171875q0.671875 0 1.1875 -0.09375q0.515625 -0.09375 0.890625 -0.203125q0.375 -0.125 0.609375 -0.21875q0.25 -0.109375 0.40625 -0.109375q0.09375 0 0.15625 0.046875q0.0625 0.03125 0.09375 0.125q0.046875 0.09375 0.0625 0.265625q0.015625 0.15625 0.015625 0.421875q0 0.21875 -0.015625 0.390625q0 0.15625 -0.03125 0.265625q-0.015625 0.109375 -0.0625 0.1875q-0.03125 0.078125 -0.109375 0.15625q-0.0625 0.0625 -0.359375 0.1875q-0.296875 0.125 -0.765625 0.25q-0.453125 0.109375 -1.046875 0.1875q-0.59375 0.09375 -1.265625 0.09375q-1.21875 0 -2.140625 -0.296875q-0.921875 -0.3125 -1.546875 -0.9375q-0.609375 -0.625 -0.90625 -1.578125q-0.296875 -0.953125 -0.296875 -2.234375q0 -1.234375 0.3125 -2.203125q0.3125 -0.984375 0.921875 -1.65625q0.609375 -0.6875 1.46875 -1.046875q0.875 -0.359375 1.953125 -0.359375q1.15625 0 1.96875 0.34375q0.8125 0.328125 1.328125 0.9375q0.53125 0.59375 0.765625 1.421875q0.25 0.8125 0.25 1.78125l0 0.40625zm-2.5 -0.734375q0.03125 -1.09375 -0.4375 -1.703125q-0.453125 -0.625 -1.4375 -0.625q-0.484375 0 -0.859375 0.1875q-0.359375 0.171875 -0.609375 0.484375q-0.234375 0.3125 -0.359375 0.75q-0.125 0.421875 -0.140625 0.90625l3.84375 0zm13.471344 5.578125q0 0.109375 -0.0625 0.1875q-0.046875 0.078125 -0.171875 0.125q-0.109375 0.046875 -0.328125 0.0625q-0.203125 0.03125 -0.515625 0.03125q-0.328125 0 -0.53125 -0.03125q-0.203125 -0.015625 -0.34375 -0.0625q-0.125 -0.046875 -0.1875 -0.125q-0.046875 -0.078125 -0.046875 -0.1875l0 -1.015625q-0.703125 0.75 -1.484375 1.171875q-0.765625 0.421875 -1.71875 0.421875q-1.046875 0 -1.765625 -0.40625q-0.71875 -0.40625 -1.1875 -1.09375q-0.453125 -0.6875 -0.65625 -1.59375q-0.203125 -0.921875 -0.203125 -1.9375q0 -1.21875 0.265625 -2.1875q0.265625 -0.984375 0.765625 -1.671875q0.5 -0.6875 1.25 -1.046875q0.75 -0.375 1.71875 -0.375q0.765625 0 1.390625 0.3125q0.625 0.3125 1.25 0.921875l0 -4.953125q0 -0.109375 0.046875 -0.1875q0.0625 -0.078125 0.203125 -0.140625q0.15625 -0.0625 0.40625 -0.09375q0.25 -0.03125 0.625 -0.03125q0.375 0 0.625 0.03125q0.25 0.03125 0.390625 0.09375q0.140625 0.0625 0.203125 0.140625q0.0625 0.078125 0.0625 0.1875l0 13.453125zm-2.5625 -6.109375q-0.5625 -0.703125 -1.078125 -1.0625q-0.5 -0.375 -1.046875 -0.375q-0.5 0 -0.875 0.25q-0.359375 0.25 -0.578125 0.671875q-0.21875 0.421875 -0.328125 0.9375q-0.109375 0.515625 -0.109375 1.0625q0 0.5625 0.09375 1.109375q0.09375 0.546875 0.296875 0.96875q0.21875 0.421875 0.5625 0.6875q0.359375 0.25 0.890625 0.25q0.265625 0 0.515625 -0.078125q0.25 -0.078125 0.5 -0.25q0.265625 -0.171875 0.546875 -0.453125q0.28125 -0.28125 0.609375 -0.6875l0 -3.03125zm14.007629 6.109375q0 0.09375 -0.0625 0.171875q-0.046875 0.078125 -0.171875 0.140625q-0.125 0.046875 -0.34375 0.0625q-0.203125 0.03125 -0.515625 0.03125q-0.34375 0 -0.5625 -0.03125q-0.203125 -0.015625 -0.328125 -0.0625q-0.125 -0.0625 -0.171875 -0.140625q-0.046875 -0.078125 -0.046875 -0.171875l0 -1.0625q-0.765625 0.828125 -1.546875 1.234375q-0.78125 0.40625 -1.625 0.40625q-0.9375 0 -1.578125 -0.296875q-0.640625 -0.3125 -1.046875 -0.84375q-0.390625 -0.546875 -0.5625 -1.234375q-0.171875 -0.703125 -0.171875 -1.75l0 -5.609375q0 -0.09375 0.0625 -0.171875q0.0625 -0.078125 0.203125 -0.125q0.15625 -0.0625 0.40625 -0.078125q0.25 -0.03125 0.609375 -0.03125q0.390625 0 0.625 0.03125q0.25 0.015625 0.390625 0.078125q0.15625 0.046875 0.21875 0.125q0.0625 0.078125 0.0625 0.171875l0 5.171875q0 0.71875 0.09375 1.109375q0.09375 0.375 0.28125 0.640625q0.1875 0.265625 0.484375 0.421875q0.296875 0.140625 0.6875 0.140625q0.484375 0 0.984375 -0.359375q0.5 -0.359375 1.0625 -1.046875l0 -6.078125q0 -0.09375 0.046875 -0.171875q0.0625 -0.078125 0.203125 -0.125q0.15625 -0.0625 0.40625 -0.078125q0.25 -0.03125 0.625 -0.03125q0.375 0 0.625 0.03125q0.25 0.015625 0.390625 0.078125q0.140625 0.046875 0.203125 0.125q0.0625 0.078125 0.0625 0.171875l0 9.15625zm9.695129 -1.46875q0 0.28125 -0.015625 0.46875q-0.015625 0.171875 -0.046875 0.296875q-0.03125 0.109375 -0.0625 0.1875q-0.03125 0.078125 -0.15625 0.203125q-0.125 0.109375 -0.421875 0.28125q-0.296875 0.171875 -0.6875 0.3125q-0.375 0.125 -0.828125 0.203125q-0.4375 0.078125 -0.90625 0.078125q-1.046875 0 -1.875 -0.328125q-0.8125 -0.328125 -1.375 -0.96875q-0.546875 -0.640625 -0.828125 -1.5625q-0.28125 -0.921875 -0.28125 -2.109375q0 -1.375 0.34375 -2.375q0.34375 -1.0 0.953125 -1.65625q0.625 -0.65625 1.46875 -0.96875q0.84375 -0.3125 1.84375 -0.3125q0.40625 0 0.796875 0.078125q0.40625 0.0625 0.75 0.1875q0.34375 0.109375 0.609375 0.265625q0.265625 0.15625 0.375 0.28125q0.125 0.109375 0.171875 0.1875q0.046875 0.0625 0.0625 0.1875q0.03125 0.125 0.046875 0.3125q0.015625 0.171875 0.015625 0.4375q0 0.59375 -0.109375 0.828125q-0.09375 0.234375 -0.265625 0.234375q-0.171875 0 -0.375 -0.140625q-0.1875 -0.140625 -0.453125 -0.3125q-0.265625 -0.171875 -0.640625 -0.3125q-0.359375 -0.15625 -0.875 -0.15625q-1.0 0 -1.53125 0.78125q-0.53125 0.78125 -0.53125 2.265625q0 0.75 0.125 1.3125q0.140625 0.5625 0.390625 0.9375q0.265625 0.375 0.65625 0.578125q0.40625 0.1875 0.921875 0.1875q0.53125 0 0.90625 -0.15625q0.390625 -0.171875 0.671875 -0.359375q0.296875 -0.203125 0.484375 -0.359375q0.203125 -0.15625 0.34375 -0.15625q0.09375 0 0.140625 0.0625q0.0625 0.046875 0.09375 0.1875q0.046875 0.125 0.0625 0.34375q0.03125 0.21875 0.03125 0.546875zm10.440521 -3.375q0 0.46875 -0.203125 0.703125q-0.203125 0.21875 -0.578125 0.21875l-5.5625 0q0 0.578125 0.125 1.0625q0.140625 0.46875 0.4375 0.8125q0.3125 0.328125 0.78125 0.5q0.484375 0.171875 1.15625 0.171875q0.671875 0 1.1875 -0.09375q0.515625 -0.09375 0.890625 -0.203125q0.375 -0.125 0.609375 -0.21875q0.25 -0.109375 0.40625 -0.109375q0.09375 0 0.15625 0.046875q0.0625 0.03125 0.09375 0.125q0.046875 0.09375 0.0625 0.265625q0.015625 0.15625 0.015625 0.421875q0 0.21875 -0.015625 0.390625q0 0.15625 -0.03125 0.265625q-0.015625 0.109375 -0.0625 0.1875q-0.03125 0.078125 -0.109375 0.15625q-0.0625 0.0625 -0.359375 0.1875q-0.296875 0.125 -0.765625 0.25q-0.453125 0.109375 -1.046875 0.1875q-0.59375 0.09375 -1.265625 0.09375q-1.21875 0 -2.140625 -0.296875q-0.921875 -0.3125 -1.546875 -0.9375q-0.609375 -0.625 -0.90625 -1.578125q-0.296875 -0.953125 -0.296875 -2.234375q0 -1.234375 0.3125 -2.203125q0.3125 -0.984375 0.921875 -1.65625q0.609375 -0.6875 1.46875 -1.046875q0.875 -0.359375 1.953125 -0.359375q1.15625 0 1.96875 0.34375q0.8125 0.328125 1.328125 0.9375q0.53125 0.59375 0.765625 1.421875q0.25 0.8125 0.25 1.78125l0 0.40625zm-2.5 -0.734375q0.03125 -1.09375 -0.4375 -1.703125q-0.453125 -0.625 -1.4375 -0.625q-0.484375 0 -0.859375 0.1875q-0.359375 0.171875 -0.609375 0.484375q-0.234375 0.3125 -0.359375 0.75q-0.125 0.421875 -0.140625 0.90625l3.84375 0z" fill-rule="nonzero"></path><path fill="#69d2e7" d="m305.44357 49.08421l0 0c0 -6.123089 4.963745 -11.086834 11.0868225 -11.086834l81.19641 0c2.9404297 0 5.7604065 1.1680756 7.8395996 3.2472572c2.0791626 2.0791855 3.2472534 4.899166 3.2472534 7.8395767l0 44.346012c0 6.1230927 -4.963745 11.086838 -11.086853 11.086838l-81.19641 0c-6.1230774 0 -11.0868225 -4.963745 -11.0868225 -11.086838z" fill-rule="nonzero"></path><path stroke="#000000" stroke-width="2.0" stroke-linejoin="round" stroke-linecap="butt" d="m305.44357 49.08421l0 0c0 -6.123089 4.963745 -11.086834 11.0868225 -11.086834l81.19641 0c2.9404297 0 5.7604065 1.1680756 7.8395996 3.2472572c2.0791626 2.0791855 3.2472534 4.899166 3.2472534 7.8395767l0 44.346012c0 6.1230927 -4.963745 11.086838 -11.086853 11.086838l-81.19641 0c-6.1230774 0 -11.0868225 -4.963745 -11.0868225 -11.086838z" fill-rule="nonzero"></path><path fill="#000000" d="m353.3105 78.39347q0 0.09375 -0.0625 0.171875q-0.0625 0.078125 -0.203125 0.140625q-0.140625 0.046875 -0.390625 0.0625q-0.25 0.03125 -0.625 0.03125q-0.390625 0 -0.640625 -0.03125q-0.25 -0.015625 -0.40625 -0.0625q-0.140625 -0.0625 -0.203125 -0.140625q-0.046875 -0.078125 -0.046875 -0.171875l0 -5.421875q0 -0.46875 -0.09375 -0.84375q-0.078125 -0.390625 -0.265625 -0.65625q-0.171875 -0.265625 -0.453125 -0.40625q-0.265625 -0.15625 -0.640625 -0.15625q-0.46875 0 -0.9375 0.359375q-0.46875 0.359375 -1.015625 1.046875l0 6.078125q0 0.09375 -0.0625 0.171875q-0.0625 0.078125 -0.21875 0.140625q-0.140625 0.046875 -0.390625 0.0625q-0.25 0.03125 -0.609375 0.03125q-0.390625 0 -0.640625 -0.03125q-0.234375 -0.015625 -0.390625 -0.0625q-0.140625 -0.0625 -0.203125 -0.140625q-0.0625 -0.078125 -0.0625 -0.171875l0 -5.421875q0 -0.46875 -0.09375 -0.84375q-0.078125 -0.390625 -0.265625 -0.65625q-0.171875 -0.265625 -0.453125 -0.40625q-0.265625 -0.15625 -0.640625 -0.15625q-0.46875 0 -0.9375 0.359375q-0.46875 0.359375 -1.015625 1.046875l0 6.078125q0 0.09375 -0.0625 0.171875q-0.0625 0.078125 -0.21875 0.140625q-0.140625 0.046875 -0.390625 0.0625q-0.234375 0.03125 -0.625 0.03125q-0.375 0 -0.625 -0.03125q-0.234375 -0.015625 -0.390625 -0.0625q-0.140625 -0.0625 -0.203125 -0.140625q-0.0625 -0.078125 -0.0625 -0.171875l0 -9.15625q0 -0.09375 0.046875 -0.171875q0.046875 -0.078125 0.171875 -0.125q0.140625 -0.0625 0.34375 -0.078125q0.21875 -0.03125 0.546875 -0.03125q0.328125 0 0.53125 0.03125q0.21875 0.015625 0.328125 0.078125q0.125 0.046875 0.171875 0.125q0.0625 0.078125 0.0625 0.171875l0 1.0625q0.75 -0.828125 1.5 -1.234375q0.765625 -0.40625 1.578125 -0.40625q0.5625 0 1.015625 0.125q0.453125 0.109375 0.796875 0.328125q0.359375 0.21875 0.609375 0.53125q0.265625 0.3125 0.4375 0.6875q0.421875 -0.4375 0.8125 -0.75q0.390625 -0.328125 0.765625 -0.53125q0.390625 -0.203125 0.78125 -0.296875q0.390625 -0.09375 0.78125 -0.09375q0.921875 0 1.546875 0.3125q0.625 0.296875 1.0 0.828125q0.390625 0.53125 0.546875 1.234375q0.171875 0.703125 0.171875 1.5l0 5.859375zm10.58432 0.03125q0 0.140625 -0.109375 0.21875q-0.09375 0.078125 -0.3125 0.109375q-0.21875 0.046875 -0.640625 0.046875q-0.46875 0 -0.6875 -0.046875q-0.203125 -0.03125 -0.296875 -0.109375q-0.078125 -0.078125 -0.078125 -0.21875l0 -0.734375q-0.5625 0.609375 -1.296875 0.953125q-0.71875 0.328125 -1.59375 0.328125q-0.734375 0 -1.34375 -0.1875q-0.609375 -0.1875 -1.0625 -0.5625q-0.4375 -0.375 -0.6875 -0.921875q-0.234375 -0.5625 -0.234375 -1.296875q0 -0.796875 0.3125 -1.390625q0.3125 -0.59375 0.921875 -0.96875q0.625 -0.390625 1.546875 -0.578125q0.921875 -0.1875 2.140625 -0.1875l0.890625 0l0 -0.546875q0 -0.4375 -0.09375 -0.75q-0.078125 -0.328125 -0.28125 -0.546875q-0.1875 -0.21875 -0.53125 -0.3125q-0.328125 -0.109375 -0.828125 -0.109375q-0.640625 0 -1.15625 0.15625q-0.5 0.140625 -0.890625 0.3125q-0.390625 0.171875 -0.65625 0.3125q-0.25 0.140625 -0.421875 0.140625q-0.109375 0 -0.203125 -0.0625q-0.078125 -0.078125 -0.140625 -0.203125q-0.046875 -0.140625 -0.078125 -0.328125q-0.03125 -0.203125 -0.03125 -0.4375q0 -0.3125 0.046875 -0.5q0.046875 -0.1875 0.1875 -0.328125q0.15625 -0.15625 0.515625 -0.328125q0.359375 -0.1875 0.828125 -0.34375q0.484375 -0.15625 1.046875 -0.25q0.578125 -0.09375 1.1875 -0.09375q1.078125 0 1.84375 0.21875q0.765625 0.203125 1.25 0.640625q0.5 0.4375 0.71875 1.125q0.21875 0.6875 0.21875 1.625l0 6.15625zm-2.53125 -3.921875l-0.984375 0q-0.625 0 -1.0625 0.09375q-0.4375 0.09375 -0.71875 0.28125q-0.28125 0.171875 -0.40625 0.4375q-0.125 0.265625 -0.125 0.609375q0 0.5625 0.359375 0.890625q0.375 0.328125 1.015625 0.328125q0.546875 0 1.0 -0.265625q0.453125 -0.28125 0.921875 -0.8125l0 -1.5625zm14.481781 -0.828125q0 1.234375 -0.265625 2.21875q-0.25 0.96875 -0.765625 1.65625q-0.5 0.6875 -1.25 1.0625q-0.75 0.359375 -1.7030945 0.359375q-0.40625 0 -0.75 -0.078125q-0.328125 -0.078125 -0.640625 -0.234375q-0.3125 -0.15625 -0.625 -0.390625q-0.296875 -0.234375 -0.625 -0.5625l0 4.3125q0 0.109375 -0.0625 0.1875q-0.0625 0.078125 -0.21875 0.125q-0.140625 0.0625 -0.390625 0.09375q-0.234375 0.03125 -0.625 0.03125q-0.375 0 -0.625 -0.03125q-0.234375 -0.03125 -0.390625 -0.09375q-0.140625 -0.046875 -0.203125 -0.125q-0.0625 -0.078125 -0.0625 -0.1875l0 -12.78125q0 -0.09375 0.046875 -0.171875q0.046875 -0.078125 0.171875 -0.125q0.140625 -0.0625 0.34375 -0.078125q0.21875 -0.03125 0.53125 -0.03125q0.3125 0 0.515625 0.03125q0.21875 0.015625 0.34375 0.078125q0.125 0.046875 0.171875 0.125q0.046875 0.078125 0.046875 0.171875l0 1.078125q0.40625 -0.40625 0.78125 -0.71875q0.390625 -0.3125 0.78125 -0.515625q0.40625 -0.21875 0.828125 -0.3125q0.4375 -0.109375 0.921875 -0.109375q0.9999695 0 1.7030945 0.390625q0.71875 0.390625 1.15625 1.078125q0.453125 0.6875 0.65625 1.609375q0.203125 0.90625 0.203125 1.9375zm-2.6875 0.1875q0 -0.578125 -0.09375 -1.109375q-0.078125 -0.546875 -0.296875 -0.96875q-0.20309448 -0.421875 -0.5468445 -0.671875q-0.34375 -0.25 -0.859375 -0.25q-0.25 0 -0.5 0.078125q-0.25 0.078125 -0.515625 0.25q-0.265625 0.171875 -0.546875 0.453125q-0.265625 0.28125 -0.578125 0.6875l0 3.015625q0.546875 0.6875 1.03125 1.0625q0.5 0.375 1.03125 0.375q0.5 0 0.84375 -0.25q0.359375 -0.265625 0.5780945 -0.671875q0.234375 -0.421875 0.34375 -0.9375q0.109375 -0.53125 0.109375 -1.0625z" fill-rule="nonzero"></path></g></svg>

