<?xml version="1.0" standalone="yes"?>

<svg version="1.1" viewBox="0.0 0.0 800.0 307.0" fill="none" stroke="none" stroke-linecap="square" stroke-miterlimit="10" xmlns="http://www.w3.org/2000/svg" xmlns:xlink="http://www.w3.org/1999/xlink"><clipPath id="p.0"><path d="m0 0l800.0 0l0 307.0l-800.0 0l0 -307.0z" clip-rule="nonzero"></path></clipPath><g clip-path="url(#p.0)"><path fill="#000000" fill-opacity="0.0" d="m0 0l800.2651 0l0 307.54855l-800.2651 0z" fill-rule="nonzero"></path><path fill="#69d2e7" d="m102.274055 240.51651l0 0c0 -20.230698 16.389137 -36.63092 36.606163 -36.63092l0 0c9.708557 0 19.019485 3.859314 25.884476 10.728943c6.86499 6.869629 10.721695 16.18686 10.721695 25.901978l0 0c0 20.230713 -16.389145 36.63092 -36.60617 36.63092l0 0c-20.217026 0 -36.606163 -16.400208 -36.606163 -36.63092z" fill-rule="nonzero"></path><path stroke="#000000" stroke-width="2.0" stroke-linejoin="round" stroke-linecap="butt" d="m102.274055 240.51651l0 0c0 -20.230698 16.389137 -36.63092 36.606163 -36.63092l0 0c9.708557 0 19.019485 3.859314 25.884476 10.728943c6.86499 6.869629 10.721695 16.18686 10.721695 25.901978l0 0c0 20.230713 -16.389145 36.63092 -36.60617 36.63092l0 0c-20.217026 0 -36.606163 -16.400208 -36.606163 -36.63092z" fill-rule="nonzero"></path><path fill="#000000" d="m146.0241 247.10838q0 0.09375 -0.046875 0.171875q-0.046875 0.0625 -0.1875 0.109375q-0.140625 0.046875 -0.359375 0.078125q-0.21875 0.03125 -0.5625 0.03125q-0.328125 0 -0.5625 -0.03125q-0.21875 -0.03125 -0.359375 -0.078125q-0.125 -0.046875 -0.1875 -0.109375q-0.046875 -0.078125 -0.046875 -0.171875l0 -9.78125l-0.015625 0l-3.484375 9.765625q-0.03125 0.125 -0.125 0.203125q-0.078125 0.078125 -0.21875 0.125q-0.140625 0.046875 -0.375 0.0625q-0.21875 0.015625 -0.53125 0.015625q-0.3125 0 -0.53125 -0.03125q-0.21875 -0.015625 -0.375 -0.0625q-0.140625 -0.0625 -0.234375 -0.125q-0.078125 -0.078125 -0.09375 -0.1875l-3.359375 -9.765625l-0.015625 0l0 9.78125q0 0.09375 -0.0625 0.171875q-0.046875 0.0625 -0.1875 0.109375q-0.140625 0.046875 -0.359375 0.078125q-0.21875 0.03125 -0.5625 0.03125q-0.328125 0 -0.5625 -0.03125q-0.21875 -0.03125 -0.359375 -0.078125q-0.125 -0.046875 -0.171875 -0.109375q-0.046875 -0.078125 -0.046875 -0.171875l0 -10.703125q0 -0.46875 0.25 -0.71875q0.25 -0.25 0.671875 -0.25l1.59375 0q0.421875 0 0.71875 0.078125q0.3125 0.0625 0.53125 0.21875q0.234375 0.15625 0.375 0.421875q0.15625 0.265625 0.265625 0.65625l2.59375 7.15625l0.03125 0l2.703125 -7.140625q0.109375 -0.390625 0.25 -0.65625q0.15625 -0.265625 0.34375 -0.421875q0.1875 -0.171875 0.4375 -0.234375q0.265625 -0.078125 0.609375 -0.078125l1.640625 0q0.25 0 0.4375 0.0625q0.1875 0.0625 0.296875 0.1875q0.109375 0.125 0.171875 0.3125q0.0625 0.171875 0.0625 0.40625l0 10.703125z" fill-rule="nonzero"></path><path fill="#cccccc" d="m39.357544 210.51006l0 0c0 3.6588287 11.864243 6.624893 26.499527 6.624893c14.635292 0 26.499535 -2.9660645 26.499535 -6.624893l0 60.0121c0 3.6588135 -11.864243 6.624878 -26.499535 6.624878c-14.635284 0 -26.499527 -2.9660645 -26.499527 -6.624878z" fill-rule="nonzero"></path><path fill="#e0e0e0" d="m39.357544 210.51006l0 0c0 -3.6588135 11.864243 -6.624878 26.499527 -6.624878c14.635292 0 26.499535 2.9660645 26.499535 6.624878l0 0c0 3.6588287 -11.864243 6.624893 -26.499535 6.624893c-14.635284 0 -26.499527 -2.9660645 -26.499527 -6.624893z" fill-rule="nonzero"></path><path fill="#000000" fill-opacity="0.0" d="m92.356606 210.51006l0 0c0 3.6588287 -11.864243 6.624893 -26.499535 6.624893c-14.635284 0 -26.499527 -2.9660645 -26.499527 -6.624893l0 0c0 -3.6588135 11.864243 -6.624878 26.499527 -6.624878c14.635292 0 26.499535 2.9660645 26.499535 6.624878l0 60.0121c0 3.6588135 -11.864243 6.624878 -26.499535 6.624878c-14.635284 0 -26.499527 -2.9660645 -26.499527 -6.624878l0 -60.0121" fill-rule="nonzero"></path><path stroke="#666666" stroke-width="2.0" stroke-linejoin="round" stroke-linecap="butt" d="m92.356606 210.51006l0 0c0 3.6588287 -11.864243 6.624893 -26.499535 6.624893c-14.635284 0 -26.499527 -2.9660645 -26.499527 -6.624893l0 0c0 -3.6588135 11.864243 -6.624878 26.499527 -6.624878c14.635292 0 26.499535 2.9660645 26.499535 6.624878l0 60.0121c0 3.6588135 -11.864243 6.624878 -26.499535 6.624878c-14.635284 0 -26.499527 -2.9660645 -26.499527 -6.624878l0 -60.0121" fill-rule="nonzero"></path><path fill="#cccccc" d="m710.28955 137.27425l0 0c0 3.6588135 11.864258 6.624878 26.499573 6.624878c14.635254 0 26.499512 -2.9660645 26.499512 -6.624878l0 60.012085c0 3.6588287 -11.864258 6.624893 -26.499512 6.624893c-14.635315 0 -26.499573 -2.9660645 -26.499573 -6.624893z" fill-rule="nonzero"></path><path fill="#e0e0e0" d="m710.28955 137.27425l0 0c0 -3.6588287 11.864258 -6.624893 26.499573 -6.624893c14.635254 0 26.499512 2.9660645 26.499512 6.624893l0 0c0 3.6588135 -11.864258 6.624878 -26.499512 6.624878c-14.635315 0 -26.499573 -2.9660645 -26.499573 -6.624878z" fill-rule="nonzero"></path><path fill="#000000" fill-opacity="0.0" d="m763.28864 137.27425l0 0c0 3.6588135 -11.864258 6.624878 -26.499512 6.624878c-14.635315 0 -26.499573 -2.9660645 -26.499573 -6.624878l0 0c0 -3.6588287 11.864258 -6.624893 26.499573 -6.624893c14.635254 0 26.499512 2.9660645 26.499512 6.624893l0 60.012085c0 3.6588287 -11.864258 6.624893 -26.499512 6.624893c-14.635315 0 -26.499573 -2.9660645 -26.499573 -6.624893l0 -60.012085" fill-rule="nonzero"></path><path stroke="#666666" stroke-width="2.0" stroke-linejoin="round" stroke-linecap="butt" d="m763.28864 137.27425l0 0c0 3.6588135 -11.864258 6.624878 -26.499512 6.624878c-14.635315 0 -26.499573 -2.9660645 -26.499573 -6.624878l0 0c0 -3.6588287 11.864258 -6.624893 26.499573 -6.624893c14.635254 0 26.499512 2.9660645 26.499512 6.624893l0 60.012085c0 3.6588287 -11.864258 6.624893 -26.499512 6.624893c-14.635315 0 -26.499573 -2.9660645 -26.499573 -6.624893l0 -60.012085" fill-rule="nonzero"></path><path fill="#e0e4cc" d="m233.49583 167.28033l0 0c0 -20.211533 16.38913 -36.596207 36.606155 -36.596207l0 0c9.708557 0 19.0195 3.855667 25.88446 10.7187805c6.86499 6.8631134 10.72171 16.171509 10.72171 25.877426l0 0c0 20.211533 -16.38913 36.596207 -36.60617 36.596207l0 0c-20.217026 0 -36.606155 -16.384674 -36.606155 -36.596207z" fill-rule="nonzero"></path><path stroke="#000000" stroke-width="2.0" stroke-linejoin="round" stroke-linecap="butt" d="m233.49583 167.28033l0 0c0 -20.211533 16.38913 -36.596207 36.606155 -36.596207l0 0c9.708557 0 19.0195 3.855667 25.88446 10.7187805c6.86499 6.8631134 10.72171 16.171509 10.72171 25.877426l0 0c0 20.211533 -16.38913 36.596207 -36.60617 36.596207l0 0c-20.217026 0 -36.606155 -16.384674 -36.606155 -36.596207z" fill-rule="nonzero"></path><path fill="#000000" d="m275.08255 172.7447q0 0.265625 -0.015625 0.453125q-0.015625 0.171875 -0.046875 0.296875q-0.03125 0.125 -0.09375 0.21875q-0.046875 0.09375 -0.15625 0.21875q-0.109375 0.109375 -0.4375 0.296875q-0.3125 0.1875 -0.78125 0.359375q-0.46875 0.15625 -1.078125 0.265625q-0.59375 0.125 -1.28125 0.125q-1.375 0 -2.46875 -0.421875q-1.09375 -0.421875 -1.875 -1.25q-0.765625 -0.84375 -1.171875 -2.09375q-0.40625 -1.25 -0.40625 -2.90625q0 -1.703125 0.453125 -3.015625q0.453125 -1.3125 1.25 -2.203125q0.8125 -0.890625 1.9375 -1.34375q1.140625 -0.46875 2.515625 -0.46875q0.546875 0 1.0625 0.09375q0.515625 0.09375 0.9375 0.25q0.4375 0.140625 0.78125 0.34375q0.359375 0.1875 0.5 0.328125q0.140625 0.140625 0.1875 0.234375q0.046875 0.078125 0.078125 0.234375q0.03125 0.140625 0.046875 0.34375q0.015625 0.1875 0.015625 0.46875q0 0.3125 -0.015625 0.53125q-0.015625 0.203125 -0.078125 0.34375q-0.046875 0.125 -0.125 0.1875q-0.0625 0.0625 -0.15625 0.0625q-0.15625 0 -0.390625 -0.171875q-0.234375 -0.1875 -0.609375 -0.40625q-0.375 -0.21875 -0.890625 -0.390625q-0.515625 -0.1875 -1.234375 -0.1875q-0.796875 0 -1.421875 0.328125q-0.609375 0.3125 -1.046875 0.921875q-0.4375 0.59375 -0.671875 1.453125q-0.21875 0.84375 -0.21875 1.90625q0 1.171875 0.234375 2.03125q0.25 0.859375 0.6875 1.421875q0.453125 0.546875 1.078125 0.8125q0.640625 0.265625 1.421875 0.265625q0.71875 0 1.234375 -0.15625q0.53125 -0.171875 0.90625 -0.375q0.375 -0.203125 0.609375 -0.359375q0.25 -0.171875 0.390625 -0.171875q0.09375 0 0.15625 0.046875q0.0625 0.03125 0.09375 0.15625q0.046875 0.125 0.0625 0.34375q0.03125 0.21875 0.03125 0.578125z" fill-rule="nonzero"></path><path fill="#69d2e7" d="m102.274055 94.05356l0 0c0 -20.230705 16.389137 -36.630928 36.606163 -36.630928l0 0c9.708557 0 19.019485 3.8593178 25.884476 10.7289505c6.86499 6.869629 10.721695 16.186852 10.721695 25.901978l0 0c0 20.230705 -16.389145 36.630936 -36.60617 36.630936l0 0c-20.217026 0 -36.606163 -16.40023 -36.606163 -36.630936z" fill-rule="nonzero"></path><path stroke="#000000" stroke-width="2.0" stroke-linejoin="round" stroke-linecap="butt" d="m102.274055 94.05356l0 0c0 -20.230705 16.389137 -36.630928 36.606163 -36.630928l0 0c9.708557 0 19.019485 3.8593178 25.884476 10.7289505c6.86499 6.869629 10.721695 16.186852 10.721695 25.901978l0 0c0 20.230705 -16.389145 36.630936 -36.60617 36.630936l0 0c-20.217026 0 -36.606163 -16.40023 -36.606163 -36.630936z" fill-rule="nonzero"></path><path fill="#000000" d="m146.0241 100.64543q0 0.09375 -0.046875 0.171875q-0.046875 0.0625 -0.1875 0.109375q-0.140625 0.046875 -0.359375 0.078125q-0.21875 0.03125 -0.5625 0.03125q-0.328125 0 -0.5625 -0.03125q-0.21875 -0.03125 -0.359375 -0.078125q-0.125 -0.046875 -0.1875 -0.109375q-0.046875 -0.078125 -0.046875 -0.171875l0 -9.78125l-0.015625 0l-3.484375 9.765625q-0.03125 0.125 -0.125 0.203125q-0.078125 0.078125 -0.21875 0.125q-0.140625 0.046875 -0.375 0.0625q-0.21875 0.015625 -0.53125 0.015625q-0.3125 0 -0.53125 -0.03125q-0.21875 -0.015625 -0.375 -0.0625q-0.140625 -0.0625 -0.234375 -0.125q-0.078125 -0.078125 -0.09375 -0.1875l-3.359375 -9.765625l-0.015625 0l0 9.78125q0 0.09375 -0.0625 0.171875q-0.046875 0.0625 -0.1875 0.109375q-0.140625 0.046875 -0.359375 0.078125q-0.21875 0.03125 -0.5625 0.03125q-0.328125 0 -0.5625 -0.03125q-0.21875 -0.03125 -0.359375 -0.078125q-0.125 -0.046875 -0.171875 -0.109375q-0.046875 -0.078125 -0.046875 -0.171875l0 -10.703125q0 -0.46875 0.25 -0.71875q0.25 -0.25 0.671875 -0.25l1.59375 0q0.421875 0 0.71875 0.078125q0.3125 0.0625 0.53125 0.21875q0.234375 0.15625 0.375 0.421875q0.15625 0.265625 0.265625 0.65625l2.59375 7.15625l0.03125 0l2.703125 -7.140625q0.109375 -0.390625 0.25 -0.65625q0.15625 -0.265625 0.34375 -0.421875q0.1875 -0.171875 0.4375 -0.234375q0.265625 -0.078125 0.609375 -0.078125l1.640625 0q0.25 0 0.4375 0.0625q0.1875 0.0625 0.296875 0.1875q0.109375 0.125 0.171875 0.3125q0.0625 0.171875 0.0625 0.40625l0 10.703125z" fill-rule="nonzero"></path><path fill="#cccccc" d="m39.357544 64.047104l0 0c0 3.658821 11.864243 6.6248856 26.499527 6.6248856c14.635292 0 26.499535 -2.9660645 26.499535 -6.6248856l0 60.012093c0 3.658821 -11.864243 6.6248856 -26.499535 6.6248856c-14.635284 0 -26.499527 -2.9660645 -26.499527 -6.6248856z" fill-rule="nonzero"></path><path fill="#e0e0e0" d="m39.357544 64.047104l0 0c0 -3.658821 11.864243 -6.6248817 26.499527 -6.6248817c14.635292 0 26.499535 2.9660606 26.499535 6.6248817l0 0c0 3.658821 -11.864243 6.6248856 -26.499535 6.6248856c-14.635284 0 -26.499527 -2.9660645 -26.499527 -6.6248856z" fill-rule="nonzero"></path><path fill="#000000" fill-opacity="0.0" d="m92.356606 64.047104l0 0c0 3.658821 -11.864243 6.6248856 -26.499535 6.6248856c-14.635284 0 -26.499527 -2.9660645 -26.499527 -6.6248856l0 0c0 -3.658821 11.864243 -6.6248817 26.499527 -6.6248817c14.635292 0 26.499535 2.9660606 26.499535 6.6248817l0 60.012093c0 3.658821 -11.864243 6.6248856 -26.499535 6.6248856c-14.635284 0 -26.499527 -2.9660645 -26.499527 -6.6248856l0 -60.012093" fill-rule="nonzero"></path><path stroke="#666666" stroke-width="2.0" stroke-linejoin="round" stroke-linecap="butt" d="m92.356606 64.047104l0 0c0 3.658821 -11.864243 6.6248856 -26.499535 6.6248856c-14.635284 0 -26.499527 -2.9660645 -26.499527 -6.6248856l0 0c0 -3.658821 11.864243 -6.6248817 26.499527 -6.6248817c14.635292 0 26.499535 2.9660606 26.499535 6.6248817l0 60.012093c0 3.658821 -11.864243 6.6248856 -26.499535 6.6248856c-14.635284 0 -26.499527 -2.9660645 -26.499527 -6.6248856l0 -60.012093" fill-rule="nonzero"></path><path fill="#a7dbd8" d="m364.7188 167.27966l0 0c0 -20.230713 16.38913 -36.630936 36.60617 -36.630936l0 0c9.708557 0 19.01947 3.859314 25.88446 10.728958c6.86499 6.869629 10.72168 16.186844 10.72168 25.901978l0 0c0 20.230698 -16.38913 36.63092 -36.60614 36.63092l0 0c-20.217041 0 -36.60617 -16.400223 -36.60617 -36.63092z" fill-rule="nonzero"></path><path stroke="#000000" stroke-width="2.0" stroke-linejoin="round" stroke-linecap="butt" d="m364.7188 167.27966l0 0c0 -20.230713 16.38913 -36.630936 36.60617 -36.630936l0 0c9.708557 0 19.01947 3.859314 25.88446 10.728958c6.86499 6.869629 10.72168 16.186844 10.72168 25.901978l0 0c0 20.230698 -16.38913 36.63092 -36.60614 36.63092l0 0c-20.217041 0 -36.60617 -16.400223 -36.60617 -36.63092z" fill-rule="nonzero"></path><path fill="#000000" d="m406.6181 174.41591q0 0.109375 -0.046875 0.1875q-0.046875 0.078125 -0.203125 0.125q-0.140625 0.046875 -0.4375 0.0625q-0.296875 0.03125 -0.8125 0.03125q-0.4375 0 -0.703125 -0.03125q-0.25 -0.015625 -0.40625 -0.0625q-0.140625 -0.0625 -0.203125 -0.140625q-0.0625 -0.09375 -0.09375 -0.21875l-1.1875 -2.96875q-0.21875 -0.5 -0.421875 -0.890625q-0.203125 -0.390625 -0.453125 -0.640625q-0.25 -0.265625 -0.578125 -0.390625q-0.328125 -0.140625 -0.765625 -0.140625l-0.84375 0l0 5.046875q0 0.109375 -0.0625 0.1875q-0.0625 0.078125 -0.21875 0.140625q-0.15625 0.046875 -0.421875 0.078125q-0.25 0.03125 -0.640625 0.03125q-0.390625 0 -0.65625 -0.03125q-0.265625 -0.03125 -0.421875 -0.078125q-0.15625 -0.0625 -0.21875 -0.140625q-0.046875 -0.078125 -0.046875 -0.1875l0 -12.046875q0 -0.453125 0.21875 -0.640625q0.234375 -0.203125 0.578125 -0.203125l3.4375 0q0.515625 0 0.84375 0.015625q0.34375 0.015625 0.625 0.046875q0.796875 0.125 1.4375 0.40625q0.640625 0.265625 1.078125 0.71875q0.453125 0.4375 0.6875 1.046875q0.25 0.609375 0.25 1.40625q0 0.65625 -0.171875 1.21875q-0.171875 0.546875 -0.5 0.984375q-0.328125 0.421875 -0.8125 0.734375q-0.484375 0.3125 -1.09375 0.515625q0.296875 0.140625 0.546875 0.34375q0.265625 0.203125 0.5 0.5q0.234375 0.296875 0.4375 0.671875q0.203125 0.375 0.40625 0.84375l1.109375 2.609375q0.15625 0.390625 0.203125 0.578125q0.0625 0.171875 0.0625 0.28125zm-3.484375 -9.015625q0 -0.65625 -0.296875 -1.09375q-0.296875 -0.453125 -0.96875 -0.640625q-0.203125 -0.046875 -0.46875 -0.078125q-0.265625 -0.03125 -0.71875 -0.03125l-1.21875 0l0 3.765625l1.375 0q0.578125 0 1.0 -0.140625q0.4375 -0.140625 0.71875 -0.390625q0.296875 -0.25 0.4375 -0.59375q0.140625 -0.359375 0.140625 -0.796875z" fill-rule="nonzero"></path><path fill="#000000" fill-opacity="0.0" d="m164.7647 214.61453l68.73114 -47.334198" fill-rule="nonzero"></path><path stroke="#000000" stroke-width="2.0" stroke-linejoin="round" stroke-linecap="butt" d="m164.7647 214.61455l58.84813 -40.52791" fill-rule="evenodd"></path><path fill="#000000" stroke="#000000" stroke-width="2.0" stroke-linecap="butt" d="m225.48651 176.80733l5.6013184 -7.868637l-9.348724 2.4272614z" fill-rule="evenodd"></path><path fill="#000000" fill-opacity="0.0" d="m164.7647 119.955536l68.73114 47.3248" fill-rule="nonzero"></path><path stroke="#000000" stroke-width="2.0" stroke-linejoin="round" stroke-linecap="butt" d="m164.7647 119.955536l58.84749 40.519424" fill-rule="evenodd"></path><path fill="#000000" stroke="#000000" stroke-width="2.0" stroke-linecap="butt" d="m221.73874 163.19582l9.348938 2.4263916l-5.602051 -7.8681183z" fill-rule="evenodd"></path><path fill="#000000" fill-opacity="0.0" d="m306.70816 167.28033l58.01065 -6.713867E-4" fill-rule="nonzero"></path><path stroke="#000000" stroke-width="2.0" stroke-linejoin="round" stroke-linecap="butt" d="m306.70816 167.28033l46.01062 -5.340576E-4" fill-rule="evenodd"></path><path fill="#000000" stroke="#000000" stroke-width="2.0" stroke-linecap="butt" d="m352.71884 170.58327l9.076141 -3.3035736l-9.076233 -3.30336z" fill-rule="evenodd"></path><path fill="#a7dbd8" d="m495.93866 167.27966l0 0c0 -20.230713 16.38916 -36.630936 36.60614 -36.630936l0 0c9.708557 0 19.019531 3.859314 25.88446 10.728958c6.86499 6.869629 10.721741 16.186844 10.721741 25.901978l0 0c0 20.230698 -16.38916 36.63092 -36.6062 36.63092l0 0c-20.21698 0 -36.60614 -16.400223 -36.60614 -36.63092z" fill-rule="nonzero"></path><path stroke="#000000" stroke-width="2.0" stroke-linejoin="round" stroke-linecap="butt" d="m495.93866 167.27966l0 0c0 -20.230713 16.38916 -36.630936 36.60614 -36.630936l0 0c9.708557 0 19.019531 3.859314 25.88446 10.728958c6.86499 6.869629 10.721741 16.186844 10.721741 25.901978l0 0c0 20.230698 -16.38916 36.63092 -36.6062 36.63092l0 0c-20.21698 0 -36.60614 -16.400223 -36.60614 -36.63092z" fill-rule="nonzero"></path><path fill="#000000" d="m537.83795 174.41591q0 0.109375 -0.046875 0.1875q-0.046875 0.078125 -0.203125 0.125q-0.140625 0.046875 -0.4375 0.0625q-0.296875 0.03125 -0.8125 0.03125q-0.4375 0 -0.703125 -0.03125q-0.25 -0.015625 -0.40625 -0.0625q-0.140625 -0.0625 -0.203125 -0.140625q-0.0625 -0.09375 -0.09375 -0.21875l-1.1875 -2.96875q-0.21875 -0.5 -0.421875 -0.890625q-0.203125 -0.390625 -0.453125 -0.640625q-0.25 -0.265625 -0.578125 -0.390625q-0.328125 -0.140625 -0.765625 -0.140625l-0.84375 0l0 5.046875q0 0.109375 -0.0625 0.1875q-0.0625 0.078125 -0.21875 0.140625q-0.15625 0.046875 -0.421875 0.078125q-0.25 0.03125 -0.640625 0.03125q-0.390625 0 -0.65625 -0.03125q-0.265625 -0.03125 -0.421875 -0.078125q-0.15625 -0.0625 -0.21875 -0.140625q-0.046875 -0.078125 -0.046875 -0.1875l0 -12.046875q0 -0.453125 0.21875 -0.640625q0.234375 -0.203125 0.578125 -0.203125l3.4375 0q0.515625 0 0.84375 0.015625q0.34375 0.015625 0.625 0.046875q0.796875 0.125 1.4375 0.40625q0.640625 0.265625 1.078125 0.71875q0.453125 0.4375 0.6875 1.046875q0.25 0.609375 0.25 1.40625q0 0.65625 -0.171875 1.21875q-0.171875 0.546875 -0.5 0.984375q-0.328125 0.421875 -0.8125 0.734375q-0.484375 0.3125 -1.09375 0.515625q0.296875 0.140625 0.546875 0.34375q0.265625 0.203125 0.5 0.5q0.234375 0.296875 0.4375 0.671875q0.203125 0.375 0.40625 0.84375l1.109375 2.609375q0.15625 0.390625 0.203125 0.578125q0.0625 0.171875 0.0625 0.28125zm-3.484375 -9.015625q0 -0.65625 -0.296875 -1.09375q-0.296875 -0.453125 -0.96875 -0.640625q-0.203125 -0.046875 -0.46875 -0.078125q-0.265625 -0.03125 -0.71875 -0.03125l-1.21875 0l0 3.765625l1.375 0q0.578125 0 1.0 -0.140625q0.4375 -0.140625 0.71875 -0.390625q0.296875 -0.25 0.4375 -0.59375q0.140625 -0.359375 0.140625 -0.796875z" fill-rule="nonzero"></path><path fill="#000000" fill-opacity="0.0" d="m437.93112 167.27966l58.007538 0" fill-rule="nonzero"></path><path stroke="#000000" stroke-width="2.0" stroke-linejoin="round" stroke-linecap="butt" d="m437.93115 167.27966l46.007507 0" fill-rule="evenodd"></path><path fill="#000000" stroke="#000000" stroke-width="2.0" stroke-linecap="butt" d="m483.93866 170.58313l9.076172 -3.3034668l-9.076172 -3.3034668z" fill-rule="evenodd"></path><path fill="#000000" fill-opacity="0.0" d="m532.5448 130.64873l0 -65.623184" fill-rule="nonzero"></path><path stroke="#000000" stroke-width="2.0" stroke-linejoin="round" stroke-linecap="butt" d="m532.5448 130.64873l0 -65.623184" fill-rule="nonzero"></path><path fill="#000000" fill-opacity="0.0" d="m533.09186 66.11104l-263.5366 0" fill-rule="nonzero"></path><path stroke="#000000" stroke-width="2.0" stroke-linejoin="round" stroke-linecap="butt" d="m533.09186 66.11104l-263.5366 0" fill-rule="nonzero"></path><path fill="#000000" fill-opacity="0.0" d="m270.102 64.9915l0 65.69263" fill-rule="nonzero"></path><path stroke="#000000" stroke-width="2.0" stroke-linejoin="round" stroke-linecap="butt" d="m270.102 64.99151l0 53.69262" fill-rule="evenodd"></path><path fill="#000000" stroke="#000000" stroke-width="2.0" stroke-linecap="butt" d="m266.79852 118.68413l3.3034668 9.076195l3.3034668 -9.076195z" fill-rule="evenodd"></path><path fill="#69d2e7" d="m627.1593 167.2807l0 0c0 -20.230713 16.3891 -36.630936 36.60614 -36.630936l0 0c9.708557 0 19.01947 3.859314 25.88446 10.728958c6.86499 6.869629 10.72168 16.186844 10.72168 25.901978l0 0c0 20.230698 -16.3891 36.63092 -36.60614 36.63092l0 0c-20.217041 0 -36.60614 -16.400223 -36.60614 -36.63092z" fill-rule="nonzero"></path><path stroke="#000000" stroke-width="2.0" stroke-linejoin="round" stroke-linecap="butt" d="m627.1593 167.2807l0 0c0 -20.230713 16.3891 -36.630936 36.60614 -36.630936l0 0c9.708557 0 19.01947 3.859314 25.88446 10.728958c6.86499 6.869629 10.72168 16.186844 10.72168 25.901978l0 0c0 20.230698 -16.3891 36.63092 -36.60614 36.63092l0 0c-20.217041 0 -36.60614 -16.400223 -36.60614 -36.63092z" fill-rule="nonzero"></path><path fill="#000000" d="m670.9093 173.87257q0 0.09375 -0.046875 0.171875q-0.046875 0.0625 -0.1875 0.109375q-0.140625 0.046875 -0.359375 0.078125q-0.21875 0.03125 -0.5625 0.03125q-0.328125 0 -0.5625 -0.03125q-0.21875 -0.03125 -0.359375 -0.078125q-0.125 -0.046875 -0.1875 -0.109375q-0.046875 -0.078125 -0.046875 -0.171875l0 -9.78125l-0.015625 0l-3.484375 9.765625q-0.03125 0.125 -0.125 0.203125q-0.078125 0.078125 -0.21875 0.125q-0.140625 0.046875 -0.375 0.0625q-0.21875 0.015625 -0.53125 0.015625q-0.3125 0 -0.53125 -0.03125q-0.21875 -0.015625 -0.375 -0.0625q-0.140625 -0.0625 -0.234375 -0.125q-0.078125 -0.078125 -0.09375 -0.1875l-3.359375 -9.765625l-0.015625 0l0 9.78125q0 0.09375 -0.0625 0.171875q-0.046875 0.0625 -0.1875 0.109375q-0.140625 0.046875 -0.359375 0.078125q-0.21875 0.03125 -0.5625 0.03125q-0.328125 0 -0.5625 -0.03125q-0.21875 -0.03125 -0.359375 -0.078125q-0.125 -0.046875 -0.171875 -0.109375q-0.046875 -0.078125 -0.046875 -0.171875l0 -10.703125q0 -0.46875 0.25 -0.71875q0.25 -0.25 0.671875 -0.25l1.59375 0q0.421875 0 0.71875 0.078125q0.3125 0.0625 0.53125 0.21875q0.234375 0.15625 0.375 0.421875q0.15625 0.265625 0.265625 0.65625l2.59375 7.15625l0.03125 0l2.703125 -7.140625q0.109375 -0.390625 0.25 -0.65625q0.15625 -0.265625 0.34375 -0.421875q0.1875 -0.171875 0.4375 -0.234375q0.265625 -0.078125 0.609375 -0.078125l1.640625 0q0.25 0 0.4375 0.0625q0.1875 0.0625 0.296875 0.1875q0.109375 0.125 0.171875 0.3125q0.0625 0.171875 0.0625 0.40625l0 10.703125z" fill-rule="nonzero"></path><path fill="#000000" fill-opacity="0.0" d="m569.151 167.27966l58.0083 0.0010375977" fill-rule="nonzero"></path><path stroke="#000000" stroke-width="2.0" stroke-linejoin="round" stroke-linecap="butt" d="m569.151 167.27966l46.0083 8.239746E-4" fill-rule="evenodd"></path><path fill="#000000" stroke="#000000" stroke-width="2.0" stroke-linecap="butt" d="m615.15924 170.58395l9.076233 -3.3033142l-9.076111 -3.3036194z" fill-rule="evenodd"></path><path fill="#000000" fill-opacity="0.0" d="m269.82153 24.22273l263.53662 0l0 40.797478l-263.53662 0z" fill-rule="nonzero"></path><path fill="#000000" d="m283.57153 55.84086q0 0.109375 -0.078125 0.203125q-0.078125 0.09375 -0.25 0.15625q-0.171875 0.0625 -0.46875 0.09375q-0.296875 0.046875 -0.75 0.046875q-0.453125 0 -0.75 -0.046875q-0.296875 -0.03125 -0.46875 -0.09375q-0.171875 -0.0625 -0.25 -0.15625q-0.078125 -0.09375 -0.078125 -0.203125l0 -14.328125q0 -0.109375 0.078125 -0.203125q0.078125 -0.09375 0.25 -0.15625q0.1875 -0.0625 0.46875 -0.09375q0.296875 -0.03125 0.75 -0.03125q0.453125 0 0.75 0.03125q0.296875 0.03125 0.46875 0.09375q0.171875 0.0625 0.25 0.15625q0.078125 0.09375 0.078125 0.203125l0 14.328125zm9.3203125 -1.015625q0 0.515625 -0.078125 0.796875q-0.0625 0.28125 -0.171875 0.390625q-0.09375 0.109375 -0.296875 0.203125q-0.203125 0.078125 -0.484375 0.140625q-0.28125 0.078125 -0.609375 0.109375q-0.3125 0.03125 -0.640625 0.03125q-0.875 0 -1.53125 -0.234375q-0.640625 -0.21875 -1.0625 -0.671875q-0.421875 -0.46875 -0.625 -1.171875q-0.1875 -0.703125 -0.1875 -1.65625l0 -5.359375l-1.25 0q-0.234375 0 -0.359375 -0.265625q-0.109375 -0.28125 -0.109375 -0.9375q0 -0.328125 0.03125 -0.5625q0.03125 -0.234375 0.09375 -0.375q0.0625 -0.140625 0.140625 -0.1875q0.09375 -0.0625 0.203125 -0.0625l1.25 0l0 -2.328125q0 -0.125 0.0625 -0.21875q0.0625 -0.09375 0.234375 -0.15625q0.171875 -0.0625 0.453125 -0.09375q0.296875 -0.03125 0.71875 -0.03125q0.421875 0 0.703125 0.03125q0.296875 0.03125 0.453125 0.09375q0.171875 0.0625 0.234375 0.15625q0.078125 0.09375 0.078125 0.21875l0 2.328125l2.28125 0q0.109375 0 0.1875 0.0625q0.09375 0.046875 0.15625 0.1875q0.0625 0.140625 0.09375 0.375q0.03125 0.234375 0.03125 0.5625q0 0.65625 -0.125 0.9375q-0.109375 0.265625 -0.34375 0.265625l-2.28125 0l0 4.90625q0 0.859375 0.265625 1.296875q0.28125 0.421875 0.96875 0.421875q0.234375 0 0.421875 -0.046875q0.1875 -0.046875 0.328125 -0.09375q0.15625 -0.046875 0.25 -0.09375q0.09375 -0.046875 0.1875 -0.046875q0.0625 0 0.125 0.046875q0.0625 0.046875 0.09375 0.171875q0.046875 0.109375 0.078125 0.328125q0.03125 0.203125 0.03125 0.53125zm11.7890625 -4.5q0 0.546875 -0.25 0.8125q-0.234375 0.25 -0.65625 0.25l-6.359375 0q0 0.671875 0.15625 1.21875q0.15625 0.53125 0.5 0.921875q0.34375 0.375 0.890625 0.578125q0.546875 0.203125 1.3125 0.203125q0.765625 0 1.34375 -0.109375q0.59375 -0.125 1.015625 -0.25q0.4375 -0.140625 0.71875 -0.25q0.28125 -0.109375 0.453125 -0.109375q0.109375 0 0.171875 0.046875q0.078125 0.03125 0.125 0.140625q0.046875 0.109375 0.0625 0.296875q0.015625 0.1875 0.015625 0.484375q0 0.265625 -0.015625 0.453125q0 0.171875 -0.03125 0.296875q-0.015625 0.125 -0.0625 0.21875q-0.046875 0.09375 -0.125 0.171875q-0.078125 0.078125 -0.421875 0.21875q-0.34375 0.140625 -0.875 0.28125q-0.515625 0.140625 -1.203125 0.234375q-0.671875 0.09375 -1.453125 0.09375q-1.390625 0 -2.4375 -0.34375q-1.046875 -0.359375 -1.75 -1.0625q-0.703125 -0.71875 -1.046875 -1.8125q-0.34375 -1.09375 -0.34375 -2.5625q0 -1.390625 0.359375 -2.5q0.359375 -1.125 1.046875 -1.90625q0.703125 -0.78125 1.6875 -1.1875q0.984375 -0.40625 2.234375 -0.40625q1.3125 0 2.234375 0.390625q0.9375 0.375 1.53125 1.0625q0.609375 0.6875 0.890625 1.625q0.28125 0.9375 0.28125 2.03125l0 0.46875zm-2.859375 -0.84375q0.03125 -1.234375 -0.5 -1.9375q-0.53125 -0.71875 -1.65625 -0.71875q-0.5625 0 -0.984375 0.21875q-0.40625 0.203125 -0.6875 0.5625q-0.265625 0.359375 -0.421875 0.84375q-0.140625 0.484375 -0.15625 1.03125l4.40625 0zm11.988281 -3.09375q0 0.421875 -0.03125 0.6875q-0.015625 0.265625 -0.0625 0.421875q-0.046875 0.15625 -0.125 0.21875q-0.0625 0.046875 -0.1875 0.046875q-0.09375 0 -0.21875 -0.03125q-0.109375 -0.046875 -0.265625 -0.09375q-0.140625 -0.046875 -0.3125 -0.078125q-0.171875 -0.046875 -0.390625 -0.046875q-0.234375 0 -0.484375 0.09375q-0.25 0.09375 -0.515625 0.3125q-0.265625 0.203125 -0.546875 0.5625q-0.28125 0.34375 -0.609375 0.859375l0 6.515625q0 0.125 -0.078125 0.21875q-0.0625 0.078125 -0.234375 0.140625q-0.171875 0.0625 -0.453125 0.09375q-0.28125 0.03125 -0.71875 0.03125q-0.4375 0 -0.71875 -0.03125q-0.28125 -0.03125 -0.453125 -0.09375q-0.15625 -0.0625 -0.234375 -0.140625q-0.0625 -0.09375 -0.0625 -0.21875l0 -10.453125q0 -0.109375 0.046875 -0.1875q0.0625 -0.09375 0.21875 -0.15625q0.15625 -0.0625 0.390625 -0.09375q0.234375 -0.03125 0.609375 -0.03125q0.375 0 0.609375 0.03125q0.25 0.03125 0.375 0.09375q0.140625 0.0625 0.203125 0.15625q0.0625 0.078125 0.0625 0.1875l0 1.3125q0.40625 -0.59375 0.765625 -0.96875q0.375 -0.390625 0.703125 -0.609375q0.328125 -0.21875 0.65625 -0.296875q0.328125 -0.09375 0.65625 -0.09375q0.140625 0 0.3125 0.015625q0.1875 0.015625 0.375 0.0625q0.1875 0.03125 0.328125 0.09375q0.140625 0.046875 0.203125 0.109375q0.0625 0.046875 0.09375 0.125q0.03125 0.0625 0.046875 0.1875q0.03125 0.125 0.03125 0.375q0.015625 0.25 0.015625 0.671875zm10.734375 9.515625q0 0.15625 -0.125 0.25q-0.109375 0.09375 -0.375 0.140625q-0.25 0.046875 -0.734375 0.046875q-0.53125 0 -0.78125 -0.046875q-0.234375 -0.046875 -0.328125 -0.140625q-0.09375 -0.09375 -0.09375 -0.25l0 -0.84375q-0.65625 0.703125 -1.484375 1.09375q-0.8125 0.375 -1.828125 0.375q-0.828125 0 -1.53125 -0.21875q-0.6875 -0.21875 -1.203125 -0.640625q-0.515625 -0.421875 -0.796875 -1.046875q-0.28125 -0.640625 -0.28125 -1.484375q0 -0.921875 0.359375 -1.59375q0.359375 -0.671875 1.0625 -1.109375q0.71875 -0.4375 1.765625 -0.640625q1.0625 -0.21875 2.453125 -0.21875l1.015625 0l0 -0.640625q0 -0.484375 -0.09375 -0.859375q-0.09375 -0.375 -0.328125 -0.609375q-0.234375 -0.25 -0.609375 -0.359375q-0.375 -0.125 -0.9375 -0.125q-0.75 0 -1.328125 0.171875q-0.578125 0.15625 -1.03125 0.359375q-0.4375 0.1875 -0.734375 0.359375q-0.296875 0.15625 -0.484375 0.15625q-0.125 0 -0.234375 -0.078125q-0.09375 -0.078125 -0.15625 -0.234375q-0.0625 -0.15625 -0.109375 -0.375q-0.03125 -0.21875 -0.03125 -0.484375q0 -0.375 0.0625 -0.578125q0.0625 -0.21875 0.21875 -0.375q0.171875 -0.171875 0.578125 -0.375q0.40625 -0.21875 0.953125 -0.390625q0.5625 -0.171875 1.203125 -0.28125q0.65625 -0.109375 1.34375 -0.109375q1.234375 0 2.109375 0.234375q0.875 0.234375 1.4375 0.734375q0.5625 0.5 0.8125 1.296875q0.265625 0.78125 0.265625 1.859375l0 7.03125zm-2.90625 -4.484375l-1.125 0q-0.703125 0 -1.21875 0.109375q-0.5 0.109375 -0.8125 0.328125q-0.3125 0.203125 -0.46875 0.5q-0.140625 0.296875 -0.140625 0.6875q0 0.65625 0.40625 1.03125q0.421875 0.375 1.15625 0.375q0.625 0 1.140625 -0.3125q0.53125 -0.328125 1.0625 -0.9375l0 -1.78125zm12.035156 3.40625q0 0.515625 -0.078125 0.796875q-0.0625 0.28125 -0.171875 0.390625q-0.09375 0.109375 -0.296875 0.203125q-0.203125 0.078125 -0.484375 0.140625q-0.28125 0.078125 -0.609375 0.109375q-0.3125 0.03125 -0.640625 0.03125q-0.875 0 -1.53125 -0.234375q-0.640625 -0.21875 -1.0625 -0.671875q-0.421875 -0.46875 -0.625 -1.171875q-0.1875 -0.703125 -0.1875 -1.65625l0 -5.359375l-1.25 0q-0.234375 0 -0.359375 -0.265625q-0.109375 -0.28125 -0.109375 -0.9375q0 -0.328125 0.03125 -0.5625q0.03125 -0.234375 0.09375 -0.375q0.0625 -0.140625 0.140625 -0.1875q0.09375 -0.0625 0.203125 -0.0625l1.25 0l0 -2.328125q0 -0.125 0.0625 -0.21875q0.0625 -0.09375 0.234375 -0.15625q0.171875 -0.0625 0.453125 -0.09375q0.296875 -0.03125 0.71875 -0.03125q0.421875 0 0.703125 0.03125q0.296875 0.03125 0.453125 0.09375q0.171875 0.0625 0.234375 0.15625q0.078125 0.09375 0.078125 0.21875l0 2.328125l2.28125 0q0.109375 0 0.1875 0.0625q0.09375 0.046875 0.15625 0.1875q0.0625 0.140625 0.09375 0.375q0.03125 0.234375 0.03125 0.5625q0 0.65625 -0.125 0.9375q-0.109375 0.265625 -0.34375 0.265625l-2.28125 0l0 4.90625q0 0.859375 0.265625 1.296875q0.28125 0.421875 0.96875 0.421875q0.234375 0 0.421875 -0.046875q0.1875 -0.046875 0.328125 -0.09375q0.15625 -0.046875 0.25 -0.09375q0.09375 -0.046875 0.1875 -0.046875q0.0625 0 0.125 0.046875q0.0625 0.046875 0.09375 0.171875q0.046875 0.109375 0.078125 0.328125q0.03125 0.203125 0.03125 0.53125zm11.7890625 -4.5q0 0.546875 -0.25 0.8125q-0.234375 0.25 -0.65625 0.25l-6.359375 0q0 0.671875 0.15625 1.21875q0.15625 0.53125 0.5 0.921875q0.34375 0.375 0.890625 0.578125q0.546875 0.203125 1.3125 0.203125q0.765625 0 1.34375 -0.109375q0.59375 -0.125 1.015625 -0.25q0.4375 -0.140625 0.71875 -0.25q0.28125 -0.109375 0.453125 -0.109375q0.109375 0 0.171875 0.046875q0.078125 0.03125 0.125 0.140625q0.046875 0.109375 0.0625 0.296875q0.015625 0.1875 0.015625 0.484375q0 0.265625 -0.015625 0.453125q0 0.171875 -0.03125 0.296875q-0.015625 0.125 -0.0625 0.21875q-0.046875 0.09375 -0.125 0.171875q-0.078125 0.078125 -0.421875 0.21875q-0.34375 0.140625 -0.875 0.28125q-0.515625 0.140625 -1.203125 0.234375q-0.671875 0.09375 -1.453125 0.09375q-1.390625 0 -2.4375 -0.34375q-1.046875 -0.359375 -1.75 -1.0625q-0.703125 -0.71875 -1.046875 -1.8125q-0.34375 -1.09375 -0.34375 -2.5625q0 -1.390625 0.359375 -2.5q0.359375 -1.125 1.046875 -1.90625q0.703125 -0.78125 1.6875 -1.1875q0.984375 -0.40625 2.234375 -0.40625q1.3125 0 2.234375 0.390625q0.9375 0.375 1.53125 1.0625q0.609375 0.6875 0.890625 1.625q0.28125 0.9375 0.28125 2.03125l0 0.46875zm-2.859375 -0.84375q0.03125 -1.234375 -0.5 -1.9375q-0.53125 -0.71875 -1.65625 -0.71875q-0.5625 0 -0.984375 0.21875q-0.40625 0.203125 -0.6875 0.5625q-0.265625 0.359375 -0.421875 0.84375q-0.140625 0.484375 -0.15625 1.03125l4.40625 0z" fill-rule="nonzero"></path></g></svg>

