<?xml version="1.0" encoding="UTF-8" standalone="no"?>
<!-- Created with Inkscape (http://www.inkscape.org/) -->

<svg
   xmlns:dc="http://purl.org/dc/elements/1.1/"
   xmlns:cc="http://creativecommons.org/ns#"
   xmlns:rdf="http://www.w3.org/1999/02/22-rdf-syntax-ns#"
   xmlns:svg="http://www.w3.org/2000/svg"
   xmlns="http://www.w3.org/2000/svg"
   version="1.1"
   width="100%"
   height="100%"
   viewBox="0 0 800 454.99998"
   id="svg3778"
   style="fill:none;stroke:none">
  <metadata
     id="metadata3905">
    <rdf:RDF>
      <cc:Work
         rdf:about="">
        <dc:format>image/svg+xml</dc:format>
        <dc:type
           rdf:resource="http://purl.org/dc/dcmitype/StillImage" />
        <dc:title></dc:title>
      </cc:Work>
    </rdf:RDF>
  </metadata>
  <defs
     id="defs3903" />
  <clipPath
     id="p.0">
    <path
       d="M 0,0 918,0 918,610 0,610 0,0 z"
       id="path3781" />
  </clipPath>
  <g
     transform="translate(52.045924,0)"
     id="g5121">
    <path
       d="m 1.4999834,379.53427 0,0 c 0,-8.1689 6.6252593,-14.79117 14.7979296,-14.79117 l 663.312377,0 c 3.92466,0 7.68857,1.55831 10.46373,4.33222 2.77514,2.7739 4.33418,6.53611 4.33418,10.45895 l 0,59.163 c 0,8.16901 -6.62522,14.79128 -14.79791,14.79128 l -663.312377,0 c -8.1726703,0 -14.7979296,-6.62227 -14.7979296,-14.79128 z"
       id="path3787"
       style="fill:#cccccc;fill-rule:nonzero" />
    <path
       d="m 1.4999834,379.53429 0,0 c 0,-8.16891 6.6252593,-14.79118 14.7979296,-14.79118 l 663.312357,0 c 3.92467,0 7.68859,1.55833 10.46373,4.33224 2.77516,2.77389 4.33417,6.5361 4.33417,10.45894 l 0,59.163 c 0,8.16901 -6.62522,14.79128 -14.7979,14.79128 l -663.312357,0 c -8.1726703,0 -14.7979296,-6.62227 -14.7979296,-14.79128 z"
       id="path3789"
       style="stroke:#000000;stroke-width:3;stroke-linecap:butt;stroke-linejoin:round" />
    <path
       d="m 183.17831,386.16593 0,0 c 0,-6.33761 5.13999,-11.47532 11.48051,-11.47532 l 107.02243,0 c 3.04481,0 5.96492,1.209 8.11792,3.36108 2.15302,2.15202 3.36257,5.07084 3.36257,8.11424 l 0,45.89969 c 0,6.33771 -5.13999,11.47532 -11.48049,11.47532 l -107.02243,0 c -6.34052,0 -11.48051,-5.13761 -11.48051,-11.47532 z"
       id="path3791"
       style="fill:#ffffff;fill-rule:nonzero" />
    <path
       d="m 183.17831,386.16595 0,0 c 0,-6.33761 5.13999,-11.47532 11.48051,-11.47532 l 107.02242,0 c 3.04481,0 5.96493,1.209 8.11793,3.36108 2.15301,2.15202 3.36256,5.07084 3.36256,8.11424 l 0,45.89969 c 0,6.33771 -5.13998,11.47532 -11.48049,11.47532 l -107.02242,0 c -6.34052,0 -11.48051,-5.13761 -11.48051,-11.47532 z"
       id="path3793"
       style="stroke:#000000;stroke-width:3;stroke-linecap:butt;stroke-linejoin:round" />
    <path
       d="m 194.92142,416.66827 0,-15.22947 3.1073,0 0,12.63531 7.71527,0 0,2.59416 -10.82257,0 z m 12.09978,-5.71766 q 0,-1.46475 0.72385,-2.84127 0.72386,-1.37641 2.04801,-2.09992 1.32411,-0.72363 2.94839,-0.72363 2.54235,0 4.14895,1.64127 1.60663,1.64115 1.60663,4.14698 0,2.52357 -1.62428,4.18244 -1.6243,1.65879 -4.096,1.65879 -1.53599,0 -2.93073,-0.68828 -1.37711,-0.68814 -2.10097,-2.02932 -0.72385,-1.34118 -0.72385,-3.24705 z m 3.019,0.15877 q 0,1.65878 0.77684,2.54119 0.79448,0.86469 1.94205,0.86469 1.14759,0 1.92443,-0.86469 0.79446,-0.8824 0.79446,-2.55878 0,-1.64127 -0.79446,-2.52357 -0.77684,-0.88241 -1.92443,-0.88241 -1.14757,0 -1.94205,0.88241 -0.77684,0.8823 -0.77684,2.54117 z m 20.23882,-2.27643 -2.89543,0.52936 q -0.15888,-0.8823 -0.67088,-1.32356 -0.51199,-0.44116 -1.34178,-0.44116 -1.11229,0 -1.76553,0.75886 -0.65322,0.75886 -0.65322,2.54119 0,1.9941 0.65322,2.80591 0.67089,0.81172 1.80081,0.81172 0.84745,0 1.37711,-0.47651 0.52966,-0.47639 0.75917,-1.64115 l 2.87781,0.49413 q -0.44141,1.99408 -1.73022,3.01768 -1.27118,1.00586 -3.42509,1.00586 -2.43641,0 -3.90178,-1.53534 -1.44773,-1.53521 -1.44773,-4.27055 0,-2.75293 1.46538,-4.28827 1.4654,-1.53532 3.93709,-1.53532 2.03035,0 3.2309,0.88241 1.20053,0.86469 1.73017,2.66475 z m 4.22037,0.10637 -2.6659,-0.49412 q 0.44136,-1.6059 1.53598,-2.38237 1.11227,-0.77649 3.28386,-0.77649 1.95972,0 2.93074,0.4765 0.97103,0.45879 1.35944,1.18229 0.38841,0.70587 0.38841,2.62949 l -0.0352,3.44109 q 0,1.46473 0.14133,2.17062 0.14117,0.68826 0.52966,1.48235 l -2.9131,0 q -0.10595,-0.29998 -0.28249,-0.86467 -0.0706,-0.26474 -0.10595,-0.35295 -0.7415,0.74113 -1.60663,1.11181 -0.86508,0.35292 -1.83611,0.35292 -1.71254,0 -2.71889,-0.91765 -0.98869,-0.93536 -0.98869,-2.36474 0,-0.95289 0.44139,-1.6765 0.45903,-0.74113 1.27116,-1.12942 0.81215,-0.4058 2.34814,-0.70588 2.06564,-0.37054 2.86012,-0.7059 l 0,-0.29994 q 0,-0.84708 -0.42374,-1.20001 -0.40605,-0.37058 -1.57128,-0.37058 -0.79449,0 -1.23586,0.31759 -0.44138,0.30009 -0.70621,1.07656 z m 3.93708,2.38227 q -0.56494,0.19414 -1.80081,0.45889 -1.21818,0.26472 -1.58896,0.51173 -0.5826,0.4059 -0.5826,1.04119 0,0.6177 0.45901,1.07646 0.45906,0.44115 1.18289,0.44115 0.7945,0 1.51835,-0.52936 0.52967,-0.40592 0.70619,-0.97061 0.10596,-0.38819 0.10596,-1.447 l 0,-0.58245 z m 5.57985,5.34709 0,-15.35289 2.94841,0 0,15.35289 -2.94841,0 z m 11.76648,0 0,-15.35289 10.52245,0 0,2.59404 -7.43281,0 0,3.63534 6.42647,0 0,2.59415 -6.42647,0 0,6.52936 -3.08964,0 z m 12.82365,-12.6353 0,-2.71759 2.94841,0 0,2.71759 -2.94841,0 z m 0,12.6353 0,-11.13533 2.94841,0 0,11.13533 -2.94841,0 z m 5.85678,0 0,-15.35289 2.94839,0 0,15.35289 -2.94839,0 z m 12.30084,-3.54703 2.9484,0.4941 q -0.56496,1.62354 -1.80082,2.47062 -1.21821,0.82942 -3.05434,0.82942 -2.89544,0 -4.29018,-1.88825 -1.09464,-1.51769 -1.09464,-3.84711 0,-2.75297 1.43008,-4.32354 1.44773,-1.57055 3.67225,-1.57055 2.47171,0 3.9018,1.64116 1.44773,1.64116 1.39474,5.0294 l -7.37983,0 q 0.0178,1.30593 0.70619,2.04706 0.68858,0.72361 1.6949,0.72361 0.68856,0 1.16524,-0.37067 0.4767,-0.3882 0.70621,-1.23524 z m 0.17654,-2.96472 q -0.0352,-1.28819 -0.6709,-1.94122 -0.6179,-0.67054 -1.51833,-0.67054 -0.97102,0 -1.58895,0.70588 -0.63558,0.68827 -0.61794,1.90588 l 4.39612,0 z m 4.07918,3.33525 2.94839,-0.4411 q 0.19421,0.84704 0.75917,1.30582 0.58262,0.44125 1.62427,0.44125 1.12991,0 1.71256,-0.42353 0.3884,-0.3001 0.3884,-0.79421 0,-0.3352 -0.21186,-0.54697 -0.21187,-0.21175 -0.98869,-0.38829 -3.54867,-0.7941 -4.5197,-1.42938 -1.30647,-0.90005 -1.30647,-2.50595 0,-1.44701 1.12993,-2.43524 1.14757,-0.98824 3.54866,-0.98824 2.29517,0 3.38978,0.74113 1.11228,0.74123 1.536,2.20598 l -2.77187,0.51174 q -0.17654,-0.65293 -0.68853,-0.98825 -0.49436,-0.35294 -1.4124,-0.35294 -1.16526,0 -1.65959,0.33532 -0.33545,0.22938 -0.33545,0.58231 0,0.3176 0.28249,0.5471 0.40606,0.28235 2.75418,0.82933 2.34813,0.52947 3.28385,1.30593 0.93571,0.77649 0.93571,2.18825 0,1.53533 -1.28881,2.62938 -1.27118,1.09417 -3.77819,1.09417 -2.27752,0 -3.60164,-0.91766 -1.32412,-0.91764 -1.73019,-2.50595 z"
       id="path3795"
       style="fill:#000000;fill-rule:nonzero" />
    <path
       d="m 329.53387,386.16593 0,0 c 0,-6.33761 5.13999,-11.47532 11.4805,-11.47532 l 107.02246,0 c 3.04481,0 5.96488,1.209 8.11789,3.36108 2.15303,2.15202 3.36261,5.07084 3.36261,8.11424 l 0,45.89969 c 0,6.33771 -5.14002,11.47532 -11.4805,11.47532 l -107.02246,0 c -6.34051,0 -11.4805,-5.13761 -11.4805,-11.47532 z"
       id="path3797"
       style="fill:#ffffff;fill-rule:nonzero" />
    <path
       d="m 329.53387,386.16595 0,0 c 0,-6.33761 5.13998,-11.47532 11.48049,-11.47532 l 107.02245,0 c 3.04481,0 5.9649,1.209 8.11791,3.36108 2.15302,2.15202 3.36259,5.07084 3.36259,8.11424 l 0,45.89969 c 0,6.33771 -5.14001,11.47532 -11.4805,11.47532 l -107.02245,0 c -6.34051,0 -11.48049,-5.13761 -11.48049,-11.47532 z"
       id="path3799"
       style="stroke:#000000;stroke-width:3;stroke-linecap:butt;stroke-linejoin:round" />
    <path
       d="m 367.50031,416.65588 0,-15.08006 3.05208,0 0,5.92804 5.96536,0 0,-5.92804 3.05208,0 0,15.08006 -3.05208,0 0,-6.6041 -5.96536,0 0,6.6041 -3.05208,0 z m 14.9355,-15.08006 5.56653,0 q 1.89021,0 2.87865,0.27732 1.31794,0.39869 2.2717,1.40396 0.95376,0.98808 1.4393,2.44411 0.50291,1.43857 0.50291,3.55329 0,1.87202 -0.4682,3.20665 -0.57227,1.64671 -1.61275,2.66939 -0.79769,0.77999 -2.15033,1.21328 -1.00577,0.31206 -2.68786,0.31206 l -5.73996,0 0,-15.08006 z m 3.05205,2.54801 0,9.98403 2.27171,0 q 1.26593,0 1.83816,-0.13868 0.74569,-0.19069 1.23124,-0.62401 0.48556,-0.45071 0.79769,-1.456 0.31214,-1.02269 0.31214,-2.77332 0,-1.75065 -0.31214,-2.68671 -0.31214,-0.93594 -0.86707,-1.45601 -0.5549,-0.51992 -1.40465,-0.71063 -0.6416,-0.13868 -2.49712,-0.13868 l -1.36996,0 z m 11.93545,12.53205 0,-15.08006 10.33538,0 0,2.54801 -7.30067,0 0,3.57062 6.3122,0 0,2.54802 -6.3122,0 0,6.41341 -3.03471,0 z m 11.84995,-4.90536 2.96536,-0.29466 q 0.26012,1.49063 1.07515,2.20127 0.83239,0.69334 2.21969,0.69334 1.474,0 2.21967,-0.62401 0.74568,-0.624 0.74568,-1.45599 0,-0.53727 -0.31215,-0.90135 -0.31214,-0.38127 -1.09248,-0.65862 -0.5376,-0.19068 -2.44512,-0.65872 -2.44511,-0.60657 -3.43358,-1.49061 -1.40463,-1.24799 -1.40463,-3.03335 0,-1.16138 0.65898,-2.16666 0.65895,-1.00539 1.89017,-1.52532 1.23123,-0.52005 2.96535,-0.52005 2.84398,0 4.2833,1.24798 1.43933,1.23071 1.50869,3.31071 l -3.05207,0.13867 q -0.19076,-1.16137 -0.83237,-1.66401 -0.64163,-0.51992 -1.94223,-0.51992 -1.31792,0 -2.08094,0.55466 -0.48557,0.34666 -0.48557,0.93594 0,0.53736 0.46822,0.91865 0.57226,0.46803 2.79196,1.00539 2.21966,0.51993 3.27747,1.09202 1.07516,0.55467 1.68212,1.52534 0.60693,0.97066 0.60693,2.39195 0,1.30001 -0.72834,2.44397 -0.71099,1.12676 -2.02892,1.68141 -1.31792,0.53724 -3.29483,0.53724 -2.86131,0 -4.40468,-1.31732 -1.52602,-1.31733 -1.82083,-3.84793 z"
       id="path3801"
       style="fill:#000000;fill-rule:nonzero" />
    <path
       d="m 475.88943,386.16593 0,0 c 0,-6.33761 5.14002,-11.47532 11.4805,-11.47532 l 107.02243,0 c 3.04483,0 5.96495,1.209 8.11797,3.36108 2.15302,2.15202 3.36254,5.07084 3.36254,8.11424 l 0,45.89969 c 0,6.33771 -5.13997,11.47532 -11.48051,11.47532 l -107.02243,0 c -6.34048,0 -11.4805,-5.13761 -11.4805,-11.47532 z"
       id="path3803"
       style="fill:#ffffff;fill-rule:nonzero" />
    <path
       d="m 475.88942,386.16595 0,0 c 0,-6.33761 5.14003,-11.47532 11.48051,-11.47532 l 107.02242,0 c 3.04481,0 5.96495,1.209 8.11797,3.36108 2.15302,2.15202 3.36254,5.07084 3.36254,8.11424 l 0,45.89969 c 0,6.33771 -5.13997,11.47532 -11.48051,11.47532 l -107.02242,0 c -6.34048,0 -11.48051,-5.13761 -11.48051,-11.47532 z"
       id="path3805"
       style="stroke:#000000;stroke-width:3;stroke-linecap:butt;stroke-linejoin:round" />
    <path
       d="m 528.94698,411.7505 2.96535,-0.29477 q 0.26014,1.49074 1.07516,2.20138 0.83238,0.69334 2.21969,0.69334 1.474,0 2.21969,-0.62401 0.74567,-0.624 0.74567,-1.45599 0,-0.53736 -0.31215,-0.90135 -0.31214,-0.38126 -1.09249,-0.65862 -0.53759,-0.19068 -2.44511,-0.65872 -2.44512,-0.60668 -3.43359,-1.49061 -1.40464,-1.24798 -1.40464,-3.03335 0,-1.16138 0.659,-2.16666 0.65895,-1.00539 1.89016,-1.52532 1.23124,-0.52005 2.96536,-0.52005 2.84396,0 4.2833,1.24798 1.43932,1.23071 1.50869,3.31071 l -3.05207,0.13867 q -0.19074,-1.16137 -0.83237,-1.66401 -0.64163,-0.52005 -1.94223,-0.52005 -1.31792,0 -2.08094,0.55466 -0.48556,0.34668 -0.48556,0.93607 0,0.53736 0.46822,0.91865 0.57225,0.46803 2.79194,1.00539 2.21968,0.51993 3.27749,1.09191 1.07517,0.55467 1.68211,1.52534 0.60694,0.97066 0.60694,2.39206 0,1.30002 -0.72835,2.44398 -0.71099,1.12663 -2.0289,1.68132 -1.31794,0.53733 -3.29485,0.53733 -2.8613,0 -4.40467,-1.31733 -1.52605,-1.31733 -1.82084,-3.84793 z m 13.84509,0.90133 2.79193,-0.34666 q 0.13882,1.07461 0.72834,1.64657 0.58964,0.55468 1.422,0.55468 0.8844,0 1.49136,-0.67594 0.62428,-0.67601 0.62428,-1.82008 0,-1.09191 -0.58963,-1.73332 -0.58959,-0.6413 -1.42196,-0.6413 -0.55493,0 -1.3353,0.22529 l 0.31215,-2.35733 q 1.17921,0.0179 1.78615,-0.51996 0.62431,-0.53736 0.62431,-1.43868 0,-0.76267 -0.4509,-1.21328 -0.45087,-0.45074 -1.19656,-0.45074 -0.74566,0 -1.2659,0.52006 -0.52022,0.51997 -0.64161,1.50793 l -2.67057,-0.46792 q 0.27747,-1.36936 0.8324,-2.18407 0.57227,-0.81468 1.57804,-1.28261 1.0058,-0.46802 2.25437,-0.46802 2.11562,0 3.41624,1.35194 1.05781,1.10933 1.05781,2.51342 0,1.99326 -2.16768,3.17193 1.28326,0.27733 2.06362,1.24801 0.78035,0.97067 0.78035,2.34002 0,1.97607 -1.45667,3.38004 -1.43931,1.40395 -3.60697,1.40395 -2.04629,0 -3.39888,-1.17865 -1.35263,-1.17867 -1.56073,-3.08528 z"
       id="path3807"
       style="fill:#000000;fill-rule:nonzero" />
    <path
       d="m 622.245,384.15869 0,0 c 0,-5.22907 4.24087,-9.46808 9.47233,-9.46808 l 37.88833,0 0,0 c 2.5122,0 4.92155,0.99761 6.69795,2.7732 1.77639,1.77556 2.77437,4.18383 2.77437,6.69488 l 0,49.91425 c 0,5.22908 -4.24093,9.468 -9.47232,9.468 l -37.88833,0 c -5.23146,0 -9.47233,-4.23892 -9.47233,-9.468 z"
       id="path3809"
       style="fill:#ffffff;fill-rule:nonzero" />
    <path
       d="m 622.24499,384.15871 0,0 c 0,-5.22907 4.24087,-9.46808 9.47232,-9.46808 l 37.88833,0 0,0 c 2.5122,0 4.92155,0.99761 6.69795,2.77318 1.77641,1.77558 2.77438,4.18386 2.77438,6.6949 l 0,49.91425 c 0,5.22907 -4.24094,9.468 -9.47233,9.468 l -37.88833,0 c -5.23145,0 -9.47232,-4.23893 -9.47232,-9.468 z"
       id="path3811"
       style="stroke:#000000;stroke-width:3;stroke-linecap:butt;stroke-linejoin:round" />
    <path
       d="m 643.44763,416.91578 0,-2.9 2.90129,0 0,2.9 -2.90129,0 z m 5.76316,0 0,-2.9 2.90129,0 0,2.9 -2.90129,0 z m 5.76325,0 0,-2.9 2.9013,0 0,2.9 -2.9013,0 z"
       id="path3813"
       style="fill:#000000;fill-rule:nonzero" />
    <path
       d="m 26.216037,374.69061 145.593573,0 0,68.85033 -145.593573,0 z"
       id="path3815"
       style="fill:#000000;fill-opacity:0;fill-rule:nonzero" />
    <path
       d="m 52.166084,412.53618 3.608896,-0.35071 q 0.325802,1.81614 1.315738,2.66785 1.002473,0.85171 2.694147,0.85171 1.791913,0 2.694139,-0.75151 0.914758,-0.76401 0.914758,-1.77853 0,-0.65132 -0.388461,-1.10223 -0.375928,-0.4634 -1.328275,-0.8016 -0.651606,-0.2255 -2.969818,-0.80162 -2.982353,-0.73901 -4.185318,-1.81613 -1.691675,-1.51561 -1.691675,-3.69496 0,-1.40282 0.789451,-2.61773 0.801977,-1.22752 2.29315,-1.86632 1.503706,-0.63873 3.621431,-0.63873 3.458526,0 5.200316,1.51553 1.754325,1.51554 1.842045,4.04566 l -3.709143,0.16281 q -0.238092,-1.41534 -1.027534,-2.02913 -0.776915,-0.62622 -2.34328,-0.62622 -1.616482,0 -2.531241,0.66383 -0.588948,0.42589 -0.588948,1.13979 0,0.65133 0.55136,1.11474 0.70173,0.5887 3.408403,1.2275 2.706671,0.63873 3.99735,1.32763 1.303212,0.6764 2.030004,1.86623 0.739328,1.17742 0.739328,2.91844 0,1.57815 -0.877163,2.95594 -0.877164,1.37774 -2.481118,2.05414 -1.603953,0.66381 -3.997357,0.66381 -3.483588,0 -5.350687,-1.60322 -1.867107,-1.61574 -2.230498,-4.69697 z m 24.134497,-7.32721 0,2.80562 -2.405931,0 0,5.3608 q 0,1.62823 0.06263,1.90383 0.07515,0.263 0.313277,0.4384 0.250618,0.17531 0.601483,0.17531 0.488701,0 1.415987,-0.3382 l 0.300741,2.73054 q -1.228019,0.526 -2.78185,0.526 -0.952348,0 -1.716736,-0.3131 -0.764381,-0.32561 -1.127781,-0.82662 -0.350864,-0.51359 -0.488701,-1.37781 -0.112782,-0.61372 -0.112782,-2.47996 l 0,-5.79919 -1.61648,0 0,-2.80562 1.61648,0 0,-2.64285 3.533712,-2.05412 0,4.69697 2.405931,0 z m 1.629014,6.46299 q 0,-1.75353 0.86463,-3.39435 0.864635,-1.64081 2.443526,-2.50504 1.59142,-0.86421 3.546238,-0.86421 3.019952,0 4.949705,1.96643 1.92976,1.95393 1.92976,4.94747 0,3.01854 -1.954817,5.01007 -1.942298,1.97894 -4.899587,1.97894 -1.829508,0 -3.496114,-0.82661 -1.654076,-0.8267 -2.518711,-2.41735 -0.86463,-1.60321 -0.86463,-3.89535 z m 3.608896,0.1879 q 0,1.97894 0.939814,3.03106 0.939822,1.05212 2.318219,1.05212 1.378399,0 2.305685,-1.05212 0.939814,-1.05212 0.939814,-3.05615 0,-1.95393 -0.939814,-3.00605 -0.927286,-1.05212 -2.305685,-1.05212 -1.378397,0 -2.318219,1.05212 -0.939814,1.05212 -0.939814,3.03114 z m 16.252572,6.65082 -3.521184,0 0,-13.30171 3.270558,0 0,1.89132 q 0.839576,-1.34023 1.503707,-1.76612 0.676672,-0.42581 1.528766,-0.42581 1.20297,0 2.31821,0.6638 l -1.09018,3.06866 q -0.8897,-0.57611 -1.65408,-0.57611 -0.739307,0 -1.253088,0.4133 -0.513759,0.40081 -0.814497,1.46544 -0.288212,1.0647 -0.288212,4.45896 l 0,4.10827 z m 9.247797,-9.24356 -3.19538,-0.5762 q 0.53882,-1.92883 1.85457,-2.85574 1.31572,-0.92682 3.90964,-0.92682 2.3558,0 3.50864,0.56362 1.15285,0.5511 1.61649,1.41532 0.47618,0.8517 0.47618,3.14385 l -0.0376,4.10824 q 0,1.75354 0.16289,2.59274 0.17545,0.82663 0.6391,1.77855 l -3.48359,0 q -0.13785,-0.35071 -0.33835,-1.03954 -0.0876,-0.31318 -0.12531,-0.41338 -0.90222,0.8768 -1.92974,1.3152 -1.02755,0.43831 -2.19292,0.43831 -2.05506,0 -3.2455,-1.11471 -1.17791,-1.11473 -1.17791,-2.81815 0,-1.1273 0.53884,-2.00403 0.53883,-0.88932 1.50371,-1.35272 0.97739,-0.476 2.80692,-0.82671 2.46858,-0.4634 3.42093,-0.86422 l 0,-0.3507 q 0,-1.01452 -0.50125,-1.44041 -0.50123,-0.43833 -1.89216,-0.43833 -0.93981,0 -1.46611,0.37572 -0.52629,0.3632 -0.85209,1.29011 z m 4.71162,2.85575 q -0.67668,0.22541 -2.14279,0.53861 -1.46611,0.31309 -1.91725,0.6137 -0.68918,0.48851 -0.68918,1.24001 0,0.73894 0.55137,1.27753 0.55135,0.53861 1.40346,0.53861 0.95234,0 1.81696,-0.6263 0.63909,-0.47591 0.83958,-1.16482 0.13785,-0.45091 0.13785,-1.71593 l 0,-0.70141 z m 6.60376,7.26461 4.02243,0.4885 q 0.1002,0.70141 0.46365,0.96442 0.50123,0.37573 1.57889,0.37573 1.37838,0 2.06759,-0.41333 0.46364,-0.27551 0.70173,-0.8893 0.1629,-0.43832 0.1629,-1.61573 l 0,-1.94142 q -1.57889,2.15433 -3.98483,2.15433 -2.68161,0 -4.24796,-2.26705 -1.22804,-1.79111 -1.22804,-4.45897 0,-3.34424 1.60396,-5.11027 1.6165,-1.76603 4.00989,-1.76603 2.46859,0 4.07254,2.16683 l 0,-1.86622 3.29561,0 0,11.93648 q 0,2.35474 -0.38845,3.51956 -0.38844,1.1649 -1.09018,1.8287 -0.70174,0.66383 -1.87964,1.03962 -1.16537,0.37573 -2.95729,0.37573 -3.38334,0 -4.79934,-1.16483 -1.41598,-1.15231 -1.41598,-2.93093 0,-0.17533 0.0126,-0.42582 z m 3.14526,-7.80321 q 0,2.11673 0.81452,3.10624 0.82702,0.977 2.03001,0.977 1.29067,0 2.18037,-1.00201 0.88968,-1.0146 0.88968,-2.99354 0,-2.06663 -0.8521,-3.06866 -0.8521,-1.00201 -2.15532,-1.00201 -1.26562,0 -2.09264,0.98943 -0.81452,0.97701 -0.81452,2.99355 z m 20.5632,2.69293 3.50865,0.5887 q -0.67666,1.92885 -2.14279,2.94336 -1.45358,1.00201 -3.64649,1.00201 -3.47105,0 -5.13766,-2.26702 -1.31574,-1.81614 -1.31574,-4.58418 0,-3.30666 1.72926,-5.17298 1.72926,-1.87873 4.37328,-1.87873 2.96981,0 4.68656,1.96643 1.71672,1.95393 1.64153,5.99959 l -8.82173,0 q 0.0376,1.56562 0.8521,2.44243 0.8145,0.86423 2.02999,0.86423 0.82705,0 1.39094,-0.45091 0.56388,-0.45091 0.8521,-1.45293 z m 0.20049,-3.55716 q -0.0376,-1.5281 -0.78944,-2.31713 -0.75186,-0.80162 -1.82952,-0.80162 -1.15284,0 -1.9047,0.83913 -0.75185,0.83921 -0.73931,2.27962 l 5.26297,0 z"
       id="path3817"
       style="fill:#000000;fill-rule:nonzero" />
    <path
       d="m 1.4999834,278.77312 0,0 c 0,-8.16898 6.6252593,-14.79118 14.7979296,-14.79118 l 663.312377,0 c 3.92466,0 7.68857,1.55832 10.46373,4.33222 2.77514,2.77391 4.33418,6.53603 4.33418,10.45896 l 0,59.16301 c 0,8.16899 -6.62522,14.79119 -14.79791,14.79119 l -663.312377,0 c -8.1726703,0 -14.7979296,-6.6222 -14.7979296,-14.79119 z"
       id="path3819"
       style="fill:#b4a7d6;fill-rule:nonzero" />
    <path
       d="m 1.4999834,278.77314 0,0 c 0,-8.16899 6.6252593,-14.79119 14.7979296,-14.79119 l 663.312357,0 c 3.92467,0 7.68859,1.55833 10.46373,4.33222 2.77516,2.77391 4.33417,6.53604 4.33417,10.45897 l 0,59.16301 c 0,8.169 -6.62522,14.79119 -14.7979,14.79119 l -663.312357,0 c -8.1726703,0 -14.7979296,-6.62219 -14.7979296,-14.79119 z"
       id="path3821"
       style="stroke:#000000;stroke-width:3;stroke-linecap:butt;stroke-linejoin:round" />
    <path
       d="m 183.17831,285.40471 0,0 c 0,-6.33763 5.13999,-11.47526 11.48051,-11.47526 l 107.02243,0 c 3.04481,0 5.96492,1.209 8.11792,3.36101 2.15302,2.15211 3.36257,5.07085 3.36257,8.11425 l 0,45.89976 c 0,6.33763 -5.13999,11.47523 -11.48049,11.47523 l -107.02243,0 c -6.34052,0 -11.48051,-5.1376 -11.48051,-11.47523 z"
       id="path3823"
       style="fill:#ffffff;fill-rule:nonzero" />
    <path
       d="m 183.17831,285.40473 0,0 c 0,-6.33764 5.13999,-11.47526 11.48051,-11.47526 l 107.02242,0 c 3.04481,0 5.96493,1.209 8.11793,3.36101 2.15301,2.1521 3.36256,5.07084 3.36256,8.11425 l 0,45.89976 c 0,6.33762 -5.13998,11.47524 -11.48049,11.47524 l -107.02242,0 c -6.34052,0 -11.48051,-5.13762 -11.48051,-11.47524 z"
       id="path3825"
       style="stroke:#000000;stroke-width:3;stroke-linecap:butt;stroke-linejoin:round" />
    <path
       d="m 224.25784,316.1546 0,-6.5628 -5.72255,-9.0372 3.69545,0 3.67751,6.16827 3.60577,-6.16827 3.6237,0 -5.74051,9.0551 0,6.5449 -3.13937,0 z m 24.26064,0 -3.42635,0 -1.36339,-3.5504 -6.24279,0 -1.29163,3.5504 -3.33666,0 6.08137,-15.6 3.33663,0 6.24281,15.6 z m -5.79429,-6.16827 -2.1527,-5.79171 -2.11682,5.79171 4.26952,0 z m 7.1984,6.16827 0,-15.6 6.63747,0 q 2.51148,0 3.64163,0.41244 1.13016,0.41244 1.81185,1.48831 0.68168,1.07584 0.68168,2.47441 0,1.75729 -1.04046,2.90488 -1.02252,1.12957 -3.08552,1.43447 1.02252,0.59169 1.68627,1.30894 0.66375,0.71723 1.79391,2.52822 l 1.91949,3.04833 -3.78517,0 -2.27826,-3.38903 q -1.20193,-1.8289 -1.65039,-2.29519 -0.44848,-0.48405 -0.95078,-0.6455 -0.5023,-0.17926 -1.59656,-0.17926 l -0.6279,0 0,6.50898 -3.15727,0 z m 3.15727,-9.0014 2.3321,0 q 2.26031,0 2.81644,-0.19726 0.57403,-0.19718 0.89694,-0.66343 0.3229,-0.46615 0.3229,-1.16547 0,-0.78899 -0.43054,-1.27314 -0.4126,-0.48416 -1.18398,-0.60959 -0.37672,-0.0538 -2.29622,-0.0538 l -2.45765,0 0,3.96271 z m 12.32897,9.0014 0,-15.6 3.06759,0 6.40427,10.41786 0,-10.41786 2.92406,0 0,15.6 -3.17518,0 -6.27873,-10.18478 0,10.18478 -2.94202,0 z"
       id="path3827"
       style="fill:#000000;fill-rule:nonzero" />
    <path
       d="m 329.53387,285.40471 0,0 c 0,-6.33763 5.13999,-11.47526 11.4805,-11.47526 l 107.02246,0 c 3.04481,0 5.96488,1.209 8.11789,3.36101 2.15303,2.15211 3.36261,5.07085 3.36261,8.11425 l 0,45.89976 c 0,6.33763 -5.14002,11.47523 -11.4805,11.47523 l -107.02246,0 c -6.34051,0 -11.4805,-5.1376 -11.4805,-11.47523 z"
       id="path3829"
       style="fill:#ffffff;fill-rule:nonzero" />
    <path
       d="m 329.53387,285.40473 0,0 c 0,-6.33764 5.13998,-11.47526 11.48049,-11.47526 l 107.02245,0 c 3.04481,0 5.9649,1.209 8.11791,3.36101 2.15302,2.1521 3.36259,5.07084 3.36259,8.11425 l 0,45.89976 c 0,6.33762 -5.14001,11.47524 -11.4805,11.47524 l -107.02245,0 c -6.34051,0 -11.48049,-5.13762 -11.48049,-11.47524 z"
       id="path3831"
       style="stroke:#000000;stroke-width:3;stroke-linecap:butt;stroke-linejoin:round" />
    <path
       d="m 365.49404,300.55474 5.66728,0 q 1.9244,0 2.93076,0.28235 1.34175,0.40592 2.31278,1.42939 0.97102,1.00596 1.4654,2.48832 0.51197,1.46461 0.51197,3.61762 0,1.90587 -0.47669,3.26467 -0.58261,1.67649 -1.64192,2.7177 -0.81213,0.79408 -2.18923,1.23523 -1.02399,0.31771 -2.73652,0.31771 l -5.84383,0 0,-15.35299 z m 3.10729,2.59415 0,10.16469 2.31281,0 q 1.28882,0 1.87144,-0.14119 0.75916,-0.19414 1.25352,-0.6353 0.49432,-0.4589 0.81212,-1.48234 0.31779,-1.04119 0.31779,-2.82352 0,-1.78233 -0.31779,-2.73534 -0.3178,-0.95286 -0.88276,-1.48233 -0.56495,-0.52937 -1.43003,-0.72351 -0.65326,-0.14119 -2.54233,-0.14119 l -1.39477,0 z m 12.09844,0.12342 0,-2.71771 2.94839,0 0,2.71771 -2.94839,0 z m 0,12.63528 0,-11.13531 2.94839,0 0,11.13531 -2.94839,0 z m 8.68154,0 -2.94841,0 0,-11.13531 2.73654,0 0,1.58819 q 0.70619,-1.11171 1.25351,-1.46463 0.56495,-0.37067 1.2888,-0.37067 1.00634,0 1.94206,0.5647 l -0.91807,2.55891 q -0.7415,-0.47651 -1.37708,-0.47651 -0.61791,0 -1.05931,0.33532 -0.42372,0.33523 -0.67089,1.23525 -0.24715,0.8824 -0.24715,3.72354 l 0,3.44121 z m 11.82288,-3.54713 2.94841,0.4941 q -0.56498,1.62353 -1.80083,2.47059 -1.21821,0.82944 -3.05435,0.82944 -2.89542,0 -4.29014,-1.88828 -1.09464,-1.51758 -1.09464,-3.84697 0,-2.75296 1.43006,-4.3235 1.44771,-1.57067 3.67226,-1.57067 2.4717,0 3.90176,1.64124 1.44771,1.64114 1.39475,5.0294 l -7.37981,0 q 0.0178,1.30581 0.70619,2.04704 0.68857,0.7235 1.69489,0.7235 0.68856,0 1.16524,-0.37055 0.47669,-0.38829 0.70621,-1.23534 z m 0.17655,-2.96472 q -0.0351,-1.2882 -0.6709,-1.94111 -0.61791,-0.67066 -1.51834,-0.67066 -0.97102,0 -1.58894,0.70591 -0.6356,0.68825 -0.61793,1.90586 l 4.39611,0 z m 14.81336,-1.32344 -2.89544,0.52935 q -0.15888,-0.88228 -0.6709,-1.32356 -0.51199,-0.44113 -1.34177,-0.44113 -1.11228,0 -1.76553,0.75884 -0.65321,0.75886 -0.65321,2.54118 0,1.99409 0.65321,2.80591 0.67091,0.81169 1.80083,0.81169 0.84746,0 1.3771,-0.47649 0.52966,-0.47639 0.75917,-1.64114 l 2.87777,0.49412 q -0.44138,1.99408 -1.7302,3.01767 -1.27116,1.00585 -3.42508,1.00585 -2.43639,0 -3.90179,-1.53532 -1.44768,-1.53521 -1.44768,-4.27053 0,-2.75294 1.46537,-4.28825 1.46536,-1.53532 3.93707,-1.53532 2.03032,0 3.23089,0.88241 1.20053,0.86467 1.73019,2.66472 z m 7.11582,-3.30002 0,2.34704 -2.01268,0 0,4.5 q 0,1.35881 0.053,1.58819 0.0706,0.21175 0.26482,0.37068 0.21186,0.14119 0.512,0.14119 0.40608,0 1.18289,-0.28237 l 0.24718,2.27644 q -1.02399,0.44115 -2.33048,0.44115 -0.79447,0 -1.43005,-0.26474 -0.63559,-0.26461 -0.93573,-0.68814 -0.30013,-0.42354 -0.42371,-1.14713 -0.0882,-0.51175 -0.0882,-2.08232 l 0,-4.85294 -1.35942,0 0,-2.34704 1.35942,0 0,-2.20585 2.94841,-1.71184 0,3.91769 2.01266,0 z"
       id="path3833"
       style="fill:#000000;fill-rule:nonzero" />
    <path
       d="m 475.88943,285.40471 0,0 c 0,-6.33763 5.14002,-11.47526 11.4805,-11.47526 l 107.02243,0 c 3.04483,0 5.96495,1.209 8.11797,3.36101 2.15302,2.15211 3.36254,5.07085 3.36254,8.11425 l 0,45.89976 c 0,6.33763 -5.13997,11.47523 -11.48051,11.47523 l -107.02243,0 c -6.34048,0 -11.4805,-5.1376 -11.4805,-11.47523 z"
       id="path3835"
       style="fill:#ffffff;fill-rule:nonzero" />
    <path
       d="m 475.88942,285.40473 0,0 c 0,-6.33764 5.14003,-11.47526 11.48051,-11.47526 l 107.02242,0 c 3.04481,0 5.96495,1.209 8.11797,3.36101 2.15302,2.1521 3.36254,5.07084 3.36254,8.11425 l 0,45.89976 c 0,6.33762 -5.13997,11.47524 -11.48051,11.47524 l -107.02242,0 c -6.34048,0 -11.48051,-5.13762 -11.48051,-11.47524 z"
       id="path3837"
       style="stroke:#000000;stroke-width:3;stroke-linecap:butt;stroke-linejoin:round" />
    <path
       d="m 521.93015,315.89469 0,-15.08007 11.20244,0 0,2.54803 -8.15038,0 0,3.34531 7.5781,0 0,2.53072 -7.5781,0 0,4.10798 8.44517,0 0,2.54803 -11.49723,0 z m 23.46946,-5.54668 2.96535,0.93595 q -0.67633,2.46141 -2.27168,3.67466 -1.57807,1.19598 -4.00585,1.19598 -3.00003,0 -4.94225,-2.04527 -1.92486,-2.06269 -1.92486,-5.63332 0,-3.7614 1.9422,-5.84141 1.94223,-2.08 5.11567,-2.08 2.7746,0 4.49138,1.62938 1.04047,0.97066 1.54336,2.77334 l -3.01737,0.72795 q -0.26011,-1.17867 -1.10984,-1.8546 -0.84972,-0.67603 -2.06359,-0.67603 -1.6821,0 -2.72258,1.2133 -1.04046,1.19608 -1.04046,3.88265 0,2.86011 1.0231,4.09068 1.02315,1.21338 2.67056,1.21338 1.23125,0 2.0983,-0.76267 0.86706,-0.77996 1.24856,-2.44397 z m 14.43252,2.85998 0,2.6867 -10.14464,0 q 0.17342,-1.52533 0.98846,-2.87738 0.83239,-1.36939 3.26014,-3.62265 1.95956,-1.81998 2.3931,-2.47871 0.60693,-0.88402 0.60693,-1.76794 0,-0.97067 -0.52023,-1.49071 -0.52024,-0.51996 -1.43931,-0.51996 -0.90174,0 -1.43933,0.55466 -0.53757,0.53727 -0.62428,1.80267 l -2.87864,-0.27733 q 0.26012,-2.39205 1.61272,-3.43204 1.35263,-1.04002 3.3989,-1.04002 2.23701,0 3.50293,1.21339 1.28325,1.19597 1.28325,2.98134 0,1.02258 -0.36418,1.94135 -0.36415,0.91862 -1.16185,1.92391 -0.52022,0.67603 -1.89021,1.94134 -1.36994,1.248 -1.73412,1.66399 -0.36414,0.39868 -0.58962,0.79739 l 5.73998,0 z"
       id="path3839"
       style="fill:#000000;fill-rule:nonzero" />
    <path
       d="m 26.216037,273.92945 145.593573,0 0,68.85025 -145.593573,0 z"
       id="path3841"
       style="fill:#000000;fill-opacity:0;fill-rule:nonzero" />
    <path
       d="m 68.424917,295.76779 3.596361,1.13981 q -0.827037,3.00605 -2.756796,4.47148 -1.917221,1.45291 -4.874513,1.45291 -3.659019,0 -6.014828,-2.49253 -2.355807,-2.50504 -2.355807,-6.83871 0,-4.58426 2.368334,-7.11431 2.368344,-2.54264 6.227859,-2.54264 3.370806,0 5.475995,1.99153 1.253089,1.17733 1.879634,3.38177 l -3.671547,0.87679 q -0.325805,-1.4279 -1.365872,-2.25452 -1.027534,-0.82671 -2.506179,-0.82671 -2.042532,0 -3.320681,1.4655 -1.265625,1.46544 -1.265625,4.74699 0,3.48204 1.253089,4.95998 1.25309,1.47802 3.258032,1.47802 1.478645,0 2.543776,-0.93942 1.065121,-0.9394 1.528768,-2.95594 z m 6.754146,6.7511 0,-18.36196 3.521186,0 0,18.36196 -3.521186,0 z m 15.88917,0 0,-1.99152 q -0.726789,1.06462 -1.917226,1.67841 -1.1779,0.61371 -2.493648,0.61371 -1.340801,0 -2.40593,-0.58871 -1.065122,-0.58869 -1.541297,-1.65333 -0.476173,-1.06461 -0.476173,-2.94343 l 0,-8.41692 3.521177,0 0,6.11229 q 0,2.80565 0.187966,3.44444 0.200495,0.6263 0.714257,1.00202 0.513775,0.36321 1.303211,0.36321 0.902224,0 1.616493,-0.48842 0.714252,-0.50101 0.97741,-1.22751 0.263139,-0.739 0.263139,-3.59475 l 0,-5.61128 3.521192,0 0,13.30179 -3.270571,0 z m 5.676501,-3.79516 3.533706,-0.5386 q 0.22556,1.0271 0.91475,1.56571 0.68921,0.52603 1.92975,0.52603 1.36588,0 2.05507,-0.50102 0.46366,-0.35071 0.46366,-0.93941 0,-0.40081 -0.25063,-0.66381 -0.26314,-0.2505 -1.1779,-0.46342 -4.260503,-0.93941 -5.400818,-1.71594 -1.578891,-1.0772 -1.578891,-2.99352 0,-1.72852 1.365869,-2.90586 1.365859,-1.1774 4.23545,-1.1774 2.73173,0 4.06,0.88931 1.32829,0.88931 1.82951,2.63032 l -3.32069,0.61372 q -0.21301,-0.7766 -0.81451,-1.18992 -0.58895,-0.4133 -1.69168,-0.4133 -1.39091,0 -1.9924,0.3883 -0.40098,0.27551 -0.40098,0.71392 0,0.37571 0.35086,0.6388 0.47618,0.35071 3.2831,0.98942 2.81945,0.63881 3.9347,1.56571 1.10272,0.93934 1.10272,2.61775 0,1.82865 -1.52878,3.14385 -1.52876,1.31512 -4.52366,1.31512 -2.71919,0 -4.310618,-1.10221 -1.578891,-1.10222 -2.067588,-2.99355 z m 21.615766,-9.50663 0,2.80563 -2.40591,0 0,5.36079 q 0,1.62831 0.0626,1.90383 0.0752,0.26308 0.31326,0.4384 0.25062,0.17539 0.60149,0.17539 0.48871,0 1.41599,-0.3382 l 0.30073,2.73045 q -1.22801,0.5261 -2.78184,0.5261 -0.95235,0 -1.71675,-0.31311 -0.76437,-0.32568 -1.12778,-0.82669 -0.35085,-0.51352 -0.4887,-1.37773 -0.11277,-0.6138 -0.11277,-2.48004 l 0,-5.79919 -1.61649,0 0,-2.80563 1.61649,0 0,-2.64277 3.53371,-2.05412 0,4.69689 2.40592,0 z m 10.15004,9.06824 3.50864,0.58869 q -0.67666,1.92893 -2.14276,2.94345 -1.45359,1.00201 -3.6465,1.00201 -3.47106,0 -5.13768,-2.26703 -1.31572,-1.81621 -1.31572,-4.58426 0,-3.30666 1.72925,-5.1729 1.72926,-1.87881 4.37327,-1.87881 2.96983,0 4.68657,1.96651 1.71673,1.95394 1.64154,5.9995 l -8.82173,0 q 0.0376,1.56572 0.85209,2.44245 0.8145,0.86422 2.03001,0.86422 0.82703,0 1.39092,-0.45092 0.56388,-0.4509 0.8521,-1.45291 z m 0.20049,-3.55716 q -0.0376,-1.52804 -0.78943,-2.31714 -0.75186,-0.80162 -1.82953,-0.80162 -1.15283,0 -1.90469,0.83921 -0.75186,0.83922 -0.73933,2.27955 l 5.26298,0 z m 9.73651,7.79071 -3.52119,0 0,-13.30179 3.27058,0 0,1.89132 q 0.83956,-1.34022 1.5037,-1.76604 0.67666,-0.42589 1.52876,-0.42589 1.20297,0 2.31822,0.66389 l -1.09019,3.06866 q -0.8897,-0.5762 -1.65407,-0.5762 -0.73932,0 -1.25309,0.41338 -0.51377,0.40082 -0.81451,1.46544 -0.28821,1.06462 -0.28821,4.45897 l 0,4.10826 z"
       id="path3843"
       style="fill:#000000;fill-rule:nonzero" />
    <path
       d="m 48.062213,332.98016 0,-18.36198 5.551181,0 3.333225,12.5252 3.295621,-12.5252 5.563718,0 0,18.36198 -3.445992,0 0,-14.45412 -3.646495,14.45412 -3.571299,0 -3.633967,-14.45412 0,14.45412 -3.445992,0 z m 24.034252,-9.24363 -3.195373,-0.57612 q 0.538823,-1.92891 1.85457,-2.85575 1.315739,-0.9269 3.909638,-0.9269 2.355808,0 3.508652,0.56362 1.152842,0.5511 1.616481,1.4154 0.476174,0.85171 0.476174,3.14375 l -0.03761,4.10827 q 0,1.75353 0.162896,2.59275 0.175432,0.8267 0.639078,1.77861 l -3.483585,0 q -0.137844,-0.35071 -0.338339,-1.03962 -0.08771,-0.3131 -0.125307,-0.41329 -0.902226,0.87671 -1.929759,1.31512 -1.027533,0.4384 -2.192902,0.4384 -2.055067,0 -3.245504,-1.11481 -1.177905,-1.11472 -1.177905,-2.81816 0,-1.12722 0.538832,-2.00402 0.538825,-0.88931 1.503708,-1.35271 0.97741,-0.47593 2.806919,-0.82663 2.468581,-0.46349 3.420928,-0.8643 l 0,-0.3507 q 0,-1.01453 -0.501233,-1.44035 -0.501237,-0.43839 -1.892161,-0.43839 -0.939821,0 -1.466118,0.37571 -0.526298,0.3633 -0.852102,1.29012 z m 4.711615,2.85574 q -0.676668,0.2255 -2.14278,0.53861 -1.466117,0.31309 -1.917229,0.6137 -0.689195,0.48851 -0.689195,1.24002 0,0.73901 0.551359,1.27752 0.551359,0.53862 1.40346,0.53862 0.952348,0 1.816974,-0.62623 0.639081,-0.476 0.839575,-1.1649 0.137836,-0.45091 0.137836,-1.71593 l 0,-0.70141 z m 19.034431,6.38789 -3.521193,0 0,-6.78869 q 0,-2.15434 -0.225554,-2.78055 -0.225557,-0.63882 -0.739315,-0.98952 -0.501235,-0.3507 -1.215505,-0.3507 -0.914751,0 -1.64154,0.501 -0.726788,0.501 -1.002474,1.32763 -0.263148,0.8267 -0.263148,3.05615 l 0,6.02468 -3.521178,0 0,-13.3018 3.270559,0 0,1.95393 q 1.741797,-2.25453 4.385811,-2.25453 1.165384,0 2.130254,0.42589 0.964879,0.41331 1.453586,1.06462 0.501233,0.65132 0.689193,1.47794 0.200504,0.8267 0.200504,2.36733 l 0,8.26662 z m 6.202789,-9.24363 -3.195373,-0.57612 q 0.538824,-1.92891 1.854563,-2.85575 1.31573,-0.9269 3.90964,-0.9269 2.35581,0 3.50864,0.56362 1.15285,0.5511 1.61648,1.4154 0.47619,0.85171 0.47619,3.14375 l -0.0376,4.10827 q 0,1.75353 0.16289,2.59275 0.17544,0.8267 0.63908,1.77861 l -3.48358,0 q -0.13785,-0.35071 -0.33834,-1.03962 -0.0876,-0.3131 -0.1253,-0.41329 -0.90224,0.87671 -1.92977,1.31512 -1.02754,0.4384 -2.1929,0.4384 -2.05506,0 -3.245512,-1.11481 -1.177898,-1.11472 -1.177898,-2.81816 0,-1.12722 0.538841,-2.00402 0.538823,-0.88931 1.503699,-1.35271 0.97741,-0.47593 2.80692,-0.82663 2.46858,-0.46349 3.42092,-0.8643 l 0,-0.3507 q 0,-1.01453 -0.50123,-1.44035 -0.50123,-0.43839 -1.89217,-0.43839 -0.93979,0 -1.46611,0.37571 -0.52628,0.3633 -0.8521,1.29012 z m 4.71161,2.85574 q -0.67666,0.2255 -2.14278,0.53861 -1.46613,0.31309 -1.91723,0.6137 -0.6892,0.48851 -0.6892,1.24002 0,0.73901 0.55137,1.27752 0.55135,0.53862 1.40345,0.53862 0.95236,0 1.81698,-0.62623 0.63908,-0.476 0.83957,-1.1649 0.13784,-0.45091 0.13784,-1.71593 l 0,-0.70141 z m 6.60378,7.26461 4.02242,0.4885 q 0.1002,0.70141 0.46363,0.96442 0.50125,0.3758 1.5789,0.3758 1.3784,0 2.0676,-0.41339 0.46365,-0.27551 0.70172,-0.88923 0.16291,-0.43841 0.16291,-1.61581 l 0,-1.94135 q -1.57889,2.15434 -3.98483,2.15434 -2.6816,0 -4.24797,-2.26713 -1.22803,-1.79104 -1.22803,-4.45896 0,-3.34417 1.60396,-5.11027 1.61649,-1.76604 4.00988,-1.76604 2.4686,0 4.07255,2.16683 l 0,-1.86623 3.29561,0 0,11.93649 q 0,2.35474 -0.38844,3.51963 -0.38847,1.16483 -1.0902,1.82864 -0.70173,0.66383 -1.87964,1.03962 -1.16536,0.37572 -2.95727,0.37572 -3.38335,0 -4.79934,-1.16483 -1.416,-1.15232 -1.416,-2.93086 0,-0.17539 0.0126,-0.42589 z m 3.14525,-7.80322 q 0,2.11683 0.81451,3.10626 0.82703,0.97699 2.03001,0.97699 1.29067,0 2.18037,-1.00201 0.88969,-1.01452 0.88969,-2.99355 0,-2.06663 -0.8521,-3.06865 -0.85211,-1.002 -2.1553,-1.002 -1.26564,0 -2.09267,0.98951 -0.81451,0.97692 -0.81451,2.99345 z m 20.5632,2.69293 3.50865,0.58872 q -0.67667,1.92884 -2.1428,2.94344 -1.45357,1.00202 -3.64648,1.00202 -3.47106,0 -5.13765,-2.26712 -1.31576,-1.81614 -1.31576,-4.58418 0,-3.30666 1.72926,-5.17289 1.72927,-1.87882 4.3733,-1.87882 2.96981,0 4.68654,1.96644 1.71674,1.95393 1.64155,5.99958 l -8.82175,0 q 0.0376,1.56562 0.8521,2.44243 0.8145,0.86422 2.03,0.86422 0.82705,0 1.39094,-0.4509 0.56388,-0.45091 0.8521,-1.45294 z m 0.2005,-3.55715 q -0.0376,-1.52802 -0.78946,-2.31713 -0.75185,-0.80161 -1.82951,-0.80161 -1.15284,0 -1.90468,0.8392 -0.75187,0.83914 -0.73932,2.27954 l 5.26297,0 z m 9.73649,7.79072 -3.52117,0 0,-13.3018 3.27055,0 0,1.89133 q 0.83957,-1.34022 1.50371,-1.76604 0.67666,-0.42589 1.52877,-0.42589 1.20296,0 2.31822,0.66381 l -1.09019,3.06873 q -0.88968,-0.57619 -1.65408,-0.57619 -0.73933,0 -1.2531,0.41331 -0.51376,0.4008 -0.8145,1.4655 -0.28821,1.06464 -0.28821,4.45897 l 0,4.10827 z"
       id="path3845"
       style="fill:#000000;fill-rule:nonzero" />
    <path
       d="m 183.17831,194.59107 0,0 c 0,-6.33761 5.13999,-11.47523 11.48051,-11.47523 l 488.25833,0 c 3.04486,0 5.96495,1.209 8.11795,3.361 2.15303,2.15201 3.36253,5.07084 3.36253,8.11423 l 0,45.89977 c 0,6.33762 -5.13994,11.47525 -11.48048,11.47525 l -488.25833,0 c -6.34052,0 -11.48051,-5.13763 -11.48051,-11.47525 z"
       id="path3847"
       style="fill:#a7dbd8;fill-rule:nonzero" />
    <path
       d="m 183.17831,194.59108 0,0 c 0,-6.33761 5.13999,-11.47523 11.48051,-11.47523 l 488.25832,0 c 3.04486,0 5.96494,1.209 8.11796,3.361 2.15301,2.15201 3.36253,5.07084 3.36253,8.11423 l 0,45.89978 c 0,6.33762 -5.13996,11.47524 -11.48049,11.47524 l -488.25832,0 c -6.34052,0 -11.48051,-5.13762 -11.48051,-11.47524 z"
       id="path3849"
       style="stroke:#000000;stroke-width:3;stroke-linecap:butt;stroke-linejoin:round" />
    <path
       d="m 305.67232,220.96131 3.6089,-0.3507 q 0.3258,1.81613 1.31574,2.66786 1.00248,0.8517 2.69414,0.8517 1.79192,0 2.69414,-0.75152 0.91476,-0.764 0.91476,-1.77852 0,-0.65131 -0.38846,-1.10222 -0.37592,-0.46341 -1.32828,-0.8016 -0.65161,-0.2255 -2.96981,-0.80162 -2.98237,-0.73901 -4.18532,-1.81613 -1.69167,-1.51562 -1.69167,-3.69496 0,-1.40282 0.78945,-2.61774 0.80198,-1.22752 2.29315,-1.86632 1.5037,-0.63872 3.62142,-0.63872 3.45853,0 5.20033,1.51553 1.75433,1.51553 1.84204,4.04565 l -3.70915,0.16281 q -0.23808,-1.41533 -1.02754,-2.02913 -0.7769,-0.62622 -2.34327,-0.62622 -1.61647,0 -2.53124,0.66382 -0.58894,0.4259 -0.58894,1.13981 0,0.65132 0.55135,1.11472 0.70173,0.58872 3.4084,1.22751 2.70668,0.63872 3.99735,1.32764 1.30321,0.67639 2.03,1.86623 0.73933,1.17742 0.73933,2.91844 0,1.57813 -0.87716,2.95594 -0.87716,1.37773 -2.48111,2.05413 -1.60396,0.66382 -3.99737,0.66382 -3.48358,0 -5.35068,-1.60323 -1.86711,-1.61573 -2.2305,-4.69698 z m 24.13451,-7.3272 0,2.80564 -2.40594,0 0,5.36078 q 0,1.62823 0.0626,1.90383 0.0752,0.26301 0.31328,0.4384 0.25061,0.17532 0.60147,0.17532 0.4887,0 1.416,-0.33821 l 0.30074,2.73054 q -1.22804,0.52601 -2.78187,0.52601 -0.95234,0 -1.71671,-0.31311 -0.76441,-0.32561 -1.12779,-0.82661 -0.35087,-0.51361 -0.4887,-1.37782 -0.11279,-0.6137 -0.11279,-2.47995 l 0,-5.79918 -1.61648,0 0,-2.80564 1.61648,0 0,-2.64284 3.53372,-2.05413 0,4.69697 2.40593,0 z m 5.81434,13.3017 -3.5212,0 0,-13.3017 3.27056,0 0,1.89133 q 0.83958,-1.34022 1.50372,-1.76613 0.67666,-0.42581 1.52876,-0.42581 1.20297,0 2.31821,0.66381 l -1.09019,3.06865 q -0.88969,-0.57611 -1.65406,-0.57611 -0.73934,0 -1.25309,0.41331 -0.51377,0.4008 -0.81451,1.46543 -0.2882,1.0647 -0.2882,4.45897 l 0,4.10825 z m 9.24778,-9.24354 -3.19538,-0.5762 q 0.53883,-1.92883 1.85458,-2.85575 1.31573,-0.92682 3.90964,-0.92682 2.3558,0 3.50864,0.56361 1.15284,0.55112 1.61649,1.41533 0.47618,0.85172 0.47618,3.14385 l -0.0376,4.10826 q 0,1.75353 0.16289,2.59273 0.17543,0.82662 0.63909,1.77853 l -3.48361,0 q -0.13783,-0.3507 -0.33831,-1.03952 -0.0876,-0.3132 -0.12532,-0.41338 -0.90223,0.87679 -1.92976,1.31519 -1.02754,0.43832 -2.19291,0.43832 -2.05506,0 -3.2455,-1.11472 -1.17791,-1.11473 -1.17791,-2.81816 0,-1.1273 0.53882,-2.00402 0.53885,-0.88931 1.50373,-1.35271 0.97739,-0.476 2.80691,-0.82671 2.46858,-0.46341 3.42093,-0.86422 l 0,-0.35071 q 0,-1.01452 -0.50124,-1.44041 -0.50122,-0.43834 -1.89216,-0.43834 -0.93981,0 -1.46611,0.37573 -0.52628,0.36321 -0.85211,1.29012 z m 4.71161,2.85575 q -0.67665,0.22541 -2.14277,0.53859 -1.46613,0.31311 -1.91724,0.61371 -0.68919,0.48851 -0.68919,1.24003 0,0.73891 0.55135,1.27752 0.55136,0.5386 1.40346,0.5386 0.95234,0 1.81699,-0.6263 0.63908,-0.4759 0.83956,-1.16481 0.13784,-0.45093 0.13784,-1.71593 l 0,-0.70141 z m 13.03214,-6.91391 0,2.80564 -2.40594,0 0,5.36078 q 0,1.62823 0.0626,1.90383 0.0752,0.26301 0.31329,0.4384 0.25061,0.17532 0.60147,0.17532 0.4887,0 1.41599,-0.33821 l 0.30074,2.73054 q -1.22803,0.52601 -2.78187,0.52601 -0.95234,0 -1.71671,-0.31311 -0.7644,-0.32561 -1.12778,-0.82661 -0.35087,-0.51361 -0.48871,-1.37782 -0.11277,-0.6137 -0.11277,-2.47995 l 0,-5.79918 -1.61649,0 0,-2.80564 1.61649,0 0,-2.64284 3.53371,-2.05413 0,4.69697 2.40592,0 z m 1.629,6.46299 q 0,-1.75352 0.86464,-3.39434 0.86463,-1.64083 2.44353,-2.50503 1.59142,-0.86423 3.54623,-0.86423 3.01995,0 4.94972,1.96643 1.92975,1.95395 1.92975,4.94747 0,3.01856 -1.95483,5.01009 -1.94229,1.97893 -4.89957,1.97893 -1.82951,0 -3.49612,-0.82663 -1.65408,-0.8267 -2.51871,-2.41733 -0.86464,-1.60323 -0.86464,-3.89536 z m 3.60891,0.1879 q 0,1.97893 0.93981,3.03106 0.93983,1.05213 2.31821,1.05213 1.3784,0 2.30569,-1.05213 0.93982,-1.05213 0.93982,-3.05616 0,-1.95391 -0.93982,-3.00602 -0.92729,-1.05214 -2.30569,-1.05214 -1.37838,0 -2.31821,1.05214 -0.93981,1.05211 -0.93981,3.03112 z m 11.64119,2.85574 3.53371,-0.53861 q 0.22556,1.02704 0.91476,1.56563 0.68924,0.52611 1.92979,0.52611 1.36586,0 2.05506,-0.501 0.46364,-0.35072 0.46364,-0.93941 0,-0.40082 -0.25061,-0.66382 -0.26315,-0.25051 -1.17791,-0.4635 -4.26052,-0.93932 -5.40084,-1.71593 -1.57888,-1.07712 -1.57888,-2.99353 0,-1.72844 1.36586,-2.90585 1.36587,-1.17733 4.23547,-1.17733 2.73173,0 4.06,0.88931 1.32828,0.88922 1.82952,2.63024 l -3.32069,0.61372 q -0.21302,-0.77652 -0.81451,-1.18983 -0.58896,-0.41339 -1.69166,-0.41339 -1.39096,0 -1.99245,0.3883 -0.40098,0.27559 -0.40098,0.71392 0,0.3758 0.35086,0.63881 0.47619,0.35071 3.28312,0.9895 2.81945,0.6388 3.93469,1.56562 1.10273,0.93942 1.10273,2.61775 0,1.82873 -1.52876,3.14385 -1.52877,1.31512 -4.52366,1.31512 -2.71923,0 -4.31066,-1.10221 -1.57888,-1.10223 -2.0676,-2.99347 z m 15.41302,-9.50663 3.28309,0 0,1.95391 q 0.63909,-1.002 1.72928,-1.6283 1.09018,-0.62622 2.41845,-0.62622 2.31822,0 3.93471,1.81614 1.61648,1.81613 1.61648,5.06018 0,3.33174 -1.62901,5.18547 -1.62902,1.84113 -3.94724,1.84113 -1.10272,0 -2.00493,-0.43832 -0.8897,-0.4384 -1.87965,-1.50303 l 0,6.70093 -3.52118,0 0,-18.36189 z m 3.48359,6.4254 q 0,2.24203 0.8897,3.31914 0.88969,1.06472 2.16784,1.06472 1.22802,0 2.04253,-0.97702 0.81451,-0.98951 0.81451,-3.23144 0,-2.09174 -0.83956,-3.10626 -0.83957,-1.01461 -2.08013,-1.01461 -1.29068,0 -2.14278,1.00203 -0.85211,0.9895 -0.85211,2.94344 z m 15.80146,-11.48559 0,6.7511 q 1.7042,-1.99152 4.07253,-1.99152 1.2155,0 2.19291,0.45091 0.97742,0.45091 1.46612,1.15231 0.50123,0.70142 0.67666,1.55313 0.18797,0.85172 0.18797,2.64283 l 0,7.80313 -3.52119,0 0,-7.02661 q 0,-2.09172 -0.20049,-2.65532 -0.20048,-0.56363 -0.71425,-0.88934 -0.50124,-0.33812 -1.26563,-0.33812 -0.87715,0 -1.56635,0.42583 -0.68921,0.4259 -1.01501,1.29012 -0.31327,0.85171 -0.31327,2.53005 l 0,6.66339 -3.52118,0 0,-18.36189 3.52118,0 z m 19.87399,14.12843 3.50866,0.58871 q -0.67666,1.92883 -2.14278,2.94334 -1.4536,1.00202 -3.6465,1.00202 -3.47106,0 -5.13767,-2.26703 -1.31574,-1.81613 -1.31574,-4.58418 0,-3.30665 1.72926,-5.17298 1.72927,-1.87873 4.37328,-1.87873 2.96983,0 4.68656,1.96643 1.71672,1.95395 1.64154,5.99959 l -8.82174,0 q 0.0376,1.56562 0.8521,2.44244 0.81451,0.86422 2.03,0.86422 0.82704,0 1.39093,-0.45092 0.56389,-0.4509 0.8521,-1.45291 z m 0.20049,-3.55716 q -0.0376,-1.52811 -0.78944,-2.31714 -0.75186,-0.80163 -1.82951,-0.80163 -1.15284,0 -1.90471,0.83914 -0.75184,0.83921 -0.73931,2.27963 l 5.26297,0 z m 9.73651,7.79062 -3.52118,0 0,-13.3017 3.27057,0 0,1.89133 q 0.83956,-1.34022 1.5037,-1.76613 0.67667,-0.42581 1.52878,-0.42581 1.20296,0 2.31821,0.66381 l -1.09021,3.06865 q -0.88968,-0.57611 -1.65407,-0.57611 -0.73931,0 -1.25308,0.41331 -0.51377,0.4008 -0.8145,1.46543 -0.28822,1.0647 -0.28822,4.45897 l 0,4.10825 z m 14.32281,-4.23346 3.50865,0.58871 q -0.67667,1.92883 -2.14278,2.94334 -1.45359,1.00202 -3.64649,1.00202 -3.47107,0 -5.13766,-2.26703 -1.31576,-1.81613 -1.31576,-4.58418 0,-3.30665 1.72927,-5.17298 1.72926,-1.87873 4.3733,-1.87873 2.9698,0 4.68653,1.96643 1.71675,1.95395 1.64156,5.99959 l -8.82175,0 q 0.0376,1.56562 0.85208,2.44244 0.81453,0.86422 2.03002,0.86422 0.82702,0 1.39093,-0.45092 0.56389,-0.4509 0.8521,-1.45291 z m 0.2005,-3.55716 q -0.0376,-1.52811 -0.78945,-2.31714 -0.75187,-0.80163 -1.82951,-0.80163 -1.15284,0 -1.9047,0.83914 -0.75185,0.83921 -0.73931,2.27963 l 5.26297,0 z m 13.53337,7.79062 0,-18.36189 7.80673,0 q 2.94477,0 4.27305,0.50102 1.3408,0.4885 2.14277,1.75351 0.80198,1.26504 0.80198,2.89336 0,2.06663 -1.2155,3.41935 -1.21549,1.34022 -3.63395,1.69093 1.20296,0.7014 1.97988,1.54053 0.78943,0.8392 2.11772,2.98103 l 2.24302,3.58216 -4.43592,0 -2.68162,-3.99546 q -1.42852,-2.14183 -1.95482,-2.69295 -0.5263,-0.5636 -1.11525,-0.76402 -0.58895,-0.21298 -1.8671,-0.21298 l -0.75186,0 0,7.66541 -3.70913,0 z m 3.70913,-10.59626 2.74427,0 q 2.66908,0 3.33322,-0.22551 0.66414,-0.2254 1.04006,-0.77652 0.37593,-0.5511 0.37593,-1.3778 0,-0.92682 -0.50124,-1.49044 -0.4887,-0.5762 -1.39094,-0.7265 -0.45111,-0.0625 -2.70666,-0.0625 l -2.89464,0 0,4.65936 z m 23.54556,10.59626 0,-1.99144 q -0.7268,1.06463 -1.91724,1.67833 -1.1779,0.61372 -2.49364,0.61372 -1.3408,0 -2.40594,-0.58862 -1.06512,-0.58871 -1.5413,-1.65333 -0.47616,-1.0647 -0.47616,-2.94344 l 0,-8.41692 3.52117,0 0,6.11228 q 0,2.80566 0.18796,3.44446 0.20051,0.62621 0.71427,1.00202 0.51377,0.3632 1.30321,0.3632 0.90222,0 1.61648,-0.4885 0.71426,-0.50101 0.97741,-1.22742 0.26315,-0.73901 0.26315,-3.59475 l 0,-5.61129 3.52118,0 0,13.3017 -3.27055,0 z m 19.02188,0 -3.52118,0 0,-6.78861 q 0,-2.15433 -0.22556,-2.78063 -0.22555,-0.63872 -0.73932,-0.98944 -0.50123,-0.35071 -1.21549,-0.35071 -0.91477,0 -1.64155,0.50102 -0.72679,0.50101 -1.00247,1.32764 -0.26314,0.8267 -0.26314,3.05614 l 0,6.02459 -3.52119,0 0,-13.3017 3.27057,0 0,1.95391 q 1.74178,-2.25452 4.3858,-2.25452 1.16537,0 2.13026,0.42581 0.96488,0.41339 1.45357,1.06471 0.50125,0.6513 0.68921,1.47794 0.20049,0.82669 0.20049,2.36723 l 0,8.26662 z m 9.67384,-13.3017 0,2.80564 -2.40592,0 0,5.36078 q 0,1.62823 0.0626,1.90383 0.0752,0.26301 0.31326,0.4384 0.25062,0.17532 0.60149,0.17532 0.48871,0 1.41599,-0.33821 l 0.30074,2.73054 q -1.22802,0.52601 -2.78185,0.52601 -0.95235,0 -1.71675,-0.31311 -0.76437,-0.32561 -1.12778,-0.82661 -0.35086,-0.51361 -0.48871,-1.37782 -0.11277,-0.6137 -0.11277,-2.47995 l 0,-5.79918 -1.61649,0 0,-2.80564 1.61649,0 0,-2.64284 3.53372,-2.05413 0,4.69697 2.40593,0 z m 2.44354,-1.80363 0,-3.25656 3.52117,0 0,3.25656 -3.52117,0 z m 0,15.10533 0,-13.3017 3.52117,0 0,13.3017 -3.52117,0 z m 6.86693,-13.3017 3.24549,0 0,1.81613 q 1.7418,-2.11674 4.14773,-2.11674 1.27816,0 2.21796,0.52601 0.93983,0.5261 1.54131,1.59073 0.87717,-1.06463 1.89216,-1.59073 1.01501,-0.52601 2.16784,-0.52601 1.46612,0 2.48113,0.60121 1.01499,0.5887 1.51624,1.74101 0.3634,0.85172 0.3634,2.75555 l 0,8.50454 -3.52119,0 0,-7.60272 q 0,-1.97902 -0.3634,-2.55515 -0.4887,-0.75152 -1.50371,-0.75152 -0.73933,0 -1.39092,0.45093 -0.65161,0.45091 -0.93981,1.32761 -0.28822,0.86423 -0.28822,2.74306 l 0,6.38779 -3.52119,0 0,-7.28961 q 0,-1.94143 -0.18795,-2.50504 -0.18798,-0.56361 -0.58895,-0.8392 -0.38847,-0.27554 -1.06514,-0.27554 -0.8145,0 -1.46611,0.43834 -0.6516,0.4384 -0.93982,1.2651 -0.27568,0.82663 -0.27568,2.74296 l 0,6.46299 -3.52117,0 0,-13.3017 z m 30.78839,9.06824 3.50865,0.58871 q -0.67666,1.92883 -2.14278,2.94334 -1.45357,1.00202 -3.6465,1.00202 -3.47104,0 -5.13765,-2.26703 -1.31574,-1.81613 -1.31574,-4.58418 0,-3.30665 1.72927,-5.17298 1.72926,-1.87873 4.37327,-1.87873 2.96982,0 4.68656,1.96643 1.71672,1.95395 1.64154,5.99959 l -8.82174,0 q 0.0376,1.56562 0.8521,2.44244 0.81449,0.86422 2.02999,0.86422 0.82706,0 1.39092,-0.45092 0.56391,-0.4509 0.85211,-1.45291 z m 0.2005,-3.55716 q -0.0376,-1.52811 -0.78944,-2.31714 -0.75185,-0.80163 -1.82951,-0.80163 -1.15286,0 -1.9047,0.83914 -0.75186,0.83921 -0.73932,2.27963 l 5.26297,0 z"
       id="path3851"
       style="fill:#000000;fill-rule:nonzero" />
    <path
       d="m 183.17831,113.72507 0,0 c 0,-6.33765 5.13999,-11.47532 11.48051,-11.47532 l 488.25833,0 c 3.04486,0 5.96495,1.20901 8.11795,3.36104 2.15303,2.15203 3.36253,5.07081 3.36253,8.11428 l 0,45.89968 c 0,6.33762 -5.13994,11.47533 -11.48048,11.47533 l -488.25833,0 c -6.34052,0 -11.48051,-5.13771 -11.48051,-11.47533 z"
       id="path3853"
       style="fill:#4ba8f3;fill-opacity:0.6;fill-rule:nonzero" />
    <path
       d="m 183.17831,113.72508 0,0 c 0,-6.33766 5.13999,-11.47532 11.48051,-11.47532 l 488.25832,0 c 3.04486,0 5.96494,1.20901 8.11796,3.36104 2.15301,2.15203 3.36253,5.0708 3.36253,8.11428 l 0,45.89968 c 0,6.33762 -5.13996,11.47533 -11.48049,11.47533 l -488.25832,0 c -6.34052,0 -11.48051,-5.13771 -11.48051,-11.47533 z"
       id="path3855"
       style="stroke:#000000;stroke-width:3;stroke-linecap:butt;stroke-linejoin:round" />
    <path
       d="m 297.82172,140.09531 3.60889,-0.35071 q 0.3258,1.81613 1.31573,2.66785 1.00247,0.85171 2.69415,0.85171 1.79192,0 2.69414,-0.75151 0.91475,-0.76402 0.91475,-1.77862 0,-0.65131 -0.38845,-1.10221 -0.37593,-0.46342 -1.32828,-0.80161 -0.65159,-0.22542 -2.96982,-0.80161 -2.98234,-0.73894 -4.1853,-1.81614 -1.69169,-1.51553 -1.69169,-3.69495 0,-1.40283 0.78946,-2.61774 0.80197,-1.22744 2.29314,-1.86624 1.50371,-0.63881 3.62143,-0.63881 3.45854,0 5.20032,1.51552 1.75432,1.51563 1.84205,4.04567 l -3.70914,0.1628 q -0.2381,-1.41532 -1.02755,-2.02904 -0.77691,-0.62629 -2.34327,-0.62629 -1.61648,0 -2.53124,0.66389 -0.58894,0.42581 -0.58894,1.13973 0,0.65131 0.55135,1.1148 0.70174,0.58864 3.4084,1.22743 2.70668,0.6388 3.99736,1.32771 1.3032,0.67632 2.03,1.86624 0.73932,1.17733 0.73932,2.91836 0,1.5782 -0.87716,2.95594 -0.87716,1.37782 -2.48111,2.05412 -1.60396,0.66381 -3.99736,0.66381 -3.48359,0 -5.35069,-1.60322 -1.86711,-1.61573 -2.23049,-4.69688 z m 24.13449,-7.3273 0,2.80564 -2.40593,0 0,5.36078 q 0,1.62832 0.0626,1.90384 0.0752,0.26309 0.31329,0.4384 0.25061,0.17539 0.60147,0.17539 0.48871,0 1.416,-0.3382 l 0.30074,2.73045 q -1.22803,0.5261 -2.78188,0.5261 -0.95234,0 -1.71671,-0.31312 -0.76439,-0.32569 -1.12777,-0.8267 -0.35088,-0.51351 -0.48871,-1.37772 -0.11278,-0.6138 -0.11278,-2.48003 l 0,-5.79919 -1.61648,0 0,-2.80564 1.61648,0 0,-2.64277 3.53371,-2.05412 0,4.69689 2.40593,0 z m 5.81433,13.30179 -3.52118,0 0,-13.30179 3.27058,0 0,1.89133 q 0.83955,-1.34022 1.5037,-1.76604 0.67666,-0.4259 1.52876,-0.4259 1.20297,0 2.3182,0.6639 l -1.09017,3.06865 q -0.88969,-0.5762 -1.65408,-0.5762 -0.73933,0 -1.25309,0.4134 -0.51377,0.4008 -0.81451,1.46541 -0.28821,1.06463 -0.28821,4.45898 l 0,4.10826 z m 9.24782,-9.24361 -3.1954,-0.57614 q 0.53884,-1.92892 1.85457,-2.85574 1.31574,-0.92691 3.90965,-0.92691 2.3558,0 3.50864,0.5637 1.15285,0.55111 1.61649,1.41532 0.47617,0.85172 0.47617,3.14384 l -0.0376,4.10828 q 0,1.75352 0.1629,2.59265 0.17545,0.8267 0.63907,1.77861 l -3.48357,0 q -0.13785,-0.35071 -0.33834,-1.03961 -0.0876,-0.31311 -0.12531,-0.41331 -0.90222,0.87672 -1.92976,1.31513 -1.02754,0.4384 -2.19292,0.4384 -2.05504,0 -3.2455,-1.11472 -1.1779,-1.11479 -1.1779,-2.81824 0,-1.12723 0.53884,-2.00403 0.53882,-0.88922 1.50371,-1.35271 0.97739,-0.47592 2.80692,-0.82663 2.46858,-0.46342 3.42093,-0.86421 l 0,-0.35071 q 0,-1.0146 -0.50124,-1.44042 -0.50123,-0.43841 -1.89217,-0.43841 -0.93981,0 -1.46611,0.3758 -0.52629,0.36322 -0.85209,1.29006 z m 4.7116,2.85573 q -0.67667,0.22548 -2.14278,0.5386 -1.46612,0.31311 -1.91723,0.61372 -0.6892,0.48851 -0.6892,1.24001 0,0.739 0.55136,1.27761 0.55136,0.53852 1.40346,0.53852 0.95235,0 1.81697,-0.62622 0.63909,-0.47599 0.83957,-1.16483 0.13785,-0.45091 0.13785,-1.716 l 0,-0.70141 z m 13.03213,-6.91391 0,2.80564 -2.40594,0 0,5.36078 q 0,1.62832 0.0626,1.90384 0.0752,0.26309 0.31327,0.4384 0.25061,0.17539 0.60148,0.17539 0.48871,0 1.41599,-0.3382 l 0.30075,2.73045 q -1.22803,0.5261 -2.78187,0.5261 -0.95235,0 -1.71672,-0.31312 -0.76438,-0.32569 -1.12779,-0.8267 -0.35086,-0.51351 -0.48869,-1.37772 -0.11279,-0.6138 -0.11279,-2.48003 l 0,-5.79919 -1.61648,0 0,-2.80564 1.61648,0 0,-2.64277 3.53372,-2.05412 0,4.69689 2.40594,0 z m 1.62901,6.46299 q 0,-1.75352 0.86463,-3.39425 0.86462,-1.64084 2.44354,-2.50505 1.5914,-0.8643 3.54622,-0.8643 3.01995,0 4.94971,1.96653 1.92975,1.95393 1.92975,4.94737 0,3.01865 -1.9548,5.0101 -1.94231,1.97901 -4.89959,1.97901 -1.82952,0 -3.49611,-0.8267 -1.6541,-0.82663 -2.51872,-2.41735 -0.86463,-1.60322 -0.86463,-3.89536 z M 360,139.41891 q 0,1.97901 0.93981,3.03114 0.93982,1.05211 2.31822,1.05211 1.37841,0 2.30567,-1.05211 0.93983,-1.05213 0.93983,-3.05616 0,-1.95393 -0.93983,-3.00603 -0.92726,-1.05212 -2.30567,-1.05212 -1.3784,0 -2.31822,1.05212 Q 360,137.43996 360,139.41891 z m 11.64119,2.85575 3.53371,-0.53862 q 0.22556,1.02711 0.91476,1.56571 0.6892,0.52602 1.92976,0.52602 1.36586,0 2.05506,-0.501 0.46365,-0.3507 0.46365,-0.93941 0,-0.40082 -0.25063,-0.66383 -0.26312,-0.2505 -1.1779,-0.4634 -4.26051,-0.93941 -5.4008,-1.71593 -1.5789,-1.0772 -1.5789,-2.99355 0,-1.7285 1.36586,-2.90584 1.36587,-1.17741 4.23544,-1.17741 2.73173,0 4.06002,0.88932 1.32828,0.8893 1.8295,2.63032 l -3.32069,0.61371 q -0.21302,-0.77659 -0.8145,-1.18991 -0.58895,-0.4133 -1.69167,-0.4133 -1.39093,0 -1.99242,0.3883 -0.40098,0.27551 -0.40098,0.7139 0,0.37574 0.35088,0.63883 0.47616,0.35069 3.28307,0.98942 2.81946,0.6388 3.93472,1.56571 1.10271,0.93932 1.10271,2.61774 0,1.82864 -1.52876,3.14386 -1.52878,1.31511 -4.52366,1.31511 -2.71922,0 -4.31062,-1.10222 -1.5789,-1.10222 -2.06761,-2.99353 z m 15.41303,-9.50665 3.2831,0 0,1.95392 q 0.63907,-1.00201 1.72926,-1.62822 1.09019,-0.62631 2.41846,-0.62631 2.31821,0 3.9347,1.81621 1.61648,1.81613 1.61648,5.06019 0,3.33165 -1.62901,5.18539 -1.629,1.84122 -3.94724,1.84122 -1.10271,0 -2.00494,-0.4384 -0.88969,-0.43841 -1.87963,-1.50303 l 0,6.70101 -3.52118,0 0,-18.36198 z m 3.48358,6.42548 q 0,2.24196 0.8897,3.31916 0.8897,1.06463 2.16785,1.06463 1.22803,0 2.04253,-0.97694 0.81451,-0.9895 0.81451,-3.23153 0,-2.09173 -0.83958,-3.10625 -0.83956,-1.01453 -2.08011,-1.01453 -1.29068,0 -2.14279,1.00202 -0.85211,0.98951 -0.85211,2.94344 z m 15.80146,-11.48567 0,6.7511 q 1.70421,-1.99152 4.07254,-1.99152 1.2155,0 2.19291,0.45091 0.97741,0.4509 1.46611,1.15231 0.50124,0.70142 0.67668,1.55313 0.18794,0.85173 0.18794,2.64284 l 0,7.80321 -3.52116,0 0,-7.02662 q 0,-2.09171 -0.2005,-2.65532 -0.20049,-0.5637 -0.71426,-0.88932 -0.50124,-0.33821 -1.26562,-0.33821 -0.87717,0 -1.56636,0.42591 -0.6892,0.42581 -1.015,1.29002 -0.31328,0.85173 -0.31328,2.53013 l 0,6.66341 -3.52117,0 0,-18.36198 3.52117,0 z m 19.874,14.12843 3.50864,0.5887 q -0.67666,1.92893 -2.14277,2.94344 -1.45358,1.00202 -3.64649,1.00202 -3.47107,0 -5.13766,-2.26703 -1.31576,-1.81623 -1.31576,-4.58428 0,-3.30664 1.72926,-5.17288 1.72927,-1.87882 4.3733,-1.87882 2.96981,0 4.68653,1.96653 1.71676,1.95393 1.64157,5.99949 l -8.82175,0 q 0.0376,1.56571 0.8521,2.44245 0.81449,0.86421 2.02999,0.86421 0.82705,0 1.39093,-0.45092 0.5639,-0.45089 0.85211,-1.45291 z m 0.20049,-3.55716 q -0.0376,-1.52803 -0.78944,-2.31713 -0.75186,-0.80163 -1.82951,-0.80163 -1.15285,0 -1.90469,0.83922 -0.75185,0.8392 -0.73933,2.27954 l 5.26297,0 z m 9.7365,7.79071 -3.52117,0 0,-13.30179 3.27055,0 0,1.89133 q 0.83956,-1.34022 1.50371,-1.76604 0.67668,-0.4259 1.52877,-0.4259 1.20298,0 2.31822,0.6639 l -1.09019,3.06865 q -0.88969,-0.5762 -1.65408,-0.5762 -0.73932,0 -1.2531,0.4134 -0.51377,0.4008 -0.8145,1.46541 -0.28821,1.06463 -0.28821,4.45898 l 0,4.10826 z m 14.32281,-4.23355 3.50866,0.5887 q -0.67668,1.92893 -2.14279,2.94344 -1.45357,1.00202 -3.64649,1.00202 -3.47106,0 -5.13766,-2.26703 -1.31576,-1.81623 -1.31576,-4.58428 0,-3.30664 1.72928,-5.17288 1.72926,-1.87882 4.37327,-1.87882 2.96982,0 4.68656,1.96653 1.71674,1.95393 1.64154,5.99949 l -8.82175,0 q 0.0376,1.56571 0.85211,2.44245 0.81451,0.86421 2.03,0.86421 0.82705,0 1.39093,-0.45092 0.56389,-0.45089 0.8521,-1.45291 z m 0.20051,-3.55716 q -0.0376,-1.52803 -0.78946,-2.31713 -0.75185,-0.80163 -1.82951,-0.80163 -1.15284,0 -1.9047,0.83922 -0.75185,0.8392 -0.73932,2.27954 l 5.26299,0 z m 12.76897,-1.27752 q 0,-2.80566 0.83956,-4.70949 0.62655,-1.40281 1.7042,-2.51754 1.09019,-1.1148 2.38087,-1.65332 1.71675,-0.7265 3.95978,-0.7265 4.06,0 6.491,2.51755 2.44352,2.51762 2.44352,7.00161 0,4.44646 -2.41847,6.96399 -2.41846,2.50505 -6.46594,2.50505 -4.09759,0 -6.51607,-2.49254 -2.41845,-2.50505 -2.41845,-6.88881 z m 3.82192,-0.12531 q 0,3.11884 1.44105,4.73458 1.44106,1.60322 3.65902,1.60322 2.21796,0 3.63396,-1.59071 1.42853,-1.60323 1.42853,-4.79716 0,-3.15637 -1.39093,-4.70949 -1.37841,-1.55314 -3.67156,-1.55314 -2.29315,0 -3.69662,1.57824 -1.40345,1.56563 -1.40345,4.73446 z m 16.76634,-4.10825 3.28308,0 0,1.95392 q 0.63909,-1.00201 1.72927,-1.62822 1.09019,-0.62631 2.41846,-0.62631 2.31822,0 3.93471,1.81621 1.61648,1.81613 1.61648,5.06019 0,3.33165 -1.62903,5.18539 -1.62901,1.84122 -3.94722,1.84122 -1.10271,0 -2.00494,-0.4384 -0.8897,-0.43841 -1.87963,-1.50303 l 0,6.70101 -3.52118,0 0,-18.36198 z m 3.48358,6.42548 q 0,2.24196 0.8897,3.31916 0.88969,1.06463 2.16784,1.06463 1.22803,0 2.04254,-0.97694 0.81451,-0.9895 0.81451,-3.23153 0,-2.09173 -0.83957,-3.10625 -0.83958,-1.01453 -2.08014,-1.01453 -1.29068,0 -2.14279,1.00202 -0.85209,0.98951 -0.85209,2.94344 z m 18.39535,-6.42548 0,2.80564 -2.40593,0 0,5.36078 q 0,1.62832 0.0626,1.90384 0.0752,0.26309 0.31327,0.4384 0.25062,0.17539 0.60148,0.17539 0.48871,0 1.41599,-0.3382 l 0.30075,2.73045 q -1.22803,0.5261 -2.78186,0.5261 -0.95234,0 -1.71673,-0.31312 -0.76438,-0.32569 -1.12779,-0.8267 -0.35087,-0.51351 -0.4887,-1.37772 -0.11277,-0.6138 -0.11277,-2.48003 l 0,-5.79919 -1.61649,0 0,-2.80564 1.61649,0 0,-2.64277 3.53371,-2.05412 0,4.69689 2.40593,0 z m 2.44353,-1.80363 0,-3.25656 3.52118,0 0,3.25656 -3.52118,0 z m 0,15.10542 0,-13.30179 3.52118,0 0,13.30179 -3.52118,0 z m 6.86693,-13.30179 3.2455,0 0,1.81621 q 1.74179,-2.11682 4.14772,-2.11682 1.27816,0 2.21796,0.5261 0.93983,0.52602 1.54131,1.59072 0.87716,-1.0647 1.89216,-1.59072 1.01501,-0.5261 2.16785,-0.5261 1.46611,0 2.48112,0.60121 1.01501,0.58871 1.51624,1.74101 0.36339,0.85173 0.36339,2.75557 l 0,8.50461 -3.52118,0 0,-7.6028 q 0,-1.97895 -0.36339,-2.55514 -0.48872,-0.75153 -1.50373,-0.75153 -0.73931,0 -1.39091,0.45092 -0.6516,0.4509 -0.93982,1.32771 -0.28821,0.86422 -0.28821,2.74296 l 0,6.38788 -3.52118,0 0,-7.28971 q 0,-1.94134 -0.18797,-2.50503 -0.18796,-0.56361 -0.58895,-0.83913 -0.38846,-0.2756 -1.06514,-0.2756 -0.81449,0 -1.4661,0.43841 -0.6516,0.43841 -0.93981,1.26503 -0.27568,0.82671 -0.27568,2.74303 l 0,6.463 -3.52118,0 0,-13.30179 z m 23.08191,-1.80363 0,-3.25656 3.52117,0 0,3.25656 -3.52117,0 z m 0,15.10542 0,-13.30179 3.52117,0 0,13.30179 -3.52117,0 z m 5.71409,0 0,-2.74303 4.98728,-5.72399 q 1.22803,-1.40283 1.81698,-1.99153 -0.61402,0.0377 -1.61648,0.0497 l -4.6991,0.0248 0,-2.91836 11.00214,0 0,2.49254 -5.08755,5.8618 -1.79192,1.94133 q 1.46611,-0.0875 1.81698,-0.0875 l 5.45094,0 0,3.09368 -11.87927,0 z m 21.95411,-4.23355 3.50864,0.5887 q -0.67667,1.92893 -2.14279,2.94344 -1.45357,1.00202 -3.64648,1.00202 -3.47105,0 -5.13766,-2.26703 -1.31574,-1.81623 -1.31574,-4.58428 0,-3.30664 1.72927,-5.17288 1.72925,-1.87882 4.37328,-1.87882 2.9698,0 4.68656,1.96653 1.71671,1.95393 1.64153,5.99949 l -8.82175,0 q 0.0376,1.56571 0.85211,2.44245 0.8145,0.86421 2.02999,0.86421 0.82706,0 1.39093,-0.45092 0.5639,-0.45089 0.85211,-1.45291 z m 0.2005,-3.55716 q -0.0376,-1.52803 -0.78946,-2.31713 -0.75184,-0.80163 -1.82951,-0.80163 -1.15285,0 -1.90469,0.83922 -0.75186,0.8392 -0.73932,2.27954 l 5.26298,0 z m 9.73648,7.79071 -3.52116,0 0,-13.30179 3.27055,0 0,1.89133 q 0.83957,-1.34022 1.50372,-1.76604 0.67666,-0.4259 1.52876,-0.4259 1.20297,0 2.31822,0.6639 l -1.09019,3.06865 q -0.88969,-0.5762 -1.65408,-0.5762 -0.73931,0 -1.25308,0.4134 -0.51378,0.4008 -0.81451,1.46541 -0.28823,1.06463 -0.28823,4.45898 l 0,4.10826 z"
       id="path3857"
       style="fill:#000000;fill-rule:nonzero" />
    <path
       d="m 183.17831,16.27975 0,0 c 0,-8.16895 6.62527,-14.7912 14.79793,-14.7912 l 75.5326,0 c 3.92466,0 7.68858,1.55835 10.46371,4.33225 2.77516,2.77388 4.33423,6.53607 4.33423,10.45895 l 0,59.16303 c 0,8.16895 -6.62525,14.7912 -14.79794,14.7912 l -75.5326,0 c -8.17266,0 -14.79793,-6.62225 -14.79793,-14.7912 z"
       id="path3859"
       style="fill:#e0e4cc;fill-rule:nonzero" />
    <path
       d="m 183.17831,16.27975 0,0 c 0,-8.16895 6.62527,-14.7912 14.79792,-14.7912 l 75.5326,0 c 3.92467,0 7.68858,1.55835 10.46372,4.33225 2.77515,2.77388 4.33421,6.53608 4.33421,10.45895 l 0,59.16303 c 0,8.16896 -6.62525,14.79121 -14.79793,14.79121 l -75.5326,0 c -8.17265,0 -14.79792,-6.62225 -14.79792,-14.79121 z"
       id="path3861"
       style="stroke:#000000;stroke-width:3;stroke-linecap:butt;stroke-linejoin:round" />
    <path
       d="m 219.13169,25.23727 3.1202,0 0,9.80724 q 0,1.92888 -0.33833,2.95595 -0.45111,1.35271 -1.65409,2.17938 -1.19043,0.81412 -3.14526,0.81412 -2.29315,0 -3.5337,-1.27756 -1.24055,-1.29008 -1.24055,-3.77008 l 2.94475,-0.33818 q 0.05,1.32767 0.38845,1.87878 0.51376,0.83919 1.54131,0.83919 1.0526,0 1.47864,-0.60121 0.43858,-0.60121 0.43858,-2.47999 l 0,-10.00764 z m 8.49341,7.69048 -2.69415,-0.48848 q 0.45112,-1.61576 1.56638,-2.39232 1.11522,-0.78907 3.29559,-0.78907 1.99243,0 2.95731,0.47595 0.97741,0.46342 1.36587,1.18989 0.401,0.71394 0.401,2.65535 l -0.0249,3.46948 q 0,1.47796 0.13784,2.17937 0.15036,0.70141 0.53882,1.50302 l -2.94476,0 q -0.11277,-0.3006 -0.2882,-0.87675 -0.0627,-0.26304 -0.1003,-0.35071 -0.7644,0.73898 -1.62901,1.11474 -0.86465,0.36324 -1.85458,0.36324 -1.72927,0 -2.73173,-0.93941 -0.98996,-0.93938 -0.98996,-2.37978 0,-0.95192 0.45111,-1.6909 0.45112,-0.75151 1.26565,-1.13979 0.82702,-0.40081 2.36832,-0.70142 2.08013,-0.38827 2.88211,-0.72645 l 0,-0.28809 q 0,-0.86424 -0.42605,-1.22746 -0.41352,-0.36324 -1.59143,-0.36324 -0.78945,0 -1.24056,0.31314 -0.43857,0.31313 -0.71425,1.08969 z m 3.97229,2.41737 q -0.56389,0.18787 -1.80447,0.4509 -1.24053,0.26302 -1.61646,0.51353 -0.57642,0.41334 -0.57642,1.05211 0,0.62626 0.46364,1.07717 0.46363,0.45091 1.1779,0.45091 0.80197,0 1.5413,-0.52606 0.53883,-0.40081 0.70173,-0.97696 0.11278,-0.38827 0.11278,-1.45292 l 0,-0.58868 z m 8.78159,5.38582 -4.52365,-11.22256 3.12018,0 2.11772,5.72402 0.61401,1.91634 q 0.23809,-0.72646 0.30075,-0.96443 0.15035,-0.47596 0.3258,-0.95191 l 2.13025,-5.72402 3.05754,0 -4.46101,11.22256 -2.68159,0 z m 11.02463,-7.80319 -2.69415,-0.48848 q 0.45112,-1.61576 1.56636,-2.39232 1.11526,-0.78907 3.29564,-0.78907 1.99241,0 2.95729,0.47595 0.9774,0.46342 1.36586,1.18989 0.401,0.71394 0.401,2.65535 l -0.025,3.46948 q 0,1.47796 0.13784,2.17937 0.15037,0.70141 0.53883,1.50302 l -2.94477,0 q -0.11277,-0.3006 -0.2882,-0.87675 -0.0626,-0.26304 -0.1002,-0.35071 -0.7644,0.73898 -1.62903,1.11474 -0.86463,0.36324 -1.85458,0.36324 -1.72925,0 -2.73173,-0.93941 -0.98993,-0.93938 -0.98993,-2.37978 0,-0.95192 0.45111,-1.6909 0.45112,-0.75151 1.26562,-1.13979 0.82703,-0.40081 2.36834,-0.70142 2.08012,-0.38827 2.88209,-0.72645 l 0,-0.28809 q 0,-0.86424 -0.42603,-1.22746 -0.41352,-0.36324 -1.59143,-0.36324 -0.78945,0 -1.24055,0.31314 -0.43859,0.31313 -0.71427,1.08969 z m 3.97229,2.41737 q -0.56389,0.18787 -1.80444,0.4509 -1.24056,0.26302 -1.61649,0.51353 -0.57642,0.41334 -0.57642,1.05211 0,0.62626 0.46364,1.07717 0.46366,0.45091 1.1779,0.45091 0.80198,0 1.54131,-0.52606 0.53882,-0.40081 0.70172,-0.97696 0.11278,-0.38827 0.11278,-1.45292 l 0,-0.58868 z"
       id="path3863"
       style="fill:#000000;fill-rule:nonzero" />
    <path
       d="m 233.47517,66.38254 -3.40841,0 -1.35333,-3.51957 -6.19027,0 -1.27816,3.51957 -3.32069,0 6.0399,-15.49367 3.30815,0 6.20281,15.49367 z m -5.76423,-6.12481 -2.13025,-5.74907 -2.09266,5.74907 4.22291,0 z m 7.23056,6.12481 0,-15.49367 5.02486,0 q 2.84454,0 3.7217,0.23798 1.32828,0.33818 2.21797,1.51555 0.90221,1.16485 0.90221,3.0186 0,1.41533 -0.51376,2.39228 -0.51378,0.97697 -1.31575,1.52809 -0.80196,0.5511 -1.62901,0.73898 -1.11525,0.21293 -3.2455,0.21293 l -2.04253,0 0,5.84926 -3.12019,0 z m 3.12019,-12.8759 0,4.39635 1.71673,0 q 1.85457,0 2.46857,-0.23798 0.62655,-0.25051 0.97743,-0.76404 0.36339,-0.51352 0.36339,-1.20242 0,-0.85171 -0.50124,-1.39029 -0.4887,-0.55111 -1.25308,-0.68889 -0.5639,-0.11273 -2.25556,-0.11273 l -1.51624,0 z m 11.03832,12.8759 0,-15.49367 3.13272,0 0,15.49367 -3.13272,0 z"
       id="path3865"
       style="fill:#000000;fill-rule:nonzero" />
    <path
       d="m 297.8021,16.27975 0,0 c 0,-8.16895 6.62527,-14.7912 14.79793,-14.7912 l 75.53263,0 c 3.92461,0 7.68852,1.55835 10.46368,4.33225 2.77514,2.77388 4.33423,6.53607 4.33423,10.45895 l 0,59.16303 c 0,8.16895 -6.62528,14.7912 -14.79791,14.7912 l -75.53263,0 c -8.17266,0 -14.79793,-6.62225 -14.79793,-14.7912 z"
       id="path3867"
       style="fill:#f3de4a;fill-rule:nonzero" />
    <path
       d="m 297.80209,16.27975 0,0 c 0,-8.16895 6.62528,-14.7912 14.79793,-14.7912 l 75.53263,0 c 3.92462,0 7.68853,1.55835 10.46369,4.33225 2.77514,2.77388 4.33422,6.53608 4.33422,10.45895 l 0,59.16303 c 0,8.16896 -6.62528,14.79121 -14.79791,14.79121 l -75.53263,0 c -8.17265,0 -14.79793,-6.62225 -14.79793,-14.79121 z"
       id="path3869"
       style="stroke:#000000;stroke-width:3;stroke-linecap:butt;stroke-linejoin:round" />
    <path
       d="m 323.21028,35.69582 3.045,-0.3006 q 0.27568,1.52806 1.11526,2.25454 0.85209,0.71392 2.26808,0.71392 1.51624,0 2.28062,-0.63878 0.7644,-0.63878 0.7644,-1.49051 0,-0.5511 -0.32582,-0.93938 -0.31327,-0.38828 -1.11525,-0.67635 -0.55135,-0.18789 -2.50617,-0.67636 -2.51871,-0.61373 -3.53371,-1.52808 -1.42852,-1.27757 -1.42852,-3.11878 0,-1.17737 0.66413,-2.20442 0.67667,-1.03959 1.94229,-1.57819 1.26561,-0.53857 3.05754,-0.53857 2.90716,0 4.38582,1.27757 1.47863,1.27756 1.55381,3.41936 l -3.13272,0.13779 q -0.20049,-1.20242 -0.86462,-1.71596 -0.6516,-0.52605 -1.97988,-0.52605 -1.36587,0 -2.13026,0.5511 -0.50123,0.36325 -0.50123,0.96446 0,0.5511 0.46365,0.93937 0.58895,0.50101 2.86957,1.0396 2.29314,0.53858 3.38334,1.11474 1.09018,0.57616 1.70419,1.57818 0.62654,0.98949 0.62654,2.46746 0,1.32766 -0.73931,2.49251 -0.73931,1.16484 -2.09266,1.72848 -1.35334,0.56363 -3.37082,0.56363 -2.94475,0 -4.52363,-1.35272 -1.56638,-1.36524 -1.87964,-3.95796 z m 24.8223,-2.86827 -2.9197,0.52606 q -0.15037,-0.87677 -0.67667,-1.31514 -0.52629,-0.4509 -1.35334,-0.4509 -1.11526,0 -1.77939,0.76402 -0.65159,0.76403 -0.65159,2.56767 0,1.99151 0.66413,2.81817 0.67668,0.82666 1.80445,0.82666 0.85211,0 1.39093,-0.47595 0.53882,-0.48849 0.75185,-1.65333 l 2.91969,0.48847 q -0.4511,2.01656 -1.74178,3.04363 -1.29068,1.01455 -3.45853,1.01455 -2.46859,0 -3.93469,-1.55313 -1.45359,-1.55313 -1.45359,-4.29615 0,-2.78059 1.46611,-4.32118 1.46611,-1.55312 3.97229,-1.55312 2.05508,0 3.25803,0.88928 1.21551,0.87677 1.7418,2.68039 z m 4.32058,0.10021 -2.69412,-0.48848 q 0.4511,-1.61576 1.56635,-2.39232 1.11524,-0.78907 3.29563,-0.78907 1.9924,0 2.95728,0.47595 0.97741,0.46342 1.36587,1.18989 0.40099,0.71394 0.40099,2.65535 l -0.025,3.46948 q 0,1.47796 0.13784,2.17937 0.15037,0.70141 0.53884,1.50302 l -2.94476,0 q -0.11278,-0.3006 -0.28821,-0.87675 -0.0626,-0.26304 -0.10022,-0.35071 -0.76439,0.73898 -1.62901,1.11474 -0.86465,0.36324 -1.85457,0.36324 -1.72926,0 -2.73174,-0.93941 -0.98995,-0.93938 -0.98995,-2.37978 0,-0.95192 0.45112,-1.6909 0.45112,-0.75151 1.26562,-1.13979 0.82704,-0.40081 2.36833,-0.70142 2.08013,-0.38827 2.8821,-0.72646 l 0,-0.28808 q 0,-0.86424 -0.42605,-1.22746 -0.41351,-0.36324 -1.59141,-0.36324 -0.78946,0 -1.24057,0.31314 -0.43858,0.31313 -0.71424,1.08969 z m 3.97231,2.41737 q -0.5639,0.18787 -1.80445,0.45091 -1.24057,0.26301 -1.6165,0.51352 -0.57641,0.41334 -0.57641,1.05211 0,0.62626 0.46364,1.07717 0.46364,0.45091 1.17791,0.45091 0.80197,0 1.54129,-0.52606 0.53882,-0.40081 0.70175,-0.97696 0.11277,-0.38827 0.11277,-1.45292 l 0,-0.58868 z m 5.69899,5.38582 0,-15.49367 2.96983,0 0,15.49367 -2.96983,0 z m 8.15737,-7.80319 -2.69413,-0.48848 q 0.45111,-1.61576 1.56636,-2.39232 1.11524,-0.78907 3.29562,-0.78907 1.99242,0 2.9573,0.47595 0.97739,0.46342 1.36585,1.18989 0.401,0.71394 0.401,2.65535 l -0.025,3.46948 q 0,1.47796 0.13783,2.17937 0.15037,0.70141 0.53883,1.50302 l -2.94476,0 q -0.11279,-0.3006 -0.28821,-0.87675 -0.0627,-0.26304 -0.1003,-0.35071 -0.76439,0.73898 -1.62903,1.11474 -0.86462,0.36324 -1.85457,0.36324 -1.72926,0 -2.73173,-0.93941 -0.98993,-0.93938 -0.98993,-2.37978 0,-0.95192 0.45111,-1.6909 0.45111,-0.75151 1.26562,-1.13979 0.82703,-0.40081 2.36833,-0.70142 2.08014,-0.38827 2.88211,-0.72646 l 0,-0.28808 q 0,-0.86424 -0.42604,-1.22746 -0.41353,-0.36324 -1.59143,-0.36324 -0.78945,0 -1.24056,0.31314 -0.43858,0.31313 -0.71427,1.08969 z m 3.97229,2.41737 q -0.56388,0.18787 -1.80444,0.45091 -1.24055,0.26301 -1.61648,0.51352 -0.57643,0.41334 -0.57643,1.05211 0,0.62626 0.46364,1.07717 0.46364,0.45091 1.17791,0.45091 0.80197,0 1.5413,-0.52606 0.53884,-0.40081 0.70173,-0.97696 0.11277,-0.38827 0.11277,-1.45292 l 0,-0.58868 z"
       id="path3871"
       style="fill:#000000;fill-rule:nonzero" />
    <path
       d="m 348.09893,66.38254 -3.4084,0 -1.35334,-3.51957 -6.19027,0 -1.27815,3.51957 -3.32069,0 6.03989,-15.49367 3.30815,0 6.20281,15.49367 z m -5.7642,-6.12481 -2.13026,-5.74907 -2.09266,5.74907 4.22292,0 z m 7.23056,6.12481 0,-15.49367 5.02488,0 q 2.84452,0 3.72168,0.23798 1.32828,0.33818 2.21797,1.51555 0.90223,1.16485 0.90223,3.0186 0,1.41533 -0.51378,2.39228 -0.51376,0.97697 -1.31574,1.52809 -0.80197,0.5511 -1.62901,0.73898 -1.11525,0.21293 -3.2455,0.21293 l -2.04254,0 0,5.84926 -3.12019,0 z m 3.12019,-12.8759 0,4.39635 1.71673,0 q 1.85458,0 2.46859,-0.23798 0.62654,-0.25051 0.97742,-0.76404 0.36338,-0.51352 0.36338,-1.20242 0,-0.85171 -0.50124,-1.39029 -0.48869,-0.55111 -1.25307,-0.68889 -0.56389,-0.11273 -2.25557,-0.11273 l -1.51624,0 z m 11.03832,12.8759 0,-15.49367 3.13273,0 0,15.49367 -3.13273,0 z"
       id="path3873"
       style="fill:#000000;fill-rule:nonzero" />
    <path
       d="m 412.42589,16.27975 0,0 c 0,-8.16895 6.62528,-14.7912 14.79791,-14.7912 l 75.5326,0 c 3.92466,0 7.68858,1.55835 10.46374,4.33225 2.77515,2.77388 4.33421,6.53607 4.33421,10.45895 l 0,59.16303 c 0,8.16895 -6.62526,14.7912 -14.79795,14.7912 l -75.5326,0 c -8.17263,0 -14.79791,-6.62225 -14.79791,-14.7912 z"
       id="path3875"
       style="fill:#cff09e;fill-rule:nonzero" />
    <path
       d="m 412.42589,16.27975 0,0 c 0,-8.16895 6.62527,-14.7912 14.7979,-14.7912 l 75.53259,0 c 3.92468,0 7.68859,1.55835 10.46375,4.33225 2.77514,2.77388 4.33421,6.53608 4.33421,10.45895 l 0,59.16303 c 0,8.16896 -6.62527,14.79121 -14.79796,14.79121 l -75.53259,0 c -8.17263,0 -14.7979,-6.62225 -14.7979,-14.79121 z"
       id="path3877"
       style="stroke:#000000;stroke-width:3;stroke-linecap:butt;stroke-linejoin:round" />
    <path
       d="m 431.47743,53.55675 0,-15.49367 4.68655,0 2.81946,10.57126 2.76932,-10.57126 4.69909,0 0,15.49367 -2.90718,0 0,-12.19955 -3.07007,12.19955 -3.01993,0 -3.07008,-12.19955 0,12.19955 -2.90716,0 z m 24.3364,-3.56969 2.9573,0.4885 q -0.56389,1.62826 -1.80445,2.47998 -1.22804,0.85171 -3.08261,0.85171 -2.91968,0 -4.33568,-1.90383 -1.10272,-1.5406 -1.10272,-3.87029 0,-2.79311 1.45359,-4.37128 1.46611,-1.57818 3.6966,-1.57818 2.50618,0 3.94723,1.65332 1.4536,1.65333 1.39093,5.06018 l -7.44335,0 q 0.025,1.32768 0.71426,2.06666 0.6892,0.72646 1.71674,0.72646 0.70172,0 1.17791,-0.37576 0.47615,-0.38827 0.71425,-1.22747 z m 0.16291,-3.00605 q -0.025,-1.29009 -0.66413,-1.95393 -0.62656,-0.67635 -1.54132,-0.67635 -0.97741,0 -1.60395,0.71393 -0.63907,0.70142 -0.62655,1.91635 l 4.43595,0 z m 10.37298,-4.64684 0,2.36727 -2.02999,0 0,4.52159 q 0,1.37777 0.05,1.60323 0.0626,0.22544 0.26313,0.37576 0.21304,0.15029 0.51379,0.15029 0.4135,0 1.19042,-0.28808 l 0.25062,2.30463 q -1.02754,0.43839 -2.34328,0.43839 -0.80197,0 -1.45357,-0.26304 -0.6391,-0.27555 -0.93984,-0.7014 -0.30074,-0.42587 -0.41351,-1.15232 -0.10021,-0.52607 -0.10021,-2.0917 l 0,-4.89735 -1.36588,0 0,-2.36727 1.36588,0 0,-2.22948 2.98236,-1.72848 0,3.95796 2.02999,0 z m 8.47231,7.65289 2.95729,0.4885 q -0.5639,1.62826 -1.80445,2.47998 -1.22802,0.85171 -3.0826,0.85171 -2.91971,0 -4.33569,-1.90383 -1.10273,-1.5406 -1.10273,-3.87029 0,-2.79311 1.4536,-4.37128 1.4661,-1.57818 3.6966,-1.57818 2.50618,0 3.94724,1.65332 1.45359,1.65333 1.39092,5.06018 l -7.44334,0 q 0.025,1.32768 0.71426,2.06666 0.68919,0.72646 1.71673,0.72646 0.70173,0 1.1779,-0.37576 0.47619,-0.38827 0.71427,-1.22747 z m 0.1629,-3.00605 q -0.0249,-1.29009 -0.66414,-1.95393 -0.62653,-0.67635 -1.5413,-0.67635 -0.97741,0 -1.60396,0.71393 -0.63906,0.70142 -0.62654,1.91635 l 4.43594,0 z m 4.53363,0.80163 q 0,-1.47799 0.72679,-2.85574 0.73933,-1.3903 2.06761,-2.11678 1.34081,-0.72645 2.99487,-0.72645 2.5438,0 4.1728,1.65332 1.62901,1.65333 1.62901,4.17089 0,2.55514 -1.64155,4.23352 -1.64155,1.66585 -4.14773,1.66585 -1.54129,0 -2.94476,-0.68889 -1.39092,-0.70142 -2.13025,-2.0416 -0.72679,-1.35272 -0.72679,-3.29412 z m 3.04502,0.16281 q 0,1.66586 0.78943,2.55516 0.80199,0.88926 1.96735,0.88926 1.15286,0 1.9423,-0.88926 0.78944,-0.8893 0.78944,-2.58021 0,-1.6408 -0.78944,-2.53008 -0.78944,-0.88929 -1.9423,-0.88929 -1.16536,0 -1.96735,0.88929 -0.78943,0.88928 -0.78943,2.55513 z m 13.547,5.6113 -2.96981,0 0,-11.22258 2.75681,0 0,1.5907 q 0.71424,-1.12726 1.27814,-1.47797 0.56389,-0.36323 1.27814,-0.36323 1.01501,0 1.95483,0.5511 l -0.91476,2.59272 q -0.75186,-0.48848 -1.39093,-0.48848 -0.62654,0 -1.06512,0.3507 -0.42606,0.33818 -0.67667,1.24 -0.25063,0.90181 -0.25063,3.75755 l 0,3.46949 z"
       id="path3879"
       style="fill:#000000;fill-rule:nonzero" />
    <path
       d="m 527.04967,16.27975 0,0 c 0,-8.16895 6.62527,-14.7912 14.79791,-14.7912 l 75.53259,0 c 3.92467,0 7.68858,1.55835 10.46374,4.33225 2.77515,2.77388 4.33422,6.53607 4.33422,10.45895 l 0,59.16303 c 0,8.16895 -6.62526,14.7912 -14.79796,14.7912 l -75.53259,0 c -8.17264,0 -14.79791,-6.62225 -14.79791,-14.7912 z"
       id="path3881"
       style="fill:#ffffff;fill-rule:nonzero" />
    <path
       d="m 527.04967,16.27975 0,0 c 0,-8.16895 6.62527,-14.7912 14.7979,-14.7912 l 75.53259,0 c 3.92467,0 7.68859,1.55835 10.46375,4.33225 2.77514,2.77388 4.33421,6.53608 4.33421,10.45895 l 0,59.16303 c 0,8.16896 -6.62526,14.79121 -14.79796,14.79121 l -75.53259,0 c -8.17263,0 -14.7979,-6.62225 -14.7979,-14.79121 z"
       id="path3883"
       style="stroke:#000000;stroke-width:3;stroke-linecap:butt;stroke-linejoin:round" />
    <path
       d="m 572.25861,53.55675 0,-2.96847 2.96983,0 0,2.96847 -2.96983,0 z m 5.93945,0 0,-2.96847 2.96981,0 0,2.96847 -2.96981,0 z m 5.93939,0 0,-2.96847 2.96982,0 0,2.96847 -2.96982,0 z"
       id="path3885"
       style="fill:#000000;fill-rule:nonzero" />
    <path
       d="m 1.4999834,194.59317 0,0 c 0,-6.33756 5.1399939,-11.47524 11.4805006,-11.47524 l 147.361246,0 c 3.04482,0 5.96494,1.20898 8.11794,3.36099 2.15302,2.15209 3.36256,5.07084 3.36256,8.11425 l 0,45.89976 c 0,6.33763 -5.13999,11.47533 -11.4805,11.47533 l -147.361247,0 0,0 c -6.3405057,0 -11.4805004,-5.1377 -11.4805004,-11.47533 z"
       id="path3887"
       style="fill:#f3f3f3;fill-rule:nonzero" />
    <path
       d="m 1.4999834,194.59318 0,0 c 0,-6.33754 5.1399938,-11.47524 11.4805006,-11.47524 l 147.361246,0 c 3.04482,0 5.96494,1.20899 8.11794,3.361 2.153,2.15208 3.36255,5.07084 3.36255,8.11424 l 0,45.89976 c 0,6.33763 -5.13998,11.47533 -11.48049,11.47533 l -147.361247,0 0,0 c -6.3405058,0 -11.4805004,-5.1377 -11.4805004,-11.47533 z"
       id="path3889"
       style="stroke:#000000;stroke-width:3;stroke-linecap:butt;stroke-linejoin:round" />
    <path
       d="m 17.265034,226.93798 0,-18.36197 3.709143,0 0,7.22703 7.267918,0 0,-7.22703 3.709145,0 0,18.36197 -3.709145,0 0,-8.02871 -7.267918,0 0,8.02871 -3.709143,0 z m 21.127084,-9.24363 -3.195382,-0.57611 q 0.538832,-1.92894 1.854572,-2.85575 1.315748,-0.92691 3.909639,-0.92691 2.355808,0 3.508649,0.56363 1.152844,0.55109 1.61649,1.41539 0.476174,0.85172 0.476174,3.14377 l -0.0376,4.10826 q 0,1.75353 0.162897,2.59274 0.175432,0.8267 0.639079,1.77861 l -3.483588,0 q -0.137843,-0.3507 -0.338339,-1.03961 -0.08771,-0.31312 -0.125308,-0.4133 -0.902224,0.8767 -1.929757,1.31511 -1.027533,0.43841 -2.192901,0.43841 -2.055067,0 -3.245507,-1.1148 -1.177903,-1.11473 -1.177903,-2.81816 0,-1.12721 0.538832,-2.00403 0.538823,-0.8893 1.503707,-1.35272 0.97741,-0.47591 2.80692,-0.82661 2.468582,-0.46349 3.42093,-0.86431 l 0,-0.3507 q 0,-1.01453 -0.501236,-1.44034 -0.501236,-0.43841 -1.892161,-0.43841 -0.939821,0 -1.466117,0.37572 -0.526299,0.3633 -0.852103,1.29012 z m 4.711616,2.85574 q -0.676668,0.2255 -2.142787,0.53861 -1.466111,0.3131 -1.917222,0.61372 -0.689203,0.4885 -0.689203,1.24 0,0.739 0.551359,1.27754 0.551359,0.5386 1.40346,0.5386 0.952347,0 1.816983,-0.62622 0.639072,-0.476 0.839565,-1.1649 0.137845,-0.45091 0.137845,-1.71594 l 0,-0.70141 z m 19.134675,6.38789 -3.270567,0 0,-1.95393 q -0.814502,1.13974 -1.929757,1.70343 -1.102718,0.55111 -2.230498,0.55111 -2.293158,0 -3.934701,-1.84123 -1.629016,-1.85372 -1.629016,-5.16037 0,-3.38184 1.59142,-5.13538 1.591427,-1.76603 4.022421,-1.76603 2.230498,0 3.859513,1.85372 l 0,-6.61329 3.521185,0 0,18.36197 z m -9.398176,-6.939 q 0,2.12933 0.588956,3.08125 0.8521,1.37771 2.38087,1.37771 1.2155,0 2.067599,-1.02701 0.852102,-1.03961 0.852102,-3.09375 0,-2.29213 -0.827039,-3.29414 -0.82704,-1.01453 -2.117725,-1.01453 -1.253089,0 -2.105191,1.00203 -0.839572,0.9895 -0.839572,2.96844 z m 12.054726,0.10021 q 0,-1.75354 0.864627,-3.39435 0.864636,-1.64074 2.443528,-2.50504 1.59142,-0.86422 3.546239,-0.86422 3.019948,0 4.949707,1.96644 1.929755,1.95393 1.929755,4.94746 0,3.01857 -1.954818,5.0101 -1.942291,1.97901 -4.899582,1.97901 -1.82951,0 -3.496116,-0.8267 -1.654077,-0.82664 -2.518713,-2.41734 -0.864627,-1.60323 -0.864627,-3.89536 z m 3.608896,0.1879 q 0,1.97894 0.939813,3.03105 0.939821,1.05211 2.318219,1.05211 1.378398,0 2.305684,-1.05211 0.939814,-1.05211 0.939814,-3.05614 0,-1.95394 -0.939814,-3.00605 -0.927286,-1.05212 -2.305684,-1.05212 -1.378398,0 -2.318219,1.05212 -0.939813,1.05211 -0.939813,3.03114 z m 12.067245,-0.1879 q 0,-1.75354 0.864634,-3.39435 0.864628,-1.64074 2.44352,-2.50504 1.591427,-0.86422 3.546247,-0.86422 3.019941,0 4.949706,1.96644 1.929749,1.95393 1.929749,4.94746 0,3.01857 -1.954819,5.0101 -1.94228,1.97901 -4.899572,1.97901 -1.829512,0 -3.496125,-0.8267 -1.654078,-0.82664 -2.518706,-2.41734 -0.864634,-1.60323 -0.864634,-3.89536 z m 3.608896,0.1879 q 0,1.97894 0.939821,3.03105 0.939813,1.05211 2.318212,1.05211 1.378399,0 2.305679,-1.05211 0.939826,-1.05211 0.939826,-3.05614 0,-1.95394 -0.939826,-3.00605 -0.92728,-1.05212 -2.305679,-1.05212 -1.378399,0 -2.318212,1.05212 -0.939821,1.05211 -0.939821,3.03114 z m 12.781515,-6.65091 3.283079,0 0,1.95394 q 0.63909,-1.00203 1.72927,-1.62824 1.09019,-0.6263 2.41846,-0.6263 2.31822,0 3.93471,1.81614 1.61647,1.81621 1.61647,5.06017 0,3.33175 -1.62901,5.18547 -1.62901,1.84123 -3.94722,1.84123 -1.10273,0 -2.00495,-0.43841 -0.8897,-0.43841 -1.87963,-1.50302 l 0,6.701 -3.521179,0 0,-18.36198 z m 3.483589,6.42542 q 0,2.24203 0.88969,3.31923 0.88969,1.06462 2.16783,1.06462 1.22803,0 2.04255,-0.97701 0.8145,-0.98942 0.8145,-3.23145 0,-2.09173 -0.83957,-3.10625 -0.83957,-1.01453 -2.08012,-1.01453 -1.29069,0 -2.1428,1.00203 -0.85208,0.98942 -0.85208,2.94336 z m 19.39781,6.87638 0,-18.36197 5.5512,0 3.33321,12.52521 3.29563,-12.52521 5.5637,0 0,18.36197 -3.44599,0 0,-14.45412 -3.6465,14.45412 -3.57129,0 -3.63395,-14.45412 0,14.45412 -3.44601,0 z m 21.44035,0 0,-18.36197 7.80675,0 q 2.94476,0 4.27304,0.50102 1.34081,0.48849 2.14278,1.75351 0.80197,1.26503 0.80197,2.89334 0,2.06664 -1.21548,3.41936 -1.21551,1.34021 -3.63396,1.69092 1.20296,0.70142 1.97987,1.54062 0.78945,0.83913 2.11772,2.98097 l 2.24305,3.58223 -4.43595,0 -2.68161,-3.99556 q -1.42852,-2.14182 -1.95482,-2.69294 -0.5263,-0.56361 -1.11525,-0.764 -0.58895,-0.21291 -1.8671,-0.21291 l -0.75186,0 0,7.66541 -3.70915,0 z m 3.70915,-10.59634 2.74427,0 q 2.66908,0 3.33321,-0.22543 0.66414,-0.22548 1.04007,-0.77659 0.37593,-0.55111 0.37593,-1.37774 0,-0.9269 -0.50124,-1.49052 -0.4887,-0.5762 -1.39093,-0.72649 -0.45112,-0.0625 -2.70667,-0.0625 l -2.89464,0 0,4.65937 z"
       id="path3891"
       style="fill:#000000;fill-rule:nonzero" />
    <path
       d="m 1.4999834,29.75804 0,0 c 0,-15.6128 12.6624486,-28.26949 28.2823566,-28.26949 l 113.75754,0 0,0 c 7.50094,0 14.69468,2.97838 19.99866,8.27994 5.30395,5.30157 8.28369,12.49202 8.28369,19.98955 l 0,113.0746 c 0,15.61286 -12.66244,28.26951 -28.28235,28.26951 l -113.75754,0 c -15.619908,0 -28.2823566,-12.65665 -28.2823566,-28.26951 z"
       id="path3893"
       style="fill:#f3f3f3;fill-rule:nonzero" />
    <path
       d="m 1.4999834,29.75805 0,0 c 0,-15.61281 12.6624486,-28.2695 28.2823566,-28.2695 l 113.75753,0 0,0 c 7.50095,0 14.69469,2.97839 19.99865,8.27995 5.30397,5.30156 8.2837,12.49201 8.2837,19.98955 l 0,113.0746 c 0,15.61286 -12.66244,28.26952 -28.28235,28.26952 l -113.75753,0 c -15.619908,0 -28.2823566,-12.65666 -28.2823566,-28.26952 z"
       id="path3895"
       style="stroke:#000000;stroke-width:3;stroke-linecap:butt;stroke-linejoin:round" />
    <path
       d="m 35.058901,80.45961 0,-18.36193 3.709144,0 0,7.22704 7.267918,0 0,-7.22704 3.709143,0 0,18.36193 -3.709143,0 0,-8.02864 -7.267918,0 0,8.02864 -3.709144,0 z m 18.495596,-15.10538 0,-3.25655 3.521184,0 0,3.25655 -3.521184,0 z m 0,15.10538 0,-13.30175 3.521184,0 0,13.30175 -3.521184,0 z m 10.789102,0 -5.363221,-13.30175 3.696609,0 2.506179,6.78864 0.726791,2.26707 q 0.288216,-0.86424 0.3634,-1.1398 0.175433,-0.56362 0.375926,-1.12727 l 2.531242,-6.78864 3.621422,0 -5.288036,13.30175 -3.170312,0 z m 18.320162,-4.23351 3.508652,0.58868 q -0.676669,1.92887 -2.142788,2.94342 -1.453584,1.00202 -3.646483,1.00202 -3.471061,0 -5.137667,-2.26706 -1.315747,-1.81615 -1.315747,-4.58421 0,-3.30666 1.729263,-5.17292 1.729263,-1.87878 4.373285,-1.87878 2.969817,0 4.686552,1.96647 1.716729,1.95392 1.641542,5.99955 l -8.821746,0 q 0.03762,1.56566 0.852102,2.44242 0.814511,0.86423 2.030005,0.86423 0.827036,0 1.39093,-0.45091 0.563887,-0.45091 0.8521,-1.45291 z m 0.200495,-3.55716 q -0.03761,-1.52807 -0.78945,-2.31715 -0.751853,-0.80162 -1.829509,-0.80162 -1.152843,0 -1.904695,0.83918 -0.751854,0.8392 -0.739318,2.27959 l 5.262972,0 z m 16.127259,-1.45292 -3.195377,-0.57616 q 0.538818,-1.92888 1.854576,-2.85574 1.315727,-0.92687 3.909636,-0.92687 2.35581,0 3.50864,0.56364 1.15284,0.5511 1.61649,1.41534 0.47617,0.85172 0.47617,3.14383 l -0.0376,4.10827 q 0,1.75351 0.16289,2.5927 0.17544,0.82667 0.63909,1.77858 l -3.48359,0 q -0.13785,-0.35071 -0.33834,-1.03959 -0.0876,-0.31313 -0.12531,-0.41333 -0.90222,0.87677 -1.92974,1.31515 -1.02755,0.43838 -2.192908,0.43838 -2.055068,0 -3.245504,-1.11474 -1.177908,-1.11475 -1.177908,-2.81817 0,-1.12727 0.538829,-2.00404 0.538827,-0.88927 1.503707,-1.35272 0.977414,-0.47596 2.806924,-0.82666 2.46857,-0.46343 3.42093,-0.86423 l 0,-0.35071 q 0,-1.01455 -0.50125,-1.4404 -0.50123,-0.43838 -1.89215,-0.43838 -0.93982,0 -1.46612,0.37576 -0.526291,0.36323 -0.852105,1.29009 z m 4.711605,2.85575 q -0.67667,0.22545 -2.14277,0.53859 -1.46612,0.31311 -1.917227,0.61373 -0.689203,0.48847 -0.689203,1.23999 0,0.73898 0.551364,1.27757 0.551356,0.53858 1.403446,0.53858 0.95236,0 1.81698,-0.62626 0.63909,-0.47596 0.83958,-1.16485 0.13783,-0.4509 0.13783,-1.71594 l 0,-0.70141 z m 19.03444,6.38784 -3.52119,0 0,-6.78865 q 0,-2.15434 -0.22555,-2.7806 -0.22556,-0.63878 -0.73932,-0.98948 -0.50125,-0.35071 -1.21551,-0.35071 -0.91474,0 -1.64154,0.501 -0.72679,0.50102 -1.00247,1.32767 -0.26315,0.82667 -0.26315,3.05616 l 0,6.02461 -3.52119,0 0,-13.30175 3.27057,0 0,1.95393 q 1.74179,-2.25454 4.38581,-2.25454 1.16538,0 2.13025,0.42586 0.96488,0.41334 1.45358,1.06464 0.50123,0.65132 0.6892,1.47797 0.20051,0.82667 0.20051,2.36727 l 0,8.26662 z m 15.77638,0 -3.27057,0 0,-1.95392 q -0.81451,1.13979 -1.92974,1.70342 -1.10272,0.55111 -2.2305,0.55111 -2.29316,0 -3.9347,-1.8412 -1.62903,-1.85373 -1.62903,-5.16038 0,-3.3818 1.59143,-5.13533 1.59143,-1.76606 4.02243,-1.76606 2.23049,0 3.85951,1.85373 l 0,-6.6133 3.52117,0 0,18.36193 z m -9.39816,-6.93895 q 0,2.12929 0.58895,3.0812 0.8521,1.37776 2.38086,1.37776 1.2155,0 2.06761,-1.02706 0.8521,-1.03959 0.8521,-3.09373 0,-2.29211 -0.82705,-3.29413 -0.82703,-1.01453 -2.11771,-1.01453 -1.25309,0 -2.10518,1.00202 -0.83958,0.98948 -0.83958,2.96847 z"
       id="path3897"
       style="fill:#000000;fill-rule:nonzero" />
    <path
       d="m 48.473227,104.08213 q 0,-1.75353 0.864628,-3.39434 0.864634,-1.64079 2.443527,-2.50504 1.591419,-0.86423 3.546246,-0.86423 3.019942,0 4.949699,1.96645 1.929758,1.95393 1.929758,4.94745 0,3.01859 -1.954819,5.0101 -1.942285,1.97895 -4.899576,1.97895 -1.829519,0 -3.496122,-0.82662 -1.654079,-0.82671 -2.518713,-2.41739 -0.864628,-1.60323 -0.864628,-3.89533 z m 3.608897,0.18787 q 0,1.97898 0.939813,3.03109 0.93982,1.05211 2.318219,1.05211 1.378398,0 2.305683,-1.05211 0.939821,-1.05211 0.939821,-3.05615 0,-1.95392 -0.939821,-3.00604 -0.927285,-1.05211 -2.305683,-1.05211 -1.378399,0 -2.318219,1.05211 -0.939813,1.05212 -0.939813,3.0311 z m 18.984306,-6.65088 0,2.80565 -2.405932,0 0,5.36078 q 0,1.62828 0.06263,1.90384 0.07515,0.26303 0.313276,0.43836 0.250618,0.17536 0.601483,0.17536 0.488701,0 1.415987,-0.33818 l 0.300741,2.73051 q -1.228027,0.52603 -2.781858,0.52603 -0.952347,0 -1.716727,-0.31311 -0.764389,-0.3257 -1.127782,-0.82671 -0.350863,-0.51351 -0.488708,-1.37774 -0.112774,-0.61373 -0.112774,-2.47998 l 0,-5.79916 -1.616489,0 0,-2.80565 1.616489,0 0,-2.64281 3.533712,-2.05414 0,4.69695 2.405931,0 z m 5.952169,-5.06018 0,6.75107 q 1.704201,-1.99149 4.072535,-1.99149 1.215501,0 2.192909,0.4509 0.97741,0.4509 1.466111,1.15232 0.501235,0.70142 0.676668,1.55312 0.187967,0.85173 0.187967,2.64282 l 0,7.80319 -3.521185,0 0,-7.02663 q 0,-2.09169 -0.200492,-2.65534 -0.200497,-0.56362 -0.714258,-0.88929 -0.501236,-0.33818 -1.265622,-0.33818 -0.877163,0 -1.566359,0.42586 -0.689202,0.42586 -1.015006,1.2901 -0.313268,0.85172 -0.313268,2.53009 l 0,6.66339 -3.521177,0 0,-18.36193 3.521177,0 z m 19.873989,14.12842 3.508652,0.58869 q -0.676666,1.92887 -2.142783,2.94341 -1.453586,1.00201 -3.646488,1.00201 -3.471061,0 -5.137668,-2.26706 -1.315744,-1.81614 -1.315744,-4.58422 0,-3.30664 1.729262,-5.17289 1.729262,-1.87878 4.373283,-1.87878 2.969819,0 4.686557,1.96645 1.716731,1.95393 1.641531,5.99957 l -8.821736,0 q 0.03765,1.56564 0.852101,2.44242 0.814514,0.86423 2.030001,0.86423 0.827041,0 1.39093,-0.45091 0.56389,-0.45089 0.852102,-1.45292 z m 0.200494,-3.55715 q -0.03765,-1.52808 -0.789444,-2.31717 -0.751859,-0.80161 -1.829515,-0.80161 -1.15284,0 -1.904698,0.8392 -0.75185,0.83917 -0.739314,2.27958 l 5.262971,0 z m 9.736498,7.79066 -3.52117,0 0,-13.30175 3.27055,0 0,1.8913 q 0.83958,-1.34018 1.50372,-1.76605 0.67666,-0.42585 1.52876,-0.42585 1.20298,0 2.31822,0.66384 l -1.0902,3.06866 q -0.88968,-0.57616 -1.65407,-0.57616 -0.73931,0 -1.25308,0.41334 -0.51377,0.4008 -0.81452,1.46545 -0.28821,1.06463 -0.28821,4.45897 l 0,4.10825 z m 5.37576,-3.79512 3.53371,-0.53859 q 0.22556,1.02707 0.91475,1.56566 0.6892,0.52605 1.92977,0.52605 1.36587,0 2.05506,-0.50101 0.46364,-0.35071 0.46364,-0.93938 0,-0.40082 -0.25061,-0.66385 -0.26316,-0.2505 -1.17791,-0.46342 -4.2605,-0.9394 -5.40081,-1.71595 -1.57889,-1.07718 -1.57889,-2.99353 0,-1.72847 1.36587,-2.90583 1.36585,-1.17738 4.23544,-1.17738 2.73171,0 4.06,0.88929 1.32827,0.8893 1.82951,2.63029 l -3.32069,0.61375 q -0.21302,-0.77657 -0.8145,-1.18991 -0.58896,-0.41333 -1.69167,-0.41333 -1.39093,0 -1.99242,0.38828 -0.40098,0.27555 -0.40098,0.71393 0,0.37577 0.35086,0.6388 0.47617,0.35069 3.28309,0.98949 2.81945,0.63878 3.9347,1.56564 1.10272,0.93939 1.10272,2.61777 0,1.82867 -1.52875,3.14381 -1.52879,1.31514 -4.52366,1.31514 -2.71921,0 -4.31063,-1.10222 -1.57889,-1.10219 -2.0676,-2.9935 z"
       id="path3899"
       style="fill:#000000;fill-rule:nonzero" />
  </g>
</svg>
