<?xml version="1.0" standalone="yes"?>

<svg version="1.1" viewBox="0.0 0.0 452.0 161.0" fill="none" stroke="none" stroke-linecap="square" stroke-miterlimit="10" xmlns="http://www.w3.org/2000/svg" xmlns:xlink="http://www.w3.org/1999/xlink"><clipPath id="p.0"><path d="m0 0l452.0 0l0 161.0l-452.0 0l0 -161.0z" clip-rule="nonzero"></path></clipPath><g clip-path="url(#p.0)"><path fill="#000000" fill-opacity="0.0" d="m0 0l452.93964 0l0 161.48294l-452.93964 0z" fill-rule="nonzero"></path><path fill="#a7dbd8" d="m119.267715 19.916233l0 0c0 -6.1230917 4.963745 -11.086837 11.086838 -11.086837l81.19641 0c2.9404144 0 5.760391 1.1680737 7.839569 3.2472591c2.079193 2.0791855 3.2472687 4.899165 3.2472687 7.8395777l0 44.346012c0 6.1230927 -4.963745 11.086838 -11.086838 11.086838l-81.19641 0c-6.1230927 0 -11.086838 -4.963745 -11.086838 -11.086838z" fill-rule="nonzero"></path><path stroke="#000000" stroke-width="2.0" stroke-linejoin="round" stroke-linecap="butt" d="m119.267715 19.916233l0 0c0 -6.1230917 4.963745 -11.086837 11.086838 -11.086837l81.19641 0c2.9404144 0 5.760391 1.1680737 7.839569 3.2472591c2.079193 2.0791855 3.2472687 4.899165 3.2472687 7.8395777l0 44.346012c0 6.1230927 -4.963745 11.086838 -11.086838 11.086838l-81.19641 0c-6.1230927 0 -11.086838 -4.963745 -11.086838 -11.086838z" fill-rule="nonzero"></path><path fill="#000000" d="m147.68933 40.92861q0 0.359375 -0.03125 0.609375q-0.015625 0.234375 -0.0625 0.375q-0.03125 0.125 -0.109375 0.171875q-0.0625 0.046875 -0.15625 0.046875q-0.078125 0 -0.1875 -0.03125q-0.109375 -0.03125 -0.234375 -0.078125q-0.125 -0.046875 -0.28125 -0.078125q-0.15625 -0.03125 -0.34375 -0.03125q-0.203125 0 -0.421875 0.09375q-0.21875 0.078125 -0.453125 0.265625q-0.21875 0.1875 -0.484375 0.5q-0.25 0.296875 -0.53125 0.75l0 5.703125q0 0.09375 -0.0625 0.171875q-0.0625 0.078125 -0.21875 0.140625q-0.140625 0.046875 -0.390625 0.0625q-0.234375 0.03125 -0.625 0.03125q-0.375 0 -0.625 -0.03125q-0.234375 -0.015625 -0.390625 -0.0625q-0.140625 -0.0625 -0.203125 -0.140625q-0.0625 -0.078125 -0.0625 -0.171875l0 -9.15625q0 -0.09375 0.046875 -0.171875q0.046875 -0.078125 0.171875 -0.125q0.140625 -0.0625 0.34375 -0.078125q0.21875 -0.03125 0.546875 -0.03125q0.328125 0 0.53125 0.03125q0.21875 0.015625 0.328125 0.078125q0.125 0.046875 0.171875 0.125q0.0625 0.078125 0.0625 0.171875l0 1.140625q0.359375 -0.515625 0.671875 -0.84375q0.3125 -0.328125 0.59375 -0.515625q0.296875 -0.203125 0.578125 -0.28125q0.296875 -0.078125 0.578125 -0.078125q0.140625 0 0.296875 0.015625q0.15625 0.015625 0.3125 0.046875q0.171875 0.03125 0.28125 0.078125q0.125 0.046875 0.1875 0.109375q0.0625 0.046875 0.078125 0.109375q0.03125 0.0625 0.046875 0.171875q0.015625 0.109375 0.03125 0.328125q0.015625 0.203125 0.015625 0.578125zm10.143982 3.453125q0 0.46875 -0.203125 0.703125q-0.203125 0.21875 -0.578125 0.21875l-5.5625 0q0 0.578125 0.125 1.0625q0.140625 0.46875 0.4375 0.8125q0.3125 0.328125 0.78125 0.5q0.484375 0.171875 1.15625 0.171875q0.671875 0 1.1875 -0.09375q0.515625 -0.09375 0.890625 -0.203125q0.375 -0.125 0.609375 -0.21875q0.25 -0.109375 0.40625 -0.109375q0.09375 0 0.15625 0.046875q0.0625 0.03125 0.09375 0.125q0.046875 0.09375 0.0625 0.265625q0.015625 0.15625 0.015625 0.421875q0 0.21875 -0.015625 0.390625q0 0.15625 -0.03125 0.265625q-0.015625 0.109375 -0.0625 0.1875q-0.03125 0.078125 -0.109375 0.15625q-0.0625 0.0625 -0.359375 0.1875q-0.296875 0.125 -0.765625 0.25q-0.453125 0.109375 -1.046875 0.1875q-0.59375 0.09375 -1.265625 0.09375q-1.21875 0 -2.140625 -0.296875q-0.921875 -0.3125 -1.546875 -0.9375q-0.609375 -0.625 -0.90625 -1.578125q-0.296875 -0.953125 -0.296875 -2.234375q0 -1.234375 0.3125 -2.203125q0.3125 -0.984375 0.921875 -1.65625q0.609375 -0.6875 1.46875 -1.046875q0.875 -0.359375 1.953125 -0.359375q1.15625 0 1.96875 0.34375q0.8125 0.328125 1.328125 0.9375q0.53125 0.59375 0.765625 1.421875q0.25 0.8125 0.25 1.78125l0 0.40625zm-2.5 -0.734375q0.03125 -1.09375 -0.4375 -1.703125q-0.453125 -0.625 -1.4375 -0.625q-0.484375 0 -0.859375 0.1875q-0.359375 0.171875 -0.609375 0.484375q-0.234375 0.3125 -0.359375 0.75q-0.125 0.421875 -0.140625 0.90625l3.84375 0zm13.471344 5.578125q0 0.109375 -0.0625 0.1875q-0.046875 0.078125 -0.171875 0.125q-0.109375 0.046875 -0.328125 0.0625q-0.203125 0.03125 -0.515625 0.03125q-0.328125 0 -0.53125 -0.03125q-0.203125 -0.015625 -0.34375 -0.0625q-0.125 -0.046875 -0.1875 -0.125q-0.046875 -0.078125 -0.046875 -0.1875l0 -1.015625q-0.703125 0.75 -1.484375 1.171875q-0.765625 0.421875 -1.71875 0.421875q-1.046875 0 -1.765625 -0.40625q-0.71875 -0.40625 -1.1875 -1.09375q-0.453125 -0.6875 -0.65625 -1.59375q-0.203125 -0.921875 -0.203125 -1.9375q0 -1.21875 0.265625 -2.1875q0.265625 -0.984375 0.765625 -1.671875q0.5 -0.6875 1.25 -1.046875q0.75 -0.375 1.71875 -0.375q0.765625 0 1.390625 0.3125q0.625 0.3125 1.25 0.921875l0 -4.953125q0 -0.109375 0.046875 -0.1875q0.0625 -0.078125 0.203125 -0.140625q0.15625 -0.0625 0.40625 -0.09375q0.25 -0.03125 0.625 -0.03125q0.375 0 0.625 0.03125q0.25 0.03125 0.390625 0.09375q0.140625 0.0625 0.203125 0.140625q0.0625 0.078125 0.0625 0.1875l0 13.453125zm-2.5625 -6.109375q-0.5625 -0.703125 -1.078125 -1.0625q-0.5 -0.375 -1.046875 -0.375q-0.5 0 -0.875 0.25q-0.359375 0.25 -0.578125 0.671875q-0.21875 0.421875 -0.328125 0.9375q-0.109375 0.515625 -0.109375 1.0625q0 0.5625 0.09375 1.109375q0.09375 0.546875 0.296875 0.96875q0.21875 0.421875 0.5625 0.6875q0.359375 0.25 0.890625 0.25q0.265625 0 0.515625 -0.078125q0.25 -0.078125 0.5 -0.25q0.265625 -0.171875 0.546875 -0.453125q0.28125 -0.28125 0.609375 -0.6875l0 -3.03125zm14.007629 6.109375q0 0.09375 -0.0625 0.171875q-0.046875 0.078125 -0.171875 0.140625q-0.125 0.046875 -0.34375 0.0625q-0.203125 0.03125 -0.515625 0.03125q-0.34375 0 -0.5625 -0.03125q-0.203125 -0.015625 -0.328125 -0.0625q-0.125 -0.0625 -0.171875 -0.140625q-0.046875 -0.078125 -0.046875 -0.171875l0 -1.0625q-0.765625 0.828125 -1.546875 1.234375q-0.78125 0.40625 -1.625 0.40625q-0.9375 0 -1.578125 -0.296875q-0.640625 -0.3125 -1.046875 -0.84375q-0.390625 -0.546875 -0.5625 -1.234375q-0.171875 -0.703125 -0.171875 -1.75l0 -5.609375q0 -0.09375 0.0625 -0.171875q0.0625 -0.078125 0.203125 -0.125q0.15625 -0.0625 0.40625 -0.078125q0.25 -0.03125 0.609375 -0.03125q0.390625 0 0.625 0.03125q0.25 0.015625 0.390625 0.078125q0.15625 0.046875 0.21875 0.125q0.0625 0.078125 0.0625 0.171875l0 5.171875q0 0.71875 0.09375 1.109375q0.09375 0.375 0.28125 0.640625q0.1875 0.265625 0.484375 0.421875q0.296875 0.140625 0.6875 0.140625q0.484375 0 0.984375 -0.359375q0.5 -0.359375 1.0625 -1.046875l0 -6.078125q0 -0.09375 0.046875 -0.171875q0.0625 -0.078125 0.203125 -0.125q0.15625 -0.0625 0.40625 -0.078125q0.25 -0.03125 0.625 -0.03125q0.375 0 0.625 0.03125q0.25 0.015625 0.390625 0.078125q0.140625 0.046875 0.203125 0.125q0.0625 0.078125 0.0625 0.171875l0 9.15625zm9.695129 -1.46875q0 0.28125 -0.015625 0.46875q-0.015625 0.171875 -0.046875 0.296875q-0.03125 0.109375 -0.0625 0.1875q-0.03125 0.078125 -0.15625 0.203125q-0.125 0.109375 -0.421875 0.28125q-0.296875 0.171875 -0.6875 0.3125q-0.375 0.125 -0.828125 0.203125q-0.4375 0.078125 -0.90625 0.078125q-1.046875 0 -1.875 -0.328125q-0.8125 -0.328125 -1.375 -0.96875q-0.546875 -0.640625 -0.828125 -1.5625q-0.28125 -0.921875 -0.28125 -2.109375q0 -1.375 0.34375 -2.375q0.34375 -1.0 0.953125 -1.65625q0.625 -0.65625 1.46875 -0.96875q0.84375 -0.3125 1.84375 -0.3125q0.40625 0 0.796875 0.078125q0.40625 0.0625 0.75 0.1875q0.34375 0.109375 0.609375 0.265625q0.265625 0.15625 0.375 0.28125q0.125 0.109375 0.171875 0.1875q0.046875 0.0625 0.0625 0.1875q0.03125 0.125 0.046875 0.3125q0.015625 0.171875 0.015625 0.4375q0 0.59375 -0.109375 0.828125q-0.09375 0.234375 -0.265625 0.234375q-0.171875 0 -0.375 -0.140625q-0.1875 -0.140625 -0.453125 -0.3125q-0.265625 -0.171875 -0.640625 -0.3125q-0.359375 -0.15625 -0.875 -0.15625q-1.0 0 -1.53125 0.78125q-0.53125 0.78125 -0.53125 2.265625q0 0.75 0.125 1.3125q0.140625 0.5625 0.390625 0.9375q0.265625 0.375 0.65625 0.578125q0.40625 0.1875 0.921875 0.1875q0.53125 0 0.90625 -0.15625q0.390625 -0.171875 0.671875 -0.359375q0.296875 -0.203125 0.484375 -0.359375q0.203125 -0.15625 0.34375 -0.15625q0.09375 0 0.140625 0.0625q0.0625 0.046875 0.09375 0.1875q0.046875 0.125 0.0625 0.34375q0.03125 0.21875 0.03125 0.546875zm10.4405365 -3.375q0 0.46875 -0.203125 0.703125q-0.203125 0.21875 -0.578125 0.21875l-5.5625 0q0 0.578125 0.125 1.0625q0.140625 0.46875 0.4375 0.8125q0.3125 0.328125 0.78125 0.5q0.484375 0.171875 1.15625 0.171875q0.671875 0 1.1875 -0.09375q0.515625 -0.09375 0.890625 -0.203125q0.375 -0.125 0.609375 -0.21875q0.25 -0.109375 0.40625 -0.109375q0.09375 0 0.15625 0.046875q0.0625 0.03125 0.09375 0.125q0.046875 0.09375 0.0625 0.265625q0.015625 0.15625 0.015625 0.421875q0 0.21875 -0.015625 0.390625q0 0.15625 -0.03125 0.265625q-0.015625 0.109375 -0.0625 0.1875q-0.03125 0.078125 -0.109375 0.15625q-0.0625 0.0625 -0.359375 0.1875q-0.296875 0.125 -0.765625 0.25q-0.453125 0.109375 -1.046875 0.1875q-0.59375 0.09375 -1.265625 0.09375q-1.21875 0 -2.140625 -0.296875q-0.921875 -0.3125 -1.546875 -0.9375q-0.609375 -0.625 -0.90625 -1.578125q-0.296875 -0.953125 -0.296875 -2.234375q0 -1.234375 0.3125 -2.203125q0.3125 -0.984375 0.921875 -1.65625q0.609375 -0.6875 1.46875 -1.046875q0.875 -0.359375 1.953125 -0.359375q1.15625 0 1.96875 0.34375q0.8125 0.328125 1.328125 0.9375q0.53125 0.59375 0.765625 1.421875q0.25 0.8125 0.25 1.78125l0 0.40625zm-2.5 -0.734375q0.03125 -1.09375 -0.4375 -1.703125q-0.453125 -0.625 -1.4375 -0.625q-0.484375 0 -0.859375 0.1875q-0.359375 0.171875 -0.609375 0.484375q-0.234375 0.3125 -0.359375 0.75q-0.125 0.421875 -0.140625 0.90625l3.84375 0z" fill-rule="nonzero"></path><path fill="#69d2e7" d="m4.5170603 19.916233l0 0c0 -6.1230917 4.963745 -11.086837 11.086836 -11.086837l81.19641 0c2.9404144 0 5.760391 1.1680737 7.8395767 3.2472591c2.0791855 2.0791855 3.247261 4.899165 3.247261 7.8395777l0 44.346012c0 6.1230927 -4.963745 11.086838 -11.086838 11.086838l-81.19641 0c-6.1230907 0 -11.086836 -4.963745 -11.086836 -11.086838z" fill-rule="nonzero"></path><path stroke="#000000" stroke-width="2.0" stroke-linejoin="round" stroke-linecap="butt" d="m4.5170603 19.916233l0 0c0 -6.1230917 4.963745 -11.086837 11.086836 -11.086837l81.19641 0c2.9404144 0 5.760391 1.1680737 7.8395767 3.2472591c2.0791855 2.0791855 3.247261 4.899165 3.247261 7.8395777l0 44.346012c0 6.1230927 -4.963745 11.086838 -11.086838 11.086838l-81.19641 0c-6.1230907 0 -11.086836 -4.963745 -11.086836 -11.086838z" fill-rule="nonzero"></path><path fill="#000000" d="m52.383976 49.225487q0 0.09375 -0.0625 0.171875q-0.0625 0.078125 -0.203125 0.140625q-0.140625 0.046875 -0.390625 0.0625q-0.25 0.03125 -0.625 0.03125q-0.390625 0 -0.640625 -0.03125q-0.25 -0.015625 -0.40625 -0.0625q-0.140625 -0.0625 -0.203125 -0.140625q-0.046875 -0.078125 -0.046875 -0.171875l0 -5.421875q0 -0.46875 -0.09375 -0.84375q-0.078125 -0.390625 -0.265625 -0.65625q-0.171875 -0.265625 -0.453125 -0.40625q-0.265625 -0.15625 -0.640625 -0.15625q-0.46875 0 -0.9375 0.359375q-0.46875 0.359375 -1.015625 1.046875l0 6.078125q0 0.09375 -0.0625 0.171875q-0.0625 0.078125 -0.21875 0.140625q-0.140625 0.046875 -0.390625 0.0625q-0.25 0.03125 -0.609375 0.03125q-0.390625 0 -0.640625 -0.03125q-0.234375 -0.015625 -0.390625 -0.0625q-0.140625 -0.0625 -0.203125 -0.140625q-0.0625 -0.078125 -0.0625 -0.171875l0 -5.421875q0 -0.46875 -0.09375 -0.84375q-0.078125 -0.390625 -0.265625 -0.65625q-0.171875 -0.265625 -0.453125 -0.40625q-0.265625 -0.15625 -0.640625 -0.15625q-0.46875 0 -0.9375 0.359375q-0.46875 0.359375 -1.015625 1.046875l0 6.078125q0 0.09375 -0.0625 0.171875q-0.0625 0.078125 -0.21875 0.140625q-0.140625 0.046875 -0.390625 0.0625q-0.234375 0.03125 -0.625 0.03125q-0.375 0 -0.625 -0.03125q-0.234375 -0.015625 -0.390625 -0.0625q-0.140625 -0.0625 -0.203125 -0.140625q-0.0625 -0.078125 -0.0625 -0.171875l0 -9.15625q0 -0.09375 0.046875 -0.171875q0.046875 -0.078125 0.171875 -0.125q0.140625 -0.0625 0.34375 -0.078125q0.21875 -0.03125 0.546875 -0.03125q0.328125 0 0.53125 0.03125q0.21875 0.015625 0.328125 0.078125q0.125 0.046875 0.171875 0.125q0.0625 0.078125 0.0625 0.171875l0 1.0625q0.75 -0.828125 1.5 -1.234375q0.765625 -0.40625 1.578125 -0.40625q0.5625 0 1.015625 0.125q0.453125 0.109375 0.796875 0.328125q0.359375 0.21875 0.609375 0.53125q0.265625 0.3125 0.4375 0.6875q0.421875 -0.4375 0.8125 -0.75q0.390625 -0.328125 0.765625 -0.53125q0.390625 -0.203125 0.78125 -0.296875q0.390625 -0.09375 0.78125 -0.09375q0.921875 0 1.546875 0.3125q0.625 0.296875 1.0 0.828125q0.390625 0.53125 0.546875 1.234375q0.171875 0.703125 0.171875 1.5l0 5.859375zm10.584305 0.03125q0 0.140625 -0.109375 0.21875q-0.09375 0.078125 -0.3125 0.109375q-0.21875 0.046875 -0.640625 0.046875q-0.46875 0 -0.6875 -0.046875q-0.203125 -0.03125 -0.296875 -0.109375q-0.078125 -0.078125 -0.078125 -0.21875l0 -0.734375q-0.5625 0.609375 -1.296875 0.953125q-0.71875 0.328125 -1.59375 0.328125q-0.734375 0 -1.34375 -0.1875q-0.609375 -0.1875 -1.0625 -0.5625q-0.4375 -0.375 -0.6875 -0.921875q-0.234375 -0.5625 -0.234375 -1.296875q0 -0.796875 0.3125 -1.390625q0.3125 -0.59375 0.921875 -0.96875q0.625 -0.390625 1.546875 -0.578125q0.921875 -0.1875 2.140625 -0.1875l0.890625 0l0 -0.546875q0 -0.4375 -0.09375 -0.75q-0.078125 -0.328125 -0.28125 -0.546875q-0.1875 -0.21875 -0.53125 -0.3125q-0.328125 -0.109375 -0.828125 -0.109375q-0.640625 0 -1.15625 0.15625q-0.5 0.140625 -0.890625 0.3125q-0.390625 0.171875 -0.65625 0.3125q-0.25 0.140625 -0.421875 0.140625q-0.109375 0 -0.203125 -0.0625q-0.078125 -0.078125 -0.140625 -0.203125q-0.046875 -0.140625 -0.078125 -0.328125q-0.03125 -0.203125 -0.03125 -0.4375q0 -0.3125 0.046875 -0.5q0.046875 -0.1875 0.1875 -0.328125q0.15625 -0.15625 0.515625 -0.328125q0.359375 -0.1875 0.828125 -0.34375q0.484375 -0.15625 1.046875 -0.25q0.578125 -0.09375 1.1875 -0.09375q1.078125 0 1.84375 0.21875q0.765625 0.203125 1.25 0.640625q0.5 0.4375 0.71875 1.125q0.21875 0.6875 0.21875 1.625l0 6.15625zm-2.53125 -3.921875l-0.984375 0q-0.625 0 -1.0625 0.09375q-0.4375 0.09375 -0.71875 0.28125q-0.28125 0.171875 -0.40625 0.4375q-0.125 0.265625 -0.125 0.609375q0 0.5625 0.359375 0.890625q0.375 0.328125 1.015625 0.328125q0.546875 0 1.0 -0.265625q0.453125 -0.28125 0.921875 -0.8125l0 -1.5625zm14.481808 -0.828125q0 1.234375 -0.265625 2.21875q-0.25 0.96875 -0.765625 1.65625q-0.5 0.6875 -1.25 1.0625q-0.75 0.359375 -1.7031174 0.359375q-0.40625 0 -0.75 -0.078125q-0.328125 -0.078125 -0.640625 -0.234375q-0.3125 -0.15625 -0.625 -0.390625q-0.296875 -0.234375 -0.625 -0.5625l0 4.3125q0 0.109375 -0.0625 0.1875q-0.0625 0.078125 -0.21875 0.125q-0.140625 0.0625 -0.390625 0.09375q-0.234375 0.03125 -0.625 0.03125q-0.375 0 -0.625 -0.03125q-0.234375 -0.03125 -0.390625 -0.09375q-0.140625 -0.046875 -0.203125 -0.125q-0.0625 -0.078125 -0.0625 -0.1875l0 -12.78125q0 -0.09375 0.046875 -0.171875q0.046875 -0.078125 0.171875 -0.125q0.140625 -0.0625 0.34375 -0.078125q0.21875 -0.03125 0.53125 -0.03125q0.3125 0 0.515625 0.03125q0.21875 0.015625 0.34375 0.078125q0.125 0.046875 0.171875 0.125q0.046875 0.078125 0.046875 0.171875l0 1.078125q0.40625 -0.40625 0.78125 -0.71875q0.390625 -0.3125 0.78125 -0.515625q0.40625 -0.21875 0.828125 -0.3125q0.4375 -0.109375 0.921875 -0.109375q0.9999924 0 1.7031174 0.390625q0.71875 0.390625 1.15625 1.078125q0.453125 0.6875 0.65625 1.609375q0.203125 0.90625 0.203125 1.9375zm-2.6875 0.1875q0 -0.578125 -0.09375 -1.109375q-0.078125 -0.546875 -0.296875 -0.96875q-0.20311737 -0.421875 -0.5468674 -0.671875q-0.34375 -0.25 -0.859375 -0.25q-0.25 0 -0.5 0.078125q-0.25 0.078125 -0.515625 0.25q-0.265625 0.171875 -0.546875 0.453125q-0.265625 0.28125 -0.578125 0.6875l0 3.015625q0.546875 0.6875 1.03125 1.0625q0.5 0.375 1.03125 0.375q0.5 0 0.84375 -0.25q0.359375 -0.265625 0.5781174 -0.671875q0.234375 -0.421875 0.34375 -0.9375q0.109375 -0.53125 0.109375 -1.0625z" fill-rule="nonzero"></path><path fill="#e0e4cc" d="m343.22244 20.278437l0 0c0 -6.12309 4.963745 -11.086836 11.0868225 -11.086836l81.19641 0c2.9404297 0 5.7604065 1.1680746 7.8395996 3.2472591c2.0791626 2.0791855 3.2472534 4.899166 3.2472534 7.8395767l0 44.346016c0 6.1230927 -4.963745 11.086838 -11.086853 11.086838l-81.19641 0c-6.1230774 0 -11.0868225 -4.963745 -11.0868225 -11.086838z" fill-rule="nonzero"></path><path stroke="#000000" stroke-width="2.0" stroke-linejoin="round" stroke-linecap="butt" d="m343.22244 20.278437l0 0c0 -6.12309 4.963745 -11.086836 11.0868225 -11.086836l81.19641 0c2.9404297 0 5.7604065 1.1680746 7.8395996 3.2472591c2.0791626 2.0791855 3.2472534 4.899166 3.2472534 7.8395767l0 44.346016c0 6.1230927 -4.963745 11.086838 -11.086853 11.086838l-81.19641 0c-6.1230774 0 -11.0868225 -4.963745 -11.0868225 -11.086838z" fill-rule="nonzero"></path><path fill="#000000" d="m380.6317 48.118942q0 0.28125 -0.015625 0.46875q-0.015625 0.171875 -0.046875 0.296875q-0.03125 0.109375 -0.0625 0.1875q-0.03125 0.078125 -0.15625 0.203125q-0.125 0.109375 -0.421875 0.28125q-0.296875 0.171875 -0.6875 0.3125q-0.375 0.125 -0.828125 0.203125q-0.4375 0.078125 -0.90625 0.078125q-1.046875 0 -1.875 -0.328125q-0.8125 -0.328125 -1.375 -0.96875q-0.546875 -0.640625 -0.828125 -1.5625q-0.28125 -0.921875 -0.28125 -2.109375q0 -1.375 0.34375 -2.375q0.34375 -1.0 0.953125 -1.65625q0.625 -0.65625 1.46875 -0.96875q0.84375 -0.3125 1.84375 -0.3125q0.40625 0 0.796875 0.078125q0.40625 0.0625 0.75 0.1875q0.34375 0.109375 0.609375 0.265625q0.265625 0.15625 0.375 0.28125q0.125 0.109375 0.171875 0.1875q0.046875 0.0625 0.0625 0.1875q0.03125 0.125 0.046875 0.3125q0.015625 0.171875 0.015625 0.4375q0 0.59375 -0.109375 0.828125q-0.09375 0.234375 -0.265625 0.234375q-0.171875 0 -0.375 -0.140625q-0.1875 -0.140625 -0.453125 -0.3125q-0.265625 -0.171875 -0.640625 -0.3125q-0.359375 -0.15625 -0.875 -0.15625q-1.0 0 -1.53125 0.78125q-0.53125 0.78125 -0.53125 2.265625q0 0.75 0.125 1.3125q0.140625 0.5625 0.390625 0.9375q0.265625 0.375 0.65625 0.578125q0.40625 0.1875 0.921875 0.1875q0.53125 0 0.90625 -0.15625q0.390625 -0.171875 0.671875 -0.359375q0.296875 -0.203125 0.484375 -0.359375q0.203125 -0.15625 0.34375 -0.15625q0.09375 0 0.140625 0.0625q0.0625 0.046875 0.09375 0.1875q0.046875 0.125 0.0625 0.34375q0.03125 0.21875 0.03125 0.546875zm7.8780212 -6.828125q0 0.359375 -0.03125 0.609375q-0.015625 0.234375 -0.0625 0.375q-0.03125 0.125 -0.109375 0.171875q-0.0625 0.046875 -0.15625 0.046875q-0.078125 0 -0.1875 -0.03125q-0.109375 -0.03125 -0.234375 -0.078125q-0.125 -0.046875 -0.28125 -0.078125q-0.15625 -0.03125 -0.34375 -0.03125q-0.203125 0 -0.421875 0.09375q-0.21875 0.078125 -0.453125 0.265625q-0.21875 0.1875 -0.484375 0.5q-0.25 0.296875 -0.53125 0.75l0 5.703125q0 0.09375 -0.0625 0.171875q-0.0625 0.078125 -0.21875 0.140625q-0.140625 0.046875 -0.390625 0.0625q-0.234375 0.03125 -0.625 0.03125q-0.375 0 -0.625 -0.03125q-0.234375 -0.015625 -0.390625 -0.0625q-0.140625 -0.0625 -0.203125 -0.140625q-0.0625 -0.078125 -0.0625 -0.171875l0 -9.15625q0 -0.09375 0.046875 -0.171875q0.046875 -0.078125 0.171875 -0.125q0.140625 -0.0625 0.34375 -0.078125q0.21875 -0.03125 0.546875 -0.03125q0.328125 0 0.53125 0.03125q0.21875 0.015625 0.328125 0.078125q0.125 0.046875 0.171875 0.125q0.0625 0.078125 0.0625 0.171875l0 1.140625q0.359375 -0.515625 0.671875 -0.84375q0.3125 -0.328125 0.59375 -0.515625q0.296875 -0.203125 0.578125 -0.28125q0.296875 -0.078125 0.578125 -0.078125q0.140625 0 0.296875 0.015625q0.15625 0.015625 0.3125 0.046875q0.171875 0.03125 0.28125 0.078125q0.125 0.046875 0.1875 0.109375q0.0625 0.046875 0.078125 0.109375q0.03125 0.0625 0.046875 0.171875q0.015625 0.109375 0.03125 0.328125q0.015625 0.203125 0.015625 0.578125zm10.956482 3.625q0 1.171875 -0.3125 2.140625q-0.3125 0.953125 -0.9375 1.65625q-0.625 0.703125 -1.578125 1.078125q-0.9375 0.375 -2.1875 0.375q-1.21875 0 -2.125 -0.328125q-0.90625 -0.34375 -1.5 -0.984375q-0.59375 -0.65625 -0.890625 -1.59375q-0.28125 -0.953125 -0.28125 -2.15625q0 -1.171875 0.3125 -2.140625q0.3125 -0.96875 0.9375 -1.65625q0.625 -0.703125 1.5625 -1.078125q0.9375 -0.375 2.203125 -0.375q1.234375 0 2.125 0.34375q0.90625 0.328125 1.5 0.96875q0.59375 0.640625 0.875 1.59375q0.296875 0.9375 0.296875 2.15625zm-2.65625 0.109375q0 -0.6875 -0.109375 -1.25q-0.109375 -0.578125 -0.375 -0.984375q-0.25 -0.421875 -0.671875 -0.65625q-0.421875 -0.25 -1.078125 -0.25q-0.5625 0 -1.0 0.21875q-0.4375 0.203125 -0.71875 0.609375q-0.265625 0.40625 -0.40625 0.984375q-0.140625 0.5625 -0.140625 1.296875q0 0.671875 0.109375 1.25q0.125 0.5625 0.375 0.984375q0.25 0.421875 0.671875 0.65625q0.4375 0.21875 1.078125 0.21875q0.578125 0 1.0 -0.203125q0.4375 -0.21875 0.71875 -0.609375q0.28125 -0.40625 0.40625 -0.96875q0.140625 -0.578125 0.140625 -1.296875zm11.309723 1.96875q0 0.78125 -0.296875 1.375q-0.296875 0.59375 -0.828125 1.0q-0.53125 0.390625 -1.265625 0.59375q-0.71875 0.203125 -1.5625 0.203125q-0.515625 0 -0.984375 -0.078125q-0.46875 -0.078125 -0.84375 -0.1875q-0.359375 -0.125 -0.609375 -0.25q-0.25 -0.125 -0.359375 -0.21875q-0.109375 -0.109375 -0.171875 -0.34375q-0.0625 -0.234375 -0.0625 -0.6875q0 -0.296875 0.015625 -0.46875q0.03125 -0.1875 0.0625 -0.296875q0.046875 -0.109375 0.109375 -0.140625q0.0625 -0.03125 0.15625 -0.03125q0.109375 0 0.328125 0.125q0.21875 0.125 0.546875 0.28125q0.328125 0.15625 0.765625 0.296875q0.4375 0.125 0.984375 0.125q0.359375 0 0.625 -0.0625q0.265625 -0.078125 0.46875 -0.203125q0.203125 -0.140625 0.296875 -0.34375q0.109375 -0.21875 0.109375 -0.484375q0 -0.296875 -0.1875 -0.515625q-0.1875 -0.21875 -0.5 -0.375q-0.3125 -0.171875 -0.71875 -0.3125q-0.390625 -0.15625 -0.8125 -0.328125q-0.40625 -0.171875 -0.796875 -0.390625q-0.390625 -0.234375 -0.71875 -0.5625q-0.3125 -0.328125 -0.5 -0.78125q-0.1875 -0.46875 -0.1875 -1.109375q0 -0.65625 0.25 -1.203125q0.265625 -0.5625 0.75 -0.953125q0.484375 -0.390625 1.171875 -0.59375q0.6875 -0.21875 1.546875 -0.21875q0.4375 0 0.84375 0.0625q0.40625 0.0625 0.734375 0.15625q0.328125 0.09375 0.546875 0.203125q0.234375 0.09375 0.328125 0.171875q0.09375 0.078125 0.125 0.15625q0.046875 0.078125 0.0625 0.1875q0.03125 0.109375 0.046875 0.265625q0.015625 0.15625 0.015625 0.390625q0 0.28125 -0.015625 0.453125q-0.015625 0.171875 -0.0625 0.28125q-0.03125 0.09375 -0.09375 0.140625q-0.046875 0.03125 -0.140625 0.03125q-0.09375 0 -0.296875 -0.109375q-0.1875 -0.109375 -0.484375 -0.234375q-0.28125 -0.125 -0.671875 -0.21875q-0.375 -0.109375 -0.875 -0.109375q-0.34375 0 -0.609375 0.078125q-0.25 0.0625 -0.421875 0.203125q-0.15625 0.125 -0.234375 0.3125q-0.078125 0.171875 -0.078125 0.375q0 0.3125 0.1875 0.53125q0.203125 0.21875 0.515625 0.390625q0.3125 0.15625 0.71875 0.296875q0.40625 0.140625 0.8125 0.3125q0.421875 0.171875 0.828125 0.40625q0.40625 0.21875 0.71875 0.546875q0.328125 0.328125 0.515625 0.78125q0.203125 0.453125 0.203125 1.078125zm8.508331 0q0 0.78125 -0.296875 1.375q-0.296875 0.59375 -0.828125 1.0q-0.53125 0.390625 -1.265625 0.59375q-0.71875 0.203125 -1.5625 0.203125q-0.515625 0 -0.984375 -0.078125q-0.46875 -0.078125 -0.84375 -0.1875q-0.359375 -0.125 -0.609375 -0.25q-0.25 -0.125 -0.359375 -0.21875q-0.109375 -0.109375 -0.171875 -0.34375q-0.0625 -0.234375 -0.0625 -0.6875q0 -0.296875 0.015625 -0.46875q0.03125 -0.1875 0.0625 -0.296875q0.046875 -0.109375 0.109375 -0.140625q0.0625 -0.03125 0.15625 -0.03125q0.109375 0 0.328125 0.125q0.21875 0.125 0.546875 0.28125q0.328125 0.15625 0.765625 0.296875q0.4375 0.125 0.984375 0.125q0.359375 0 0.625 -0.0625q0.265625 -0.078125 0.46875 -0.203125q0.203125 -0.140625 0.296875 -0.34375q0.109375 -0.21875 0.109375 -0.484375q0 -0.296875 -0.1875 -0.515625q-0.1875 -0.21875 -0.5 -0.375q-0.3125 -0.171875 -0.71875 -0.3125q-0.390625 -0.15625 -0.8125 -0.328125q-0.40625 -0.171875 -0.796875 -0.390625q-0.390625 -0.234375 -0.71875 -0.5625q-0.3125 -0.328125 -0.5 -0.78125q-0.1875 -0.46875 -0.1875 -1.109375q0 -0.65625 0.25 -1.203125q0.265625 -0.5625 0.75 -0.953125q0.484375 -0.390625 1.171875 -0.59375q0.6875 -0.21875 1.546875 -0.21875q0.4375 0 0.84375 0.0625q0.40625 0.0625 0.734375 0.15625q0.328125 0.09375 0.546875 0.203125q0.234375 0.09375 0.328125 0.171875q0.09375 0.078125 0.125 0.15625q0.046875 0.078125 0.0625 0.1875q0.03125 0.109375 0.046875 0.265625q0.015625 0.15625 0.015625 0.390625q0 0.28125 -0.015625 0.453125q-0.015625 0.171875 -0.0625 0.28125q-0.03125 0.09375 -0.09375 0.140625q-0.046875 0.03125 -0.140625 0.03125q-0.09375 0 -0.296875 -0.109375q-0.1875 -0.109375 -0.484375 -0.234375q-0.28125 -0.125 -0.671875 -0.21875q-0.375 -0.109375 -0.875 -0.109375q-0.34375 0 -0.609375 0.078125q-0.25 0.0625 -0.421875 0.203125q-0.15625 0.125 -0.234375 0.3125q-0.078125 0.171875 -0.078125 0.375q0 0.3125 0.1875 0.53125q0.203125 0.21875 0.515625 0.390625q0.3125 0.15625 0.71875 0.296875q0.40625 0.140625 0.8125 0.3125q0.421875 0.171875 0.828125 0.40625q0.40625 0.21875 0.71875 0.546875q0.328125 0.328125 0.515625 0.78125q0.203125 0.453125 0.203125 1.078125z" fill-rule="nonzero"></path><path fill="#f3b33f" d="m231.2454 20.278437l0 0c0 -6.12309 4.963745 -11.086836 11.086838 -11.086836l81.19641 0c2.9403992 0 5.760376 1.1680746 7.839569 3.2472591c2.079193 2.0791855 3.2472534 4.899166 3.2472534 7.8395767l0 44.346016c0 6.1230927 -4.963745 11.086838 -11.0868225 11.086838l-81.19641 0c-6.1230927 0 -11.086838 -4.963745 -11.086838 -11.086838z" fill-rule="nonzero"></path><path stroke="#000000" stroke-width="2.0" stroke-linejoin="round" stroke-linecap="butt" d="m231.2454 20.278437l0 0c0 -6.12309 4.963745 -11.086836 11.086838 -11.086836l81.19641 0c2.9403992 0 5.760376 1.1680746 7.839569 3.2472591c2.079193 2.0791855 3.2472534 4.899166 3.2472534 7.8395767l0 44.346016c0 6.1230927 -4.963745 11.086838 -11.0868225 11.086838l-81.19641 0c-6.1230927 0 -11.086838 -4.963745 -11.086838 -11.086838z" fill-rule="nonzero"></path><path fill="#000000" d="m270.21057 49.884567q0 1.078125 -0.1875 1.75q-0.1875 0.671875 -0.5625 1.125q-0.375 0.453125 -0.9375 0.6875q-0.5625 0.234375 -1.328125 0.234375q-0.421875 0 -0.71875 -0.0625q-0.296875 -0.0625 -0.421875 -0.125q-0.140625 -0.0625 -0.1875 -0.15625q-0.046875 -0.078125 -0.0625 -0.203125q-0.03125 -0.109375 -0.03125 -0.265625q-0.015625 -0.140625 -0.015625 -0.390625q0 -0.28125 0.015625 -0.46875q0.015625 -0.1875 0.0625 -0.3125q0.03125 -0.109375 0.078125 -0.15625q0.046875 -0.046875 0.140625 -0.046875q0.046875 0 0.203125 0.015625q0.15625 0.03125 0.34375 0.03125q0.265625 0 0.453125 -0.078125q0.203125 -0.078125 0.328125 -0.265625q0.125 -0.171875 0.1875 -0.46875q0.0625 -0.28125 0.0625 -0.890625l0 -9.375q0 -0.109375 0.0625 -0.1875q0.0625 -0.078125 0.203125 -0.125q0.140625 -0.0625 0.390625 -0.09375q0.25 -0.03125 0.625 -0.03125q0.375 0 0.625 0.03125q0.25 0.03125 0.390625 0.09375q0.15625 0.046875 0.21875 0.125q0.0625 0.078125 0.0625 0.1875l0 9.421875zm0.1875 -12.546875q0 0.78125 -0.3125 1.078125q-0.3125 0.296875 -1.1875 0.296875q-0.859375 0 -1.171875 -0.28125q-0.296875 -0.296875 -0.296875 -1.046875q0 -0.765625 0.3125 -1.0625q0.3125 -0.3125 1.1875 -0.3125q0.859375 0 1.15625 0.296875q0.3125 0.28125 0.3125 1.03125zm11.727844 7.578125q0 1.171875 -0.3125 2.140625q-0.3125 0.953125 -0.9375 1.65625q-0.625 0.703125 -1.578125 1.078125q-0.9375 0.375 -2.1875 0.375q-1.21875 0 -2.125 -0.328125q-0.90625 -0.34375 -1.5 -0.984375q-0.59375 -0.65625 -0.890625 -1.59375q-0.28125 -0.953125 -0.28125 -2.15625q0 -1.171875 0.3125 -2.140625q0.3125 -0.96875 0.9375 -1.65625q0.625 -0.703125 1.5625 -1.078125q0.9375 -0.375 2.203125 -0.375q1.234375 0 2.125 0.34375q0.90625 0.328125 1.5 0.96875q0.59375 0.640625 0.875 1.59375q0.296875 0.9375 0.296875 2.15625zm-2.65625 0.109375q0 -0.6875 -0.109375 -1.25q-0.109375 -0.578125 -0.375 -0.984375q-0.25 -0.421875 -0.671875 -0.65625q-0.421875 -0.25 -1.078125 -0.25q-0.5625 0 -1.0 0.21875q-0.4375 0.203125 -0.71875 0.609375q-0.265625 0.40625 -0.40625 0.984375q-0.140625 0.5625 -0.140625 1.296875q0 0.671875 0.109375 1.25q0.125 0.5625 0.375 0.984375q0.25 0.421875 0.671875 0.65625q0.4375 0.21875 1.078125 0.21875q0.578125 0 1.0 -0.203125q0.4375 -0.21875 0.71875 -0.609375q0.28125 -0.40625 0.40625 -0.96875q0.140625 -0.578125 0.140625 -1.296875zm7.450348 4.5625q0 0.09375 -0.0625 0.171875q-0.0625 0.078125 -0.21875 0.140625q-0.140625 0.046875 -0.390625 0.0625q-0.234375 0.03125 -0.625 0.03125q-0.375 0 -0.625 -0.03125q-0.234375 -0.015625 -0.390625 -0.0625q-0.140625 -0.0625 -0.203125 -0.140625q-0.0625 -0.078125 -0.0625 -0.171875l0 -9.125q0 -0.109375 0.0625 -0.1875q0.0625 -0.078125 0.203125 -0.125q0.15625 -0.0625 0.390625 -0.09375q0.25 -0.03125 0.625 -0.03125q0.390625 0 0.625 0.03125q0.25 0.03125 0.390625 0.09375q0.15625 0.046875 0.21875 0.125q0.0625 0.078125 0.0625 0.1875l0 9.125zm0.203125 -12.25q0 0.78125 -0.328125 1.078125q-0.3125 0.296875 -1.171875 0.296875q-0.875 0 -1.1875 -0.28125q-0.296875 -0.296875 -0.296875 -1.046875q0 -0.765625 0.3125 -1.0625q0.3125 -0.3125 1.1875 -0.3125q0.859375 0 1.171875 0.296875q0.3125 0.28125 0.3125 1.03125zm11.191437 12.25q0 0.09375 -0.0625 0.171875q-0.0625 0.078125 -0.203125 0.140625q-0.140625 0.046875 -0.40625 0.0625q-0.25 0.03125 -0.609375 0.03125q-0.375 0 -0.640625 -0.03125q-0.25 -0.015625 -0.390625 -0.0625q-0.140625 -0.0625 -0.203125 -0.140625q-0.0625 -0.078125 -0.0625 -0.171875l0 -5.21875q0 -0.671875 -0.09375 -1.046875q-0.09375 -0.390625 -0.28125 -0.65625q-0.1875 -0.265625 -0.484375 -0.40625q-0.28125 -0.15625 -0.671875 -0.15625q-0.5 0 -1.0 0.359375q-0.5 0.359375 -1.046875 1.046875l0 6.078125q0 0.09375 -0.0625 0.171875q-0.0625 0.078125 -0.21875 0.140625q-0.140625 0.046875 -0.390625 0.0625q-0.234375 0.03125 -0.625 0.03125q-0.375 0 -0.625 -0.03125q-0.234375 -0.015625 -0.390625 -0.0625q-0.140625 -0.0625 -0.203125 -0.140625q-0.0625 -0.078125 -0.0625 -0.171875l0 -9.15625q0 -0.09375 0.046875 -0.171875q0.046875 -0.078125 0.171875 -0.125q0.140625 -0.0625 0.34375 -0.078125q0.21875 -0.03125 0.546875 -0.03125q0.328125 0 0.53125 0.03125q0.21875 0.015625 0.328125 0.078125q0.125 0.046875 0.171875 0.125q0.0625 0.078125 0.0625 0.171875l0 1.0625q0.75 -0.828125 1.53125 -1.234375q0.796875 -0.40625 1.640625 -0.40625q0.9375 0 1.578125 0.3125q0.640625 0.296875 1.03125 0.828125q0.40625 0.53125 0.578125 1.234375q0.171875 0.703125 0.171875 1.703125l0 5.65625z" fill-rule="nonzero"></path><path fill="#4ecdc4" d="m343.22244 99.225945l0 0c0 -6.1230927 4.963745 -11.086838 11.0868225 -11.086838l81.19641 0c2.9404297 0 5.7604065 1.1680756 7.8395996 3.247261c2.0791626 2.0791855 3.2472534 4.8991623 3.2472534 7.8395767l0 44.346016c0 6.1230927 -4.963745 11.086838 -11.086853 11.086838l-81.19641 0c-6.1230774 0 -11.0868225 -4.963745 -11.0868225 -11.086838z" fill-rule="nonzero"></path><path stroke="#000000" stroke-width="2.0" stroke-linejoin="round" stroke-linecap="butt" d="m343.22244 99.225945l0 0c0 -6.1230927 4.963745 -11.086838 11.0868225 -11.086838l81.19641 0c2.9404297 0 5.7604065 1.1680756 7.8395996 3.247261c2.0791626 2.0791855 3.2472534 4.8991623 3.2472534 7.8395767l0 44.346016c0 6.1230927 -4.963745 11.086838 -11.086853 11.086838l-81.19641 0c-6.1230774 0 -11.0868225 -4.963745 -11.0868225 -11.086838z" fill-rule="nonzero"></path><path fill="#000000" d="m366.90588 127.06645q0 0.28125 -0.015625 0.46875q-0.015625 0.171875 -0.046875 0.296875q-0.03125 0.109375 -0.0625 0.1875q-0.03125 0.078125 -0.15625 0.203125q-0.125 0.109375 -0.421875 0.28125q-0.296875 0.171875 -0.6875 0.3125q-0.375 0.125 -0.828125 0.203125q-0.4375 0.078125 -0.90625 0.078125q-1.046875 0 -1.875 -0.328125q-0.8125 -0.328125 -1.375 -0.96875q-0.546875 -0.640625 -0.828125 -1.5625q-0.28125 -0.921875 -0.28125 -2.109375q0 -1.375 0.34375 -2.375q0.34375 -1.0 0.953125 -1.65625q0.625 -0.65625 1.46875 -0.96875q0.84375 -0.3125 1.84375 -0.3125q0.40625 0 0.796875 0.078125q0.40625 0.0625 0.75 0.1875q0.34375 0.109375 0.609375 0.265625q0.265625 0.15625 0.375 0.28125q0.125 0.109375 0.171875 0.1875q0.046875 0.0625 0.0625 0.1875q0.03125 0.125 0.046875 0.3125q0.015625 0.171875 0.015625 0.4375q0 0.59375 -0.109375 0.828125q-0.09375 0.234375 -0.265625 0.234375q-0.171875 0 -0.375 -0.140625q-0.1875 -0.140625 -0.453125 -0.3125q-0.265625 -0.171875 -0.640625 -0.3125q-0.359375 -0.15625 -0.875 -0.15625q-1.0 0 -1.53125 0.78125q-0.53125 0.78125 -0.53125 2.265625q0 0.75 0.125 1.3125q0.140625 0.5625 0.390625 0.9375q0.265625 0.375 0.65625 0.578125q0.40625 0.1875 0.921875 0.1875q0.53125 0 0.90625 -0.15625q0.390625 -0.171875 0.671875 -0.359375q0.296875 -0.203125 0.484375 -0.359375q0.203125 -0.15625 0.34375 -0.15625q0.09375 0 0.140625 0.0625q0.0625 0.046875 0.09375 0.1875q0.046875 0.125 0.0625 0.34375q0.03125 0.21875 0.03125 0.546875zm11.253052 -3.203125q0 1.171875 -0.3125 2.140625q-0.3125 0.953125 -0.9375 1.65625q-0.625 0.703125 -1.578125 1.078125q-0.9375 0.375 -2.1875 0.375q-1.21875 0 -2.125 -0.328125q-0.90625 -0.34375 -1.5 -0.984375q-0.59375 -0.65625 -0.890625 -1.59375q-0.28125 -0.953125 -0.28125 -2.15625q0 -1.171875 0.3125 -2.140625q0.3125 -0.96875 0.9375 -1.65625q0.625 -0.703125 1.5625 -1.078125q0.9375 -0.375 2.203125 -0.375q1.234375 0 2.125 0.34375q0.90625 0.328125 1.5 0.96875q0.59375 0.640625 0.875 1.59375q0.296875 0.9375 0.296875 2.15625zm-2.65625 0.109375q0 -0.6875 -0.109375 -1.25q-0.109375 -0.578125 -0.375 -0.984375q-0.25 -0.421875 -0.671875 -0.65625q-0.421875 -0.25 -1.078125 -0.25q-0.5625 0 -1.0 0.21875q-0.4375 0.203125 -0.71875 0.609375q-0.265625 0.40625 -0.40625 0.984375q-0.140625 0.5625 -0.140625 1.296875q0 0.671875 0.109375 1.25q0.125 0.5625 0.375 0.984375q0.25 0.421875 0.671875 0.65625q0.4375 0.21875 1.078125 0.21875q0.578125 0 1.0 -0.203125q0.4375 -0.21875 0.71875 -0.609375q0.28125 -0.40625 0.40625 -0.96875q0.140625 -0.578125 0.140625 -1.296875zm13.106567 -3.953125q0 0.484375 -0.109375 0.734375q-0.109375 0.234375 -0.28125 0.234375l-1.078125 0q0.234375 0.234375 0.328125 0.546875q0.09375 0.3125 0.09375 0.65625q0 0.796875 -0.265625 1.421875q-0.265625 0.625 -0.765625 1.046875q-0.484375 0.421875 -1.1875 0.640625q-0.703125 0.21875 -1.5625 0.21875q-0.453125 0 -0.859375 -0.09375q-0.390625 -0.109375 -0.609375 -0.265625q-0.109375 0.140625 -0.21875 0.328125q-0.09375 0.1875 -0.09375 0.40625q0 0.296875 0.265625 0.484375q0.265625 0.1875 0.734375 0.21875l2.21875 0.078125q0.78125 0.03125 1.390625 0.21875q0.609375 0.1875 1.015625 0.53125q0.421875 0.34375 0.640625 0.828125q0.21875 0.484375 0.21875 1.09375q0 0.6875 -0.296875 1.28125q-0.296875 0.59375 -0.890625 1.03125q-0.59375 0.453125 -1.5 0.703125q-0.890625 0.265625 -2.078125 0.265625q-1.171875 0 -2.0 -0.1875q-0.828125 -0.1875 -1.359375 -0.515625q-0.515625 -0.328125 -0.765625 -0.78125q-0.234375 -0.453125 -0.234375 -1.0q0 -0.34375 0.078125 -0.65625q0.09375 -0.296875 0.265625 -0.578125q0.171875 -0.28125 0.40625 -0.53125q0.25 -0.265625 0.5625 -0.5q-0.4375 -0.234375 -0.6875 -0.640625q-0.234375 -0.40625 -0.234375 -0.890625q0 -0.609375 0.28125 -1.09375q0.28125 -0.5 0.71875 -0.90625q-0.359375 -0.359375 -0.578125 -0.859375q-0.21875 -0.5 -0.21875 -1.25q0 -0.796875 0.28125 -1.421875q0.296875 -0.640625 0.796875 -1.078125q0.5 -0.4375 1.1875 -0.65625q0.703125 -0.234375 1.546875 -0.234375q0.421875 0 0.8125 0.046875q0.40625 0.046875 0.75 0.140625l2.890625 0q0.1875 0 0.28125 0.234375q0.109375 0.21875 0.109375 0.75zm-3.3125 2.15625q0 -0.734375 -0.40625 -1.140625q-0.40625 -0.40625 -1.15625 -0.40625q-0.375 0 -0.671875 0.125q-0.28125 0.125 -0.46875 0.34375q-0.1875 0.21875 -0.28125 0.515625q-0.09375 0.296875 -0.09375 0.609375q0 0.703125 0.40625 1.109375q0.40625 0.40625 1.140625 0.40625q0.390625 0 0.671875 -0.125q0.296875 -0.125 0.484375 -0.34375q0.1875 -0.21875 0.28125 -0.5q0.09375 -0.28125 0.09375 -0.59375zm0.609375 7.3125q0 -0.46875 -0.375 -0.703125q-0.359375 -0.25 -1.015625 -0.28125l-1.828125 -0.046875q-0.265625 0.203125 -0.421875 0.390625q-0.15625 0.171875 -0.265625 0.328125q-0.09375 0.171875 -0.125 0.3125q-0.03125 0.15625 -0.03125 0.328125q0 0.515625 0.515625 0.78125q0.515625 0.265625 1.46875 0.265625q0.578125 0 0.96875 -0.125q0.40625 -0.109375 0.65625 -0.3125q0.25 -0.1875 0.34375 -0.4375q0.109375 -0.234375 0.109375 -0.5zm10.455872 -9.25q0 0.359375 -0.03125 0.609375q-0.015625 0.234375 -0.0625 0.375q-0.03125 0.125 -0.109375 0.171875q-0.0625 0.046875 -0.15625 0.046875q-0.078125 0 -0.1875 -0.03125q-0.109375 -0.03125 -0.234375 -0.078125q-0.125 -0.046875 -0.28125 -0.078125q-0.15625 -0.03125 -0.34375 -0.03125q-0.203125 0 -0.421875 0.09375q-0.21875 0.078125 -0.453125 0.265625q-0.21875 0.1875 -0.484375 0.5q-0.25 0.296875 -0.53125 0.75l0 5.703125q0 0.09375 -0.0625 0.171875q-0.0625 0.078125 -0.21875 0.140625q-0.140625 0.046875 -0.390625 0.0625q-0.234375 0.03125 -0.625 0.03125q-0.375 0 -0.625 -0.03125q-0.234375 -0.015625 -0.390625 -0.0625q-0.140625 -0.0625 -0.203125 -0.140625q-0.0625 -0.078125 -0.0625 -0.171875l0 -9.15625q0 -0.09375 0.046875 -0.171875q0.046875 -0.078125 0.171875 -0.125q0.140625 -0.0625 0.34375 -0.078125q0.21875 -0.03125 0.546875 -0.03125q0.328125 0 0.53125 0.03125q0.21875 0.015625 0.328125 0.078125q0.125 0.046875 0.171875 0.125q0.0625 0.078125 0.0625 0.171875l0 1.140625q0.359375 -0.515625 0.671875 -0.84375q0.3125 -0.328125 0.59375 -0.515625q0.296875 -0.203125 0.578125 -0.28125q0.296875 -0.078125 0.578125 -0.078125q0.140625 0 0.296875 0.015625q0.15625 0.015625 0.3125 0.046875q0.171875 0.03125 0.28125 0.078125q0.125 0.046875 0.1875 0.109375q0.0625 0.046875 0.078125 0.109375q0.03125 0.0625 0.046875 0.171875q0.015625 0.109375 0.03125 0.328125q0.015625 0.203125 0.015625 0.578125zm10.956482 3.625q0 1.171875 -0.3125 2.140625q-0.3125 0.953125 -0.9375 1.65625q-0.625 0.703125 -1.578125 1.078125q-0.9375 0.375 -2.1875 0.375q-1.21875 0 -2.125 -0.328125q-0.90625 -0.34375 -1.5 -0.984375q-0.59375 -0.65625 -0.890625 -1.59375q-0.28125 -0.953125 -0.28125 -2.15625q0 -1.171875 0.3125 -2.140625q0.3125 -0.96875 0.9375 -1.65625q0.625 -0.703125 1.5625 -1.078125q0.9375 -0.375 2.203125 -0.375q1.234375 0 2.125 0.34375q0.90625 0.328125 1.5 0.96875q0.59375 0.640625 0.875 1.59375q0.296875 0.9375 0.296875 2.15625zm-2.65625 0.109375q0 -0.6875 -0.109375 -1.25q-0.109375 -0.578125 -0.375 -0.984375q-0.25 -0.421875 -0.671875 -0.65625q-0.421875 -0.25 -1.078125 -0.25q-0.5625 0 -1.0 0.21875q-0.4375 0.203125 -0.71875 0.609375q-0.265625 0.40625 -0.40625 0.984375q-0.140625 0.5625 -0.140625 1.296875q0 0.671875 0.109375 1.25q0.125 0.5625 0.375 0.984375q0.25 0.421875 0.671875 0.65625q0.4375 0.21875 1.078125 0.21875q0.578125 0 1.0 -0.203125q0.4375 -0.21875 0.71875 -0.609375q0.28125 -0.40625 0.40625 -0.96875q0.140625 -0.578125 0.140625 -1.296875zm13.544067 4.5625q0 0.09375 -0.0625 0.171875q-0.046875 0.078125 -0.171875 0.140625q-0.125 0.046875 -0.34375 0.0625q-0.203125 0.03125 -0.515625 0.03125q-0.34375 0 -0.5625 -0.03125q-0.203125 -0.015625 -0.328125 -0.0625q-0.125 -0.0625 -0.171875 -0.140625q-0.046875 -0.078125 -0.046875 -0.171875l0 -1.0625q-0.765625 0.828125 -1.546875 1.234375q-0.78125 0.40625 -1.625 0.40625q-0.9375 0 -1.578125 -0.296875q-0.640625 -0.3125 -1.0468445 -0.84375q-0.390625 -0.546875 -0.5625 -1.234375q-0.171875 -0.703125 -0.171875 -1.75l0 -5.609375q0 -0.09375 0.0625 -0.171875q0.0625 -0.078125 0.203125 -0.125q0.15625 -0.0625 0.40625 -0.078125q0.25 -0.03125 0.6093445 -0.03125q0.390625 0 0.625 0.03125q0.25 0.015625 0.390625 0.078125q0.15625 0.046875 0.21875 0.125q0.0625 0.078125 0.0625 0.171875l0 5.171875q0 0.71875 0.09375 1.109375q0.09375 0.375 0.28125 0.640625q0.1875 0.265625 0.484375 0.421875q0.296875 0.140625 0.6875 0.140625q0.484375 0 0.984375 -0.359375q0.5 -0.359375 1.0625 -1.046875l0 -6.078125q0 -0.09375 0.046875 -0.171875q0.0625 -0.078125 0.203125 -0.125q0.15625 -0.0625 0.40625 -0.078125q0.25 -0.03125 0.625 -0.03125q0.375 0 0.625 0.03125q0.25 0.015625 0.390625 0.078125q0.140625 0.046875 0.203125 0.125q0.0625 0.078125 0.0625 0.171875l0 9.15625zm11.976379 -4.71875q0 1.234375 -0.265625 2.21875q-0.25 0.96875 -0.765625 1.65625q-0.5 0.6875 -1.25 1.0625q-0.75 0.359375 -1.703125 0.359375q-0.40625 0 -0.75 -0.078125q-0.328125 -0.078125 -0.640625 -0.234375q-0.3125 -0.15625 -0.625 -0.390625q-0.296875 -0.234375 -0.625 -0.5625l0 4.3125q0 0.109375 -0.0625 0.1875q-0.0625 0.078125 -0.21875 0.125q-0.140625 0.0625 -0.390625 0.09375q-0.234375 0.03125 -0.625 0.03125q-0.375 0 -0.625 -0.03125q-0.234375 -0.03125 -0.390625 -0.09375q-0.140625 -0.046875 -0.203125 -0.125q-0.0625 -0.078125 -0.0625 -0.1875l0 -12.78125q0 -0.09375 0.046875 -0.171875q0.046875 -0.078125 0.171875 -0.125q0.140625 -0.0625 0.34375 -0.078125q0.21875 -0.03125 0.53125 -0.03125q0.3125 0 0.515625 0.03125q0.21875 0.015625 0.34375 0.078125q0.125 0.046875 0.171875 0.125q0.046875 0.078125 0.046875 0.171875l0 1.078125q0.40625 -0.40625 0.78125 -0.71875q0.390625 -0.3125 0.78125 -0.515625q0.40625 -0.21875 0.828125 -0.3125q0.4375 -0.109375 0.921875 -0.109375q1.0 0 1.703125 0.390625q0.71875 0.390625 1.15625 1.078125q0.453125 0.6875 0.65625 1.609375q0.203125 0.90625 0.203125 1.9375zm-2.6875 0.1875q0 -0.578125 -0.09375 -1.109375q-0.078125 -0.546875 -0.296875 -0.96875q-0.203125 -0.421875 -0.546875 -0.671875q-0.34375 -0.25 -0.859375 -0.25q-0.25 0 -0.5 0.078125q-0.25 0.078125 -0.515625 0.25q-0.265625 0.171875 -0.546875 0.453125q-0.265625 0.28125 -0.578125 0.6875l0 3.015625q0.546875 0.6875 1.03125 1.0625q0.5 0.375 1.03125 0.375q0.5 0 0.84375 -0.25q0.359375 -0.265625 0.578125 -0.671875q0.234375 -0.421875 0.34375 -0.9375q0.109375 -0.53125 0.109375 -1.0625z" fill-rule="nonzero"></path><path fill="#87d69b" d="m117.88189 99.225945l0 0c0 -6.1230927 4.963745 -11.086838 11.08683 -11.086838l81.19641 0c2.9404144 0 5.760391 1.1680756 7.8395844 3.247261c2.0791779 2.0791855 3.2472534 4.8991623 3.2472534 7.8395767l0 44.346016c0 6.1230927 -4.963745 11.086838 -11.086838 11.086838l-81.19641 0c-6.123085 0 -11.08683 -4.963745 -11.08683 -11.086838z" fill-rule="nonzero"></path><path stroke="#000000" stroke-width="2.0" stroke-linejoin="round" stroke-linecap="butt" d="m117.88189 99.225945l0 0c0 -6.1230927 4.963745 -11.086838 11.08683 -11.086838l81.19641 0c2.9404144 0 5.760391 1.1680756 7.8395844 3.247261c2.0791779 2.0791855 3.2472534 4.8991623 3.2472534 7.8395767l0 44.346016c0 6.1230927 -4.963745 11.086838 -11.086838 11.086838l-81.19641 0c-6.123085 0 -11.08683 -4.963745 -11.08683 -11.086838z" fill-rule="nonzero"></path><path fill="#000000" d="m143.63669 128.5352q0 0.09375 -0.0625 0.171875q-0.0625 0.078125 -0.21875 0.140625q-0.140625 0.046875 -0.390625 0.0625q-0.234375 0.03125 -0.625 0.03125q-0.375 0 -0.625 -0.03125q-0.234375 -0.015625 -0.390625 -0.0625q-0.140625 -0.0625 -0.203125 -0.140625q-0.0625 -0.078125 -0.0625 -0.171875l0 -9.125q0 -0.109375 0.0625 -0.1875q0.0625 -0.078125 0.203125 -0.125q0.15625 -0.0625 0.390625 -0.09375q0.25 -0.03125 0.625 -0.03125q0.390625 0 0.625 0.03125q0.25 0.03125 0.390625 0.09375q0.15625 0.046875 0.21875 0.125q0.0625 0.078125 0.0625 0.1875l0 9.125zm0.203125 -12.25q0 0.78125 -0.328125 1.078125q-0.3125 0.296875 -1.171875 0.296875q-0.875 0 -1.1875 -0.28125q-0.296875 -0.296875 -0.296875 -1.046875q0 -0.765625 0.3125 -1.0625q0.3125 -0.3125 1.1875 -0.3125q0.859375 0 1.171875 0.296875q0.3125 0.28125 0.3125 1.03125zm7.863312 11.34375q0 0.453125 -0.0625 0.703125q-0.046875 0.234375 -0.140625 0.328125q-0.09375 0.09375 -0.28125 0.171875q-0.171875 0.078125 -0.421875 0.125q-0.234375 0.0625 -0.515625 0.09375q-0.28125 0.03125 -0.5625 0.03125q-0.765625 0 -1.34375 -0.203125q-0.5625 -0.1875 -0.9375 -0.59375q-0.359375 -0.40625 -0.53125 -1.015625q-0.171875 -0.609375 -0.171875 -1.453125l0 -4.6875l-1.09375 0q-0.203125 0 -0.3125 -0.234375q-0.09375 -0.25 -0.09375 -0.8125q0 -0.296875 0.015625 -0.5q0.03125 -0.203125 0.078125 -0.3125q0.0625 -0.125 0.140625 -0.171875q0.078125 -0.0625 0.171875 -0.0625l1.09375 0l0 -2.046875q0 -0.09375 0.046875 -0.171875q0.0625 -0.09375 0.203125 -0.140625q0.15625 -0.0625 0.40625 -0.078125q0.25 -0.03125 0.625 -0.03125q0.375 0 0.625 0.03125q0.25 0.015625 0.390625 0.078125q0.15625 0.046875 0.21875 0.140625q0.0625 0.078125 0.0625 0.171875l0 2.046875l1.984375 0q0.109375 0 0.171875 0.0625q0.078125 0.046875 0.125 0.171875q0.0625 0.109375 0.078125 0.3125q0.03125 0.203125 0.03125 0.5q0 0.5625 -0.109375 0.8125q-0.09375 0.234375 -0.28125 0.234375l-2.0 0l0 4.296875q0 0.75 0.234375 1.125q0.234375 0.375 0.84375 0.375q0.203125 0 0.359375 -0.03125q0.171875 -0.046875 0.296875 -0.09375q0.125 -0.046875 0.203125 -0.078125q0.09375 -0.03125 0.171875 -0.03125q0.0625 0 0.109375 0.03125q0.0625 0.03125 0.09375 0.140625q0.03125 0.109375 0.046875 0.296875q0.03125 0.1875 0.03125 0.46875zm10.425278 -3.9375q0 0.46875 -0.203125 0.703125q-0.203125 0.21875 -0.578125 0.21875l-5.5625 0q0 0.578125 0.125 1.0625q0.140625 0.46875 0.4375 0.8125q0.3125 0.328125 0.78125 0.5q0.484375 0.171875 1.15625 0.171875q0.671875 0 1.1875 -0.09375q0.515625 -0.09375 0.890625 -0.203125q0.375 -0.125 0.609375 -0.21875q0.25 -0.109375 0.40625 -0.109375q0.09375 0 0.15625 0.046875q0.0625 0.03125 0.09375 0.125q0.046875 0.09375 0.0625 0.265625q0.015625 0.15625 0.015625 0.421875q0 0.21875 -0.015625 0.390625q0 0.15625 -0.03125 0.265625q-0.015625 0.109375 -0.0625 0.1875q-0.03125 0.078125 -0.109375 0.15625q-0.0625 0.0625 -0.359375 0.1875q-0.296875 0.125 -0.765625 0.25q-0.453125 0.109375 -1.046875 0.1875q-0.59375 0.09375 -1.265625 0.09375q-1.21875 0 -2.140625 -0.296875q-0.921875 -0.3125 -1.546875 -0.9375q-0.609375 -0.625 -0.90625 -1.578125q-0.296875 -0.953125 -0.296875 -2.234375q0 -1.234375 0.3125 -2.203125q0.3125 -0.984375 0.921875 -1.65625q0.609375 -0.6875 1.46875 -1.046875q0.875 -0.359375 1.953125 -0.359375q1.15625 0 1.96875 0.34375q0.8125 0.328125 1.328125 0.9375q0.53125 0.59375 0.765625 1.421875q0.25 0.8125 0.25 1.78125l0 0.40625zm-2.5 -0.734375q0.03125 -1.09375 -0.4375 -1.703125q-0.453125 -0.625 -1.4375 -0.625q-0.484375 0 -0.859375 0.1875q-0.359375 0.171875 -0.609375 0.484375q-0.234375 0.3125 -0.359375 0.75q-0.125 0.421875 -0.140625 0.90625l3.84375 0zm10.674469 -2.71875q0 0.359375 -0.03125 0.609375q-0.015625 0.234375 -0.0625 0.375q-0.03125 0.125 -0.109375 0.171875q-0.0625 0.046875 -0.15625 0.046875q-0.078125 0 -0.1875 -0.03125q-0.109375 -0.03125 -0.234375 -0.078125q-0.125 -0.046875 -0.28125 -0.078125q-0.15625 -0.03125 -0.34375 -0.03125q-0.203125 0 -0.421875 0.09375q-0.21875 0.078125 -0.453125 0.265625q-0.21875 0.1875 -0.484375 0.5q-0.25 0.296875 -0.53125 0.75l0 5.703125q0 0.09375 -0.0625 0.171875q-0.0625 0.078125 -0.21875 0.140625q-0.140625 0.046875 -0.390625 0.0625q-0.234375 0.03125 -0.625 0.03125q-0.375 0 -0.625 -0.03125q-0.234375 -0.015625 -0.390625 -0.0625q-0.140625 -0.0625 -0.203125 -0.140625q-0.0625 -0.078125 -0.0625 -0.171875l0 -9.15625q0 -0.09375 0.046875 -0.171875q0.046875 -0.078125 0.171875 -0.125q0.140625 -0.0625 0.34375 -0.078125q0.21875 -0.03125 0.546875 -0.03125q0.328125 0 0.53125 0.03125q0.21875 0.015625 0.328125 0.078125q0.125 0.046875 0.171875 0.125q0.0625 0.078125 0.0625 0.171875l0 1.140625q0.359375 -0.515625 0.671875 -0.84375q0.3125 -0.328125 0.59375 -0.515625q0.296875 -0.203125 0.578125 -0.28125q0.296875 -0.078125 0.578125 -0.078125q0.140625 0 0.296875 0.015625q0.15625 0.015625 0.3125 0.046875q0.171875 0.03125 0.28125 0.078125q0.125 0.046875 0.1875 0.109375q0.0625 0.046875 0.078125 0.109375q0.03125 0.0625 0.046875 0.171875q0.015625 0.109375 0.03125 0.328125q0.015625 0.203125 0.015625 0.578125zm9.487732 8.328125q0 0.140625 -0.109375 0.21875q-0.09375 0.078125 -0.3125 0.109375q-0.21875 0.046875 -0.640625 0.046875q-0.46875 0 -0.6875 -0.046875q-0.203125 -0.03125 -0.296875 -0.109375q-0.078125 -0.078125 -0.078125 -0.21875l0 -0.734375q-0.5625 0.609375 -1.296875 0.953125q-0.71875 0.328125 -1.59375 0.328125q-0.734375 0 -1.34375 -0.1875q-0.609375 -0.1875 -1.0625 -0.5625q-0.4375 -0.375 -0.6875 -0.921875q-0.234375 -0.5625 -0.234375 -1.296875q0 -0.796875 0.3125 -1.390625q0.3125 -0.59375 0.921875 -0.96875q0.625 -0.390625 1.546875 -0.578125q0.921875 -0.1875 2.140625 -0.1875l0.890625 0l0 -0.546875q0 -0.4375 -0.09375 -0.75q-0.078125 -0.328125 -0.28125 -0.546875q-0.1875 -0.21875 -0.53125 -0.3125q-0.328125 -0.109375 -0.828125 -0.109375q-0.640625 0 -1.15625 0.15625q-0.5 0.140625 -0.890625 0.3125q-0.390625 0.171875 -0.65625 0.3125q-0.25 0.140625 -0.421875 0.140625q-0.109375 0 -0.203125 -0.0625q-0.078125 -0.078125 -0.140625 -0.203125q-0.046875 -0.140625 -0.078125 -0.328125q-0.03125 -0.203125 -0.03125 -0.4375q0 -0.3125 0.046875 -0.5q0.046875 -0.1875 0.1875 -0.328125q0.15625 -0.15625 0.515625 -0.328125q0.359375 -0.1875 0.828125 -0.34375q0.484375 -0.15625 1.046875 -0.25q0.578125 -0.09375 1.1875 -0.09375q1.078125 0 1.84375 0.21875q0.765625 0.203125 1.25 0.640625q0.5 0.4375 0.71875 1.125q0.21875 0.6875 0.21875 1.625l0 6.15625zm-2.53125 -3.921875l-0.984375 0q-0.625 0 -1.0625 0.09375q-0.4375 0.09375 -0.71875 0.28125q-0.28125 0.171875 -0.40625 0.4375q-0.125 0.265625 -0.125 0.609375q0 0.5625 0.359375 0.890625q0.375 0.328125 1.015625 0.328125q0.546875 0 1.0 -0.265625q0.453125 -0.28125 0.921875 -0.8125l0 -1.5625zm10.684952 2.984375q0 0.453125 -0.0625 0.703125q-0.046875 0.234375 -0.140625 0.328125q-0.09375 0.09375 -0.28125 0.171875q-0.171875 0.078125 -0.421875 0.125q-0.234375 0.0625 -0.515625 0.09375q-0.28125 0.03125 -0.5625 0.03125q-0.765625 0 -1.3437653 -0.203125q-0.5625 -0.1875 -0.9375 -0.59375q-0.359375 -0.40625 -0.53125 -1.015625q-0.171875 -0.609375 -0.171875 -1.453125l0 -4.6875l-1.09375 0q-0.203125 0 -0.3125 -0.234375q-0.09375 -0.25 -0.09375 -0.8125q0 -0.296875 0.015625 -0.5q0.03125 -0.203125 0.078125 -0.3125q0.0625 -0.125 0.140625 -0.171875q0.078125 -0.0625 0.171875 -0.0625l1.09375 0l0 -2.046875q0 -0.09375 0.046875 -0.171875q0.0625 -0.09375 0.203125 -0.140625q0.15625 -0.0625 0.40625 -0.078125q0.25 -0.03125 0.625 -0.03125q0.375 0 0.625 0.03125q0.25001526 0.015625 0.39064026 0.078125q0.15625 0.046875 0.21875 0.140625q0.0625 0.078125 0.0625 0.171875l0 2.046875l1.984375 0q0.109375 0 0.171875 0.0625q0.078125 0.046875 0.125 0.171875q0.0625 0.109375 0.078125 0.3125q0.03125 0.203125 0.03125 0.5q0 0.5625 -0.109375 0.8125q-0.09375 0.234375 -0.28125 0.234375l-2.0 0l0 4.296875q0 0.75 0.234375 1.125q0.234375 0.375 0.84375 0.375q0.203125 0 0.359375 -0.03125q0.171875 -0.046875 0.296875 -0.09375q0.125 -0.046875 0.203125 -0.078125q0.09375 -0.03125 0.171875 -0.03125q0.0625 0 0.109375 0.03125q0.0625 0.03125 0.09375 0.140625q0.03125 0.109375 0.046875 0.296875q0.03125 0.1875 0.03125 0.46875zm10.425278 -3.9375q0 0.46875 -0.203125 0.703125q-0.203125 0.21875 -0.578125 0.21875l-5.5625 0q0 0.578125 0.125 1.0625q0.140625 0.46875 0.4375 0.8125q0.3125 0.328125 0.78125 0.5q0.484375 0.171875 1.15625 0.171875q0.671875 0 1.1875 -0.09375q0.515625 -0.09375 0.890625 -0.203125q0.375 -0.125 0.609375 -0.21875q0.25 -0.109375 0.40625 -0.109375q0.09375 0 0.15625 0.046875q0.0625 0.03125 0.09375 0.125q0.046875 0.09375 0.0625 0.265625q0.015625 0.15625 0.015625 0.421875q0 0.21875 -0.015625 0.390625q0 0.15625 -0.03125 0.265625q-0.015625 0.109375 -0.0625 0.1875q-0.03125 0.078125 -0.109375 0.15625q-0.0625 0.0625 -0.359375 0.1875q-0.296875 0.125 -0.765625 0.25q-0.453125 0.109375 -1.046875 0.1875q-0.59375 0.09375 -1.265625 0.09375q-1.21875 0 -2.140625 -0.296875q-0.921875 -0.3125 -1.546875 -0.9375q-0.609375 -0.625 -0.90625 -1.578125q-0.296875 -0.953125 -0.296875 -2.234375q0 -1.234375 0.3125 -2.203125q0.3125 -0.984375 0.921875 -1.65625q0.609375 -0.6875 1.46875 -1.046875q0.875 -0.359375 1.953125 -0.359375q1.15625 0 1.96875 0.34375q0.8125 0.328125 1.328125 0.9375q0.53125 0.59375 0.765625 1.421875q0.25 0.8125 0.25 1.78125l0 0.40625zm-2.5 -0.734375q0.03125 -1.09375 -0.4375 -1.703125q-0.453125 -0.625 -1.4375 -0.625q-0.484375 0 -0.859375 0.1875q-0.359375 0.171875 -0.609375 0.484375q-0.234375 0.3125 -0.359375 0.75q-0.125 0.421875 -0.140625 0.90625l3.84375 0z" fill-rule="nonzero"></path><path fill="#f3de4a" d="m4.5170603 99.225945l0 0c0 -6.1230927 4.963746 -11.086838 11.086836 -11.086838l81.1964 0c2.9404144 0 5.760391 1.1680756 7.8395767 3.247261c2.0791855 2.0791855 3.247261 4.8991623 3.247261 7.8395767l0 44.346016c0 6.1230927 -4.963745 11.086838 -11.086838 11.086838l-81.1964 0c-6.12309 0 -11.086836 -4.963745 -11.086836 -11.086838z" fill-rule="nonzero"></path><path stroke="#000000" stroke-width="2.0" stroke-linejoin="round" stroke-linecap="butt" d="m4.5170603 99.225945l0 0c0 -6.1230927 4.963746 -11.086838 11.086836 -11.086838l81.1964 0c2.9404144 0 5.760391 1.1680756 7.8395767 3.247261c2.0791855 2.0791855 3.247261 4.8991623 3.247261 7.8395767l0 44.346016c0 6.1230927 -4.963745 11.086838 -11.086838 11.086838l-81.1964 0c-6.12309 0 -11.086836 -4.963745 -11.086836 -11.086838z" fill-rule="nonzero"></path><path fill="#000000" d="m40.65102 128.5352q0 0.09375 -0.0625 0.171875q-0.046875 0.078125 -0.171875 0.140625q-0.125 0.046875 -0.34375 0.0625q-0.203125 0.03125 -0.515625 0.03125q-0.34375 0 -0.5625 -0.03125q-0.203125 -0.015625 -0.328125 -0.0625q-0.125 -0.0625 -0.171875 -0.140625q-0.046875 -0.078125 -0.046875 -0.171875l0 -1.0625q-0.765625 0.828125 -1.546875 1.234375q-0.78125 0.40625 -1.625 0.40625q-0.9375 0 -1.578125 -0.296875q-0.640625 -0.3125 -1.046875 -0.84375q-0.390625 -0.546875 -0.5625 -1.234375q-0.1718731 -0.703125 -0.1718731 -1.75l0 -5.609375q0 -0.09375 0.0625 -0.171875q0.062498093 -0.078125 0.2031231 -0.125q0.15625 -0.0625 0.40625 -0.078125q0.25 -0.03125 0.609375 -0.03125q0.390625 0 0.625 0.03125q0.25 0.015625 0.390625 0.078125q0.15625 0.046875 0.21875 0.125q0.0625 0.078125 0.0625 0.171875l0 5.171875q0 0.71875 0.09375 1.109375q0.09375 0.375 0.28125 0.640625q0.1875 0.265625 0.484375 0.421875q0.296875 0.140625 0.6875 0.140625q0.484375 0 0.984375 -0.359375q0.5 -0.359375 1.0625 -1.046875l0 -6.078125q0 -0.09375 0.046875 -0.171875q0.0625 -0.078125 0.203125 -0.125q0.15625 -0.0625 0.40625 -0.078125q0.25 -0.03125 0.625 -0.03125q0.375 0 0.625 0.03125q0.25 0.015625 0.390625 0.078125q0.140625 0.046875 0.203125 0.125q0.0625 0.078125 0.0625 0.171875l0 9.15625zm11.507629 0q0 0.09375 -0.0625 0.171875q-0.0625 0.078125 -0.203125 0.140625q-0.140625 0.046875 -0.40625 0.0625q-0.25 0.03125 -0.609375 0.03125q-0.375 0 -0.640625 -0.03125q-0.25 -0.015625 -0.390625 -0.0625q-0.140625 -0.0625 -0.203125 -0.140625q-0.0625 -0.078125 -0.0625 -0.171875l0 -5.21875q0 -0.671875 -0.09375 -1.046875q-0.09375 -0.390625 -0.28125 -0.65625q-0.1875 -0.265625 -0.484375 -0.40625q-0.28125 -0.15625 -0.671875 -0.15625q-0.5 0 -1.0 0.359375q-0.5 0.359375 -1.046875 1.046875l0 6.078125q0 0.09375 -0.0625 0.171875q-0.0625 0.078125 -0.21875 0.140625q-0.140625 0.046875 -0.390625 0.0625q-0.234375 0.03125 -0.625 0.03125q-0.375 0 -0.625 -0.03125q-0.234375 -0.015625 -0.390625 -0.0625q-0.140625 -0.0625 -0.203125 -0.140625q-0.0625 -0.078125 -0.0625 -0.171875l0 -9.15625q0 -0.09375 0.046875 -0.171875q0.046875 -0.078125 0.171875 -0.125q0.140625 -0.0625 0.34375 -0.078125q0.21875 -0.03125 0.546875 -0.03125q0.328125 0 0.53125 0.03125q0.21875 0.015625 0.328125 0.078125q0.125 0.046875 0.171875 0.125q0.0625 0.078125 0.0625 0.171875l0 1.0625q0.75 -0.828125 1.53125 -1.234375q0.796875 -0.40625 1.640625 -0.40625q0.9375 0 1.578125 0.3125q0.640625 0.296875 1.03125 0.828125q0.40625 0.53125 0.578125 1.234375q0.171875 0.703125 0.171875 1.703125l0 5.65625zm5.2888794 0q0 0.09375 -0.0625 0.171875q-0.0625 0.078125 -0.21875 0.140625q-0.140625 0.046875 -0.390625 0.0625q-0.234375 0.03125 -0.625 0.03125q-0.375 0 -0.625 -0.03125q-0.234375 -0.015625 -0.390625 -0.0625q-0.140625 -0.0625 -0.203125 -0.140625q-0.0625 -0.078125 -0.0625 -0.171875l0 -9.125q0 -0.109375 0.0625 -0.1875q0.0625 -0.078125 0.203125 -0.125q0.15625 -0.0625 0.390625 -0.09375q0.25 -0.03125 0.625 -0.03125q0.390625 0 0.625 0.03125q0.25 0.03125 0.390625 0.09375q0.15625 0.046875 0.21875 0.125q0.0625 0.078125 0.0625 0.1875l0 9.125zm0.203125 -12.25q0 0.78125 -0.328125 1.078125q-0.3125 0.296875 -1.171875 0.296875q-0.875 0 -1.1875 -0.28125q-0.296875 -0.296875 -0.296875 -1.046875q0 -0.765625 0.3125 -1.0625q0.3125 -0.3125 1.1875 -0.3125q0.859375 0 1.171875 0.296875q0.3125 0.28125 0.3125 1.03125zm11.707066 7.578125q0 1.171875 -0.3125 2.140625q-0.3125 0.953125 -0.9375 1.65625q-0.625 0.703125 -1.578125 1.078125q-0.9375 0.375 -2.1875 0.375q-1.2187538 0 -2.1250038 -0.328125q-0.90625 -0.34375 -1.5 -0.984375q-0.59375 -0.65625 -0.890625 -1.59375q-0.28125 -0.953125 -0.28125 -2.15625q0 -1.171875 0.3125 -2.140625q0.3125 -0.96875 0.9375 -1.65625q0.625 -0.703125 1.5625 -1.078125q0.9375 -0.375 2.2031288 -0.375q1.234375 0 2.125 0.34375q0.90625 0.328125 1.5 0.96875q0.59375 0.640625 0.875 1.59375q0.296875 0.9375 0.296875 2.15625zm-2.65625 0.109375q0 -0.6875 -0.109375 -1.25q-0.109375 -0.578125 -0.375 -0.984375q-0.25 -0.421875 -0.671875 -0.65625q-0.421875 -0.25 -1.078125 -0.25q-0.5625038 0 -1.0000038 0.21875q-0.4375 0.203125 -0.71875 0.609375q-0.265625 0.40625 -0.40625 0.984375q-0.140625 0.5625 -0.140625 1.296875q0 0.671875 0.109375 1.25q0.125 0.5625 0.375 0.984375q0.25 0.421875 0.671875 0.65625q0.4375 0.21875 1.0781288 0.21875q0.578125 0 1.0 -0.203125q0.4375 -0.21875 0.71875 -0.609375q0.28125 -0.40625 0.40625 -0.96875q0.140625 -0.578125 0.140625 -1.296875zm13.606575 4.5625q0 0.09375 -0.0625 0.171875q-0.0625 0.078125 -0.203125 0.140625q-0.140625 0.046875 -0.40625 0.0625q-0.25 0.03125 -0.609375 0.03125q-0.375 0 -0.640625 -0.03125q-0.25 -0.015625 -0.390625 -0.0625q-0.140625 -0.0625 -0.203125 -0.140625q-0.0625 -0.078125 -0.0625 -0.171875l0 -5.21875q0 -0.671875 -0.09375 -1.046875q-0.09375 -0.390625 -0.28125 -0.65625q-0.1875 -0.265625 -0.484375 -0.40625q-0.28125 -0.15625 -0.671875 -0.15625q-0.5 0 -1.0 0.359375q-0.5 0.359375 -1.046875 1.046875l0 6.078125q0 0.09375 -0.0625 0.171875q-0.0625 0.078125 -0.21875 0.140625q-0.140625 0.046875 -0.390625 0.0625q-0.234375 0.03125 -0.625 0.03125q-0.375 0 -0.625 -0.03125q-0.234375 -0.015625 -0.390625 -0.0625q-0.14061737 -0.0625 -0.20311737 -0.140625q-0.0625 -0.078125 -0.0625 -0.171875l0 -9.15625q0 -0.09375 0.046875 -0.171875q0.046875 -0.078125 0.17186737 -0.125q0.140625 -0.0625 0.34375 -0.078125q0.21875 -0.03125 0.546875 -0.03125q0.328125 0 0.53125 0.03125q0.21875 0.015625 0.328125 0.078125q0.125 0.046875 0.171875 0.125q0.0625 0.078125 0.0625 0.171875l0 1.0625q0.75 -0.828125 1.53125 -1.234375q0.796875 -0.40625 1.640625 -0.40625q0.9375 0 1.578125 0.3125q0.640625 0.296875 1.03125 0.828125q0.40625 0.53125 0.578125 1.234375q0.171875 0.703125 0.171875 1.703125l0 5.65625z" fill-rule="nonzero"></path><path fill="#e1f5c4" d="m231.2454 99.225945l0 0c0 -6.1230927 4.963745 -11.086838 11.086838 -11.086838l81.19641 0c2.9403992 0 5.760376 1.1680756 7.839569 3.247261c2.079193 2.0791855 3.2472534 4.8991623 3.2472534 7.8395767l0 44.346016c0 6.1230927 -4.963745 11.086838 -11.0868225 11.086838l-81.19641 0c-6.1230927 0 -11.086838 -4.963745 -11.086838 -11.086838z" fill-rule="nonzero"></path><path stroke="#000000" stroke-width="2.0" stroke-linejoin="round" stroke-linecap="butt" d="m231.2454 99.225945l0 0c0 -6.1230927 4.963745 -11.086838 11.086838 -11.086838l81.19641 0c2.9403992 0 5.760376 1.1680756 7.839569 3.247261c2.079193 2.0791855 3.2472534 4.8991623 3.2472534 7.8395767l0 44.346016c0 6.1230927 -4.963745 11.086838 -11.0868225 11.086838l-81.19641 0c-6.1230927 0 -11.086838 -4.963745 -11.086838 -11.086838z" fill-rule="nonzero"></path><path fill="#000000" d="m257.0002 115.5352q0 0.09375 -0.0625 0.171875q-0.0625 0.078125 -0.21875 0.140625q-0.140625 0.046875 -0.390625 0.0625q-0.234375 0.03125 -0.625 0.03125q-0.375 0 -0.625 -0.03125q-0.234375 -0.015625 -0.390625 -0.0625q-0.140625 -0.0625 -0.203125 -0.140625q-0.0625 -0.078125 -0.0625 -0.171875l0 -9.125q0 -0.109375 0.0625 -0.1875q0.0625 -0.078125 0.203125 -0.125q0.15625 -0.0625 0.390625 -0.09375q0.25 -0.03125 0.625 -0.03125q0.390625 0 0.625 0.03125q0.25 0.03125 0.390625 0.09375q0.15625 0.046875 0.21875 0.125q0.0625 0.078125 0.0625 0.1875l0 9.125zm0.203125 -12.25q0 0.78125 -0.328125 1.078125q-0.3125 0.296875 -1.171875 0.296875q-0.875 0 -1.1875 -0.28125q-0.296875 -0.296875 -0.296875 -1.046875q0 -0.765625 0.3125 -1.0625q0.3125 -0.3125 1.1875 -0.3125q0.859375 0 1.171875 0.296875q0.3125 0.28125 0.3125 1.03125zm7.863312 11.34375q0 0.453125 -0.0625 0.703125q-0.046875 0.234375 -0.140625 0.328125q-0.09375 0.09375 -0.28125 0.171875q-0.171875 0.078125 -0.421875 0.125q-0.234375 0.0625 -0.515625 0.09375q-0.28125 0.03125 -0.5625 0.03125q-0.765625 0 -1.34375 -0.203125q-0.5625 -0.1875 -0.9375 -0.59375q-0.359375 -0.40625 -0.53125 -1.015625q-0.171875 -0.609375 -0.171875 -1.453125l0 -4.6875l-1.09375 0q-0.203125 0 -0.3125 -0.234375q-0.09375 -0.25 -0.09375 -0.8125q0 -0.296875 0.015625 -0.5q0.03125 -0.203125 0.078125 -0.3125q0.0625 -0.125 0.140625 -0.171875q0.078125 -0.0625 0.171875 -0.0625l1.09375 0l0 -2.046875q0 -0.09375 0.046875 -0.171875q0.0625 -0.09375 0.203125 -0.140625q0.15625 -0.0625 0.40625 -0.078125q0.25 -0.03125 0.625 -0.03125q0.375 0 0.625 0.03125q0.25 0.015625 0.390625 0.078125q0.15625 0.046875 0.21875 0.140625q0.0625 0.078125 0.0625 0.171875l0 2.046875l1.984375 0q0.109375 0 0.171875 0.0625q0.078125 0.046875 0.125 0.171875q0.0625 0.109375 0.078125 0.3125q0.03125 0.203125 0.03125 0.5q0 0.5625 -0.109375 0.8125q-0.09375 0.234375 -0.28125 0.234375l-2.0 0l0 4.296875q0 0.75 0.234375 1.125q0.234375 0.375 0.84375 0.375q0.203125 0 0.359375 -0.03125q0.171875 -0.046875 0.296875 -0.09375q0.125 -0.046875 0.203125 -0.078125q0.09375 -0.03125 0.171875 -0.03125q0.0625 0 0.109375 0.03125q0.0625 0.03125 0.09375 0.140625q0.03125 0.109375 0.046875 0.296875q0.03125 0.1875 0.03125 0.46875zm10.425262 -3.9375q0 0.46875 -0.203125 0.703125q-0.203125 0.21875 -0.578125 0.21875l-5.5625 0q0 0.578125 0.125 1.0625q0.140625 0.46875 0.4375 0.8125q0.3125 0.328125 0.78125 0.5q0.484375 0.171875 1.15625 0.171875q0.671875 0 1.1875 -0.09375q0.515625 -0.09375 0.890625 -0.203125q0.375 -0.125 0.609375 -0.21875q0.25 -0.109375 0.40625 -0.109375q0.09375 0 0.15625 0.046875q0.0625 0.03125 0.09375 0.125q0.046875 0.09375 0.0625 0.265625q0.015625 0.15625 0.015625 0.421875q0 0.21875 -0.015625 0.390625q0 0.15625 -0.03125 0.265625q-0.015625 0.109375 -0.0625 0.1875q-0.03125 0.078125 -0.109375 0.15625q-0.0625 0.0625 -0.359375 0.1875q-0.296875 0.125 -0.765625 0.25q-0.453125 0.109375 -1.046875 0.1875q-0.59375 0.09375 -1.265625 0.09375q-1.21875 0 -2.140625 -0.296875q-0.921875 -0.3125 -1.546875 -0.9375q-0.609375 -0.625 -0.90625 -1.578125q-0.296875 -0.953125 -0.296875 -2.234375q0 -1.234375 0.3125 -2.203125q0.3125 -0.984375 0.921875 -1.65625q0.609375 -0.6875 1.46875 -1.046875q0.875 -0.359375 1.953125 -0.359375q1.15625 0 1.96875 0.34375q0.8125 0.328125 1.328125 0.9375q0.53125 0.59375 0.765625 1.421875q0.25 0.8125 0.25 1.78125l0 0.40625zm-2.5 -0.734375q0.03125 -1.09375 -0.4375 -1.703125q-0.453125 -0.625 -1.4375 -0.625q-0.484375 0 -0.859375 0.1875q-0.359375 0.171875 -0.609375 0.484375q-0.234375 0.3125 -0.359375 0.75q-0.125 0.421875 -0.140625 0.90625l3.84375 0zm10.674469 -2.71875q0 0.359375 -0.03125 0.609375q-0.015625 0.234375 -0.0625 0.375q-0.03125 0.125 -0.109375 0.171875q-0.0625 0.046875 -0.15625 0.046875q-0.078125 0 -0.1875 -0.03125q-0.109375 -0.03125 -0.234375 -0.078125q-0.125 -0.046875 -0.28125 -0.078125q-0.15625 -0.03125 -0.34375 -0.03125q-0.203125 0 -0.421875 0.09375q-0.21875 0.078125 -0.453125 0.265625q-0.21875 0.1875 -0.484375 0.5q-0.25 0.296875 -0.53125 0.75l0 5.703125q0 0.09375 -0.0625 0.171875q-0.0625 0.078125 -0.21875 0.140625q-0.140625 0.046875 -0.390625 0.0625q-0.234375 0.03125 -0.625 0.03125q-0.375 0 -0.625 -0.03125q-0.234375 -0.015625 -0.390625 -0.0625q-0.140625 -0.0625 -0.203125 -0.140625q-0.0625 -0.078125 -0.0625 -0.171875l0 -9.15625q0 -0.09375 0.046875 -0.171875q0.046875 -0.078125 0.171875 -0.125q0.140625 -0.0625 0.34375 -0.078125q0.21875 -0.03125 0.546875 -0.03125q0.328125 0 0.53125 0.03125q0.21875 0.015625 0.328125 0.078125q0.125 0.046875 0.171875 0.125q0.0625 0.078125 0.0625 0.171875l0 1.140625q0.359375 -0.515625 0.671875 -0.84375q0.3125 -0.328125 0.59375 -0.515625q0.296875 -0.203125 0.578125 -0.28125q0.296875 -0.078125 0.578125 -0.078125q0.140625 0 0.296875 0.015625q0.15625 0.015625 0.3125 0.046875q0.171875 0.03125 0.28125 0.078125q0.125 0.046875 0.1875 0.109375q0.0625 0.046875 0.078125 0.109375q0.03125 0.0625 0.046875 0.171875q0.015625 0.109375 0.03125 0.328125q0.015625 0.203125 0.015625 0.578125zm9.487732 8.328125q0 0.140625 -0.109375 0.21875q-0.09375 0.078125 -0.3125 0.109375q-0.21875 0.046875 -0.640625 0.046875q-0.46875 0 -0.6875 -0.046875q-0.203125 -0.03125 -0.296875 -0.109375q-0.078125 -0.078125 -0.078125 -0.21875l0 -0.734375q-0.5625 0.609375 -1.296875 0.953125q-0.71875 0.328125 -1.59375 0.328125q-0.734375 0 -1.34375 -0.1875q-0.609375 -0.1875 -1.0625 -0.5625q-0.4375 -0.375 -0.6875 -0.921875q-0.234375 -0.5625 -0.234375 -1.296875q0 -0.796875 0.3125 -1.390625q0.3125 -0.59375 0.921875 -0.96875q0.625 -0.390625 1.546875 -0.578125q0.921875 -0.1875 2.140625 -0.1875l0.890625 0l0 -0.546875q0 -0.4375 -0.09375 -0.75q-0.078125 -0.328125 -0.28125 -0.546875q-0.1875 -0.21875 -0.53125 -0.3125q-0.328125 -0.109375 -0.828125 -0.109375q-0.640625 0 -1.15625 0.15625q-0.5 0.140625 -0.890625 0.3125q-0.390625 0.171875 -0.65625 0.3125q-0.25 0.140625 -0.421875 0.140625q-0.109375 0 -0.203125 -0.0625q-0.078125 -0.078125 -0.140625 -0.203125q-0.046875 -0.140625 -0.078125 -0.328125q-0.03125 -0.203125 -0.03125 -0.4375q0 -0.3125 0.046875 -0.5q0.046875 -0.1875 0.1875 -0.328125q0.15625 -0.15625 0.515625 -0.328125q0.359375 -0.1875 0.828125 -0.34375q0.484375 -0.15625 1.046875 -0.25q0.578125 -0.09375 1.1875 -0.09375q1.078125 0 1.84375 0.21875q0.765625 0.203125 1.25 0.640625q0.5 0.4375 0.71875 1.125q0.21875 0.6875 0.21875 1.625l0 6.15625zm-2.53125 -3.921875l-0.984375 0q-0.625 0 -1.0625 0.09375q-0.4375 0.09375 -0.71875 0.28125q-0.28125 0.171875 -0.40625 0.4375q-0.125 0.265625 -0.125 0.609375q0 0.5625 0.359375 0.890625q0.375 0.328125 1.015625 0.328125q0.546875 0 1.0 -0.265625q0.453125 -0.28125 0.921875 -0.8125l0 -1.5625zm10.684967 2.984375q0 0.453125 -0.0625 0.703125q-0.046875 0.234375 -0.140625 0.328125q-0.09375 0.09375 -0.28125 0.171875q-0.171875 0.078125 -0.421875 0.125q-0.234375 0.0625 -0.515625 0.09375q-0.28125 0.03125 -0.5625 0.03125q-0.765625 0 -1.3437805 -0.203125q-0.5625 -0.1875 -0.9375 -0.59375q-0.359375 -0.40625 -0.53125 -1.015625q-0.171875 -0.609375 -0.171875 -1.453125l0 -4.6875l-1.09375 0q-0.203125 0 -0.3125 -0.234375q-0.09375 -0.25 -0.09375 -0.8125q0 -0.296875 0.015625 -0.5q0.03125 -0.203125 0.078125 -0.3125q0.0625 -0.125 0.140625 -0.171875q0.078125 -0.0625 0.171875 -0.0625l1.09375 0l0 -2.046875q0 -0.09375 0.046875 -0.171875q0.0625 -0.09375 0.203125 -0.140625q0.15625 -0.0625 0.40625 -0.078125q0.25 -0.03125 0.625 -0.03125q0.375 0 0.625 0.03125q0.25003052 0.015625 0.39065552 0.078125q0.15625 0.046875 0.21875 0.140625q0.0625 0.078125 0.0625 0.171875l0 2.046875l1.984375 0q0.109375 0 0.171875 0.0625q0.078125 0.046875 0.125 0.171875q0.0625 0.109375 0.078125 0.3125q0.03125 0.203125 0.03125 0.5q0 0.5625 -0.109375 0.8125q-0.09375 0.234375 -0.28125 0.234375l-2.0 0l0 4.296875q0 0.75 0.234375 1.125q0.234375 0.375 0.84375 0.375q0.203125 0 0.359375 -0.03125q0.171875 -0.046875 0.296875 -0.09375q0.125 -0.046875 0.203125 -0.078125q0.09375 -0.03125 0.171875 -0.03125q0.0625 0 0.109375 0.03125q0.0625 0.03125 0.09375 0.140625q0.03125 0.109375 0.046875 0.296875q0.03125 0.1875 0.03125 0.46875zm10.425262 -3.9375q0 0.46875 -0.203125 0.703125q-0.203125 0.21875 -0.578125 0.21875l-5.5625 0q0 0.578125 0.125 1.0625q0.140625 0.46875 0.4375 0.8125q0.3125 0.328125 0.78125 0.5q0.484375 0.171875 1.15625 0.171875q0.671875 0 1.1875 -0.09375q0.515625 -0.09375 0.890625 -0.203125q0.375 -0.125 0.609375 -0.21875q0.25 -0.109375 0.40625 -0.109375q0.09375 0 0.15625 0.046875q0.0625 0.03125 0.09375 0.125q0.046875 0.09375 0.0625 0.265625q0.015625 0.15625 0.015625 0.421875q0 0.21875 -0.015625 0.390625q0 0.15625 -0.03125 0.265625q-0.015625 0.109375 -0.0625 0.1875q-0.03125 0.078125 -0.109375 0.15625q-0.0625 0.0625 -0.359375 0.1875q-0.296875 0.125 -0.765625 0.25q-0.453125 0.109375 -1.046875 0.1875q-0.59375 0.09375 -1.265625 0.09375q-1.21875 0 -2.140625 -0.296875q-0.921875 -0.3125 -1.546875 -0.9375q-0.609375 -0.625 -0.90625 -1.578125q-0.296875 -0.953125 -0.296875 -2.234375q0 -1.234375 0.3125 -2.203125q0.3125 -0.984375 0.921875 -1.65625q0.609375 -0.6875 1.46875 -1.046875q0.875 -0.359375 1.953125 -0.359375q1.15625 0 1.96875 0.34375q0.8125 0.328125 1.328125 0.9375q0.53125 0.59375 0.765625 1.421875q0.25 0.8125 0.25 1.78125l0 0.40625zm-2.5 -0.734375q0.03125 -1.09375 -0.4375 -1.703125q-0.453125 -0.625 -1.4375 -0.625q-0.484375 0 -0.859375 0.1875q-0.359375 0.171875 -0.609375 0.484375q-0.234375 0.3125 -0.359375 0.75q-0.125 0.421875 -0.140625 0.90625l3.84375 0z" fill-rule="nonzero"></path><path fill="#000000" d="m270.22763 141.5352q0 0.109375 -0.0625 0.1875q-0.046875 0.078125 -0.171875 0.125q-0.109375 0.046875 -0.328125 0.0625q-0.203125 0.03125 -0.515625 0.03125q-0.328125 0 -0.53125 -0.03125q-0.203125 -0.015625 -0.34375 -0.0625q-0.125 -0.046875 -0.1875 -0.125q-0.046875 -0.078125 -0.046875 -0.1875l0 -1.015625q-0.703125 0.75 -1.484375 1.171875q-0.765625 0.421875 -1.71875 0.421875q-1.046875 0 -1.765625 -0.40625q-0.71875 -0.40625 -1.1875 -1.09375q-0.453125 -0.6875 -0.65625 -1.59375q-0.203125 -0.921875 -0.203125 -1.9375q0 -1.21875 0.265625 -2.1875q0.265625 -0.984375 0.765625 -1.671875q0.5 -0.6875 1.25 -1.046875q0.75 -0.375 1.71875 -0.375q0.765625 0 1.390625 0.3125q0.625 0.3125 1.25 0.921875l0 -4.953125q0 -0.109375 0.046875 -0.1875q0.0625 -0.078125 0.203125 -0.140625q0.15625 -0.0625 0.40625 -0.09375q0.25 -0.03125 0.625 -0.03125q0.375 0 0.625 0.03125q0.25 0.03125 0.390625 0.09375q0.140625 0.0625 0.203125 0.140625q0.0625 0.078125 0.0625 0.1875l0 13.453125zm-2.5625 -6.109375q-0.5625 -0.703125 -1.078125 -1.0625q-0.5 -0.375 -1.046875 -0.375q-0.5 0 -0.875 0.25q-0.359375 0.25 -0.578125 0.671875q-0.21875 0.421875 -0.328125 0.9375q-0.109375 0.515625 -0.109375 1.0625q0 0.5625 0.09375 1.109375q0.09375 0.546875 0.296875 0.96875q0.21875 0.421875 0.5625 0.6875q0.359375 0.25 0.890625 0.25q0.265625 0 0.515625 -0.078125q0.25 -0.078125 0.5 -0.25q0.265625 -0.171875 0.546875 -0.453125q0.28125 -0.28125 0.609375 -0.6875l0 -3.03125zm13.773254 1.265625q0 0.46875 -0.203125 0.703125q-0.203125 0.21875 -0.578125 0.21875l-5.5625 0q0 0.578125 0.125 1.0625q0.140625 0.46875 0.4375 0.8125q0.3125 0.328125 0.78125 0.5q0.484375 0.171875 1.15625 0.171875q0.671875 0 1.1875 -0.09375q0.515625 -0.09375 0.890625 -0.203125q0.375 -0.125 0.609375 -0.21875q0.25 -0.109375 0.40625 -0.109375q0.09375 0 0.15625 0.046875q0.0625 0.03125 0.09375 0.125q0.046875 0.09375 0.0625 0.265625q0.015625 0.15625 0.015625 0.421875q0 0.21875 -0.015625 0.390625q0 0.15625 -0.03125 0.265625q-0.015625 0.109375 -0.0625 0.1875q-0.03125 0.078125 -0.109375 0.15625q-0.0625 0.0625 -0.359375 0.1875q-0.296875 0.125 -0.765625 0.25q-0.453125 0.109375 -1.046875 0.1875q-0.59375 0.09375 -1.265625 0.09375q-1.21875 0 -2.140625 -0.296875q-0.921875 -0.3125 -1.546875 -0.9375q-0.609375 -0.625 -0.90625 -1.578125q-0.296875 -0.953125 -0.296875 -2.234375q0 -1.234375 0.3125 -2.203125q0.3125 -0.984375 0.921875 -1.65625q0.609375 -0.6875 1.46875 -1.046875q0.875 -0.359375 1.953125 -0.359375q1.15625 0 1.96875 0.34375q0.8125 0.328125 1.328125 0.9375q0.53125 0.59375 0.765625 1.421875q0.25 0.8125 0.25 1.78125l0 0.40625zm-2.5 -0.734375q0.03125 -1.09375 -0.4375 -1.703125q-0.453125 -0.625 -1.4375 -0.625q-0.484375 0 -0.859375 0.1875q-0.359375 0.171875 -0.609375 0.484375q-0.234375 0.3125 -0.359375 0.75q-0.125 0.421875 -0.140625 0.90625l3.84375 0zm7.377594 5.578125q0 0.09375 -0.0625 0.171875q-0.0625 0.078125 -0.21875 0.140625q-0.140625 0.046875 -0.390625 0.0625q-0.234375 0.03125 -0.625 0.03125q-0.375 0 -0.625 -0.03125q-0.234375 -0.015625 -0.390625 -0.0625q-0.140625 -0.0625 -0.203125 -0.140625q-0.0625 -0.078125 -0.0625 -0.171875l0 -13.484375q0 -0.109375 0.0625 -0.1875q0.0625 -0.078125 0.203125 -0.140625q0.15625 -0.0625 0.390625 -0.09375q0.25 -0.03125 0.625 -0.03125q0.390625 0 0.625 0.03125q0.25 0.03125 0.390625 0.09375q0.15625 0.0625 0.21875 0.140625q0.0625 0.078125 0.0625 0.1875l0 13.484375zm8.066437 -0.90625q0 0.453125 -0.0625 0.703125q-0.046875 0.234375 -0.140625 0.328125q-0.09375 0.09375 -0.28125 0.171875q-0.171875 0.078125 -0.421875 0.125q-0.234375 0.0625 -0.515625 0.09375q-0.28125 0.03125 -0.5625 0.03125q-0.765625 0 -1.34375 -0.203125q-0.5625 -0.1875 -0.9375 -0.59375q-0.359375 -0.40625 -0.53125 -1.015625q-0.171875 -0.609375 -0.171875 -1.453125l0 -4.6875l-1.09375 0q-0.203125 0 -0.3125 -0.234375q-0.09375 -0.25 -0.09375 -0.8125q0 -0.296875 0.015625 -0.5q0.03125 -0.203125 0.078125 -0.3125q0.0625 -0.125 0.140625 -0.171875q0.078125 -0.0625 0.171875 -0.0625l1.09375 0l0 -2.046875q0 -0.09375 0.046875 -0.171875q0.0625 -0.09375 0.203125 -0.140625q0.15625 -0.0625 0.40625 -0.078125q0.25 -0.03125 0.625 -0.03125q0.375 0 0.625 0.03125q0.25 0.015625 0.390625 0.078125q0.15625 0.046875 0.21875 0.140625q0.0625 0.078125 0.0625 0.171875l0 2.046875l1.984375 0q0.109375 0 0.171875 0.0625q0.078125 0.046875 0.125 0.171875q0.0625 0.109375 0.078125 0.3125q0.03125 0.203125 0.03125 0.5q0 0.5625 -0.109375 0.8125q-0.09375 0.234375 -0.28125 0.234375l-2.0 0l0 4.296875q0 0.75 0.234375 1.125q0.234375 0.375 0.84375 0.375q0.203125 0 0.359375 -0.03125q0.171875 -0.046875 0.296875 -0.09375q0.125 -0.046875 0.203125 -0.078125q0.09375 -0.03125 0.171875 -0.03125q0.0625 0 0.109375 0.03125q0.0625 0.03125 0.09375 0.140625q0.03125 0.109375 0.046875 0.296875q0.03125 0.1875 0.03125 0.46875zm9.769043 0.9375q0 0.140625 -0.109375 0.21875q-0.09375 0.078125 -0.3125 0.109375q-0.21875 0.046875 -0.640625 0.046875q-0.46875 0 -0.6875 -0.046875q-0.203125 -0.03125 -0.296875 -0.109375q-0.078125 -0.078125 -0.078125 -0.21875l0 -0.734375q-0.5625 0.609375 -1.296875 0.953125q-0.71875 0.328125 -1.59375 0.328125q-0.734375 0 -1.34375 -0.1875q-0.609375 -0.1875 -1.0625 -0.5625q-0.4375 -0.375 -0.6875 -0.921875q-0.234375 -0.5625 -0.234375 -1.296875q0 -0.796875 0.3125 -1.390625q0.3125 -0.59375 0.921875 -0.96875q0.625 -0.390625 1.546875 -0.578125q0.921875 -0.1875 2.140625 -0.1875l0.890625 0l0 -0.546875q0 -0.4375 -0.09375 -0.75q-0.078125 -0.328125 -0.28125 -0.546875q-0.1875 -0.21875 -0.53125 -0.3125q-0.328125 -0.109375 -0.828125 -0.109375q-0.640625 0 -1.15625 0.15625q-0.5 0.140625 -0.890625 0.3125q-0.390625 0.171875 -0.65625 0.3125q-0.25 0.140625 -0.421875 0.140625q-0.109375 0 -0.203125 -0.0625q-0.078125 -0.078125 -0.140625 -0.203125q-0.046875 -0.140625 -0.078125 -0.328125q-0.03125 -0.203125 -0.03125 -0.4375q0 -0.3125 0.046875 -0.5q0.046875 -0.1875 0.1875 -0.328125q0.15625 -0.15625 0.515625 -0.328125q0.359375 -0.1875 0.828125 -0.34375q0.484375 -0.15625 1.046875 -0.25q0.578125 -0.09375 1.1875 -0.09375q1.078125 0 1.84375 0.21875q0.765625 0.203125 1.25 0.640625q0.5 0.4375 0.71875 1.125q0.21875 0.6875 0.21875 1.625l0 6.15625zm-2.53125 -3.921875l-0.984375 0q-0.625 0 -1.0625 0.09375q-0.4375 0.09375 -0.71875 0.28125q-0.28125 0.171875 -0.40625 0.4375q-0.125 0.265625 -0.125 0.609375q0 0.5625 0.359375 0.890625q0.375 0.328125 1.015625 0.328125q0.546875 0 1.0 -0.265625q0.453125 -0.28125 0.921875 -0.8125l0 -1.5625z" fill-rule="nonzero"></path></g></svg>

