<?xml version="1.0" standalone="yes"?>

<svg version="1.1" viewBox="0.0 0.0 765.0 273.0" fill="none" stroke="none" stroke-linecap="square" stroke-miterlimit="10" xmlns="http://www.w3.org/2000/svg" xmlns:xlink="http://www.w3.org/1999/xlink"><clipPath id="p.0"><path d="m0 0l765.0 0l0 273.0l-765.0 0l0 -273.0z" clip-rule="nonzero"></path></clipPath><g clip-path="url(#p.0)"><path fill="#000000" fill-opacity="0.0" d="m0 0l765.2992 0l0 273.37796l-765.2992 0z" fill-rule="nonzero"></path><path fill="#000000" fill-opacity="0.0" d="m312.24933 81.86352l48.37796 0" fill-rule="nonzero"></path><path stroke="#000000" stroke-width="2.0" stroke-linejoin="round" stroke-linecap="butt" d="m312.24933 81.86352l36.37796 0" fill-rule="evenodd"></path><path fill="#000000" stroke="#000000" stroke-width="2.0" stroke-linecap="butt" d="m348.6273 85.166985l9.076202 -3.3034668l-9.076202 -3.3034668z" fill-rule="evenodd"></path><path fill="#b7b7b7" d="m33.24672 202.69292l214.3937 0l0 26.897629l-214.3937 0z" fill-rule="nonzero"></path><path stroke="#000000" stroke-width="2.0" stroke-linejoin="round" stroke-linecap="butt" d="m33.24672 202.69292l214.3937 0l0 26.897629l-214.3937 0z" fill-rule="nonzero"></path><path fill="#000000" d="m56.797043 223.06174l0 -13.59375l1.796875 0l0 6.734375l6.765625 -6.734375l2.4375 0l-5.703125 5.5l5.953125 8.09375l-2.375 0l-4.84375 -6.890625l-2.234375 2.171875l0 4.71875l-1.796875 0zm12.302948 0l0 -9.859375l1.5 0l0 1.40625q1.09375 -1.625 3.140625 -1.625q0.890625 0 1.640625 0.328125q0.75 0.3125 1.109375 0.84375q0.375 0.515625 0.53125 1.21875q0.09375 0.46875 0.09375 1.625l0 6.0625l-1.671875 0l0 -6.0q0 -1.015625 -0.203125 -1.515625q-0.1875 -0.515625 -0.6875 -0.8125q-0.5 -0.296875 -1.171875 -0.296875q-1.0625 0 -1.84375 0.671875q-0.765625 0.671875 -0.765625 2.578125l0 5.375l-1.671875 0zm9.750717 -4.921875q0 -2.734375 1.53125 -4.0625q1.265625 -1.09375 3.09375 -1.09375q2.03125 0 3.3125 1.34375q1.296875 1.328125 1.296875 3.671875q0 1.90625 -0.578125 3.0q-0.5625 1.078125 -1.65625 1.6875q-1.078125 0.59375 -2.375 0.59375q-2.0625 0 -3.34375 -1.328125q-1.28125 -1.328125 -1.28125 -3.8125zm1.71875 0q0 1.890625 0.828125 2.828125q0.828125 0.9375 2.078125 0.9375q1.25 0 2.0625 -0.9375q0.828125 -0.953125 0.828125 -2.890625q0 -1.828125 -0.828125 -2.765625q-0.828125 -0.9375 -2.0625 -0.9375q-1.25 0 -2.078125 0.9375q-0.828125 0.9375 -0.828125 2.828125zm11.110092 4.921875l-3.015625 -9.859375l1.71875 0l1.5625 5.6875l0.59375 2.125q0.03125 -0.15625 0.5 -2.03125l1.578125 -5.78125l1.71875 0l1.46875 5.71875l0.484375 1.890625l0.578125 -1.90625l1.6875 -5.703125l1.625 0l-3.078125 9.859375l-1.734375 0l-1.578125 -5.90625l-0.375 -1.671875l-2.0 7.578125l-1.734375 0zm11.644821 0l0 -9.859375l1.5 0l0 1.40625q1.09375 -1.625 3.140625 -1.625q0.890625 0 1.640625 0.328125q0.75 0.3125 1.109375 0.84375q0.375 0.515625 0.53125 1.21875q0.09375 0.46875 0.09375 1.625l0 6.0625l-1.671875 0l0 -6.0q0 -1.015625 -0.203125 -1.515625q-0.1875 -0.515625 -0.6875 -0.8125q-0.5 -0.296875 -1.171875 -0.296875q-1.0625 0 -1.84375 0.671875q-0.765625 0.671875 -0.765625 2.578125l0 5.375l-1.671875 0zm15.965271 0l0 -8.546875l-1.484375 0l0 -1.3125l1.484375 0l0 -1.046875q0 -0.984375 0.171875 -1.46875q0.234375 -0.65625 0.84375 -1.046875q0.609375 -0.40625 1.703125 -0.40625q0.703125 0 1.5625 0.15625l-0.25 1.46875q-0.515625 -0.09375 -0.984375 -0.09375q-0.765625 0 -1.078125 0.328125q-0.3125 0.3125 -0.3125 1.203125l0 0.90625l1.921875 0l0 1.3125l-1.921875 0l0 8.546875l-1.65625 0zm4.761429 0l0 -9.859375l1.5 0l0 1.5q0.578125 -1.046875 1.0625 -1.375q0.484375 -0.34375 1.078125 -0.34375q0.84375 0 1.71875 0.546875l-0.578125 1.546875q-0.609375 -0.359375 -1.234375 -0.359375q-0.546875 0 -0.984375 0.328125q-0.421875 0.328125 -0.609375 0.90625q-0.28125 0.890625 -0.28125 1.953125l0 5.15625l-1.671875 0zm5.603302 -4.921875q0 -2.734375 1.53125 -4.0625q1.265625 -1.09375 3.09375 -1.09375q2.03125 0 3.3125 1.34375q1.296875 1.328125 1.296875 3.671875q0 1.90625 -0.578125 3.0q-0.5625 1.078125 -1.65625 1.6875q-1.078125 0.59375 -2.375 0.59375q-2.0625 0 -3.34375 -1.328125q-1.28125 -1.328125 -1.28125 -3.8125zm1.71875 0q0 1.890625 0.828125 2.828125q0.828125 0.9375 2.078125 0.9375q1.25 0 2.0625 -0.9375q0.828125 -0.953125 0.828125 -2.890625q0 -1.828125 -0.828125 -2.765625q-0.828125 -0.9375 -2.0625 -0.9375q-1.25 0 -2.078125 0.9375q-0.828125 0.9375 -0.828125 2.828125zm9.281967 4.921875l0 -9.859375l1.5 0l0 1.390625q0.453125 -0.71875 1.21875 -1.15625q0.78125 -0.453125 1.765625 -0.453125q1.09375 0 1.796875 0.453125q0.703125 0.453125 0.984375 1.28125q1.171875 -1.734375 3.046875 -1.734375q1.46875 0 2.25 0.8125q0.796875 0.8125 0.796875 2.5l0 6.765625l-1.671875 0l0 -6.203125q0 -1.0 -0.15625 -1.4375q-0.15625 -0.453125 -0.59375 -0.71875q-0.421875 -0.265625 -1.0 -0.265625q-1.03125 0 -1.71875 0.6875q-0.6875 0.6875 -0.6875 2.21875l0 5.71875l-1.671875 0l0 -6.40625q0 -1.109375 -0.40625 -1.65625q-0.40625 -0.5625 -1.34375 -0.5625q-0.703125 0 -1.3125 0.375q-0.59375 0.359375 -0.859375 1.078125q-0.265625 0.71875 -0.265625 2.0625l0 5.109375l-1.671875 0zm20.98973 0l0 -13.59375l1.8125 0l0 5.578125l7.0625 0l0 -5.578125l1.796875 0l0 13.59375l-1.796875 0l0 -6.40625l-7.0625 0l0 6.40625l-1.8125 0zm19.644821 -1.21875q-0.9375 0.796875 -1.796875 1.125q-0.859375 0.3125 -1.84375 0.3125q-1.609375 0 -2.484375 -0.78125q-0.875 -0.796875 -0.875 -2.03125q0 -0.734375 0.328125 -1.328125q0.328125 -0.59375 0.859375 -0.953125q0.53125 -0.359375 1.203125 -0.546875q0.5 -0.140625 1.484375 -0.25q2.03125 -0.25 2.984375 -0.578125q0 -0.34375 0 -0.4375q0 -1.015625 -0.46875 -1.4375q-0.640625 -0.5625 -1.90625 -0.5625q-1.171875 0 -1.734375 0.40625q-0.5625 0.40625 -0.828125 1.46875l-1.640625 -0.234375q0.234375 -1.046875 0.734375 -1.6875q0.515625 -0.640625 1.46875 -0.984375q0.96875 -0.359375 2.25 -0.359375q1.265625 0 2.046875 0.296875q0.78125 0.296875 1.15625 0.75q0.375 0.453125 0.515625 1.140625q0.09375 0.421875 0.09375 1.53125l0 2.234375q0 2.328125 0.09375 2.953125q0.109375 0.609375 0.4375 1.171875l-1.75 0q-0.265625 -0.515625 -0.328125 -1.21875zm-0.140625 -3.71875q-0.90625 0.359375 -2.734375 0.625q-1.03125 0.140625 -1.453125 0.328125q-0.421875 0.1875 -0.65625 0.546875q-0.234375 0.359375 -0.234375 0.796875q0 0.671875 0.5 1.125q0.515625 0.4375 1.484375 0.4375q0.96875 0 1.71875 -0.421875q0.75 -0.4375 1.109375 -1.15625q0.265625 -0.578125 0.265625 -1.671875l0 -0.609375zm10.469467 4.9375l0 -1.25q-0.9375 1.46875 -2.75 1.46875q-1.171875 0 -2.171875 -0.640625q-0.984375 -0.65625 -1.53125 -1.8125q-0.53125 -1.171875 -0.53125 -2.6875q0 -1.46875 0.484375 -2.671875q0.5 -1.203125 1.46875 -1.84375q0.984375 -0.640625 2.203125 -0.640625q0.890625 0 1.578125 0.375q0.703125 0.375 1.140625 0.984375l0 -4.875l1.65625 0l0 13.59375l-1.546875 0zm-5.28125 -4.921875q0 1.890625 0.796875 2.828125q0.8125 0.9375 1.890625 0.9375q1.09375 0 1.859375 -0.890625q0.765625 -0.890625 0.765625 -2.734375q0 -2.015625 -0.78125 -2.953125q-0.78125 -0.953125 -1.921875 -0.953125q-1.109375 0 -1.859375 0.90625q-0.75 0.90625 -0.75 2.859375zm8.641342 0q0 -2.734375 1.53125 -4.0625q1.265625 -1.09375 3.09375 -1.09375q2.03125 0 3.3125 1.34375q1.296875 1.328125 1.296875 3.671875q0 1.90625 -0.578125 3.0q-0.5625 1.078125 -1.65625 1.6875q-1.078125 0.59375 -2.375 0.59375q-2.0625 0 -3.34375 -1.328125q-1.28125 -1.328125 -1.28125 -3.8125zm1.71875 0q0 1.890625 0.828125 2.828125q0.828125 0.9375 2.078125 0.9375q1.25 0 2.0625 -0.9375q0.828125 -0.953125 0.828125 -2.890625q0 -1.828125 -0.828125 -2.765625q-0.828125 -0.9375 -2.0625 -0.9375q-1.25 0 -2.078125 0.9375q-0.828125 0.9375 -0.828125 2.828125zm8.656967 0q0 -2.734375 1.53125 -4.0625q1.265625 -1.09375 3.09375 -1.09375q2.03125 0 3.3125 1.34375q1.296875 1.328125 1.296875 3.671875q0 1.90625 -0.578125 3.0q-0.5625 1.078125 -1.65625 1.6875q-1.078125 0.59375 -2.375 0.59375q-2.0625 0 -3.34375 -1.328125q-1.28125 -1.328125 -1.28125 -3.8125zm1.71875 0q0 1.890625 0.828125 2.828125q0.828125 0.9375 2.078125 0.9375q1.25 0 2.0625 -0.9375q0.828125 -0.953125 0.828125 -2.890625q0 -1.828125 -0.828125 -2.765625q-0.828125 -0.9375 -2.0625 -0.9375q-1.25 0 -2.078125 0.9375q-0.828125 0.9375 -0.828125 2.828125zm9.281967 8.703125l0 -13.640625l1.53125 0l0 1.28125q0.53125 -0.75 1.203125 -1.125q0.6875 -0.375 1.640625 -0.375q1.265625 0 2.234375 0.65625q0.96875 0.640625 1.453125 1.828125q0.5 1.1875 0.5 2.59375q0 1.515625 -0.546875 2.734375q-0.546875 1.203125 -1.578125 1.84375q-1.03125 0.640625 -2.171875 0.640625q-0.84375 0 -1.515625 -0.34375q-0.65625 -0.359375 -1.078125 -0.890625l0 4.796875l-1.671875 0zm1.515625 -8.65625q0 1.90625 0.765625 2.8125q0.78125 0.90625 1.875 0.90625q1.109375 0 1.890625 -0.9375q0.796875 -0.9375 0.796875 -2.921875q0 -1.875 -0.78125 -2.8125q-0.765625 -0.9375 -1.84375 -0.9375q-1.0625 0 -1.890625 1.0q-0.8125 1.0 -0.8125 2.890625z" fill-rule="nonzero"></path><path fill="#e69138" d="m258.61154 202.69292l453.6063 0l0 26.897629l-453.6063 0z" fill-rule="nonzero"></path><path stroke="#000000" stroke-width="2.0" stroke-linejoin="round" stroke-linecap="butt" d="m258.61154 202.69292l453.6063 0l0 26.897629l-453.6063 0z" fill-rule="nonzero"></path><path fill="#000000" d="m402.35446 223.06174l0 -13.59375l1.84375 0l7.140625 10.671875l0 -10.671875l1.71875 0l0 13.59375l-1.84375 0l-7.140625 -10.6875l0 10.6875l-1.71875 0zm20.019836 -3.171875l1.71875 0.21875q-0.40625 1.5 -1.515625 2.34375q-1.09375 0.828125 -2.8125 0.828125q-2.15625 0 -3.421875 -1.328125q-1.265625 -1.328125 -1.265625 -3.734375q0 -2.484375 1.265625 -3.859375q1.28125 -1.375 3.328125 -1.375q1.984375 0 3.234375 1.34375q1.25 1.34375 1.25 3.796875q0 0.140625 -0.015625 0.4375l-7.34375 0q0.09375 1.625 0.921875 2.484375q0.828125 0.859375 2.0625 0.859375q0.90625 0 1.546875 -0.46875q0.65625 -0.484375 1.046875 -1.546875zm-5.484375 -2.703125l5.5 0q-0.109375 -1.234375 -0.625 -1.859375q-0.796875 -0.96875 -2.078125 -0.96875q-1.140625 0 -1.9375 0.78125q-0.78125 0.765625 -0.859375 2.046875zm10.938202 5.875l-3.015625 -9.859375l1.71875 0l1.5625 5.6875l0.59375 2.125q0.03125 -0.15625 0.5 -2.03125l1.578125 -5.78125l1.71875 0l1.46875 5.71875l0.484375 1.890625l0.578125 -1.90625l1.6875 -5.703125l1.625 0l-3.078125 9.859375l-1.734375 0l-1.578125 -5.90625l-0.375 -1.671875l-2.0 7.578125l-1.734375 0zm16.84375 -11.6875l0 -1.90625l1.671875 0l0 1.90625l-1.671875 0zm0 11.6875l0 -9.859375l1.671875 0l0 9.859375l-1.671875 0zm4.1292114 0l0 -9.859375l1.5 0l0 1.40625q1.09375 -1.625 3.140625 -1.625q0.890625 0 1.640625 0.328125q0.75 0.3125 1.109375 0.84375q0.375 0.515625 0.53125 1.21875q0.09375 0.46875 0.09375 1.625l0 6.0625l-1.671875 0l0 -6.0q0 -1.015625 -0.203125 -1.515625q-0.1875 -0.515625 -0.6875 -0.8125q-0.5 -0.296875 -1.171875 -0.296875q-1.0625 0 -1.84375 0.671875q-0.765625 0.671875 -0.765625 2.578125l0 5.375l-1.671875 0zm15.168396 -4.375l1.6875 -0.140625q0.125 1.015625 0.5625 1.671875q0.4375 0.65625 1.359375 1.0625q0.9375 0.40625 2.09375 0.40625q1.03125 0 1.8125 -0.3125q0.796875 -0.3125 1.1875 -0.84375q0.390625 -0.53125 0.390625 -1.15625q0 -0.640625 -0.375 -1.109375q-0.375 -0.484375 -1.234375 -0.8125q-0.546875 -0.21875 -2.421875 -0.65625q-1.875 -0.453125 -2.625 -0.859375q-0.96875 -0.515625 -1.453125 -1.265625q-0.46875 -0.75 -0.46875 -1.6875q0 -1.03125 0.578125 -1.921875q0.59375 -0.90625 1.703125 -1.359375q1.125 -0.46875 2.5 -0.46875q1.515625 0 2.671875 0.484375q1.15625 0.484375 1.765625 1.4375q0.625 0.9375 0.671875 2.140625l-1.71875 0.125q-0.140625 -1.28125 -0.953125 -1.9375q-0.796875 -0.671875 -2.359375 -0.671875q-1.625 0 -2.375 0.609375q-0.75 0.59375 -0.75 1.4375q0 0.734375 0.53125 1.203125q0.515625 0.46875 2.703125 0.96875q2.203125 0.5 3.015625 0.875q1.1875 0.546875 1.75 1.390625q0.578125 0.828125 0.578125 1.921875q0 1.09375 -0.625 2.0625q-0.625 0.953125 -1.796875 1.484375q-1.15625 0.53125 -2.609375 0.53125q-1.84375 0 -3.09375 -0.53125q-1.25 -0.546875 -1.96875 -1.625q-0.703125 -1.078125 -0.734375 -2.453125zm16.490448 2.875l0.234375 1.484375q-0.703125 0.140625 -1.265625 0.140625q-0.90625 0 -1.40625 -0.28125q-0.5 -0.296875 -0.703125 -0.75q-0.203125 -0.46875 -0.203125 -1.984375l0 -5.65625l-1.234375 0l0 -1.3125l1.234375 0l0 -2.4375l1.65625 -1.0l0 3.4375l1.6875 0l0 1.3125l-1.6875 0l0 5.75q0 0.71875 0.078125 0.921875q0.09375 0.203125 0.296875 0.328125q0.203125 0.125 0.578125 0.125q0.265625 0 0.734375 -0.078125zm1.5114136 1.5l0 -9.859375l1.5 0l0 1.5q0.578125 -1.046875 1.0625 -1.375q0.484375 -0.34375 1.078125 -0.34375q0.84375 0 1.71875 0.546875l-0.578125 1.546875q-0.609375 -0.359375 -1.234375 -0.359375q-0.546875 0 -0.984375 0.328125q-0.421875 0.328125 -0.609375 0.90625q-0.28125 0.890625 -0.28125 1.953125l0 5.15625l-1.671875 0zm12.665802 -1.21875q-0.9375 0.796875 -1.796875 1.125q-0.859375 0.3125 -1.84375 0.3125q-1.609375 0 -2.484375 -0.78125q-0.875 -0.796875 -0.875 -2.03125q0 -0.734375 0.328125 -1.328125q0.328125 -0.59375 0.859375 -0.953125q0.53125 -0.359375 1.203125 -0.546875q0.5 -0.140625 1.484375 -0.25q2.03125 -0.25 2.984375 -0.578125q0 -0.34375 0 -0.4375q0 -1.015625 -0.46875 -1.4375q-0.640625 -0.5625 -1.90625 -0.5625q-1.171875 0 -1.734375 0.40625q-0.5625 0.40625 -0.828125 1.46875l-1.640625 -0.234375q0.234375 -1.046875 0.734375 -1.6875q0.515625 -0.640625 1.46875 -0.984375q0.96875 -0.359375 2.25 -0.359375q1.265625 0 2.046875 0.296875q0.78125 0.296875 1.15625 0.75q0.375 0.453125 0.515625 1.140625q0.09375 0.421875 0.09375 1.53125l0 2.234375q0 2.328125 0.09375 2.953125q0.109375 0.609375 0.4375 1.171875l-1.75 0q-0.265625 -0.515625 -0.328125 -1.21875zm-0.140625 -3.71875q-0.90625 0.359375 -2.734375 0.625q-1.03125 0.140625 -1.453125 0.328125q-0.421875 0.1875 -0.65625 0.546875q-0.234375 0.359375 -0.234375 0.796875q0 0.671875 0.5 1.125q0.515625 0.4375 1.484375 0.4375q0.96875 0 1.71875 -0.421875q0.75 -0.4375 1.109375 -1.15625q0.265625 -0.578125 0.265625 -1.671875l0 -0.609375zm7.7351074 3.4375l0.234375 1.484375q-0.703125 0.140625 -1.265625 0.140625q-0.90625 0 -1.40625 -0.28125q-0.5 -0.296875 -0.703125 -0.75q-0.203125 -0.46875 -0.203125 -1.984375l0 -5.65625l-1.234375 0l0 -1.3125l1.234375 0l0 -2.4375l1.65625 -1.0l0 3.4375l1.6875 0l0 1.3125l-1.6875 0l0 5.75q0 0.71875 0.078125 0.921875q0.09375 0.203125 0.296875 0.328125q0.203125 0.125 0.578125 0.125q0.265625 0 0.734375 -0.078125zm0.9020386 -3.421875q0 -2.734375 1.53125 -4.0625q1.265625 -1.09375 3.09375 -1.09375q2.03125 0 3.3125 1.34375q1.296875 1.328125 1.296875 3.671875q0 1.90625 -0.578125 3.0q-0.5625 1.078125 -1.65625 1.6875q-1.078125 0.59375 -2.375 0.59375q-2.0625 0 -3.34375 -1.328125q-1.28125 -1.328125 -1.28125 -3.8125zm1.71875 0q0 1.890625 0.828125 2.828125q0.828125 0.9375 2.078125 0.9375q1.25 0 2.0625 -0.9375q0.828125 -0.953125 0.828125 -2.890625q0 -1.828125 -0.828125 -2.765625q-0.828125 -0.9375 -2.0625 -0.9375q-1.25 0 -2.078125 0.9375q-0.828125 0.9375 -0.828125 2.828125zm8.610107 1.984375l1.65625 -0.265625q0.140625 1.0 0.765625 1.53125q0.640625 0.515625 1.78125 0.515625q1.15625 0 1.703125 -0.46875q0.5625 -0.46875 0.5625 -1.09375q0 -0.5625 -0.484375 -0.890625q-0.34375 -0.21875 -1.703125 -0.5625q-1.84375 -0.46875 -2.5625 -0.796875q-0.703125 -0.34375 -1.078125 -0.9375q-0.359375 -0.609375 -0.359375 -1.328125q0 -0.65625 0.296875 -1.21875q0.3125 -0.5625 0.828125 -0.9375q0.390625 -0.28125 1.0625 -0.484375q0.671875 -0.203125 1.4375 -0.203125q1.171875 0 2.046875 0.34375q0.875 0.328125 1.28125 0.90625q0.421875 0.5625 0.578125 1.515625l-1.625 0.21875q-0.109375 -0.75 -0.65625 -1.171875q-0.53125 -0.4375 -1.5 -0.4375q-1.15625 0 -1.640625 0.390625q-0.484375 0.375 -0.484375 0.875q0 0.328125 0.203125 0.59375q0.203125 0.265625 0.640625 0.4375q0.25 0.09375 1.46875 0.4375q1.765625 0.46875 2.46875 0.765625q0.703125 0.296875 1.09375 0.875q0.40625 0.578125 0.40625 1.4375q0 0.828125 -0.484375 1.578125q-0.484375 0.734375 -1.40625 1.140625q-0.921875 0.390625 -2.078125 0.390625q-1.921875 0 -2.9375 -0.796875q-1.0 -0.796875 -1.28125 -2.359375zm10.0 6.71875l0 -13.640625l1.53125 0l0 1.28125q0.53125 -0.75 1.203125 -1.125q0.6875 -0.375 1.640625 -0.375q1.265625 0 2.234375 0.65625q0.96875 0.640625 1.453125 1.828125q0.5 1.1875 0.5 2.59375q0 1.515625 -0.546875 2.734375q-0.546875 1.203125 -1.578125 1.84375q-1.03125 0.640625 -2.171875 0.640625q-0.84375 0 -1.515625 -0.34375q-0.65625 -0.359375 -1.078125 -0.890625l0 4.796875l-1.671875 0zm1.515625 -8.65625q0 1.90625 0.765625 2.8125q0.78125 0.90625 1.875 0.90625q1.109375 0 1.890625 -0.9375q0.796875 -0.9375 0.796875 -2.921875q0 -1.875 -0.78125 -2.8125q-0.765625 -0.9375 -1.84375 -0.9375q-1.0625 0 -1.890625 1.0q-0.8125 1.0 -0.8125 2.890625zm8.860107 4.875l0 -13.59375l1.671875 0l0 4.875q1.171875 -1.359375 2.953125 -1.359375q1.09375 0 1.890625 0.4375q0.8125 0.421875 1.15625 1.1875q0.359375 0.765625 0.359375 2.203125l0 6.25l-1.671875 0l0 -6.25q0 -1.25 -0.546875 -1.8125q-0.546875 -0.578125 -1.53125 -0.578125q-0.75 0 -1.40625 0.390625q-0.640625 0.375 -0.921875 1.046875q-0.28125 0.65625 -0.28125 1.8125l0 5.390625l-1.671875 0zm17.125732 -3.171875l1.71875 0.21875q-0.40625 1.5 -1.515625 2.34375q-1.09375 0.828125 -2.8125 0.828125q-2.15625 0 -3.421875 -1.328125q-1.265625 -1.328125 -1.265625 -3.734375q0 -2.484375 1.265625 -3.859375q1.28125 -1.375 3.328125 -1.375q1.984375 0 3.234375 1.34375q1.25 1.34375 1.25 3.796875q0 0.140625 -0.015625 0.4375l-7.34375 0q0.09375 1.625 0.921875 2.484375q0.828125 0.859375 2.0625 0.859375q0.90625 0 1.546875 -0.46875q0.65625 -0.484375 1.046875 -1.546875zm-5.484375 -2.703125l5.5 0q-0.109375 -1.234375 -0.625 -1.859375q-0.796875 -0.96875 -2.078125 -0.96875q-1.140625 0 -1.9375 0.78125q-0.78125 0.765625 -0.859375 2.046875zm9.094421 5.875l0 -9.859375l1.5 0l0 1.5q0.578125 -1.046875 1.0625 -1.375q0.484375 -0.34375 1.078125 -0.34375q0.84375 0 1.71875 0.546875l-0.578125 1.546875q-0.609375 -0.359375 -1.234375 -0.359375q-0.546875 0 -0.984375 0.328125q-0.421875 0.328125 -0.609375 0.90625q-0.28125 0.890625 -0.28125 1.953125l0 5.15625l-1.671875 0zm12.9783325 -3.171875l1.71875 0.21875q-0.40625 1.5 -1.515625 2.34375q-1.09375 0.828125 -2.8125 0.828125q-2.15625 0 -3.421875 -1.328125q-1.265625 -1.328125 -1.265625 -3.734375q0 -2.484375 1.265625 -3.859375q1.28125 -1.375 3.328125 -1.375q1.984375 0 3.234375 1.34375q1.25 1.34375 1.25 3.796875q0 0.140625 -0.015625 0.4375l-7.34375 0q0.09375 1.625 0.921875 2.484375q0.828125 0.859375 2.0625 0.859375q0.90625 0 1.546875 -0.46875q0.65625 -0.484375 1.046875 -1.546875zm-5.484375 -2.703125l5.5 0q-0.109375 -1.234375 -0.625 -1.859375q-0.796875 -0.96875 -2.078125 -0.96875q-1.140625 0 -1.9375 0.78125q-0.78125 0.765625 -0.859375 2.046875z" fill-rule="nonzero"></path><path fill="#69d2e7" d="m62.632545 137.92389l0 0c0 -14.811676 12.007233 -26.818901 26.818901 -26.818901l0 0c7.112808 0 13.934303 2.825554 18.963821 7.855072c5.029518 5.029518 7.855072 11.851006 7.855072 18.963829l0 0c0 14.811661 -12.007225 26.818893 -26.818893 26.818893l0 0c-14.811668 0 -26.818901 -12.007233 -26.818901 -26.818893z" fill-rule="nonzero"></path><path stroke="#000000" stroke-width="2.0" stroke-linejoin="round" stroke-linecap="butt" d="m62.632545 137.92389l0 0c0 -14.811676 12.007233 -26.818901 26.818901 -26.818901l0 0c7.112808 0 13.934303 2.825554 18.963821 7.855072c5.029518 5.029518 7.855072 11.851006 7.855072 18.963829l0 0c0 14.811661 -12.007225 26.818893 -26.818893 26.818893l0 0c-14.811668 0 -26.818901 -12.007233 -26.818901 -26.818893z" fill-rule="nonzero"></path><path fill="#000000" d="m96.59532 144.51576q0 0.09375 -0.046875 0.171875q-0.046875 0.0625 -0.1875 0.109375q-0.140625 0.046875 -0.359375 0.078125q-0.21875 0.03125 -0.5625 0.03125q-0.328125 0 -0.5625 -0.03125q-0.21875 -0.03125 -0.359375 -0.078125q-0.125 -0.046875 -0.1875 -0.109375q-0.046875 -0.078125 -0.046875 -0.171875l0 -9.78125l-0.015625 0l-3.484375 9.765625q-0.03125 0.125 -0.125 0.203125q-0.078125 0.078125 -0.21875 0.125q-0.140625 0.046875 -0.375 0.0625q-0.21875 0.015625 -0.53125 0.015625q-0.3125 0 -0.53125 -0.03125q-0.21875 -0.015625 -0.375 -0.0625q-0.140625 -0.0625 -0.234375 -0.125q-0.078125 -0.078125 -0.09375 -0.1875l-3.359375 -9.765625l-0.015625 0l0 9.78125q0 0.09375 -0.0625 0.171875q-0.046875 0.0625 -0.1875 0.109375q-0.140625 0.046875 -0.359375 0.078125q-0.21875 0.03125 -0.5625 0.03125q-0.328125 0 -0.5625 -0.03125q-0.21875 -0.03125 -0.359375 -0.078125q-0.125 -0.046875 -0.171875 -0.109375q-0.046875 -0.078125 -0.046875 -0.171875l0 -10.703125q0 -0.46875 0.25 -0.71875q0.25 -0.25 0.671875 -0.25l1.59375 0q0.421875 0 0.71875 0.078125q0.3125 0.0625 0.53125 0.21875q0.234375 0.15625 0.375 0.421875q0.15625 0.265625 0.265625 0.65625l2.59375 7.15625l0.03125 0l2.703125 -7.140625q0.109375 -0.390625 0.25 -0.65625q0.15625 -0.265625 0.34375 -0.421875q0.1875 -0.171875 0.4375 -0.234375q0.265625 -0.078125 0.609375 -0.078125l1.640625 0q0.25 0 0.4375 0.0625q0.1875 0.0625 0.296875 0.1875q0.109375 0.125 0.171875 0.3125q0.0625 0.171875 0.0625 0.40625l0 10.703125z" fill-rule="nonzero"></path><path fill="#a7dbd8" d="m164.63255 137.92389l0 0c0 -14.811676 12.007217 -26.818901 26.818893 -26.818901l0 0c7.112808 0 13.934296 2.825554 18.963821 7.855072c5.0295258 5.029518 7.855072 11.851006 7.855072 18.963829l0 0c0 14.811661 -12.007233 26.818893 -26.818893 26.818893l0 0c-14.811676 0 -26.818893 -12.007233 -26.818893 -26.818893z" fill-rule="nonzero"></path><path stroke="#000000" stroke-width="2.0" stroke-linejoin="round" stroke-linecap="butt" d="m164.63255 137.92389l0 0c0 -14.811676 12.007217 -26.818901 26.818893 -26.818901l0 0c7.112808 0 13.934296 2.825554 18.963821 7.855072c5.0295258 5.029518 7.855072 11.851006 7.855072 18.963829l0 0c0 14.811661 -12.007233 26.818893 -26.818893 26.818893l0 0c-14.811676 0 -26.818893 -12.007233 -26.818893 -26.818893z" fill-rule="nonzero"></path><path fill="#000000" d="m196.74457 145.06013q0 0.109375 -0.046875 0.1875q-0.046875 0.078125 -0.203125 0.125q-0.140625 0.046875 -0.4375 0.0625q-0.296875 0.03125 -0.8125 0.03125q-0.4375 0 -0.703125 -0.03125q-0.25 -0.015625 -0.40625 -0.0625q-0.140625 -0.0625 -0.203125 -0.140625q-0.0625 -0.09375 -0.09375 -0.21875l-1.1875 -2.96875q-0.21875 -0.5 -0.421875 -0.890625q-0.203125 -0.390625 -0.453125 -0.640625q-0.25 -0.265625 -0.578125 -0.390625q-0.328125 -0.140625 -0.765625 -0.140625l-0.84375 0l0 5.046875q0 0.109375 -0.0625 0.1875q-0.0625 0.078125 -0.21875 0.140625q-0.15625 0.046875 -0.421875 0.078125q-0.25 0.03125 -0.640625 0.03125q-0.390625 0 -0.65625 -0.03125q-0.265625 -0.03125 -0.421875 -0.078125q-0.15625 -0.0625 -0.21875 -0.140625q-0.046875 -0.078125 -0.046875 -0.1875l0 -12.046875q0 -0.453125 0.21875 -0.640625q0.234375 -0.203125 0.578125 -0.203125l3.4375 0q0.515625 0 0.84375 0.015625q0.34375 0.015625 0.625 0.046875q0.796875 0.125 1.4375 0.40625q0.640625 0.265625 1.078125 0.71875q0.453125 0.4375 0.6875 1.046875q0.25 0.609375 0.25 1.40625q0 0.65625 -0.171875 1.21875q-0.171875 0.546875 -0.5 0.984375q-0.328125 0.421875 -0.8125 0.734375q-0.484375 0.3125 -1.09375 0.515625q0.296875 0.140625 0.546875 0.34375q0.265625 0.203125 0.5 0.5q0.234375 0.296875 0.4375 0.671875q0.203125 0.375 0.40625 0.84375l1.109375 2.609375q0.15625 0.390625 0.203125 0.578125q0.0625 0.171875 0.0625 0.28125zm-3.484375 -9.015625q0 -0.65625 -0.296875 -1.09375q-0.296875 -0.453125 -0.96875 -0.640625q-0.203125 -0.046875 -0.46875 -0.078125q-0.265625 -0.03125 -0.71875 -0.03125l-1.21875 0l0 3.765625l1.375 0q0.578125 0 1.0 -0.140625q0.4375 -0.140625 0.71875 -0.390625q0.296875 -0.25 0.4375 -0.59375q0.140625 -0.359375 0.140625 -0.796875z" fill-rule="nonzero"></path><path fill="#000000" fill-opacity="0.0" d="m116.27034 137.92389l48.362213 0" fill-rule="nonzero"></path><path stroke="#000000" stroke-width="2.0" stroke-linejoin="round" stroke-linecap="butt" d="m116.27034 137.92389l36.362213 0" fill-rule="evenodd"></path><path fill="#000000" stroke="#000000" stroke-width="2.0" stroke-linecap="butt" d="m152.63255 141.22736l9.076187 -3.3034668l-9.076187 -3.3034668z" fill-rule="evenodd"></path><path fill="#69d2e7" d="m258.61154 81.86352l0 0c0 -14.811668 12.007233 -26.818897 26.818909 -26.818897l0 0c7.1128235 0 13.934296 2.825554 18.963806 7.855072c5.029541 5.029522 7.855072 11.851009 7.855072 18.963825l0 0c0 14.811668 -12.007202 26.818893 -26.818878 26.818893l0 0c-14.811676 0 -26.818909 -12.007225 -26.818909 -26.818893z" fill-rule="nonzero"></path><path stroke="#000000" stroke-width="2.0" stroke-linejoin="round" stroke-linecap="butt" d="m258.61154 81.86352l0 0c0 -14.811668 12.007233 -26.818897 26.818909 -26.818897l0 0c7.1128235 0 13.934296 2.825554 18.963806 7.855072c5.029541 5.029522 7.855072 11.851009 7.855072 18.963825l0 0c0 14.811668 -12.007202 26.818893 -26.818878 26.818893l0 0c-14.811676 0 -26.818909 -12.007225 -26.818909 -26.818893z" fill-rule="nonzero"></path><path fill="#000000" d="m292.5743 88.45539q0 0.09375 -0.046875 0.171875q-0.046875 0.0625 -0.1875 0.109375q-0.140625 0.046875 -0.359375 0.078125q-0.21875 0.03125 -0.5625 0.03125q-0.328125 0 -0.5625 -0.03125q-0.21875 -0.03125 -0.359375 -0.078125q-0.125 -0.046875 -0.1875 -0.109375q-0.046875 -0.078125 -0.046875 -0.171875l0 -9.78125l-0.015625 0l-3.484375 9.765625q-0.03125 0.125 -0.125 0.203125q-0.078125 0.078125 -0.21875 0.125q-0.140625 0.046875 -0.375 0.0625q-0.21875 0.015625 -0.53125 0.015625q-0.3125 0 -0.53125 -0.03125q-0.21875 -0.015625 -0.375 -0.0625q-0.140625 -0.0625 -0.234375 -0.125q-0.078125 -0.078125 -0.09375 -0.1875l-3.359375 -9.765625l-0.015625 0l0 9.78125q0 0.09375 -0.0625 0.171875q-0.046875 0.0625 -0.1875 0.109375q-0.140625 0.046875 -0.359375 0.078125q-0.21875 0.03125 -0.5625 0.03125q-0.328125 0 -0.5625 -0.03125q-0.21875 -0.03125 -0.359375 -0.078125q-0.125 -0.046875 -0.171875 -0.109375q-0.046875 -0.078125 -0.046875 -0.171875l0 -10.703125q0 -0.46875 0.25 -0.71875q0.25 -0.25 0.671875 -0.25l1.59375 0q0.421875 0 0.71875 0.078125q0.3125 0.0625 0.53125 0.21875q0.234375 0.15625 0.375 0.421875q0.15625 0.265625 0.265625 0.65625l2.59375 7.15625l0.03125 0l2.703125 -7.140625q0.109375 -0.390625 0.25 -0.65625q0.15625 -0.265625 0.34375 -0.421875q0.1875 -0.171875 0.4375 -0.234375q0.265625 -0.078125 0.609375 -0.078125l1.640625 0q0.25 0 0.4375 0.0625q0.1875 0.0625 0.296875 0.1875q0.109375 0.125 0.171875 0.3125q0.0625 0.171875 0.0625 0.40625l0 10.703125z" fill-rule="nonzero"></path><path fill="#a7dbd8" d="m360.61154 81.86352l0 0c0 -14.811668 12.007233 -26.818897 26.818909 -26.818897l0 0c7.1128235 0 13.934296 2.825554 18.963806 7.855072c5.029541 5.029522 7.855072 11.851009 7.855072 18.963825l0 0c0 14.811668 -12.007202 26.818893 -26.818878 26.818893l0 0c-14.811676 0 -26.818909 -12.007225 -26.818909 -26.818893z" fill-rule="nonzero"></path><path stroke="#000000" stroke-width="2.0" stroke-linejoin="round" stroke-linecap="butt" d="m360.61154 81.86352l0 0c0 -14.811668 12.007233 -26.818897 26.818909 -26.818897l0 0c7.1128235 0 13.934296 2.825554 18.963806 7.855072c5.029541 5.029522 7.855072 11.851009 7.855072 18.963825l0 0c0 14.811668 -12.007202 26.818893 -26.818878 26.818893l0 0c-14.811676 0 -26.818909 -12.007225 -26.818909 -26.818893z" fill-rule="nonzero"></path><path fill="#000000" d="m392.72357 88.99977q0 0.109375 -0.046875 0.1875q-0.046875 0.078125 -0.203125 0.125q-0.140625 0.046875 -0.4375 0.0625q-0.296875 0.03125 -0.8125 0.03125q-0.4375 0 -0.703125 -0.03125q-0.25 -0.015625 -0.40625 -0.0625q-0.140625 -0.0625 -0.203125 -0.140625q-0.0625 -0.09375 -0.09375 -0.21875l-1.1875 -2.96875q-0.21875 -0.5 -0.421875 -0.890625q-0.203125 -0.390625 -0.453125 -0.640625q-0.25 -0.265625 -0.578125 -0.390625q-0.328125 -0.140625 -0.765625 -0.140625l-0.84375 0l0 5.046875q0 0.109375 -0.0625 0.1875q-0.0625 0.078125 -0.21875 0.140625q-0.15625 0.046875 -0.421875 0.078125q-0.25 0.03125 -0.640625 0.03125q-0.390625 0 -0.65625 -0.03125q-0.265625 -0.03125 -0.421875 -0.078125q-0.15625 -0.0625 -0.21875 -0.140625q-0.046875 -0.078125 -0.046875 -0.1875l0 -12.046875q0 -0.453125 0.21875 -0.640625q0.234375 -0.203125 0.578125 -0.203125l3.4375 0q0.515625 0 0.84375 0.015625q0.34375 0.015625 0.625 0.046875q0.796875 0.125 1.4375 0.40625q0.640625 0.265625 1.078125 0.71875q0.453125 0.4375 0.6875 1.046875q0.25 0.609375 0.25 1.40625q0 0.65625 -0.171875 1.21875q-0.171875 0.546875 -0.5 0.984375q-0.328125 0.421875 -0.8125 0.734375q-0.484375 0.3125 -1.09375 0.515625q0.296875 0.140625 0.546875 0.34375q0.265625 0.203125 0.5 0.5q0.234375 0.296875 0.4375 0.671875q0.203125 0.375 0.40625 0.84375l1.109375 2.609375q0.15625 0.390625 0.203125 0.578125q0.0625 0.171875 0.0625 0.28125zm-3.484375 -9.015625q0 -0.65625 -0.296875 -1.09375q-0.296875 -0.453125 -0.96875 -0.640625q-0.203125 -0.046875 -0.46875 -0.078125q-0.265625 -0.03125 -0.71875 -0.03125l-1.21875 0l0 3.765625l1.375 0q0.578125 0 1.0 -0.140625q0.4375 -0.140625 0.71875 -0.390625q0.296875 -0.25 0.4375 -0.59375q0.140625 -0.359375 0.140625 -0.796875z" fill-rule="nonzero"></path><path fill="#f3b33f" d="m462.61154 123.64042l0 0c0 -14.811668 12.007233 -26.818893 26.818909 -26.818893l0 0c7.1128235 0 13.934296 2.825554 18.963806 7.855072c5.0295105 5.029518 7.855072 11.851006 7.855072 18.963821l0 0c0 14.811668 -12.007202 26.818901 -26.818878 26.818901l0 0c-14.811676 0 -26.818909 -12.007233 -26.818909 -26.818901z" fill-rule="nonzero"></path><path stroke="#000000" stroke-width="2.0" stroke-linejoin="round" stroke-linecap="butt" d="m462.61154 123.64042l0 0c0 -14.811668 12.007233 -26.818893 26.818909 -26.818893l0 0c7.1128235 0 13.934296 2.825554 18.963806 7.855072c5.0295105 5.029518 7.855072 11.851006 7.855072 18.963821l0 0c0 14.811668 -12.007202 26.818901 -26.818878 26.818901l0 0c-14.811676 0 -26.818909 -12.007233 -26.818909 -26.818901z" fill-rule="nonzero"></path><path fill="#000000" d="m491.4313 127.43292q0 0.890625 -0.171875 1.625q-0.171875 0.71875 -0.578125 1.234375q-0.40625 0.5 -1.0625 0.765625q-0.65625 0.265625 -1.609375 0.265625q-0.3125 0 -0.625 -0.046875q-0.296875 -0.046875 -0.546875 -0.125q-0.25 -0.0625 -0.4375 -0.140625q-0.1875 -0.078125 -0.25 -0.140625q-0.0625 -0.078125 -0.109375 -0.140625q-0.03125 -0.078125 -0.0625 -0.1875q-0.03125 -0.125 -0.046875 -0.296875q0 -0.1875 0 -0.453125q0 -0.34375 0.015625 -0.578125q0.015625 -0.25 0.046875 -0.390625q0.046875 -0.140625 0.109375 -0.1875q0.0625 -0.0625 0.171875 -0.0625q0.09375 0 0.203125 0.078125q0.125 0.0625 0.28125 0.140625q0.15625 0.0625 0.359375 0.125q0.203125 0.0625 0.484375 0.0625q0.28125 0 0.484375 -0.0625q0.21875 -0.078125 0.34375 -0.265625q0.140625 -0.203125 0.203125 -0.515625q0.078125 -0.3125 0.078125 -0.8125l0 -9.125q0 -0.09375 0.0625 -0.171875q0.078125 -0.078125 0.21875 -0.125q0.15625 -0.0625 0.421875 -0.078125q0.265625 -0.03125 0.65625 -0.03125q0.390625 0 0.640625 0.03125q0.265625 0.015625 0.421875 0.078125q0.15625 0.046875 0.21875 0.125q0.078125 0.078125 0.078125 0.171875l0 9.234375z" fill-rule="nonzero"></path><path fill="#69d2e7" d="m360.61154 158.18242l0 0c0 -14.811676 12.007233 -26.818909 26.818909 -26.818909l0 0c7.1128235 0 13.934296 2.8255615 18.963806 7.8550873c5.029541 5.0295105 7.855072 11.850998 7.855072 18.963821l0 0c0 14.811661 -12.007202 26.818893 -26.818878 26.818893l0 0c-14.811676 0 -26.818909 -12.007233 -26.818909 -26.818893z" fill-rule="nonzero"></path><path stroke="#000000" stroke-width="2.0" stroke-linejoin="round" stroke-linecap="butt" d="m360.61154 158.18242l0 0c0 -14.811676 12.007233 -26.818909 26.818909 -26.818909l0 0c7.1128235 0 13.934296 2.8255615 18.963806 7.8550873c5.029541 5.0295105 7.855072 11.850998 7.855072 18.963821l0 0c0 14.811661 -12.007202 26.818893 -26.818878 26.818893l0 0c-14.811676 0 -26.818909 -12.007233 -26.818909 -26.818893z" fill-rule="nonzero"></path><path fill="#000000" d="m394.5743 164.77429q0 0.09375 -0.046875 0.171875q-0.046875 0.0625 -0.1875 0.109375q-0.140625 0.046875 -0.359375 0.078125q-0.21875 0.03125 -0.5625 0.03125q-0.328125 0 -0.5625 -0.03125q-0.21875 -0.03125 -0.359375 -0.078125q-0.125 -0.046875 -0.1875 -0.109375q-0.046875 -0.078125 -0.046875 -0.171875l0 -9.78125l-0.015625 0l-3.484375 9.765625q-0.03125 0.125 -0.125 0.203125q-0.078125 0.078125 -0.21875 0.125q-0.140625 0.046875 -0.375 0.0625q-0.21875 0.015625 -0.53125 0.015625q-0.3125 0 -0.53125 -0.03125q-0.21875 -0.015625 -0.375 -0.0625q-0.140625 -0.0625 -0.234375 -0.125q-0.078125 -0.078125 -0.09375 -0.1875l-3.359375 -9.765625l-0.015625 0l0 9.78125q0 0.09375 -0.0625 0.171875q-0.046875 0.0625 -0.1875 0.109375q-0.140625 0.046875 -0.359375 0.078125q-0.21875 0.03125 -0.5625 0.03125q-0.328125 0 -0.5625 -0.03125q-0.21875 -0.03125 -0.359375 -0.078125q-0.125 -0.046875 -0.171875 -0.109375q-0.046875 -0.078125 -0.046875 -0.171875l0 -10.703125q0 -0.46875 0.25 -0.71875q0.25 -0.25 0.671875 -0.25l1.59375 0q0.421875 0 0.71875 0.078125q0.3125 0.0625 0.53125 0.21875q0.234375 0.15625 0.375 0.421875q0.15625 0.265625 0.265625 0.65625l2.59375 7.15625l0.03125 0l2.703125 -7.140625q0.109375 -0.390625 0.25 -0.65625q0.15625 -0.265625 0.34375 -0.421875q0.1875 -0.171875 0.4375 -0.234375q0.265625 -0.078125 0.609375 -0.078125l1.640625 0q0.25 0 0.4375 0.0625q0.1875 0.0625 0.296875 0.1875q0.109375 0.125 0.171875 0.3125q0.0625 0.171875 0.0625 0.40625l0 10.703125z" fill-rule="nonzero"></path><path fill="#000000" fill-opacity="0.0" d="m414.24933 81.86352l48.362213 41.7769" fill-rule="nonzero"></path><path stroke="#000000" stroke-width="2.0" stroke-linejoin="round" stroke-linecap="butt" d="m414.24933 81.86352l39.28122 33.932434" fill-rule="evenodd"></path><path fill="#000000" stroke="#000000" stroke-width="2.0" stroke-linecap="butt" d="m451.37106 118.29585l9.027893 3.433258l-4.708893 -8.433052z" fill-rule="evenodd"></path><path fill="#000000" fill-opacity="0.0" d="m414.24933 158.18242l48.362213 -34.542" fill-rule="nonzero"></path><path stroke="#000000" stroke-width="2.0" stroke-linejoin="round" stroke-linecap="butt" d="m414.24933 158.18242l38.597168 -27.56746" fill-rule="evenodd"></path><path fill="#000000" stroke="#000000" stroke-width="2.0" stroke-linecap="butt" d="m454.7665 133.30316l5.46579 -7.963394l-9.305786 2.5869827z" fill-rule="evenodd"></path><path fill="#a7dbd8" d="m564.6116 123.64042l0 0c0 -14.811668 12.007202 -26.818893 26.818848 -26.818893l0 0c7.112854 0 13.934326 2.825554 18.963867 7.855072c5.02948 5.029518 7.8550415 11.851006 7.8550415 18.963821l0 0c0 14.811668 -12.007202 26.818901 -26.818909 26.818901l0 0c-14.8116455 0 -26.818848 -12.007233 -26.818848 -26.818901z" fill-rule="nonzero"></path><path stroke="#000000" stroke-width="2.0" stroke-linejoin="round" stroke-linecap="butt" d="m564.6116 123.64042l0 0c0 -14.811668 12.007202 -26.818893 26.818848 -26.818893l0 0c7.112854 0 13.934326 2.825554 18.963867 7.855072c5.02948 5.029518 7.8550415 11.851006 7.8550415 18.963821l0 0c0 14.811668 -12.007202 26.818901 -26.818909 26.818901l0 0c-14.8116455 0 -26.818848 -12.007233 -26.818848 -26.818901z" fill-rule="nonzero"></path><path fill="#000000" d="m596.7236 130.77667q0 0.109375 -0.046875 0.1875q-0.046875 0.078125 -0.203125 0.125q-0.140625 0.046875 -0.4375 0.0625q-0.296875 0.03125 -0.8125 0.03125q-0.4375 0 -0.703125 -0.03125q-0.25 -0.015625 -0.40625 -0.0625q-0.140625 -0.0625 -0.203125 -0.140625q-0.0625 -0.09375 -0.09375 -0.21875l-1.1875 -2.96875q-0.21875 -0.5 -0.421875 -0.890625q-0.203125 -0.390625 -0.453125 -0.640625q-0.25 -0.265625 -0.578125 -0.390625q-0.328125 -0.140625 -0.765625 -0.140625l-0.84375 0l0 5.046875q0 0.109375 -0.0625 0.1875q-0.0625 0.078125 -0.21875 0.140625q-0.15625 0.046875 -0.421875 0.078125q-0.25 0.03125 -0.640625 0.03125q-0.390625 0 -0.65625 -0.03125q-0.265625 -0.03125 -0.421875 -0.078125q-0.15625 -0.0625 -0.21875 -0.140625q-0.046875 -0.078125 -0.046875 -0.1875l0 -12.046875q0 -0.453125 0.21875 -0.640625q0.234375 -0.203125 0.578125 -0.203125l3.4375 0q0.515625 0 0.84375 0.015625q0.34375 0.015625 0.625 0.046875q0.796875 0.125 1.4375 0.40625q0.640625 0.265625 1.078125 0.71875q0.453125 0.4375 0.6875 1.046875q0.25 0.609375 0.25 1.40625q0 0.65625 -0.171875 1.21875q-0.171875 0.546875 -0.5 0.984375q-0.328125 0.421875 -0.8125 0.734375q-0.484375 0.3125 -1.09375 0.515625q0.296875 0.140625 0.546875 0.34375q0.265625 0.203125 0.5 0.5q0.234375 0.296875 0.4375 0.671875q0.203125 0.375 0.40625 0.84375l1.109375 2.609375q0.15625 0.390625 0.203125 0.578125q0.0625 0.171875 0.0625 0.28125zm-3.484375 -9.015625q0 -0.65625 -0.296875 -1.09375q-0.296875 -0.453125 -0.96875 -0.640625q-0.203125 -0.046875 -0.46875 -0.078125q-0.265625 -0.03125 -0.71875 -0.03125l-1.21875 0l0 3.765625l1.375 0q0.578125 0 1.0 -0.140625q0.4375 -0.140625 0.71875 -0.390625q0.296875 -0.25 0.4375 -0.59375q0.140625 -0.359375 0.140625 -0.796875z" fill-rule="nonzero"></path><path fill="#000000" fill-opacity="0.0" d="m516.2493 123.64042l48.362244 0" fill-rule="nonzero"></path><path stroke="#000000" stroke-width="2.0" stroke-linejoin="round" stroke-linecap="butt" d="m516.2493 123.64042l36.362244 0" fill-rule="evenodd"></path><path fill="#000000" stroke="#000000" stroke-width="2.0" stroke-linecap="butt" d="m552.6116 126.943886l9.076172 -3.3034668l-9.076172 -3.3034668z" fill-rule="evenodd"></path><path fill="#a7dbd8" d="m658.5906 123.64042l0 0c0 -14.811668 12.007202 -26.818893 26.818848 -26.818893l0 0c7.112854 0 13.934326 2.825554 18.963867 7.855072c5.02948 5.029518 7.8550415 11.851006 7.8550415 18.963821l0 0c0 14.811668 -12.007202 26.818901 -26.818909 26.818901l0 0c-14.8116455 0 -26.818848 -12.007233 -26.818848 -26.818901z" fill-rule="nonzero"></path><path stroke="#000000" stroke-width="2.0" stroke-linejoin="round" stroke-linecap="butt" d="m658.5906 123.64042l0 0c0 -14.811668 12.007202 -26.818893 26.818848 -26.818893l0 0c7.112854 0 13.934326 2.825554 18.963867 7.855072c5.02948 5.029518 7.8550415 11.851006 7.8550415 18.963821l0 0c0 14.811668 -12.007202 26.818901 -26.818909 26.818901l0 0c-14.8116455 0 -26.818848 -12.007233 -26.818848 -26.818901z" fill-rule="nonzero"></path><path fill="#000000" d="m690.7026 130.77667q0 0.109375 -0.046875 0.1875q-0.046875 0.078125 -0.203125 0.125q-0.140625 0.046875 -0.4375 0.0625q-0.296875 0.03125 -0.8125 0.03125q-0.4375 0 -0.703125 -0.03125q-0.25 -0.015625 -0.40625 -0.0625q-0.140625 -0.0625 -0.203125 -0.140625q-0.0625 -0.09375 -0.09375 -0.21875l-1.1875 -2.96875q-0.21875 -0.5 -0.421875 -0.890625q-0.203125 -0.390625 -0.453125 -0.640625q-0.25 -0.265625 -0.578125 -0.390625q-0.328125 -0.140625 -0.765625 -0.140625l-0.84375 0l0 5.046875q0 0.109375 -0.0625 0.1875q-0.0625 0.078125 -0.21875 0.140625q-0.15625 0.046875 -0.421875 0.078125q-0.25 0.03125 -0.640625 0.03125q-0.390625 0 -0.65625 -0.03125q-0.265625 -0.03125 -0.421875 -0.078125q-0.15625 -0.0625 -0.21875 -0.140625q-0.046875 -0.078125 -0.046875 -0.1875l0 -12.046875q0 -0.453125 0.21875 -0.640625q0.234375 -0.203125 0.578125 -0.203125l3.4375 0q0.515625 0 0.84375 0.015625q0.34375 0.015625 0.625 0.046875q0.796875 0.125 1.4375 0.40625q0.640625 0.265625 1.078125 0.71875q0.453125 0.4375 0.6875 1.046875q0.25 0.609375 0.25 1.40625q0 0.65625 -0.171875 1.21875q-0.171875 0.546875 -0.5 0.984375q-0.328125 0.421875 -0.8125 0.734375q-0.484375 0.3125 -1.09375 0.515625q0.296875 0.140625 0.546875 0.34375q0.265625 0.203125 0.5 0.5q0.234375 0.296875 0.4375 0.671875q0.203125 0.375 0.40625 0.84375l1.109375 2.609375q0.15625 0.390625 0.203125 0.578125q0.0625 0.171875 0.0625 0.28125zm-3.484375 -9.015625q0 -0.65625 -0.296875 -1.09375q-0.296875 -0.453125 -0.96875 -0.640625q-0.203125 -0.046875 -0.46875 -0.078125q-0.265625 -0.03125 -0.71875 -0.03125l-1.21875 0l0 3.765625l1.375 0q0.578125 0 1.0 -0.140625q0.4375 -0.140625 0.71875 -0.390625q0.296875 -0.25 0.4375 -0.59375q0.140625 -0.359375 0.140625 -0.796875z" fill-rule="nonzero"></path><path fill="#000000" fill-opacity="0.0" d="m618.2493 123.64042l40.341248 0" fill-rule="nonzero"></path><path stroke="#000000" stroke-width="2.0" stroke-linejoin="round" stroke-linecap="butt" d="m618.2493 123.64042l28.341248 0" fill-rule="evenodd"></path><path fill="#000000" stroke="#000000" stroke-width="2.0" stroke-linecap="butt" d="m646.5906 126.943886l9.076172 -3.3034668l-9.076172 -3.3034668z" fill-rule="evenodd"></path><path fill="#000000" fill-opacity="0.0" d="m591.4304 96.821526l0 -30.362206" fill-rule="nonzero"></path><path stroke="#000000" stroke-width="2.0" stroke-linejoin="round" stroke-linecap="butt" d="m591.4304 96.821526l0 -30.362206" fill-rule="nonzero"></path><path fill="#000000" fill-opacity="0.0" d="m489.6824 67.215225l-0.25195312 29.6063" fill-rule="nonzero"></path><path stroke="#000000" stroke-width="2.0" stroke-linejoin="round" stroke-linecap="butt" d="m489.6824 67.215225l-0.14984131 17.606735" fill-rule="evenodd"></path><path fill="#000000" stroke="#000000" stroke-width="2.0" stroke-linecap="butt" d="m486.22922 84.793846l3.2261047 9.103981l3.3805847 -9.04776z" fill-rule="evenodd"></path><path fill="#000000" fill-opacity="0.0" d="m592.1706 67.98688l-103.49606 0" fill-rule="nonzero"></path><path stroke="#000000" stroke-width="2.0" stroke-linejoin="round" stroke-linecap="butt" d="m592.1706 67.98688l-103.49606 0" fill-rule="nonzero"></path></g></svg>

