<?xml version="1.0" encoding="UTF-8" standalone="no"?>
<!-- Created with Inkscape (http://www.inkscape.org/) -->

<svg
   xmlns:dc="http://purl.org/dc/elements/1.1/"
   xmlns:cc="http://creativecommons.org/ns#"
   xmlns:rdf="http://www.w3.org/1999/02/22-rdf-syntax-ns#"
   xmlns:svg="http://www.w3.org/2000/svg"
   xmlns="http://www.w3.org/2000/svg"
   version="1.1"
   width="100%"
   height="100%"
   viewBox="0 0 800 220.24832"
   id="svg3590"
   style="fill:none;stroke:none">
  <metadata
     id="metadata3711">
    <rdf:RDF>
      <cc:Work
         rdf:about="">
        <dc:format>image/svg+xml</dc:format>
        <dc:type
           rdf:resource="http://purl.org/dc/dcmitype/StillImage" />
        <dc:title></dc:title>
      </cc:Work>
    </rdf:RDF>
  </metadata>
  <defs
     id="defs3709" />
  <clipPath
     id="p.0">
    <path
       d="M 0,0 800,0 800,307 0,307 0,0 z"
       id="path3593" />
  </clipPath>
  <g
     id="g5291">
    <path
       d="m 140.57918,187.48381 0,0 c 0,-17.53588 14.21733,-31.75178 31.75524,-31.75178 l 0,0 c 8.4221,0 16.49927,3.34534 22.45448,9.29997 5.95533,5.95455 9.30097,14.0309 9.30097,22.45181 l 0,0 c 0,17.53599 -14.21718,31.75172 -31.75545,31.75172 l 0,0 c -17.53791,0 -31.75524,-14.21573 -31.75524,-31.75172 z"
       id="path3599"
       style="fill:#69d2e7;fill-rule:nonzero" />
    <path
       d="m 140.57918,187.48383 0,0 c 0,-17.53594 14.21734,-31.75176 31.7553,-31.75176 l 0,0 c 8.42204,0 16.4992,3.34526 22.45444,9.2999 5.95532,5.95456 9.30097,14.03083 9.30097,22.45186 l 0,0 c 0,17.536 -14.21719,31.7517 -31.75541,31.7517 l 0,0 c -17.53796,0 -31.7553,-14.2157 -31.7553,-31.7517 z"
       id="path3601"
       style="stroke:#000000;stroke-width:1.99999988;stroke-linecap:butt;stroke-linejoin:round" />
    <path
       d="m 181.67193,195.50503 q 0,0.12173 -0.0609,0.22236 -0.0613,0.0809 -0.24272,0.14143 -0.18196,0.0612 -0.46509,0.10055 -0.28308,0.041 -0.72792,0.041 -0.42467,0 -0.7279,-0.041 -0.28314,-0.0403 -0.46507,-0.10055 -0.16186,-0.0603 -0.24276,-0.14143 -0.0609,-0.10189 -0.0609,-0.22236 l 0,-12.64841 -0.0228,0 -4.50938,12.62825 q -0.041,0.16174 -0.16167,0.26255 -0.1016,0.10145 -0.28316,0.1618 -0.18195,0.0609 -0.48528,0.0806 -0.28313,0.0231 -0.68752,0.0231 -0.40451,0 -0.68764,-0.0413 -0.28304,-0.023 -0.48513,-0.0812 -0.18206,-0.0812 -0.30335,-0.16176 -0.10174,-0.1016 -0.12159,-0.24247 l -4.34757,-12.62829 -0.0213,0 0,12.64828 q 0,0.12188 -0.081,0.22248 -0.0613,0.081 -0.2427,0.14157 -0.18203,0.0609 -0.46517,0.10055 -0.28306,0.0409 -0.72794,0.0409 -0.42458,0 -0.72787,-0.0409 -0.28315,-0.0401 -0.46516,-0.10055 -0.16184,-0.061 -0.22244,-0.14157 -0.0616,-0.1016 -0.0616,-0.22248 l 0,-13.84038 q 0,-0.60629 0.32363,-0.92947 0.32349,-0.32343 0.86939,-0.32343 l 2.06258,0 q 0.54605,0 0.93021,0.101 0.4044,0.0813 0.68755,0.28239 0.30327,0.20252 0.48538,0.546 0.20216,0.34331 0.34372,0.84866 l 3.35675,9.25388 0.0415,0 3.49822,-9.23365 q 0.14157,-0.50517 0.32354,-0.84857 0.20216,-0.34354 0.44485,-0.54567 0.2427,-0.22235 0.56618,-0.30304 0.34378,-0.101 0.78875,-0.101 l 2.12319,0 q 0.32359,0 0.56634,0.0815 0.2425,0.0812 0.38411,0.24245 0.14143,0.16182 0.22242,0.40414 0.0815,0.22244 0.0815,0.52536 l 0,13.8404 z"
       id="path3603"
       style="fill:#000000;fill-rule:nonzero" />
    <path
       d="m 85.999993,161.47411 0,0 c 0,3.17153 10.292063,5.74253 22.987957,5.74253 12.69591,0 22.98799,-2.57099 22.98799,-5.74253 l 0,52.01871 c 0,3.17135 -10.29208,5.74233 -22.98799,5.74233 -12.695894,0 -22.987957,-2.57097 -22.987957,-5.74233 z"
       id="path3605"
       style="fill:#cccccc;fill-rule:nonzero" />
    <path
       d="m 85.999993,161.47411 0,0 c 0,-3.17142 10.292063,-5.74244 22.987957,-5.74244 12.69591,0 22.98799,2.57102 22.98799,5.74244 l 0,0 c 0,3.17153 -10.29208,5.74253 -22.98799,5.74253 -12.695894,0 -22.987957,-2.57099 -22.987957,-5.74253 z"
       id="path3607"
       style="fill:#e0e0e0;fill-rule:nonzero" />
    <path
       d="m 131.97594,161.47411 0,0 c 0,3.17153 -10.29208,5.74253 -22.98799,5.74253 -12.695894,0 -22.987957,-2.57099 -22.987957,-5.74253 l 0,0 c 0,-3.17142 10.292063,-5.74244 22.987957,-5.74244 12.69591,0 22.98799,2.57102 22.98799,5.74244 l 0,52.01871 c 0,3.17135 -10.29208,5.74233 -22.98799,5.74233 -12.695894,0 -22.987957,-2.57097 -22.987957,-5.74233 l 0,-52.01871"
       id="path3609"
       style="fill:#000000;fill-opacity:0;fill-rule:nonzero" />
    <path
       d="m 131.97594,161.47413 0,0 c 0,3.17153 -10.29207,5.74251 -22.98799,5.74251 -12.695894,0 -22.987957,-2.57097 -22.987957,-5.74251 l 0,0 c 0,-3.17142 10.292063,-5.74243 22.987957,-5.74243 12.69592,0 22.98799,2.57101 22.98799,5.74243 l 0,52.01869 c 0,3.17135 -10.29207,5.74233 -22.98799,5.74233 -12.695894,0 -22.987957,-2.57097 -22.987957,-5.74233 l 0,-52.01869"
       id="path3611"
       style="stroke:#666666;stroke-width:1.99999988;stroke-linecap:butt;stroke-linejoin:round" />
    <path
       d="m 668.02398,97.993275 0,0 c 0,3.171455 10.29209,5.742425 22.98804,5.742425 12.69583,0 22.98794,-2.57097 22.98794,-5.742425 l 0,52.018585 c 0,3.17143 -10.29211,5.74246 -22.98794,5.74246 -12.69595,0 -22.98804,-2.57103 -22.98804,-5.74246 z"
       id="path3613"
       style="fill:#cccccc;fill-rule:nonzero" />
    <path
       d="m 668.02398,97.993275 0,0 c 0,-3.17147 10.29209,-5.74249 22.98804,-5.74249 12.69583,0 22.98794,2.57102 22.98794,5.74249 l 0,0 c 0,3.171455 -10.29211,5.742425 -22.98794,5.742425 -12.69595,0 -22.98804,-2.57097 -22.98804,-5.742425 z"
       id="path3615"
       style="fill:#e0e0e0;fill-rule:nonzero" />
    <path
       d="m 713.99997,97.993275 0,0 c 0,3.171455 -10.29212,5.742425 -22.98794,5.742425 -12.69596,0 -22.98805,-2.57097 -22.98805,-5.742425 l 0,0 c 0,-3.17147 10.29209,-5.74249 22.98805,-5.74249 12.69582,0 22.98794,2.57102 22.98794,5.74249 l 0,52.018585 c 0,3.17143 -10.29212,5.74246 -22.98794,5.74246 -12.69596,0 -22.98805,-2.57103 -22.98805,-5.74246 l 0,-52.018585"
       id="path3617"
       style="fill:#000000;fill-opacity:0;fill-rule:nonzero" />
    <path
       d="m 714.00001,97.993285 0,0 c 0,3.171445 -10.29208,5.742395 -22.98797,5.742395 -12.6959,0 -22.98798,-2.57095 -22.98798,-5.742395 l 0,0 c 0,-3.17149 10.29208,-5.74251 22.98798,-5.74251 12.69589,0 22.98797,2.57102 22.98797,5.74251 l 0,52.018575 c 0,3.17145 -10.29208,5.74247 -22.98797,5.74247 -12.6959,0 -22.98798,-2.57102 -22.98798,-5.74247 l 0,-52.018575"
       id="path3619"
       style="stroke:#666666;stroke-width:1.99999988;stroke-linecap:butt;stroke-linejoin:round" />
    <path
       d="m 254.4122,124.0025 0,0 c 0,-17.51934 14.21734,-31.721585 31.75533,-31.721585 l 0,0 c 8.42219,0 16.4991,3.34207 22.45439,9.291065 5.95527,5.94879 9.30093,14.01737 9.30093,22.43052 l 0,0 c 0,17.51944 -14.21733,31.7217 -31.75532,31.7217 l 0,0 c -17.53799,0 -31.75533,-14.20226 -31.75533,-31.7217 z"
       id="path3621"
       style="fill:#e0e4cc;fill-rule:nonzero" />
    <path
       d="m 254.41222,124.00253 0,0 c 0,-17.51936 14.21731,-31.721625 31.75535,-31.721625 l 0,0 c 8.42209,0 16.49909,3.34208 22.45439,9.291075 5.95527,5.94885 9.30094,14.01741 9.30094,22.43055 l 0,0 c 0,17.51944 -14.21739,31.72166 -31.75535,31.72166 l 0,0 c -17.53802,0 -31.75533,-14.20222 -31.75533,-31.72166 z"
       id="path3623"
       style="stroke:#000000;stroke-width:1.99999988;stroke-linecap:butt;stroke-linejoin:round" />
    <path
       d="m 291.74191,129.54635 q 0,0.30253 -0.0205,0.51585 -0.0204,0.19575 -0.0532,0.33803 -0.0355,0.14222 -0.10704,0.24898 -0.0533,0.10665 -0.17817,0.2491 -0.1245,0.1245 -0.49839,0.33791 -0.35592,0.21347 -0.88991,0.40903 -0.53424,0.178 -1.22851,0.3025 -0.6765,0.14235 -1.45971,0.14235 -1.56654,0 -2.81278,-0.48032 -1.24602,-0.48026 -2.13615,-1.42301 -0.87233,-0.96041 -1.33517,-2.38355 -0.46284,-1.42313 -0.46284,-3.30858 0,-1.93882 0.51622,-3.43303 0.51633,-1.49423 1.42429,-2.50809 0.92562,-1.01388 2.2073,-1.52984 1.29955,-0.53358 2.86603,-0.53358 0.62318,0 1.21068,0.1073 0.58744,0.10717 1.06808,0.28454 0.49842,0.16012 0.89017,0.39138 0.40936,0.21354 0.56942,0.37352 0.16036,0.16014 0.21371,0.26669 0.0536,0.0894 0.0897,0.2669 0.036,0.16018 0.0536,0.39134 0.0201,0.21353 0.0201,0.53363 0,0.3559 -0.0201,0.60486 -0.0205,0.23132 -0.0888,0.39131 -0.0536,0.14226 -0.14262,0.21345 -0.0716,0.0717 -0.17789,0.0717 -0.17792,0 -0.44502,-0.19572 -0.26706,-0.21334 -0.69418,-0.46247 -0.42732,-0.249 -1.01475,-0.44466 -0.58749,-0.21348 -1.40643,-0.21348 -0.90786,0 -1.61993,0.37357 -0.69418,0.35558 -1.19267,1.04927 -0.49837,0.67616 -0.76549,1.65446 -0.2493,0.96052 -0.2493,2.17011 0,1.33413 0.26725,2.31242 0.28473,0.97843 0.78294,1.61868 0.51638,0.62261 1.22858,0.92506 0.72974,0.3023 1.61979,0.3023 0.81888,0 1.40654,-0.17787 0.60514,-0.19597 1.03239,-0.42688 0.42723,-0.23124 0.69461,-0.40909 0.28467,-0.19571 0.44474,-0.19571 0.10704,0 0.178,0.0533 0.0718,0.036 0.10678,0.17783 0.0533,0.14235 0.0716,0.39143 0.0367,0.24899 0.0367,0.65814 z"
       id="path3625"
       style="fill:#000000;fill-rule:nonzero" />
    <path
       d="m 140.57918,60.529473 0,0 c 0,-17.536013 14.21733,-31.751746 31.75524,-31.751746 l 0,0 c 8.4221,0 16.49927,3.34526 22.45448,9.299876 5.95533,5.954608 9.30097,14.03079 9.30097,22.45187 l 0,0 c 0,17.536022 -14.21718,31.751702 -31.75545,31.751702 l 0,0 c -17.53791,0 -31.75524,-14.21568 -31.75524,-31.751702 z"
       id="path3627"
       style="fill:#69d2e7;fill-rule:nonzero" />
    <path
       d="m 140.57918,60.529473 0,0 c 0,-17.536008 14.21734,-31.751747 31.7553,-31.751747 l 0,0 c 8.42204,0 16.4992,3.345265 22.45444,9.299871 5.95532,5.954613 9.30097,14.030788 9.30097,22.451876 l 0,0 c 0,17.536022 -14.21719,31.751732 -31.75541,31.751732 l 0,0 c -17.53796,0 -31.7553,-14.21571 -31.7553,-31.751732 z"
       id="path3629"
       style="stroke:#000000;stroke-width:1.99999988;stroke-linecap:butt;stroke-linejoin:round" />
    <path
       d="m 180.61255,68.551595 q 0,0.121178 -0.0608,0.222249 -0.0614,0.08086 -0.24274,0.141438 -0.18197,0.06042 -0.46511,0.101155 -0.2831,0.04043 -0.72798,0.04043 -0.4247,0 -0.72796,-0.04043 -0.28315,-0.04043 -0.46511,-0.101155 -0.16186,-0.06057 -0.24276,-0.141438 -0.061,-0.101006 -0.061,-0.222249 l 0,-12.649464 -0.0228,0 -4.5097,12.629242 q -0.041,0.161666 -0.16169,0.262672 -0.10165,0.101155 -0.28318,0.161669 -0.18195,0.06057 -0.48532,0.08071 -0.28314,0.02014 -0.68757,0.02014 -0.40452,0 -0.68768,-0.04043 -0.28305,-0.02014 -0.48516,-0.08086 -0.18209,-0.08072 -0.30338,-0.161669 -0.10174,-0.101006 -0.12166,-0.242467 l -4.34777,-12.629255 -0.0214,0 0,12.649472 q 0,0.121222 -0.081,0.22225 -0.0614,0.08087 -0.24272,0.141438 -0.18204,0.06057 -0.46519,0.101155 -0.28309,0.04043 -0.72799,0.04043 -0.42462,0 -0.72796,-0.04043 -0.28315,-0.04028 -0.46518,-0.101155 -0.16183,-0.06057 -0.22243,-0.141438 -0.0616,-0.101006 -0.0616,-0.22225 l 0,-13.841679 q 0,-0.606188 0.32364,-0.929514 0.3236,-0.323293 0.86953,-0.323293 l 2.06273,0 q 0.54608,0 0.93026,0.101021 0.40446,0.08073 0.68763,0.282899 0.30329,0.202069 0.4854,0.545581 0.20218,0.343512 0.34375,0.848696 l 3.357,9.25472 0.0414,0 3.49842,-9.234528 q 0.14156,-0.505163 0.32356,-0.848686 0.20219,-0.343509 0.44488,-0.545572 0.24276,-0.222274 0.56624,-0.30311 0.34384,-0.101021 0.7888,-0.101021 l 2.12335,0 q 0.32365,0 0.56633,0.08076 0.24255,0.08082 0.38418,0.242481 0.14154,0.161639 0.22242,0.404133 0.0818,0.222285 0.0818,0.525371 l 0,13.84168 z"
       id="path3631"
       style="fill:#000000;fill-rule:nonzero" />
    <path
       d="m 85.999993,34.519824 0,0 c 0,3.171472 10.292063,5.742473 22.987957,5.742473 12.69591,0 22.98799,-2.571001 22.98799,-5.742473 l 0,52.018591 c 0,3.17148 -10.29208,5.74245 -22.98799,5.74245 -12.695894,0 -22.987957,-2.57097 -22.987957,-5.74245 z"
       id="path3633"
       style="fill:#cccccc;fill-rule:nonzero" />
    <path
       d="m 85.999993,34.519824 0,0 c 0,-3.171473 10.292063,-5.742458 22.987957,-5.742458 12.69591,0 22.98799,2.570985 22.98799,5.742458 l 0,0 c 0,3.171472 -10.29208,5.742473 -22.98799,5.742473 -12.695894,0 -22.987957,-2.571001 -22.987957,-5.742473 z"
       id="path3635"
       style="fill:#e0e0e0;fill-rule:nonzero" />
    <path
       d="m 131.97594,34.519824 0,0 c 0,3.171472 -10.29208,5.742473 -22.98799,5.742473 -12.695894,0 -22.987957,-2.571001 -22.987957,-5.742473 l 0,0 c 0,-3.171473 10.292063,-5.742458 22.987957,-5.742458 12.69591,0 22.98799,2.570985 22.98799,5.742458 l 0,52.018591 c 0,3.17148 -10.29208,5.74245 -22.98799,5.74245 -12.695894,0 -22.987957,-2.57097 -22.987957,-5.74245 l 0,-52.018591"
       id="path3637"
       style="fill:#000000;fill-opacity:0;fill-rule:nonzero" />
    <path
       d="m 131.97594,34.519826 0,0 c 0,3.17147 -10.29207,5.742469 -22.98799,5.742469 -12.695894,0 -22.987957,-2.570999 -22.987957,-5.742469 l 0,0 c 0,-3.171474 10.292063,-5.742461 22.987957,-5.742461 12.69592,0 22.98799,2.570987 22.98799,5.742461 l 0,52.018599 c 0,3.17148 -10.29207,5.74244 -22.98799,5.74244 -12.695894,0 -22.987957,-2.57096 -22.987957,-5.74244 l 0,-52.018599"
       id="path3639"
       style="stroke:#666666;stroke-width:1.99999988;stroke-linecap:butt;stroke-linejoin:round" />
    <path
       d="m 368.24627,124.00183 0,0 c 0,-17.53588 14.21728,-31.751605 31.75547,-31.751605 l 0,0 c 8.42197,0 16.49895,3.34526 22.45428,9.299835 5.95528,5.95468 9.30089,14.03087 9.30089,22.45177 l 0,0 c 0,17.53616 -14.21733,31.75194 -31.75517,31.75194 l 0,0 c -17.53819,0 -31.75547,-14.21578 -31.75547,-31.75194 z"
       id="path3641"
       style="fill:#a7dbd8;fill-rule:nonzero" />
    <path
       d="m 368.24627,124.0019 0,0 c 0,-17.53593 14.21735,-31.751675 31.75544,-31.751675 l 0,0 c 8.422,0 16.49901,3.34526 22.45431,9.299845 5.9553,5.95467 9.30092,14.03085 9.30092,22.45183 l 0,0 c 0,17.53613 -14.21728,31.75183 -31.75523,31.75183 l 0,0 c -17.53809,0 -31.75544,-14.21569 -31.75544,-31.75183 z"
       id="path3643"
       style="stroke:#000000;stroke-width:1.99999988;stroke-linecap:butt;stroke-linejoin:round" />
    <path
       d="m 405.46305,131.12467 q 0,0.12813 -0.0551,0.21953 -0.0556,0.0924 -0.23814,0.14627 -0.16465,0.0548 -0.51248,0.0735 -0.34774,0.0367 -0.9516,0.0367 -0.51245,0 -0.82355,-0.0367 -0.29284,-0.0208 -0.4759,-0.0735 -0.16466,-0.0735 -0.23791,-0.16481 -0.0737,-0.10964 -0.11058,-0.25577 l -1.39074,-3.47457 q -0.25629,-0.58516 -0.49425,-1.04229 -0.23779,-0.45725 -0.53062,-0.74979 -0.29286,-0.31095 -0.67735,-0.45722 -0.38444,-0.16451 -0.89661,-0.16451 l -0.98832,0 0,5.9067 q 0,0.128 -0.0735,0.21938 -0.0745,0.0919 -0.25636,0.16465 -0.18295,0.0548 -0.49412,0.0917 -0.29285,0.0374 -0.75033,0.0374 -0.45762,0 -0.76875,-0.0374 -0.31126,-0.0365 -0.49406,-0.0917 -0.18302,-0.0733 -0.2562,-0.16465 -0.0551,-0.091 -0.0551,-0.21938 l 0,-14.09938 q 0,-0.53034 0.2562,-0.74975 0.2746,-0.23776 0.67715,-0.23776 l 4.02638,0 q 0.60396,0 0.98829,0.0207 0.40264,0.0212 0.73214,0.0548 0.9334,0.14624 1.68372,0.4755 0.75029,0.31089 1.26272,0.8412 0.53087,0.51205 0.80524,1.22519 0.29281,0.71323 0.29281,1.64589 0,0.76792 -0.20125,1.42637 -0.2014,0.64 -0.58559,1.1521 -0.38442,0.49371 -0.9517,0.85936 -0.56734,0.36583 -1.28094,0.60348 0.34753,0.1647 0.64034,0.40246 0.31116,0.23765 0.58572,0.58517 0.27443,0.34737 0.51232,0.78629 0.23792,0.43891 0.47596,0.98759 l 1.2993,3.05388 q 0.18308,0.45722 0.23791,0.67667 0.0736,0.20111 0.0736,0.32904 z m -4.08112,-10.55148 q 0,-0.76806 -0.34791,-1.28016 -0.34772,-0.53033 -1.13468,-0.74976 -0.23787,-0.0548 -0.54901,-0.091 -0.31115,-0.037 -0.84185,-0.037 l -1.42751,0 0,4.40722 1.61046,0 q 0.67714,0 1.17138,-0.16458 0.51239,-0.16454 0.84204,-0.45715 0.34755,-0.29263 0.51227,-0.69495 0.16481,-0.42057 0.16481,-0.93261 z"
       id="path3645"
       style="fill:#000000;fill-rule:nonzero" />
    <path
       d="M 194.78892,165.032 254.4122,124.0025"
       id="path3647"
       style="fill:#000000;fill-opacity:0;fill-rule:nonzero" />
    <path
       d="M 194.78893,165.03198 245.83886,129.9025"
       id="path3649"
       style="stroke:#000000;stroke-width:1.99999988;stroke-linecap:butt;stroke-linejoin:round" />
    <path
       d="m 247.46426,132.26057 4.85909,-6.82058 -8.10994,2.10405 z"
       id="path3651"
       style="fill:#000000;fill-rule:evenodd;stroke:#000000;stroke-width:1.99999988;stroke-linecap:butt" />
    <path
       d="M 194.78892,82.981325 254.4122,124.00251"
       id="path3653"
       style="fill:#000000;fill-opacity:0;fill-rule:nonzero" />
    <path
       d="m 194.78893,82.981325 51.04938,35.122485"
       id="path3655"
       style="stroke:#000000;stroke-width:1.99999988;stroke-linecap:butt;stroke-linejoin:round" />
    <path
       d="m 244.2131,120.4621 8.11012,2.10327 -4.8597,-6.82013 z"
       id="path3657"
       style="fill:#000000;fill-rule:evenodd;stroke:#000000;stroke-width:1.99999988;stroke-linecap:butt" />
    <path
       d="m 317.92285,124.0025 50.32342,-6.8e-4"
       id="path3659"
       style="fill:#000000;fill-opacity:0;fill-rule:nonzero" />
    <path
       d="m 317.92291,124.00253 39.91353,-5.2e-4"
       id="path3661"
       style="stroke:#000000;stroke-width:1.99999988;stroke-linecap:butt;stroke-linejoin:round" />
    <path
       d="m 357.83649,126.86556 7.87326,-2.86363 -7.87334,-2.86329 z"
       id="path3663"
       style="fill:#000000;fill-rule:evenodd;stroke:#000000;stroke-width:1.99999988;stroke-linecap:butt" />
    <path
       d="m 482.07751,124.00183 0,0 c 0,-17.53588 14.21747,-31.751605 31.75544,-31.751605 l 0,0 c 8.42202,0 16.49917,3.34526 22.45439,9.299835 5.95539,5.95468 9.30095,14.03087 9.30095,22.45177 l 0,0 c 0,17.53616 -14.21734,31.75194 -31.75534,31.75194 l 0,0 c -17.53797,0 -31.75544,-14.21578 -31.75544,-31.75194 z"
       id="path3665"
       style="fill:#a7dbd8;fill-rule:nonzero" />
    <path
       d="m 482.07754,124.0019 0,0 c 0,-17.53593 14.21748,-31.751675 31.75545,-31.751675 l 0,0 c 8.42198,0 16.49914,3.34526 22.45439,9.299845 5.95538,5.95467 9.30101,14.03085 9.30101,22.45183 l 0,0 c 0,17.53613 -14.21741,31.75183 -31.7554,31.75183 l 0,0 c -17.53797,0 -31.75545,-14.21569 -31.75545,-31.75183 z"
       id="path3667"
       style="stroke:#000000;stroke-width:1.99999988;stroke-linecap:butt;stroke-linejoin:round" />
    <path
       d="m 519.91578,130.56401 q 0,0.12813 -0.0555,0.21953 -0.0547,0.0924 -0.23795,0.14627 -0.1647,0.0548 -0.51239,0.0735 -0.34779,0.0367 -0.95154,0.0367 -0.51292,0 -0.82376,-0.0367 -0.29282,-0.0208 -0.47579,-0.0735 -0.1648,-0.0735 -0.23801,-0.16481 -0.0737,-0.10964 -0.10978,-0.25577 l -1.3908,-3.47457 q -0.25626,-0.58516 -0.49425,-1.04229 -0.23791,-0.45725 -0.53073,-0.74979 -0.29274,-0.31095 -0.67716,-0.45722 -0.38433,-0.16451 -0.89682,-0.16451 l -0.98826,0 0,5.9067 q 0,0.128 -0.0739,0.21938 -0.074,0.0919 -0.25648,0.16465 -0.18293,0.0548 -0.49409,0.0917 -0.29281,0.0374 -0.75033,0.0374 -0.45755,0 -0.7686,-0.0374 -0.31117,-0.0365 -0.49416,-0.0917 -0.18308,-0.0733 -0.25622,-0.16465 -0.0551,-0.091 -0.0551,-0.21938 l 0,-14.09938 q 0,-0.53034 0.25619,-0.74975 0.27463,-0.23776 0.67715,-0.23776 l 4.02632,0 q 0.60399,0 0.98825,0.0207 0.40269,0.0212 0.73197,0.0548 0.93342,0.14624 1.6838,0.4755 0.75045,0.31089 1.26286,0.8412 0.53066,0.51205 0.80526,1.22519 0.2929,0.71323 0.2929,1.64589 0,0.76792 -0.20136,1.42637 -0.20123,0.64 -0.58551,1.1521 -0.38443,0.49371 -0.95181,0.85936 -0.56736,0.36583 -1.2811,0.60348 0.34767,0.1647 0.64048,0.40246 0.31116,0.23765 0.58589,0.58517 0.27433,0.34737 0.51228,0.78629 0.23794,0.43891 0.47589,0.98759 l 1.29939,3.05388 q 0.18293,0.45722 0.23783,0.67667 0.0741,0.20111 0.0741,0.32904 z m -4.08134,-10.55148 q 0,-0.76806 -0.34791,-1.28016 -0.34751,-0.53033 -1.13439,-0.74976 -0.23813,-0.0548 -0.54921,-0.091 -0.31125,-0.037 -0.84177,-0.037 l -1.42752,0 0,4.40722 1.61045,0 q 0.6772,0 1.17134,-0.16458 0.51252,-0.16454 0.8419,-0.45715 0.34774,-0.29263 0.51246,-0.69495 0.16465,-0.42057 0.16465,-0.93261 z"
       id="path3669"
       style="fill:#000000;fill-rule:nonzero" />
    <path
       d="m 431.75691,124.00183 50.3206,0"
       id="path3671"
       style="fill:#000000;fill-opacity:0;fill-rule:nonzero" />
    <path
       d="m 431.75698,124.0019 39.91086,0"
       id="path3673"
       style="stroke:#000000;stroke-width:1.99999988;stroke-linecap:butt;stroke-linejoin:round" />
    <path
       d="m 471.66784,126.86544 7.87343,-2.86354 -7.87343,-2.8634 z"
       id="path3675"
       style="fill:#000000;fill-rule:evenodd;stroke:#000000;stroke-width:1.99999988;stroke-linecap:butt" />
    <path
       d="m 513.83295,92.250245 0,-56.882303"
       id="path3677"
       style="fill:#000000;fill-opacity:0;fill-rule:nonzero" />
    <path
       d="m 513.83299,92.250225 0,-56.882283"
       id="path3679"
       style="stroke:#000000;stroke-width:1.99999988;stroke-linecap:butt;stroke-linejoin:round" />
    <path
       d="m 514.30754,36.308858 -228.61425,0"
       id="path3681"
       style="fill:#000000;fill-opacity:0;fill-rule:nonzero" />
    <path
       d="m 514.30756,36.308857 -228.6143,0"
       id="path3683"
       style="stroke:#000000;stroke-width:1.99999988;stroke-linecap:butt;stroke-linejoin:round" />
    <path
       d="m 286.16753,35.33843 0,56.942495"
       id="path3685"
       style="fill:#000000;fill-opacity:0;fill-rule:nonzero" />
    <path
       d="m 286.16758,35.338444 0,46.540851"
       id="path3687"
       style="stroke:#000000;stroke-width:1.99999988;stroke-linecap:butt;stroke-linejoin:round" />
    <path
       d="m 283.30179,81.879295 2.86578,7.86726 2.86581,-7.86726 z"
       id="path3689"
       style="fill:#000000;fill-rule:evenodd;stroke:#000000;stroke-width:1.99999988;stroke-linecap:butt" />
    <path
       d="m 595.90965,124.00286 0,0 c 0,-17.536 14.21715,-31.751745 31.75539,-31.751745 l 0,0 c 8.42202,0 16.49898,3.34532 22.45427,9.299895 5.95537,5.95462 9.30101,14.03076 9.30101,22.45185 l 0,0 c 0,17.53597 -14.21741,31.75178 -31.75528,31.75178 l 0,0 c -17.53824,0 -31.75539,-14.21581 -31.75539,-31.75178 z"
       id="path3691"
       style="fill:#69d2e7;fill-rule:nonzero" />
    <path
       d="m 595.9097,124.00288 0,0 c 0,-17.53603 14.21722,-31.751765 31.75531,-31.751765 l 0,0 c 8.42203,0 16.49909,3.34533 22.45444,9.299895 5.95525,5.95464 9.30091,14.03076 9.30091,22.45187 l 0,0 c 0,17.53599 -14.2173,31.75181 -31.75535,31.75181 l 0,0 c -17.53809,0 -31.75531,-14.21582 -31.75531,-31.75181 z"
       id="path3693"
       style="stroke:#000000;stroke-width:1.99999988;stroke-linecap:butt;stroke-linejoin:round" />
    <path
       d="m 636.83208,131.54907 q 0,0.12219 -0.0609,0.22229 -0.0613,0.0812 -0.24258,0.14144 -0.18201,0.061 -0.46519,0.101 -0.28301,0.041 -0.72779,0.041 -0.42476,0 -0.72815,-0.041 -0.28308,-0.0403 -0.46505,-0.101 -0.16162,-0.0604 -0.24266,-0.14144 -0.0612,-0.10159 -0.0612,-0.22229 l 0,-12.64875 -0.0233,0 -4.50953,12.62854 q -0.041,0.16163 -0.1618,0.26262 -0.10159,0.10055 -0.28302,0.16172 -0.18197,0.0613 -0.4853,0.0813 -0.28321,0.023 -0.68752,0.023 -0.40419,0 -0.68762,-0.0407 -0.28328,-0.0233 -0.48531,-0.0815 -0.18206,-0.0815 -0.30327,-0.16166 -0.1013,-0.10145 -0.12159,-0.24246 l -4.34781,-12.62861 -0.0228,0 0,12.64891 q 0,0.12204 -0.082,0.22216 -0.0613,0.0809 -0.24278,0.14143 -0.18207,0.0613 -0.46502,0.10115 -0.28304,0.0403 -0.72796,0.0403 -0.42465,0 -0.728,-0.0403 -0.28307,-0.0404 -0.46512,-0.10115 -0.16176,-0.0603 -0.22243,-0.14143 -0.0609,-0.10145 -0.0609,-0.22216 l 0,-13.84107 q 0,-0.60614 0.32355,-0.92963 0.32348,-0.32329 0.86956,-0.32329 l 2.06272,0 q 0.54598,0 0.93004,0.1019 0.40452,0.0809 0.68755,0.28289 0.30332,0.20197 0.48525,0.54529 0.20233,0.34371 0.3439,0.84881 l 3.35685,9.25435 0.041,0 3.49826,-9.23411 q 0.14173,-0.50506 0.32361,-0.84866 0.20226,-0.34349 0.44491,-0.54547 0.24245,-0.22224 0.56625,-0.3031 0.34394,-0.1019 0.78863,-0.1019 l 2.12323,0 q 0.32336,0 0.56624,0.0813 0.24264,0.081 0.38419,0.24242 0.14173,0.16167 0.22274,0.40418 0.0815,0.22223 0.0815,0.52539 l 0,13.8411 z"
       id="path3695"
       style="fill:#000000;fill-rule:nonzero" />
    <path
       d="m 545.58829,124.00183 50.32136,8.9e-4"
       id="path3697"
       style="fill:#000000;fill-opacity:0;fill-rule:nonzero" />
    <path
       d="m 545.58839,124.0019 39.91148,7.5e-4"
       id="path3699"
       style="stroke:#000000;stroke-width:1.99999988;stroke-linecap:butt;stroke-linejoin:round" />
    <path
       d="m 585.49983,126.86616 7.87353,-2.86335 -7.87345,-2.8636 z"
       id="path3701"
       style="fill:#000000;fill-rule:evenodd;stroke:#000000;stroke-width:1.99999988;stroke-linecap:butt" />
    <path
       d="m 285.92405,0 228.61444,0 0,35.363321 -228.61444,0 z"
       id="path3703"
       style="fill:#000000;fill-opacity:0;fill-rule:nonzero" />
    <path
       d="m 298.28459,27.310636 q 0,0.110061 -0.0792,0.20443 -0.0784,0.09433 -0.2518,0.157248 -0.17325,0.06289 -0.47219,0.09433 -0.29906,0.04716 -0.75545,0.04716 -0.45644,0 -0.75544,-0.04716 -0.299,-0.03143 -0.4721,-0.09433 -0.17321,-0.0629 -0.25188,-0.157248 -0.0785,-0.09434 -0.0785,-0.20443 l 0,-14.420574 q 0,-0.110074 0.0785,-0.204432 0.0793,-0.09433 0.25188,-0.157259 0.18883,-0.06285 0.4721,-0.09433 0.299,-0.03144 0.75544,-0.03144 0.45639,0 0.75545,0.03144 0.29894,0.03141 0.47219,0.09433 0.17308,0.06286 0.2518,0.157259 0.0792,0.09435 0.0792,0.204432 l 0,14.420574 z m 9.38789,-1.022189 q 0,0.518951 -0.0783,0.802022 -0.0632,0.283064 -0.17322,0.393127 -0.0946,0.110085 -0.29899,0.204449 -0.20459,0.07867 -0.48793,0.141532 -0.28328,0.07867 -0.61386,0.110085 -0.31464,0.03141 -0.64515,0.03141 -0.88134,0 -1.54246,-0.23589 -0.64514,-0.220153 -1.07012,-0.676197 -0.42471,-0.471774 -0.62947,-1.179446 -0.18887,-0.707656 -0.18887,-1.66693 l 0,-5.393942 -1.25908,0 q -0.23602,0 -0.36199,-0.267348 -0.11019,-0.283065 -0.11019,-0.943547 0,-0.330235 0.0322,-0.566129 0.0319,-0.235881 0.0946,-0.377424 0.0635,-0.141522 0.1417,-0.188698 0.0944,-0.0629 0.20455,-0.0629 l 1.25907,0 0,-2.34313 q 0,-0.125811 0.0635,-0.220171 0.0632,-0.09431 0.23607,-0.157249 0.17308,-0.06287 0.45641,-0.09437 0.29905,-0.0314 0.72395,-0.0314 0.42496,0 0.70828,0.0314 0.29897,0.03142 0.45632,0.09437 0.17313,0.06287 0.2361,0.157249 0.0792,0.09434 0.0792,0.220171 l 0,2.34313 2.29786,0 q 0.11019,0 0.1888,0.0629 0.0946,0.04719 0.15756,0.188698 0.0629,0.141543 0.0944,0.377424 0.0319,0.235894 0.0319,0.566129 0,0.660482 -0.1259,0.943547 -0.1103,0.267348 -0.34628,0.267348 l -2.2977,0 0,4.937904 q 0,0.86492 0.26754,1.305229 0.28319,0.424605 0.97577,0.424605 0.236,0 0.42489,-0.04718 0.18886,-0.0472 0.33054,-0.09432 0.15731,-0.04725 0.25166,-0.09433 0.0943,-0.04722 0.18891,-0.04722 0.0635,0 0.12598,0.04722 0.0635,0.04721 0.0946,0.17297 0.0474,0.110073 0.0785,0.330244 0.0322,0.20444 0.0322,0.534683 z m 11.87446,-4.52904 q 0,0.550414 -0.25184,0.81775 -0.23606,0.251613 -0.66108,0.251613 l -6.40529,0 q 0,0.676213 0.15738,1.226623 0.1572,0.534671 0.50355,0.927828 0.34639,0.377407 0.89708,0.581837 0.55076,0.204444 1.32198,0.204444 0.7713,0 1.35354,-0.110084 0.598,-0.125817 1.02291,-0.251614 0.4407,-0.141538 0.72402,-0.251616 0.2833,-0.110073 0.45641,-0.110073 0.11019,0 0.17303,0.04723 0.0793,0.03143 0.12596,0.141532 0.0469,0.110097 0.0632,0.29879 0.0179,0.188712 0.0179,0.487496 0,0.267348 -0.0179,0.456055 0,0.172981 -0.0319,0.298787 -0.018,0.125806 -0.0635,0.220161 -0.0475,0.09431 -0.12591,0.172993 -0.0794,0.07862 -0.42478,0.220151 -0.3463,0.141535 -0.8814,0.283079 -0.51945,0.141526 -1.21183,0.235867 -0.6768,0.09434 -1.46373,0.09434 -1.4007,0 -2.4552,-0.345966 -1.0544,-0.361689 -1.76261,-1.06935 -0.7082,-0.723397 -1.05442,-1.824195 -0.34626,-1.100804 -0.34626,-2.579032 0,-1.399596 0.36197,-2.516127 0.36198,-1.132258 1.05439,-1.918555 0.70837,-0.786285 1.69978,-1.195157 0.99152,-0.408872 2.25056,-0.408872 1.32202,0 2.25062,0.39315 0.94426,0.377416 1.54227,1.069358 0.61377,0.691931 0.89714,1.635474 0.28343,0.943558 0.28343,2.044374 l 0,0.471752 z m -2.88018,-0.849178 q 0.0308,-1.242336 -0.50355,-1.950003 -0.53508,-0.723387 -1.66831,-0.723387 -0.56669,0 -0.99147,0.220153 -0.40922,0.204444 -0.69256,0.566131 -0.26756,0.361697 -0.42476,0.849199 -0.14172,0.487512 -0.15738,1.037907 l 4.43803,0 z m 12.0752,-3.113718 q 0,0.424596 -0.0315,0.69194 -0.0178,0.267337 -0.0632,0.4246 -0.0473,0.157253 -0.12591,0.220155 -0.0626,0.04722 -0.18897,0.04722 -0.0943,0 -0.22009,-0.03141 -0.11053,-0.04715 -0.26765,-0.09433 -0.14167,-0.04719 -0.31493,-0.07865 -0.17297,-0.04719 -0.39329,-0.04719 -0.23607,0 -0.48784,0.09434 -0.25203,0.09432 -0.51945,0.314524 -0.26752,0.204425 -0.55083,0.566116 -0.28333,0.345974 -0.61383,0.86492 l 0,6.557657 q 0,0.125813 -0.0783,0.220168 -0.0636,0.07863 -0.23597,0.141532 -0.1733,0.06289 -0.4565,0.09432 -0.28333,0.03141 -0.72396,0.03141 -0.44066,0 -0.72394,-0.03141 -0.28324,-0.03142 -0.4565,-0.09432 -0.15732,-0.0629 -0.23598,-0.141532 -0.0636,-0.09433 -0.0636,-0.220168 l 0,-10.520565 q 0,-0.110073 0.0475,-0.188701 0.0632,-0.0943 0.22035,-0.157264 0.15735,-0.0629 0.39341,-0.09432 0.23607,-0.03143 0.61397,-0.03143 0.3776,0 0.61365,0.03143 0.25182,0.0314 0.37771,0.09432 0.14158,0.0629 0.20461,0.157264 0.0634,0.07864 0.0634,0.188701 l 0,1.320964 q 0.40931,-0.597574 0.77117,-0.974995 0.37789,-0.393137 0.70822,-0.613299 0.33055,-0.220163 0.66101,-0.298793 0.33053,-0.09431 0.66107,-0.09431 0.14158,0 0.31487,0.01568 0.18872,0.01566 0.37761,0.06288 0.18881,0.0314 0.33052,0.09431 0.14164,0.04719 0.20455,0.110084 0.0634,0.04721 0.0945,0.125812 0.0317,0.0629 0.0478,0.188699 0.0322,0.125809 0.0322,0.377419 0.0181,0.251617 0.0181,0.676208 z m 10.81221,9.577022 q 0,0.157262 -0.12593,0.251615 -0.11018,0.09433 -0.3779,0.141534 -0.25165,0.04718 -0.73955,0.04718 -0.53494,0 -0.78688,-0.04718 -0.23603,-0.04721 -0.33049,-0.141534 -0.0946,-0.09433 -0.0946,-0.251615 l 0,-0.849196 q -0.66102,0.707673 -1.4951,1.100811 -0.81828,0.377411 -1.84157,0.377411 -0.83403,0 -1.54227,-0.220152 -0.69243,-0.220166 -1.21184,-0.644764 -0.51933,-0.424594 -0.8026,-1.053626 -0.28339,-0.644768 -0.28339,-1.493953 0,-0.927819 0.36211,-1.604037 0.36183,-0.676206 1.06998,-1.116528 0.72414,-0.440323 1.77866,-0.644768 1.07018,-0.220162 2.47092,-0.220162 l 1.02286,0 0,-0.644735 q 0,-0.487512 -0.0951,-0.864934 -0.0943,-0.37742 -0.33032,-0.613293 -0.23603,-0.251619 -0.61356,-0.361711 -0.37796,-0.125806 -0.94444,-0.125806 -0.75549,0 -1.33777,0.172992 -0.58229,0.157258 -1.03864,0.361691 -0.44083,0.188707 -0.73979,0.361697 -0.29901,0.157255 -0.48795,0.157255 -0.12594,0 -0.23597,-0.07868 -0.0944,-0.07863 -0.15752,-0.235895 -0.0633,-0.157256 -0.11008,-0.377418 -0.0315,-0.220158 -0.0315,-0.487488 0,-0.377425 0.0635,-0.58186 0.0635,-0.220165 0.22034,-0.377421 0.17307,-0.172975 0.58236,-0.377421 0.40914,-0.220158 0.96004,-0.39314 0.56656,-0.172995 1.21174,-0.283062 0.66115,-0.110085 1.35342,-0.110085 1.24337,0 2.12483,0.235892 0.88124,0.235882 1.44778,0.739104 0.56668,0.503227 0.81848,1.305244 0.26752,0.786295 0.26752,1.871369 l 0,7.076617 z m -2.92737,-4.513316 -1.13311,0 q -0.70804,0 -1.22756,0.110096 -0.50377,0.110061 -0.81835,0.330232 -0.31478,0.204441 -0.47221,0.503231 -0.14174,0.298797 -0.14174,0.691931 0,0.660485 0.40923,1.037897 0.42498,0.377436 1.16464,0.377436 0.62957,0 1.14885,-0.314527 0.53515,-0.330243 1.07025,-0.943547 l 0,-1.792746 z m 12.1223,3.42823 q 0,0.518951 -0.0785,0.802022 -0.0635,0.283064 -0.17315,0.393127 -0.0946,0.110085 -0.29903,0.204449 -0.20462,0.07867 -0.48786,0.141532 -0.2833,0.07867 -0.61386,0.110085 -0.31473,0.03141 -0.64517,0.03141 -0.88147,0 -1.54246,-0.23589 -0.64515,-0.220154 -1.07013,-0.6762 -0.42483,-0.471769 -0.62951,-1.17944 -0.18876,-0.707657 -0.18876,-1.666928 l 0,-5.393943 -1.25905,0 q -0.23607,0 -0.36201,-0.267346 -0.11019,-0.283066 -0.11019,-0.943548 0,-0.330238 0.0318,-0.566129 0.0319,-0.235883 0.0942,-0.377423 0.0628,-0.141525 0.14186,-0.1887 0.0951,-0.0629 0.20457,-0.0629 l 1.25892,0 0,-2.343133 q 0,-0.125807 0.0632,-0.220167 0.0635,-0.09432 0.23611,-0.157248 0.1731,-0.06287 0.45635,-0.09438 0.29906,-0.03141 0.724,-0.03141 0.42505,0 0.70817,0.03141 0.29909,0.03141 0.45642,0.09438 0.17312,0.06287 0.23618,0.157248 0.0783,0.09438 0.0783,0.220167 l 0,2.343133 2.29784,0 q 0.11019,0 0.1888,0.0629 0.0949,0.04719 0.15744,0.1887 0.0635,0.14154 0.0952,0.377423 0.0312,0.235891 0.0312,0.566129 0,0.660482 -0.12573,0.943548 -0.11019,0.267346 -0.34622,0.267346 l -2.29781,0 0,4.937904 q 0,0.864921 0.26753,1.305231 0.2832,0.424605 0.97575,0.424605 0.23612,0 0.42504,-0.04719 0.18895,-0.04719 0.33034,-0.09432 0.15745,-0.04723 0.25196,-0.09434 0.0945,-0.04719 0.18891,-0.04719 0.0635,0 0.12587,0.04719 0.0633,0.04721 0.0943,0.17297 0.0474,0.110073 0.0783,0.330245 0.0322,0.204442 0.0322,0.534682 z m 11.87456,-4.52904 q 0,0.550414 -0.25185,0.81775 -0.23598,0.251613 -0.66096,0.251613 l -6.40541,0 q 0,0.676213 0.1574,1.226623 0.15731,0.534671 0.50361,0.927828 0.34618,0.377407 0.89707,0.581837 0.55076,0.204444 1.3219,0.204444 0.77133,0 1.35355,-0.110084 0.59801,-0.125817 1.023,-0.251614 0.44072,-0.141538 0.72418,-0.251616 0.28306,-0.110073 0.45617,-0.110073 0.11019,0 0.17307,0.04723 0.0787,0.03143 0.12598,0.141532 0.0476,0.110097 0.0634,0.29879 0.0181,0.188712 0.0181,0.487496 0,0.267348 -0.0181,0.456055 0,0.172981 -0.0319,0.298787 -0.0181,0.125806 -0.0633,0.220161 -0.0474,0.09431 -0.12587,0.172993 -0.0787,0.07862 -0.42501,0.220151 -0.34625,0.141535 -0.88127,0.283079 -0.51943,0.141526 -1.21184,0.235867 -0.67675,0.09434 -1.46369,0.09434 -1.40068,0 -2.4552,-0.345966 -1.05444,-0.361689 -1.76272,-1.06935 -0.70807,-0.723397 -1.05438,-1.824195 -0.34624,-1.100804 -0.34624,-2.579032 0,-1.399596 0.36184,-2.516127 0.36216,-1.132258 1.05432,-1.918555 0.70847,-0.786285 1.69998,-1.195157 0.99154,-0.408872 2.2506,-0.408872 1.32195,0 2.25072,0.39315 0.94414,0.377416 1.54219,1.069358 0.61373,0.691931 0.89703,1.635474 0.28332,0.943558 0.28332,2.044374 l 0,0.471752 z m -2.88011,-0.849178 q 0.0317,-1.242336 -0.50361,-1.950003 -0.53504,-0.723387 -1.66815,-0.723387 -0.56666,0 -0.99146,0.220153 -0.40931,0.204444 -0.69273,0.566131 -0.26745,0.361697 -0.42476,0.849199 -0.14174,0.487512 -0.1574,1.037907 l 4.43811,0 z"
       id="path3705"
       style="fill:#000000;fill-rule:nonzero" />
  </g>
</svg>
